<svg width="57" height="65" viewBox="0 0 57 65" fill="none" xmlns="http://www.w3.org/2000/svg">
<g filter="url(#filter0_d_4088_111557)">
<path d="M10.9398 15.5337C12.9442 15.8678 17.5653 16.7586 18.3448 17.3154C19.1242 17.8721 20.2099 18.2619 19.5418 18.7908C18.8737 19.3197 17.3147 21.853 17.3426 22.7995C17.3704 23.746 17.955 22.6325 17.2034 24.6925C16.4518 26.7525 13.9463 34.074 13.5566 39.0292C13.139 43.9843 14.169 51.0552 12.805 49.9696C11.4409 48.8839 7.73841 44.2349 5.95677 36.8021C4.17512 29.3693 2.36564 28.2001 3.78539 23.4398C5.20514 18.6794 8.65707 15.1718 10.9676 15.5337H10.9398Z" fill="#7D8997"/>
<mask id="mask0_4088_111557" style="mask-type:luminance" maskUnits="userSpaceOnUse" x="3" y="15" width="17" height="36">
<path d="M10.9396 15.5337C12.944 15.8677 17.5651 16.7585 18.3446 17.3153C19.1241 17.8721 20.2098 18.2618 19.5416 18.7907C18.8735 19.3196 17.3146 21.8529 17.3424 22.7994C17.3703 23.7459 17.9549 22.6324 17.2032 24.6924C16.4516 26.7524 13.9462 34.0739 13.5564 39.0291C13.1389 43.9843 14.1689 51.0552 12.8048 49.9695C11.4407 48.8838 7.57122 44.2905 5.81742 36.8855C4.03577 29.4527 2.61603 27.4762 3.78523 23.4397C5.1493 18.6515 8.65691 15.1718 10.9675 15.5337H10.9396Z" fill="white"/>
</mask>
<g mask="url(#mask0_4088_111557)">
<path d="M4.70386 37.1361C6.34631 32.4314 9.60338 28.4227 13.278 25.0821C14.4194 24.0521 15.6164 23.0778 16.9248 22.2148C17.1475 22.0756 17.3702 21.9364 17.5929 21.8251L20.0705 28.3392C19.0684 28.4506 18.094 28.7846 17.1197 29.1187C12.4429 30.789 7.98877 33.3222 4.7317 37.1639L4.70386 37.1361Z" fill="#A1B5BC"/>
<path d="M16.0062 32.1531C15.9227 33.2666 15.5887 34.575 15.366 35.605C14.9484 37.6929 13.3059 38.5002 11.3016 39.0013C10.6335 39.1405 9.99318 39.2797 9.21371 39.3075C8.43424 38.2218 7.98883 36.9134 8.10018 35.6329C8.37857 31.7634 12.9162 29.6755 16.0062 32.1531Z" fill="#A1B5BC"/>
<path d="M18.7622 20.823C17.5652 20.7394 13.2503 21.6024 10.8562 24.5254C10.0489 25.1936 9.74266 24.6368 10.1602 23.9408C10.5778 23.2449 9.18589 23.3841 8.21156 24.4698C7.23722 25.5554 7.18155 24.2749 7.71047 23.6346C8.2394 22.9943 13.2224 19.7094 16.73 19.7651C20.2377 19.8208 18.7622 20.823 18.7622 20.823Z" fill="#BBBDBF"/>
<path d="M13.4173 17.4545C12.3038 17.7051 8.37862 19.0692 6.51346 22.2984C4.64831 25.5276 4.31425 24.1079 4.89885 22.5489C5.48345 20.99 6.56914 18.7629 8.87971 17.9278C11.1903 17.0926 12.6657 16.5916 13.306 16.7307C13.9463 16.8699 13.9184 17.3432 13.4173 17.4545Z" fill="#D0D2D3"/>
<path d="M18.3446 21.6024C17.6487 21.2127 11.3573 24.3027 10.6335 25.7225C10.0767 26.7803 14.1132 24.1635 14.3638 24.4976C14.6143 24.8317 12.1367 25.9173 12.4151 26.3071C12.6935 26.6968 16.7857 24.3862 18.3446 23.7181C19.8757 23.0779 19.0684 21.9922 18.3446 21.5746V21.6024Z" fill="#E6E7E8"/>
<path d="M19.6808 21.9086C17.7878 21.4075 15.7556 21.4911 13.807 21.7973C11.7191 22.1592 9.71474 23.0222 7.96094 24.2749C10.5499 20.7116 14.7535 18.4845 19.0684 17.8443C19.4024 17.7886 19.7643 17.7607 20.0984 17.7607L19.6808 21.9086Z" fill="#E6E7E8"/>
<path d="M19.3747 17.3153C15.5052 18.2897 11.5243 18.2061 7.79402 19.6537C6.51346 20.0991 5.3721 20.7116 4.14722 21.4075C4.53695 19.9599 5.48345 18.6794 6.70833 17.7607C10.3551 15.0326 15.5052 15.1718 19.3747 17.3432V17.3153Z" fill="#414752"/>
<path d="M20.4881 19.1805C16.2567 19.5145 12.8326 21.2127 9.63121 23.913C8.10011 25.1935 6.65252 26.5298 5.56683 28.1165C4.36979 29.7868 3.8687 31.7912 3.06139 33.712C2.9222 32.6263 2.78301 31.5685 2.86652 30.4271C3.00571 26.9473 5.26061 23.913 7.8774 21.7694C11.2737 18.9021 16.2845 17.1761 20.4881 19.1805Z" fill="#414752"/>
<path d="M18.8179 22.6046C17.2312 22.5211 15.6165 22.883 14.1133 23.4119C13.3338 23.7181 12.5822 24.08 11.8305 24.4976C11.0789 24.943 10.383 25.4441 9.71484 26.0009C11.2459 23.7738 13.3616 21.9365 15.8392 20.7673C16.7301 20.3497 17.5931 20.0157 18.5952 19.8208L18.8179 22.6046Z" fill="#414752"/>
<path d="M17.7043 24.247C15.5051 25.6389 13.5842 27.4206 11.8026 29.2857L11.0788 30.093C10.355 30.9282 9.79824 31.8468 9.13012 32.7098C7.90524 34.1296 6.54117 35.4658 4.98223 36.5237L4.73169 36.3845C4.73169 35.7442 4.84304 35.1596 5.01007 34.5471C5.39981 33.2109 6.01224 31.9304 6.90306 30.8447C7.6547 29.926 8.65687 29.23 9.54769 28.4784C11.3293 27.003 13.3337 25.7224 15.4494 24.7759C16.1453 24.4697 16.8691 24.1913 17.6208 23.9686L17.7321 24.2192L17.7043 24.247Z" fill="#414752"/>
<path d="M20.4326 22.02C19.0964 23.9686 17.259 24.4141 15.0042 24.1078C15.0042 21.324 18.5118 20.2105 20.4326 22.02Z" fill="#414752"/>
</g>
<path d="M12.7771 49.9695C10.1603 47.8538 8.43435 44.7916 7.09812 41.7016C5.78973 38.5837 5.23296 35.2988 4.03592 32.1252C3.78538 31.3179 3.507 30.5106 3.3678 29.6476C3.28429 28.896 3.11726 27.866 3.03374 27.1422C2.58833 23.7738 4.34214 20.2383 6.51352 17.7607C7.3765 16.8421 8.40652 15.9791 9.6314 15.6172C10.049 15.5058 10.4665 15.478 10.8841 15.5615C10.4665 15.5337 10.049 15.5893 9.65924 15.7564C6.51352 17.1204 4.36998 21.4632 3.78538 24.6924C3.59051 25.8338 3.78537 27.17 3.98024 28.3114C4.25862 31.2344 5.6227 33.8233 6.26297 36.7464C6.48568 37.6929 6.76406 38.8342 7.07028 39.7529C7.18163 40.0313 7.3765 40.6437 7.46001 40.9221C8.68489 44.207 10.2438 47.4919 12.7493 49.9973L12.7771 49.9695Z" fill="#414752"/>
<path d="M14.1691 51.417C11.8864 53.7276 6.01254 52.3913 4.34225 46.2948C2.67196 40.1982 6.09605 37.8041 8.43446 38.0547C10.7729 38.3052 12.0256 40.755 13.3897 43.7058C14.197 45.4596 15.3383 49.9973 14.1691 51.417Z" fill="#FBD0AE"/>
<path d="M14.1692 51.4171C12.1648 53.4492 8.7129 52.5863 6.79206 50.8325C3.98041 48.494 2.47714 42.7037 4.7042 39.5858C5.92908 37.832 8.54587 37.1639 10.2718 38.5837C11.8586 39.8642 12.6102 41.8686 13.3897 43.678C12.4711 41.9521 11.6637 40.0591 10.0491 38.862C8.4902 37.665 6.17962 38.3053 5.12177 39.892C3.08958 42.7872 4.56501 48.2713 7.07044 50.4984C8.87993 52.2244 12.0813 53.1987 14.1692 51.3892V51.4171Z" fill="black"/>
<path d="M8.7686 48.7723C10.4946 49.524 11.274 49.2178 12.0535 48.8002C12.0535 46.5731 10.6338 42.3696 8.37887 41.7014C6.12398 41.0333 5.34451 43.2604 5.73424 45.4596C6.12398 47.6588 8.7686 48.7723 8.7686 48.7723Z" fill="#F79778"/>
<path d="M5.84563 45.8494C5.12183 44.2904 5.76211 41.5623 7.7943 41.5066C9.60378 41.6458 10.7451 43.9007 11.4133 45.3483C11.8865 46.4896 12.2206 47.6867 12.1927 48.9394C11.6081 49.2178 10.9957 49.3291 10.3554 49.3013C9.77082 49.2734 9.21405 49.1064 8.7408 48.7724C9.74297 49.2456 10.9679 49.1621 11.8865 48.661L11.7752 48.828C11.7752 48.2713 11.6081 47.7145 11.4689 47.1577C10.9679 45.5431 9.57594 42.2304 7.73862 41.9798C5.98482 41.9798 5.42805 44.4296 5.81779 45.8494H5.84563Z" fill="black"/>
<path d="M5.37244 39.5858C4.31459 41.785 4.48162 44.207 4.70433 46.5732C3.70215 44.4297 3.5908 41.3675 5.37244 39.5858Z" fill="#F0F0F0"/>
<path d="M25.4436 63.9721C17.4262 63.9721 12.4431 59.6015 9.85419 55.2865C6.76415 50.1643 8.7685 44.3461 7.90552 40.0312C6.34658 32.0695 7.90552 24.1634 9.90987 20.7115C9.90987 20.7115 15.3662 12.6384 25.9725 12.6384C36.5789 12.6384 39.8916 14.5871 44.0117 18.7072C48.1317 22.8272 49.8577 28.1721 49.3566 37.4979C49.0225 43.7894 47.046 49.3848 43.8168 54.4792C40.4484 59.7685 33.4331 63.9999 25.4436 63.9999V63.9721Z" fill="#F79778" stroke="black" stroke-width="0.556764" strokeMiterlimit="10"/>
<path d="M25.5272 62.3018C17.5098 62.3018 13.2506 59.4066 10.5781 55.1474C7.90563 50.8881 9.04699 44.3183 8.18401 40.0034C6.62507 32.0417 8.21185 24.2748 10.2162 20.8229C10.2162 20.8229 15.3384 13.0282 25.9448 13.0282C36.5511 13.0282 39.8082 14.5871 43.9004 18.7072C48.0205 22.8272 46.2667 25.7503 45.7934 35.0482C45.4593 41.3396 45.7377 47.4084 42.5085 52.5028C39.1401 57.792 33.5168 62.3018 25.4994 62.3018H25.5272Z" fill="url(#paint0_radial_4088_111557)"/>
<path d="M39.5576 18.7628C40.4206 19.4866 41.0331 20.4609 41.562 21.4353C41.7569 21.825 41.9517 22.2426 41.9796 22.688C41.9796 22.9107 41.9796 23.3004 41.729 23.4675C41.729 23.4675 41.7847 23.4118 41.7569 23.384C42.6477 25.8616 43.5942 28.3392 44.2623 30.8724C45.1531 34.1017 45.9047 37.4422 45.7934 40.7828C45.7656 41.8963 45.682 43.0099 45.5707 44.1234C45.4315 41.8963 45.3758 39.6693 44.9861 37.5258C44.1509 32.9046 42.7034 28.4227 41.2558 23.9407C41.1723 23.6623 41.0331 23.1891 41.3393 23.0221C41.7012 22.2148 40.1144 19.4309 39.4741 18.7628H39.5576Z" fill="#5F6874"/>
<path d="M48.1318 15.5337C46.1274 15.8678 41.5063 16.7586 40.7268 17.3154C39.9474 17.8721 38.8617 18.2619 39.5298 18.7908C40.1979 19.3197 41.7568 21.853 41.729 22.7995C41.729 23.7738 41.1166 22.6325 41.8682 24.6925C42.6198 26.7525 45.1253 34.074 45.515 39.0292C45.9326 43.9843 44.9026 51.0552 46.2666 49.9696C47.6307 48.8839 52.5024 44.903 54.284 37.4702C56.0657 30.0374 56.7338 28.2001 55.314 23.4398C53.8943 18.6794 50.4424 15.1718 48.1318 15.5337Z" fill="#7D8997"/>
<mask id="mask1_4088_111557" style="mask-type:luminance" maskUnits="userSpaceOnUse" x="39" y="15" width="18" height="36">
<path d="M48.1318 15.5337C46.1274 15.8678 41.5063 16.7586 40.7268 17.3154C39.9474 17.8721 38.8617 18.2619 39.5298 18.7908C40.1979 19.3197 41.7568 21.853 41.729 22.7995C41.729 23.7738 41.1166 22.6325 41.8682 24.6925C42.6198 26.7525 45.1253 34.074 45.515 39.0292C45.9326 43.9843 44.9026 51.0552 46.2666 49.9696C47.6307 48.8839 52.5024 44.903 54.284 37.4702C56.0657 30.0374 56.7338 28.2001 55.314 23.4398C53.8943 18.6794 50.4424 15.1718 48.1318 15.5337Z" fill="white"/>
</mask>
<g mask="url(#mask1_4088_111557)">
<path d="M54.3674 37.1361C51.1103 33.2944 46.6284 30.7611 41.9794 29.0908C41.0051 28.7568 40.0307 28.4227 39.0286 28.3114L41.5062 21.7972C41.7289 21.9364 41.9794 22.0756 42.1743 22.187C43.4827 23.0221 44.6797 24.0243 45.8211 25.0543C49.4679 28.3949 52.725 32.4314 54.3952 37.1082L54.3674 37.1361Z" fill="#A1B5BC"/>
<path d="M43.0652 32.153C46.1552 29.6754 50.6928 31.7633 50.9712 35.6328C51.0547 36.9134 50.6372 38.2218 49.8577 39.3075C49.0782 39.2518 48.4658 39.1404 47.7698 39.0012C45.7655 38.528 44.123 37.6928 43.7055 35.605C43.4828 34.575 43.1487 33.2944 43.0652 32.153Z" fill="#A1B5BC"/>
<path d="M40.3092 20.8228C41.5063 20.7393 45.8212 21.6023 48.2153 24.5253C49.0226 25.1934 49.3288 24.6367 48.9112 23.9407C48.4937 23.2448 49.8856 23.3839 50.8599 24.4696C51.8342 25.5553 51.8899 24.2748 51.361 23.6345C50.8321 22.9942 45.849 19.7093 42.3414 19.765C38.8338 19.8207 40.3092 20.8228 40.3092 20.8228Z" fill="#BBBDBF"/>
<path d="M45.6542 17.4544C46.7677 17.705 50.6929 19.069 52.558 22.2983C54.4232 25.5275 54.7572 24.1077 54.1726 22.5488C53.6159 20.9899 52.5024 18.7628 50.1918 17.9277C47.8812 17.0925 46.4058 16.5914 45.7655 16.7306C45.1252 16.8698 45.1531 17.3431 45.6542 17.4544Z" fill="#D0D2D3"/>
<path d="M40.7267 21.6024C41.4227 21.2127 47.7141 24.3027 48.4379 25.7225C49.1617 27.1422 44.9582 24.1635 44.7076 24.4976C44.4571 24.8317 46.9347 25.9173 46.6563 26.3071C46.3779 26.6968 42.2857 24.3862 40.7267 23.7181C39.1678 23.05 40.003 21.9922 40.7267 21.5746V21.6024Z" fill="#E6E7E8"/>
<path d="M38.9729 17.7607C43.6776 18.0948 48.3265 20.4889 51.1104 24.2749C48.5214 22.4097 45.3478 21.4911 42.2021 21.5467C41.2556 21.5746 40.2813 21.6303 39.3905 21.9086L38.9729 17.7607Z" fill="#E6E7E8"/>
<path d="M39.6968 17.3153C44.8468 15.4779 52.1404 16.0069 54.9243 21.3796C50.3588 17.3709 45.3758 17.6215 39.6968 17.3153Z" fill="#414752"/>
<path d="M38.5833 19.1804C42.8425 17.7885 47.4358 19.5145 50.7764 22.2983C52.4467 23.6902 54.0056 25.3327 54.9799 27.337C55.9821 29.3135 56.0935 31.5684 56.0378 33.7119C55.5089 31.7076 55.147 29.6197 54.0056 27.8659C52.9478 26.14 51.4723 24.6924 49.8856 23.384C46.6563 20.6837 42.8425 18.9577 38.5833 19.1804Z" fill="#414752"/>
<path d="M40.4764 19.8485C44.0953 20.6558 47.2689 23.0221 49.3567 26.0286C47.4081 24.3861 45.0697 23.2169 42.5921 22.7715C41.8404 22.6323 41.0053 22.5488 40.2815 22.6045L40.5042 19.8207L40.4764 19.8485Z" fill="#414752"/>
<path d="M41.4785 23.9686C44.4572 24.8594 47.1575 26.5297 49.5516 28.4784C50.3032 29.1187 51.1106 29.7033 51.8065 30.3993C52.5025 31.123 53.0314 31.9582 53.449 32.849C53.9779 33.9625 54.3119 35.1317 54.3398 36.3566L54.0892 36.4958C52.5303 35.438 51.1662 34.0739 49.9413 32.682C49.2732 31.819 48.7165 30.9003 47.9927 30.0652L47.2689 29.2579C46.0162 27.9217 44.6521 26.6411 43.2045 25.5276C42.6199 25.0543 42.0075 24.6367 41.3672 24.2192L41.4785 23.9686Z" fill="#414752"/>
<path d="M38.6389 22.0199C40.5598 20.1826 44.0674 21.2961 44.0674 24.1077C41.8125 24.414 39.9751 23.9686 38.6389 22.0199Z" fill="#414752"/>
</g>
<path d="M46.2944 49.9695C48.8277 47.7424 50.9434 45.0143 52.3632 41.9521C53.8108 38.8899 54.3397 35.5215 55.1191 32.2644C55.481 30.6219 55.7594 28.9795 55.7037 27.337C55.4532 24.0521 54.3397 20.7115 52.2796 18.0948C51.2496 16.8699 49.8856 15.478 48.1596 15.5615C49.9134 15.2831 51.4445 16.6472 52.5859 17.8442C54.8964 20.4332 56.1492 23.8573 56.4832 27.3092C56.5946 29.063 56.2884 30.8168 55.9265 32.4593C55.1192 35.7998 54.5345 39.1961 52.9478 42.2583C51.3888 45.3205 49.1061 47.993 46.3223 49.9973L46.2944 49.9695Z" fill="white"/>
<path d="M9.99333 31.0951C12.9163 31.3178 18.9016 32.8211 20.0708 34.1852C21.24 35.5493 23.5784 37.7763 20.4048 42.6758C17.2313 47.5753 11.8863 45.2926 8.76845 42.1469C5.65057 39.0012 7.51573 30.9003 9.99333 31.0673V31.0951Z" fill="url(#paint1_linear_4088_111557)"/>
<path d="M39.0008 30.4828C36.0778 30.7055 28.6728 31.5128 27.5036 32.8769C26.8355 33.6285 28.0882 39.3353 26.8077 43.6503C26.3623 45.0978 37.08 46.2114 40.1422 40.8108C41.3949 38.6116 41.4784 30.2879 39.0008 30.4828Z" fill="url(#paint2_linear_4088_111557)"/>
<path d="M19.8202 42.3975C18.4004 43.0657 11.3573 45.8773 8.37866 40.4767C8.49001 39.4745 9.54787 35.438 14.5031 35.438C19.4583 35.438 19.8202 42.3697 19.8202 42.3697V42.3975Z" fill="white"/>
<path d="M14.0576 43.6502C15.9333 43.6502 17.4539 41.9801 17.4539 39.9199C17.4539 37.8597 15.9333 36.1896 14.0576 36.1896C12.1819 36.1896 10.6614 37.8597 10.6614 39.9199C10.6614 41.9801 12.1819 43.6502 14.0576 43.6502Z" fill="#0F1925"/>
<path d="M14.0577 41.3118C14.7649 41.3118 15.3382 40.6886 15.3382 39.9199C15.3382 39.1511 14.7649 38.528 14.0577 38.528C13.3504 38.528 12.7771 39.1511 12.7771 39.9199C12.7771 40.6886 13.3504 41.3118 14.0577 41.3118Z" fill="#231F20"/>
<path d="M12.6101 39.6415C13.3174 39.6415 13.8907 39.0183 13.8907 38.2496C13.8907 37.4808 13.3174 36.8577 12.6101 36.8577C11.9029 36.8577 11.3296 37.4808 11.3296 38.2496C11.3296 39.0183 11.9029 39.6415 12.6101 39.6415Z" fill="white"/>
<path d="M19.7367 41.6459C19.2634 39.4188 17.9272 36.6071 15.5888 35.9947C13.9185 35.605 12.109 35.9947 10.7728 37.0526C9.68709 37.8877 8.93546 39.1404 8.54572 40.5323V40.421C8.79627 40.8942 9.07465 41.3675 9.35303 41.8407C8.96329 41.4232 8.6014 41.0056 8.2395 40.5602C8.40653 39.0291 9.10248 37.498 10.2995 36.4958C11.775 35.2152 13.9185 34.7141 15.8115 35.2431C18.4283 36.0504 19.7367 39.1404 19.7645 41.6459H19.7367Z" fill="#0F1925"/>
<path d="M28.3945 42.3976C29.8143 43.0657 36.8573 45.8774 39.836 40.4768C39.7247 39.4746 38.6668 35.438 33.7116 35.438C28.7564 35.438 28.3945 42.3698 28.3945 42.3698V42.3976Z" fill="white"/>
<path d="M33.9343 43.706C35.81 43.706 37.3306 42.0359 37.3306 39.9757C37.3306 37.9155 35.81 36.2454 33.9343 36.2454C32.0586 36.2454 30.5381 37.9155 30.5381 39.9757C30.5381 42.0359 32.0586 43.706 33.9343 43.706Z" fill="#0F1925"/>
<path d="M33.9344 41.3676C34.6416 41.3676 35.2149 40.7444 35.2149 39.9756C35.2149 39.2069 34.6416 38.5837 33.9344 38.5837C33.2271 38.5837 32.6538 39.2069 32.6538 39.9756C32.6538 40.7444 33.2271 41.3676 33.9344 41.3676Z" fill="#231F20"/>
<path d="M31.8743 40.0592C32.5815 40.0592 33.1549 39.436 33.1549 38.6673C33.1549 37.8986 32.5815 37.2754 31.8743 37.2754C31.1671 37.2754 30.5938 37.8986 30.5938 38.6673C30.5938 39.436 31.1671 40.0592 31.8743 40.0592Z" fill="white"/>
<path d="M28.5059 41.5346C28.5059 39.0013 29.8421 35.967 32.4867 35.2153C34.3797 34.7143 36.4954 35.2153 37.943 36.4959C39.14 37.4981 39.836 39.0292 40.003 40.5324C39.6411 40.9779 39.2792 41.3954 38.8895 41.813C39.1679 41.3398 39.4184 40.8665 39.7247 40.3933V40.5046C39.3071 39.1405 38.5555 37.8878 37.4976 37.0527C36.1614 36.0227 34.3519 35.5772 32.7094 35.967C30.3432 36.5516 29.0069 39.2519 28.5337 41.5068L28.5059 41.5346Z" fill="#0F1925"/>
<path d="M7.59936 32.3758C8.90776 30.9282 10.7172 29.0352 13.4454 29.2858C16.1735 29.5363 20.5163 30.1766 21.6577 32.2366C22.799 34.2966 20.906 34.9369 20.3493 34.8256C19.7925 34.7142 16.8695 32.849 14.1692 32.4593C14.1692 32.4593 10.244 31.6798 7.57153 32.3758H7.59936Z" fill="#101824"/>
<path d="M41.3115 31.7076C40.0031 30.2601 38.1936 28.3671 35.4654 28.6176C32.7373 28.8681 28.3945 29.5084 27.2532 31.5685C26.1118 33.6285 28.0048 34.2688 28.5616 34.1574C29.1183 34.0461 32.0413 32.1809 34.7416 31.7912C34.7416 31.7912 38.6668 31.0117 41.3393 31.7076H41.3115Z" fill="#101824"/>
<path d="M20.377 40.0591C20.377 40.0591 20.711 38.3053 23.467 38.3053C26.223 38.3053 26.39 40.0591 26.39 40.0591" stroke="black" stroke-width="1.39191" strokeMiterlimit="10"/>
<path d="M6.09595 38.0548L7.01461 37.8878" stroke="black" stroke-width="1.39191" strokeMiterlimit="10" stroke-linecap="round"/>
<path d="M40.6709 37.8877L49.078 36.8299C49.078 36.8299 51.4164 36.3566 51.4443 39.3353" stroke="black" stroke-width="1.39191" strokeMiterlimit="10" stroke-linecap="round"/>
<path opacity="0.7" d="M40.8938 37.9712L33.1548 47.3249L30.8721 47.1022L40.1979 36.635L40.8938 37.9712Z" fill="url(#paint3_linear_4088_111557)"/>
<path opacity="0.7" d="M26.0559 42.9544L35.2147 33.545L38.1098 34.1853L27.5035 45.1257L26.0559 42.9544Z" fill="url(#paint4_linear_4088_111557)"/>
<path opacity="0.7" d="M10.8564 46.6011L19.9595 38.3331L19.18 36.1617L9.01904 45.3483L10.8564 46.6011Z" fill="url(#paint5_linear_4088_111557)"/>
<path opacity="0.7" d="M13.3616 33.211L6.59696 41.3397C6.59696 41.3397 5.84532 36.9692 7.32074 35.4381C8.79617 33.907 13.3616 33.211 13.3616 33.211Z" fill="url(#paint6_linear_4088_111557)"/>
<path d="M13.2225 47.0743C17.1738 47.0743 20.377 43.8712 20.377 39.9199C20.377 35.9686 17.1738 32.7655 13.2225 32.7655C9.27126 32.7655 6.06812 35.9686 6.06812 39.9199C6.06812 43.8712 9.27126 47.0743 13.2225 47.0743Z" stroke="black" stroke-width="1.39191" strokeMiterlimit="10"/>
<path d="M33.5165 47.0743C37.4677 47.0743 40.6709 43.8712 40.6709 39.9199C40.6709 35.9686 37.4677 32.7655 33.5165 32.7655C29.5652 32.7655 26.3621 35.9686 26.3621 39.9199C26.3621 43.8712 29.5652 47.0743 33.5165 47.0743Z" stroke="black" stroke-width="1.39191" strokeMiterlimit="10"/>
<path d="M45.2088 51.3335C47.7142 53.8668 54.1727 52.3913 55.9822 45.7102C57.8195 39.029 54.0614 36.3844 51.4724 36.6628C48.8834 36.9412 47.5194 39.6415 46.044 42.8707C45.1531 44.7915 44.485 49.9137 45.2088 51.3335Z" fill="url(#paint7_linear_4088_111557)"/>
<path d="M45.2087 51.3334C47.4915 53.31 50.9991 52.2521 53.0034 50.3591C54.0334 49.3848 54.8408 48.1599 55.3418 46.8515C55.9543 45.1812 56.2883 43.3996 56.1492 41.6179C55.9821 39.196 54.2283 36.7741 51.6115 36.8854C48.6328 37.1081 47.2966 40.5879 46.0439 42.8706C46.9069 40.8663 47.7142 38.6949 49.468 37.2752C51.361 35.7441 54.2283 36.4679 55.5645 38.3887C56.9008 40.2538 56.9286 42.7314 56.4554 44.9028C56.01 47.0742 54.98 49.2177 53.2818 50.6932C51.1661 52.614 47.408 53.5605 45.2087 51.3334Z" fill="black"/>
<path d="M51.1383 48.4104C49.2453 49.2456 48.3823 48.9115 47.5193 48.4661C47.5471 46.0164 49.1061 41.3952 51.5558 40.6714C54.0056 39.9476 54.8964 42.3974 54.451 44.7915C54.0056 47.1856 51.1104 48.4383 51.1104 48.4383L51.1383 48.4104Z" fill="#F79778"/>
<path d="M54.3396 45.1812C54.7294 43.678 54.0891 41.0055 52.2239 41.0334C50.3031 41.3117 48.7442 44.9585 48.2152 46.6567C48.0482 47.2413 47.8812 47.8537 47.8533 48.4661L47.6863 48.2156C48.6885 48.7724 50.0247 48.8837 51.1104 48.4105C50.6093 48.8002 49.969 48.9951 49.3288 49.0508C48.605 49.1064 47.909 48.9672 47.2409 48.661C47.1852 47.2413 47.575 45.905 48.076 44.6245C48.7998 42.982 50.0804 40.5044 52.1404 40.3652C54.4231 40.4487 55.1469 43.4831 54.284 45.2369L54.3396 45.1812Z" fill="black"/>
<path d="M55.5087 41.4788C54.7014 39.6693 53.6992 37.1917 51.3608 37.3309C51.8063 36.9411 52.53 36.8576 53.1146 37.0525C54.8684 37.6649 55.7871 39.725 55.5087 41.4788Z" fill="#F0F0F0"/>
<path d="M22.9938 40.0591C22.3814 41.7294 19.7368 44.0957 21.5184 45.7103C21.7411 45.933 22.103 46.0444 22.4092 46.1557C22.7711 46.2671 23.133 46.3506 23.5228 46.4341C22.9382 46.5733 22.3257 46.6011 21.7411 46.4898C21.5741 46.4619 21.4071 46.4063 21.24 46.3227C20.8225 46.0722 20.4327 45.7103 20.2379 45.2092C19.4862 43.0935 21.6298 41.3119 22.9938 40.0591Z" fill="black"/>
<path d="M16.6189 51.8903C16.6189 51.8903 18.0943 53.839 23.6063 53.5606C29.1182 53.2823 32.7094 50.4149 32.7094 50.4149" stroke="black" stroke-width="0.835146" strokeMiterlimit="10" stroke-linecap="round"/>
<path d="M21.7969 56.1218C21.7969 56.1218 22.4093 56.3166 23.8012 56.2609C25.9726 56.0939 26.3623 55.899 26.3623 55.899" stroke="#F79778" stroke-width="0.835146" strokeMiterlimit="10" stroke-linecap="round"/>
<path d="M48.2989 15.5336C48.2989 15.5336 41.8126 17.1482 40.5599 17.2874C39.3072 17.4266 33.4333 17.3153 28.3111 19.3196C23.1889 21.324 22.0475 21.4075 22.0475 21.4075C22.0475 21.4075 12.3041 16.5358 5.73431 19.5701C0.556405 21.9642 2.19885 28.8124 2.19885 28.8124C2.19885 28.8124 -0.891183 27.4762 0.973976 18.0947C1.30803 16.3966 3.08968 13.5849 4.45375 12.1095C5.81782 10.6341 5.81782 10.133 8.54597 7.98946C15.9509 2.14344 26.3902 -0.167128 33.322 0.695856C42.3694 1.80938 49.1619 7.98946 49.1619 12.6384C49.1619 17.2874 48.2989 15.5615 48.2989 15.5615V15.5336Z" fill="#2A323D"/>
<path d="M19.1243 7.15427C20.2935 6.70886 24.3578 7.3213 25.4992 9.18646C25.7219 9.49268 25.1373 9.18646 24.4692 9.35349C23.8011 9.52052 23.1608 9.60403 22.4649 9.40916C21.1565 9.07511 20.4048 8.71321 20.0429 8.46266C19.2635 7.93374 18.2891 7.46049 19.1521 7.12643L19.1243 7.15427Z" fill="#A6A8AB"/>
<path d="M18.2057 8.93598C19.1243 8.85247 23.6898 9.38139 25.2209 11.5249C26.752 13.6685 23.7733 12.4158 23.2165 12.2209C22.6598 12.026 20.0152 10.9125 18.6789 10.8568C17.3427 10.8011 18.5954 10.5784 18.8181 10.2722C19.0408 9.96599 18.2057 9.8268 18.0386 9.49275C18.0386 9.49275 17.7046 9.0195 18.2335 8.96382L18.2057 8.93598Z" fill="#A6A8AB"/>
<path d="M24.9146 4.42622C25.694 4.84379 28.0603 5.48407 28.45 5.37272C28.8398 5.26137 29.2017 5.03866 28.8398 4.67677C28.4779 4.31487 27.1695 4.03649 26.5849 4.00865C26.0003 3.98081 24.8032 3.81378 24.6919 4.09216C24.5805 4.37054 24.8311 4.37054 24.9146 4.42622Z" fill="#A6A8AB"/>
<path d="M36.8572 4.17567C37.3861 4.56541 37.4975 4.76028 38.1099 4.87163C38.7223 4.98298 39.6688 4.9273 39.641 5.40055C39.6132 5.8738 37.7202 6.76462 37.1356 6.31921C36.551 5.8738 36.0777 4.73244 36.0499 4.42622C36.022 4.12 36.551 3.92513 36.8572 4.17567Z" fill="#A6A8AB"/>
<path d="M34.1013 5.53975C34.1013 6.04083 35.2984 7.04301 35.883 7.12652C36.4676 7.21004 37.0522 6.70895 36.7459 6.15219C36.4397 5.59542 35.2984 5.34488 34.9643 5.34488C34.6302 5.34488 34.1292 5.09434 34.1013 5.53975Z" fill="#A6A8AB"/>
<path d="M40.4205 5.06649C39.6411 3.64675 44.4571 6.34705 45.7098 9.24222C46.9625 12.1374 44.5963 10.3836 43.7611 9.15871C42.926 7.93383 40.8103 5.79029 40.3927 5.06649H40.4205Z" fill="#A6A8AB"/>
<mask id="mask2_4088_111557" style="mask-type:luminance" maskUnits="userSpaceOnUse" x="0" y="0" width="50" height="29">
<path d="M48.2989 15.5337C48.2989 15.5337 41.8126 17.1483 40.5599 17.2875C39.3072 17.4266 33.4333 17.3153 28.3111 19.3196C23.1889 21.324 22.0475 21.4075 22.0475 21.4075C22.0475 21.4075 12.3041 16.5358 5.73431 19.5702C0.556405 21.9643 2.19885 28.8125 2.19885 28.8125C2.19885 28.8125 -0.891183 27.4762 0.973976 18.0948C1.30803 16.3966 3.08968 13.585 4.45375 12.1096C5.81782 10.6341 7.1819 8.90816 8.54597 7.9895C16.3128 2.64457 26.3902 -0.167088 33.322 0.695896C42.3694 1.80942 49.1619 7.9895 49.1619 12.6385C49.1619 17.2875 48.2989 15.5615 48.2989 15.5615V15.5337Z" fill="white"/>
</mask>
<g mask="url(#mask2_4088_111557)">
<path d="M42.7313 18.8742C45.3203 17.0369 45.543 11.8312 43.5108 8.7133C40.6991 4.45406 35.6326 0.862929 32.2085 0.250488" stroke="#111420" stroke-width="1.39191" strokeMiterlimit="10"/>
<path d="M39.196 17.4824C39.3909 17.1762 39.725 16.8978 40.0034 16.7029C40.3931 16.4246 40.6715 16.2019 40.9499 15.84C41.3953 15.1718 41.5345 14.3367 41.4509 13.3624C41.3674 12.0261 40.9499 10.6899 40.4766 9.43717L39.9477 8.15662C41.0055 9.54853 42.0355 11.0796 42.6758 12.7221C43.1491 14.0026 43.3439 15.4224 42.8985 16.7308C42.648 17.5102 42.0912 18.234 41.5623 18.8465L41.5345 18.9022C41.5623 18.9022 41.5901 18.8465 41.618 18.8186L39.1682 17.4824H39.196Z" fill="#111420"/>
<path d="M36.4399 18.7908C36.5791 18.7073 36.7183 18.5959 36.8575 18.5403C38.2494 18.067 38.6392 17.2875 38.7505 15.7564V15.4781C38.7784 14.1697 38.5 12.7499 38.1938 11.4694C39.0011 12.8613 39.8084 14.3645 40.1146 15.9513C40.5322 17.9 39.9197 19.626 38.2216 20.8508L36.4121 18.7351L36.4399 18.7908Z" fill="#111420"/>
<path d="M36.4677 18.0112C37.1358 15.7842 37.2193 13.1395 36.1615 11.0238C35.1872 9.32571 33.8231 7.82245 32.2641 6.59757C28.5895 3.67456 23.69 2.70022 19.0688 3.25698C23.7735 2.25481 28.8957 2.86725 32.9879 5.59539C35.0758 6.95946 36.9688 8.76894 38.1937 10.9403C38.8061 12.1374 39.1402 13.4179 39.2794 14.6985C39.4464 15.979 39.3907 17.3153 39.168 18.6237L36.4677 18.0112Z" fill="#111420"/>
<path d="M-55.259 11.4415C-53.366 30.0096 -19.8767 19.0413 -8.8806 15.311C-3.7027 13.5015 1.41953 11.525 6.4304 9.32578C9.40909 7.87819 12.4713 6.5698 15.7562 5.95736C19.57 5.23357 23.8571 4.81599 27.4482 6.65331C31.9859 8.96388 36.9411 12.8056 37.1638 18.401L34.6583 18.3454C34.714 17.4824 34.547 16.5359 34.1851 15.6172C32.7932 11.9982 28.8958 8.82469 25.3882 7.23792C22.3817 6.18006 19.0689 6.34709 15.8954 6.7925C12.6662 7.26575 9.52044 8.29577 6.56959 9.71551C1.53088 11.8869 -3.61919 13.8634 -8.79709 15.6172C-19.8767 19.2919 -53.4774 30.0652 -55.2869 11.4415H-55.259Z" fill="#111420"/>
<path d="M26.2789 20.7394C26.2789 20.6559 26.3345 20.628 26.3624 20.5167L26.4181 20.3497C26.4181 20.2383 26.4459 20.0991 26.4737 19.9878C26.4737 19.9043 26.4737 19.7094 26.4737 19.598C26.4737 19.4032 26.4459 19.2083 26.3902 19.0134C26.0005 17.0648 24.3859 15.5893 22.7156 14.4758C22.4094 14.3088 21.6856 13.8912 21.4072 13.752C21.101 13.6128 20.3215 13.2509 20.0153 13.1117C18.9017 12.6663 17.2871 12.1374 16.0901 11.8312C17.7325 11.9982 19.6534 12.2487 21.2402 12.722C23.7456 13.418 26.1118 14.5315 27.7543 16.7029C28.4224 17.6215 28.8957 18.735 29.0348 19.8486C29.0905 20.461 29.0905 21.0456 28.9235 21.6581L26.3067 20.7394H26.2789Z" fill="#111420"/>
<path d="M24.1632 20.99C24.1632 20.99 24.1632 20.9899 24.1632 20.9621V20.8786C24.1632 20.7672 24.1076 20.6559 24.0797 20.5724C23.3281 18.6794 21.9362 17.0648 20.3216 15.812C18.4007 14.3088 15.951 13.5293 13.529 13.418C7.68302 12.9726 3.98054 15.3945 0.361572 19.7372C2.6443 16.4523 5.51164 13.5293 9.54818 12.555C13.529 11.5806 17.9832 11.8312 21.4908 14.0861C23.69 15.478 25.6108 17.3988 26.6965 19.7929C26.7522 19.9878 26.8914 20.2662 26.9192 20.4889C26.9471 20.6559 26.9749 20.8229 26.9749 20.99H24.1911H24.1632Z" fill="#111420"/>
<path d="M21.964 23.0222C18.9853 19.431 15.1158 16.8142 10.3833 16.508H9.46463C4.3424 16.3132 0.0553198 20.461 -1.69849 25.0543C-0.974693 22.5767 0.333702 20.2383 2.19886 18.3732C4.09186 16.4802 6.70865 15.2553 9.38112 15.0883L10.3833 15.0048C10.7452 15.0048 11.5525 15.0048 11.9144 15.0326C16.2015 15.3388 20.1823 17.4267 23.2445 20.3775L23.9405 21.0178L21.964 22.9943V23.0222Z" fill="#111420"/>
<path d="M3.22901 14.4479C4.78795 12.0539 7.76663 11.1074 10.4391 10.5228C15.2551 9.63193 20.7671 9.77112 25.082 12.4436C26.975 13.6963 28.6731 15.0882 29.8423 17.1482C30.6496 18.4845 30.9837 20.2661 30.928 21.7972L28.1442 21.6859C28.5339 19.1248 27.309 17.0369 25.4717 15.2831C23.6344 13.3901 21.2403 12.193 18.6235 11.6363C14.2529 10.6063 6.2077 10.6063 3.20117 14.5036L3.22901 14.4479Z" fill="#111420"/>
<path d="M32.7653 18.1782C33.4334 15.8955 32.5983 13.5293 31.0393 11.7754C30.065 10.6062 28.8123 9.6319 27.5596 8.76892C29.0072 9.35352 30.5104 10.0495 31.7631 10.996C34.1572 12.6941 35.6883 15.4501 35.5491 18.4566L32.7931 18.1504L32.7653 18.1782Z" fill="#111420"/>
</g>
<path d="M1.66967 18.7351C1.58616 14.615 5.09377 12.2488 8.85192 11.8033C8.29516 12.1374 7.65489 12.4158 7.09812 12.7498C5.39999 13.6407 3.78538 14.7264 2.75536 16.3688C2.30995 17.0926 2.03157 17.9277 1.66967 18.7351Z" fill="white"/>
<path d="M3.84131 13.585C4.25888 12.1653 5.48377 11.1074 6.84784 10.5785C7.32109 10.4115 7.79433 10.3001 8.29542 10.3836C7.87785 10.662 7.51596 10.9126 7.15406 11.1631C6.06837 11.9426 4.95484 12.8055 3.86915 13.585H3.84131Z" fill="white"/>
<path d="M6.45801 10.829C7.79424 8.96383 10.2718 7.62759 12.5824 7.8503C10.4667 8.7968 8.57371 9.82681 6.45801 10.829Z" fill="white"/>
<path d="M7.51587 8.82459C13.4454 3.70236 22.1031 0.111231 29.9813 -0.00012207C33.0713 -0.00012207 36.1892 0.556642 39.0565 1.75368C41.896 2.92289 44.6799 4.48183 46.7399 6.7924C48.0483 8.3235 49.1618 10.2443 49.1618 12.3322C48.9948 10.3 47.8256 8.49053 46.4337 7.07078C45.0417 5.62319 43.3158 4.5375 41.5341 3.61884C37.943 1.8372 34.0178 0.723671 29.9813 0.835024C22.3258 0.8907 13.6403 4.3148 7.51587 8.82459Z" fill="white"/>
<path d="M22.0473 21.4074C15.9229 19.0969 3.45137 15.6171 2.56055 25.4161C2.42136 26.8359 2.56055 28.3391 2.69974 29.7867L1.92027 29.1186C-0.61301 26.9472 -0.0562479 22.855 0.361325 19.9042C0.500516 18.9298 0.667547 17.9276 1.08512 16.9812C1.66972 15.7284 2.39352 14.5314 3.2565 13.4457C3.72975 12.8333 4.23083 12.193 4.81544 11.6919C4.53705 11.9703 4.31435 12.2765 4.06381 12.5827C2.47703 14.7541 1.05728 17.176 0.918089 19.932C0.639707 22.5766 0.166458 26.6132 2.44919 28.4783L1.78107 28.8124C1.53053 26.474 1.55837 23.9964 2.69974 21.8528C6.29087 15.4222 16.8137 18.8463 22.0194 21.3796L22.0473 21.4074Z" fill="#111420"/>
<path d="M49.1618 13.0004C49.1061 13.8634 49.0782 14.782 48.5215 15.5336C48.1874 15.8955 47.7142 15.9512 47.2966 16.1183C45.2366 16.7307 43.1209 17.1483 41.0609 17.5937C39.3906 17.9834 37.6089 17.7607 35.9108 17.9556C33.4053 18.1783 31.0669 18.7629 28.7564 19.5702C26.5293 20.2661 24.3301 20.9899 22.0195 21.4075C24.4971 20.6002 28.2274 19.0691 30.705 18.1504C32.3753 17.6772 34.0735 17.2875 35.8273 17.1204C37.1078 16.9812 38.4162 17.0369 39.6689 16.9812C41.7568 16.7585 43.8447 16.2853 45.9325 15.9512C46.545 15.8399 47.1853 15.7007 47.7977 15.5336C47.9926 15.478 48.1874 15.4223 48.2988 15.2831C48.8277 14.6985 48.9947 13.752 49.1339 12.9725L49.1618 13.0004Z" fill="#111420"/>
<path d="M17.9551 27.5597C21.7411 27.5319 25.4714 27.3648 29.2295 26.9473C27.4201 27.5875 25.5271 27.8381 23.6341 27.9494C21.7411 28.033 19.8202 27.9773 17.9551 27.5597Z" fill="#F79778"/>
<path d="M17.9551 25.2492C19.4305 25.11 20.8781 24.9986 22.3535 24.8595C23.6619 24.7481 25.4714 24.5254 26.7519 24.4976C23.9403 25.3884 20.8781 25.7781 17.9551 25.2492Z" fill="#F79778"/>
</g>
<defs>
<filter id="filter0_d_4088_111557" x="0" y="-0.00012207" width="56.7341" height="64.2784" filterUnits="userSpaceOnUse" color-interpolation-filters="sRGB">
<feFlood flood-opacity="0" result="BackgroundImageFix"/>
<feColorMatrix in="SourceAlpha" type="matrix" values="0 0 0 0 0 0 0 0 0 0 0 0 0 0 0 0 0 0 127 0" result="hardAlpha"/>
<feOffset/>
<feComposite in2="hardAlpha" operator="out"/>
<feColorMatrix type="matrix" values="0 0 0 0 0 0 0 0 0 0 0 0 0 0 0 0 0 0 0.25 0"/>
<feBlend mode="normal" in2="BackgroundImageFix" result="effect1_dropShadow_4088_111557"/>
<feBlend mode="normal" in="SourceGraphic" in2="effect1_dropShadow_4088_111557" result="shape"/>
</filter>
<radialGradient id="paint0_radial_4088_111557" cx="0" cy="0" r="1" gradientUnits="userSpaceOnUse" gradientTransform="translate(20.9061 35.3544) scale(29.425 29.425)">
<stop offset="0.7" stop-color="#FBD0AE"/>
<stop offset="1" stop-color="#F79778"/>
</radialGradient>
<linearGradient id="paint1_linear_4088_111557" x1="18.4561" y1="33.5171" x2="9.40873" y2="42.2861" gradientUnits="userSpaceOnUse">
<stop stop-color="#F79778"/>
<stop offset="0.6" stop-color="#FBD0AE"/>
</linearGradient>
<linearGradient id="paint2_linear_4088_111557" x1="28.6172" y1="32.8212" x2="38.4162" y2="42.2862" gradientUnits="userSpaceOnUse">
<stop stop-color="#F79778" stop-opacity="0.5"/>
<stop offset="0.6" stop-color="#FBD0AE"/>
</linearGradient>
<linearGradient id="paint3_linear_4088_111557" x1="30.8721" y1="41.9799" x2="40.8938" y2="41.9799" gradientUnits="userSpaceOnUse">
<stop stop-color="white"/>
<stop offset="1" stop-color="white" stop-opacity="0"/>
</linearGradient>
<linearGradient id="paint4_linear_4088_111557" x1="26.0559" y1="39.3354" x2="38.1098" y2="39.3354" gradientUnits="userSpaceOnUse">
<stop stop-color="white"/>
<stop offset="1" stop-color="white" stop-opacity="0"/>
</linearGradient>
<linearGradient id="paint5_linear_4088_111557" x1="9.01904" y1="41.3675" x2="19.9595" y2="41.3675" gradientUnits="userSpaceOnUse">
<stop stop-color="white"/>
<stop offset="1" stop-color="white" stop-opacity="0"/>
</linearGradient>
<linearGradient id="paint6_linear_4088_111557" x1="10.3551" y1="34.3245" x2="6.04019" y2="39.7808" gradientUnits="userSpaceOnUse">
<stop stop-color="white"/>
<stop offset="1" stop-color="white" stop-opacity="0"/>
</linearGradient>
<linearGradient id="paint7_linear_4088_111557" x1="44.4572" y1="45.4318" x2="48.2153" y2="44.875" gradientUnits="userSpaceOnUse">
<stop stop-color="#F79778"/>
<stop offset="1" stop-color="#FCCCAB"/>
</linearGradient>
</defs>
</svg>
