<svg width="18" height="19" viewBox="0 0 18 19" fill="none" xmlns="http://www.w3.org/2000/svg">
<path d="M7.74952 10.4166L16.4995 1.66665M7.85584 10.69L10.0459 16.3217C10.2389 16.8178 10.3353 17.0659 10.4743 17.1383C10.5948 17.2011 10.7384 17.2012 10.859 17.1385C10.998 17.0663 11.0948 16.8183 11.2883 16.3224L16.7803 2.24931C16.955 1.80166 17.0423 1.57784 16.9945 1.43481C16.953 1.31061 16.8556 1.21313 16.7314 1.17164C16.5883 1.12386 16.3645 1.21121 15.9169 1.3859L1.84373 6.87785C1.34784 7.07137 1.09989 7.16813 1.02763 7.30722C0.964993 7.42779 0.965078 7.57133 1.02786 7.69183C1.10028 7.83083 1.34834 7.9273 1.84446 8.12024L7.47613 10.3103C7.57684 10.3495 7.62719 10.3691 7.66959 10.3993C7.70717 10.4261 7.74004 10.459 7.76685 10.4966C7.79709 10.539 7.81667 10.5893 7.85584 10.69Z" stroke="white" stroke-width="1.66667" stroke-linecap="round" stroke-linejoin="round"/>
</svg>
