<svg width="338" height="449" viewBox="0 0 338 449" fill="none" xmlns="http://www.w3.org/2000/svg">
<path d="M57.7346 360.3V359.058C54.5962 361.608 51.1308 363.504 47.4038 364.877C43.6769 366.25 39.6884 366.904 35.5038 366.904C25.6961 366.904 17.3269 363.439 10.3961 356.508C3.46536 349.577 0 341.208 0 331.4C0 321.592 3.46536 313.223 10.3961 306.292C17.3269 299.362 25.6961 295.896 35.5038 295.896C45.3115 295.896 53.6154 299.362 60.6116 306.292C67.5423 313.223 71.0077 321.592 71.0077 331.4V360.3C71.0077 362.131 70.3538 363.7 69.0461 364.942C67.7384 366.185 66.2346 366.904 64.4038 366.904C62.573 366.904 60.9384 366.25 59.6961 364.942C58.4538 363.635 57.7346 362.131 57.7346 360.3ZM35.5038 309.104C32.3653 309.104 29.4884 309.692 26.7423 310.869C24.0615 312.046 21.7077 313.681 19.6807 315.642C17.6538 317.604 16.15 320.023 14.973 322.704C13.7961 325.385 13.2077 328.262 13.2077 331.335C13.2077 334.408 13.7961 337.219 14.973 339.966C16.15 342.712 17.7192 345 19.6807 347.027C21.6423 349.054 23.9961 350.623 26.7423 351.8C29.4231 352.977 32.3653 353.566 35.5038 353.566C38.6423 353.566 41.4538 352.977 44.2 351.8C46.8807 350.623 49.2346 348.989 51.2615 346.962C53.2884 344.935 54.8576 342.581 56.0346 339.9C57.2115 337.219 57.8 334.342 57.8 331.335C57.8 328.327 57.2115 325.45 56.0346 322.769C54.8576 320.089 53.2884 317.735 51.2615 315.708C49.2346 313.681 46.8807 312.046 44.2 310.869C41.5192 309.692 38.5769 309.104 35.5038 309.104Z" fill="black"/>
<path d="M99.906 302.5V366.512C99.906 370.696 99.1214 374.685 97.4868 378.346C95.8522 382.073 93.6291 385.342 90.8829 388.089C88.1367 390.835 84.8676 393.058 81.1407 394.692C77.4137 396.327 73.4906 397.112 69.306 397.112C67.4098 397.112 65.8406 396.458 64.5983 395.216C63.356 393.973 62.7021 392.339 62.7021 390.442C62.7021 388.546 63.356 386.977 64.5983 385.735C65.8406 384.492 67.4098 383.839 69.306 383.839C71.7252 383.839 73.9483 383.381 76.106 382.466C78.1983 381.55 80.0944 380.308 81.6636 378.739C83.2329 377.169 84.4752 375.273 85.456 373.181C86.4367 371.089 86.8291 368.8 86.8291 366.381V302.369C86.8291 300.473 87.4829 298.904 88.7252 297.662C89.9675 296.419 91.5368 295.7 93.3675 295.7C95.1983 295.7 96.7675 296.354 98.0098 297.662C99.2521 298.969 99.9714 300.539 99.9714 302.369L99.906 302.5ZM101.083 283.277C101.083 285.435 100.298 287.266 98.7945 288.769C97.2906 290.273 95.4599 291.058 93.3022 291.058C91.1445 291.058 89.3137 290.273 87.8098 288.769C86.306 287.266 85.5214 285.435 85.5214 283.277C85.5214 281.119 86.306 279.289 87.8098 277.785C89.3137 276.281 91.1445 275.496 93.3022 275.496C95.4599 275.496 97.2906 276.281 98.7945 277.785C100.298 279.289 101.083 281.119 101.083 283.277Z" fill="black"/>
<path d="M122.79 302.435C128.413 298.054 135.017 295.896 142.667 295.896C147.113 295.896 151.297 296.746 155.286 298.512C159.274 300.277 162.805 302.631 165.813 305.573C168.821 308.581 171.24 312.046 173.071 316.1C174.901 320.154 175.751 324.404 175.751 328.981V360.235C175.751 362.131 175.097 363.7 173.79 364.942C172.482 366.185 170.978 366.904 169.147 366.904C167.317 366.904 165.682 366.25 164.44 364.942C163.197 363.635 162.478 362.066 162.478 360.235V328.981C162.478 326.3 161.955 323.75 160.909 321.331C159.863 318.912 158.424 316.819 156.659 315.054C154.894 313.223 152.736 311.85 150.382 310.804C147.963 309.758 145.413 309.235 142.732 309.235C140.051 309.235 137.436 309.758 135.017 310.804C132.597 311.85 130.505 313.289 128.74 315.054C126.909 316.885 125.47 318.977 124.49 321.396C123.444 323.816 122.921 326.366 122.921 329.046V360.3C122.921 362.196 122.267 363.766 120.959 365.008C119.651 366.25 118.147 366.969 116.317 366.969C114.486 366.969 112.851 366.316 111.609 365.008C110.367 363.7 109.647 362.131 109.647 360.3V302.631C109.647 300.8 110.301 299.231 111.609 297.923C112.917 296.616 114.486 295.962 116.317 295.962C118.147 295.962 119.717 296.616 120.959 297.923C122.201 299.231 122.921 300.735 122.921 302.5L122.79 302.435Z" fill="black"/>
<path d="M239.703 346.896C241.599 346.896 243.168 347.55 244.411 348.792C245.653 350.035 246.307 351.604 246.307 353.5C246.307 355.396 245.653 356.966 244.411 358.273C237.872 364.027 230.092 366.904 221.199 366.904C211.392 366.904 203.022 363.439 196.091 356.508C189.161 349.577 185.695 341.208 185.695 331.4C185.695 321.592 189.161 313.223 196.091 306.292C203.022 299.362 211.392 295.896 221.199 295.896C231.007 295.896 239.311 299.362 246.307 306.292C249.772 309.692 252.388 313.55 254.088 317.735C255.853 321.919 256.703 326.496 256.703 331.4C256.703 333.296 256.049 334.866 254.741 336.108C253.434 337.35 251.865 338.004 250.034 338.004H199.818C200.538 340.358 201.584 342.45 202.957 344.346C204.33 346.242 205.965 347.942 207.861 349.316C209.757 350.689 211.784 351.735 214.072 352.519C216.361 353.304 218.715 353.631 221.134 353.631C223.945 353.631 226.495 353.239 228.784 352.389C231.138 351.539 233.295 350.296 235.257 348.596C236.499 347.55 238.003 346.962 239.638 346.962L239.703 346.896ZM242.58 324.796C241.861 322.442 240.815 320.35 239.376 318.454C237.938 316.558 236.303 314.858 234.407 313.485C232.511 312.112 230.484 311.066 228.195 310.281C225.907 309.496 223.618 309.169 221.199 309.169C218.78 309.169 216.426 309.562 214.138 310.281C211.849 311.066 209.757 312.112 207.861 313.485C205.965 314.858 204.33 316.492 202.891 318.454C201.518 320.35 200.472 322.508 199.818 324.796H242.58Z" fill="black"/>
<path d="M320.84 346.896C322.736 346.896 324.305 347.55 325.547 348.792C326.79 350.035 327.444 351.604 327.444 353.5C327.444 355.396 326.79 356.966 325.547 358.273C319.009 364.027 311.228 366.904 302.336 366.904C292.528 366.904 284.159 363.439 277.228 356.508C270.297 349.577 266.832 341.208 266.832 331.4C266.832 321.592 270.297 313.223 277.228 306.292C284.159 299.362 292.528 295.896 302.336 295.896C312.144 295.896 320.447 299.362 327.444 306.292C330.909 309.692 333.524 313.55 335.224 317.735C336.99 321.919 337.84 326.496 337.84 331.4C337.84 333.296 337.186 334.866 335.878 336.108C334.57 337.35 333.001 338.004 331.17 338.004H280.955C281.674 340.358 282.72 342.45 284.094 344.346C285.467 346.242 287.101 347.942 288.997 349.316C290.894 350.689 292.92 351.735 295.209 352.519C297.497 353.304 299.851 353.631 302.27 353.631C305.082 353.631 307.632 353.239 309.92 352.389C312.274 351.539 314.432 350.296 316.394 348.596C317.636 347.55 319.14 346.962 320.774 346.962L320.84 346.896ZM323.717 324.796C322.997 322.442 321.951 320.35 320.513 318.454C319.074 316.558 317.44 314.858 315.544 313.485C313.647 312.112 311.62 311.066 309.332 310.281C307.044 309.496 304.755 309.169 302.336 309.169C299.917 309.169 297.563 309.562 295.274 310.281C292.986 311.066 290.894 312.112 288.997 313.485C287.101 314.858 285.467 316.492 284.028 318.454C282.655 320.35 281.609 322.508 280.955 324.796H323.717Z" fill="black"/>
<path d="M12.3467 447.775V412.866H26.324C28.8921 412.866 31.0342 413.247 32.7501 414.008C34.466 414.769 35.7558 415.826 36.6194 417.178C37.483 418.519 37.9149 420.065 37.9149 421.815C37.9149 423.178 37.6421 424.377 37.0967 425.411C36.5512 426.434 35.8012 427.275 34.8467 427.934C33.9035 428.582 32.824 429.042 31.608 429.315V429.656C32.9376 429.712 34.1819 430.087 35.341 430.781C36.5115 431.474 37.4603 432.445 38.1876 433.695C38.9149 434.934 39.2785 436.411 39.2785 438.127C39.2785 439.98 38.8183 441.633 37.8978 443.087C36.9887 444.531 35.6421 445.673 33.858 446.514C32.074 447.355 29.8751 447.775 27.2615 447.775H12.3467ZM19.7274 441.741H25.7444C27.8012 441.741 29.3012 441.349 30.2444 440.565C31.1876 439.769 31.6592 438.712 31.6592 437.394C31.6592 436.428 31.4262 435.576 30.9603 434.837C30.4944 434.099 29.8296 433.519 28.966 433.099C28.1137 432.678 27.0967 432.468 25.9149 432.468H19.7274V441.741ZM19.7274 427.474H25.199C26.2103 427.474 27.108 427.298 27.8921 426.945C28.6876 426.582 29.3126 426.07 29.7671 425.411C30.233 424.752 30.466 423.962 30.466 423.042C30.466 421.781 30.0171 420.764 29.1194 419.991C28.233 419.218 26.9717 418.832 25.3353 418.832H19.7274V427.474Z" fill="black"/>
<path d="M60.7345 436.627V421.593H67.9958V447.775H61.0242V443.019H60.7515C60.1606 444.553 59.1776 445.786 57.8026 446.718C56.439 447.65 54.7742 448.116 52.8083 448.116C51.0583 448.116 49.5186 447.718 48.189 446.923C46.8595 446.127 45.8197 444.997 45.0697 443.531C44.3311 442.065 43.9561 440.309 43.9447 438.264V421.593H51.2061V436.968C51.2174 438.514 51.6322 439.735 52.4504 440.633C53.2686 441.531 54.3651 441.98 55.7401 441.98C56.6151 441.98 57.4333 441.781 58.1947 441.383C58.9561 440.974 59.5697 440.372 60.0356 439.576C60.5129 438.781 60.7458 437.798 60.7345 436.627Z" fill="black"/>
<path d="M95.5882 429.059L88.9404 429.468C88.8268 428.9 88.5825 428.389 88.2075 427.934C87.8325 427.468 87.3382 427.099 86.7245 426.826C86.1222 426.542 85.4007 426.4 84.5597 426.4C83.4347 426.4 82.4859 426.639 81.7132 427.116C80.9404 427.582 80.5541 428.207 80.5541 428.991C80.5541 429.616 80.8041 430.144 81.3041 430.576C81.8041 431.008 82.662 431.355 83.8779 431.616L88.6166 432.57C91.162 433.093 93.0597 433.934 94.3097 435.093C95.5597 436.252 96.1848 437.775 96.1848 439.661C96.1848 441.377 95.6791 442.883 94.6677 444.178C93.6677 445.474 92.2927 446.485 90.5427 447.212C88.8041 447.928 86.7984 448.286 84.5257 448.286C81.0597 448.286 78.2984 447.565 76.2416 446.122C74.1961 444.667 72.9972 442.69 72.645 440.19L79.787 439.815C80.0029 440.872 80.5257 441.678 81.3552 442.235C82.1847 442.781 83.2472 443.053 84.5427 443.053C85.8154 443.053 86.8382 442.809 87.6109 442.32C88.395 441.82 88.7927 441.178 88.8041 440.394C88.7927 439.735 88.5143 439.195 87.9688 438.775C87.4234 438.343 86.5825 438.014 85.4461 437.786L80.912 436.883C78.3552 436.372 76.4518 435.485 75.2018 434.224C73.9632 432.962 73.3438 431.355 73.3438 429.4C73.3438 427.718 73.7984 426.269 74.7075 425.053C75.6279 423.837 76.9177 422.9 78.5768 422.241C80.2472 421.582 82.2018 421.252 84.4404 421.252C87.7472 421.252 90.3495 421.951 92.2472 423.349C94.1563 424.747 95.27 426.65 95.5882 429.059Z" fill="black"/>
<path d="M100.757 447.775V421.593H108.019V447.775H100.757ZM104.405 418.218C103.325 418.218 102.399 417.86 101.627 417.144C100.865 416.417 100.484 415.548 100.484 414.536C100.484 413.536 100.865 412.678 101.627 411.962C102.399 411.235 103.325 410.872 104.405 410.872C105.484 410.872 106.405 411.235 107.166 411.962C107.939 412.678 108.325 413.536 108.325 414.536C108.325 415.548 107.939 416.417 107.166 417.144C106.405 417.86 105.484 418.218 104.405 418.218Z" fill="black"/>
<path d="M121.097 432.639V447.775H113.835V421.593H120.756V426.212H121.063C121.642 424.69 122.614 423.485 123.977 422.599C125.341 421.701 126.994 421.252 128.938 421.252C130.756 421.252 132.341 421.65 133.693 422.445C135.046 423.241 136.097 424.377 136.847 425.855C137.597 427.32 137.972 429.07 137.972 431.105V447.775H130.71V432.4C130.722 430.798 130.313 429.548 129.483 428.65C128.654 427.741 127.511 427.286 126.057 427.286C125.08 427.286 124.216 427.497 123.466 427.917C122.727 428.337 122.148 428.951 121.727 429.758C121.318 430.553 121.108 431.514 121.097 432.639Z" fill="black"/>
<path d="M155.627 448.286C152.933 448.286 150.615 447.741 148.672 446.65C146.74 445.548 145.252 443.991 144.206 441.98C143.161 439.957 142.638 437.565 142.638 434.803C142.638 432.11 143.161 429.747 144.206 427.712C145.252 425.678 146.723 424.093 148.621 422.957C150.53 421.82 152.769 421.252 155.337 421.252C157.064 421.252 158.672 421.531 160.161 422.087C161.661 422.633 162.967 423.457 164.081 424.559C165.206 425.661 166.081 427.048 166.706 428.718C167.331 430.377 167.644 432.32 167.644 434.548V436.542H145.536V432.042H160.808C160.808 430.997 160.581 430.07 160.127 429.264C159.672 428.457 159.041 427.826 158.234 427.372C157.439 426.906 156.513 426.673 155.456 426.673C154.354 426.673 153.377 426.928 152.524 427.44C151.683 427.94 151.024 428.616 150.547 429.468C150.07 430.309 149.825 431.247 149.814 432.281V436.559C149.814 437.855 150.053 438.974 150.53 439.917C151.019 440.86 151.706 441.587 152.592 442.099C153.479 442.61 154.53 442.866 155.746 442.866C156.553 442.866 157.291 442.752 157.962 442.525C158.632 442.298 159.206 441.957 159.683 441.502C160.161 441.048 160.524 440.491 160.774 439.832L167.49 440.275C167.149 441.889 166.45 443.298 165.394 444.502C164.348 445.695 162.996 446.627 161.337 447.298C159.689 447.957 157.786 448.286 155.627 448.286Z" fill="black"/>
<path d="M194.166 429.059L187.519 429.468C187.405 428.9 187.161 428.389 186.786 427.934C186.411 427.468 185.916 427.099 185.303 426.826C184.7 426.542 183.979 426.4 183.138 426.4C182.013 426.4 181.064 426.639 180.291 427.116C179.519 427.582 179.132 428.207 179.132 428.991C179.132 429.616 179.382 430.144 179.882 430.576C180.382 431.008 181.24 431.355 182.456 431.616L187.195 432.57C189.74 433.093 191.638 433.934 192.888 435.093C194.138 436.252 194.763 437.775 194.763 439.661C194.763 441.377 194.257 442.883 193.246 444.178C192.246 445.474 190.871 446.485 189.121 447.212C187.382 447.928 185.377 448.286 183.104 448.286C179.638 448.286 176.877 447.565 174.82 446.122C172.774 444.667 171.575 442.69 171.223 440.19L178.365 439.815C178.581 440.872 179.104 441.678 179.933 442.235C180.763 442.781 181.825 443.053 183.121 443.053C184.394 443.053 185.416 442.809 186.189 442.32C186.973 441.82 187.371 441.178 187.382 440.394C187.371 439.735 187.092 439.195 186.547 438.775C186.002 438.343 185.161 438.014 184.024 437.786L179.49 436.883C176.933 436.372 175.03 435.485 173.78 434.224C172.541 432.962 171.922 431.355 171.922 429.4C171.922 427.718 172.377 426.269 173.286 425.053C174.206 423.837 175.496 422.9 177.155 422.241C178.825 421.582 180.78 421.252 183.019 421.252C186.325 421.252 188.928 421.951 190.825 423.349C192.734 424.747 193.848 426.65 194.166 429.059Z" fill="black"/>
<path d="M221.119 429.059L214.472 429.468C214.358 428.9 214.114 428.389 213.739 427.934C213.364 427.468 212.869 427.099 212.256 426.826C211.653 426.542 210.932 426.4 210.091 426.4C208.966 426.4 208.017 426.639 207.244 427.116C206.472 427.582 206.085 428.207 206.085 428.991C206.085 429.616 206.335 430.144 206.835 430.576C207.335 431.008 208.193 431.355 209.409 431.616L214.148 432.57C216.693 433.093 218.591 433.934 219.841 435.093C221.091 436.252 221.716 437.775 221.716 439.661C221.716 441.377 221.21 442.883 220.199 444.178C219.199 445.474 217.824 446.485 216.074 447.212C214.335 447.928 212.33 448.286 210.057 448.286C206.591 448.286 203.83 447.565 201.773 446.122C199.727 444.667 198.528 442.69 198.176 440.19L205.318 439.815C205.534 440.872 206.057 441.678 206.886 442.235C207.716 442.781 208.779 443.053 210.074 443.053C211.347 443.053 212.369 442.809 213.142 442.32C213.926 441.82 214.324 441.178 214.335 440.394C214.324 439.735 214.046 439.195 213.5 438.775C212.955 438.343 212.114 438.014 210.977 437.786L206.443 436.883C203.886 436.372 201.983 435.485 200.733 434.224C199.494 432.962 198.875 431.355 198.875 429.4C198.875 427.718 199.33 426.269 200.239 425.053C201.159 423.837 202.449 422.9 204.108 422.241C205.779 421.582 207.733 421.252 209.972 421.252C213.278 421.252 215.881 421.951 217.779 423.349C219.688 424.747 220.801 426.65 221.119 429.059Z" fill="black"/>
<path d="M237.534 447.775V412.866H244.915V427.269H259.898V412.866H267.261V447.775H259.898V433.355H244.915V447.775H237.534Z" fill="black"/>
<path d="M290 436.627V421.593H297.261V447.775H290.29V443.019H290.017C289.426 444.553 288.443 445.786 287.068 446.718C285.705 447.65 284.04 448.116 282.074 448.116C280.324 448.116 278.784 447.718 277.455 446.923C276.125 446.127 275.085 444.997 274.335 443.531C273.597 442.065 273.222 440.309 273.21 438.264V421.593H280.472V436.968C280.483 438.514 280.898 439.735 281.716 440.633C282.534 441.531 283.631 441.98 285.006 441.98C285.881 441.98 286.699 441.781 287.46 441.383C288.222 440.974 288.835 440.372 289.301 439.576C289.779 438.781 290.011 437.798 290 436.627Z" fill="black"/>
<path d="M303.206 447.775V412.866H310.467V425.991H310.689C311.007 425.286 311.467 424.57 312.07 423.843C312.683 423.105 313.479 422.491 314.456 422.002C315.445 421.502 316.672 421.252 318.138 421.252C320.047 421.252 321.808 421.752 323.422 422.752C325.036 423.741 326.325 425.235 327.291 427.235C328.257 429.224 328.74 431.718 328.74 434.718C328.74 437.639 328.269 440.105 327.325 442.116C326.394 444.116 325.121 445.633 323.507 446.667C321.905 447.69 320.109 448.201 318.121 448.201C316.712 448.201 315.513 447.968 314.524 447.502C313.547 447.036 312.746 446.451 312.121 445.747C311.496 445.031 311.019 444.309 310.689 443.582H310.365V447.775H303.206ZM310.314 434.684C310.314 436.241 310.53 437.599 310.962 438.758C311.394 439.917 312.019 440.82 312.837 441.468C313.655 442.105 314.649 442.423 315.82 442.423C317.002 442.423 318.002 442.099 318.82 441.451C319.638 440.792 320.257 439.883 320.678 438.724C321.109 437.553 321.325 436.207 321.325 434.684C321.325 433.173 321.115 431.843 320.695 430.695C320.274 429.548 319.655 428.65 318.837 428.002C318.019 427.355 317.013 427.031 315.82 427.031C314.638 427.031 313.638 427.343 312.82 427.968C312.013 428.593 311.394 429.48 310.962 430.627C310.53 431.775 310.314 433.127 310.314 434.684Z" fill="black"/>
<path d="M177.979 191.969C177.979 196.35 174.383 199.946 170.133 199.881C165.752 199.881 162.222 196.285 162.287 191.969C162.287 187.589 165.818 184.058 170.199 184.058C174.579 184.058 178.045 187.589 178.045 191.969H177.979Z" fill="#000"/>
<path d="M217.861 84.2808C213.611 84.4769 209.818 80.6193 209.818 76.3693C209.818 72.1847 213.48 68.5231 217.73 68.5885C222.895 68.6539 225.772 72.7077 225.707 76.5654C225.707 80.9462 222.372 84.2808 217.926 84.2808H217.861Z" fill="#000"/>
<path d="M144.959 69.7002C140.709 69.8963 136.982 66.3656 136.982 61.9848C136.982 57.6041 140.579 54.0732 145.025 54.0732C149.34 54.0732 152.806 57.5386 152.806 61.854C152.806 66.2348 149.406 69.7002 144.959 69.7002Z" fill="#000"/>
<path d="M122.333 84.2808C117.887 84.2808 114.487 80.7501 114.487 76.3693C114.487 72.0539 118.018 68.5232 122.333 68.5885C127.433 68.7193 130.31 72.7078 130.245 76.4347C130.245 80.8808 126.78 84.2808 122.333 84.2808Z" fill="#000"/>
<path d="M111.35 123.838C111.35 128.219 107.95 131.619 103.57 131.619C99.1235 131.619 95.5927 128.154 95.6581 123.642C95.6581 119.392 99.1889 115.927 103.504 115.861C107.82 115.861 111.35 119.392 111.35 123.773V123.838Z" fill="#000"/>
<path d="M151.891 185.758C151.891 189.942 148.098 193.735 143.979 193.8C139.794 193.8 136.133 190.073 136.133 185.758C136.133 181.769 139.206 177.977 144.11 177.912C148.36 177.912 151.891 181.508 151.891 185.758Z" fill="#000"/>
<path d="M245.323 123.773C245.323 128.219 241.858 131.684 237.477 131.619C233.162 131.619 229.631 128.023 229.696 123.642C229.696 119.327 233.358 115.731 237.673 115.796C241.858 115.796 245.388 119.458 245.388 123.773H245.323Z" fill="#000"/>
<path d="M204.001 185.562C204.001 189.942 200.535 193.604 196.285 193.604C192.035 193.604 188.309 190.008 188.243 185.758C188.243 181.442 191.839 177.846 196.285 177.846C200.601 177.846 204.001 181.246 204.001 185.496V185.562Z" fill="#000"/>
<path d="M217.143 179.023C212.762 179.023 209.231 175.558 209.231 171.177C209.231 166.796 212.631 163.331 217.078 163.331C221.393 163.331 224.858 166.665 224.924 171.046C224.924 175.427 221.524 179.023 217.143 179.023Z" fill="#000"/>
<path d="M177.975 57.9963C177.975 62.3117 174.444 65.8424 170.128 65.777C165.813 65.777 162.282 62.2463 162.217 57.9963C162.217 53.6156 165.878 50.0194 170.259 50.0194C174.509 50.0194 177.975 53.6156 177.975 57.9963Z" fill="#000"/>
<path d="M99.8407 149.404C99.8407 145.089 103.437 141.558 107.818 141.558C112.068 141.558 115.664 145.219 115.598 149.469C115.598 153.785 111.871 157.381 107.556 157.315C103.306 157.315 99.7754 153.719 99.8407 149.404Z" fill="#000"/>
<path d="M239.375 149.535C239.375 153.85 235.844 157.315 231.594 157.381C227.213 157.381 223.617 153.719 223.617 149.404C223.617 145.154 227.213 141.688 231.463 141.688C235.779 141.688 239.31 145.285 239.31 149.6L239.375 149.535Z" fill="#000"/>
<path d="M123.054 179.088C118.739 179.088 115.208 175.623 115.208 171.308C115.208 166.796 118.673 163.331 123.185 163.396C127.631 163.396 130.9 166.862 130.9 171.373C130.9 175.688 127.435 179.088 123.054 179.088Z" fill="#000"/>
<path d="M195.174 69.7002C190.924 69.7002 187.459 66.2348 187.394 61.9848C187.394 57.6694 190.99 54.0732 195.436 54.0732C199.751 54.0732 203.086 57.4732 203.086 61.9194C203.086 66.0386 199.555 69.8963 195.109 69.7002H195.174Z" fill="#000"/>
<path d="M99.8407 98.2078C99.8407 93.8925 103.371 90.4271 107.687 90.4271C112.002 90.4271 115.664 94.0886 115.598 98.3386C115.533 102.589 112.068 105.989 107.752 105.989C103.306 105.989 99.7754 102.523 99.8407 98.1425V98.2078Z" fill="#000"/>
<path d="M239.375 98.2732C239.375 102.589 235.91 106.054 231.594 106.054C227.279 106.054 223.617 102.458 223.617 98.1425C223.617 94.0233 227.344 90.4271 231.594 90.4271C235.91 90.4271 239.375 93.8924 239.375 98.2732Z" fill="#000"/>
<path d="M243.69 80.4232C241.075 80.4232 238.852 78.3308 238.852 75.7808C238.852 73.2308 241.205 70.8116 243.821 70.8116C246.371 70.8116 248.659 73.1001 248.659 75.6501C248.659 78.2655 246.436 80.3578 243.755 80.4232H243.69Z" fill="#000"/>
<path d="M193.734 40.0808C193.734 42.7616 191.445 45.0501 188.83 44.9847C186.345 44.9847 184.188 42.6308 184.188 40.0808C184.188 37.5308 186.411 35.177 188.961 35.177C191.576 35.177 193.734 37.4001 193.734 40.0808Z" fill="#000"/>
<path d="M84.0869 105.008C84.0869 102.458 86.31 100.169 88.9908 100.3C91.6061 100.431 93.6985 102.458 93.6985 105.073C93.6985 107.754 91.5408 109.912 88.8601 109.912C86.1793 109.912 84.0869 107.754 84.0869 105.073V105.008Z" fill="#000"/>
<path d="M188.371 201.516C190.986 201.516 193.078 203.673 193.078 206.289C193.078 208.969 190.921 211.127 188.24 211.127C185.559 211.127 183.467 209.035 183.467 206.289C183.467 203.608 185.69 201.515 188.371 201.581V201.516Z" fill="#000"/>
<path d="M246.695 170.393C246.695 172.943 244.471 175.231 241.987 175.166C239.371 175.166 237.083 172.812 237.083 170.131C237.083 167.45 239.306 165.358 241.987 165.423C244.668 165.423 246.695 167.646 246.695 170.393Z" fill="#000"/>
<path d="M101.086 173.989C98.3398 173.989 96.1167 171.766 96.1821 169.216C96.1821 166.6 98.4705 164.443 101.151 164.443C103.767 164.443 105.99 166.731 105.99 169.346C105.99 171.896 103.701 174.054 101.086 173.989Z" fill="#000"/>
<path d="M256.113 135.15C258.728 135.15 260.755 137.243 260.755 139.923C260.755 142.539 258.597 144.696 256.047 144.696C253.432 144.696 251.144 142.473 251.144 139.923C251.144 137.243 253.367 135.085 256.113 135.085V135.15Z" fill="#000"/>
<path d="M129.398 50.8039C129.398 53.5501 127.24 55.7078 124.494 55.7078C121.878 55.7078 119.852 53.6809 119.786 51.1309C119.786 48.3847 121.944 46.1616 124.625 46.1616C127.305 46.1616 129.398 48.2539 129.398 50.8039Z" fill="#000"/>
<path d="M156.659 33.9345C159.275 33.9345 161.301 36.0922 161.236 38.773C161.236 41.4538 159.013 43.5461 156.332 43.4807C153.651 43.4153 151.559 41.2575 151.625 38.7075C151.625 36.0268 153.913 33.8691 156.659 33.9345Z" fill="#000"/>
<path d="M123.379 188.046C126.059 188.046 128.152 190.073 128.217 192.689C128.217 195.369 125.929 197.658 123.313 197.658C120.829 197.658 118.605 195.304 118.605 192.754C118.605 190.204 120.829 188.046 123.379 188.046Z" fill="#000"/>
<path d="M250.426 106.316C250.23 103.569 252.78 101.477 255.199 101.542C257.749 101.608 259.841 103.7 259.841 106.381C259.841 109.062 257.683 111.219 255.003 111.154C252.322 111.154 250.426 109.062 250.426 106.316Z" fill="#000"/>
<path d="M154.308 211.846C151.627 211.846 149.535 209.819 149.535 207.204C149.535 204.589 151.693 202.365 154.374 202.365C156.924 202.365 159.212 204.523 159.212 207.008C159.212 209.558 156.989 211.781 154.308 211.781V211.846Z" fill="#000"/>
<path d="M219.433 56.4925C216.687 56.4925 214.594 54.4003 214.66 51.6541C214.66 48.9733 216.883 46.8156 219.564 46.881C222.179 46.881 224.206 49.1041 224.206 51.7195C224.206 54.3348 222.114 56.4272 219.498 56.4272L219.433 56.4925Z" fill="#000"/>
<path d="M96.0527 74.277C96.0527 71.5962 98.1451 69.5693 100.891 69.5039C103.637 69.5039 105.664 71.5308 105.664 74.277C105.664 76.8923 103.507 78.9193 100.826 78.9193C98.2104 78.9193 96.0527 76.827 96.0527 74.277Z" fill="#000"/>
<path d="M218.188 198.377C215.507 198.377 213.415 196.285 213.35 193.538C213.35 190.923 215.573 188.765 218.253 188.831C220.869 188.831 222.896 190.988 222.896 193.669C222.896 196.285 220.738 198.377 218.188 198.377Z" fill="#000"/>
<path d="M87.5504 133.319C90.1658 133.319 92.2581 135.412 92.2581 138.027C92.2581 140.708 90.2312 142.866 87.6158 142.866C84.9351 142.866 82.7773 140.642 82.7773 137.896C82.7773 135.346 84.8697 133.319 87.485 133.319H87.5504Z" fill="#000"/>
<path d="M267.293 167.646C265.267 167.646 263.697 166.142 263.763 164.181C263.763 162.285 265.332 160.65 267.163 160.65C269.059 160.65 270.759 162.219 270.759 164.115C270.759 166.208 269.32 167.646 267.293 167.646Z" fill="#000"/>
<path d="M128.544 220.019C126.582 220.019 125.144 218.516 125.144 216.554C125.144 214.527 126.778 212.958 128.805 213.023C130.701 213.023 132.205 214.723 132.205 216.685C132.205 218.646 130.571 220.085 128.544 220.019Z" fill="#000"/>
<path d="M218.646 27.919C218.646 29.8806 217.077 31.3191 215.05 31.3191C213.089 31.3191 211.65 29.8152 211.65 27.8537C211.65 25.9575 213.35 24.3229 215.246 24.3229C217.143 24.3229 218.712 25.9575 218.712 27.919H218.646Z" fill="#000"/>
<path d="M104.812 44.2C104.812 46.1615 103.308 47.7306 101.346 47.796C99.45 47.796 97.8154 46.2922 97.8154 44.3307C97.8154 42.4345 99.3193 40.8653 101.215 40.7999C103.177 40.7999 104.812 42.2384 104.877 44.2H104.812Z" fill="#000"/>
<path d="M95.854 187.523C97.8809 187.523 99.3193 189.027 99.3193 191.054C99.3193 192.95 97.7501 194.519 95.9193 194.519C94.0232 194.519 92.3232 192.819 92.3232 191.054C92.3232 189.158 93.8924 187.523 95.854 187.523Z" fill="#000"/>
<path d="M139.338 23.3424C139.338 25.2386 137.703 26.7424 135.676 26.7424C133.78 26.7424 132.276 25.1732 132.276 23.2116C132.276 21.3155 133.911 19.6809 135.872 19.6809C137.769 19.6809 139.338 21.3808 139.338 23.277V23.3424Z" fill="#000"/>
<path d="M245.848 196.546C245.848 198.508 244.213 199.946 242.186 199.881C240.355 199.881 238.852 198.246 238.852 196.35C238.852 194.454 240.552 192.819 242.448 192.885C244.344 192.95 245.848 194.585 245.848 196.546Z" fill="#000"/>
<path d="M272.067 124.296C272.067 122.334 273.637 120.831 275.598 120.831C277.494 120.831 279.064 122.465 279.064 124.427C279.064 126.257 277.429 127.827 275.598 127.827C273.702 127.827 272.067 126.192 272.067 124.296Z" fill="#000"/>
<path d="M270.233 88.3347C268.337 88.3347 266.768 86.7654 266.768 84.8039C266.768 82.9077 268.402 81.3385 270.364 81.3385C272.195 81.3385 273.764 82.9731 273.829 84.8039C273.829 86.7 272.195 88.3347 270.298 88.3347H270.233Z" fill="#000"/>
<path d="M72.5127 156.858C72.5127 154.961 74.0819 153.458 75.9781 153.523C77.8089 153.523 79.5088 155.354 79.5088 157.185C79.5088 158.95 77.7434 160.585 75.9126 160.585C74.0165 160.585 72.4473 158.885 72.5127 156.923V156.858Z" fill="#000"/>
<path d="M248.071 53.3537C246.109 53.3537 244.605 51.7845 244.605 49.823C244.605 47.8614 246.109 46.3576 248.005 46.423C249.836 46.423 251.536 48.1229 251.602 49.9537C251.602 51.6537 249.902 53.3537 248.071 53.3537Z" fill="#000"/>
<path d="M78.7866 81.0771C76.8905 81.0771 75.2558 79.3771 75.3212 77.4809C75.3212 75.6501 76.8905 74.1463 78.7213 74.0809C80.6174 74.0809 82.3174 75.7155 82.252 77.6117C82.252 79.5079 80.6828 81.0771 78.7866 81.0771Z" fill="#000"/>
<path d="M71.7286 116.515C71.7286 118.411 70.094 119.981 68.3286 119.981C66.4324 119.981 64.7978 118.281 64.8632 116.385C64.8632 114.488 66.4979 112.985 68.394 113.05C70.2902 113.05 71.794 114.685 71.7286 116.581V116.515Z" fill="#000"/>
<path d="M204.454 217.6C204.454 215.638 205.893 214.135 207.789 214.135C209.685 214.135 211.45 215.769 211.45 217.6C211.45 219.365 209.75 221 207.919 221C206.023 221 204.454 219.562 204.454 217.6Z" fill="#000"/>
<path d="M180.332 17.1308C180.332 19.0923 178.763 20.7269 176.932 20.7923C175.036 20.7923 173.467 19.1577 173.467 17.1961C173.467 15.3 175.101 13.7962 176.998 13.8616C178.959 13.8616 180.332 15.3 180.332 17.1308Z" fill="#000"/>
<path d="M169.149 227.865C167.187 227.865 165.684 226.361 165.684 224.465C165.684 222.635 167.384 221 169.345 221.065C171.176 221.065 172.745 222.569 172.745 224.4C172.745 226.296 171.11 227.865 169.214 227.865H169.149Z" fill="#000"/>
<path d="M294.098 99.9734C294.098 101.346 292.921 102.589 291.548 102.654C290.24 102.654 288.933 101.477 288.867 100.235C288.867 98.731 289.979 97.5541 291.548 97.4887C292.856 97.4887 294.098 98.6657 294.098 99.9734Z" fill="#000"/>
<path d="M242.576 24.0618C242.576 25.631 241.726 26.6117 240.287 26.6771C238.718 26.6771 237.672 25.7618 237.606 24.2579C237.606 22.6887 238.653 21.5118 240.156 21.5118C241.595 21.5118 242.576 22.5579 242.576 24.0618Z" fill="#000"/>
<path d="M237.28 224.073C235.711 224.073 234.665 223.027 234.73 221.523C234.73 220.019 235.842 218.973 237.346 219.039C238.784 219.039 239.961 220.281 239.896 221.654C239.896 223.027 238.719 224.073 237.28 224.073Z" fill="#000"/>
<path d="M274.749 189.942C274.749 191.315 273.442 192.558 272.069 192.492C270.761 192.492 269.584 191.185 269.584 189.942C269.584 188.438 270.892 187.262 272.33 187.327C273.572 187.327 274.749 188.7 274.749 190.008V189.942Z" fill="#000"/>
<path d="M52.3731 95.3308C52.3731 93.9577 53.4192 92.8461 54.7923 92.7808C56.2307 92.7808 57.4076 93.8269 57.4076 95.2654C57.4076 96.7693 56.3615 97.8154 54.8576 97.8808C53.3538 97.8808 52.373 96.9 52.3076 95.3308H52.3731Z" fill="#000"/>
<path d="M193.672 236.3C195.307 236.3 196.353 237.346 196.353 238.916C196.353 240.223 195.241 241.204 193.868 241.269C192.299 241.269 191.187 240.158 191.253 238.589C191.253 237.085 192.168 236.3 193.672 236.3Z" fill="#000"/>
<path d="M107.295 17.3271C108.668 17.3271 109.78 18.3732 109.78 19.8116C109.78 21.2501 108.668 22.3616 107.164 22.3616C105.726 22.3616 104.745 21.4463 104.68 20.0732C104.68 18.4386 105.66 17.3925 107.23 17.3271H107.295Z" fill="#000"/>
<path d="M57.931 143.061C57.931 144.435 56.6888 145.677 55.3157 145.677C54.008 145.677 52.8311 144.435 52.8311 143.127C52.8311 141.754 54.1388 140.577 55.5118 140.511C56.8849 140.511 57.9965 141.623 57.9965 143.061H57.931Z" fill="#000"/>
<path d="M270.695 55.6423C270.695 54.0731 271.741 53.0269 273.245 53.0269C274.488 53.0269 275.665 54.2692 275.665 55.6423C275.665 57.0154 274.553 58.1923 273.245 58.1923C271.676 58.1923 270.695 57.2115 270.695 55.6423Z" fill="#000"/>
<path d="M77.3471 53.2885C77.3471 54.6616 76.1703 55.9039 74.9279 55.9039C73.4895 55.9039 72.3125 54.7923 72.3125 53.3539C72.3125 51.9808 73.5549 50.7385 74.9279 50.7385C76.2356 50.7385 77.4126 51.9154 77.4126 53.2885H77.3471Z" fill="#000"/>
<path d="M198.636 6.73464C197.263 6.73464 196.282 5.62314 196.282 4.11929C196.282 2.8116 197.459 1.63464 198.832 1.63464C200.271 1.63464 201.448 2.87701 201.382 4.25009C201.317 5.62317 200.075 6.80002 198.636 6.73464Z" fill="#000"/>
<path d="M71.5967 183.273C73.0351 183.404 74.0813 184.581 73.9505 186.085C73.8198 187.458 72.5775 188.504 71.2044 188.373C69.7005 188.242 68.7198 187.066 68.8505 185.562C68.9813 184.189 70.2236 183.208 71.5967 183.273Z" fill="#000"/>
<path d="M103.571 223.811C101.936 223.811 101.021 222.896 101.021 221.261C101.021 219.823 102.132 218.842 103.571 218.842C105.009 218.842 105.99 219.954 105.99 221.392C105.99 223.027 105.205 223.811 103.571 223.746V223.811Z" fill="#000"/>
<path d="M153.325 2.68079C153.325 4.05387 152.278 5.10006 150.775 5.16544C149.402 5.16544 148.29 4.18467 148.29 2.81159C148.29 1.5039 149.598 0.0653846 150.775 0C152.082 0 153.325 1.24233 153.325 2.68079Z" fill="#000"/>
<path d="M289.525 143.519C290.963 143.519 292.075 144.631 292.075 146.135C292.075 147.443 290.963 148.554 289.655 148.554C288.348 148.554 287.171 147.377 287.105 146.069C287.105 144.566 288.086 143.519 289.525 143.519Z" fill="#000"/>
<path d="M150.779 238.85C150.779 240.092 149.536 241.269 148.163 241.269C146.856 241.269 145.744 240.158 145.679 238.85C145.679 237.346 146.594 236.3 148.033 236.3C149.406 236.3 150.713 237.477 150.713 238.785L150.779 238.85Z" fill="#000"/>
</svg>
