<svg width="201" height="185" viewBox="0 0 201 185" fill="none" xmlns="http://www.w3.org/2000/svg">
<path d="M177.489 0C177.863 0.499582 177.863 0.499582 178.267 1.19404C178.412 1.44397 178.558 1.6939 178.708 1.9514C178.935 2.34823 178.935 2.34823 179.166 2.75308C179.318 3.01247 179.47 3.27186 179.627 3.53911C180.986 5.89278 180.986 5.89278 181.132 7.00784C180.533 7.78605 180.533 7.78605 179.662 8.6138C179.358 8.90632 179.053 9.19883 178.739 9.50021C177.752 10.4079 176.756 11.302 175.743 12.1803C174.115 13.6057 172.717 15.2416 171.284 16.86C170.659 17.5496 170.022 18.2061 169.356 18.8544C168.15 20.0383 167.147 21.3618 166.131 22.7116C165.945 22.9254 165.76 23.1392 165.568 23.3595C165.35 23.3595 165.131 23.3595 164.906 23.3595C164.763 23.6589 164.763 23.6589 164.616 23.9643C164.244 24.6943 164.244 24.6943 163.582 25.6954C163.363 25.6954 163.144 25.6954 162.919 25.6954C162.817 25.9019 162.714 26.1084 162.609 26.3211C162.381 26.78 162.154 27.2388 161.926 27.6976C161.707 27.6976 161.489 27.6976 161.264 27.6976C161.184 27.8809 161.105 28.0641 161.023 28.253C160.502 29.2163 159.854 29.9875 159.153 30.8261C158.318 31.8349 157.507 32.8207 156.814 33.9338C156.643 34.1884 156.472 34.4431 156.297 34.7055C156.078 34.7055 155.859 34.7055 155.634 34.7055C155.545 34.9533 155.457 35.201 155.365 35.4563C154.99 36.3329 154.557 36.9611 153.979 37.7088C154.179 37.859 154.38 38.0091 154.587 38.1638C158.809 41.4308 161.378 45.086 163.913 49.7223C162.801 50.0956 162.573 50.0223 161.504 49.6623C161.094 49.5275 161.094 49.5275 160.676 49.3899C160.25 49.2447 160.25 49.2447 159.815 49.0966C159.254 48.9089 158.692 48.7221 158.131 48.5361C157.882 48.4518 157.634 48.3675 157.377 48.2807C153.823 47.2046 150.65 47.5458 146.694 47.3863C146.694 60.0505 146.694 72.7147 146.694 85.7626C144.535 86.1976 142.799 86.5284 140.668 86.4952C140.233 86.4935 139.798 86.4918 139.349 86.4901C138.809 86.484 138.268 86.478 137.711 86.4717C135.977 86.4579 134.242 86.4442 132.455 86.43C132.345 80.7036 132.236 74.9772 132.124 69.0773C129.585 72.8718 129.585 72.8718 127.198 76.7525C127.082 76.9491 126.966 77.1457 126.846 77.3482C126.051 78.6982 125.278 80.06 124.507 81.4244C124.289 81.4244 124.07 81.4244 123.845 81.4244C123.743 81.8167 123.743 81.8167 123.638 82.217C123.251 83.2451 122.843 84.0437 122.279 84.9739C122.012 85.4164 122.012 85.4164 121.739 85.8678C121.56 86.1635 121.381 86.4591 121.196 86.7637C120.884 87.2845 120.572 87.8054 120.261 88.3267C120.107 88.5841 119.953 88.8416 119.794 89.1069C115.924 95.5883 112.242 102.167 108.613 108.788C108.831 108.788 109.05 108.788 109.275 108.788C109.173 108.981 109.07 109.174 108.965 109.372C108.333 110.72 108.238 111.9 108.228 113.385C108.224 113.967 108.224 113.967 108.219 114.56C108.217 114.977 108.216 115.395 108.214 115.825C108.213 116.255 108.211 116.686 108.209 117.129C108.205 118.04 108.203 118.95 108.202 119.861C108.2 121.024 108.192 122.187 108.183 123.35C108.175 124.464 108.175 125.577 108.173 126.691C108.167 127.315 108.167 127.315 108.161 127.952C108.154 130.691 108.154 130.691 109.275 133.149C109.384 133.369 109.494 133.589 109.606 133.816C107.202 133.816 104.798 133.816 102.321 133.816C102.649 133.156 102.977 132.495 103.315 131.814C103.688 130.237 103.689 128.675 103.678 127.061C103.678 126.805 103.677 126.549 103.677 126.284C103.675 125.472 103.671 124.659 103.666 123.847C103.665 123.293 103.663 122.74 103.662 122.186C103.658 120.835 103.653 119.483 103.646 118.132C101.571 121.998 101.571 121.998 99.6722 125.953C98.8187 127.812 97.9397 129.653 97.0231 131.48C96.0652 133.394 95.136 135.319 94.2291 137.258C94.1158 137.499 94.0024 137.741 93.8857 137.99C93.4498 138.926 93.0432 139.842 92.7183 140.824C122.987 140.934 153.257 141.044 184.443 141.158C184.443 142.369 184.443 143.581 184.443 144.829C138.056 144.994 138.056 144.994 90.7315 145.162C88.2525 150.606 88.2525 150.606 86.0956 156.175C85.5536 156.713 85.5536 156.713 84.8745 157.28C83.9817 158.039 83.1378 158.808 82.3289 159.658C81.4596 160.513 81.4596 160.513 80.7974 160.513C80.7359 160.733 80.6744 160.953 80.6111 161.18C79.5519 163.408 78.0375 164.89 75.807 165.874C74.6104 166.458 73.4516 167.309 72.8501 168.522C73.4955 168.511 73.4955 168.511 74.1539 168.501C74.6023 168.494 75.0513 168.498 75.4992 168.522C75.8303 168.856 75.8303 168.856 75.8626 169.472C75.8519 170.156 75.8411 170.841 75.8303 171.525C75.5121 171.411 75.5121 171.411 75.1874 171.294C73.3663 170.685 72.071 170.347 70.201 170.858C69.4501 171.461 69.4501 171.461 69.518 172.318C70.0361 173.608 71.0105 173.934 72.1878 174.529C72.8816 174.897 73.5712 175.273 74.2574 175.655C74.5938 175.836 74.9301 176.018 75.2767 176.205C76.3352 176.994 76.6975 177.631 77.1549 178.867C77.3156 180.408 77.0486 181.561 76.1408 182.809C73.8717 184.511 72.0698 185.229 69.2076 184.873C68.1869 184.712 67.3707 184.535 66.5585 183.872C66.1417 182.885 65.9848 181.934 65.8962 180.869C66.224 180.869 66.5519 180.869 66.8896 180.869C66.8896 181.089 66.8896 181.309 66.8896 181.536C68.9272 182.134 71.243 182.78 73.2692 181.865C73.4587 181.756 73.6482 181.648 73.8435 181.536C73.8435 180.766 73.8435 179.995 73.8435 179.2C73.2986 178.904 73.2986 178.904 72.7427 178.602C72.261 178.336 71.7794 178.07 71.2979 177.803C71.0591 177.674 70.8202 177.544 70.5742 177.411C69.1067 176.594 68.0455 175.745 66.8896 174.529C65.803 174.529 65.1085 175.255 64.2405 175.863C64.1718 175.571 64.1031 175.278 64.0323 174.977C63.3396 172.103 62.5741 169.256 61.757 166.415C61.6629 166.085 61.5687 165.755 61.4717 165.415C60.8256 163.19 60.0848 161.014 59.2735 158.844C59.2645 159.713 59.258 160.582 59.2528 161.451C59.25 161.698 59.2472 161.944 59.2444 162.198C59.2395 163.282 59.2618 164.148 59.6046 165.185C59.8232 165.295 60.0417 165.405 60.2669 165.518C60.2669 165.739 60.2669 165.959 60.2669 166.186C58.6278 166.186 56.9886 166.186 55.2998 166.186C55.2998 165.966 55.2998 165.745 55.2998 165.518C55.5184 165.518 55.7369 165.518 55.9621 165.518C55.9785 163.642 55.9905 161.765 55.9985 159.889C56.0018 159.25 56.0063 158.612 56.0121 157.974C56.0201 157.056 56.0239 156.138 56.0268 155.22C56.0302 154.935 56.0336 154.65 56.0371 154.357C56.0372 154.089 56.0372 153.822 56.0373 153.547C56.0388 153.313 56.0402 153.079 56.0417 152.837C55.9486 152.057 55.6816 151.515 55.2998 150.835C55.6277 150.725 55.9555 150.615 56.2932 150.502C55.6376 148.74 54.9819 146.978 54.3064 145.162C41.8491 145.052 29.3917 144.942 16.5568 144.829C16.5568 143.617 16.5568 142.406 16.5568 141.158C28.5771 141.048 40.5974 140.938 52.9819 140.824C51.4087 136.283 51.4087 136.283 49.6705 131.814C49.5681 132.021 49.4656 132.227 49.3601 132.44C49.1324 132.899 48.9048 133.357 48.6771 133.816C43.6504 133.816 38.6238 133.816 33.4448 133.816C34.1071 132.148 34.1071 132.148 34.4382 131.814C34.4746 131.166 34.4876 130.517 34.4916 129.867C34.4948 129.451 34.4979 129.034 34.5012 128.605C34.5028 128.147 34.5042 127.688 34.5055 127.23C34.5074 126.762 34.5093 126.294 34.5112 125.826C34.5147 124.844 34.5166 123.862 34.5178 122.88C34.5196 121.622 34.5275 120.364 34.537 119.106C34.5431 118.14 34.5449 117.173 34.5454 116.206C34.5464 115.742 34.549 115.279 34.5534 114.815C34.559 114.166 34.5578 113.516 34.5563 112.867C34.5575 112.497 34.5587 112.128 34.5599 111.747C34.4226 110.668 34.1015 110.289 33.4448 109.456C33.4448 109.015 33.4448 108.575 33.4448 108.121C32.6799 107.68 31.915 107.24 31.1269 106.786C31.263 105.155 32.0644 104.3 33.1551 103.178C33.4908 102.823 33.8263 102.467 34.1614 102.112C34.3241 101.94 34.4869 101.769 34.6546 101.592C35.2164 100.988 35.7374 100.355 36.2595 99.7157C37.6643 98.0716 39.3701 96.7712 41.061 95.4401C40.8313 95.2598 40.6017 95.0796 40.3651 94.8939C39.3034 94.0216 38.2975 93.1047 37.2943 92.1656C37.0111 91.9008 37.0111 91.9008 36.7223 91.6306C33.99 89.0666 33.99 89.0666 32.7825 87.7648C32.7825 87.5446 32.7825 87.3243 32.7825 87.0974C33.5003 87.4548 34.2085 87.8209 34.9103 88.2093C43.17 92.4782 52.8587 92.3922 61.5914 89.7671C62.9586 89.3033 64.2769 88.7546 65.5651 88.0985C65.5211 87.905 65.4771 87.7114 65.4318 87.5119C65.1025 86.0437 64.7989 84.5816 64.5717 83.0929C65.0088 83.3132 65.4459 83.5334 65.8962 83.7603C65.8962 83.9806 65.8962 84.2008 65.8962 84.4278C66.0836 84.5099 66.271 84.5921 66.4641 84.6767C67.3507 85.167 67.9924 85.7551 68.7316 86.4509C70.2184 87.8274 71.7544 89.119 73.3326 90.3875C75.0006 91.8026 75.9997 92.8138 76.6168 94.9604C76.7286 95.3325 76.8404 95.7046 76.9557 96.0879C77.247 97.5807 77.247 97.5807 76.8237 98.4434C73.2421 101.096 68.1909 101.717 63.9094 102.448C64.3521 103.894 64.9138 105.194 65.6065 106.536C66.5585 108.381 66.5585 108.381 66.5585 109.122C66.8863 109.129 67.2141 109.136 67.5519 109.143C69.2614 109.381 70.4045 110.537 71.5255 111.792C72.2348 112.889 72.2864 113.811 72.2913 115.108C72.2968 115.448 72.3024 115.788 72.3081 116.139C72.1878 117.131 72.1878 117.131 71.6639 117.946C70.9971 119.158 71.2068 119.798 71.5255 121.135C71.872 122.196 72.2701 123.229 72.6845 124.264C72.8439 124.674 72.8439 124.674 73.0066 125.092C73.4386 126.378 73.4386 126.378 74.1746 127.476C76.158 123.855 78.1284 120.236 79.9346 116.521C80.6862 114.987 81.5118 113.548 82.453 112.125C80.9393 112.308 79.5806 112.598 78.1483 113.127C78.3091 111.533 78.5087 110.269 79.1417 108.788C79.6808 108.81 79.6808 108.81 80.2308 108.833C82.8555 108.937 82.8555 108.937 85.1293 107.865C85.6371 106.975 86.0198 106.06 86.4267 105.118C86.6856 104.688 86.9522 104.263 87.2248 103.841C87.3661 103.621 87.5074 103.401 87.653 103.175C87.9353 102.738 88.2199 102.303 88.5072 101.87C89.0652 100.969 89.4304 100.35 89.3241 99.2738C88.6131 98.255 87.7856 97.54 86.8393 96.7446C85.5856 95.6707 84.4405 94.4878 83.2809 93.3127C83.0401 93.0714 82.7994 92.83 82.5514 92.5814C82.3243 92.3521 82.0972 92.1228 81.8632 91.8866C81.6581 91.6795 81.453 91.4725 81.2417 91.2591C80.7974 90.7682 80.7974 90.7682 80.7974 90.4345C82.5458 90.4345 84.2942 90.4345 86.0956 90.4345C86.0956 82.1752 86.0956 73.916 86.0956 65.4065C90.5212 65.0761 90.5212 65.0761 95.0362 64.7391C99.3787 64.0739 104.195 62.5737 106.957 58.8575C109.39 55.4575 110.4 52.1079 110.393 47.9495C110.392 47.6401 110.392 47.3308 110.391 47.0121C110.331 43.6455 109.305 41.227 107.619 38.3763C107.619 38.156 107.619 37.9358 107.619 37.7088C113.175 40.2651 117.966 46.405 120.482 51.9044C120.866 52.7813 120.866 52.7813 121.527 53.7268C122.942 52.1534 124.32 50.5597 125.646 48.9089C126.852 47.4107 128.103 45.9673 129.396 44.5446C129.762 44.1342 129.762 44.1342 130.137 43.7156C130.395 43.4671 130.395 43.4671 130.658 43.2136C132.234 41.5958 132.42 40.284 132.413 38.0634C132.42 37.7715 132.427 37.4797 132.434 37.179C132.449 36.4658 132.453 35.7525 132.455 35.0392C132.834 35.0461 133.214 35.053 133.605 35.06C136.427 35.1326 136.427 35.1326 138.951 34.0889C139.56 33.3701 139.56 33.3701 140.028 32.6081C140.152 32.4192 140.275 32.2304 140.402 32.0358C140.621 32.0358 140.839 32.0358 141.064 32.0358C141.149 31.8425 141.233 31.6491 141.32 31.4499C141.77 30.6205 142.272 30.066 142.935 29.3971C143.182 29.1453 143.43 28.8934 143.686 28.634C143.954 28.3646 144.223 28.0951 144.5 27.8176C144.917 27.3966 144.917 27.3966 145.342 26.9671C145.931 26.3728 146.521 25.7793 147.112 25.1865C148.008 24.2875 148.9 23.3851 149.792 22.4822C150.366 21.9036 150.941 21.3253 151.516 20.7472C151.779 20.4805 152.042 20.2137 152.314 19.9389C153.884 18.3696 155.509 16.9389 157.257 15.5726C158.109 14.8913 158.848 14.1327 159.608 13.3483C162.124 10.9495 164.812 8.79823 167.555 6.67413C167.805 6.47367 168.055 6.27321 168.313 6.06668C168.88 5.67301 168.88 5.67301 169.542 5.67301C169.542 5.45277 169.542 5.23252 169.542 5.0056C170.249 4.44059 170.954 3.91603 171.694 3.39964C171.906 3.25021 172.117 3.10078 172.335 2.94682C176.528 0 176.528 0 177.489 0ZM99.6722 77.7536C99.6722 79.7358 99.6722 81.7181 99.6722 83.7603C100.652 82.5256 101.538 81.318 102.404 80.0061C102.638 79.6534 102.872 79.3007 103.113 78.9372C103.675 78.2079 103.675 78.2079 103.646 77.7536C102.334 77.7536 101.023 77.7536 99.6722 77.7536ZM39.0741 113.46C39.0741 115.222 39.0741 116.984 39.0741 118.8C40.2762 118.8 41.4782 118.8 42.7166 118.8C42.4981 118.139 42.2795 117.478 42.0544 116.797C41.8358 116.797 41.6173 116.797 41.3921 116.797C41.317 116.556 41.2418 116.316 41.1644 116.067C40.6859 114.894 40.6859 114.894 39.0741 113.46ZM39.0741 121.803C39.0741 124.556 39.0741 127.309 39.0741 130.146C40.2175 130.722 41.4981 130.555 42.758 130.563C43.0329 130.57 43.3078 130.576 43.591 130.584C45.5136 130.596 46.9155 130.257 48.6771 129.478C48.0098 127.655 47.2661 125.876 46.4005 124.139C46.1764 123.685 46.1764 123.685 45.9478 123.221C45.1744 122.224 44.598 122.067 43.3789 121.803C42.2429 121.723 42.2429 121.723 41.1023 121.761C40.433 121.775 39.7637 121.789 39.0741 121.803Z" fill="#D1C8E2"/>
<path d="M177.489 0C177.863 0.499582 177.863 0.499582 178.267 1.19404C178.485 1.56894 178.485 1.56894 178.708 1.9514C178.935 2.34823 178.935 2.34823 179.166 2.75308C179.318 3.01247 179.47 3.27186 179.627 3.53911C180.986 5.89278 180.986 5.89278 181.132 7.00784C180.533 7.78605 180.533 7.78605 179.662 8.6138C179.358 8.90632 179.053 9.19883 178.739 9.50021C177.752 10.4079 176.756 11.302 175.743 12.1803C174.115 13.6057 172.717 15.2416 171.284 16.86C170.659 17.5496 170.022 18.2061 169.356 18.8544C168.15 20.0383 167.147 21.3618 166.131 22.7116C165.945 22.9254 165.76 23.1392 165.568 23.3595C165.35 23.3595 165.131 23.3595 164.906 23.3595C164.81 23.5591 164.715 23.7587 164.616 23.9643C164.244 24.6943 164.244 24.6943 163.582 25.6954C163.363 25.6954 163.144 25.6954 162.919 25.6954C162.817 25.9019 162.714 26.1084 162.609 26.3211C162.381 26.78 162.154 27.2388 161.926 27.6976C161.707 27.6976 161.489 27.6976 161.264 27.6976C161.184 27.8809 161.105 28.0641 161.023 28.253C160.502 29.2163 159.854 29.9875 159.153 30.8261C158.318 31.8349 157.507 32.8207 156.814 33.9338C156.643 34.1884 156.472 34.4431 156.297 34.7055C156.078 34.7055 155.859 34.7055 155.634 34.7055C155.545 34.9533 155.457 35.201 155.365 35.4563C154.99 36.3329 154.557 36.9611 153.979 37.7088C154.179 37.859 154.38 38.0091 154.587 38.1638C158.809 41.4308 161.378 45.086 163.913 49.7223C162.801 50.0956 162.573 50.0223 161.504 49.6623C161.094 49.5275 161.094 49.5275 160.676 49.3899C160.392 49.2931 160.108 49.1963 159.815 49.0966C159.254 48.9089 158.692 48.7221 158.131 48.5361C157.882 48.4518 157.634 48.3675 157.377 48.2807C153.823 47.2046 150.65 47.5458 146.694 47.3863C146.694 60.0505 146.694 72.7147 146.694 85.7626C143.382 86.43 143.382 86.43 132.455 86.43C132.455 69.471 132.455 52.5121 132.455 35.0392C135.241 34.874 135.241 34.874 138.084 34.7055C139.481 33.5317 139.481 33.5317 140.028 32.6081C140.152 32.4192 140.275 32.2304 140.402 32.0358C140.621 32.0358 140.839 32.0358 141.064 32.0358C141.149 31.8425 141.233 31.6491 141.32 31.4499C141.77 30.6205 142.272 30.066 142.935 29.3971C143.182 29.1453 143.43 28.8934 143.686 28.634C143.954 28.3646 144.223 28.0951 144.5 27.8176C144.778 27.5369 145.056 27.2563 145.342 26.9671C145.931 26.3728 146.521 25.7793 147.112 25.1865C148.008 24.2875 148.9 23.3851 149.792 22.4822C150.366 21.9036 150.941 21.3253 151.516 20.7472C151.911 20.3471 151.911 20.3471 152.314 19.9389C153.884 18.3696 155.509 16.9389 157.257 15.5726C158.109 14.8913 158.848 14.1327 159.608 13.3483C162.124 10.9495 164.812 8.79823 167.555 6.67413C167.805 6.47367 168.055 6.27321 168.313 6.06668C168.88 5.67301 168.88 5.67301 169.542 5.67301C169.542 5.45277 169.542 5.23252 169.542 5.0056C170.249 4.44059 170.954 3.91603 171.694 3.39964C171.906 3.25021 172.117 3.10078 172.335 2.94682C176.528 0 176.528 0 177.489 0Z" fill="#4A6CF7"/>
<path d="M16.5568 141.158C71.9593 141.158 127.362 141.158 184.443 141.158C184.443 142.369 184.443 143.581 184.443 144.829C138.056 144.994 138.056 144.994 90.7315 145.162C88.2525 150.606 88.2525 150.606 86.0956 156.175C85.5536 156.713 85.5536 156.713 84.8745 157.28C83.9817 158.039 83.1378 158.808 82.3289 159.658C81.4596 160.513 81.4596 160.513 80.7974 160.513C80.7359 160.733 80.6744 160.953 80.6111 161.18C79.5519 163.408 78.0375 164.89 75.807 165.874C74.6104 166.458 73.4516 167.309 72.8501 168.522C73.2804 168.515 73.7106 168.508 74.1539 168.501C74.6023 168.494 75.0513 168.498 75.4992 168.522C75.8303 168.856 75.8303 168.856 75.8626 169.472C75.8519 170.156 75.8411 170.841 75.8303 171.525C75.6182 171.449 75.406 171.373 75.1874 171.294C73.3663 170.685 72.071 170.347 70.201 170.858C69.4501 171.461 69.4501 171.461 69.518 172.318C70.0361 173.608 71.0105 173.934 72.1878 174.529C72.8816 174.897 73.5712 175.273 74.2574 175.655C74.5938 175.836 74.9301 176.018 75.2767 176.205C76.3352 176.994 76.6975 177.631 77.1549 178.867C77.3156 180.408 77.0486 181.561 76.1408 182.809C73.8717 184.511 72.0698 185.229 69.2076 184.873C68.1869 184.712 67.3707 184.535 66.5585 183.872C66.1417 182.885 65.9848 181.934 65.8962 180.869C66.224 180.869 66.5519 180.869 66.8896 180.869C66.8896 181.089 66.8896 181.309 66.8896 181.536C68.9272 182.134 71.243 182.78 73.2692 181.865C73.4587 181.756 73.6482 181.648 73.8435 181.536C73.8435 180.766 73.8435 179.995 73.8435 179.2C73.4802 179.003 73.117 178.806 72.7427 178.602C72.261 178.336 71.7794 178.07 71.2979 177.803C71.0591 177.674 70.8202 177.544 70.5742 177.411C69.1067 176.594 68.0455 175.745 66.8896 174.529C65.803 174.529 65.1085 175.255 64.2405 175.863C64.1718 175.571 64.1031 175.278 64.0323 174.977C63.3396 172.103 62.5741 169.256 61.757 166.415C61.6629 166.085 61.5687 165.755 61.4717 165.415C60.8256 163.19 60.0848 161.014 59.2735 158.844C59.2645 159.713 59.258 160.582 59.2528 161.451C59.25 161.698 59.2472 161.944 59.2444 162.198C59.2395 163.282 59.2618 164.148 59.6046 165.185C59.8232 165.295 60.0417 165.405 60.2669 165.518C60.2669 165.739 60.2669 165.959 60.2669 166.186C58.6278 166.186 56.9886 166.186 55.2998 166.186C55.2998 165.966 55.2998 165.745 55.2998 165.518C55.5184 165.518 55.7369 165.518 55.9621 165.518C55.9785 163.642 55.9905 161.765 55.9985 159.889C56.0018 159.25 56.0063 158.612 56.0121 157.974C56.0201 157.056 56.0239 156.138 56.0268 155.22C56.0319 154.793 56.0319 154.793 56.0371 154.357C56.0372 154.089 56.0372 153.822 56.0373 153.547C56.0388 153.313 56.0402 153.079 56.0417 152.837C55.9486 152.057 55.6816 151.515 55.2998 150.835C55.6277 150.725 55.9555 150.615 56.2932 150.502C55.6376 148.74 54.9819 146.978 54.3064 145.162C41.8491 145.052 29.3917 144.942 16.5568 144.829C16.5568 143.617 16.5568 142.406 16.5568 141.158Z" fill="#E1D5E9"/>
<path d="M107.619 37.7088C113.331 40.3373 118.534 46.9273 120.865 52.7256C122.457 57.228 121.692 62.6887 119.736 66.9439C117.355 71.8051 113.427 74.8839 108.314 76.6344C105.433 77.5297 102.696 77.9204 99.6722 77.7536C99.6741 78.128 99.676 78.5023 99.678 78.888C99.6949 83.823 99.6056 88.7543 99.5066 93.6881C99.4906 94.5098 99.4746 95.3314 99.4587 96.1531C99.4202 98.1402 99.3809 100.127 99.341 102.114C98.2783 102.15 97.2157 102.172 96.1525 102.191C95.8531 102.201 95.5537 102.212 95.2453 102.222C93.3862 102.248 92.2601 102.098 90.7522 100.884C90.288 100.419 89.8393 99.939 89.4069 99.4446C88.8573 98.8861 88.3051 98.3302 87.7512 97.776C87.3422 97.3664 87.3422 97.3664 86.9249 96.9486C86.5009 96.5245 86.5009 96.5245 86.0684 96.0918C85.5973 95.6194 85.1262 95.147 84.6553 94.6744C84.3296 94.3479 84.0037 94.0217 83.6774 93.6958C83.2043 93.223 82.7323 92.7491 82.2603 92.2751C81.9795 91.9939 81.6987 91.7126 81.4094 91.4229C80.7974 90.7682 80.7974 90.7682 80.7974 90.4345C82.5458 90.4345 84.2942 90.4345 86.0956 90.4345C86.0956 82.1752 86.0956 73.916 86.0956 65.4065C90.5212 65.0761 90.5212 65.0761 95.0362 64.7391C99.3787 64.0739 104.195 62.5737 106.957 58.8575C109.39 55.4575 110.4 52.1079 110.393 47.9495C110.392 47.6401 110.392 47.3308 110.391 47.0121C110.331 43.6455 109.305 41.227 107.619 38.3763C107.619 38.156 107.619 37.9358 107.619 37.7088Z" fill="#4A6CF7"/>
<path d="M164.244 42.7144C166.429 43.7651 167.981 45.3262 169.671 47.0524C170.143 47.5336 170.621 48.0092 171.099 48.4846C171.4 48.7893 171.701 49.0941 172.011 49.4081C172.284 49.6845 172.558 49.9608 172.839 50.2456C173.514 51.055 173.854 51.7271 174.178 52.7256C174.396 52.7256 174.615 52.7256 174.84 52.7256C175.816 54.1109 176.646 55.5934 177.489 57.0638C177.649 57.3383 177.809 57.6127 177.973 57.8955C178.903 59.6201 179.499 61.4058 180.056 63.2791C180.125 63.5143 180.195 63.7495 180.267 63.9918C181.859 69.6271 181.94 76.8468 180.138 82.4255C180.022 82.7925 179.905 83.1594 179.785 83.5374C177.282 90.6892 171.883 95.9917 165.192 99.2352C159.082 102.085 152.439 102.722 145.762 102.823C145.465 102.828 145.167 102.833 144.86 102.838C138.78 102.874 138.78 102.874 136.478 100.791C135.724 99.9199 135.067 99.0329 134.473 98.0439C134.018 97.2887 133.467 96.6675 132.869 96.0241C132.706 95.8288 132.543 95.6335 132.376 95.4323C131.414 94.3448 130.37 93.3373 129.327 92.3295C128.922 91.9324 128.535 91.5183 128.15 91.1019C128.15 90.8816 128.15 90.6614 128.15 90.4345C128.53 90.4279 128.91 90.4212 129.302 90.4144C130.742 90.3886 132.183 90.3591 133.623 90.3286C134.241 90.316 134.859 90.3043 135.476 90.2937C145.766 90.1149 155.358 89.0575 163.188 81.6121C164.544 80.1835 165.684 78.5207 166.562 76.7525C166.78 76.7525 166.999 76.7525 167.224 76.7525C167.282 76.395 167.282 76.395 167.34 76.0303C167.566 75.0342 167.917 74.217 168.342 73.2903C171.483 65.7006 170.949 56.7696 167.948 49.2217C167.154 47.4627 166.205 45.9155 165.044 44.3791C164.575 43.7156 164.575 43.7156 164.244 42.7144Z" fill="#4A6CF7"/>
<path d="M62.2537 31.0347C63.8086 32.1662 65.2313 33.3027 66.5585 34.7055C67.9614 36.1493 69.3631 37.5792 70.884 38.8977C71.319 39.2795 71.7536 39.6619 72.1878 40.0448C72.4405 40.265 72.6932 40.4853 72.9536 40.7122C74.8055 42.4229 74.8055 42.4229 74.9404 43.6738C74.3155 45.1732 73.6118 46.6204 72.8501 48.0537C71.8678 47.7545 70.9958 47.4706 70.1247 46.9171C65.1796 44.0493 59.0682 44.0556 53.6714 45.4135C50.2462 46.3819 47.0773 48.0563 44.3723 50.3897C44.1038 50.6125 43.8353 50.8353 43.5587 51.0649C39.132 54.8773 35.5807 60.7958 35.1005 66.7413C34.7521 72.9344 35.2754 77.829 38.1984 83.3145C38.743 84.4278 38.743 84.4278 38.743 85.4289C32.902 82.6143 32.902 82.6143 30.7957 80.757C30.7957 80.5367 30.7957 80.3165 30.7957 80.0896C30.6002 80.0035 30.4047 79.9175 30.2033 79.8289C26.5606 77.8053 24.4045 72.4488 23.2831 68.6184C22.8137 66.7753 22.6053 64.9686 22.5173 63.0705C22.5036 62.8 22.49 62.5294 22.4759 62.2506C22.4161 59.9206 22.7535 57.6809 23.1796 55.3953C23.2402 55.0645 23.3008 54.7337 23.3632 54.3929C24.3522 49.7726 26.7717 45.3343 30.1334 42.047C30.3998 41.7833 30.6662 41.5196 30.9406 41.248C36.4647 35.9949 42.605 33.5789 50.1465 33.6001C50.5275 33.5947 50.9085 33.5893 51.301 33.5838C54.7821 33.5818 57.7188 34.4247 60.9292 35.7066C60.9893 35.3685 60.9893 35.3685 61.0507 35.0235C61.1062 34.7259 61.1617 34.4282 61.2189 34.1215C61.2727 33.8273 61.3265 33.533 61.3819 33.2299C61.5808 32.4131 61.8497 31.7669 62.2537 31.0347Z" fill="#4A6CF7"/>
<path d="M16.5568 141.158C71.9593 141.158 127.362 141.158 184.443 141.158C184.443 142.369 184.443 143.581 184.443 144.829C129.041 144.829 73.6382 144.829 16.5568 144.829C16.5568 143.617 16.5568 142.406 16.5568 141.158Z" fill="#4A6CF7"/>
<path d="M177.489 0C177.863 0.499582 177.863 0.499582 178.267 1.19404C178.485 1.56894 178.485 1.56894 178.708 1.9514C178.859 2.21595 179.01 2.48051 179.166 2.75308C179.318 3.01247 179.47 3.27186 179.627 3.53911C180.986 5.89278 180.986 5.89278 181.132 7.00784C180.533 7.78605 180.533 7.78605 179.662 8.6138C179.358 8.90632 179.053 9.19883 178.739 9.50021C177.752 10.4079 176.756 11.302 175.743 12.1803C174.115 13.6057 172.717 15.2416 171.284 16.86C170.659 17.5496 170.022 18.2061 169.356 18.8544C168.15 20.0383 167.147 21.3618 166.131 22.7116C165.945 22.9254 165.76 23.1392 165.568 23.3595C165.35 23.3595 165.131 23.3595 164.906 23.3595C164.81 23.5591 164.715 23.7587 164.616 23.9643C164.244 24.6943 164.244 24.6943 163.582 25.6954C163.363 25.6954 163.144 25.6954 162.919 25.6954C162.817 25.9019 162.714 26.1084 162.609 26.3211C162.381 26.78 162.154 27.2388 161.926 27.6976C161.707 27.6976 161.489 27.6976 161.264 27.6976C161.184 27.8809 161.105 28.0641 161.023 28.253C160.502 29.2163 159.854 29.9875 159.153 30.8261C158.318 31.8349 157.507 32.8207 156.814 33.9338C156.643 34.1884 156.472 34.4431 156.297 34.7055C156.078 34.7055 155.859 34.7055 155.634 34.7055C155.511 35.0771 155.511 35.0771 155.386 35.4563C154.942 36.4412 154.439 36.9908 153.647 37.7088C153.137 37.5563 152.626 37.4032 152.116 37.25C151.658 37.1126 151.658 37.1126 151.191 36.9723C150.577 36.7822 149.968 36.5735 149.363 36.3532C145.687 35.219 141.897 35.1822 138.084 35.0392C138.391 34.599 138.703 34.1615 139.015 33.7252C139.188 33.4813 139.361 33.2374 139.539 32.9861C140.071 32.3695 140.071 32.3695 141.064 32.0358C141.295 31.5959 141.514 31.15 141.727 30.701C142.113 30.2517 142.518 29.8181 142.935 29.3971C143.182 29.1453 143.43 28.8934 143.686 28.634C143.954 28.3646 144.223 28.0951 144.5 27.8176C144.778 27.5369 145.056 27.2563 145.342 26.9671C145.931 26.3728 146.521 25.7793 147.112 25.1865C148.008 24.2875 148.9 23.3851 149.792 22.4822C150.366 21.9036 150.941 21.3253 151.516 20.7472C151.911 20.3471 151.911 20.3471 152.314 19.9389C153.884 18.3696 155.509 16.9389 157.257 15.5726C158.109 14.8913 158.848 14.1327 159.608 13.3483C162.124 10.9495 164.812 8.79823 167.555 6.67413C167.805 6.47367 168.055 6.27321 168.313 6.06668C168.88 5.67301 168.88 5.67301 169.542 5.67301C169.542 5.45277 169.542 5.23252 169.542 5.0056C170.249 4.44059 170.954 3.91603 171.694 3.39964C171.906 3.25021 172.117 3.10078 172.335 2.94682C176.528 0 176.528 0 177.489 0Z" fill="#E3D6EA"/>
<path d="M86.0956 35.0392C99.8833 35.0392 99.8833 35.0392 103.315 38.3763C105.249 40.456 106.295 43.2284 106.295 46.0515C104.109 45.7211 101.924 45.3908 99.6722 45.0504C99.6914 46.0746 99.7106 47.0988 99.7304 48.1541C99.7433 49.1448 99.7533 50.1354 99.7631 51.1261C99.7714 51.8153 99.7827 52.5044 99.7971 53.1935C99.8171 54.1835 99.8265 55.173 99.8338 56.1631C99.8467 56.6261 99.8467 56.6261 99.8597 57.0986C99.8607 59.2085 99.8607 59.2085 99.0205 60.0609C94.4613 61.6048 91.4128 61.0683 86.0956 61.0683C86.0956 52.4787 86.0956 43.8891 86.0956 35.0392Z" fill="#4A6CF7"/>
<path d="M64.5717 83.0929C65.0088 83.3132 65.4459 83.5334 65.8962 83.7603C65.8962 83.9806 65.8962 84.2008 65.8962 84.4278C66.0836 84.5099 66.271 84.5921 66.4641 84.6767C67.3507 85.167 67.9924 85.7551 68.7316 86.4509C70.2184 87.8274 71.7544 89.119 73.3326 90.3875C75.0006 91.8026 75.9997 92.8138 76.6168 94.9604C76.7286 95.3325 76.8404 95.7046 76.9557 96.0879C77.247 97.5807 77.247 97.5807 76.8237 98.4434C74.6535 100.051 71.7755 100.77 69.2076 101.447C68.8204 101.551 68.4333 101.656 68.0344 101.764C59.1329 103.818 51.2927 101.434 43.71 96.7749C43.497 96.6479 43.2839 96.5209 43.0644 96.39C40.0782 94.6094 37.5763 92.5442 35.1005 90.1008C34.8491 89.8603 34.5977 89.6198 34.3386 89.3721C33.1719 88.2387 33.1719 88.2387 32.7825 87.7648C32.7825 87.5446 32.7825 87.3243 32.7825 87.0974C33.5003 87.4548 34.2085 87.8209 34.9103 88.2093C43.17 92.4782 52.8587 92.3922 61.5914 89.7671C62.9586 89.3033 64.2769 88.7546 65.5651 88.0985C65.5211 87.905 65.4771 87.7114 65.4318 87.5119C65.1025 86.0437 64.7989 84.5816 64.5717 83.0929Z" fill="#4A6CF7"/>
<path d="M171.86 108.788C173.532 108.763 175.204 108.745 176.876 108.733C177.443 108.728 178.011 108.722 178.578 108.713C183.036 108.646 187.548 108.578 191.066 111.792C191.066 112.012 191.066 112.232 191.066 112.459C191.267 112.544 191.467 112.629 191.674 112.716C192.484 113.18 192.779 113.562 193.26 114.357C193.394 114.572 193.528 114.786 193.666 115.008C195.207 118.205 195.289 122.471 194.17 125.828C193.493 127.419 192.619 128.917 191.397 130.146C191.069 130.256 190.741 130.366 190.404 130.479C190.404 130.7 190.404 130.92 190.404 131.147C189.821 131.473 189.233 131.791 188.644 132.106C188.318 132.284 187.991 132.462 187.655 132.646C184.255 134.042 180.703 133.9 177.096 133.858C176.586 133.855 176.076 133.852 175.566 133.849C174.331 133.842 173.095 133.83 171.86 133.816C172.191 133.149 172.522 132.482 172.853 131.814C172.884 131.115 172.892 130.416 172.891 129.717C172.891 129.502 172.891 129.287 172.891 129.065C172.891 128.354 172.888 127.642 172.886 126.931C172.885 126.438 172.885 125.945 172.884 125.452C172.883 124.154 172.88 122.856 172.876 121.558C172.873 120.234 172.871 118.91 172.87 117.586C172.866 114.987 172.86 112.388 172.853 109.789C172.526 109.679 172.198 109.569 171.86 109.456C171.86 109.236 171.86 109.015 171.86 108.788ZM177.489 112.125C177.489 118.182 177.489 124.239 177.489 130.479C181.092 131.084 184.068 131.047 187.175 128.936C188.868 127.574 190.019 125.627 190.404 123.471C190.633 119.858 190.495 117.375 188.21 114.545C186.439 112.683 184.939 111.818 182.363 111.703C179.851 111.545 179.851 111.545 177.489 112.125Z" fill="black"/>
<path d="M55.631 108.788C56.9851 108.772 58.3392 108.76 59.6934 108.752C60.1526 108.748 60.6118 108.744 61.071 108.738C68.3882 108.647 68.3882 108.647 70.3666 110.582C70.5749 110.777 70.7832 110.973 70.9978 111.174C72.3342 112.738 72.3334 114.15 72.2874 116.161C72.1475 117.523 71.8137 118.152 70.8633 119.133C69.9014 119.858 68.9069 120.505 67.883 121.135C67.5552 121.356 67.2274 121.576 66.8896 121.803C67.0663 122.014 67.2431 122.224 67.4251 122.442C68.8892 124.213 70.2723 126.008 71.5876 127.893C73.3653 130.721 73.3653 130.721 75.8303 132.815C75.8303 133.035 75.8303 133.256 75.8303 133.483C72.6317 133.689 72.6317 133.689 71.1116 132.982C68.6791 130.754 66.8636 128.092 64.9848 125.396C63.9809 123.963 62.949 122.551 61.9226 121.135C62.9475 120.103 64.2733 119.781 65.6155 119.271C66.6178 118.77 67.0132 118.44 67.5519 117.465C67.943 116.07 68.0368 114.857 67.5105 113.502C66.5159 112.366 65.6246 111.852 64.1306 111.621C63.7502 111.602 63.3699 111.582 62.9781 111.562C62.5935 111.54 62.2089 111.518 61.8126 111.496C61.5211 111.483 61.2295 111.471 60.9292 111.458C60.9571 114.133 60.9885 116.807 61.0244 119.482C61.0409 120.724 61.0562 121.965 61.0689 123.207C61.0811 124.406 61.0964 125.605 61.114 126.804C61.1201 127.261 61.1251 127.718 61.1289 128.175C61.1345 128.816 61.1445 129.456 61.1547 130.097C61.1591 130.462 61.1635 130.826 61.1681 131.202C61.2141 132.254 61.2141 132.254 61.9226 133.483C59.9556 133.483 57.9887 133.483 55.9621 133.483C56.1807 132.822 56.3992 132.161 56.6244 131.48C56.7253 130.457 56.7253 130.457 56.7153 129.386C56.7185 128.978 56.7216 128.57 56.7249 128.15C56.7246 127.714 56.7243 127.279 56.724 126.829C56.7253 126.373 56.7267 125.917 56.7283 125.461C56.7307 124.507 56.7307 123.553 56.7289 122.6C56.727 121.381 56.7326 120.163 56.7403 118.944C56.7452 118.003 56.7455 117.062 56.7444 116.12C56.7447 115.454 56.7493 114.787 56.7539 114.121C56.7519 113.713 56.7498 113.305 56.7477 112.885C56.7479 112.528 56.7481 112.171 56.7483 111.803C56.6046 110.629 56.2063 109.812 55.631 108.788Z" fill="#060606"/>
<path d="M25.8287 109.122C25.8287 110.554 25.8287 111.985 25.8287 113.46C25.0911 113.13 25.0911 113.13 24.3385 112.793C21.6784 111.826 18.6924 111.577 15.9567 112.408C13.8406 113.471 12.4292 115.209 11.5432 117.396C10.6164 120.881 11.1169 124.129 12.8522 127.205C14.7382 129.648 16.7443 130.563 19.744 130.98C22.4465 130.881 25.3444 129.496 27.8155 128.477C27.7327 129.29 27.7327 129.29 27.4843 130.479C27.4412 130.732 27.3981 130.985 27.3537 131.246C27.086 132.211 26.8429 132.745 26.1598 133.483C22.4076 134.932 17.6757 134.941 13.9336 133.481C11.0632 132.095 8.39349 130.072 7.16859 127.033C6.83753 125.962 6.54808 124.896 6.2916 123.805C6.22629 123.59 6.16098 123.376 6.09369 123.155C5.52608 120.239 6.38687 116.664 8.02004 114.181C12.311 108.654 19.2703 106.238 25.8287 109.122Z" fill="black"/>
<path d="M33.4448 108.788C37.9251 108.788 42.4054 108.788 47.0214 108.788C47.0214 110.11 47.0214 111.431 47.0214 112.793C46.639 112.628 46.2565 112.462 45.8624 112.292C43.5585 111.498 41.1436 111.712 38.743 111.792C38.8523 112.122 38.9615 112.452 39.0741 112.793C39.1007 113.263 39.1098 113.734 39.1065 114.205C39.1054 114.472 39.1043 114.74 39.1032 115.016C39.1005 115.294 39.0977 115.572 39.0948 115.859C39.0933 116.141 39.0918 116.423 39.0903 116.713C39.0864 117.409 39.0805 118.104 39.0741 118.8C40.9318 118.8 42.7895 118.8 44.7035 118.8C44.8674 120.617 44.8674 120.617 45.0346 122.47C43.0676 122.25 41.1007 122.03 39.0741 121.803C39.0741 124.556 39.0741 127.309 39.0741 130.146C40.6928 130.177 40.6928 130.177 42.3441 130.208C42.677 130.217 43.0099 130.226 43.3529 130.236C45.713 130.257 47.8745 129.883 50.0016 128.811C49.8248 130.842 49.5306 131.809 48.6771 133.816C43.6504 133.816 38.6238 133.816 33.4448 133.816C34.1071 132.148 34.1071 132.148 34.4382 131.814C34.4746 131.166 34.4876 130.517 34.4916 129.867C34.4963 129.243 34.4963 129.243 34.5012 128.605C34.5028 128.147 34.5042 127.688 34.5055 127.23C34.5074 126.762 34.5093 126.294 34.5112 125.826C34.5147 124.844 34.5166 123.862 34.5178 122.88C34.5196 121.622 34.5275 120.364 34.537 119.106C34.5431 118.14 34.5449 117.173 34.5454 116.206C34.5464 115.742 34.549 115.279 34.5534 114.815C34.559 114.166 34.5578 113.516 34.5563 112.867C34.5581 112.312 34.5581 112.312 34.5599 111.747C34.4239 110.678 34.1258 110.262 33.4448 109.456C33.4448 109.236 33.4448 109.015 33.4448 108.788Z" fill="#020202"/>
<path d="M150.005 108.788C154.594 108.788 159.184 108.788 163.913 108.788C163.913 110.11 163.913 111.431 163.913 112.793C162.257 112.459 162.257 112.459 161.302 112.097C160.11 111.744 159.226 111.79 157.994 111.917C157.324 111.986 156.655 112.054 155.965 112.125C155.856 114.328 155.747 116.53 155.634 118.8C157.71 118.8 159.787 118.8 161.926 118.8C161.926 120.011 161.926 121.222 161.926 122.47C161.379 122.36 160.833 122.25 160.27 122.137C159.464 122.064 158.657 122.002 157.849 121.949C157.118 121.901 156.387 121.853 155.634 121.803C155.634 124.556 155.634 127.309 155.634 130.146C161.103 130.426 161.103 130.426 166.231 128.811C166.449 128.701 166.668 128.59 166.893 128.477C166.645 130.372 166.133 131.918 165.568 133.816C160.432 133.816 155.297 133.816 150.005 133.816C150.333 133.156 150.661 132.495 150.998 131.814C151.477 129.916 151.383 127.945 151.385 125.999C151.386 125.631 151.387 125.263 151.388 124.884C151.39 124.108 151.391 123.331 151.391 122.554C151.392 121.373 151.398 120.191 151.404 119.009C151.405 118.252 151.405 117.495 151.406 116.739C151.408 116.388 151.411 116.038 151.413 115.677C151.406 113.245 151.375 110.86 150.005 108.788Z" fill="black"/>
<path d="M67.2208 151.169C68.3728 151.14 69.5247 151.122 70.677 151.107C70.9995 151.098 71.322 151.09 71.6542 151.081C74.1684 151.056 76.262 151.403 78.4173 152.754C80.3817 154.79 80.8213 156.726 80.7974 159.512C80.6646 161.497 79.8335 162.755 78.5919 164.263C76.2769 166.02 73.6285 165.984 70.8426 165.915C70.3179 165.908 70.3179 165.908 69.7825 165.901C68.9284 165.889 68.0747 165.873 67.2208 165.852C67.33 165.522 67.4393 165.191 67.5519 164.851C67.5841 163.875 67.5982 162.906 67.5959 161.93C67.5962 161.644 67.5965 161.358 67.5968 161.064C67.5971 160.46 67.5964 159.856 67.5951 159.252C67.5933 158.325 67.595 157.399 67.5972 156.473C67.5969 155.886 67.5965 155.3 67.5959 154.713C67.5965 154.435 67.5972 154.157 67.5979 153.871C67.6295 152.475 67.6295 152.475 67.2208 151.169Z" fill="#040404"/>
<path d="M116.229 108.788C120.709 108.788 125.19 108.788 129.806 108.788C129.806 110.22 129.806 111.652 129.806 113.127C129.546 112.968 129.287 112.81 129.019 112.647C126.708 111.643 124.353 111.792 121.858 111.792C121.858 114.104 121.858 116.417 121.858 118.8C123.825 118.8 125.792 118.8 127.819 118.8C127.819 120.011 127.819 121.222 127.819 122.47C125.852 122.25 123.885 122.03 121.858 121.803C121.883 123.205 121.91 124.605 121.945 126.007C121.956 126.483 121.966 126.96 121.973 127.436C121.984 128.122 122.001 128.808 122.02 129.494C122.029 129.906 122.037 130.319 122.046 130.744C122.198 131.881 122.452 132.301 123.183 133.149C123.183 133.369 123.183 133.589 123.183 133.816C120.888 133.816 118.593 133.816 116.229 133.816C116.448 133.266 116.666 132.715 116.891 132.148C117.241 131.091 117.269 130.332 117.276 129.222C117.281 128.628 117.281 128.628 117.285 128.023C117.287 127.596 117.288 127.168 117.29 126.728C117.292 126.289 117.293 125.85 117.295 125.397C117.299 124.468 117.301 123.538 117.302 122.608C117.304 121.419 117.312 120.23 117.321 119.041C117.329 117.905 117.329 116.768 117.331 115.632C117.335 115.206 117.339 114.78 117.343 114.34C117.342 113.943 117.341 113.545 117.34 113.136C117.342 112.787 117.343 112.438 117.344 112.078C117.205 110.985 116.824 110.368 116.229 109.456C116.229 109.236 116.229 109.015 116.229 108.788Z" fill="black"/>
<path d="M79.1417 108.788C85.0425 108.788 90.9434 108.788 97.0231 108.788C96.6952 110 96.3674 111.211 96.0297 112.459C95.2101 112.294 95.2101 112.294 94.374 112.125C93.5108 112.052 92.6513 111.989 91.787 111.938C91.4428 111.916 91.4428 111.916 91.0917 111.894C90.5302 111.859 89.9686 111.825 89.4069 111.792C89.4349 114.374 89.4663 116.955 89.5021 119.537C89.5187 120.736 89.534 121.935 89.5466 123.134C89.5589 124.291 89.5742 125.449 89.5917 126.606C89.6008 127.262 89.6067 127.917 89.6125 128.572C89.6191 128.973 89.6257 129.374 89.6325 129.787C89.6369 130.139 89.6413 130.491 89.6458 130.853C89.7074 131.963 89.7074 131.963 90.4003 133.483C88.4334 133.483 86.4664 133.483 84.4399 133.483C84.6584 132.822 84.877 132.161 85.1021 131.48C85.2084 130.484 85.2084 130.484 85.2077 129.446C85.2143 129.052 85.2209 128.658 85.2277 128.252C85.2315 127.831 85.2353 127.411 85.2393 126.978C85.2457 126.544 85.2521 126.11 85.2587 125.662C85.2756 124.514 85.2888 123.365 85.3011 122.216C85.3144 121.041 85.3313 119.867 85.3479 118.693C85.3799 116.392 85.4078 114.092 85.4333 111.792C84.6941 111.834 83.9551 111.879 83.2162 111.926C82.5989 111.963 82.5989 111.963 81.9691 112.001C80.5319 112.153 79.4539 112.521 78.1483 113.127C78.317 111.454 78.5075 110.386 79.1417 108.788Z" fill="#080809"/>
<path d="M14.9012 150.502C15.0651 153.145 15.0651 153.145 15.2323 155.841C15.7787 155.621 16.325 155.4 16.888 155.174C18.7312 155.026 19.952 155.081 21.5239 156.175C22.0933 157.326 22.2754 158.299 22.3116 159.577C22.3229 159.898 22.3343 160.22 22.3459 160.551C22.359 161.048 22.359 161.048 22.3724 161.556C22.3923 162.217 22.4133 162.878 22.4358 163.54C22.4437 163.831 22.4517 164.123 22.4598 164.424C22.4906 165.239 22.4906 165.239 22.8484 166.186C21.5371 166.186 20.2258 166.186 18.8748 166.186C18.8748 165.966 18.8748 165.745 18.8748 165.518C19.0933 165.518 19.3119 165.518 19.5371 165.518C19.5639 164.496 19.5836 163.475 19.5992 162.453C19.6075 162.164 19.6158 161.876 19.6244 161.578C19.6519 159.371 19.6519 159.371 18.5437 157.509C17.4087 157.389 16.5962 157.323 15.5634 157.843C15.2452 158.805 15.1936 159.404 15.2 160.402C15.201 160.7 15.2021 160.998 15.2032 161.305C15.206 161.615 15.2087 161.925 15.2116 162.244C15.2131 162.558 15.2146 162.872 15.2161 163.195C15.22 163.969 15.2255 164.744 15.2323 165.518C15.4508 165.518 15.6694 165.518 15.8946 165.518C15.8946 165.739 15.8946 165.959 15.8946 166.186C14.474 166.186 13.0534 166.186 11.5898 166.186C11.5898 165.966 11.5898 165.745 11.5898 165.518C11.8083 165.408 12.0269 165.298 12.2521 165.185C12.2521 160.78 12.2521 156.375 12.2521 151.836C11.9242 152.497 11.5964 153.158 11.2586 153.839C10.9308 153.618 10.603 153.398 10.2652 153.171C9.51054 153.02 9.51054 153.02 8.71304 152.963C8.31158 152.925 8.31158 152.925 7.90201 152.887C7.6984 152.871 7.49479 152.854 7.28501 152.838C7.32417 154.435 7.36531 156.033 7.4083 157.63C7.42264 158.174 7.43644 158.717 7.44969 159.261C7.46882 160.042 7.48991 160.823 7.51137 161.604C7.51691 161.847 7.52244 162.09 7.52814 162.34C7.55809 163.37 7.62185 164.201 7.94728 165.185C8.16583 165.295 8.38438 165.405 8.60956 165.518C8.60956 165.739 8.60956 165.959 8.60956 166.186C6.97043 166.186 5.3313 166.186 3.6425 166.186C3.6425 165.966 3.6425 165.745 3.6425 165.518C3.97033 165.353 3.97033 165.353 4.30478 165.185C4.70268 163.982 4.71213 162.858 4.74069 161.604C4.74757 161.353 4.75445 161.103 4.76154 160.845C4.78317 160.046 4.8027 159.247 4.82218 158.448C4.83648 157.906 4.85093 157.364 4.86551 156.822C4.90094 155.494 4.93449 154.166 4.96705 152.838C4.49478 152.884 4.02269 152.933 3.55067 152.982C3.28775 153.009 3.02483 153.036 2.75395 153.064C1.78612 153.199 0.910185 153.486 0 153.839C0.164901 152.592 0.289717 151.899 0.99341 150.835C2.0214 150.723 2.98633 150.672 4.01633 150.665C4.31595 150.659 4.61558 150.653 4.92428 150.646C5.88364 150.628 6.84295 150.617 7.80241 150.606C8.45068 150.595 9.09894 150.583 9.74719 150.571C13.6629 150.502 13.6629 150.502 14.9012 150.502Z" fill="black"/>
<path d="M150.212 155.132C150.53 155.131 150.849 155.13 151.177 155.129C151.992 155.174 151.992 155.174 152.654 155.507C152.654 156.388 152.654 157.269 152.654 158.177C152.466 158.07 152.278 157.963 152.084 157.852C150.851 157.292 149.673 157.276 148.349 157.509C147.325 158.262 146.842 158.815 146.362 159.991C146.362 161.422 146.962 162.406 147.894 163.454C149.389 164.207 150.98 164.303 152.613 164.017C153.645 163.283 153.863 162.348 154.31 161.18C155.156 159.99 156.327 159.813 157.683 159.449C158.104 159.334 158.526 159.219 158.96 159.101C159.283 159.016 159.606 158.932 159.939 158.844C160.048 158.404 160.158 157.963 160.27 157.509C157.765 157.441 157.765 157.441 155.303 157.843C155.676 156.851 156.039 156.063 156.628 155.174C158.558 154.817 160.276 155.094 161.926 156.175C162.914 157.171 162.952 158.182 163.024 159.548C163.038 159.8 163.052 160.052 163.066 160.311C163.079 160.57 163.092 160.83 163.106 161.097C163.12 161.361 163.134 161.626 163.149 161.899C163.184 162.549 163.217 163.199 163.25 163.85C163.688 164.07 164.125 164.29 164.575 164.517C164.347 165.331 164.347 165.331 163.913 166.186C163.168 166.54 163.168 166.54 162.257 166.52C161.16 165.873 161.16 165.873 160.27 165.185C160.099 165.405 159.929 165.625 159.753 165.852C158.946 166.52 158.946 166.52 157.828 166.666C156.54 166.509 155.736 166.211 154.641 165.518C154.422 165.188 154.204 164.858 153.979 164.517C153.781 164.786 153.582 165.054 153.378 165.331C152.607 166.241 152.192 166.453 151.028 166.599C148.973 166.67 147.152 166.251 145.369 165.185C145.26 164.854 145.15 164.524 145.038 164.184C144.819 164.184 144.601 164.184 144.376 164.184C143.385 162.515 143.513 160.728 143.713 158.844C144.472 157.198 145.466 156.391 147.025 155.507C148.095 155.156 149.09 155.129 150.212 155.132ZM158.076 161.347C157.67 161.486 157.67 161.486 157.256 161.629C157.049 161.701 156.841 161.773 156.628 161.848C156.518 162.398 156.409 162.949 156.297 163.516C157.117 164.279 157.523 164.509 158.656 164.601C159.588 164.578 159.588 164.578 160.27 164.184C160.27 163.082 160.27 161.981 160.27 160.847C159.454 160.847 158.848 161.08 158.076 161.347Z" fill="black"/>
<path d="M136.428 108.788C138.723 108.788 141.018 108.788 143.382 108.788C143.273 109.119 143.164 109.449 143.051 109.789C142.833 109.789 142.614 109.789 142.389 109.789C142.366 112.638 142.348 115.487 142.337 118.335C142.332 119.658 142.325 120.981 142.314 122.303C142.303 123.58 142.297 124.857 142.295 126.133C142.293 126.62 142.289 127.107 142.284 127.594C142.277 128.276 142.276 128.958 142.276 129.641C142.274 130.029 142.272 130.417 142.269 130.817C142.401 131.916 142.68 132.326 143.382 133.149C143.382 133.369 143.382 133.589 143.382 133.816C141.087 133.816 138.793 133.816 136.428 133.816C136.647 133.376 136.865 132.935 137.091 132.482C137.443 131.416 137.468 130.644 137.475 129.525C137.48 128.921 137.48 128.921 137.485 128.306C137.486 127.871 137.488 127.436 137.489 126.988C137.491 126.537 137.493 126.086 137.495 125.635C137.498 124.69 137.5 123.745 137.501 122.799C137.503 121.59 137.511 120.381 137.52 119.172C137.527 118.24 137.528 117.309 137.529 116.377C137.53 115.715 137.537 115.053 137.543 114.391C137.542 113.987 137.541 113.583 137.54 113.166C137.542 112.634 137.542 112.634 137.543 112.091C137.405 110.99 137.028 110.374 136.428 109.456C136.428 109.236 136.428 109.015 136.428 108.788Z" fill="black"/>
<path d="M102.652 108.788C104.838 108.788 107.023 108.788 109.275 108.788C109.057 109.229 108.838 109.669 108.613 110.123C108.259 111.217 108.236 112.238 108.228 113.385C108.225 113.773 108.222 114.16 108.219 114.56C108.217 115.186 108.217 115.186 108.214 115.825C108.212 116.47 108.212 116.47 108.209 117.129C108.205 118.04 108.203 118.95 108.202 119.861C108.2 121.024 108.192 122.187 108.183 123.35C108.175 124.464 108.175 125.577 108.173 126.691C108.169 127.107 108.165 127.523 108.161 127.952C108.154 130.691 108.154 130.691 109.275 133.149C109.439 133.479 109.439 133.479 109.606 133.816C107.202 133.816 104.798 133.816 102.321 133.816C102.649 133.156 102.977 132.495 103.315 131.814C103.607 130.503 103.69 129.248 103.699 127.906C103.704 127.356 103.704 127.356 103.709 126.796C103.71 126.405 103.712 126.013 103.713 125.611C103.715 125.204 103.717 124.798 103.719 124.379C103.722 123.521 103.724 122.663 103.725 121.805C103.729 120.495 103.739 119.185 103.749 117.875C103.751 117.04 103.753 116.205 103.754 115.37C103.759 114.979 103.763 114.589 103.767 114.187C103.766 113.819 103.765 113.452 103.764 113.073C103.765 112.752 103.766 112.432 103.767 112.101C103.658 110.855 103.658 110.855 102.652 108.788Z" fill="#010101"/>
<path d="M55.2998 150.835C56.466 150.863 57.6316 150.9 58.7975 150.94C59.1255 150.947 59.4535 150.955 59.7915 150.962C62.1784 151.05 64.03 151.225 65.7306 153.067C66.3558 154.458 66.4079 155.405 65.8962 156.842C65.0258 157.933 64.2017 158.661 62.916 159.178C61.9898 159.243 61.9898 159.243 61.0119 159.22C60.6858 159.214 60.3597 159.208 60.0237 159.201C59.7761 159.194 59.5286 159.186 59.2735 159.178C59.2645 159.991 59.258 160.805 59.2528 161.618C59.25 161.849 59.2472 162.079 59.2444 162.316C59.2393 163.365 59.2728 164.182 59.6046 165.185C59.8232 165.295 60.0417 165.405 60.2669 165.518C60.2669 165.739 60.2669 165.959 60.2669 166.186C58.6278 166.186 56.9886 166.186 55.2998 166.186C55.2998 165.966 55.2998 165.745 55.2998 165.518C55.5184 165.518 55.7369 165.518 55.9621 165.518C55.9785 163.642 55.9905 161.765 55.9985 159.889C56.0018 159.25 56.0063 158.612 56.0121 157.974C56.0201 157.056 56.0239 156.138 56.0268 155.22C56.0302 154.935 56.0336 154.65 56.0371 154.357C56.0372 154.089 56.0372 153.822 56.0373 153.547C56.0388 153.313 56.0402 153.079 56.0417 152.837C55.9486 152.057 55.6816 151.515 55.2998 150.835Z" fill="#030304"/>
<path d="M138.312 150.481C138.641 150.484 138.97 150.487 139.309 150.49C139.686 150.496 139.686 150.496 140.071 150.502C140.071 150.722 140.071 150.942 140.071 151.169C140.47 151.283 140.47 151.283 140.878 151.398C141.727 151.836 141.727 151.836 142.058 152.65C142.058 153.505 142.058 153.505 141.685 154.131C141.064 154.506 141.064 154.506 140.216 154.444C139.409 154.172 139.409 154.172 138.746 153.505C138.746 153.175 138.746 152.844 138.746 152.504C137.872 152.504 136.998 152.504 136.097 152.504C135.988 153.495 135.879 154.486 135.766 155.507C136.635 155.46 137.505 155.411 138.374 155.361C138.621 155.348 138.868 155.335 139.123 155.322C140.468 155.268 140.468 155.268 141.727 154.84C141.735 155.136 141.743 155.432 141.752 155.738C141.783 156.84 141.816 157.942 141.85 159.044C141.864 159.52 141.878 159.997 141.891 160.473C141.91 161.159 141.931 161.845 141.953 162.531C141.965 162.943 141.977 163.356 141.99 163.781C142.029 164.906 142.029 164.906 142.389 166.186C141.077 166.186 139.766 166.186 138.415 166.186C138.415 165.966 138.415 165.745 138.415 165.518C138.634 165.518 138.852 165.518 139.077 165.518C139.077 162.545 139.077 159.572 139.077 156.508C138.968 156.839 138.859 157.169 138.746 157.509C137.763 157.399 136.779 157.289 135.766 157.176C135.803 158.365 135.846 159.554 135.89 160.742C135.9 161.078 135.911 161.415 135.921 161.761C135.934 162.087 135.947 162.413 135.96 162.748C135.97 163.047 135.981 163.346 135.992 163.654C136.08 164.68 136.08 164.68 136.759 166.186C135.339 166.186 133.918 166.186 132.455 166.186C132.455 165.966 132.455 165.745 132.455 165.518C132.673 165.518 132.892 165.518 133.117 165.518C133.226 162.765 133.336 160.012 133.448 157.176C133.12 157.176 132.792 157.176 132.455 157.176C132.598 156.866 132.598 156.866 132.744 156.55C133.081 155.609 133.235 154.8 133.386 153.818C133.613 152.599 133.71 152.243 134.586 151.315C135.89 150.578 136.84 150.463 138.312 150.481Z" fill="black"/>
<path d="M72.7466 168.459C73.1362 168.46 73.1362 168.46 73.5337 168.46C75.4527 168.475 75.4527 168.475 75.8303 168.856C75.8771 169.747 75.8444 170.632 75.8303 171.525C75.6182 171.449 75.406 171.373 75.1874 171.294C73.3663 170.685 72.071 170.347 70.201 170.858C69.4501 171.461 69.4501 171.461 69.518 172.318C70.0361 173.608 71.0105 173.934 72.1878 174.529C72.8816 174.897 73.5712 175.273 74.2574 175.655C74.762 175.927 74.762 175.927 75.2767 176.205C76.3352 176.994 76.6975 177.631 77.1549 178.867C77.3156 180.408 77.0486 181.561 76.1408 182.809C73.8717 184.511 72.0698 185.229 69.2076 184.873C68.1869 184.712 67.3707 184.535 66.5585 183.872C66.1417 182.885 65.9848 181.934 65.8962 180.869C66.224 180.869 66.5519 180.869 66.8896 180.869C66.8896 181.089 66.8896 181.309 66.8896 181.536C68.9272 182.134 71.243 182.78 73.2692 181.865C73.4587 181.756 73.6482 181.648 73.8435 181.536C73.8435 180.766 73.8435 179.995 73.8435 179.2C73.4802 179.003 73.117 178.806 72.7427 178.602C72.261 178.336 71.7794 178.07 71.2979 177.803C71.0591 177.674 70.8202 177.544 70.5742 177.411C69.1409 176.613 67.9237 175.841 66.8896 174.529C66.5865 173.278 66.6523 172.12 66.8896 170.858C68.5214 168.619 70.1715 168.418 72.7466 168.459Z" fill="#010001"/>
<path d="M100.003 151.169C100.003 152.16 100.003 153.151 100.003 154.172C98.0993 153.547 98.0993 153.547 97.3542 153.171C95.7244 152.991 94.409 153.004 92.9045 153.693C91.5655 154.976 91.0235 156.333 90.9384 158.177C91.0113 159.899 91.6003 161.281 92.6769 162.619C94.3307 163.943 95.9706 164.073 98.0165 163.85C99.1429 163.576 100.235 163.235 101.328 162.849C101.149 163.338 100.961 163.824 100.769 164.309C100.665 164.58 100.562 164.851 100.455 165.13C99.8598 166.082 99.417 166.231 98.3476 166.52C95.645 166.827 93.0786 166.656 90.7315 165.185C88.9599 163.552 87.8719 161.858 87.6969 159.423C87.6126 156.904 88.0662 155.16 89.4897 153.088C92.3897 150.165 96.2284 149.816 100.003 151.169Z" fill="black"/>
<path d="M53.6442 151.169C53.6442 152.16 53.6442 153.151 53.6442 154.172C53.2685 154.007 52.8929 153.842 52.5059 153.672C50.772 153.027 49.1305 152.806 47.3461 153.39C46.2221 153.944 45.6925 154.514 45.0553 155.591C44.3879 157.964 44.5129 159.632 45.6969 161.848C46.7209 163.12 47.7114 163.742 49.3407 163.924C51.269 164.002 52.855 163.562 54.6376 162.849C54.5317 164.022 54.4315 164.696 53.6855 165.623C51.9903 166.979 49.7358 166.684 47.6837 166.52C45.2951 165.975 43.709 164.922 42.3855 162.849C41.2662 160.894 41.1123 159.048 41.3921 156.842C42.0655 154.587 43.1636 152.649 45.2002 151.419C47.8869 150.066 50.8422 150.165 53.6442 151.169Z" fill="black"/>
<path d="M70.201 152.838C75.1789 152.838 75.1789 152.838 76.8237 154.172C78.2336 155.877 78.3551 157.383 78.2763 159.576C78.0408 161.299 77.2157 162.159 75.9752 163.287C73.9991 164.665 73.0163 164.184 70.201 164.184C70.201 160.439 70.201 156.695 70.201 152.838Z" fill="#DFD3E7"/>
<path d="M100.334 172.86C100.466 173.218 100.598 173.577 100.734 173.946C100.911 174.425 101.089 174.904 101.266 175.384C101.352 175.619 101.439 175.854 101.528 176.096C102.083 177.596 102.678 179.069 103.315 180.535C103.713 179.627 104.105 178.716 104.494 177.803C104.664 177.418 104.664 177.418 104.838 177.025C104.943 176.775 105.049 176.524 105.158 176.266C105.257 176.037 105.356 175.808 105.457 175.572C105.724 174.707 105.724 174.707 105.301 173.194C107.378 173.084 109.454 172.973 111.593 172.86C111.613 173.595 111.633 174.33 111.654 175.088C111.674 175.8 111.695 176.512 111.716 177.225C111.731 177.72 111.745 178.215 111.758 178.71C111.777 179.421 111.798 180.133 111.819 180.844C111.838 181.486 111.838 181.486 111.856 182.142C111.88 183.212 111.88 183.212 112.255 184.206C111.053 184.206 109.851 184.206 108.613 184.206C108.722 183.876 108.831 183.545 108.944 183.205C108.972 182.491 108.98 181.777 108.976 181.063C108.975 180.645 108.974 180.227 108.973 179.795C108.97 179.358 108.968 178.921 108.965 178.47C108.963 178.025 108.962 177.579 108.96 177.134C108.956 176.043 108.951 174.952 108.944 173.861C108.725 173.861 108.507 173.861 108.282 173.861C108.249 174.081 108.217 174.3 108.183 174.526C107.881 175.829 107.389 177.01 106.874 178.241C106.771 178.49 106.668 178.74 106.562 178.997C105.74 180.974 104.88 182.932 103.977 184.873C102.399 184.335 101.896 183.799 101.081 182.385C100.423 181.042 99.9192 179.647 99.4057 178.242C98.915 176.948 98.3263 175.754 97.6853 174.529C97.4636 174.084 97.2427 173.639 97.0231 173.194C99.2168 172.86 99.2168 172.86 100.334 172.86Z" fill="black"/>
<path d="M122.521 152.17C122.958 152.17 123.395 152.17 123.845 152.17C123.845 153.271 123.845 154.373 123.845 155.507C125.32 155.342 125.32 155.342 126.825 155.174C126.825 156.055 126.825 156.936 126.825 157.843C125.35 157.513 125.35 157.513 123.845 157.176C123.883 158.219 123.925 159.261 123.969 160.304C123.98 160.601 123.99 160.898 124 161.204C124.02 161.63 124.02 161.63 124.039 162.064C124.05 162.326 124.06 162.588 124.071 162.858C124.123 163.593 124.123 163.593 124.839 164.184C125.86 164.239 125.86 164.239 126.825 164.184C126.47 165.156 126.237 165.778 125.501 166.52C123.208 166.482 123.208 166.482 122.109 165.568C121.233 163.987 121.386 162.519 121.444 160.742C121.45 160.4 121.456 160.057 121.463 159.704C121.478 158.861 121.5 158.019 121.527 157.176C120.823 157.243 120.119 157.321 119.416 157.405C119.024 157.448 118.632 157.49 118.229 157.534C117.185 157.737 117.185 157.737 116.759 158.548C116.516 159.725 116.473 160.813 116.477 162.015C116.476 162.445 116.474 162.875 116.472 163.318C116.508 164.63 116.508 164.63 117.222 166.186C115.911 166.186 114.6 166.186 113.249 166.186C113.358 165.855 113.467 165.525 113.58 165.185C113.611 164.504 113.623 163.821 113.624 163.139C113.624 162.739 113.625 162.339 113.625 161.927C113.624 161.508 113.623 161.09 113.621 160.659C113.623 160.029 113.623 160.029 113.625 159.387C113.625 158.987 113.624 158.588 113.624 158.176C113.624 157.808 113.623 157.44 113.623 157.062C113.64 156.183 113.64 156.183 113.249 155.507C114.724 155.342 114.724 155.342 116.229 155.174C116.338 155.394 116.448 155.614 116.56 155.841C116.919 155.676 116.919 155.676 117.284 155.507C118.221 155.172 118.888 155.117 119.871 155.174C119.981 155.394 120.09 155.614 120.203 155.841C121.249 155.384 121.525 155.177 122.189 154.172C122.319 153.508 122.432 152.841 122.521 152.17Z" fill="black"/>
<path d="M83.7155 172.777C84.0591 172.768 84.4027 172.759 84.7568 172.75C85.9078 172.876 86.4985 173.166 87.4201 173.861C88.6237 175.613 88.7542 176.264 89.0758 178.533C86.3439 178.533 83.612 178.533 80.7974 178.533C81.3437 179.634 81.8901 180.735 82.4531 181.87C84.5264 182.567 86.7394 182.387 88.7446 181.536C88.5357 182.519 88.3265 183.378 87.7512 184.206C85.9668 185.083 83.9162 185.252 82.0275 184.621C80.7028 184.005 80.0496 183.594 79.4728 182.204C79.2543 182.204 79.0357 182.204 78.8105 182.204C77.9345 180.052 77.8622 178.159 78.5208 175.947C79.7526 173.795 81.2581 172.813 83.7155 172.777ZM81.4596 175.53C81.3504 175.97 81.2411 176.411 81.1285 176.864C82.7676 176.864 84.4068 176.864 86.0956 176.864C85.6314 175.243 85.6314 175.243 84.7917 174.758C83.375 174.282 82.6152 174.672 81.4596 175.53Z" fill="black"/>
<path d="M129.95 172.797C130.264 172.793 130.578 172.788 130.901 172.783C131.807 172.861 132.344 173.061 133.117 173.527C133.117 173.748 133.117 173.968 133.117 174.195C133.445 174.305 133.773 174.415 134.11 174.529C134.91 175.97 134.773 176.748 134.773 178.533C132.259 178.643 129.746 178.753 127.157 178.867C127.922 181.043 127.922 181.043 129.474 182.204C131.311 182.488 133.061 182.263 134.773 181.536C134.591 182.663 134.423 183.232 133.779 184.206C132.175 184.955 130.551 185.127 128.812 184.873C127.856 184.506 127.053 184.06 126.163 183.539C126.163 183.318 126.163 183.098 126.163 182.871C125.835 182.761 125.507 182.651 125.17 182.537C124.168 180.67 124.343 178.591 124.507 176.531C125.037 174.929 125.774 174.134 127.157 173.194C128.167 172.854 128.892 172.805 129.95 172.797ZM127.488 175.53C127.378 175.97 127.269 176.411 127.157 176.864C128.796 176.864 130.435 176.864 132.124 176.864C131.996 175.24 131.996 175.24 131.192 174.758C129.645 174.268 128.73 174.582 127.488 175.53Z" fill="black"/>
<path d="M110.839 156.261C112.131 157.65 112.003 158.477 112.255 160.513C109.633 160.623 107.01 160.733 104.308 160.847C105.031 163.111 105.031 163.111 106.212 163.829C108.363 164.538 110.145 164.113 112.255 163.516C111.498 165.687 111.498 165.687 110.579 166.332C107.927 166.844 105.623 166.69 103.315 165.185C101.92 163.87 101.272 162.718 101.204 160.805C101.226 158.884 101.636 157.559 102.984 156.175C105.449 154.551 108.435 154.492 110.839 156.261ZM104.308 158.177C104.308 158.397 104.308 158.617 104.308 158.844C106.056 158.844 107.805 158.844 109.606 158.844C109.357 157.751 109.357 157.751 108.282 157.176C106.07 156.966 106.07 156.966 104.308 158.177Z" fill="black"/>
<path d="M33.0723 156.091C34.4154 157.524 34.7694 158.538 34.7694 160.513C32.0375 160.513 29.3056 160.513 26.4909 160.513C27.5362 162.971 27.5362 162.971 28.4778 163.85C30.664 164.366 32.6386 164.144 34.7694 163.516C34.0116 165.687 34.0116 165.687 33.093 166.332C30.4045 166.851 28.1904 166.64 25.8287 165.185C24.5678 164.099 23.9261 163.39 23.7629 161.696C23.7061 159.539 23.7923 158.205 25.1664 156.508C27.7839 154.741 30.3134 154.399 33.0723 156.091ZM26.8221 158.177C26.8221 158.397 26.8221 158.617 26.8221 158.844C28.4612 158.844 30.1003 158.844 31.7891 158.844C31.2665 157.615 31.2665 157.615 30.7957 157.176C28.5858 156.979 28.5858 156.979 26.8221 158.177Z" fill="black"/>
<path d="M186.862 156.095C187.861 156.83 188.262 157.347 188.748 158.511C189.009 160.451 189.17 162.484 188.106 164.204C186.874 165.615 185.234 166.313 183.424 166.646C181.713 166.751 180.176 166.208 178.814 165.185C178.705 164.854 178.595 164.524 178.483 164.184C178.264 164.184 178.046 164.184 177.82 164.184C176.971 162.579 176.975 160.949 177.158 159.178C177.802 157.426 178.656 156.235 180.345 155.424C182.666 154.904 184.768 154.852 186.862 156.095ZM180.47 157.801C179.54 159.265 179.464 160.489 179.807 162.181C180.371 163.221 181.058 163.98 182.125 164.517C183.489 164.705 184.024 164.573 185.209 163.829C186.28 162.65 186.457 162.101 186.43 160.513C186.057 159.326 185.689 158.469 184.878 157.53C183.235 156.77 181.951 156.868 180.47 157.801Z" fill="black"/>
<path d="M192.722 155.174C192.831 155.504 192.94 155.834 193.053 156.175C193.271 156.009 193.49 155.844 193.715 155.674C194.955 155.049 196.008 154.977 197.357 155.174C199.125 155.833 199.125 155.833 199.721 156.761C200.067 157.668 200.113 158.421 200.144 159.392C200.157 159.749 200.169 160.106 200.183 160.474C200.193 160.845 200.203 161.215 200.214 161.597C200.226 161.973 200.239 162.349 200.252 162.737C200.284 163.664 200.312 164.591 200.338 165.518C200.556 165.518 200.775 165.518 201 165.518C201 165.739 201 165.959 201 166.186C199.579 166.186 198.159 166.186 196.695 166.186C196.695 165.966 196.695 165.745 196.695 165.518C196.914 165.408 197.132 165.298 197.357 165.185C197.357 162.762 197.357 160.339 197.357 157.843C196.447 157.537 195.914 157.473 194.977 157.489C194.561 157.496 194.144 157.502 193.715 157.509C193.145 159.004 192.963 160.25 192.97 161.848C192.968 162.24 192.967 162.632 192.965 163.037C193.053 164.19 193.305 165.11 193.715 166.186C192.404 166.186 191.092 166.186 189.741 166.186C189.851 165.855 189.96 165.525 190.072 165.185C190.104 164.504 190.116 163.821 190.116 163.139C190.117 162.739 190.117 162.339 190.118 161.927C190.116 161.508 190.115 161.09 190.114 160.659C190.116 160.029 190.116 160.029 190.118 159.387C190.117 158.987 190.117 158.588 190.116 158.176C190.116 157.808 190.116 157.44 190.115 157.062C190.132 156.183 190.132 156.183 189.741 155.507C191.977 155.174 191.977 155.174 192.722 155.174Z" fill="black"/>
<path d="M119.727 172.818C120.11 172.817 120.492 172.817 120.887 172.816C121.858 172.86 121.858 172.86 122.521 173.194C122.521 174.075 122.521 174.956 122.521 175.863C121.802 175.694 121.196 175.53 120.534 175.196C119.093 175.032 118.448 175.023 117.264 175.905C116.468 176.99 116.229 177.522 116.229 178.867C116.621 180.162 116.944 180.961 117.967 181.849C119.914 182.607 121.612 182.162 123.514 181.536C123.306 182.516 123.075 183.368 122.521 184.206C121.175 185.003 119.737 185.095 118.216 184.873C116.355 184.303 114.933 183.6 113.911 181.87C113.052 180.098 113.159 178.416 113.58 176.531C114.99 173.79 116.742 172.812 119.727 172.818Z" fill="black"/>
<path d="M167.224 152.17C167.552 152.17 167.88 152.17 168.217 152.17C168.217 153.271 168.217 154.373 168.217 155.507C169.31 155.397 170.403 155.287 171.529 155.174C171.529 156.055 171.529 156.936 171.529 157.843C170.436 157.623 169.343 157.403 168.217 157.176C168.264 158.038 168.313 158.9 168.362 159.762C168.375 160.005 168.388 160.249 168.402 160.5C168.47 161.657 168.577 162.733 168.88 163.85C169.645 163.96 170.41 164.07 171.198 164.184C171.198 165.185 171.198 165.185 170.825 165.915C170.204 166.52 170.204 166.52 169.252 166.666C168.075 166.499 167.475 166.286 166.562 165.518C165.773 163.763 165.821 162.106 165.858 160.221C165.861 159.927 165.864 159.634 165.867 159.332C165.875 158.613 165.887 157.894 165.9 157.176C165.462 157.176 165.025 157.176 164.575 157.176C164.678 156.529 164.678 156.529 164.906 155.841C165.234 155.731 165.562 155.621 165.9 155.507C166.675 154.425 167.037 153.488 167.224 152.17Z" fill="black"/>
<path d="M93.0494 172.86C93.1587 173.19 93.268 173.521 93.3806 173.861C93.7391 173.603 93.7391 173.603 94.1049 173.34C95.1752 172.788 95.5714 172.839 96.6919 173.194C96.6919 173.965 96.6919 174.735 96.6919 175.53C96.3846 175.509 96.0773 175.488 95.7606 175.467C94.734 175.433 94.734 175.433 94.1492 175.934C93.5786 176.712 93.5926 177.176 93.603 178.138C93.6047 178.448 93.6065 178.758 93.6082 179.077C93.615 179.4 93.6219 179.723 93.6289 180.056C93.6306 180.38 93.6323 180.704 93.6341 181.038C93.5911 182.676 93.5911 182.676 94.0428 184.206C92.7315 184.206 91.4202 184.206 90.0692 184.206C90.1785 183.986 90.2877 183.766 90.4003 183.539C90.4326 182.848 90.4436 182.156 90.4443 181.465C90.4447 181.05 90.4452 180.635 90.4456 180.207C90.4443 179.772 90.443 179.336 90.4417 178.888C90.443 178.453 90.4443 178.019 90.4456 177.572C90.4452 177.156 90.4447 176.741 90.4443 176.313C90.4439 175.931 90.4436 175.549 90.4432 175.156C90.4428 174.171 90.4428 174.171 90.0692 173.194C92.3044 172.86 92.3044 172.86 93.0494 172.86Z" fill="black"/>
<path d="M130.137 154.84C130.246 154.84 130.355 154.84 130.468 154.84C130.577 158.364 130.686 161.888 130.799 165.518C131.018 165.518 131.236 165.518 131.461 165.518C131.461 165.739 131.461 165.959 131.461 166.186C130.041 166.186 128.62 166.186 127.157 166.186C127.157 165.966 127.157 165.745 127.157 165.518C127.375 165.408 127.594 165.298 127.819 165.185C127.928 162.211 128.037 159.238 128.15 156.175C127.822 156.065 127.494 155.954 127.157 155.841C127.157 155.731 127.157 155.621 127.157 155.507C127.836 155.431 128.515 155.355 129.194 155.279C129.809 155.234 129.809 155.234 130.137 154.84Z" fill="black"/>
<path d="M174.84 154.84C174.949 154.84 175.059 154.84 175.171 154.84C175.281 158.364 175.39 161.888 175.502 165.518C175.721 165.629 175.94 165.739 176.165 165.852C175.834 166.186 175.834 166.186 174.932 166.218C174.567 166.215 174.202 166.211 173.826 166.207C173.46 166.204 173.094 166.201 172.718 166.198C172.293 166.192 172.293 166.192 171.86 166.186C171.86 165.966 171.86 165.745 171.86 165.518C172.079 165.408 172.297 165.298 172.522 165.185C172.541 163.76 172.553 162.334 172.564 160.909C172.569 160.504 172.575 160.098 172.58 159.681C172.583 159.292 172.585 158.904 172.587 158.504C172.59 158.146 172.594 157.788 172.597 157.418C172.59 156.435 172.59 156.435 171.86 155.507C172.539 155.431 173.218 155.355 173.897 155.279C174.513 155.234 174.513 155.234 174.84 154.84Z" fill="black"/>
<path d="M58.9423 152.838C60.4418 152.719 61.5745 152.659 62.9367 153.359C63.5783 154.172 63.5783 154.172 63.7852 155.299C63.5211 156.843 63.0782 157.47 61.9226 158.511C60.6601 158.803 60.6601 158.803 59.6046 158.844C58.8179 157.608 58.8745 156.532 58.901 155.09C58.9069 154.669 58.9129 154.247 58.9191 153.813C58.9267 153.491 58.9344 153.169 58.9423 152.838Z" fill="#DED2E6"/>
<path d="M174.406 151.294C174.658 151.363 174.911 151.432 175.171 151.503C175.611 153.316 175.611 153.316 175.13 154.152C174.509 154.506 174.509 154.506 173.661 154.444C172.853 154.172 172.853 154.172 172.191 153.505C172.253 152.671 172.253 152.671 172.522 151.836C173.516 151.169 173.516 151.169 174.406 151.294Z" fill="black"/>
<path d="M128.812 151.169C129.468 151.389 130.123 151.61 130.799 151.836C130.861 152.796 130.861 152.796 130.799 153.839C129.806 154.506 129.806 154.506 128.957 154.485C128.15 154.172 128.15 154.172 127.715 153.317C127.64 153.049 127.565 152.78 127.488 152.504C127.925 152.063 128.362 151.623 128.812 151.169Z" fill="black"/>
<path d="M109.937 168.856C111.496 169.339 111.496 169.339 111.924 170.149C111.924 171.106 111.55 171.493 110.931 172.193C110.144 172.13 110.144 172.13 109.275 171.859C108.841 171.004 108.841 171.004 108.613 170.19C109.05 169.75 109.487 169.309 109.937 168.856Z" fill="black"/>
</svg>
