<svg width="192" height="121" viewBox="0 0 192 121" fill="none" xmlns="http://www.w3.org/2000/svg">
<g clip-path="url(#clip0_4118_60253)">
<path fill-rule="evenodd" clip-rule="evenodd" d="M146.6 0L149.3 4.6C138.5 14.1 126.5 29.5 113.4 50C100.5 70.3 90.2999 89.8 83.1999 107.2L77.6999 112.4C73.5999 115.9 70.2 119.2 68.3 120.9C67.9 118 66.4999 113.6 64.1999 106.8L61.7999 100.6C59.0999 91.9 56.2999 85.7 53.5999 81.7C51.1999 77.8 48.5 74.9 45.2 73.2C50.3 66.3 55.3999 63 60.0999 63C63.7999 63 67.8999 69.8 72.6999 82.3L75.0999 88.5C83.8999 71.5 94.4999 53.9 107.7 37.9C120.9 21.6 134 8.5 146.6 0Z" fill="#D1C8E2"/>
<path fill-rule="evenodd" clip-rule="evenodd" d="M79.9 68.4001C78.1 69.4001 76.1999 70.2001 74.1999 70.6001C72.3999 71.2001 70.5 71.4001 68.5 71.4001C65.4 71.4001 62 70.6001 58.7 68.6001C55.4 66.8001 51.9999 64.3001 49.0999 61.0001C50.5999 62.2001 52.3999 63.0001 54.5999 63.3001C56.6999 63.9001 58.9 64.3001 61.2 64.3001C63.2 64.3001 65.1 63.9001 66.9 63.5001C68.9 63.1001 70.8 62.5001 72.4 61.6001L71.1999 58.3001L78.6999 64.9001L79.9 68.4001ZM53.4 59.6001C49.7 58.1001 46.7 55.7001 44.9 53.0001C42.9 50.2001 42.2 46.9001 42.2 43.2001C42.2 38.1001 44 33.6001 47.7 29.8001C51.4 26.1001 55.9 24.1001 61 24.1001C62.6 24.1001 63.7999 24.3001 65.0999 24.5001C66.2999 24.9001 67.5 25.3001 68.4 25.9001L69.5999 22.6001L78.1999 30.7001L76.6999 34.0001C75.2999 33.0001 73.8999 32.4001 72.5999 32.0001C71.2999 31.6001 69.9 31.4001 68.5 31.4001C63.4 31.4001 59.0999 33.2001 55.5999 36.7001C52.0999 40.2001 50.2999 44.5001 50.2999 49.6001C50.2999 51.6001 50.4999 53.3001 51.0999 55.1001C51.5999 56.9001 52.4 58.4001 53.4 59.6001ZM86.1999 42.9001V25.1001H90.5C93.5 25.1001 95.7999 25.7001 97.1999 26.9001C98.6999 28.1001 99.6999 30.0001 100.1 32.6001C99.4999 32.4001 98.8999 32.2001 98.0999 32.0001C97.2999 32.0001 96.3 31.8001 95.4 31.8001V41.8001C94.6 42.2001 93.6 42.6001 92.4 42.8001C91.2 43.0001 89.9 43.0001 88.3 43.0001C87.9 42.9001 87.0999 42.9001 86.1999 42.9001ZM86.1999 63.3001V46.1001H88.1999C93.0999 46.1001 96.9999 45.1001 99.5999 43.0001C102.1 40.8001 103.5 37.7001 103.5 33.8001C103.5 32.6001 103.3 31.5001 102.9 30.5001C102.5 29.3001 101.9 28.1001 101.1 27.0001C104.4 29.5001 106.8 32.1001 108.4 34.3001C110 36.6001 110.7 39.0001 110.7 41.1001C110.7 45.2001 109.3 48.4001 106.8 50.7001C104 53.0001 100.7 54.4001 96.1999 54.4001H95.4V71.4001H90.9L82.6999 63.4001H86.1999V63.3001ZM123.1 71.3001L115.5 63.3001H119.8C123.7 63.3001 126.9 63.1001 129.4 62.7001C131.9 62.1001 134.1 61.3001 136.1 60.2001C138.8 58.6001 141.2 56.3001 142.7 53.3001C144.3 50.3001 145.1 47.0001 145.1 43.5001C145.1 41.1001 144.7 38.8001 143.9 36.4001C143.1 34.2001 142.1 32.1001 140.6 30.3001C144.5 33.4001 147.5 36.8001 149.4 40.1001C151.4 43.6001 152.1 47.4001 152.1 51.5001C152.1 57.2001 150.1 62.1001 146 65.6001C141.9 69.3001 136.4 71.3001 129.9 71.3001H123.1ZM118.5 60.4001V25.1001H124.8C128.3 25.1001 131.3 25.9001 133.6 27.4001C136 29.0001 138.1 31.7001 139.9 35.2001C138.3 34.6001 136.9 34.0001 135.6 33.9001C134.3 33.5001 133.1 33.3001 131.9 33.3001H128.2V59.8001C127.2 60.0001 126 60.2001 124.9 60.2001C123.5 60.4001 122.1 60.4001 120.8 60.4001H118.5Z" fill="#5D6BEF"/>
<path d="M3.5 98.3999H191.4V100.4H3.5V98.3999Z" fill="#5D6BEF"/>
<path fill-rule="evenodd" clip-rule="evenodd" d="M96.1 81.9001C95.7 81.9001 95.4 82.0001 95 82.1001C94.5 82.3001 94.1 82.5001 93.8 82.9001C93.5 83.3001 93.3 83.7001 93.3 84.2001V85.2001L92.6 86.2001H93.3V91.2001C93.3 91.4001 93.3 91.7001 93.2 91.8001C93.1 92.0001 93 92.1001 92.7 92.2001V92.3001H95.4C95.2 92.2001 95.1 92.0001 95 91.9001C94.9 91.7001 94.8 91.5001 94.8 91.3001V86.3001H96.1V85.3001H94.8V84.2001C94.8 83.8001 94.9 83.5001 95 83.3001C95.2 83.1001 95.4 83.0001 95.8 83.0001H96.1V81.9001ZM89.7 91.1001V86.5001C89.7 86.2001 89.7 85.9001 89.6 85.7001C89.5 85.5001 89.4 85.3001 89.1 85.2001V85.1001H89.9C90.2 85.1001 90.5 85.1001 90.6 85.0001C90.8 85.0001 90.9 84.9001 91 84.8001H91.1V90.6001C91.1 91.0001 91.1 91.4001 91.2 91.6001C91.3 91.8001 91.4 92.0001 91.7 92.1001V92.2001H89.1V92.1001C89.3 92.0001 89.5 91.8001 89.6 91.6001C89.7 91.6001 89.7 91.4001 89.7 91.1001ZM90.4 82.4001C90.7 82.4001 90.9 82.5001 91.1 82.7001C91.3 82.9001 91.4 83.1001 91.4 83.4001C91.4 83.7001 91.3 83.9001 91.1 84.1001C90.9 84.3001 90.7 84.4001 90.4 84.4001C90.1 84.4001 89.9 84.3001 89.7 84.1001C89.5 83.9001 89.4 83.7001 89.4 83.4001C89.4 83.2001 89.4 83.1001 89.5 82.9001L89.8 82.5001C90 82.4001 90.2 82.4001 90.4 82.4001ZM85 90.1001V86.3001H84V85.7001C85.2 85.5001 85.8 84.6001 85.8 83.0001H86.4V85.3001H87.5C88 85.3001 88.3 85.3001 88.4 85.2001V86.6001C88.2 86.4001 87.9 86.3001 87.5 86.3001H86.3V89.5001C86.3 89.9001 86.3 90.3001 86.4 90.6001C86.5 90.9001 86.6 91.2001 86.9 91.4001C87.1 91.5001 87.3 91.6001 87.7 91.6001C88 91.6001 88.3 91.5001 88.4 91.4001L87.6 92.5001H87C86.3 92.5001 85.8 92.3001 85.5 91.8001C85.2 91.4001 85 90.8001 85 90.1001ZM79.9 91.1001V86.7001C79.9 86.3001 79.9 86.0001 79.8 85.8001C79.7 85.6001 79.6 85.5001 79.3 85.3001V85.2001H80.9L81.2 85.1001H81.3V86.3001C81.5 85.8001 81.8 85.5001 82.2 85.4001C82.6 85.3001 83.1 85.2001 83.7 85.2001V86.7001C83.6 86.5001 83.3 86.4001 82.9 86.4001C82.7 86.4001 82.5 86.4001 82.3 86.5001C81.7 86.7001 81.3 87.4001 81.3 88.5001V91.3001C81.3 91.6001 81.3 91.9001 81.4 92.1001C81.5 92.3001 81.6 92.4001 81.9 92.6001V92.7001H79.3V92.6001C79.6 92.5001 79.7 92.3001 79.8 92.1001C79.9 91.6001 79.9 91.4001 79.9 91.1001ZM72.8 87.6001H76.8C76.8 87.1001 76.5 86.7001 76.2 86.4001C75.8 86.1001 75.4 86.0001 74.9 86.0001C74.6 86.0001 74.3 86.1001 74 86.2001C73.7 86.3001 73.4 86.5001 73.2 86.8001C73 87.0001 72.9 87.3001 72.8 87.6001ZM71.1 88.7001C71.1 88.1001 71.2 87.5001 71.5 86.9001C71.8 86.3001 72.2 85.9001 72.8 85.5001C73.4 85.1001 74.1 85.0001 75 84.9001C75.6 84.9001 76.2 85.0001 76.7 85.3001C77.2 85.6001 77.6 86.0001 78 86.5001C78.3 87.0001 78.5 87.7001 78.5 88.4001H72.8C72.8 88.8001 72.9 89.3001 73.1 89.7001C73.3 90.1001 73.6 90.5001 74 90.8001C74.4 91.1001 74.9 91.3001 75.6 91.3001H76C76.4 91.3001 76.9 91.2001 77.3 91.1001C77.8 91.0001 78.2 90.8001 78.5 90.5001L77.7 91.9001C77 92.2001 76.3 92.3001 75.6 92.3001C74.8 92.3001 74.1 92.2001 73.4 91.9001C72.7 91.6001 72.2 91.2001 71.8 90.6001C71.3 90.2001 71.1 89.5001 71.1 88.7001ZM61.7001 87.7001V87.3001C61.7001 86.5001 61.8 85.8001 62.1 85.1001C62.3 84.4001 62.7001 83.9001 63.2001 83.4001C63.7001 82.9001 64.3 82.5001 64.9 82.3001C65.6 82.0001 66.3 81.9001 67.2 81.9001C68 81.9001 69 82.0001 70 82.3001V84.1001C69.1 83.5001 68.1 83.2001 67 83.2001C66.3 83.2001 65.6 83.4001 65.1 83.8001C64.6 84.2001 64.2001 84.6001 63.9001 85.2001C63.6001 85.8001 63.5 86.4001 63.5 87.1001C63.5 87.6001 63.6 88.2001 63.8 88.7001C64 89.2001 64.3 89.7001 64.6 90.1001C64.9 90.5001 65.4 90.8001 65.9 91.1001C66.4 91.3001 67 91.5001 67.6 91.5001C68.6 91.5001 69.7 91.1001 70.8 90.5001L70 92.1001C69.2 92.4001 68.3 92.6001 67.4 92.6001C66.5 92.6001 65.6 92.4001 64.7 92.1001C63.9 91.8001 63.2 91.2001 62.6 90.5001C62.1 89.7001 61.8001 88.8001 61.7001 87.7001ZM49.4001 91.1001C49.6001 91.1001 50 91.2001 50.5 91.2001C51.2 91.2001 51.9 91.1001 52.6 90.8001C53.3 90.6001 53.8001 90.2001 54.2001 89.6001C54.6001 89.1001 54.9001 88.4001 54.9001 87.6001V87.2001C54.9001 86.2001 54.7 85.3001 54.3 84.8001C53.9 84.2001 53.4 83.8001 52.8 83.6001C52.2 83.4001 51.5 83.3001 50.8 83.3001C50.4 83.3001 49.9001 83.4001 49.4001 83.5001V91.1001ZM47.8 90.8001V83.7001C47.8 82.9001 47.6 82.4001 47.1 82.3001H50.9001C52.1001 82.3001 53.2 82.5001 54 83.0001C54.9 83.4001 55.5001 84.1001 55.9001 84.8001C56.3001 85.6001 56.5 86.5001 56.5 87.5001C56.5 88.4001 56.2 89.2001 55.8 89.9001C55.4 90.7001 54.7 91.3001 53.8 91.8001C52.9 92.3001 51.8 92.5001 50.5 92.5001H46.9001V92.4001C47.6001 92.0001 47.8 91.5001 47.8 90.8001ZM39.9001 90.8001V83.8001C39.9001 82.9001 39.7001 82.4001 39.2001 82.2001H43C43.5 82.2001 43.9 82.3001 44.3 82.4001C44.7 82.5001 45.1001 82.7001 45.4001 82.9001C45.7001 83.1001 46.0001 83.4001 46.2001 83.7001C46.4001 84.0001 46.5 84.4001 46.5 84.9001C46.5 85.5001 46.3 86.0001 46 86.4001C45.7 86.8001 45.3001 87.2001 44.9001 87.4001C44.5001 87.6001 44.0001 87.8001 43.7001 87.8001C43.6001 87.8001 43.4 87.8001 43.1 87.9001C42.7 87.9001 42.3 87.8001 42 87.6001C42.4 87.6001 42.9 87.5001 43.3 87.3001C43.7 87.1001 44.1001 86.8001 44.4001 86.5001C44.7001 86.1001 44.8 85.7001 44.8 85.2001C44.8 84.5001 44.6001 84.1001 44.2001 83.8001C43.8001 83.5001 43.3 83.4001 42.6 83.4001C42.2 83.4001 41.9 83.4001 41.5 83.5001V90.9001C41.5 91.3001 41.6001 91.6001 41.7001 91.8001C41.8001 92.0001 42 92.2001 42.3 92.4001V92.5001H39.2001V92.4001C39.7001 92.1001 39.9001 91.6001 39.9001 90.8001ZM29.5 87.7001V87.3001C29.5 86.5001 29.6 85.8001 29.9 85.1001C30.2 84.4001 30.5 83.9001 31 83.4001C31.5 82.9001 32.1001 82.5001 32.7001 82.3001C33.4001 82.0001 34.1 81.9001 35 81.9001C35.8 81.9001 36.8 82.0001 37.8 82.3001V84.1001C36.9 83.5001 35.9 83.2001 34.8 83.2001C34.1 83.2001 33.4001 83.4001 32.9001 83.8001C32.4001 84.2001 32.0001 84.6001 31.7001 85.2001C31.4001 85.8001 31.3 86.4001 31.3 87.1001C31.3 87.6001 31.4 88.2001 31.6 88.7001C31.8 89.2001 32.1001 89.7001 32.4001 90.1001C32.8001 90.5001 33.2001 90.8001 33.7001 91.1001C34.2001 91.3001 34.8001 91.5001 35.4001 91.5001C36.4001 91.5001 37.5 91.1001 38.6 90.5001L37.8 92.3001C37 92.6001 36.1001 92.8001 35.2001 92.8001C34.3001 92.8001 33.4 92.6001 32.5 92.3001C31.7 92.0001 31 91.4001 30.4 90.7001C29.9 89.7001 29.6 88.8001 29.5 87.7001ZM19 87.6001H23C22.9 87.1001 22.7 86.7001 22.4 86.4001C22 86.2001 21.5 86.0001 21 86.0001C20.7 86.0001 20.4 86.1001 20.1 86.2001C19.8 86.3001 19.5 86.5001 19.3 86.8001C19.1 87.0001 19 87.3001 19 87.6001ZM17.2001 88.7001C17.2001 88.1001 17.3 87.5001 17.6 86.9001C17.9 86.3001 18.3 85.9001 18.9 85.5001C19.5 85.1001 20.2 85.0001 21.1 84.9001C21.7 84.9001 22.3 85.0001 22.8 85.3001C23.3 85.6001 23.7 86.0001 24.1 86.5001C24.4 87.0001 24.6 87.7001 24.6 88.4001H18.9C18.9 88.8001 19.0001 89.3001 19.2001 89.7001C19.4001 90.1001 19.7 90.5001 20.1 90.8001C20.5 91.1001 21.0001 91.3001 21.7001 91.3001H22.1C22.5 91.3001 23 91.2001 23.4 91.1001C23.9 91.0001 24.3 90.8001 24.6 90.5001L23.8 91.9001C23.1 92.2001 22.4001 92.3001 21.7001 92.3001C20.9001 92.3001 20.2 92.2001 19.5 91.9001C18.8 91.6001 18.3 91.2001 17.9 90.6001C17.4 90.2001 17.2001 89.5001 17.2001 88.7001ZM9.50005 91.0001V83.4001C9.50005 83.1001 9.50005 82.8001 9.40005 82.7001C9.30005 82.5001 9.20005 82.4001 8.90005 82.2001H10.1C10.5 82.2001 10.7 82.1001 10.9 81.9001V86.0001C11.1 85.7001 11.5 85.4001 11.9 85.3001C12.3 85.1001 12.8 85.1001 13.2 85.1001C15 85.1001 15.8 86.0001 15.8 87.9001V91.0001C15.8 91.4001 15.8 91.7001 15.9 91.9001C16 92.1001 16.1 92.2001 16.4 92.4001V92.5001H13.8V92.4001C14 92.3001 14.2 92.1001 14.3 91.9001C14.4 91.7001 14.4 91.5001 14.4 91.2001V88.4001C14.4 86.9001 13.8 86.1001 12.6 86.1001C12 86.1001 11.5 86.3001 11.3 86.6001C11 86.9001 10.9 87.4001 10.9 88.1001V91.0001C10.9 91.4001 10.9 91.7001 11 91.9001C11.1 92.1001 11.2 92.3001 11.5 92.4001V92.5001H8.90005V92.4001C9.30005 92.2001 9.50005 91.8001 9.50005 91.3001V91.0001ZM4.00005 90.8001V83.2001H2.70005C1.80005 83.2001 1.20005 83.4001 0.800049 83.8001L1.30005 82.0001H1.40005C1.50005 82.1001 1.80005 82.1001 2.10005 82.1001H8.00005C8.40005 82.1001 8.70005 82.1001 8.80005 82.0001H8.90005L8.40005 83.8001H8.30005C8.20005 83.6001 8.10005 83.4001 7.80005 83.3001C7.60005 83.2001 7.30005 83.2001 7.00005 83.2001H5.60005V90.7001C5.60005 91.0001 5.70005 91.3001 5.80005 91.6001C5.90005 91.8001 6.10005 92.1001 6.50005 92.3001V92.4001H3.30005V92.3001C3.80005 92.1001 4.00005 91.7001 4.00005 90.8001ZM96.1 81.9001H96.5C96.7 81.9001 97.1 81.9001 97.7 82.0001L96.6 83.2001C96.4 83.1001 96.2 83.0001 96 83.0001V81.9001H96.1ZM96.1 85.2001H96.5L96.8 85.1001H96.9V86.5001H96.8C96.7 86.3001 96.5 86.2001 96.1 86.2001V85.2001ZM133.1 91.0001V86.5001C133.1 86.2001 133.1 86.0001 133 85.8001C132.9 85.6001 132.8 85.4001 132.5 85.3001V85.2001H133.4C133.9 85.2001 134.2 85.1001 134.4 85.0001V86.2001C134.6 85.9001 134.8 85.6001 135.2 85.4001C135.6 85.1001 136 85.0001 136.6 85.0001C138.4 85.0001 139.4 85.9001 139.4 87.7001V91.0001C139.4 91.3001 139.5 91.6001 139.6 91.8001C139.7 92.0001 139.8 92.2001 140.1 92.3001V92.4001H137.5V92.3001C137.7 92.2001 137.8 92.1001 137.9 91.9001C138 91.8001 138 91.6001 138 91.5001V88.5001C138 86.9001 137.4 86.1001 136.1 86.1001C135.5 86.1001 135 86.3001 134.8 86.6001C134.6 86.9001 134.4 87.4001 134.4 88.1001V91.1001C134.4 91.5001 134.4 91.7001 134.5 91.9001C134.6 92.1001 134.7 92.2001 135 92.4001V92.5001H132.4V92.4001C132.7 92.2001 132.8 92.0001 132.9 91.8001C133 91.5001 133.1 91.3001 133.1 91.0001ZM125.3 88.6001C125.3 89.4001 125.5 90.1001 126 90.7001C126.5 91.3001 127 91.6001 127.7 91.6001H127.8C128.3 91.6001 128.7 91.5001 129.1 91.2001C129.5 91.0001 129.7 90.6001 129.9 90.3001C130.1 89.9001 130.2 89.5001 130.2 89.1001C130.2 88.7001 130.1 88.4001 130 88.0001C129.9 87.7001 129.7 87.3001 129.5 87.1001C129.3 86.8001 129 86.6001 128.7 86.4001C128.4 86.2001 128 86.2001 127.7 86.2001C127.4 86.2001 127 86.3001 126.7 86.5001C126.4 86.7001 126.1 86.9001 125.8 87.3001C125.4 87.5001 125.3 88.0001 125.3 88.6001ZM123.7 88.8001C123.7 88.2001 123.9 87.6001 124.2 87.0001C124.5 86.4001 125 86.0001 125.6 85.6001C126.2 85.2001 127 85.0001 127.9 85.0001C128.6 85.0001 129.2 85.2001 129.8 85.5001C130.4 85.8001 130.9 86.2001 131.2 86.8001C131.6 87.4001 131.7 88.0001 131.7 88.8001C131.7 89.3001 131.6 89.8001 131.4 90.3001C131.2 90.8001 130.9 91.2001 130.5 91.5001C130.1 91.9001 129.7 92.1001 129.2 92.3001C128.7 92.5001 128.2 92.6001 127.7 92.6001C127.1 92.6001 126.5 92.5001 126 92.3001C125.5 92.1001 125.1 91.8001 124.7 91.5001C124.4 91.2001 124.1 90.7001 123.9 90.3001C123.8 89.7001 123.7 89.3001 123.7 88.8001ZM120.7 91.1001V86.5001C120.7 86.2001 120.7 85.9001 120.6 85.7001C120.5 85.5001 120.4 85.3001 120.1 85.2001V85.1001H120.9C121.2 85.1001 121.5 85.1001 121.6 85.0001C121.8 85.0001 121.9 84.9001 122 84.8001H122.1V90.6001C122.1 91.0001 122.1 91.4001 122.2 91.6001C122.3 91.8001 122.4 92.0001 122.7 92.1001V92.2001H120.1V92.1001C120.3 92.0001 120.5 91.8001 120.6 91.6001C120.7 91.6001 120.7 91.4001 120.7 91.1001ZM121.4 82.4001C121.7 82.4001 121.9 82.5001 122.1 82.7001C122.3 82.9001 122.4 83.1001 122.4 83.4001C122.4 83.7001 122.3 83.9001 122.1 84.1001C121.9 84.3001 121.7 84.4001 121.4 84.4001C121.1 84.4001 120.9 84.3001 120.7 84.1001C120.5 83.9001 120.4 83.7001 120.4 83.4001C120.4 83.2001 120.4 83.1001 120.5 82.9001L120.8 82.5001C121 82.4001 121.2 82.4001 121.4 82.4001ZM116 90.1001V86.3001H115V85.7001C116.2 85.5001 116.8 84.6001 116.8 83.0001H117.4V85.3001H118.5C119 85.3001 119.3 85.3001 119.4 85.2001V86.6001C119.2 86.4001 118.9 86.3001 118.5 86.3001H117.3V89.5001C117.3 89.9001 117.3 90.3001 117.4 90.6001C117.5 90.9001 117.6 91.2001 117.9 91.4001C118.1 91.5001 118.3 91.6001 118.7 91.6001C119 91.6001 119.3 91.5001 119.4 91.4001L118.6 92.5001H118C117.3 92.5001 116.8 92.3001 116.5 91.8001C116.2 91.4001 116 90.8001 116 90.1001ZM107.5 90.4001C107.5 89.9001 107.6 89.6001 107.9 89.3001C108.1 89.0001 108.5 88.8001 108.9 88.6001C109.1 88.5001 109.5 88.4001 110.1 88.3001C110.7 88.2001 111.1 88.1001 111.3 88.0001L111.9 87.7001C112 87.7001 112 87.6001 112.1 87.5001C112.2 87.4001 112.2 87.3001 112.2 87.1001C112.2 86.8001 112 86.5001 111.7 86.4001C111.4 86.2001 111 86.2001 110.7 86.2001C110.1 86.2001 109.4 86.4001 108.6 86.8001L109.6 85.3001H110.7C111.2 85.3001 111.7 85.4001 112.2 85.5001C112.6 85.7001 113 85.9001 113.3 86.3001C113.6 86.7001 113.7 87.1001 113.7 87.6001V90.3001C113.7 90.8001 113.8 91.1001 114 91.3001C114.2 91.5001 114.5 91.6001 115 91.7001L114.3 92.8001C113.6 92.7001 113.1 92.6001 112.8 92.3001C112.5 92.0001 112.3 91.6001 112.3 91.1001V88.7001C112 88.9001 111.5 89.0001 110.9 89.2001C110.3 89.3001 109.9 89.5001 109.6 89.6001C109.3 89.8001 109.2 90.0001 109.2 90.5001C109.2 90.9001 109.4 91.2001 109.7 91.4001C110 91.6001 110.4 91.7001 110.9 91.8001C111.3 91.8001 111.7 91.7001 112.1 91.6001L111.2 92.7001C110.9 92.7001 110.6 92.8001 110.4 92.8001C109.9 92.8001 109.4 92.7001 109 92.5001C108.6 92.3001 108.3 92.1001 108.1 91.7001C107.6 91.2001 107.5 90.8001 107.5 90.4001ZM100.4 89.0001C100.4 88.3001 100.5 87.8001 100.8 87.3001C101 86.8001 101.4 86.4001 101.8 86.1001C102.2 85.8001 102.7 85.5001 103.2 85.4001C103.7 85.2001 104.3 85.2001 104.9 85.2001C105.5 85.2001 106 85.3001 106.6 85.4001V87.0001H106.5C106.1 86.5001 105.4 86.3001 104.6 86.3001C104.1 86.3001 103.7 86.4001 103.3 86.6001C102.9 86.8001 102.6 87.1001 102.3 87.5001C102.1 87.9001 101.9 88.4001 101.9 88.9001C101.9 89.4001 102.1 89.9001 102.3 90.3001C102.6 90.7001 103 91.1001 103.5 91.3001C104 91.6001 104.5 91.7001 105.1 91.7001C106 91.7001 106.7 91.4001 107.4 90.9001L106.6 92.4001C106 92.6001 105.3 92.7001 104.7 92.7001C103.9 92.7001 103.1 92.5001 102.5 92.2001C101.8 91.9001 101.3 91.5001 100.9 90.9001C100.6 90.3001 100.4 89.7001 100.4 89.0001ZM97.5 91.1001V86.5001C97.5 86.2001 97.5 85.9001 97.4 85.7001C97.3 85.5001 97.2 85.3001 96.9 85.2001V85.1001H97.7C98 85.1001 98.3 85.1001 98.4 85.0001C98.6 85.0001 98.7 84.9001 98.8 84.8001H98.9V90.6001C98.9 91.0001 98.9 91.4001 99 91.6001C99.1 91.8001 99.2 92.0001 99.5 92.1001V92.2001H96.9V92.1001C97.1 92.0001 97.3 91.8001 97.4 91.6001C97.4 91.6001 97.5 91.4001 97.5 91.1001ZM98.1 82.4001C98.4 82.4001 98.6 82.5001 98.8 82.7001C99 82.9001 99.1 83.1001 99.1 83.4001C99.1 83.7001 99 83.9001 98.8 84.1001C98.6 84.3001 98.4 84.4001 98.1 84.4001C97.8 84.4001 97.6 84.3001 97.4 84.1001C97.2 83.9001 97.1 83.7001 97.1 83.4001C97.1 83.2001 97.1 83.1001 97.2 82.9001L97.5 82.5001C97.8 82.4001 97.9 82.4001 98.1 82.4001ZM185.9 88.4001C185.9 89.3001 186.2 90.1001 186.8 90.6001C187.3 91.1001 188 91.4001 188.9 91.4001C189.3 91.4001 189.7 91.3001 190.1 91.2001C190.5 91.1001 191 90.9001 191.5 90.6001L190.7 92.0001C190.3 92.2001 189.9 92.3001 189.5 92.4001C189.1 92.5001 188.8 92.5001 188.5 92.5001C187.3 92.5001 186.3 92.1001 185.5 91.4001C184.7 90.7001 184.3 89.7001 184.3 88.6001C184.3 87.4001 184.7 86.5001 185.4 85.7001C186.1 84.9001 187 84.6001 188.1 84.6001C189.1 84.6001 189.9 84.9001 190.5 85.6001C191.1 86.3001 191.4 87.2001 191.4 88.4001H185.9ZM186 87.4001H189.8C189.8 86.9001 189.6 86.5001 189.2 86.1001C188.9 85.8001 188.4 85.6001 187.9 85.6001C187.4 85.6001 186.9 85.8001 186.5 86.1001C186.3 86.4001 186.1 86.8001 186 87.4001ZM182.7 86.5001C182.3 86.3001 182 86.1001 181.7 86.0001C181.4 85.9001 181.1 85.8001 180.8 85.8001C180.1 85.8001 179.5 86.0001 179.1 86.5001C178.7 87.0001 178.4 87.6001 178.4 88.4001C178.4 89.2001 178.7 90.0001 179.2 90.5001C179.7 91.1001 180.4 91.3001 181.3 91.3001C181.6 91.3001 182 91.2001 182.4 91.1001C182.8 91.0001 183.2 90.8001 183.7 90.6001L182.9 92.0001C182.6 92.2001 182.3 92.3001 182 92.4001C181.7 92.5001 181.4 92.5001 181 92.5001C179.8 92.5001 178.7 92.1001 177.9 91.4001C177.1 90.7001 176.7 89.7001 176.7 88.6001C176.7 87.5001 177.1 86.5001 177.9 85.7001C178.7 84.9001 179.7 84.5001 180.8 84.5001C181 84.5001 181.2 84.5001 181.5 84.6001C181.8 84.6001 182.2 84.7001 182.6 84.7001V86.5001H182.7ZM175.2 90.9001C175.2 91.2001 175.2 91.5001 175.3 91.7001C175.4 91.9001 175.5 92.1001 175.7 92.3001H173.3C173.5 92.1001 173.6 91.9001 173.7 91.7001C173.8 91.5001 173.8 91.2001 173.8 90.9001V86.3001C173.8 86.0001 173.8 85.7001 173.7 85.5001C173.6 85.3001 173.5 85.1001 173.3 84.9001C173.7 84.9001 174.1 84.9001 174.4 84.8001C174.7 84.8001 175 84.7001 175.2 84.7001V90.9001ZM173.6 82.9001C173.6 82.6001 173.7 82.4001 173.9 82.2001C174.1 82.0001 174.3 81.9001 174.5 81.9001C174.7 81.9001 175 82.0001 175.1 82.2001C175.3 82.4001 175.4 82.6001 175.4 82.9001C175.4 83.2001 175.3 83.4001 175.1 83.6001C174.9 83.8001 174.7 83.9001 174.5 83.9001C174.2 83.9001 174 83.8001 173.9 83.6001C173.7 83.4001 173.6 83.2001 173.6 82.9001ZM173.2 84.9001L169.9 92.5001C169.5 92.4001 169.2 92.2001 169 91.9001C168.7 91.6001 168.5 91.1001 168.2 90.5001L166.6 86.5001C166.4 86.1001 166.3 85.7001 166.1 85.5001L165.5 84.9001H165.7C166.1 84.9001 166.5 84.9001 166.8 84.8001C167.1 84.8001 167.3 84.7001 167.4 84.6001L169.7 90.5001L171.4 86.5001C171.5 86.3001 171.6 86.1001 171.6 86.0001V85.7001C171.6 85.6001 171.6 85.4001 171.5 85.3001C171.4 85.2001 171.3 85.0001 171.1 84.9001H173.2ZM164.8 86.3001L164.5 86.1001C164.4 86.1001 164.3 86.0001 164.1 86.0001C163.6 86.0001 163.2 86.2001 162.9 86.5001C162.6 86.9001 162.5 87.4001 162.5 88.1001V90.9001C162.5 91.2001 162.5 91.5001 162.6 91.7001C162.7 91.9001 162.8 92.1001 163 92.3001H160.6C160.8 92.1001 160.9 91.9001 161 91.7001C161.1 91.5001 161.1 91.2001 161.1 90.9001V86.3001C161.1 86.0001 161.1 85.7001 161 85.5001C160.9 85.3001 160.8 85.1001 160.6 84.9001H161.6L162.5 84.8001L162.6 86.0001C162.8 85.6001 163.1 85.3001 163.3 85.1001C163.6 84.9001 163.9 84.8001 164.3 84.8001H164.6C164.7 84.8001 164.8 84.8001 164.9 84.9001V86.3001H164.8ZM153.9 88.4001C153.9 89.3001 154.2 90.1001 154.8 90.6001C155.3 91.1001 156 91.4001 156.9 91.4001C157.3 91.4001 157.7 91.3001 158.1 91.2001C158.5 91.1001 159 90.9001 159.5 90.6001L158.7 92.0001C158.3 92.2001 157.9 92.3001 157.5 92.4001C157.1 92.5001 156.8 92.5001 156.5 92.5001C155.3 92.5001 154.3 92.1001 153.5 91.4001C152.7 90.7001 152.3 89.7001 152.3 88.6001C152.3 87.4001 152.7 86.5001 153.4 85.7001C154.1 84.9001 155 84.6001 156.1 84.6001C157.1 84.6001 157.9 84.9001 158.5 85.6001C159.1 86.3001 159.4 87.2001 159.4 88.4001H153.9ZM154 87.4001H157.8C157.8 86.9001 157.6 86.5001 157.2 86.1001C156.9 85.8001 156.4 85.6001 155.9 85.6001C155.3 85.6001 154.9 85.8001 154.5 86.1001C154.3 86.4001 154.1 86.8001 154 87.4001ZM144.3 92.1001L143.8 90.2001C144.4 90.6001 145 90.9001 145.5 91.1001C146.1 91.3001 146.6 91.4001 147.2 91.4001C147.9 91.4001 148.5 91.2001 148.9 90.9001C149.3 90.6001 149.5 90.2001 149.5 89.7001C149.5 89.6001 149.5 89.4001 149.4 89.3001C149.4 89.2001 149.3 89.0001 149.2 88.9001C149 88.6001 148.4 88.2001 147.3 87.7001C147 87.6001 146.8 87.5001 146.7 87.4001C145.7 86.9001 145 86.4001 144.6 86.0001C144.2 85.6001 144 85.0001 144 84.4001C144 83.5001 144.3 82.9001 145 82.4001C145.7 81.9001 146.6 81.6001 147.8 81.6001C148.1 81.6001 148.5 81.6001 148.9 81.7001C149.3 81.7001 149.8 81.8001 150.2 81.9001V83.7001C149.8 83.4001 149.3 83.1001 148.9 83.0001C148.5 82.8001 148 82.8001 147.6 82.8001C147 82.8001 146.5 82.9001 146.2 83.2001C145.8 83.5001 145.7 83.8001 145.7 84.2001C145.7 84.6001 145.8 84.9001 146.1 85.2001C146.4 85.5001 147 85.9001 148 86.3001L148.2 86.4001C149 86.8001 149.6 87.1001 150.1 87.5001C150.4 87.7001 150.6 88.0001 150.8 88.4001C151 88.7001 151.1 89.1001 151.1 89.5001C151.1 90.4001 150.7 91.2001 149.9 91.8001C149.1 92.4001 148.1 92.7001 146.9 92.7001C146.5 92.7001 146.1 92.7001 145.6 92.6001C145.3 92.4001 144.9 92.3001 144.3 92.1001Z" fill="#5D6BEF"/>
<path d="M154.9 71.8001C152.4 71.8001 150.3 69.8001 150.3 67.2001C150.3 64.6001 152.3 62.6001 154.9 62.6001C157.4 62.6001 159.5 64.6001 159.5 67.2001C159.5 69.8001 157.4 71.8001 154.9 71.8001ZM154.9 63.3001C152.7 63.3001 151 65.1001 151 67.2001C151 69.3001 152.8 71.1001 154.9 71.1001C157.1 71.1001 158.8 69.3001 158.8 67.2001C158.8 65.1001 157.1 63.3001 154.9 63.3001ZM153.1 65.1001H155.4C156.2 65.1001 156.6 65.6001 156.6 66.3001C156.6 66.8001 156.4 67.2001 155.9 67.4001C156.4 67.5001 156.5 68.0001 156.5 68.4001C156.5 68.7001 156.5 69.2001 156.7 69.4001H155.8L155.6 68.4001C155.5 68.0001 155.4 67.8001 154.9 67.8001H154V69.5001H153.1V65.1001ZM154 67.1001H155C155.4 67.1001 155.6 66.9001 155.6 66.5001C155.6 66.1001 155.4 65.9001 155 65.9001H154V67.1001Z" fill="#5D6BEF"/>
</g>
<defs>
<clipPath id="clip0_4118_60253">
<rect width="191.5" height="120.9" fill="white"/>
</clipPath>
</defs>
</svg>
