<svg version="1.2" xmlns="http://www.w3.org/2000/svg" viewBox="0 0 336 336" width="336" height="336"><style>.a{fill:#fff}.b{fill:#808080}.c{fill:none;stroke:#fff}.d{fill:#ef4242}.e{fill:#7d7d7d}</style><path  d="m168 334c91.7 0 166-74.3 166-166 0-91.7-74.3-166-166-166-91.7 0-166 74.3-166 166 0 91.7 74.3 166 166 166z"/><path class="a" d="m172.9 11.2h-10.4v8.7h10.4z"/><path class="a" d="m172.9 316.3h-10.4v8.7h10.4z"/><path class="a" d="m93.7 29.7l-8.9 5.1 4.3 7.5 9-5.2z"/><path class="a" d="m246.3 293.9l-9 5.2 4.4 7.5 8.9-5.2z"/><path class="a" d="m34.4 85.2l-5.1 8.9 7.4 4.4 5.2-9z"/><path class="a" d="m298.7 237.7l-5.2 9 7.5 4.3 5.2-8.9z"/><path class="a" d="m19.5 162.9h-8.7v10.4h8.7z"/><path class="a" d="m324.6 162.9h-8.7v10.4h8.7z"/><path class="a" d="m36.7 237.7l-7.4 4.4 5.1 8.9 7.5-4.3z"/><path class="a" d="m301 85.2l-7.5 4.3 5.2 9 7.5-4.4z"/><path class="a" d="m89.1 293.9l-4.3 7.5 9 5.1 4.3-7.4z"/><path class="a" d="m241.7 29.7l-4.4 7.4 9 5.2 4.3-7.5z"/><path class="b" d="m152.6 12l-2.3 0.2 0.8 8.4 2.3-0.3z"/><path class="b" d="m184.5 315.5l-2.3 0.3 0.9 8.3 2.2-0.2z"/><path class="b" d="m136.3 14.4l-2.2 0.5 1.7 8.2 2.3-0.5z"/><path class="b" d="m199.8 313l-2.3 0.4 1.8 8.3 2.2-0.5z"/><path class="b" d="m120.4 18.5l-2.1 0.7 2.6 8.1 2.1-0.8z"/><path class="b" d="m214.8 308.8l-2.2 0.7 2.6 8 2.2-0.7z"/><path class="b" d="m105.1 24.3l-2.1 0.9 3.4 7.7 2.1-0.9z"/><path class="b" d="m229.2 303.1l-2.1 1 3.4 7.7 2.1-1z"/><path class="b" d="m76.6 40.5l-1.9 1.4 4.9 6.8 1.9-1.4z"/><path class="b" d="m256 287.4l-1.9 1.4 5 6.8 1.8-1.4z"/><path class="b" d="m63.7 50.7l-1.7 1.6 5.6 6.2 1.8-1.5z"/><path class="b" d="m268 277.6l-1.7 1.5 5.6 6.3 1.7-1.6z"/><path class="b" d="m52 62.3l-1.5 1.7 6.3 5.6 1.5-1.7z"/><path class="b" d="m278.9 266.5l-1.6 1.7 6.3 5.6 1.5-1.7z"/><path class="b" d="m41.6 74.9l-1.3 1.9 6.8 5 1.3-1.9z"/><path class="b" d="m288.5 254.4l-1.3 1.8 6.8 5 1.4-1.9z"/><path class="b" d="m25 103.2l-0.9 2.1 7.7 3.4 0.9-2.1z"/><path class="b" d="m303.9 227.4l-1 2.1 7.7 3.4 0.9-2.1z"/><path class="b" d="m19 118.5l-0.7 2.2 8 2.6 0.7-2.2z"/><path class="b" d="m309.3 212.8l-0.7 2.2 8 2.6 0.7-2.2z"/><path class="b" d="m14.6 134.3l-0.4 2.3 8.2 1.7 0.5-2.2z"/><path class="b" d="m313.2 197.8l-0.5 2.2 8.2 1.8 0.5-2.3z"/><path class="b" d="m12 150.5l-0.3 2.3 8.4 0.9 0.2-2.3z"/><path class="b" d="m315.5 182.4l-0.2 2.3 8.4 0.9 0.2-2.3z"/><path class="b" d="m11.7 183.3l0.3 2.3 8.3-0.9-0.2-2.3z"/><path class="b" d="m315.3 151.4l0.2 2.3 8.4-0.9-0.3-2.3z"/><path class="b" d="m14.2 199.5l0.4 2.3 8.3-1.8-0.5-2.2z"/><path class="b" d="m312.7 136.1l0.5 2.2 8.2-1.7-0.4-2.3z"/><path class="b" d="m18.3 215.4l0.7 2.2 8-2.6-0.7-2.2z"/><path class="b" d="m308.6 121.1l0.7 2.2 8-2.6-0.7-2.2z"/><path class="b" d="m24.1 230.8l0.9 2.1 7.7-3.5-0.9-2.1z"/><path class="b" d="m302.9 106.6l0.9 2.1 7.7-3.4-0.9-2.1z"/><path class="b" d="m40.2 259.3l1.4 1.8 6.8-4.9-1.3-1.9z"/><path class="b" d="m287.2 79.9l1.3 1.9 6.8-5-1.3-1.9z"/><path class="b" d="m50.5 272.1l1.5 1.7 6.3-5.6-1.5-1.7z"/><path class="b" d="m277.3 67.9l1.6 1.7 6.2-5.6-1.5-1.7z"/><path class="b" d="m62 283.8l1.7 1.6 5.7-6.3-1.8-1.5z"/><path class="b" d="m266.2 57l1.7 1.5 5.7-6.2-1.7-1.6z"/><path class="b" d="m74.7 294.2l1.8 1.4 5-6.8-1.9-1.4z"/><path class="b" d="m254.1 47.3l1.9 1.4 4.9-6.9-1.8-1.3z"/><path class="b" d="m103 310.8l2.1 1 3.4-7.7-2.1-0.9z"/><path class="b" d="m227.1 32l2.1 0.9 3.4-7.7-2.1-0.9z"/><path class="b" d="m118.2 316.8l2.2 0.8 2.6-8.1-2.2-0.7z"/><path class="b" d="m212.6 26.6l2.2 0.7 2.6-8-2.2-0.8z"/><path class="b" d="m134.1 321.2l2.2 0.5 1.8-8.2-2.3-0.5z"/><path class="b" d="m197.5 22.7l2.3 0.4 1.7-8.2-2.2-0.5z"/><path class="b" d="m150.3 323.9l2.2 0.2 0.9-8.3-2.3-0.3z"/><path class="b" d="m182.2 20.3l2.3 0.3 0.8-8.4-2.2-0.2z"/><path class="c" d="m168 289.6c67.1 0 121.6-54.5 121.6-121.6 0-67.2-54.5-121.6-121.6-121.6-67.2 0-121.6 54.4-121.6 121.6 0 67.1 54.4 121.6 121.6 121.6z"/><path class="d" d="m31.2 177.6q0.3-0.8 1-1.3 0.7-0.5 1.6-0.5l2.7-0.3q0.2 0 0.3 0.1 0.2 0.1 0.2 0.3 0 0.2-0.1 0.4-0.1 0.1-0.3 0.1l-0.7 0.1q0.6 0.3 1 0.9 0.3 0.6 0.4 1.4 0.1 0.8-0.3 1.6-0.3 0.7-1 1.2-0.7 0.4-1.6 0.5-0.9 0.1-1.7-0.2-0.7-0.4-1.2-1.1-0.5-0.7-0.6-1.6-0.1-0.9 0.3-1.6zm4.9 0q-0.4-0.5-1-0.8-0.5-0.2-1.2-0.2-0.7 0.1-1.2 0.4-0.5 0.4-0.8 1-0.3 0.5-0.2 1.2 0.1 0.6 0.4 1.1 0.4 0.5 1 0.8 0.5 0.2 1.2 0.2 0.7-0.1 1.2-0.4 0.5-0.4 0.8-0.9 0.2-0.6 0.2-1.2-0.1-0.7-0.4-1.2z"/><path class="d" d="m29.2 174.1q-0.2 0.2-0.4 0.2-0.3 0-0.5-0.2-0.2-0.1-0.2-0.4 0-0.3 0.2-0.4 0.1-0.2 0.4-0.3 0.3 0 0.5 0.2 0.2 0.2 0.2 0.4 0 0.3-0.2 0.5zm10.3 1.6q-0.1 0.2-0.3 0.2-0.2 0-0.3-0.1-0.1-0.2-0.1-0.4-0.1-0.8-0.6-1.2-0.5-0.5-1.3-0.5l-5.9 0.3q-0.2 0-0.3-0.1-0.1-0.1-0.1-0.3 0-0.2 0.1-0.3 0.1-0.2 0.3-0.2l5.8-0.3q0.8 0 1.4 0.3 0.7 0.3 1 0.9 0.4 0.6 0.4 1.4 0.1 0.2-0.1 0.3z"/><path class="d" d="m30.7 166.2q0.3-0.6 1-1 0.7-0.4 1.6-0.4h3q0.1 0 0.3 0.1 0.1 0.2 0.1 0.4 0 0.1-0.1 0.3-0.2 0.1-0.3 0.1h-3q-1.1 0-1.6 0.6-0.5 0.6-0.5 1.5 0 0.6 0.2 1 0.2 0.5 0.6 0.7 0.4 0.3 0.9 0.3h3.4q0.2 0 0.3 0.1 0.1 0.1 0.1 0.3 0 0.2-0.1 0.3-0.1 0.2-0.3 0.2h-5.4q-0.2 0-0.3-0.1-0.2-0.2-0.2-0.3 0-0.2 0.1-0.4 0.2-0.1 0.4-0.1h0.4q-0.5-0.4-0.7-0.9-0.3-0.5-0.3-1.2 0-0.8 0.4-1.4z"/><path class="d" d="m31 158.5q0.5-0.6 1.2-0.9 0.7-0.4 1.6-0.3 0.2 0 0.3 0.1 0.1 0.1 0.1 0.3l-0.3 4.6q1 0 1.6-0.6 0.6-0.6 0.7-1.6 0-0.4-0.1-0.8-0.2-0.5-0.4-0.7-0.1-0.2-0.1-0.3 0-0.2 0.1-0.3 0.2-0.1 0.3-0.1 0.2 0 0.3 0.1 0.3 0.4 0.5 1 0.2 0.6 0.2 1.1-0.1 1-0.5 1.7-0.5 0.7-1.2 1-0.8 0.4-1.7 0.4-0.9-0.1-1.6-0.5-0.7-0.4-1.1-1.1-0.4-0.7-0.3-1.6 0-0.9 0.4-1.5zm0.8 3q0.5 0.6 1.4 0.8l0.2-4.2q-0.9 0-1.4 0.5-0.6 0.6-0.7 1.4 0 0.9 0.5 1.5z"/><path class="d" d="m31.6 151.5q0.5-0.6 1.2-0.9 0.8-0.3 1.7-0.2 0.2 0 0.3 0.1 0.1 0.1 0 0.3l-0.4 4.6q0.9 0 1.6-0.5 0.6-0.6 0.7-1.6 0.1-0.4 0-0.8-0.1-0.4-0.3-0.7-0.1-0.2-0.1-0.4 0-0.1 0.1-0.2 0.2-0.1 0.3-0.1 0.2 0 0.3 0.1 0.3 0.4 0.4 1.1 0.2 0.6 0.1 1.1-0.1 0.9-0.6 1.6-0.4 0.7-1.2 1-0.8 0.3-1.7 0.2-0.9-0.1-1.6-0.5-0.7-0.5-1-1.2-0.4-0.7-0.3-1.6 0.1-0.8 0.6-1.4zm0.6 3q0.5 0.6 1.4 0.8l0.4-4.1q-0.9 0-1.5 0.4-0.6 0.5-0.7 1.4-0.1 0.9 0.4 1.5z"/><path class="a" d="m48.5 112.2q0.1 0 0.2 0.2 0 0.2-0.1 0.3 0 0.2-0.1 0.2-0.1 0.1-0.2 0.1l-3.9 0.6-0.1 0.2-0.6 1.5 2.8 1.3q0.2 0 0.2 0.2 0.1 0.2 0 0.4-0.1 0.1-0.2 0.2-0.2 0.1-0.4 0l-7.4-3.2q-0.2-0.1-0.2-0.3-0.1-0.1 0-0.3l0.8-2q0.4-0.8 1-1.2 0.5-0.5 1.3-0.6 0.7-0.1 1.4 0.3 0.8 0.3 1.3 1 0.4 0.7 0.3 1.6l3.6-0.5q0.2-0.1 0.3 0zm-4.9 1.3q0.2-0.6 0.2-1.1 0-0.5-0.3-0.9-0.3-0.4-0.8-0.6-0.5-0.3-1-0.2-0.5 0.1-0.9 0.4-0.4 0.3-0.6 0.9l-0.7 1.5 3.4 1.5z"/><path class="a" d="m45.9 104.9q0.6-0.4 1.4-0.5 0.8 0 1.6 0.4 0.2 0.1 0.2 0.3 0 0.1 0 0.3l-2.1 4.1q0.9 0.4 1.7 0.1 0.8-0.3 1.2-1.2 0.2-0.4 0.3-0.8 0-0.5 0-0.8-0.1-0.2 0-0.3 0-0.1 0.2-0.2 0.2-0.1 0.3 0 0.2 0.1 0.2 0.2 0.1 0.5 0.1 1.1-0.1 0.6-0.3 1.1-0.5 0.9-1.2 1.3-0.6 0.5-1.5 0.5-0.8 0.1-1.6-0.3-0.9-0.5-1.4-1.1-0.4-0.7-0.5-1.5-0.1-0.8 0.3-1.6 0.4-0.7 1.1-1.1zm-0.5 3q0.2 0.8 1 1.3l1.8-3.8q-0.8-0.3-1.5-0.1-0.8 0.3-1.1 1.1-0.4 0.7-0.2 1.5z"/><path class="a" d="m53.3 102q0.2-0.1 0.4 0 0.1 0.1 0.2 0.3 0 0.2-0.1 0.4l-0.1 0.2q-0.3 0.5-0.8 0.8-0.5 0.3-1 0.3-0.6 0-1.2-0.3l-2.7-1.5-0.3 0.6q-0.1 0.2-0.3 0.2-0.1 0.1-0.2 0-0.2-0.1-0.2-0.3-0.1-0.1 0-0.3l0.4-0.6-1.6-0.9q-0.2-0.1-0.2-0.2-0.1-0.2 0-0.4 0.1-0.1 0.3-0.2 0.2-0.1 0.3 0.1l1.6 0.8 0.6-1.1q0.1-0.2 0.3-0.2 0.1-0.1 0.3 0 0.1 0.1 0.2 0.2 0 0.2-0.1 0.3l-0.6 1.2 2.7 1.5q0.5 0.3 1 0.1 0.5-0.1 0.7-0.5l0.2-0.3q0.1-0.2 0.2-0.2z"/><path class="a" d="m52.4 93.1q0.2 0 0.3 0.1l4.6 2.8q0.2 0.1 0.2 0.3 0.1 0.2 0 0.3-0.1 0.2-0.3 0.2-0.2 0.1-0.3 0l-0.4-0.3q0.2 0.6 0.1 1.2-0.1 0.6-0.4 1.1-0.4 0.7-1.1 1.1-0.6 0.3-1.3 0.3-0.8 0-1.6-0.5l-2.5-1.6q-0.2-0.1-0.2-0.2-0.1-0.2 0-0.4 0.1-0.1 0.3-0.2 0.2 0 0.3 0.1l2.6 1.5q0.8 0.6 1.6 0.4 0.7-0.2 1.2-1 0.3-0.5 0.4-1 0-0.5-0.1-0.9-0.2-0.5-0.6-0.7l-2.9-1.8q-0.2-0.1-0.3-0.3 0-0.1 0.1-0.3 0.1-0.2 0.3-0.2z"/><path class="a" d="m55.7 88.1q0.3-0.2 0.5-0.1 0 0.1 0.1 0.1 0.1 0.1 0.1 0.3 0 0.1-0.1 0.2-0.1 0.1-0.3 0.3 0 0.1-0.1 0.2-0.5 0.7-0.5 1.4 0.1 0.7 0.7 1.2l2.9 1.9q0.1 0.1 0.2 0.3 0 0.2-0.1 0.3-0.2 0.2-0.3 0.2-0.2 0.1-0.3-0.1l-4.5-3q-0.2-0.2-0.2-0.3 0-0.2 0.1-0.3 0.1-0.2 0.3-0.2 0.1-0.1 0.3 0l0.4 0.3q-0.2-0.5-0.1-1.1 0.1-0.6 0.4-1.1 0.3-0.4 0.5-0.5z"/><path class="a" d="m59.7 83.2q0.6-0.3 1.4-0.2 0.7 0.1 1.5 0.6l2.4 1.9q0.1 0.1 0.1 0.2 0.1 0.2-0.1 0.4-0.1 0.1-0.3 0.1-0.1 0.1-0.3 0l-2.4-1.9q-0.8-0.6-1.5-0.5-0.8 0.2-1.4 0.9-0.3 0.5-0.4 1-0.1 0.4 0 0.9 0.2 0.4 0.6 0.7l2.7 2.1q0.1 0.1 0.1 0.3 0.1 0.1-0.1 0.3-0.1 0.2-0.2 0.2-0.2 0-0.4-0.1l-4.3-3.3q-0.1-0.1-0.1-0.3-0.1-0.2 0-0.3 0.2-0.2 0.3-0.2 0.2 0 0.4 0.1l0.3 0.3q-0.1-0.6 0-1.2 0.1-0.5 0.5-1.1 0.5-0.6 1.2-0.9z"/><path class="a" d="m55.6 252.1q0-0.2 0.2-0.3l6.2-5.2q0.2-0.1 0.4-0.1 0.1 0 0.3 0.2 0.1 0.1 0.1 0.3 0 0.2-0.2 0.3l-5 4.1 7.1-1.6q0.2-0.1 0.4 0.1 0.2 0.3 0 0.5l-2.9 6.5 5-4q0.1-0.1 0.3-0.1 0.2 0 0.3 0.1 0.1 0.2 0.1 0.4 0 0.1-0.1 0.3l-6.3 5.1q-0.1 0.1-0.3 0.1-0.2 0-0.3-0.2-0.2-0.2-0.1-0.4l3.3-7.5-7.9 1.8q-0.3 0.1-0.5-0.1-0.1-0.2-0.1-0.3z"/><path class="a" d="m54.1 244.9q-0.1-0.8 0.3-1.6 0.3-0.8 1-1.3l2.2-1.6q0.2-0.1 0.4-0.1 0.1 0.1 0.3 0.2 0.1 0.2 0.1 0.4-0.1 0.1-0.2 0.3l-0.6 0.4q0.7 0 1.3 0.3 0.6 0.3 1.1 0.9 0.5 0.7 0.5 1.5 0.1 0.9-0.2 1.6-0.4 0.8-1.1 1.3-0.8 0.5-1.6 0.6-0.9 0.1-1.6-0.2-0.8-0.4-1.3-1.1-0.5-0.8-0.6-1.6zm4.2-2.5q-0.5-0.2-1.2-0.2-0.6 0.1-1.1 0.5-0.6 0.4-0.8 1-0.3 0.5-0.3 1.1 0.1 0.7 0.5 1.2 0.3 0.5 0.9 0.8 0.6 0.2 1.2 0.2 0.6-0.1 1.2-0.5 0.5-0.4 0.8-1 0.3-0.5 0.2-1.1-0.1-0.7-0.4-1.2-0.4-0.5-1-0.8z"/><path class="a" d="m50.3 239.7q-0.1-0.3 0.1-0.5 0.1 0 0.1 0 0.2-0.1 0.3 0 0.1 0 0.2 0.2 0 0.1 0.1 0.3 0.1 0.1 0.2 0.2 0.4 0.7 1.1 1 0.7 0.2 1.3-0.2l2.9-1.9q0.2-0.1 0.3-0.1 0.2 0.1 0.3 0.2 0.1 0.2 0.1 0.4 0 0.1-0.2 0.2l-4.6 3q-0.2 0.1-0.3 0.1-0.2-0.1-0.3-0.2-0.1-0.2-0.1-0.4 0.1-0.1 0.3-0.2l0.4-0.3q-0.6 0-1.1-0.3-0.5-0.3-0.8-0.8-0.3-0.4-0.4-0.7z"/><path class="a" d="m52.2 231.4q0.1-0.1 0.3 0 0.2 0.1 0.2 0.2 0.1 0.1 0.1 0.3l-1.3 3.5 1.1 0.4 1.5-0.9q0.2-0.1 0.4-0.1 0.1 0.1 0.2 0.2 0.1 0.2 0.1 0.3-0.1 0.2-0.2 0.3l-7 4.1q-0.2 0.1-0.3 0.1-0.2 0-0.3-0.2-0.1-0.2-0.1-0.3 0.1-0.2 0.3-0.3l4.5-2.7-4.2-1.3q-0.2 0-0.3-0.2 0-0.1 0-0.3 0.1-0.2 0.2-0.2 0.1-0.1 0.3 0l3 0.9 1.3-3.6q0-0.1 0.2-0.2z"/><path class="a" d="m44.9 229.8q0.1-0.8 0.5-1.5 0.5-0.6 1.3-1 0.1-0.1 0.3-0.1 0.1 0.1 0.2 0.2l2.2 4.1q0.8-0.5 1-1.3 0.2-0.9-0.2-1.7-0.2-0.4-0.6-0.7-0.3-0.3-0.6-0.4-0.2-0.1-0.2-0.2-0.1-0.1-0.1-0.3 0.1-0.2 0.2-0.3 0.1-0.1 0.3 0 0.5 0.2 0.9 0.6 0.5 0.4 0.8 0.9 0.4 0.8 0.4 1.6-0.1 0.9-0.5 1.6-0.5 0.7-1.3 1.1-0.8 0.4-1.6 0.4-0.8 0.1-1.5-0.4-0.7-0.4-1.1-1.1-0.4-0.8-0.4-1.6zm2.2 2.2q0.8 0.3 1.6 0l-2-3.8q-0.7 0.5-0.9 1.3-0.2 0.7 0.2 1.5 0.4 0.8 1.1 1z"/><path class="a" d="m47.2 222.5q0-0.2 0.2-0.2 0.2-0.1 0.3 0 0.2 0 0.3 0.2l0.1 0.2q0.3 0.6 0.2 1.1 0 0.6-0.4 1.1-0.3 0.4-0.9 0.7l-2.7 1.3 0.3 0.7q0.1 0.2 0 0.3 0 0.2-0.2 0.2-0.1 0.1-0.3 0.1-0.1-0.1-0.2-0.3l-0.3-0.6-1.6 0.7q-0.2 0.1-0.4 0.1-0.2-0.1-0.2-0.3-0.1-0.1-0.1-0.3 0.1-0.2 0.3-0.3l1.6-0.7-0.6-1.2q-0.1-0.2 0-0.3 0-0.2 0.2-0.2 0.1-0.1 0.3-0.1 0.1 0.1 0.2 0.3l0.6 1.1 2.7-1.3q0.6-0.2 0.7-0.7 0.2-0.5 0-1l-0.1-0.3q-0.1-0.1-0.1-0.3z"/><path class="a" d="m40.4 224.3q-0.1 0.3-0.3 0.4-0.3 0.1-0.5 0-0.3-0.1-0.4-0.3-0.1-0.3 0-0.5 0.1-0.2 0.4-0.4 0.2-0.1 0.4 0 0.3 0.1 0.4 0.4 0.1 0.2 0 0.4zm6.8-3.2q0 0.2-0.2 0.3l-4.9 2.2q-0.2 0.1-0.4 0-0.2-0.1-0.2-0.2-0.1-0.2-0.1-0.4 0.1-0.1 0.3-0.2l4.9-2.2q0.2-0.1 0.3 0 0.2 0 0.3 0.2 0.1 0.2 0 0.3z"/><path class="a" d="m39.1 217.1q0.1-0.8 0.6-1.4 0.4-0.6 1.3-0.9l2.8-1.1q0.1-0.1 0.3 0 0.2 0 0.2 0.2 0.1 0.2 0 0.4-0.1 0.1-0.2 0.2l-2.8 1.1q-0.9 0.4-1.2 1.1-0.3 0.8 0 1.6 0.3 0.5 0.6 0.9 0.4 0.3 0.9 0.4 0.4 0.1 0.8-0.1l3.2-1.2q0.2-0.1 0.3 0 0.2 0 0.3 0.2 0 0.2 0 0.3-0.1 0.2-0.3 0.3l-5 2q-0.2 0.1-0.3 0-0.2-0.1-0.3-0.2-0.1-0.2 0-0.4 0.1-0.1 0.3-0.2l0.3-0.2q-0.5-0.2-0.9-0.6-0.5-0.4-0.7-1-0.3-0.7-0.2-1.4z"/><path class="a" d="m36.6 210q0.2-0.8 0.7-1.5 0.6-0.6 1.5-0.9l2.2-0.8q0.9-0.2 1.7-0.1 0.8 0.1 1.5 0.7 0.6 0.5 0.9 1.4 0.3 0.8 0.2 1.6-0.1 0.7-0.5 1.4 0 0.1-0.2 0.2-0.2 0-0.3-0.1-0.1-0.1-0.2-0.2 0-0.1 0-0.2 0-0.1 0.1-0.2 0.3-0.5 0.3-1.1 0.1-0.5-0.1-1.2-0.2-0.6-0.7-1-0.5-0.4-1.1-0.5-0.6-0.1-1.3 0.2l-0.5 0.1q0.7 0.2 1.3 0.6 0.5 0.5 0.8 1.3 0.3 0.8 0.1 1.6-0.1 0.8-0.7 1.4-0.6 0.7-1.4 1-0.9 0.2-1.7 0.1-0.9-0.2-1.5-0.7-0.6-0.6-0.9-1.4-0.3-0.9-0.2-1.7zm4.8-1.2q-0.5-0.4-1.1-0.5-0.6-0.1-1.2 0.1-0.7 0.3-1.1 0.7-0.4 0.5-0.5 1.1-0.2 0.6 0.1 1.2 0.2 0.6 0.6 1 0.5 0.4 1.1 0.5 0.6 0.2 1.3-0.1 0.6-0.2 1.1-0.7 0.4-0.4 0.5-1 0.1-0.6-0.1-1.3-0.2-0.6-0.7-1z"/><path class="a" d="m123.7 292q0.8 0.9 1 2.1 0.2 1.2-0.2 2.4-0.5 1.2-1.4 2-0.9 0.8-2.1 1-1.2 0.2-2.4-0.2-1.2-0.4-2-1.4-0.8-0.9-1-2.1-0.2-1.2 0.2-2.4 0.5-1.2 1.4-2 0.9-0.8 2.1-1 1.2-0.2 2.4 0.2 1.2 0.5 2 1.4zm-4.2-0.7q-1 0.1-1.7 0.8-0.8 0.6-1.1 1.6-0.4 1-0.2 2 0.1 0.9 0.8 1.7 0.6 0.7 1.6 1.1 1 0.4 1.9 0.2 1-0.2 1.7-0.8 0.8-0.7 1.1-1.7 0.4-1 0.2-1.9-0.1-1-0.8-1.8-0.6-0.7-1.6-1.1-1-0.3-1.9-0.2z"/><path class="a" d="m109.6 292.2q-0.5-0.6-0.6-1.5-0.1-0.8 0.3-1.6 0.3-0.9 1-1.4 0.7-0.5 1.5-0.6 0.8-0.1 1.6 0.3 0.7 0.3 1.1 0.8 0.5 0.5 0.6 1.2l1.4-3.1q0.1-0.2 0.2-0.2 0.2-0.1 0.4 0 0.2 0.1 0.2 0.2 0.1 0.2 0 0.4l-1 2.3c0 0 0 0.1-0.1 0.1l-1 2.5q-0.4 0.8-1.1 1.4-0.7 0.5-1.5 0.6-0.8 0-1.7-0.3-0.8-0.4-1.3-1.1zm2.4-4.3q-0.6 0.1-1.1 0.5-0.5 0.4-0.8 1-0.3 0.6-0.2 1.2 0 0.7 0.4 1.2 0.4 0.5 1 0.7 0.6 0.3 1.2 0.2 0.6 0 1.1-0.4 0.5-0.4 0.8-1 0-0.2 0.1-0.3 0 0 0-0.1 0.2-0.8-0.1-1.6-0.4-0.8-1.2-1.2-0.6-0.2-1.2-0.1z"/><path class="a" d="m103.2 289.1q-0.4-0.6-0.4-1.4 0-0.8 0.4-1.6 0.1-0.1 0.2-0.2 0.2 0 0.3 0l4.2 2.1q0.3-0.9 0-1.7-0.3-0.8-1.2-1.2-0.4-0.2-0.8-0.3-0.4 0-0.8 0-0.1 0.1-0.3 0-0.1 0-0.2-0.2 0-0.2 0-0.3 0.1-0.2 0.3-0.2 0.5-0.1 1.1-0.1 0.6 0.1 1.1 0.4 0.8 0.4 1.3 1.1 0.4 0.7 0.5 1.5 0 0.8-0.4 1.7-0.4 0.8-1.1 1.3-0.7 0.5-1.5 0.5-0.8 0.1-1.6-0.3-0.7-0.4-1.1-1.1zm3 0.5q0.8-0.2 1.3-0.9l-3.8-1.9q-0.3 0.8 0 1.5 0.2 0.8 1 1.2 0.8 0.4 1.5 0.1z"/><path class="a" d="m97.7 286.5q-0.2-0.3-0.1-0.5 0.1 0 0.1-0.1 0.1-0.1 0.2-0.1 0.1 0 0.3 0.1 0.1 0.1 0.3 0.2 0.1 0.1 0.2 0.1 0.8 0.5 1.5 0.3 0.7-0.1 1-0.8l1.7-3q0.1-0.1 0.3-0.2 0.1 0 0.3 0.1 0.2 0.1 0.2 0.2 0.1 0.2 0 0.4l-2.7 4.7q-0.1 0.2-0.2 0.2-0.2 0.1-0.4 0-0.1-0.1-0.2-0.3 0-0.1 0.1-0.3l0.2-0.5q-0.5 0.3-1.1 0.3-0.6-0.1-1.1-0.3-0.4-0.3-0.6-0.5z"/><path class="a" d="m93.5 283.6q-0.4-0.8-0.4-1.6 0-0.9 0.5-1.6l1.4-2.3q0.1-0.2 0.3-0.2 0.1-0.1 0.3 0 0.2 0.1 0.2 0.3 0.1 0.2-0.1 0.3l-0.3 0.6q0.6-0.2 1.3-0.2 0.7 0.1 1.3 0.5 0.8 0.4 1.2 1.1 0.4 0.8 0.3 1.6 0 0.8-0.5 1.6-0.4 0.8-1.2 1.2-0.7 0.4-1.6 0.3-0.8 0-1.6-0.4-0.7-0.5-1.1-1.3zm2.9-3.9q-0.6 0-1.2 0.3-0.5 0.3-0.9 0.9-0.3 0.6-0.4 1.2 0 0.6 0.3 1.2 0.3 0.5 0.8 0.9 0.6 0.3 1.2 0.3 0.6 0 1.2-0.3 0.5-0.3 0.9-0.9 0.3-0.6 0.4-1.2 0-0.6-0.3-1.1-0.3-0.6-0.9-0.9-0.5-0.4-1.1-0.4z"/><path class="a" d="m91.4 276q0-0.2 0.1-0.3 0.1-0.2 0.2-0.2 0.2 0 0.4 0.1l0.2 0.1q0.5 0.4 0.7 0.9 0.3 0.5 0.2 1 0 0.6-0.4 1.1l-1.7 2.6 0.6 0.4q0.2 0.1 0.2 0.2 0 0.2-0.1 0.3 0 0.2-0.2 0.2-0.2 0-0.3-0.1l-0.6-0.4-1 1.5q-0.1 0.2-0.3 0.2-0.2 0-0.3-0.1-0.2-0.1-0.2-0.3-0.1-0.1 0-0.3l1-1.5-1-0.7q-0.2-0.1-0.2-0.2-0.1-0.2 0-0.3 0.1-0.2 0.3-0.2 0.1 0 0.3 0.1l1.1 0.7 1.7-2.6q0.3-0.4 0.2-0.9 0-0.5-0.5-0.8l-0.3-0.2q-0.1-0.1-0.1-0.3z"/><path class="a" d="m86.5 281q0 0.2-0.2 0.4-0.1 0.3-0.4 0.3-0.2 0-0.4-0.1-0.2-0.2-0.3-0.4 0-0.3 0.1-0.5 0.2-0.2 0.4-0.2 0.3-0.1 0.5 0.1 0.2 0.1 0.3 0.4zm4.2-6.2q0.1 0.1-0.1 0.3l-3.1 4.4q-0.1 0.2-0.3 0.2-0.1 0-0.3-0.1-0.2-0.1-0.2-0.3 0-0.2 0.1-0.3l3.1-4.4q0.1-0.2 0.3-0.2 0.2 0 0.3 0.1 0.2 0.1 0.2 0.3z"/><path class="a" d="m87.7 272.8q0.3 0.8 0.2 1.6-0.1 0.9-0.7 1.6-0.5 0.7-1.3 1-0.8 0.4-1.6 0.2-0.9-0.1-1.6-0.6-0.7-0.6-1-1.3-0.3-0.8-0.2-1.7 0.1-0.8 0.6-1.5 0.6-0.7 1.4-1.1 0.7-0.3 1.6-0.2 0.8 0.1 1.5 0.7 0.7 0.6 1.1 1.3zm-2.7-1.1q-0.6-0.1-1.2 0.1-0.6 0.3-1 0.8-0.4 0.6-0.5 1.2-0.1 0.6 0.1 1.2 0.3 0.5 0.8 0.9 0.5 0.5 1.1 0.5 0.7 0.1 1.2-0.1 0.6-0.3 1-0.8 0.4-0.6 0.5-1.2 0.1-0.6-0.1-1.2-0.3-0.6-0.8-1-0.5-0.4-1.1-0.4z"/><path class="a" d="m76 270.6q-0.3-0.7-0.2-1.4 0.2-0.8 0.8-1.5l1.9-2.2q0.2-0.2 0.3-0.2 0.2 0 0.4 0.1 0.1 0.1 0.1 0.3 0 0.2-0.1 0.3l-1.9 2.3q-0.7 0.8-0.6 1.6 0.1 0.7 0.8 1.3 0.4 0.4 0.9 0.5 0.5 0.2 0.9 0.1 0.5-0.2 0.8-0.5l2.2-2.6q0.1-0.1 0.3-0.2 0.2 0 0.3 0.1 0.2 0.2 0.2 0.3 0 0.2-0.1 0.4l-3.6 4.1q-0.1 0.1-0.3 0.1-0.1 0-0.3-0.1-0.1-0.1-0.2-0.3 0-0.2 0.2-0.3l0.2-0.3q-0.5 0.1-1.1-0.1-0.6-0.2-1.1-0.6-0.6-0.5-0.8-1.2z"/><path class="a" d="m248.9 271.1q-0.1-0.1-0.1-0.3 0-0.1 0.2-0.3 0.1-0.1 0.2-0.1 0.1 0 0.2 0.1l3.8 1.1 0.1-0.1 1.3-1.1-2-2.3q-0.1-0.2-0.1-0.4 0-0.2 0.2-0.3 0.1-0.1 0.3-0.1 0.2 0 0.3 0.2l5.2 6.1q0.2 0.2 0.1 0.4 0 0.2-0.1 0.3l-1.7 1.4q-0.6 0.5-1.3 0.7-0.8 0.1-1.4-0.1-0.7-0.3-1.3-0.9-0.5-0.6-0.6-1.5-0.1-0.8 0.4-1.5l-3.4-1.1q-0.2-0.1-0.3-0.2zm5 1.1q-0.5 0.3-0.7 0.8-0.2 0.5-0.1 1 0.1 0.5 0.4 0.9 0.4 0.4 0.8 0.6 0.5 0.1 1 0 0.5-0.1 1-0.5l1.3-1.1-2.4-2.8z"/><path class="a" d="m248.5 278.5q-0.8 0-1.5-0.3-0.7-0.3-1.3-1-0.1-0.2-0.1-0.3 0.1-0.2 0.2-0.3l3.7-2.8q-0.7-0.7-1.5-0.8-0.9-0.1-1.7 0.5-0.3 0.3-0.5 0.6-0.3 0.4-0.3 0.7-0.1 0.2-0.2 0.3-0.1 0.1-0.3 0.1-0.2 0-0.3-0.2-0.1-0.1 0-0.3 0.1-0.5 0.4-1 0.3-0.5 0.8-0.8 0.7-0.6 1.5-0.7 0.8-0.1 1.6 0.2 0.8 0.3 1.3 1.1 0.6 0.7 0.7 1.5 0.2 0.8-0.1 1.6-0.3 0.7-1 1.2-0.7 0.5-1.5 0.6zm1.8-2.5q0.1-0.8-0.3-1.6l-3.3 2.6q0.6 0.6 1.3 0.7 0.8 0.1 1.5-0.4 0.7-0.5 0.8-1.3z"/><path class="a" d="m242.5 275.7q0.6-0.2 1.2-0.1 0.2 0.1 0.3 0.2 0.1 0.1 0 0.4 0 0.1-0.2 0.2-0.1 0.1-0.3 0.1-0.4-0.1-0.9 0-0.5 0.1-0.9 0.4-0.7 0.5-0.9 0.9-0.1 0.5 0.1 0.9 0.3 0.3 0.7 0.3 0.5 0 1.3-0.4 1.1-0.5 1.8-0.4 0.7 0 1.1 0.6 0.4 0.6 0.2 1.4-0.3 0.7-1.1 1.3-0.6 0.4-1.2 0.6-0.6 0.1-1.2-0.1-0.2-0.1-0.2-0.2-0.1-0.1-0.1-0.3 0.1-0.1 0.2-0.2 0.2-0.1 0.4-0.1 0.9 0.2 1.6-0.3 0.6-0.4 0.7-0.8 0.2-0.5 0-0.8-0.3-0.3-0.7-0.3-0.4 0-1.3 0.4-1.1 0.5-1.8 0.4-0.7-0.1-1.1-0.6-0.3-0.5-0.3-1 0-0.5 0.4-1 0.3-0.5 0.9-0.9 0.6-0.4 1.2-0.6z"/><path class="a" d="m237.7 279.1q0.8 0 1.6 0.4 0.7 0.4 1.2 1.2 0.5 0.7 0.5 1.6 0 0.8-0.4 1.6-0.4 0.7-1.1 1.2-0.8 0.5-1.6 0.5-0.9 0-1.6-0.4-0.8-0.4-1.2-1.1-0.5-0.8-0.6-1.6 0-0.9 0.4-1.6 0.4-0.8 1.2-1.2 0.7-0.5 1.6-0.6zm-2.1 2.1q-0.2 0.6-0.2 1.2 0 0.6 0.4 1.2 0.4 0.6 0.9 0.9 0.5 0.3 1.2 0.3 0.6 0 1.1-0.4 0.6-0.3 0.9-0.9 0.3-0.5 0.2-1.1 0-0.7-0.4-1.3-0.3-0.5-0.9-0.8-0.5-0.3-1.1-0.3-0.7 0-1.2 0.4-0.6 0.3-0.9 0.8z"/><path class="a" d="m230.6 290q-0.2 0-0.3-0.2l-2.6-4.7q-0.1-0.2 0-0.3 0-0.2 0.2-0.3 0.1-0.1 0.3-0.1 0.2 0.1 0.3 0.3l0.2 0.3q0.1-0.6 0.4-1 0.4-0.5 1-0.8 0.7-0.4 1.4-0.4 0.7 0 1.4 0.4 0.6 0.4 1.1 1.2l1.4 2.6q0.1 0.2 0.1 0.3-0.1 0.2-0.2 0.3-0.2 0.1-0.4 0-0.2 0-0.2-0.2l-1.5-2.6q-0.5-0.9-1.3-1.1-0.7-0.2-1.5 0.3-0.5 0.2-0.8 0.6-0.3 0.5-0.3 0.9-0.1 0.5 0.1 0.9l1.7 3q0.1 0.2 0 0.3 0 0.2-0.2 0.3-0.1 0.1-0.3 0z"/><path class="a" d="m225.7 292.5q-0.3 0-0.4-0.2 0 0 0-0.1 0-0.1 0-0.2 0.1-0.1 0.2-0.2 0.1 0 0.4-0.1 0.1-0.1 0.2-0.1 0.8-0.4 1.1-1.1 0.3-0.6-0.1-1.3l-1.5-3.1q-0.1-0.2 0-0.3 0-0.2 0.2-0.3 0.2-0.1 0.3 0 0.2 0 0.3 0.2l2.4 4.9q0.1 0.2 0 0.3 0 0.2-0.2 0.3-0.2 0.1-0.3 0-0.2 0-0.3-0.2l-0.2-0.5q-0.1 0.6-0.4 1.1-0.4 0.4-0.9 0.7-0.5 0.2-0.8 0.2z"/><path class="a" d="m221.7 287.9q0.8 0.1 1.4 0.6 0.7 0.5 1.1 1.4 0.4 0.8 0.3 1.6 0 0.8-0.5 1.5-0.5 0.7-1.3 1-1.3 0.6-2.5 0-0.2-0.1-0.2-0.2-0.1-0.2 0-0.4 0.1-0.1 0.2-0.1 0.2-0.1 0.4 0 0.4 0.2 0.9 0.2 0.5 0 0.9-0.2 0.6-0.3 0.9-0.7 0.4-0.5 0.4-1.1 0-0.7-0.3-1.3-0.3-0.6-0.8-1-0.4-0.4-1-0.4-0.6-0.1-1.3 0.2-0.8 0.3-1.1 1-0.1 0.2-0.2 0.3-0.2 0-0.3 0-0.2-0.1-0.3-0.2 0-0.2 0-0.3 0.5-1.1 1.6-1.6 0.8-0.3 1.7-0.2z"/><path class="a" d="m215.3 296.7q-0.8-0.1-1.4-0.7-0.6-0.5-0.9-1.3-0.1-0.2 0-0.3 0-0.2 0.2-0.2l4.3-1.7q-0.4-0.9-1.2-1.2-0.8-0.3-1.7 0.1-0.4 0.1-0.7 0.4-0.4 0.3-0.5 0.6-0.1 0.1-0.3 0.2-0.1 0-0.2 0-0.2-0.1-0.3-0.2 0-0.2 0-0.3 0.3-0.5 0.7-0.9 0.5-0.4 1-0.6 0.9-0.3 1.7-0.2 0.8 0.1 1.4 0.6 0.7 0.6 1 1.4 0.4 0.9 0.3 1.7-0.1 0.8-0.6 1.5-0.5 0.6-1.3 0.9-0.8 0.3-1.6 0.2zm2.5-1.9q0.3-0.8 0.1-1.6l-3.9 1.5q0.4 0.8 1.1 1.1 0.7 0.3 1.5 0 0.8-0.3 1.1-1z"/><path class="a" d="m210.3 292.4q0.7 0 1.2 0.3 0.2 0.1 0.2 0.2 0 0.2-0.1 0.4-0.1 0.1-0.2 0.2-0.2 0-0.4-0.1-0.3-0.2-0.8-0.2-0.5 0-1 0.1-0.8 0.3-1.1 0.7-0.3 0.4-0.2 0.8 0.2 0.4 0.7 0.5 0.4 0.2 1.3 0 1.1-0.2 1.8 0.1 0.7 0.2 0.9 0.8 0.2 0.8-0.2 1.5-0.5 0.6-1.4 0.9-0.7 0.3-1.4 0.2-0.6 0-1-0.4-0.2-0.1-0.2-0.2-0.1-0.2 0.1-0.3 0-0.1 0.1-0.2 0.3 0 0.5 0.1 0.7 0.4 1.7 0.1 0.6-0.2 0.8-0.6 0.3-0.4 0.2-0.7-0.1-0.4-0.6-0.5-0.4-0.2-1.3 0-1.2 0.2-1.9-0.1-0.6-0.3-0.8-0.9-0.2-0.5 0-1 0.1-0.5 0.6-0.9 0.4-0.4 1.1-0.6 0.7-0.3 1.4-0.2z"/><path class="a" d="m190.6 296.5q0.2 0.1 0.2 0.3l1.3 8q0 0.2-0.1 0.3-0.1 0.2-0.3 0.2l-2 0.4q-1.3 0.2-2.4-0.2-1.1-0.4-1.8-1.4-0.8-0.9-1-2.2-0.2-1.2 0.2-2.3 0.4-1.1 1.4-1.9 0.9-0.7 2.2-0.9l2-0.3q0.2-0.1 0.3 0zm-2.2 1.1q-1.1 0.2-1.8 0.8-0.7 0.6-1 1.5-0.3 0.9-0.2 1.9 0.2 1.1 0.8 1.8 0.5 0.8 1.4 1.1 0.9 0.3 1.9 0.2l1.6-0.3-1.1-7.3z"/><path class="a" d="m178.6 304q-0.6-0.3-1.1-1-0.4-0.7-0.5-1.5 0-0.2 0.1-0.3 0.1-0.2 0.3-0.2l4.6-0.4q-0.2-1-0.9-1.5-0.7-0.5-1.7-0.4-0.4 0-0.8 0.2-0.4 0.2-0.6 0.5-0.1 0.1-0.3 0.1-0.1 0-0.3-0.1-0.1-0.1-0.1-0.3 0-0.1 0.1-0.2 0.3-0.4 0.9-0.7 0.5-0.3 1.1-0.3 0.9-0.1 1.7 0.2 0.7 0.4 1.2 1.1 0.5 0.6 0.6 1.6 0.1 0.9-0.2 1.6-0.4 0.8-1 1.3-0.6 0.5-1.5 0.5-0.9 0.1-1.5-0.2zm2.8-1.2q0.5-0.6 0.6-1.5l-4.2 0.4q0.2 0.9 0.8 1.4 0.6 0.4 1.4 0.4 0.9-0.1 1.4-0.7z"/><path class="a" d="m174.3 298.7q0.8 0.4 1.2 1.1 0.5 0.7 0.5 1.6 0.1 0.9-0.3 1.7-0.4 0.7-1 1.2-0.7 0.4-1.6 0.5-1.4 0-2.3-1-0.1-0.1-0.1-0.3 0-0.1 0.1-0.3 0.1-0.1 0.2-0.1 0.2 0 0.4 0.2 0.3 0.3 0.8 0.5 0.4 0.2 0.9 0.2 0.6-0.1 1.1-0.4 0.5-0.3 0.7-0.9 0.3-0.6 0.2-1.2 0-0.7-0.3-1.2-0.3-0.6-0.8-0.9-0.6-0.3-1.2-0.2-1 0-1.5 0.6-0.1 0.1-0.3 0.1-0.1 0-0.3-0.1-0.1-0.1-0.2-0.3 0-0.1 0.1-0.2 0.8-0.9 2.1-0.9 0.9-0.1 1.6 0.3z"/><path class="a" d="m168.6 306.2q0.2 0.2 0.2 0.5 0 0.2-0.2 0.4-0.1 0.2-0.4 0.2-0.3 0-0.4-0.2-0.2-0.1-0.2-0.4 0-0.3 0.1-0.5 0.2-0.2 0.5-0.2 0.3 0 0.4 0.2zm-0.2-7.5q0.1 0.1 0.2 0.3v5.4q0 0.2-0.1 0.3-0.1 0.1-0.3 0.1-0.2 0-0.4-0.1-0.1-0.1-0.1-0.3v-5.4q0-0.2 0.1-0.3 0.1-0.2 0.3-0.2 0.2 0 0.3 0.2z"/><path class="a" d="m164.7 298.7q0.6 0.3 1 0.7 0.1 0.2 0.1 0.3 0 0.2-0.2 0.3-0.1 0.1-0.3 0.1-0.2 0-0.3-0.1-0.3-0.4-0.7-0.5-0.5-0.2-1-0.2-0.8-0.1-1.2 0.2-0.4 0.3-0.5 0.7 0 0.4 0.4 0.7 0.4 0.3 1.3 0.5 1.1 0.2 1.6 0.6 0.6 0.5 0.6 1.1 0 0.9-0.7 1.3-0.7 0.5-1.6 0.5-0.8-0.1-1.4-0.3-0.5-0.3-0.9-0.8 0-0.1 0-0.2 0-0.2 0.2-0.4 0 0 0.2 0 0.2 0 0.4 0.2 0.5 0.6 1.5 0.7 0.6 0 1-0.3 0.4-0.2 0.4-0.6 0-0.4-0.3-0.7-0.4-0.2-1.3-0.4-1.2-0.3-1.7-0.7-0.5-0.5-0.5-1.2 0-0.5 0.3-0.9 0.4-0.4 0.9-0.7 0.6-0.2 1.3-0.2 0.7 0.1 1.4 0.3z"/><path class="a" d="m158.7 306q0.2 0.2 0.2 0.4-0.1 0.3-0.3 0.5-0.2 0.1-0.4 0.1-0.3 0-0.4-0.2-0.2-0.2-0.2-0.4 0-0.3 0.2-0.5 0.2-0.2 0.5-0.1 0.2 0 0.4 0.2zm0.3-7.6q0.1 0.2 0.1 0.4l-0.3 5.3q0 0.2-0.1 0.3-0.2 0.2-0.4 0.2-0.2 0-0.3-0.2-0.1-0.1-0.1-0.3l0.4-5.4q0-0.2 0.1-0.3 0.1-0.1 0.3-0.1 0.2 0 0.3 0.1z"/><path class="a" d="m154.9 298.4q0.7 0.5 1 1.2 0.3 0.8 0.2 1.7-0.1 0.9-0.5 1.6-0.5 0.7-1.3 1-0.8 0.3-1.7 0.2-0.9-0.1-1.6-0.5-0.6-0.5-1-1.3-0.3-0.8-0.2-1.7 0.1-0.9 0.5-1.6 0.5-0.7 1.3-1 0.8-0.3 1.7-0.2 0.9 0.1 1.6 0.6zm-2.9 0.4q-0.6 0.2-0.9 0.7-0.4 0.5-0.5 1.2-0.1 0.7 0.2 1.3 0.2 0.5 0.7 0.9 0.5 0.4 1.2 0.4 0.6 0.1 1.2-0.1 0.6-0.3 0.9-0.8 0.4-0.5 0.4-1.2 0.1-0.7-0.1-1.3-0.3-0.5-0.8-0.9-0.5-0.4-1.1-0.4-0.7-0.1-1.2 0.2z"/><path class="a" d="m143.2 302.5q-0.6-0.5-0.9-1.2-0.2-0.7-0.1-1.6l0.5-3q0-0.1 0.2-0.2 0.1-0.1 0.3-0.1 0.2 0 0.3 0.2 0.1 0.1 0.1 0.3l-0.5 3q-0.2 1 0.3 1.6 0.5 0.6 1.4 0.8 0.5 0 1-0.1 0.5-0.1 0.8-0.5 0.4-0.3 0.4-0.8l0.6-3.3q0-0.2 0.2-0.3 0.1-0.1 0.3-0.1 0.2 0 0.3 0.2 0.1 0.1 0.1 0.3l-0.9 5.3q0 0.2-0.2 0.3-0.1 0.1-0.3 0.1-0.2 0-0.3-0.2-0.1-0.1-0.1-0.3l0.1-0.4q-0.5 0.4-1 0.5-0.6 0.2-1.2 0.1-0.9-0.2-1.4-0.6z"/><path class="a" d="m288.2 220.5q0.2-0.1 0.3 0l7.4 3.3q0.2 0.1 0.2 0.2 0.1 0.2 0 0.4l-2.2 4.9q0 0.2-0.2 0.2-0.2 0.1-0.3 0-0.2-0.1-0.3-0.2 0-0.2 0-0.4l2.1-4.5-2.9-1.3-1.5 3.3q-0.1 0.2-0.2 0.3-0.2 0-0.4 0-0.1-0.1-0.2-0.3-0.1-0.2 0-0.3l1.5-3.3-3-1.3-2 4.5q-0.1 0.2-0.2 0.2-0.2 0.1-0.4 0-0.1 0-0.2-0.2 0-0.2 0-0.3l2.2-5q0.1-0.1 0.3-0.2z"/><path class="a" d="m288.2 234.1q-0.6 0.4-1.3 0.4-0.8 0-1.6-0.4l-2.7-1.4q-0.1-0.1-0.2-0.2 0-0.2 0.1-0.4 0-0.1 0.2-0.2 0.2 0 0.3 0l2.7 1.4q0.9 0.5 1.7 0.2 0.7-0.2 1.1-1.1 0.3-0.5 0.3-1 0-0.5-0.2-0.9-0.3-0.4-0.7-0.6l-3-1.6q-0.2-0.1-0.2-0.2-0.1-0.2 0-0.4 0.1-0.1 0.3-0.2 0.1-0.1 0.3 0l4.8 2.5q0.2 0.1 0.2 0.3 0.1 0.1 0 0.3-0.1 0.2-0.3 0.2-0.1 0.1-0.3 0l-0.4-0.2q0.2 0.5 0.2 1.1 0 0.6-0.3 1.2-0.4 0.7-1 1.1z"/><path class="a" d="m280.4 237.2q-0.1 0-0.3-0.1-0.2 0-0.2-0.2 0-0.2 0.1-0.4l0.1-0.2q0.3-0.5 0.8-0.8 0.5-0.3 1-0.3 0.6 0.1 1.2 0.4l2.6 1.5 0.4-0.6q0.1-0.2 0.2-0.2 0.2-0.1 0.3 0 0.2 0.1 0.2 0.2 0 0.2 0 0.4l-0.4 0.6 1.5 0.9q0.2 0.1 0.2 0.3 0.1 0.1 0 0.3-0.1 0.2-0.3 0.2-0.2 0.1-0.3 0l-1.6-0.9-0.6 1.1q-0.1 0.2-0.2 0.2-0.2 0-0.3 0-0.2-0.1-0.2-0.3-0.1-0.1 0-0.3l0.7-1.1-2.7-1.6q-0.5-0.3-1-0.1-0.5 0.1-0.8 0.5l-0.1 0.3q-0.1 0.2-0.3 0.2z"/><path class="a" d="m278.9 238.4q0.2 0 0.4 0.1l4.6 2.8q0.1 0.1 0.2 0.3 0 0.2-0.1 0.3-0.1 0.2-0.3 0.2-0.1 0.1-0.3 0l-4.6-2.9q-0.1-0.1-0.2-0.2 0-0.2 0.1-0.4 0.1-0.1 0.2-0.2zm6.5 3.9q0.3-0.1 0.5 0 0.3 0.2 0.3 0.4 0.1 0.3-0.1 0.5-0.1 0.2-0.4 0.3-0.2 0-0.4-0.1-0.3-0.1-0.3-0.4-0.1-0.2 0.1-0.5 0.1-0.2 0.3-0.3z"/><path class="a" d="m276.2 243.8q-0.2 0.1-0.3 0-0.2-0.1-0.2-0.3 0-0.2 0.1-0.4l0.1-0.2q0.3-0.5 0.9-0.7 0.5-0.3 1-0.2 0.6 0 1.1 0.4l2.6 1.7 0.4-0.7q0.1-0.1 0.2-0.1 0.2-0.1 0.3 0 0.2 0.1 0.2 0.3 0 0.1-0.1 0.3l-0.4 0.6 1.5 1q0.2 0.1 0.2 0.2 0.1 0.2-0.1 0.4-0.1 0.1-0.2 0.2-0.2 0-0.4-0.1l-1.5-1-0.7 1.1q-0.1 0.2-0.2 0.2-0.2 0-0.3-0.1-0.2-0.1-0.2-0.2 0-0.2 0.1-0.3l0.7-1.1-2.6-1.7q-0.5-0.3-1-0.2-0.5 0.1-0.8 0.5l-0.1 0.3q-0.1 0.1-0.3 0.1z"/><path class="a" d="m276.5 252.3q-0.1-0.1-0.1-0.2l-4.5-7.8q-0.1-0.2 0-0.4 0.1-0.1 0.2-0.2 0.2-0.1 0.4 0 0.1 0.1 0.1 0.2l1.4 2.4 5.8 1q0.1 0.1 0.2 0.1 0.2 0.2 0.1 0.4 0 0.1 0 0.2-0.2 0.2-0.5 0.2l-5.1-1 2.6 4.5q0.1 0.2 0 0.4-0.1 0.1-0.2 0.2-0.2 0.1-0.4 0z"/><path class="a" d="m296.9 143.6q0-0.2 0.3-0.2l7.9-1.4q0.2-0.1 0.4 0 0.1 0.1 0.1 0.3l0.5 2.8q0.2 0.7 0 1.3-0.2 0.6-0.7 1-0.4 0.4-1.1 0.5-0.6 0.1-1.1-0.1-0.5-0.3-0.9-0.8-0.1 0.9-0.5 1.4-0.5 0.6-1.4 0.7-0.7 0.1-1.4-0.1-0.7-0.3-1.1-0.8-0.4-0.6-0.6-1.4l-0.5-2.9q0-0.2 0.1-0.3zm1.3 3.1q0.1 0.8 0.7 1.2 0.6 0.5 1.4 0.3 0.7-0.1 1.1-0.7 0.4-0.6 0.2-1.4l-0.4-2.5-3.5 0.6 0.5 2.5zm4.2-1q0.2 0.7 0.6 1.1 0.5 0.4 1.2 0.3 0.6-0.2 0.9-0.7 0.3-0.5 0.2-1.2l-0.4-2.3-2.9 0.5 0.4 2.4z"/><path class="a" d="m304.6 153.3q-0.1 0.3-0.4 0.4 0 0-0.1 0-0.1-0.1-0.2-0.2-0.1 0-0.1-0.2 0-0.1 0-0.4 0-0.1 0-0.2-0.1-0.9-0.7-1.4-0.5-0.5-1.2-0.4l-3.4 0.5q-0.2 0-0.4-0.1-0.1-0.1-0.1-0.3-0.1-0.2 0-0.3 0.2-0.2 0.3-0.2l5.4-0.7q0.2 0 0.3 0.1 0.2 0.1 0.2 0.3 0 0.2-0.1 0.3-0.1 0.1-0.3 0.2h-0.5q0.6 0.3 0.9 0.8 0.3 0.5 0.4 1.1 0.1 0.4 0 0.7z"/><path class="a" d="m304.8 158.5q-0.4 0.7-1.1 1.2-0.7 0.5-1.6 0.6l-2.7 0.2q-0.2 0.1-0.3-0.1-0.1-0.1-0.1-0.3-0.1-0.2 0.1-0.3 0.1-0.1 0.3-0.1l0.6-0.1q-0.5-0.4-0.9-0.9-0.4-0.6-0.5-1.4 0-0.9 0.3-1.6 0.4-0.7 1.1-1.2 0.7-0.5 1.5-0.6 0.9 0 1.7 0.3 0.8 0.4 1.2 1.1 0.5 0.7 0.6 1.5 0.1 0.9-0.3 1.7zm-4.8 0q0.3 0.5 0.9 0.8 0.6 0.2 1.2 0.1 0.7 0 1.2-0.4 0.5-0.3 0.8-0.9 0.3-0.5 0.2-1.2 0-0.6-0.4-1.2-0.4-0.5-0.9-0.7-0.6-0.3-1.3-0.2-0.7 0.1-1.2 0.4-0.5 0.4-0.8 0.9-0.2 0.6-0.2 1.2 0.1 0.7 0.5 1.2z"/><path class="a" d="m305.2 165.9q-0.3 0.6-0.9 1-0.7 0.4-1.6 0.4l-3 0.1q-0.2 0.1-0.3-0.1-0.1-0.1-0.2-0.3 0-0.2 0.2-0.3 0.1-0.1 0.3-0.1l2.9-0.2q1.1 0 1.6-0.6 0.5-0.6 0.5-1.5-0.1-0.6-0.3-1-0.2-0.4-0.6-0.7-0.4-0.2-0.9-0.2l-3.4 0.1q-0.2 0-0.3-0.1-0.1-0.1-0.1-0.3 0-0.2 0.1-0.4 0.1-0.1 0.3-0.1l5.4-0.2q0.2 0 0.3 0.1 0.2 0.1 0.2 0.3 0 0.2-0.2 0.4-0.1 0.1-0.3 0.1h-0.4q0.5 0.4 0.7 0.9 0.3 0.5 0.3 1.2 0 0.8-0.3 1.4z"/><path class="a" d="m305 174.9l-2.7-0.1q-0.9 0-1.6-0.4-0.7-0.4-1.1-1.2-0.5-0.7-0.4-1.6 0-0.9 0.4-1.6 0.4-0.8 1.2-1.2 0.7-0.4 1.6-0.4 0.9 0.1 1.7 0.5 0.7 0.4 1.1 1.1 0.4 0.7 0.4 1.6 0 0.8-0.4 1.4-0.3 0.6-0.9 1l3.4 0.1q0.2 0 0.3 0.1 0.1 0.1 0.1 0.3 0 0.2-0.1 0.3-0.1 0.1-0.3 0.1h-2.6c0 0 0 0-0.1 0zm-4.7-2.1q0.3 0.5 0.8 0.8 0.6 0.3 1.2 0.3 0.2 0 0.3 0 0.1 0 0.1 0 0.9-0.1 1.5-0.7 0.6-0.6 0.6-1.5 0-0.7-0.3-1.2-0.3-0.6-0.8-0.9-0.6-0.3-1.3-0.3-0.6 0-1.2 0.3-0.5 0.3-0.9 0.8-0.3 0.5-0.3 1.2 0 0.6 0.3 1.2z"/><path class="a" d="m299.1 176.5q0.2-0.1 0.4-0.1l5.4 0.3q0.2 0 0.3 0.2 0.1 0.1 0.1 0.3 0 0.2-0.2 0.3-0.1 0.1-0.3 0.1l-5.4-0.3q-0.2 0-0.3-0.1-0.1-0.2-0.1-0.4 0-0.1 0.2-0.3zm7.5 0.4q0.2-0.2 0.5-0.2 0.2 0 0.4 0.2 0.2 0.2 0.1 0.5 0 0.2-0.2 0.4-0.1 0.2-0.4 0.2-0.3 0-0.5-0.2-0.1-0.2-0.1-0.5 0-0.3 0.2-0.4z"/><path class="a" d="m304.5 183.9q-0.4 0.6-1.1 0.9-0.7 0.3-1.6 0.2l-3-0.3q-0.2 0-0.3-0.1-0.1-0.2-0.1-0.4 0-0.2 0.1-0.3 0.2-0.1 0.4-0.1l2.9 0.3q1 0.1 1.6-0.4 0.6-0.5 0.7-1.4 0.1-0.6-0.1-1.1-0.2-0.4-0.5-0.7-0.4-0.3-0.9-0.4l-3.3-0.3q-0.2 0-0.4-0.2-0.1-0.1 0-0.3 0-0.2 0.1-0.3 0.1-0.1 0.3-0.1l5.4 0.5q0.2 0 0.3 0.2 0.1 0.1 0.1 0.3 0 0.2-0.1 0.3-0.2 0.1-0.4 0.1h-0.4q0.4 0.4 0.6 0.9 0.2 0.6 0.1 1.2 0 0.9-0.4 1.5z"/><path class="a" d="m303.4 191.3q-0.6 0.7-1.3 1-0.8 0.3-1.7 0.1l-2.4-0.3q-0.9-0.2-1.6-0.7-0.6-0.5-0.9-1.3-0.4-0.8-0.2-1.7 0.1-0.9 0.5-1.5 0.5-0.6 1.1-1 0.2-0.1 0.3-0.1 0.2 0.1 0.3 0.2 0.1 0.2 0 0.3 0 0.1 0 0.2-0.1 0.1-0.2 0.1-0.5 0.3-0.8 0.8-0.3 0.5-0.4 1.1-0.1 0.7 0.1 1.2 0.2 0.6 0.8 1 0.5 0.4 1.2 0.5l0.5 0.1q-0.6-0.5-0.8-1.2-0.3-0.6-0.2-1.4 0.1-0.9 0.7-1.6 0.5-0.6 1.2-0.9 0.8-0.3 1.7-0.1 0.9 0.1 1.6 0.6 0.7 0.6 1 1.3 0.3 0.8 0.1 1.7-0.1 0.9-0.6 1.6zm-4.8-1.2q0.2 0.6 0.7 0.9 0.5 0.4 1.2 0.5 0.7 0.1 1.3-0.1 0.5-0.2 0.9-0.7 0.4-0.5 0.5-1.1 0.1-0.7-0.1-1.3-0.2-0.5-0.7-0.9-0.5-0.4-1.2-0.5-0.7-0.1-1.3 0.1-0.6 0.2-0.9 0.7-0.4 0.5-0.5 1.2-0.1 0.6 0.1 1.2z"/><path class="a" d="m274.5 91.4q0-0.2 0.2-0.3l6.6-4.7q0.2-0.1 0.3 0 0.2 0 0.3 0.1l1.3 1.9q0.5 0.7 0.6 1.5 0.1 0.7-0.3 1.4-0.3 0.7-1 1.2-0.7 0.5-1.4 0.5-0.8 0.1-1.5-0.2-0.6-0.4-1.1-1l-1.1-1.6-2.2 1.6q-0.2 0.1-0.3 0.1-0.2 0-0.3-0.2-0.1-0.2-0.1-0.4zm4.7 0q0.3 0.4 0.8 0.7 0.5 0.2 1 0.1 0.5 0 1-0.3 0.5-0.4 0.7-0.9 0.3-0.4 0.2-1 0-0.5-0.4-1l-1-1.5-3.4 2.3 1.1 1.6z"/><path class="a" d="m278.8 96.9q0.2-0.7 0.9-1.2l5.6-3.5q0.1-0.1 0.3-0.1 0.2 0.1 0.3 0.2 0.1 0.2 0 0.4 0 0.1-0.2 0.2l-5.5 3.6q-0.4 0.2-0.6 0.6-0.1 0.3 0.1 0.6l0.1 0.2q0.1 0.2 0.1 0.3-0.1 0.2-0.2 0.3-0.2 0.1-0.4 0-0.2 0-0.3-0.2l-0.1-0.1q-0.3-0.6-0.1-1.3z"/><path class="a" d="m287.2 100.4q0 0.8-0.4 1.6-0.4 0.7-1.2 1.2l-2.3 1.3q-0.2 0.1-0.3 0.1-0.2-0.1-0.3-0.2-0.1-0.2-0.1-0.4 0.1-0.1 0.3-0.2l0.5-0.4q-0.6-0.1-1.2-0.4-0.6-0.4-1-1.1-0.4-0.7-0.4-1.5 0-0.8 0.4-1.6 0.4-0.7 1.2-1.2 0.7-0.4 1.6-0.4 0.8 0 1.6 0.4 0.7 0.4 1.2 1.2 0.4 0.7 0.4 1.6zm-4.4 2.1q0.5 0.3 1.2 0.3 0.6-0.1 1.2-0.4 0.6-0.3 0.9-0.9 0.3-0.5 0.3-1.1 0-0.7-0.3-1.2-0.4-0.6-0.9-0.9-0.6-0.3-1.2-0.3-0.6 0-1.2 0.4-0.6 0.3-0.9 0.9-0.3 0.5-0.3 1.1 0 0.6 0.3 1.2 0.4 0.6 0.9 0.9z"/><path class="a" d="m291.1 107.4q0 0.7-0.5 1.4-0.4 0.6-1.2 1l-2.7 1.4q-0.1 0.1-0.3 0-0.2-0.1-0.2-0.2-0.1-0.2-0.1-0.4 0.1-0.1 0.3-0.2l2.6-1.4q0.9-0.4 1.1-1.2 0.3-0.7-0.2-1.6-0.2-0.5-0.6-0.8-0.4-0.3-0.9-0.3-0.4-0.1-0.9 0.1l-3 1.6q-0.2 0.1-0.3 0-0.2 0-0.3-0.2-0.1-0.2 0-0.4 0-0.1 0.2-0.2l4.8-2.5q0.2-0.1 0.3 0 0.2 0 0.3 0.2 0.1 0.2 0 0.4 0 0.1-0.2 0.2l-0.3 0.2q0.5 0.1 1 0.5 0.4 0.4 0.7 0.9 0.4 0.8 0.4 1.5z"/><path class="a" d="m213.9 44q-0.6-0.8-0.7-1.6 0-0.1 0-0.2 0.1-0.2 0.2-0.2 0.2-0.1 0.4 0 0.1 0 0.2 0.1 0.1 0.2 0.1 0.3 0 0.6 0.5 1.1 0.5 0.5 1.2 0.8 0.9 0.3 1.6 0.1 0.7-0.2 1-1 0.2-0.7-0.1-1.3-0.3-0.7-1.3-1.2-1.2-0.6-1.7-1.5-0.4-0.9-0.1-1.8 0.3-0.6 0.8-1 0.5-0.4 1.2-0.4 0.7 0 1.5 0.3 0.9 0.3 1.4 0.9 0.5 0.6 0.6 1.4 0.1 0.1 0 0.2-0.1 0.2-0.3 0.3-0.1 0-0.2 0-0.1-0.1-0.2-0.2-0.1-0.1-0.1-0.2-0.3-1.2-1.5-1.6-0.8-0.4-1.5-0.2-0.6 0.2-0.9 0.9-0.5 1.2 1.5 2.3 1.2 0.6 1.7 1.5 0.4 0.9 0 1.9-0.3 0.8-0.8 1.2-0.6 0.4-1.3 0.4-0.8 0.1-1.6-0.2-1-0.4-1.6-1.1z"/><path class="a" d="m222.5 46.9q0.1 0.2 0 0.4-0.1 0.1-0.3 0.2-0.1 0.1-0.3 0l-0.3-0.1q-0.5-0.2-0.8-0.7-0.4-0.5-0.4-1-0.1-0.6 0.2-1.2l1.1-2.8-0.6-0.3q-0.2-0.1-0.3-0.2 0-0.1 0-0.3 0.1-0.1 0.2-0.2 0.2-0.1 0.3 0l0.7 0.3 0.7-1.6q0.1-0.2 0.3-0.3 0.1-0.1 0.3 0 0.2 0.1 0.3 0.3 0 0.1 0 0.3l-0.7 1.6 1.2 0.5q0.1 0.1 0.2 0.2 0.1 0.2 0 0.4-0.1 0.1-0.2 0.2-0.2 0-0.3-0.1l-1.2-0.5-1.2 2.9q-0.2 0.5-0.1 1 0.2 0.5 0.7 0.7l0.3 0.1q0.2 0.1 0.2 0.2z"/><path class="a" d="m228.9 43.9q0.2 0.2 0.1 0.4 0 0.1 0 0.1-0.1 0.1-0.2 0.1-0.2 0-0.3 0-0.1-0.1-0.3-0.2-0.1-0.1-0.3-0.1-0.8-0.4-1.4-0.2-0.7 0.2-1 0.9l-1.5 3.1q-0.1 0.2-0.2 0.2-0.2 0.1-0.4 0-0.1-0.1-0.2-0.2-0.1-0.2 0-0.4l2.3-4.9q0.1-0.2 0.2-0.2 0.2-0.1 0.4 0 0.2 0.1 0.2 0.2 0.1 0.2 0 0.4l-0.2 0.4q0.5-0.3 1.1-0.3 0.6 0 1.1 0.2 0.4 0.2 0.6 0.5z"/><path class="a" d="m233.4 46.4q0.4 0.7 0.5 1.6 0 0.8-0.4 1.6l-1.2 2.4q-0.1 0.2-0.3 0.3-0.1 0-0.3-0.1-0.2-0.1-0.2-0.2-0.1-0.2 0-0.4l0.3-0.6q-0.6 0.3-1.3 0.3-0.7 0-1.4-0.3-0.8-0.4-1.2-1.1-0.4-0.7-0.5-1.5 0-0.9 0.4-1.7 0.4-0.8 1.1-1.2 0.7-0.5 1.6-0.5 0.8-0.1 1.6 0.3 0.8 0.4 1.3 1.1zm-2.6 4.2q0.6-0.1 1.1-0.4 0.5-0.4 0.8-1 0.3-0.6 0.3-1.2 0-0.6-0.3-1.1-0.4-0.6-1-0.9-0.5-0.3-1.1-0.2-0.7 0-1.2 0.4-0.5 0.3-0.8 0.9-0.3 0.6-0.3 1.3 0 0.6 0.4 1.1 0.3 0.5 0.9 0.8 0.6 0.3 1.2 0.3z"/><path class="a" d="m236 53.8q0.1 0.2 0 0.4-0.1 0.1-0.3 0.2-0.2 0-0.3-0.1l-0.3-0.1q-0.5-0.3-0.8-0.8-0.2-0.5-0.2-1.1 0-0.5 0.3-1.1l1.5-2.7-0.7-0.3q-0.1-0.1-0.2-0.3 0-0.1 0.1-0.3 0.1-0.1 0.2-0.2 0.2 0 0.3 0.1l0.7 0.4 0.9-1.6q0.1-0.2 0.2-0.2 0.2-0.1 0.4 0 0.1 0.1 0.2 0.3 0 0.2-0.1 0.3l-0.9 1.6 1.2 0.6q0.1 0.1 0.2 0.3 0 0.1-0.1 0.3 0 0.1-0.2 0.2-0.1 0-0.3-0.1l-1.1-0.6-1.5 2.6q-0.3 0.5-0.2 1 0.1 0.5 0.6 0.8l0.2 0.2q0.2 0 0.2 0.2z"/><path class="a" d="m243.2 52.1q0.3 0.6 0.2 1.4 0 0.8-0.5 1.6-0.1 0.1-0.2 0.2-0.2 0-0.3-0.1l-4-2.4q-0.4 0.8-0.2 1.7 0.3 0.8 1.1 1.3 0.3 0.2 0.8 0.3 0.4 0.1 0.7 0.1 0.2 0 0.4 0 0.1 0.1 0.1 0.3 0.1 0.2 0 0.3-0.1 0.1-0.3 0.2-0.5 0-1.1-0.1-0.6-0.1-1-0.4-0.8-0.5-1.2-1.2-0.4-0.7-0.4-1.6 0.1-0.8 0.5-1.6 0.5-0.8 1.2-1.2 0.8-0.4 1.6-0.4 0.7 0 1.5 0.5 0.7 0.4 1.1 1.1zm-3-0.8q-0.8 0.2-1.4 0.9l3.6 2.2q0.4-0.8 0.2-1.6-0.2-0.7-0.9-1.2-0.8-0.4-1.6-0.3z"/><path class="a" d="m248.8 55.9q0.3 0.7 0.3 1.5-0.1 0.9-0.6 1.6l-1.4 2q-0.5 0.7-1.2 1.1-0.8 0.4-1.6 0.3-0.9 0-1.6-0.5-0.8-0.5-1.1-1.2-0.4-0.7-0.5-1.4 0-0.2 0.1-0.3 0.1-0.2 0.3-0.2 0.1 0 0.2 0.1 0.1 0.1 0.2 0.2 0 0.1 0 0.2 0.1 0.5 0.4 1 0.3 0.5 0.8 0.9 0.5 0.4 1.2 0.4 0.6 0 1.1-0.3 0.6-0.3 1-0.9l0.3-0.4q-0.6 0.4-1.4 0.3-0.7 0-1.4-0.5-0.7-0.5-1.1-1.3-0.3-0.7-0.2-1.5 0.1-0.8 0.6-1.6 0.5-0.8 1.3-1.1 0.7-0.4 1.6-0.3 0.8 0.1 1.5 0.6 0.8 0.5 1.2 1.2zm-3.2 3.8q0.6 0.1 1.2-0.2 0.5-0.3 0.9-0.9 0.4-0.5 0.5-1.2 0-0.6-0.2-1.1-0.3-0.6-0.8-1-0.6-0.4-1.2-0.4-0.6-0.1-1.2 0.2-0.5 0.3-0.9 0.9-0.4 0.5-0.5 1.2 0 0.6 0.2 1.1 0.3 0.6 0.8 1 0.6 0.4 1.2 0.4z"/><path class="a" d="m255.2 60.7q0 0.1-0.1 0.1l-8 4.3q-0.2 0.1-0.4 0-0.1-0.1-0.1-0.2-0.2-0.2 0-0.4 0-0.1 0.1-0.2l2.5-1.3 1.2-5.8q0-0.1 0.1-0.1 0.1-0.2 0.4-0.2 0.1 0.1 0.2 0.1 0.1 0.2 0.1 0.4l-1.1 5.1 4.6-2.4q0.2-0.1 0.4 0 0.1 0.1 0.1 0.2 0.2 0.2 0 0.4z"/><path class="a" d="m139.6 38.4q-1.1-0.4-1.8-1.2-0.8-0.9-1-2.1-0.2-1.1 0.1-2.2 0.4-1.1 1.2-1.8 0.8-0.7 2-1 1.2-0.2 2.2 0.1 1.1 0.4 1.8 1.2 0.8 0.8 1 2 0.2 1.2-0.1 2.3-0.4 1-1.2 1.8-0.8 0.7-2 1-1.2 0.2-2.2-0.1zm3.7-1.5q0.6-0.6 0.9-1.5 0.3-0.8 0.1-1.8-0.2-0.9-0.8-1.6-0.6-0.7-1.5-1-0.8-0.3-1.8-0.1-0.9 0.2-1.6 0.8-0.7 0.6-0.9 1.5-0.3 0.8-0.1 1.8 0.2 0.9 0.8 1.6 0.6 0.7 1.4 1 0.9 0.3 1.8 0.1 1-0.2 1.7-0.8z"/><path class="a" d="m150.5 31.3q0.7 0.3 1.2 0.9 0.5 0.6 0.6 1.5 0.1 0.8-0.2 1.5-0.2 0.7-0.8 1.2-0.6 0.5-1.4 0.6-0.7 0.1-1.3-0.1-0.6-0.2-1.1-0.7l0.5 3.1q0 0.2-0.1 0.3-0.1 0.1-0.3 0.1-0.1 0.1-0.3 0-0.1-0.1-0.1-0.3l-0.4-2.4c0 0 0 0 0 0l-0.3-2.5q-0.2-0.8 0.1-1.5 0.3-0.8 0.9-1.3 0.6-0.4 1.5-0.6 0.8-0.1 1.5 0.2zm0.2 4.5q0.5-0.3 0.7-0.9 0.2-0.5 0.1-1.1-0.1-0.7-0.4-1.1-0.4-0.5-0.9-0.7-0.5-0.2-1.1-0.1-0.6 0.1-1.1 0.4-0.4 0.4-0.6 0.9-0.2 0.5-0.1 1.2 0 0.2 0 0.2 0 0 0 0.1 0.2 0.8 0.9 1.2 0.7 0.5 1.5 0.3 0.6 0 1-0.4z"/><path class="a" d="m157.6 30.6q0.7 0.3 1.2 1 0.4 0.6 0.5 1.4 0 0.8-0.3 1.5-0.3 0.8-0.9 1.2-0.6 0.4-1.4 0.5-0.7 0.1-1.3-0.2-0.6-0.2-1-0.7l0.3 3.1q0 0.2-0.1 0.3-0.1 0.2-0.3 0.2-0.2 0-0.3-0.1-0.1-0.1-0.1-0.3l-0.2-2.4q-0.1 0-0.1-0.1l-0.2-2.4q-0.1-0.9 0.3-1.6 0.3-0.7 0.9-1.1 0.7-0.5 1.5-0.6 0.8 0 1.5 0.3zm0 4.5q0.5-0.3 0.7-0.8 0.3-0.6 0.2-1.2-0.1-0.6-0.4-1.1-0.3-0.5-0.8-0.7-0.5-0.3-1.1-0.2-0.6 0.1-1.1 0.4-0.5 0.3-0.7 0.8-0.2 0.6-0.2 1.2 0 0.2 0.1 0.3 0 0 0 0 0.2 0.8 0.8 1.3 0.6 0.5 1.5 0.4 0.6-0.1 1-0.4z"/><path class="a" d="m161.6 35.5q-0.6-0.4-1-1-0.5-0.7-0.5-1.5 0-0.9 0.3-1.6 0.4-0.7 1-1.1 0.7-0.4 1.5-0.4 0.9 0 1.6 0.3 0.6 0.4 1.1 1 0.4 0.7 0.4 1.5 0 0.9-0.3 1.6-0.4 0.6-1 1.1-0.7 0.4-1.5 0.4-0.9 0-1.6-0.3zm2.6-0.8q0.5-0.3 0.8-0.8 0.2-0.5 0.2-1.1 0-0.7-0.3-1.2-0.3-0.5-0.8-0.7-0.5-0.3-1.1-0.3-0.6 0.1-1.1 0.4-0.5 0.3-0.7 0.8-0.3 0.5-0.3 1.1 0 0.7 0.3 1.2 0.3 0.5 0.8 0.7 0.5 0.3 1.1 0.3 0.7-0.1 1.1-0.4z"/><path class="a" d="m170.4 29.9q0.3 0.1 0.3 0.4 0 0 0 0.1-0.1 0.1-0.1 0.2-0.1 0-0.3 0-0.1 0-0.3 0-0.1 0-0.3 0-0.8 0-1.3 0.4-0.5 0.4-0.5 1.1v3.2q0 0.2-0.1 0.3-0.1 0.1-0.3 0.1-0.2 0-0.3-0.2-0.1-0.1-0.1-0.2v-5q0-0.2 0.1-0.3 0.1-0.1 0.3-0.1 0.2 0 0.3 0.1 0.1 0.1 0.1 0.3v0.4q0.3-0.4 0.8-0.6 0.5-0.3 1-0.3 0.5 0 0.8 0.1z"/><path class="a" d="m174.2 35.1q0.1 0.1 0.1 0.3 0 0.2-0.1 0.3-0.2 0.1-0.3 0.1h-0.3q-0.5 0-1-0.3-0.4-0.3-0.6-0.8-0.3-0.4-0.2-1l0.1-2.9h-0.7q-0.2 0-0.3-0.1-0.1-0.1-0.1-0.2 0-0.2 0.1-0.3 0.1-0.1 0.3-0.1h0.7v-1.6q0-0.2 0.2-0.3 0.1-0.1 0.3-0.1 0.1 0 0.2 0.1 0.2 0.1 0.2 0.3l-0.1 1.7h1.2q0.2 0 0.3 0.1 0.1 0.1 0.1 0.3-0.1 0.1-0.2 0.2-0.1 0.1-0.2 0.1h-1.2l-0.1 2.8q0 0.5 0.3 0.9 0.3 0.4 0.8 0.4h0.2q0.2 0 0.3 0.1z"/><path class="a" d="m180.6 30.5q0.1 0.1 0.1 0.3l-0.4 5q0 0.2-0.1 0.3-0.2 0.1-0.3 0.1-0.2 0-0.3-0.2-0.1-0.1-0.1-0.3v-0.3q-0.4 0.3-0.9 0.5-0.5 0.2-1.1 0.2-0.7-0.1-1.3-0.5-0.5-0.3-0.8-0.9-0.3-0.7-0.3-1.5l0.2-2.8q0-0.1 0.2-0.3 0.1-0.1 0.3 0 0.1 0 0.2 0.1 0.1 0.1 0.1 0.3l-0.2 2.7q0 1 0.5 1.5 0.4 0.5 1.3 0.6 0.5 0 0.9-0.1 0.5-0.2 0.7-0.6 0.3-0.3 0.3-0.7l0.3-3.2q0-0.1 0.1-0.2 0.1-0.1 0.3-0.1 0.2 0 0.3 0.1z"/><path class="a" d="m186.3 31.3q0.6 0.4 0.8 1.1 0.3 0.6 0.2 1.5l-0.3 2.7q-0.1 0.2-0.2 0.3-0.1 0.1-0.3 0.1-0.2-0.1-0.3-0.2-0.1-0.1-0.1-0.3l0.4-2.7q0.1-1-0.4-1.5-0.4-0.6-1.3-0.7-0.5 0-0.9 0.1-0.5 0.1-0.7 0.5-0.3 0.3-0.4 0.7l-0.4 3.1q0 0.2-0.1 0.3-0.2 0.1-0.3 0.1-0.2 0-0.3-0.2-0.1-0.1-0.1-0.3l0.6-4.9q0-0.2 0.2-0.3 0.1-0.1 0.3-0.1 0.2 0.1 0.3 0.2 0.1 0.1 0 0.3v0.3q0.4-0.3 0.9-0.5 0.5-0.1 1.1 0 0.8 0 1.3 0.4z"/><path class="a" d="m188.4 37.1q-0.1-0.1-0.1-0.3l0.8-4.9q0-0.2 0.2-0.2 0.1-0.1 0.3-0.1 0.2 0 0.3 0.1 0 0.2 0 0.4l-0.8 4.9q0 0.1-0.1 0.2-0.2 0.2-0.3 0.1-0.2 0-0.3-0.1zm1-6.9q-0.2-0.2-0.1-0.5 0-0.2 0.2-0.3 0.2-0.2 0.4-0.1 0.3 0 0.4 0.2 0.1 0.2 0.1 0.4 0 0.3-0.2 0.4-0.2 0.1-0.5 0.1-0.2 0-0.3-0.2z"/><path class="a" d="m193.4 37.5q0.1 0.1 0.1 0.3 0 0.1-0.2 0.2-0.1 0.1-0.3 0.1l-0.2-0.1q-0.6-0.1-1-0.4-0.4-0.4-0.5-0.9-0.2-0.5-0.1-1l0.5-2.8-0.6-0.1q-0.2-0.1-0.3-0.2-0.1-0.1 0-0.2 0-0.2 0.1-0.3 0.1-0.1 0.3 0l0.7 0.1 0.3-1.6q0-0.2 0.1-0.3 0.2-0.1 0.4-0.1 0.1 0.1 0.2 0.2 0.1 0.1 0.1 0.3l-0.3 1.6 1.2 0.3q0.1 0 0.2 0.1 0.1 0.1 0.1 0.3-0.1 0.1-0.2 0.2-0.1 0.1-0.3 0.1l-1.1-0.3-0.5 2.8q-0.2 0.5 0.1 1 0.3 0.3 0.7 0.4l0.3 0.1q0.2 0 0.3 0.2z"/><path class="a" d="m200 34q0 0.1-0.1 0.2l-5 6.6q-0.1 0.2-0.3 0.2-0.1 0-0.2-0.1-0.2-0.1-0.2-0.4 0.1 0 0.1-0.1l1.5-2.1-1.2-5.3q0-0.1 0-0.2 0-0.2 0.3-0.2 0.1-0.1 0.2 0 0.2 0 0.3 0.3l1 4.6 2.9-3.8q0.2-0.2 0.4-0.1 0.1 0 0.1 0 0.3 0.2 0.2 0.4z"/><path class="a" d="m93 58.9q0.1 0.2 0 0.3 0 0.2-0.2 0.3-0.1 0.1-0.2 0.1-0.1 0-0.2 0l-3.7-1.4-0.1 0.1-1.4 1 1.8 2.5q0.2 0.1 0.1 0.3 0 0.2-0.1 0.3-0.2 0.1-0.4 0.1-0.1-0.1-0.3-0.2l-4.8-6.5q-0.1-0.2-0.1-0.3 0.1-0.2 0.2-0.3l1.7-1.3q0.7-0.5 1.5-0.6 0.7-0.1 1.4 0.2 0.6 0.2 1.1 0.9 0.6 0.7 0.6 1.5 0 0.8-0.5 1.6l3.3 1.3q0.2 0 0.3 0.1zm-4.9-1.3q0.5-0.4 0.7-0.8 0.2-0.5 0.2-1 0-0.5-0.4-0.9-0.3-0.4-0.7-0.6-0.5-0.2-1-0.2-0.5 0.1-1 0.5l-1.4 1 2.2 3 1.4-1z"/><path class="a" d="m93.9 51.6q0.7 0 1.4 0.4 0.7 0.4 1.2 1.1 0.1 0.2 0.1 0.3 0 0.2-0.2 0.3l-3.9 2.6q0.6 0.7 1.5 0.8 0.9 0.2 1.7-0.4 0.3-0.2 0.6-0.6 0.2-0.3 0.3-0.6 0.1-0.2 0.2-0.3 0.1-0.1 0.3-0.1 0.2 0.1 0.3 0.2 0.1 0.1 0 0.3-0.1 0.5-0.5 1-0.4 0.5-0.8 0.8-0.8 0.5-1.6 0.5-0.8 0.1-1.6-0.3-0.7-0.4-1.2-1.1-0.6-0.8-0.6-1.6-0.1-0.9 0.2-1.6 0.4-0.7 1.1-1.2 0.7-0.4 1.5-0.5zm-2 2.4q-0.2 0.8 0.2 1.6l3.5-2.3q-0.5-0.7-1.3-0.9-0.8-0.1-1.5 0.4-0.7 0.5-0.9 1.2z"/><path class="a" d="m100.2 47.8c0 0 0.1 0.1 0.1 0.2l0.6 5.9q0 0.3-0.2 0.5-0.2 0.1-0.5 0l-5-3.4c0 0-0.1 0-0.1-0.1q-0.1-0.2 0-0.4 0.1-0.1 0.1-0.2 0.2 0 0.3 0 0.1 0 0.2 0.1l4.3 2.9-0.6-5.2q0-0.1 0.1-0.2 0-0.2 0.1-0.2 0.1-0.1 0.2-0.1 0.3 0 0.4 0.2z"/><path class="a" d="m100.2 45.8q-0.3-0.1-0.4-0.3-0.1-0.2-0.1-0.5 0.1-0.2 0.4-0.3 0.2-0.2 0.4-0.1 0.3 0.1 0.4 0.3 0.1 0.2 0.1 0.5-0.1 0.2-0.3 0.4-0.3 0.1-0.5 0zm3.8 6.5q-0.2 0-0.3-0.2l-2.6-4.7q-0.1-0.2-0.1-0.3 0.1-0.2 0.2-0.3 0.2-0.1 0.4 0 0.2 0 0.2 0.2l2.7 4.7q0.1 0.2 0 0.3 0 0.2-0.2 0.3-0.1 0.1-0.3 0z"/><path class="a" d="m107.1 44.1q0.8 0 1.4 0.5 0.7 0.4 1.1 1.2 0.1 0.2 0 0.3-0.1 0.2-0.2 0.3l-4.1 2.1q0.5 0.8 1.3 1 0.9 0.2 1.7-0.2 0.4-0.2 0.7-0.5 0.3-0.3 0.4-0.7 0.1-0.1 0.2-0.2 0.1-0.1 0.3 0 0.2 0 0.3 0.2 0 0.1 0 0.3-0.2 0.4-0.6 0.9-0.5 0.5-0.9 0.7-0.8 0.4-1.7 0.4-0.8 0-1.5-0.5-0.7-0.4-1.1-1.3-0.5-0.8-0.4-1.6 0-0.8 0.4-1.5 0.4-0.7 1.2-1.1 0.7-0.4 1.5-0.3zm-2.2 2.1q-0.3 0.8 0 1.6l3.8-1.9q-0.5-0.7-1.3-1-0.7-0.2-1.5 0.2-0.7 0.4-1 1.2z"/><path class="a" d="m115.6 39.9q0.1 0 0.2 0.2 0.1 0.1 0.1 0.2l0.5 5.7q0 0.1 0 0.2-0.1 0.1-0.2 0.2-0.2 0-0.3 0-0.1 0-0.2-0.1l-3.2-3.6 0.6 4.7c0 0.1 0 0.2 0 0.3q-0.1 0.1-0.2 0.2-0.1 0-0.3 0-0.1 0-0.2-0.1l-3.9-4.2q-0.1-0.1-0.1-0.2-0.2-0.4 0.2-0.5 0.3-0.1 0.5 0.1l3.2 3.5-0.6-4.6q0-0.2 0-0.3 0.1-0.2 0.3-0.2 0.1-0.1 0.3-0.1 0.1 0.1 0.2 0.2l3 3.5-0.5-4.7q0-0.3 0.3-0.4 0.2-0.1 0.3-0.1z"/><path class="a" d="m123.7 202.7h-2.1v6.7q0 0.3-0.2 0.4-0.1 0.2-0.4 0.2-0.2 0-0.4-0.2-0.1-0.1-0.1-0.4v-6.7h-2.1q-0.2 0-0.4-0.2-0.1-0.1-0.2-0.3 0-0.3 0.2-0.4 0.2-0.2 0.4-0.2h5.3q0.2 0 0.3 0.2 0.2 0.1 0.2 0.4 0 0.2-0.2 0.3-0.1 0.2-0.3 0.2z"/><path class="a" d="m125.7 209.4q0 0.3-0.2 0.4-0.2 0.2-0.4 0.2-0.2 0-0.4-0.2-0.1-0.1-0.1-0.4v-7.3q0-0.2 0.1-0.4 0.2-0.1 0.4-0.1 0.2 0 0.4 0.1 0.2 0.2 0.2 0.4v2.6q0.7-0.6 1.6-0.6 0.6 0 1.1 0.2 0.5 0.3 0.8 0.6 0.4 0.4 0.6 0.9 0.3 0.5 0.3 1.1v2.5q0 0.3-0.2 0.4-0.2 0.2-0.4 0.2-0.2 0-0.4-0.2-0.1-0.1-0.1-0.4v-2.5q0-0.4-0.2-0.7-0.1-0.3-0.3-0.5-0.2-0.2-0.5-0.4-0.3-0.1-0.7-0.1-0.3 0-0.6 0.1-0.3 0.2-0.5 0.4-0.3 0.2-0.4 0.5-0.1 0.3-0.1 0.7v2.5z"/><path class="a" d="m134.9 208.3q0.3 0 0.4 0.2 0.2 0.1 0.2 0.4 0 0.2-0.2 0.4-0.8 0.7-1.9 0.7-1.2 0-2.1-0.9-0.8-0.8-0.8-2.1 0-1.2 0.8-2 0.9-0.9 2.1-0.9 1.2 0 2.1 0.9 0.4 0.4 0.6 0.9 0.3 0.5 0.3 1.1 0 0.3-0.2 0.4-0.2 0.2-0.4 0.2h-4.2q0.1 0.3 0.3 0.5 0.2 0.3 0.4 0.4 0.3 0.2 0.5 0.3 0.3 0.1 0.6 0.1 0.4 0 0.7-0.1 0.2-0.1 0.5-0.3 0.2-0.2 0.4-0.2zm0.2-1.8q-0.1-0.3-0.3-0.6-0.1-0.2-0.4-0.4-0.2-0.1-0.5-0.2-0.3-0.1-0.6-0.1-0.3 0-0.6 0.1-0.2 0.1-0.5 0.2-0.2 0.2-0.4 0.4-0.2 0.3-0.2 0.6z"/><path class="a" d="m141.7 201.6q0.4 0 0.8 0.2 0.4 0.1 0.7 0.4 0.3 0.3 0.5 0.7 0.1 0.4 0.2 0.9 0 0.8-0.5 1.4 0.3 0.1 0.5 0.4 0.3 0.2 0.4 0.5 0.2 0.3 0.3 0.6 0.1 0.4 0.1 0.7 0 0.5-0.3 1-0.2 0.5-0.5 0.8-0.4 0.4-0.8 0.6-0.5 0.2-1 0.2h-2q-0.2 0-0.3-0.1-0.1 0-0.1-0.1-0.1 0-0.2-0.1 0-0.2 0-0.3v-7.3q0-0.1 0-0.2 0.1-0.1 0.2-0.2 0 0 0.1-0.1 0.1 0 0.3 0h1.6zm-1.1 1.1v2.1h1.1q0.2 0 0.4-0.1 0.2 0 0.3-0.2 0.2-0.1 0.2-0.3 0.1-0.2 0.1-0.4 0-0.3-0.1-0.4 0-0.2-0.2-0.4-0.1-0.1-0.3-0.2-0.2-0.1-0.4-0.1h-1.1zm0 3.2v3h1.5q0.3 0 0.5-0.1 0.3-0.2 0.5-0.3 0.2-0.2 0.3-0.5 0.1-0.3 0.1-0.6 0-0.3-0.1-0.6-0.1-0.2-0.3-0.4-0.2-0.2-0.5-0.3-0.3-0.2-0.6-0.2h-1.4z"/><path class="a" d="m149.9 210q-0.2 0-0.3-0.2-0.2-0.1-0.2-0.4-0.4 0.3-0.8 0.5-0.4 0.1-0.9 0.1-0.5 0-1-0.2-0.5-0.2-0.9-0.6-0.4-0.4-0.6-0.9-0.2-0.5-0.2-1.1v-2.5q0-0.3 0.2-0.4 0.1-0.2 0.4-0.2 0.2 0 0.3 0.2 0.2 0.1 0.2 0.4v2.6q0 0.3 0.1 0.6 0.2 0.3 0.4 0.5 0.2 0.2 0.5 0.4 0.3 0.1 0.6 0.1 0.4 0 0.7-0.1 0.3-0.2 0.5-0.4 0.2-0.2 0.4-0.5 0.1-0.3 0.1-0.6v-2.6q0-0.3 0.2-0.4 0.1-0.2 0.3-0.2 0.3 0 0.4 0.2 0.2 0.1 0.2 0.4v4.7q0 0.3-0.2 0.4-0.1 0.2-0.4 0.2z"/><path class="a" d="m152 207.2q-0.5-0.2-0.7-0.4-0.4-0.4-0.4-0.9 0-0.5 0.2-0.8 0.2-0.3 0.6-0.5 0.3-0.2 0.7-0.4 0.5-0.1 0.9-0.1 1.3 0 2.2 1.1 0.1 0.1 0.1 0.3 0 0.2-0.1 0.4-0.2 0.1-0.4 0.2-0.2 0-0.3-0.1-0.1-0.1-0.2-0.2-0.6-0.6-1.3-0.6-0.8 0-1.2 0.5-0.1 0.1-0.1 0.2 0 0.1 0.1 0.2l2.5 0.8q0.5 0.2 0.7 0.4 0.4 0.4 0.4 1 0 0.4-0.2 0.7-0.3 0.3-0.6 0.5-0.3 0.2-0.8 0.4-0.4 0.1-0.8 0.1-1.3 0-2.3-1.1-0.1-0.1-0.1-0.3 0-0.2 0.2-0.4 0.1-0.1 0.4-0.1 0.1 0 0.2 0.1 0.2 0.1 0.3 0.2 0.5 0.5 1.3 0.5c0.5 0 0.9-0.2 1.2-0.5q0.1-0.1 0.1-0.2 0-0.1-0.2-0.2z"/><path class="a" d="m157.6 203.1q0 0.2-0.2 0.4-0.2 0.2-0.5 0.2-0.3 0-0.5-0.2-0.2-0.2-0.1-0.4-0.1-0.3 0.1-0.5 0.2-0.2 0.5-0.2 0.3 0 0.5 0.2 0.2 0.2 0.2 0.5zm-1.2 6.3v-4.7q0-0.3 0.1-0.4 0.2-0.2 0.4-0.2 0.2 0 0.4 0.2 0.2 0.1 0.2 0.4v4.7q0 0.3-0.2 0.4-0.2 0.2-0.4 0.2-0.2 0-0.4-0.2-0.1-0.1-0.1-0.4z"/><path class="a" d="m159.3 204.7q0.7-0.6 1.6-0.6 0.6 0 1.1 0.2 0.5 0.2 0.8 0.6 0.4 0.4 0.6 0.9 0.3 0.5 0.3 1.1v2.5q0 0.3-0.2 0.4-0.2 0.2-0.4 0.2-0.2 0-0.4-0.2-0.1-0.1-0.1-0.4v-2.5q0-0.4-0.2-0.7-0.1-0.3-0.3-0.5-0.2-0.2-0.5-0.3-0.3-0.2-0.7-0.2-0.3 0-0.6 0.2-0.3 0.1-0.5 0.3-0.3 0.2-0.4 0.5-0.1 0.3-0.1 0.7v2.6q0 0.2-0.2 0.4-0.1 0.1-0.4 0.1-0.2 0-0.4-0.1-0.1-0.2-0.1-0.4v-4.8q0-0.2 0.1-0.4 0.2-0.2 0.4-0.2 0.3 0 0.4 0.2 0.2 0.2 0.2 0.4z"/><path class="a" d="m168.6 208.3q0.2 0 0.3 0.2 0.2 0.1 0.2 0.4 0 0.2-0.2 0.4-0.8 0.7-1.9 0.7-1.2 0-2.1-0.9-0.8-0.8-0.8-2.1 0-1.2 0.8-2 0.9-0.9 2.1-0.9 1.2 0 2.1 0.9 0.4 0.4 0.7 0.9 0.2 0.5 0.2 1.1 0 0.3-0.2 0.4-0.2 0.2-0.4 0.2h-4.1q0 0.3 0.2 0.5 0.2 0.3 0.4 0.4 0.3 0.2 0.5 0.3 0.3 0.1 0.6 0.1 0.4 0 0.7-0.1 0.2-0.1 0.5-0.3 0.2-0.2 0.4-0.2zm0.2-1.8q-0.1-0.3-0.3-0.6-0.2-0.2-0.4-0.4-0.2-0.1-0.5-0.2-0.3-0.1-0.6-0.1-0.3 0-0.6 0.1-0.2 0.1-0.5 0.2-0.2 0.2-0.4 0.4-0.2 0.3-0.2 0.6z"/><path class="a" d="m171.5 207.2q-0.5-0.2-0.7-0.4-0.4-0.4-0.4-0.9 0-0.5 0.2-0.8 0.2-0.3 0.5-0.5 0.4-0.2 0.8-0.4 0.4-0.1 0.9-0.1 1.3 0 2.2 1.1 0.1 0.1 0.1 0.3 0 0.2-0.1 0.4-0.2 0.1-0.4 0.2-0.2 0-0.3-0.1-0.1-0.1-0.3-0.2-0.5-0.6-1.3-0.6-0.7 0-1.2 0.5 0 0.1 0 0.2 0 0.1 0.1 0.2l2.5 0.8q0.5 0.2 0.6 0.4 0.5 0.4 0.4 1 0 0.4-0.2 0.7-0.2 0.3-0.5 0.5-0.3 0.2-0.8 0.4-0.4 0.1-0.8 0.1-1.4 0-2.3-1.1-0.1-0.1-0.1-0.3 0-0.2 0.1-0.4 0.2-0.1 0.4-0.1 0.2 0 0.3 0.1 0.1 0.1 0.2 0.2 0.6 0.5 1.4 0.5c0.5 0 0.9-0.2 1.2-0.5q0-0.1 0-0.2 0-0.1-0.1-0.2z"/><path class="a" d="m176.6 207.2q-0.5-0.2-0.7-0.4-0.4-0.4-0.4-0.9 0-0.5 0.2-0.8 0.3-0.3 0.6-0.5 0.3-0.2 0.8-0.4 0.4-0.1 0.8-0.1 1.3 0 2.3 1.1 0.1 0.1 0.1 0.3 0 0.2-0.2 0.4-0.1 0.1-0.4 0.2-0.1 0-0.3-0.1-0.1-0.1-0.2-0.2-0.5-0.6-1.3-0.6-0.8 0-1.2 0.5-0.1 0.1-0.1 0.2 0 0.1 0.2 0.2l2.4 0.8q0.5 0.2 0.7 0.4 0.4 0.4 0.4 1 0 0.4-0.2 0.7-0.2 0.3-0.6 0.5-0.3 0.2-0.7 0.4-0.4 0.1-0.9 0.1-1.3 0-2.2-1.1-0.2-0.1-0.2-0.3 0-0.2 0.2-0.4 0.2-0.1 0.4-0.1 0.2 0 0.3 0.1 0.1 0.1 0.2 0.2 0.5 0.5 1.3 0.5c0.5 0 0.9-0.2 1.2-0.5q0.1-0.1 0.1-0.2 0-0.1-0.1-0.2z"/><path class="a" d="m189.9 208.1q0.1 0 0.2 0 0.1 0.1 0.2 0.2 0.1 0 0.1 0.1 0.1 0.1 0.1 0.3 0 0.2-0.2 0.4-1.2 0.9-2.7 0.9-1.7 0-2.9-1.2-1.3-1.3-1.3-3 0-1.7 1.3-3 1.2-1.2 2.9-1.2 1.5 0 2.7 1 0.2 0.1 0.2 0.4 0 0.1 0 0.2-0.1 0.1-0.2 0.2 0 0-0.1 0.1-0.1 0-0.3 0-0.2 0-0.3-0.1-0.4-0.4-0.9-0.5-0.5-0.2-1-0.2-1.3 0-2.2 0.9-0.9 0.9-0.9 2.2 0 1.3 0.9 2.2 0.9 0.9 2.2 0.9 1.1 0 1.9-0.7 0.1-0.1 0.3-0.1z"/><path class="a" d="m190.8 209.4v-7.3q0-0.2 0.1-0.4 0.2-0.1 0.4-0.1 0.2 0 0.4 0.1 0.1 0.2 0.1 0.4v6.8h0.3q0.2 0 0.4 0.2 0.1 0.1 0.1 0.3 0 0.3-0.1 0.4-0.2 0.2-0.4 0.2h-0.8q-0.2 0-0.4-0.2-0.1-0.1-0.2-0.4z"/><path class="a" d="m198.8 207.1q0 1.2-0.9 2-0.8 0.9-2 0.9-1.2 0-2.1-0.9-0.9-0.8-0.9-2 0-1.3 0.9-2.1 0.9-0.9 2.1-0.9 1.2 0 2 0.9 0.5 0.4 0.7 0.9 0.2 0.5 0.2 1.2zm-2.9-1.9q-0.4 0-0.8 0.2-0.3 0.1-0.5 0.4-0.3 0.2-0.4 0.6-0.2 0.3-0.2 0.7 0 0.3 0.2 0.7 0.1 0.3 0.4 0.6 0.2 0.2 0.5 0.4 0.4 0.1 0.8 0.1 0.4 0 0.7-0.1 0.3-0.2 0.6-0.4 0.2-0.3 0.4-0.6 0.1-0.4 0.1-0.7 0-0.4-0.1-0.7-0.2-0.4-0.4-0.6-0.3-0.3-0.6-0.4-0.3-0.2-0.7-0.2z"/><path class="a" d="m203.7 208.3q0.3 0 0.4 0.2 0.2 0.1 0.2 0.4 0 0.2-0.2 0.4-0.8 0.7-1.9 0.7-1.2 0-2.1-0.9-0.9-0.8-0.9-2.1 0-1.2 0.9-2 0.9-0.9 2.1-0.9 1.1 0 1.9 0.7 0.2 0.2 0.2 0.4 0 0.3-0.2 0.4-0.1 0.2-0.4 0.2-0.2 0-0.3-0.2-0.3-0.2-0.6-0.3-0.3-0.1-0.6-0.1-0.4 0-0.7 0.1-0.4 0.2-0.6 0.4-0.3 0.3-0.4 0.6-0.2 0.3-0.2 0.7 0 0.4 0.2 0.7 0.1 0.4 0.4 0.6 0.2 0.3 0.6 0.4 0.3 0.2 0.7 0.2 0.3 0 0.6-0.2 0.3-0.1 0.6-0.3 0.1-0.1 0.3-0.1z"/><path class="a" d="m204.7 209.4v-7.3q0-0.2 0.2-0.4 0.1-0.1 0.4-0.1 0.2 0 0.3 0.1 0.2 0.2 0.2 0.4v4.1l3.1-2q0.2-0.1 0.3-0.1 0.2 0 0.2 0.1 0.1 0 0.2 0.1 0.1 0.1 0.1 0.2 0.1 0.1 0.1 0.2 0 0.3-0.2 0.4l-2.2 1.4 2.2 2.6q0.2 0.1 0.2 0.4 0 0.1-0.1 0.2 0 0.1-0.1 0.1-0.1 0.1-0.2 0.2 0 0-0.2 0-0.2 0-0.3-0.1l-2.5-2.8-0.6 0.5v1.9q0 0.2-0.2 0.3-0.1 0.2-0.4 0.2-0.2 0-0.3-0.2-0.2-0.1-0.2-0.3z"/><path class="a" d="m139.8 217.9q1.5 0 2.6 1.1 0.5 0.5 0.8 1.1 0.2 0.6 0.2 1.4 0 1.5-1 2.6-1.1 1-2.6 1h-1.4q-0.1 0-0.2 0-0.1-0.1-0.1-0.1-0.1-0.1-0.1-0.2-0.1-0.1-0.1-0.2v-6.2q0-0.1 0.1-0.2 0-0.1 0.1-0.2 0 0 0.1-0.1 0.1 0 0.2 0h1.4zm0 6.2q1.1 0 1.9-0.7 0.4-0.4 0.6-0.9 0.2-0.5 0.2-1 0-1.1-0.8-1.9-0.8-0.8-1.9-0.8h-0.9v5.3z"/><path class="a" d="m148.9 222.6q-0.1 1-0.8 1.8-0.7 0.7-1.8 0.7-1 0-1.7-0.7-0.8-0.8-0.8-1.8 0-1.1 0.8-1.8 0.7-0.7 1.7-0.7 1.1 0 1.8 0.7 0.4 0.4 0.6 0.8 0.1 0.5 0.2 1zm-2.6-1.6q-0.3 0-0.6 0.1-0.3 0.2-0.5 0.4-0.2 0.2-0.3 0.5-0.1 0.3-0.1 0.6 0 0.3 0.1 0.6 0.1 0.3 0.3 0.5 0.2 0.2 0.5 0.3 0.3 0.2 0.6 0.2 0.4 0 0.7-0.2 0.2-0.1 0.5-0.3 0.2-0.2 0.3-0.5 0.1-0.3 0.1-0.6 0-0.3-0.1-0.6-0.1-0.3-0.3-0.5-0.3-0.2-0.5-0.4-0.3-0.1-0.7-0.1z"/><path class="a" d="m150.2 224.6q0 0.2-0.1 0.4-0.2 0.1-0.3 0.1-0.2 0-0.4-0.1-0.1-0.2-0.1-0.4v-6.2q0-0.2 0.1-0.4 0.2-0.1 0.4-0.1 0.1 0 0.3 0.1 0.1 0.2 0.1 0.4v2.1q0.6-0.4 1.4-0.4 0.5 0 0.9 0.2 0.5 0.1 0.8 0.5 0.3 0.3 0.5 0.7 0.2 0.4 0.2 0.9v2.2q0 0.2-0.2 0.4-0.1 0.1-0.3 0.1-0.2 0-0.3-0.1-0.2-0.2-0.2-0.4v-2.2q0-0.3-0.1-0.5-0.1-0.3-0.3-0.5-0.2-0.2-0.4-0.3-0.3-0.1-0.6-0.1-0.3 0-0.5 0.1-0.3 0.1-0.5 0.3-0.2 0.2-0.3 0.5-0.1 0.2-0.1 0.5v2.2z"/><path class="a" d="m158.5 224.6q-0.3 0.2-0.7 0.4-0.4 0.1-0.9 0.1-1 0-1.8-0.7-0.7-0.8-0.7-1.8 0-1.1 0.7-1.8 0.8-0.7 1.8-0.7 1 0 1.8 0.7 0.7 0.7 0.7 1.8v2q0 0.2-0.1 0.4-0.1 0.1-0.3 0.1-0.2 0-0.4-0.1-0.1-0.2-0.1-0.4zm-1.6-3.6q-0.3 0-0.6 0.1-0.3 0.1-0.5 0.4-0.2 0.2-0.3 0.5-0.2 0.3-0.2 0.6 0 0.3 0.2 0.6 0.1 0.3 0.3 0.5 0.2 0.2 0.5 0.3 0.3 0.1 0.6 0.2 0.3 0 0.6-0.2 0.3-0.1 0.5-0.3 0.2-0.2 0.4-0.5 0.1-0.3 0.1-0.6 0-0.4-0.1-0.6-0.1-0.3-0.4-0.5-0.2-0.3-0.5-0.4-0.3-0.1-0.6-0.1z"/><path class="a" d="m162.7 223.1q-0.2 0-0.3-0.2-0.2-0.1-0.2-0.3 0-0.2 0.2-0.3 0.1-0.2 0.3-0.2h2.1q0.2 0 0.3 0.2 0.1 0.1 0.1 0.3 0 0.2-0.1 0.3-0.1 0.1-0.3 0.2z"/><path class="a" d="m173.8 224.4q-0.5 0.3-1.1 0.5-0.5 0.2-1.1 0.2-1.5 0-2.6-1-1-1.1-1-2.6 0-1.5 1-2.5 1.1-1.1 2.6-1.1 1.5 0 2.5 1.1 0.5 0.5 0.8 1.1 0.3 0.7 0.3 1.4 0 0.6-0.2 1.2-0.2 0.5-0.6 1l0.6 0.6q0.2 0.1 0.2 0.3 0 0.1-0.1 0.2 0 0.1-0.1 0.2 0 0-0.1 0.1-0.1 0-0.2 0-0.2 0-0.4-0.1l-0.6-0.6zm-1.3-1.3q-0.1-0.2-0.1-0.4 0-0.1 0-0.2 0.1-0.1 0.1-0.1 0.1-0.1 0.2-0.1 0.1-0.1 0.2-0.1 0.2 0 0.3 0.2l0.6 0.6q0.5-0.6 0.5-1.5 0-1.1-0.8-1.9-0.7-0.7-1.8-0.7-0.6 0-1.1 0.2-0.4 0.1-0.8 0.5-0.4 0.4-0.6 0.9-0.2 0.4-0.2 1 0 1.1 0.8 1.9 0.8 0.7 1.9 0.8 0.8-0.1 1.5-0.5l-0.7-0.6z"/><path class="a" d="m179.7 224.6q-0.3 0.2-0.7 0.4-0.4 0.1-0.9 0.1-1 0-1.7-0.7-0.8-0.8-0.8-1.8 0-1.1 0.8-1.8 0.7-0.7 1.7-0.7 1.1 0 1.8 0.7 0.7 0.7 0.8 1.8v2q-0.1 0.2-0.2 0.4-0.1 0.1-0.3 0.1-0.2 0-0.3-0.1-0.2-0.2-0.2-0.4zm-1.6-3.6q-0.3 0-0.6 0.1-0.3 0.1-0.5 0.4-0.2 0.2-0.3 0.5-0.1 0.3-0.1 0.6 0 0.3 0.1 0.6 0.1 0.3 0.3 0.5 0.2 0.2 0.5 0.3 0.3 0.1 0.6 0.2 0.4 0 0.7-0.2 0.2-0.1 0.5-0.3 0.2-0.2 0.3-0.5 0.1-0.3 0.1-0.6 0-0.4-0.1-0.6-0.1-0.3-0.3-0.5-0.3-0.3-0.5-0.4-0.3-0.1-0.7-0.1z"/><path class="a" d="m181.5 220.1h0.2v-1.7q0-0.2 0.2-0.4 0.1-0.1 0.3-0.1 0.2 0 0.3 0.1 0.2 0.2 0.2 0.4v1.7h0.5q0.2 0 0.4 0.1 0.1 0.1 0.1 0.3 0 0.2-0.1 0.4-0.2 0.1-0.4 0.1h-0.5v2.3q0 0.9 0.9 0.9 0.2 0 0.3 0.1 0.1 0.1 0.1 0.3 0 0.2-0.1 0.4-0.1 0.1-0.3 0.1-1.9 0-1.9-1.8v-2.3h-0.2q-0.2 0-0.3-0.1-0.1-0.2-0.1-0.4 0-0.2 0.1-0.3 0.1-0.1 0.3-0.1z"/><path class="a" d="m188.2 224.6q-0.3 0.2-0.7 0.4-0.4 0.1-0.9 0.1-1 0-1.7-0.7-0.8-0.8-0.8-1.8 0-1.1 0.8-1.8 0.7-0.7 1.7-0.7 1.1 0 1.8 0.7 0.8 0.7 0.8 1.8v2q0 0.2-0.2 0.4-0.1 0.1-0.3 0.1-0.2 0-0.3-0.1-0.2-0.2-0.2-0.4zm-1.6-3.6q-0.3 0-0.6 0.1-0.3 0.1-0.5 0.4-0.2 0.2-0.3 0.5-0.1 0.3-0.1 0.6 0 0.3 0.1 0.6 0.1 0.3 0.3 0.5 0.2 0.2 0.5 0.3 0.3 0.1 0.6 0.2 0.4 0 0.7-0.2 0.2-0.1 0.5-0.3 0.2-0.2 0.3-0.5 0.1-0.3 0.1-0.6 0-0.4-0.1-0.6-0.1-0.3-0.3-0.5-0.3-0.3-0.5-0.4-0.3-0.1-0.7-0.1z"/><path class="a" d="m190.5 220.5v0.1q0.4-0.2 0.7-0.4 0.4-0.1 0.9-0.1 0.2 0 0.4 0 0.2 0 0.4 0.1 0.2 0.1 0.4 0.2 0.1 0.1 0.1 0.3 0 0.1-0.1 0.2 0 0.1-0.1 0.1 0 0.1-0.1 0.1-0.1 0.1-0.2 0.1-0.1 0-0.2-0.1-0.3-0.1-0.6-0.1-0.3 0-0.6 0.1-0.3 0.1-0.5 0.4-0.2 0.2-0.4 0.5-0.1 0.2-0.1 0.6v2q0 0.2-0.1 0.4-0.2 0.1-0.3 0.1-0.2 0-0.4-0.1-0.1-0.2-0.1-0.4v-4.1q0-0.2 0.1-0.3 0.1-0.1 0.4-0.1 0.2 0 0.3 0.1 0.1 0.1 0.1 0.3z"/><path class="e" d="m156.7 74.4v-0.5q0.9-0.1 1.3-0.2 0.5-0.1 0.8-0.4 0.2-0.2 0.3-0.6 0-0.3 0-0.9v-11.1q0.1-0.3 0-0.6 0-0.3-0.1-0.6-0.1-0.2-0.2-0.4-0.2-0.2-0.5-0.3-0.3 0-0.7 0-0.4 0.1-1 0.4v-0.6l5.8-2.4q0.2-0.1 0.2-0.1 0 0.1 0 0.2v16q0 0.4 0.1 0.7 0.1 0.3 0.3 0.5 0.3 0.1 0.7 0.2 0.5 0.1 1.3 0.2v0.5h-8.3z"/><path class="e" d="m179.6 74.4h-10.8v-0.4q1.3-1.4 2.3-2.6 1.1-1.2 1.9-2.2 0.8-1 1.3-1.9 0.6-0.9 0.9-1.7 0.4-0.9 0.5-1.7 0.2-0.8 0.2-1.7 0-0.7-0.2-1.3-0.2-0.5-0.6-1-0.4-0.4-0.9-0.7-0.6-0.3-1.3-0.3-1.3 0-2.1 0.7-0.9 0.7-1.4 2l-0.6-0.1q0.3-1.2 0.8-2.2 0.5-1 1.2-1.7 0.7-0.7 1.7-1.2 0.9-0.4 2.1-0.4 1.3 0 2.2 0.4 1 0.4 1.6 1.1 0.6 0.6 0.8 1.5 0.3 0.9 0.3 1.9 0 1.3-0.6 2.6-0.6 1.4-1.7 2.7-1 1.4-2.3 2.7-1.3 1.4-2.7 2.8h5.7q0.5 0 0.8 0 0.3-0.1 0.5-0.3 0.3-0.2 0.5-0.5 0.2-0.4 0.5-0.9l0.5 0.1-1.1 4.3z"/><path class="e" d="m218.1 89.8v-0.6q0.8 0 1.3-0.2 0.5-0.1 0.7-0.3 0.2-0.3 0.3-0.6 0.1-0.4 0.1-0.9v-11.2q0-0.3 0-0.6 0-0.3-0.1-0.5-0.1-0.3-0.3-0.5-0.2-0.2-0.4-0.2-0.3-0.1-0.8 0-0.4 0.1-1 0.3v-0.5l5.9-2.5q0.1 0 0.1 0 0.1 0 0.1 0.2v16q0 0.4 0.1 0.6 0 0.3 0.3 0.5 0.2 0.2 0.7 0.3 0.5 0.1 1.3 0.1v0.6h-8.3z"/><path class="e" d="m110.3 89.8v-0.6q0.8 0 1.3-0.2 0.4-0.1 0.7-0.3 0.2-0.3 0.3-0.6 0.1-0.4 0.1-0.9v-11.2q0-0.3-0.1-0.6 0-0.3-0.1-0.5-0.1-0.3-0.2-0.5-0.2-0.2-0.5-0.2-0.3-0.1-0.7 0-0.4 0.1-1 0.3v-0.5l5.8-2.5q0.2 0 0.2 0 0.1 0 0.1 0.2v16q0 0.4 0 0.6 0.1 0.3 0.3 0.5 0.3 0.2 0.8 0.3 0.4 0.1 1.3 0.1v0.6h-8.3z"/><path class="e" d="m124.3 89.8v-0.6q0.8 0 1.3-0.2 0.4-0.1 0.7-0.3 0.2-0.3 0.3-0.6 0.1-0.4 0.1-0.9v-11.2q0-0.3-0.1-0.6 0-0.3-0.1-0.5-0.1-0.3-0.2-0.5-0.2-0.2-0.5-0.2-0.3-0.1-0.7 0-0.4 0.1-1 0.3v-0.5l5.8-2.5q0.2 0 0.2 0 0.1 0 0.1 0.2v16q0 0.4 0 0.6 0.1 0.3 0.3 0.5 0.3 0.2 0.8 0.3 0.4 0.1 1.3 0.1v0.6h-8.3z"/><path class="e" d="m267 130.3h-10.9v-0.4q1.4-1.4 2.4-2.6 1-1.2 1.8-2.2 0.8-1 1.4-1.9 0.5-0.9 0.9-1.7 0.3-0.9 0.5-1.7 0.2-0.8 0.2-1.7 0-0.7-0.2-1.3-0.3-0.6-0.6-1-0.4-0.5-1-0.7-0.5-0.3-1.3-0.3-1.2 0-2.1 0.7-0.8 0.7-1.4 2l-0.5-0.1q0.2-1.2 0.7-2.2 0.5-1 1.2-1.7 0.8-0.7 1.7-1.2 1-0.4 2.1-0.4 1.4 0 2.3 0.4 1 0.4 1.5 1.1 0.6 0.6 0.9 1.5 0.3 0.9 0.3 1.9 0 1.3-0.7 2.6-0.6 1.4-1.6 2.7-1 1.4-2.4 2.7-1.3 1.4-2.6 2.8h5.7q0.4 0 0.7 0 0.3-0.1 0.6-0.3 0.2-0.2 0.4-0.5 0.3-0.4 0.6-1l0.4 0.2-1 4.3z"/><path class="e" d="m69.9 130.3v-0.5q0.8-0.1 1.3-0.2 0.5-0.1 0.7-0.4 0.3-0.2 0.4-0.6 0-0.3 0-0.9v-11.2q0-0.2 0-0.5 0-0.3-0.1-0.6-0.1-0.2-0.3-0.4-0.1-0.2-0.4-0.3-0.3 0-0.7 0-0.4 0.1-1 0.4v-0.6l5.8-2.4q0.1-0.1 0.2-0.1 0 0.1 0 0.2v16q0 0.4 0.1 0.7 0.1 0.3 0.3 0.4 0.2 0.2 0.7 0.3 0.5 0.1 1.3 0.1v0.6h-8.3z"/><path class="e" d="m93.2 125.5q-0.6 1.7-1.4 2.8-0.9 1.2-2 1.7-1.1 0.5-2.3 0.5-1.2 0-2.3-0.5-1.1-0.5-2-1.6-0.8-1.1-1.3-2.9-0.5-1.7-0.5-4.1 0-2.6 0.5-4.4 0.5-1.8 1.4-2.9 0.9-1.1 2-1.6 1.2-0.5 2.4-0.5 1 0 2.1 0.5 1.1 0.5 1.9 1.7 0.9 1.1 1.4 2.8 0.6 1.8 0.6 4.2 0 2.5-0.5 4.3zm-3.5-8q-0.2-1.6-0.5-2.6-0.3-1-0.7-1.4-0.4-0.5-0.9-0.5-0.5 0-0.9 0.4-0.5 0.4-0.8 1.4-0.4 0.9-0.6 2.5-0.2 1.5-0.2 3.9 0 2.3 0.2 4 0.2 1.6 0.6 2.6 0.3 1.1 0.8 1.5 0.4 0.5 0.9 0.5 0.5 0 1-0.5 0.4-0.5 0.7-1.5 0.3-1 0.4-2.6 0.1-1.5 0.1-3.7 0-2.4-0.1-4z"/><path class="e" d="m279.3 172.7q-0.4 1.2-1.3 2.1-0.9 0.9-2.3 1.5-1.4 0.5-3.5 0.5-1.1 0-1.9-0.2-0.8-0.2-1.2-0.4-0.5-0.3-0.7-0.7-0.2-0.3-0.2-0.6 0-0.7 0.4-1 0.4-0.4 1-0.4 0.4 0 0.8 0.2 0.4 0.2 0.7 0.4 0.4 0.3 0.7 0.6 0.4 0.3 0.7 0.5 0.4 0.3 0.7 0.5 0.4 0.1 0.8 0.1 0.7 0 1.3-0.2 0.5-0.2 0.9-0.6 0.4-0.5 0.6-1.1 0.2-0.5 0.2-1.3 0-1-0.3-1.9-0.4-1-1.1-1.7-0.6-0.7-1.5-1.1-0.9-0.4-2-0.4h-0.3q-0.2 0-0.3 0.1l-0.1-0.6q1.1-0.2 1.9-0.6 0.7-0.3 1.2-0.8 0.5-0.5 0.7-1 0.2-0.6 0.2-1.1 0-0.6-0.2-1.1-0.3-0.5-0.7-0.9-0.4-0.4-0.9-0.6-0.5-0.3-1.1-0.3-1.2 0-2.1 0.7-0.8 0.6-1.4 1.9l-0.5-0.2q0.4-1.1 1-2 0.6-0.9 1.4-1.5 0.8-0.6 1.7-1 0.9-0.3 1.8-0.3 1 0 1.8 0.3 0.8 0.3 1.4 0.8 0.5 0.4 0.8 1.1 0.3 0.7 0.3 1.6 0 1-0.6 2-0.5 0.9-1.7 1.5 0.5 0.2 1.1 0.5 0.5 0.4 1 0.9 0.5 0.5 0.9 1.3 0.3 0.8 0.3 1.9 0 1.4-0.4 2.6z"/><path class="e" d="m68.1 167.3q-0.3 1.3-1 2.4-0.6 1.2-1.5 2.2-1 1.1-2.2 1.9-1.2 0.8-2.8 1.3-1.5 0.5-3.3 0.7l-0.2-0.7q1.3-0.3 2.2-0.6 1-0.4 1.6-0.8 0.7-0.5 1.2-1.1 0.5-0.6 0.9-1.3 0.4-0.7 0.6-1.6 0.3-0.8 0.7-1.9-0.7 0.5-1.4 0.7-0.7 0.3-1.5 0.3-0.9 0-1.8-0.3-0.9-0.3-1.7-1-0.7-0.7-1.2-1.8-0.4-1.1-0.4-2.6 0-1.4 0.4-2.6 0.4-1.1 1.1-2 0.8-0.8 1.9-1.3 1-0.4 2.4-0.4c0.9 0 1.7 0.1 2.4 0.5q1.2 0.5 2.1 1.4 0.8 1 1.3 2.5 0.5 1.4 0.5 3.4 0 1.3-0.3 2.6zm-3.6-4.8q-0.1-0.7-0.2-1.4-0.1-0.7-0.3-1.3-0.2-0.6-0.5-1.1-0.3-0.5-0.7-0.7-0.4-0.3-0.9-0.3-0.5 0-0.8 0.3-0.3 0.2-0.6 0.7-0.2 0.6-0.4 1.4-0.1 0.8-0.1 1.9 0 2.7 0.6 4.1 0.7 1.4 1.9 1.4 0.6 0 1-0.2 0.4-0.2 0.7-0.5 0.1-0.1 0.2-0.4 0-0.3 0.1-0.7 0-0.5 0-0.9 0-0.4 0-0.8 0-0.7 0-1.5z"/><path class="e" d="m262.3 222.2v4h-3.3v-4h-6.8v-2.6l8.5-11.7h1.6v11.8h2.2v2.5h-2.2zm-3.3-10.3l-5.6 7.8h5.6z"/><path class="e" d="m82.1 223.6q-0.4 0.8-1.1 1.5-0.7 0.6-1.8 1-1.1 0.4-2.6 0.4-1.1 0-2.2-0.3-1.1-0.2-1.9-0.8-0.8-0.5-1.2-1.3-0.5-0.8-0.5-2 0-0.8 0.2-1.5 0.3-0.8 0.7-1.3 0.5-0.6 1.2-1.1 0.7-0.5 1.6-0.9-1-0.6-1.6-1.2-0.6-0.7-1-1.3-0.4-0.6-0.6-1.2-0.2-0.6-0.2-1.2 0-1.1 0.4-1.9 0.4-0.9 1.1-1.5 0.8-0.6 1.8-0.9 1.1-0.3 2.4-0.3 1.4 0 2.4 0.3 1 0.3 1.6 0.8 0.7 0.6 1 1.3 0.3 0.7 0.3 1.5 0 0.7-0.2 1.2-0.2 0.6-0.7 1.1-0.4 0.6-1.1 1.1-0.7 0.4-1.7 0.9 1 0.8 1.7 1.4 0.7 0.6 1.1 1.1 0.5 0.5 0.7 1 0.2 0.4 0.3 0.8 0.1 0.4 0.2 0.8 0 0.4 0 0.7 0 0.9-0.4 1.8zm-3-1.6q-0.2-0.5-0.5-1.1-0.4-0.6-1.1-1.3-0.8-0.6-2-1.5-0.8 0.9-1.1 1.9-0.2 1-0.2 1.9 0 0.7 0.1 1.4 0.2 0.7 0.6 1.2 0.3 0.5 0.8 0.8 0.6 0.3 1.3 0.3 0.5 0 0.9-0.1 0.4-0.2 0.7-0.6 0.3-0.3 0.4-0.8 0.2-0.4 0.2-0.9 0-0.6-0.1-1.2zm-0.2-11.4q-0.1-0.6-0.4-1-0.3-0.4-0.7-0.7-0.5-0.2-1.1-0.2-1 0-1.6 0.6-0.6 0.6-0.7 1.8 0.1 0.5 0.2 1 0.1 0.5 0.5 1.1 0.3 0.5 0.9 1 0.7 0.6 1.6 1.2 0.8-0.8 1.1-1.7 0.3-0.9 0.3-1.9 0-0.6-0.1-1.2z"/><path class="e" d="m225.1 250q-0.2 0.3-0.5 0.3h-6.6l-0.9 2.1q1.1 0.1 2.2 0.3 1.1 0.1 2 0.4 1.1 0.3 1.9 0.9 0.9 0.5 1.5 1.2 0.7 0.8 1 1.8 0.4 1 0.4 2.3 0 1.5-0.6 2.7-0.6 1.2-1.6 2.1-1 0.8-2.3 1.3-1.4 0.5-3 0.5-1.1 0-1.9-0.2-0.8-0.2-1.3-0.5-0.5-0.3-0.7-0.6-0.2-0.4-0.2-0.9 0-0.6 0.3-1 0.4-0.3 1-0.3 0.5 0 0.9 0.1 0.4 0.2 0.8 0.5 0.4 0.2 0.7 0.6 0.4 0.3 0.7 0.5 0.4 0.3 0.7 0.5 0.4 0.2 0.8 0.2 0.5 0 1.1-0.3 0.5-0.3 1-0.8 0.4-0.5 0.7-1.1 0.3-0.7 0.3-1.5 0-1.4-0.7-2.4-0.6-1-1.7-1.6-1.2-0.7-2.7-1-1.6-0.3-3.3-0.3-0.2 0-0.2-0.1-0.1-0.1 0-0.3l3-7.9h7q0.1 0 0.3 0 0.1-0.1 0.1-0.2 0.1-0.1 0.2-0.2 0.1-0.1 0.2-0.2l0.4 0.1-1 3z"/><path class="e" d="m117.6 265.6h-2.4l5.1-15.3h-5q-0.8 0-1.3 0.1-0.6 0.2-0.9 0.4-0.4 0.2-0.6 0.6-0.3 0.4-0.6 0.9h-0.6l1.3-4.8h10.6v0.9l-5.6 17.2z"/><path class="e" d="m174 276.1q-0.4 1.1-1.2 2-0.8 0.9-1.8 1.3-1 0.5-2.2 0.5-1.1 0-2.2-0.5-1.1-0.5-2-1.5-0.9-1-1.5-2.6-0.6-1.5-0.6-3.5 0-1.4 0.4-2.7 0.4-1.4 1.1-2.6 0.7-1.1 1.7-2.2 1-1 2.2-1.8 1.3-0.7 2.8-1.1 1.4-0.5 3.1-0.5l0.1 0.6q-1.4 0.3-2.6 0.8-1.1 0.6-2 1.5-0.9 0.8-1.5 2-0.6 1.2-1 2.8 0.6-0.4 1.3-0.6 0.6-0.2 1.4-0.2 0.9 0 1.8 0.3 0.9 0.3 1.6 1 0.7 0.7 1.2 1.8 0.4 1.1 0.4 2.6 0 1.4-0.5 2.6zm-3.7-5.4q-0.8-1.5-2.1-1.5-1.1 0-1.6 0.8-0.5 0.8-0.5 2.5 0 1.2 0.1 2.3 0.2 1.2 0.6 2.1 0.3 0.9 0.9 1.5 0.5 0.6 1.3 0.6 0.5 0 0.9-0.3 0.4-0.3 0.6-0.8 0.3-0.5 0.4-1.3 0.1-0.7 0.1-1.7 0-2.7-0.7-4.2z"/><path class="a" d="m149.1 139.5v-0.2q-0.7 0.6-1.5 0.9-0.9 0.3-1.9 0.3-2.2 0-3.8-1.6-1.6-1.5-1.6-3.8 0-2.2 1.6-3.8 1.6-1.6 3.8-1.6 2.3 0 3.9 1.6 1.6 1.6 1.6 3.8v4.4q0 0.5-0.3 0.7-0.3 0.3-0.7 0.3-0.5 0-0.8-0.3-0.3-0.3-0.3-0.7zm-3.4-7.8q-0.7 0-1.3 0.3-0.6 0.2-1.1 0.7-0.4 0.5-0.7 1.1-0.3 0.6-0.3 1.3 0 0.7 0.3 1.3 0.3 0.6 0.7 1.1 0.5 0.5 1.1 0.7 0.6 0.3 1.3 0.3 0.7 0 1.4-0.3 0.6-0.2 1-0.7 0.5-0.5 0.8-1.1 0.2-0.6 0.2-1.3 0-0.7-0.2-1.3-0.3-0.6-0.8-1.1-0.4-0.5-1-0.7-0.7-0.3-1.4-0.3z"/><path class="a" d="m155.6 130.7v9.8q0 0.9-0.4 1.8-0.4 0.8-1 1.5-0.6 0.6-1.5 1-0.8 0.4-1.8 0.4-0.4 0-0.7-0.3-0.3-0.3-0.3-0.8 0-0.4 0.3-0.7 0.3-0.3 0.7-0.3 0.6 0 1-0.2 0.5-0.2 0.9-0.5 0.3-0.4 0.6-0.9 0.2-0.5 0.2-1v-9.8q0-0.5 0.3-0.8 0.3-0.2 0.7-0.2 0.4 0 0.7 0.3 0.3 0.3 0.3 0.7zm0.2-3q0 0.5-0.4 0.9-0.3 0.3-0.8 0.3-0.5 0-0.9-0.3-0.3-0.4-0.3-0.9 0-0.5 0.3-0.8 0.4-0.4 0.9-0.4 0.5 0 0.8 0.4 0.4 0.3 0.4 0.8z"/><path class="a" d="m159.1 130.7q1.3-1 3-1 1 0 1.9 0.4 1 0.4 1.7 1.1 0.6 0.6 1.1 1.6 0.4 0.9 0.4 1.9v4.8q0 0.5-0.3 0.7-0.3 0.3-0.7 0.3-0.5 0-0.8-0.3-0.2-0.3-0.3-0.7v-4.8q0-0.6-0.2-1.1-0.2-0.6-0.6-1-0.5-0.4-1-0.6-0.6-0.3-1.2-0.3-0.6 0-1.2 0.3-0.5 0.2-0.9 0.6-0.4 0.4-0.7 1-0.2 0.5-0.2 1.2v4.7q0 0.5-0.3 0.8-0.3 0.2-0.7 0.3-0.4 0-0.7-0.3-0.3-0.4-0.3-0.8v-8.8q0-0.4 0.3-0.7 0.3-0.3 0.7-0.3 0.4 0 0.7 0.3 0.3 0.3 0.3 0.7z"/><path class="a" d="m177 137.5q0.4 0 0.7 0.3 0.3 0.3 0.3 0.7 0 0.4-0.3 0.7-1.5 1.3-3.6 1.3-2.2 0-3.8-1.6-1.6-1.5-1.6-3.8 0-2.2 1.6-3.8 1.6-1.6 3.8-1.6 2.3 0 3.9 1.6 0.8 0.8 1.2 1.7 0.4 1 0.4 2.1 0 0.4-0.3 0.7-0.3 0.3-0.8 0.3h-7.6q0.1 0.6 0.4 1 0.4 0.4 0.8 0.7 0.4 0.4 0.9 0.5 0.6 0.2 1.1 0.2 0.7 0 1.2-0.2 0.5-0.2 1-0.6 0.3-0.2 0.6-0.2zm0.5-3.4q-0.2-0.5-0.5-1-0.3-0.4-0.8-0.7-0.4-0.3-0.9-0.5-0.5-0.2-1.1-0.2-0.5 0-1.1 0.2-0.5 0.2-0.9 0.5-0.5 0.3-0.8 0.7-0.3 0.5-0.5 1z"/><path class="a" d="m189.4 137.5q0.4 0 0.7 0.3 0.3 0.3 0.3 0.7 0 0.4-0.3 0.7-1.5 1.3-3.6 1.3-2.2 0-3.8-1.6-1.6-1.5-1.6-3.8 0-2.2 1.6-3.8 1.6-1.6 3.8-1.6 2.3 0 3.9 1.6 0.8 0.8 1.2 1.7 0.4 1 0.4 2.1 0 0.4-0.3 0.7-0.3 0.3-0.8 0.3h-7.6q0.1 0.6 0.4 1 0.4 0.4 0.8 0.7 0.4 0.4 0.9 0.5 0.6 0.2 1.1 0.2 0.7 0 1.2-0.2 0.5-0.2 1-0.6 0.3-0.2 0.7-0.2zm0.4-3.4q-0.2-0.5-0.5-1-0.3-0.4-0.8-0.7-0.4-0.3-0.9-0.5-0.5-0.2-1.1-0.2-0.5 0-1.1 0.2-0.5 0.2-0.9 0.5-0.4 0.3-0.8 0.7-0.3 0.5-0.4 1z"/><path class="a" d="m168.7 112c0 0.6-0.5 1.2-1.2 1.2-0.7 0-1.2-0.6-1.2-1.2 0-0.7 0.5-1.3 1.2-1.3 0.7 0 1.2 0.6 1.2 1.3z"/><path class="a" d="m174.8 95.5c-0.7 0-1.2-0.6-1.2-1.2 0-0.7 0.5-1.2 1.2-1.2 0.8 0 1.2 0.6 1.2 1.2 0 0.7-0.5 1.2-1.2 1.2z"/><path class="a" d="m163.7 93.3c-0.7 0-1.3-0.6-1.3-1.2 0-0.7 0.6-1.2 1.3-1.2 0.6 0 1.2 0.5 1.2 1.1 0 0.7-0.6 1.3-1.2 1.3z"/><path class="a" d="m160.2 95.5c-0.7 0-1.2-0.6-1.2-1.2 0-0.7 0.5-1.2 1.2-1.2 0.8 0 1.2 0.6 1.2 1.2 0 0.7-0.5 1.2-1.2 1.2z"/><path class="a" d="m158.5 101.5c0 0.7-0.5 1.2-1.2 1.2-0.7 0-1.2-0.5-1.2-1.2 0-0.7 0.6-1.2 1.2-1.2 0.7 0 1.2 0.5 1.2 1.2z"/><path class="a" d="m164.7 111c0 0.6-0.6 1.2-1.2 1.2-0.6 0-1.2-0.5-1.2-1.2 0-0.6 0.5-1.2 1.2-1.2 0.7 0 1.2 0.5 1.2 1.2z"/><path class="a" d="m179 101.5c0 0.7-0.5 1.2-1.2 1.2-0.7 0-1.2-0.5-1.2-1.2 0-0.7 0.6-1.2 1.2-1.2 0.7 0 1.2 0.6 1.2 1.2z"/><path class="a" d="m172.7 111c0 0.6-0.5 1.2-1.2 1.2-0.6 0-1.2-0.5-1.2-1.2 0-0.7 0.5-1.2 1.2-1.2 0.7 0 1.2 0.5 1.2 1.2z"/><path class="a" d="m174.7 110c-0.7 0-1.2-0.6-1.2-1.2 0-0.7 0.5-1.2 1.2-1.2 0.6 0 1.2 0.5 1.2 1.1 0 0.7-0.5 1.3-1.2 1.3z"/><path class="a" d="m168.7 91.5c0 0.6-0.5 1.2-1.2 1.2-0.7 0-1.2-0.6-1.2-1.2 0-0.7 0.6-1.3 1.2-1.3 0.7 0 1.2 0.6 1.2 1.3z"/><path class="a" d="m156.8 105.4c-0.1-0.6 0.5-1.2 1.2-1.2 0.6 0 1.2 0.6 1.2 1.2 0 0.7-0.6 1.3-1.3 1.3-0.6-0.1-1.2-0.6-1.2-1.3z"/><path class="a" d="m178.1 105.5c0 0.6-0.5 1.2-1.2 1.2-0.7 0-1.2-0.6-1.2-1.3 0-0.6 0.5-1.1 1.2-1.1 0.6 0 1.2 0.5 1.2 1.2z"/><path class="a" d="m160.3 110c-0.7 0-1.2-0.5-1.2-1.2 0-0.7 0.5-1.2 1.2-1.2 0.7 0 1.2 0.5 1.2 1.2 0 0.7-0.5 1.2-1.2 1.2z"/><path class="a" d="m171.3 93.3c-0.6 0-1.1-0.6-1.2-1.2 0-0.7 0.6-1.2 1.3-1.2 0.6 0 1.1 0.5 1.1 1.2 0 0.6-0.5 1.2-1.2 1.2z"/><path class="a" d="m156.8 97.6c-0.1-0.6 0.5-1.2 1.1-1.2 0.7 0 1.3 0.6 1.3 1.2-0.1 0.7-0.6 1.2-1.2 1.2-0.7 0-1.3-0.5-1.3-1.2z"/><path class="a" d="m178.1 97.6c0 0.7-0.5 1.2-1.2 1.2-0.7 0-1.2-0.5-1.2-1.2 0-0.6 0.6-1.2 1.2-1.2 0.7 0 1.2 0.6 1.2 1.2z"/><path class="a" d="m178.8 94.9c-0.4 0-0.8-0.3-0.8-0.7 0-0.4 0.4-0.8 0.8-0.8 0.4 0 0.7 0.4 0.7 0.8 0 0.4-0.3 0.7-0.7 0.7z"/><path class="a" d="m171.1 88.7c0 0.4-0.3 0.8-0.7 0.8-0.4 0-0.7-0.4-0.7-0.8 0-0.4 0.3-0.7 0.7-0.7 0.4 0 0.7 0.3 0.7 0.7z"/><path class="a" d="m154.3 98.7c0-0.4 0.4-0.8 0.8-0.8 0.4 0.1 0.7 0.4 0.7 0.8 0 0.4-0.3 0.7-0.7 0.7-0.4 0-0.8-0.3-0.8-0.7z"/><path class="a" d="m170.3 113.4c0.4 0 0.7 0.3 0.7 0.7 0 0.4-0.3 0.8-0.7 0.8-0.4 0-0.8-0.3-0.8-0.8 0-0.4 0.4-0.7 0.8-0.7z"/><path class="a" d="m179.2 108.7c0 0.3-0.3 0.7-0.7 0.7-0.4 0-0.8-0.4-0.8-0.8 0-0.4 0.4-0.7 0.8-0.7 0.4 0 0.7 0.3 0.7 0.8z"/><path class="a" d="m156.9 109.2c-0.4 0-0.7-0.3-0.7-0.7 0-0.4 0.3-0.8 0.8-0.8 0.4 0 0.7 0.4 0.7 0.8 0 0.4-0.4 0.7-0.8 0.7z"/><path class="a" d="m180.7 103.3c0.4 0 0.7 0.3 0.7 0.7 0 0.4-0.4 0.7-0.8 0.7-0.4 0-0.7-0.3-0.7-0.7 0-0.4 0.3-0.7 0.8-0.7z"/><path class="a" d="m161.3 90.4c0 0.4-0.4 0.7-0.8 0.7-0.4 0-0.7-0.3-0.7-0.7 0-0.4 0.3-0.8 0.7-0.8 0.5 0.1 0.8 0.4 0.8 0.8z"/><path class="a" d="m165.4 87.8c0.4 0 0.8 0.3 0.7 0.7 0 0.4-0.3 0.8-0.7 0.7-0.4 0-0.7-0.3-0.7-0.7 0-0.4 0.3-0.7 0.7-0.7z"/><path class="a" d="m160.3 111.3c0.5 0 0.8 0.4 0.8 0.8 0 0.4-0.4 0.7-0.8 0.7-0.3 0-0.7-0.3-0.7-0.7 0-0.4 0.4-0.8 0.7-0.8z"/><path class="a" d="m179.8 98.8c0-0.4 0.3-0.7 0.7-0.7 0.4 0 0.7 0.4 0.7 0.8 0 0.4-0.3 0.7-0.7 0.7-0.4 0-0.7-0.3-0.7-0.8z"/><path class="a" d="m165.1 115c-0.4 0-0.7-0.3-0.7-0.7 0-0.4 0.3-0.8 0.7-0.8 0.4 0 0.7 0.4 0.7 0.8 0 0.3-0.3 0.7-0.7 0.7z"/><path class="a" d="m175 91.2c-0.4 0-0.7-0.3-0.7-0.7 0-0.4 0.4-0.8 0.8-0.7 0.4 0 0.7 0.3 0.7 0.7 0 0.4-0.3 0.7-0.7 0.7z"/><path class="a" d="m156.2 94c0-0.5 0.3-0.8 0.7-0.8 0.4 0 0.7 0.3 0.7 0.8 0 0.3-0.3 0.7-0.7 0.7-0.4 0-0.7-0.4-0.7-0.7z"/><path class="a" d="m174.8 112.9c-0.4 0-0.7-0.3-0.7-0.7 0-0.4 0.3-0.7 0.8-0.7 0.4 0 0.7 0.3 0.7 0.7 0 0.4-0.4 0.7-0.8 0.7z"/><path class="a" d="m154.9 103c0.4 0 0.7 0.3 0.7 0.7 0 0.4-0.3 0.7-0.7 0.7-0.4 0-0.8-0.3-0.8-0.7 0-0.4 0.4-0.7 0.8-0.7z"/><path class="a" d="m182.4 108.2c-0.3 0-0.6-0.2-0.6-0.5 0-0.3 0.3-0.5 0.5-0.5 0.3 0 0.6 0.2 0.6 0.5 0 0.3-0.2 0.5-0.5 0.5z"/><path class="a" d="m161.1 116.2c-0.3 0-0.5-0.2-0.5-0.5 0-0.3 0.3-0.5 0.6-0.5 0.3 0 0.5 0.2 0.5 0.5 0 0.3-0.3 0.5-0.6 0.5z"/><path class="a" d="m174.9 86.9c0 0.3-0.2 0.5-0.5 0.5-0.3 0-0.5-0.3-0.5-0.6 0-0.2 0.2-0.5 0.5-0.5 0.3 0 0.5 0.3 0.5 0.6z"/><path class="a" d="m157.5 89.3c0 0.4-0.2 0.6-0.5 0.6-0.3 0-0.6-0.2-0.6-0.5 0-0.3 0.3-0.6 0.6-0.6 0.3 0 0.5 0.3 0.5 0.5z"/><path class="a" d="m156.1 111.3c0.4 0 0.6 0.2 0.6 0.5 0 0.3-0.3 0.5-0.5 0.5-0.3 0-0.6-0.2-0.6-0.5 0-0.3 0.2-0.5 0.5-0.5z"/><path class="a" d="m162.8 86.2c0 0.3-0.3 0.5-0.6 0.5-0.3 0-0.5-0.3-0.5-0.6 0-0.3 0.3-0.5 0.6-0.5 0.3 0 0.5 0.3 0.5 0.6z"/><path class="a" d="m179.1 112.7c0 0.3-0.3 0.5-0.6 0.5-0.3 0-0.5-0.3-0.5-0.6 0-0.3 0.3-0.5 0.6-0.5 0.3 0 0.5 0.2 0.5 0.6z"/><path class="a" d="m183.1 101.6c0-0.3 0.2-0.5 0.5-0.5 0.3 0 0.6 0.2 0.6 0.5 0 0.3-0.3 0.5-0.6 0.5-0.3 0-0.5-0.2-0.5-0.5z"/><path class="a" d="m182.8 96.1c-0.3 0-0.5-0.2-0.5-0.5 0-0.3 0.2-0.6 0.5-0.6 0.3 0 0.5 0.3 0.6 0.6 0 0.3-0.3 0.5-0.6 0.5z"/><path class="a" d="m152.6 106.6c0-0.3 0.2-0.5 0.5-0.5 0.3 0 0.5 0.3 0.5 0.5 0 0.3-0.2 0.6-0.5 0.6-0.3 0-0.5-0.3-0.5-0.6z"/><path class="a" d="m179.4 90.7c-0.3 0-0.5-0.2-0.5-0.5 0-0.3 0.2-0.5 0.5-0.5 0.3 0 0.6 0.2 0.6 0.5 0 0.3-0.3 0.5-0.6 0.5z"/><path class="a" d="m153.5 95c-0.3 0-0.5-0.3-0.5-0.6 0-0.2 0.2-0.5 0.5-0.5 0.3 0 0.6 0.3 0.6 0.6 0 0.3-0.3 0.5-0.6 0.5z"/><path class="a" d="m152.5 100.4c0 0.3-0.3 0.5-0.6 0.5-0.3 0-0.5-0.2-0.5-0.5 0-0.3 0.3-0.5 0.5-0.5 0.3 0 0.6 0.2 0.6 0.5z"/><path class="a" d="m172.8 115.9c-0.1-0.3 0.2-0.6 0.5-0.6 0.3 0 0.5 0.3 0.5 0.6 0 0.2-0.2 0.5-0.5 0.5-0.3 0-0.6-0.2-0.6-0.5z"/><path class="a" d="m169.1 85.2c0 0.3-0.3 0.6-0.6 0.6-0.2 0-0.5-0.3-0.5-0.6 0-0.3 0.3-0.5 0.6-0.5 0.3 0 0.5 0.2 0.5 0.5z"/><path class="a" d="m167.3 117.4c-0.3 0-0.5-0.2-0.5-0.5 0-0.3 0.3-0.5 0.6-0.5 0.3 0 0.5 0.2 0.5 0.5 0 0.3-0.3 0.5-0.5 0.5z"/><path class="a" d="m186.5 97.9c0 0.2-0.2 0.4-0.4 0.4-0.2 0-0.4-0.2-0.4-0.4 0-0.2 0.1-0.4 0.4-0.4 0.2 0 0.4 0.2 0.4 0.4z"/><path class="a" d="m178.6 86.3c0 0.2-0.2 0.4-0.4 0.4-0.2 0-0.4-0.2-0.4-0.4 0-0.2 0.2-0.4 0.4-0.4 0.2 0 0.4 0.1 0.4 0.4z"/><path class="a" d="m177.8 116.9c-0.3 0-0.4-0.2-0.4-0.4 0-0.3 0.2-0.4 0.4-0.4 0.2 0 0.4 0.2 0.4 0.4 0 0.2-0.2 0.4-0.4 0.4z"/><path class="a" d="m183.5 111.6c0 0.3-0.2 0.4-0.4 0.4-0.2 0-0.4-0.2-0.4-0.4 0-0.2 0.2-0.4 0.4-0.4 0.2 0 0.4 0.3 0.4 0.5z"/><path class="a" d="m149.5 97.2c0-0.2 0.2-0.4 0.4-0.4 0.2 0 0.4 0.1 0.4 0.4 0 0.2-0.2 0.3-0.4 0.4-0.3 0-0.4-0.2-0.4-0.4z"/><path class="a" d="m171.1 118.7c0.3 0 0.4 0.2 0.4 0.4 0 0.2-0.2 0.4-0.4 0.4-0.2 0-0.4-0.2-0.4-0.4q0-0.4 0.4-0.4z"/><path class="a" d="m157.9 85.2c0.2 0 0.4 0.2 0.4 0.4 0 0.2-0.2 0.4-0.4 0.4-0.3 0-0.4-0.1-0.4-0.3 0-0.3 0.1-0.5 0.4-0.5z"/><path class="a" d="m150.3 104.5c0 0.2-0.1 0.4-0.4 0.4-0.2 0-0.3-0.2-0.3-0.4 0-0.2 0.2-0.4 0.4-0.4 0.2 0 0.4 0.2 0.4 0.4z"/><path class="a" d="m182.9 91.1c0-0.2 0.1-0.4 0.4-0.4 0.2 0 0.3 0.2 0.3 0.4 0 0.2-0.1 0.4-0.3 0.4-0.3 0-0.4-0.2-0.4-0.4z"/><path class="a" d="m153.3 90.7c0 0.3-0.2 0.4-0.4 0.4-0.2 0-0.4-0.1-0.4-0.4 0-0.2 0.2-0.4 0.4-0.4 0.2 0 0.4 0.2 0.4 0.4z"/><path fill-rule="evenodd" d="m197 216v15h-63v-15z"/><path class="a" d="m171.9 83.6c-0.3 0-0.4-0.1-0.4-0.4 0-0.2 0.2-0.4 0.4-0.4 0.2 0 0.4 0.2 0.4 0.4 0 0.3-0.2 0.4-0.4 0.4z"/><path class="a" d="m152.4 110.6c0.3 0 0.4 0.2 0.4 0.5 0 0.2-0.2 0.3-0.4 0.3-0.3 0-0.4-0.2-0.4-0.4 0-0.2 0.2-0.4 0.4-0.4z"/><path class="a" d="m157.3 116.8q-0.4 0-0.4-0.4c0-0.2 0.2-0.3 0.4-0.3 0.2 0 0.4 0.1 0.4 0.4q0 0.3-0.4 0.3z"/><path class="a" d="m164.9 83c0 0.2-0.1 0.4-0.4 0.4-0.2 0-0.3-0.2-0.3-0.4 0-0.2 0.2-0.4 0.3-0.4 0.2 0 0.4 0.2 0.4 0.4z"/><path class="a" d="m185.8 104.5c0.2 0 0.4 0.2 0.4 0.4 0 0.2-0.2 0.4-0.4 0.4-0.2 0-0.4-0.2-0.4-0.4 0-0.2 0.1-0.4 0.4-0.4z"/><path class="a" d="m164.5 119.1c0 0.2-0.1 0.4-0.4 0.4-0.2 0-0.3-0.2-0.3-0.4 0-0.2 0.1-0.4 0.3-0.4 0.2 0 0.4 0.2 0.4 0.4z"/><path class="a" d="m168 336c-92.6 0-168-75.4-168-168 0-92.6 75.4-168 168-168 92.6 0 168 75.4 168 168 0 92.6-75.4 168-168 168zm0-333c-91 0-165 74-165 165 0 91 74 165 165 165 91 0 165-74 165-165 0-91-74-165-165-165z"/></svg>