<svg version="1.2" xmlns="http://www.w3.org/2000/svg" viewBox="0 0 462 462" width="462" height="462"><style>.a{fill:#fff}.b{fill:#7c7c7c}.c{fill:none;stroke:#000}.d{fill:#7d7d7d}.e{stroke:#000;stroke-width:5}</style><path class="a" d="m231 447.9c119.2 0 215.9-96.7 215.9-215.9 0-119.3-96.7-216-215.9-216-119.3 0-216 96.7-216 216 0 119.2 96.7 215.9 216 215.9z"/><path  d="m237.2 30.4h-13.3v11.1h13.3z"/><path  d="m237.2 422.7h-13.3v11.1h13.3z"/><path  d="m135.5 54.1l-11.5 6.7 5.5 9.6 11.6-6.7z"/><path  d="m331.6 393.8l-11.5 6.7 5.5 9.6 11.6-6.7z"/><path  d="m59.3 125.5l-6.7 11.5 9.6 5.6 6.7-11.6z"/><path  d="m398.9 321.6l-6.6 11.5 9.6 5.6 6.7-11.5z"/><path  d="m40 225.4h-11.1v13.3h11.1z"/><path  d="m432.2 225.4h-11.1v13.3h11.1z"/><path  d="m62.2 321.6l-9.6 5.6 6.7 11.5 9.6-5.6z"/><path  d="m401.9 125.5l-9.6 5.5 6.6 11.6 9.7-5.6z"/><path  d="m129.5 393.8l-5.5 9.6 11.5 6.7 5.6-9.7z"/><path  d="m325.6 54.1l-5.5 9.6 11.5 6.7 5.6-9.6z"/><path class="b" d="m211.1 31.4l-2.9 0.3 1.1 10.7 2.9-0.3z"/><path class="b" d="m252.1 421.6l-2.9 0.3 1.1 10.8 3-0.4z"/><path class="b" d="m190.2 34.5l-2.8 0.6 2.2 10.6 2.9-0.6z"/><path class="b" d="m271.8 418.3l-2.9 0.6 2.3 10.6 2.9-0.6z"/><path class="b" d="m169.8 39.8l-2.8 0.9 3.4 10.3 2.8-0.9z"/><path class="b" d="m291.1 413l-2.8 0.9 3.3 10.3 2.8-0.9z"/><path class="b" d="m150.1 47.3l-2.7 1.2 4.4 9.8 2.7-1.2z"/><path class="b" d="m309.7 405.7l-2.7 1.2 4.4 9.9 2.7-1.2z"/><path class="b" d="m113.4 68.1l-2.4 1.7 6.4 8.8 2.4-1.8z"/><path class="b" d="m344 385.5l-2.3 1.7 6.3 8.8 2.4-1.8z"/><path class="b" d="m96.9 81.2l-2.2 2 7.3 8 2.2-1.9z"/><path class="b" d="m359.5 372.8l-2.2 2 7.2 8 2.2-1.9z"/><path class="b" d="m81.9 96l-2 2.2 8.1 7.3 1.9-2.2z"/><path class="b" d="m373.5 358.6l-2 2.2 8 7.2 2-2.2z"/><path class="b" d="m68.5 112.3l-1.8 2.4 8.8 6.4 1.7-2.4z"/><path class="b" d="m385.9 343l-1.7 2.4 8.7 6.3 1.8-2.4z"/><path class="b" d="m47.1 148.7l-1.2 2.7 9.9 4.4 1.2-2.7z"/><path class="b" d="m405.6 308.3l-1.2 2.7 9.9 4.4 1.2-2.7z"/><path class="b" d="m39.4 168.3l-0.9 2.8 10.3 3.4 0.9-2.8z"/><path class="b" d="m412.6 289.5l-0.9 2.9 10.3 3.3 0.9-2.8z"/><path class="b" d="m33.8 188.7l-0.6 2.8 10.6 2.3 0.6-2.9z"/><path class="b" d="m417.6 270.2l-0.6 2.9 10.6 2.3 0.6-2.9z"/><path class="b" d="m30.4 209.5l-0.3 2.9 10.7 1.1 0.3-2.9z"/><path class="b" d="m420.6 250.5l-0.3 2.9 10.8 1.2 0.3-3z"/><path class="b" d="m30.1 251.6l0.3 3 10.7-1.2-0.3-2.9z"/><path class="b" d="m420.3 210.6l0.3 3 10.7-1.2-0.3-2.9z"/><path class="b" d="m33.2 272.5l0.6 2.9 10.6-2.3-0.6-2.9z"/><path class="b" d="m417 190.9l0.6 2.9 10.6-2.3-0.6-2.8z"/><path class="b" d="m38.5 292.9l0.9 2.8 10.3-3.3-0.9-2.8z"/><path class="b" d="m411.7 171.7l0.9 2.8 10.3-3.4-0.9-2.8z"/><path class="b" d="m45.9 312.6l1.2 2.8 9.9-4.5-1.2-2.7z"/><path class="b" d="m404.4 153.1l1.2 2.7 9.9-4.4-1.2-2.7z"/><path class="b" d="m66.7 349.3l1.8 2.4 8.7-6.4-1.7-2.4z"/><path class="b" d="m384.2 118.7l1.7 2.4 8.8-6.4-1.8-2.4z"/><path class="b" d="m79.9 365.8l2 2.2 8-7.2-1.9-2.2z"/><path class="b" d="m371.5 103.3l2 2.2 8-7.3-2-2.2z"/><path class="b" d="m94.7 380.8l2.2 2 7.3-8-2.2-2z"/><path class="b" d="m357.2 89.3l2.2 1.9 7.3-8-2.2-2z"/><path class="b" d="m111 394.2l2.4 1.8 6.4-8.8-2.4-1.7z"/><path class="b" d="m341.7 76.8l2.4 1.8 6.3-8.8-2.4-1.7z"/><path class="b" d="m147.4 415.6l2.7 1.2 4.4-9.9-2.7-1.2z"/><path class="b" d="m307 57.1l2.7 1.2 4.4-9.9-2.7-1.2z"/><path class="b" d="m167 423.3l2.8 0.9 3.3-10.3-2.8-0.9z"/><path class="b" d="m288.3 50.1l2.8 1 3.3-10.3-2.8-1z"/><path class="b" d="m187.3 428.9l2.9 0.6 2.3-10.6-2.9-0.6z"/><path class="b" d="m268.9 45.1l2.9 0.6 2.3-10.6-2.9-0.6z"/><path class="b" d="m208.2 432.4l2.9 0.3 1.1-10.8-2.9-0.3z"/><path class="b" d="m249.2 42.1l2.9 0.3 1.2-10.7-3-0.3z"/><path class="c" d="m230.9 388.3c86.4 0 156.4-70 156.4-156.4 0-86.3-70-156.3-156.4-156.3-86.3 0-156.3 70-156.3 156.3 0 86.4 70 156.4 156.3 156.4z"/><path  d="m55.1 244.3q0.5-1 1.3-1.6 0.9-0.7 2.1-0.8l3.4-0.3q0.3 0 0.5 0.2 0.1 0.1 0.1 0.4 0.1 0.2-0.1 0.4-0.1 0.2-0.4 0.2l-0.8 0.1q0.7 0.4 1.2 1.2 0.5 0.7 0.6 1.7 0.1 1.1-0.4 2-0.5 1-1.4 1.6-0.8 0.6-2 0.7-1.1 0.1-2.1-0.3-1-0.5-1.6-1.4-0.6-0.9-0.7-2-0.1-1.2 0.3-2.1zm6.3 0q-0.5-0.7-1.2-1-0.7-0.3-1.6-0.2-0.9 0-1.5 0.5-0.7 0.4-1.1 1.2-0.3 0.7-0.2 1.5 0 0.9 0.5 1.5 0.5 0.7 1.2 1 0.7 0.3 1.6 0.2 0.9 0 1.5-0.5 0.7-0.4 1-1.2 0.4-0.7 0.3-1.5-0.1-0.9-0.5-1.5z"/><path  d="m52.6 239.8q-0.3 0.2-0.6 0.2-0.4 0-0.6-0.2-0.2-0.2-0.2-0.5 0-0.4 0.2-0.6 0.2-0.2 0.5-0.3 0.4 0 0.6 0.2 0.3 0.3 0.3 0.6 0 0.4-0.2 0.6zm13.2 2.1q-0.1 0.2-0.4 0.2-0.2 0-0.4-0.2-0.2-0.1-0.2-0.4 0-1-0.7-1.6-0.7-0.6-1.7-0.6l-7.5 0.4q-0.2 0-0.4-0.2-0.2-0.1-0.2-0.4 0-0.2 0.1-0.4 0.2-0.2 0.5-0.2l7.4-0.3q1.1-0.1 1.9 0.3 0.8 0.4 1.2 1.2 0.5 0.8 0.6 1.8 0 0.2-0.2 0.4z"/><path  d="m54.5 229.7q0.4-0.8 1.2-1.3 0.9-0.5 2.1-0.5h3.8q0.3 0 0.4 0.1 0.2 0.2 0.2 0.4 0 0.3-0.2 0.4-0.1 0.2-0.4 0.2h-3.8q-1.3 0-2 0.8-0.7 0.7-0.7 1.9 0 0.7 0.3 1.3 0.3 0.6 0.8 0.9 0.5 0.4 1.1 0.4l4.4-0.1q0.2 0 0.4 0.2 0.1 0.1 0.1 0.4 0 0.3-0.1 0.4-0.2 0.2-0.4 0.2h-7q-0.3 0-0.4-0.1-0.2-0.2-0.2-0.4 0-0.3 0.2-0.5 0.1-0.1 0.4-0.1h0.5q-0.6-0.5-0.9-1.2-0.3-0.7-0.3-1.5 0-1 0.4-1.9z"/><path  d="m54.9 219.8q0.5-0.8 1.5-1.3 0.9-0.4 2-0.3 0.3 0 0.4 0.1 0.1 0.2 0.1 0.4l-0.3 6q1.2-0.1 2-0.9 0.8-0.8 0.9-2 0-0.5-0.1-1.1-0.2-0.5-0.5-0.9-0.1-0.2-0.1-0.4 0-0.1 0.1-0.3 0.2-0.2 0.4-0.2 0.2 0 0.4 0.2 0.4 0.5 0.6 1.3 0.2 0.8 0.2 1.5 0 1.1-0.6 2-0.6 0.9-1.5 1.4-1 0.5-2.2 0.4-1.2 0-2.1-0.6-0.9-0.5-1.4-1.4-0.5-0.9-0.4-2.1 0.1-1.1 0.6-1.9zm1 3.9q0.7 0.8 1.8 1l0.3-5.4q-1.2 0-1.9 0.7-0.7 0.7-0.8 1.8 0 1.1 0.6 1.9z"/><path  d="m55.7 210.7q0.6-0.8 1.5-1.1 1-0.4 2.1-0.3 0.3 0 0.4 0.2 0.1 0.1 0.1 0.4l-0.6 5.9q1.2 0 2-0.7 0.9-0.8 1-2 0.1-0.5-0.1-1.1-0.1-0.5-0.3-0.9-0.2-0.2-0.1-0.4 0-0.2 0.1-0.3 0.2-0.2 0.4-0.2 0.2 0 0.3 0.2 0.4 0.5 0.6 1.3 0.2 0.8 0.1 1.5-0.1 1.2-0.7 2-0.6 0.9-1.6 1.3-1 0.5-2.2 0.3-1.2-0.1-2-0.7-0.9-0.5-1.4-1.5-0.4-0.9-0.3-2 0.1-1.1 0.7-1.9zm0.8 3.9q0.7 0.8 1.8 1.1l0.5-5.4q-1.1 0-1.9 0.6-0.7 0.7-0.8 1.8-0.2 1.1 0.5 1.9z"/><path  d="m77.3 160.2q0.2 0.1 0.3 0.3 0 0.2-0.1 0.4-0.1 0.2-0.2 0.3-0.1 0.1-0.3 0.1l-4.9 0.7-0.1 0.3-0.9 2 3.7 1.5q0.2 0.1 0.3 0.4 0.1 0.2 0 0.4-0.1 0.2-0.3 0.3-0.3 0.1-0.5 0l-9.5-4.1q-0.3-0.1-0.3-0.3-0.1-0.3 0-0.5l1.1-2.5q0.4-1 1.2-1.6 0.7-0.6 1.6-0.7 1-0.1 1.9 0.3 1.1 0.4 1.6 1.3 0.6 0.9 0.5 2l4.5-0.6q0.3-0.1 0.4 0zm-6.3 1.6q0.3-0.6 0.3-1.3-0.1-0.7-0.4-1.2-0.4-0.5-1-0.8-0.6-0.3-1.3-0.2-0.6 0.1-1.2 0.5-0.5 0.4-0.8 1.1l-0.9 2 4.4 1.9z"/><path  d="m74 150.8q0.8-0.5 1.8-0.5 1 0 2 0.5 0.3 0.1 0.3 0.3 0.1 0.2 0 0.4l-2.7 5.3q1.1 0.5 2.2 0.1 1-0.5 1.6-1.6 0.2-0.4 0.3-1 0.1-0.6 0-1-0.1-0.2 0-0.4 0.1-0.1 0.3-0.3 0.2 0 0.4 0 0.2 0.1 0.2 0.3 0.2 0.7 0.1 1.5-0.1 0.8-0.4 1.4-0.5 1-1.4 1.6-0.9 0.6-2 0.7-1 0-2.1-0.5-1.1-0.5-1.7-1.4-0.6-0.9-0.7-1.9-0.1-1 0.4-2 0.5-1 1.4-1.5zm-0.6 3.9q0.3 1 1.2 1.6l2.4-4.8q-1.1-0.4-2-0.1-0.9 0.4-1.4 1.3-0.5 1-0.2 2z"/><path  d="m83.6 147.1q0.2-0.1 0.4 0.1 0.2 0.1 0.3 0.3 0 0.3-0.1 0.5l-0.2 0.3q-0.4 0.6-1 1-0.6 0.4-1.3 0.3-0.8 0-1.5-0.4l-3.4-1.9-0.5 0.9q-0.1 0.2-0.3 0.2-0.2 0.1-0.4 0-0.2-0.1-0.2-0.3-0.1-0.2 0-0.4l0.5-0.9-2-1.1q-0.2-0.1-0.3-0.3-0.1-0.2 0.1-0.4 0.1-0.3 0.3-0.3 0.2-0.1 0.4 0l2 1.1 0.9-1.4q0.1-0.2 0.3-0.3 0.2 0 0.4 0.1 0.1 0.1 0.2 0.3 0 0.2-0.1 0.4l-0.8 1.4 3.5 2q0.6 0.3 1.3 0.2 0.6-0.2 0.9-0.8l0.2-0.3q0.2-0.3 0.4-0.3z"/><path  d="m82.3 135.7q0.3-0.1 0.5 0.1l5.9 3.6q0.2 0.1 0.3 0.4 0 0.2-0.1 0.4-0.2 0.2-0.4 0.3-0.2 0-0.4-0.1l-0.4-0.3q0.2 0.7 0.1 1.5-0.1 0.7-0.6 1.4-0.5 0.9-1.3 1.4-0.8 0.5-1.8 0.4-1 0-2-0.6l-3.2-2.1q-0.2-0.1-0.3-0.3 0-0.2 0.1-0.4 0.1-0.3 0.3-0.3 0.3-0.1 0.4 0.1l3.3 2q1.1 0.7 2.1 0.4 1-0.3 1.6-1.3 0.4-0.6 0.4-1.2 0.1-0.7-0.1-1.2-0.3-0.6-0.8-0.9l-3.7-2.3q-0.2-0.1-0.3-0.3 0-0.2 0.1-0.5 0.1-0.2 0.3-0.2z"/><path  d="m86.6 129.2q0.4-0.2 0.6 0 0.1 0 0.1 0.1 0.2 0.1 0.2 0.3 0 0.1-0.2 0.3-0.1 0.1-0.3 0.4-0.1 0.1-0.2 0.3-0.6 0.9-0.5 1.8 0.1 0.9 0.8 1.4l3.7 2.5q0.2 0.2 0.2 0.4 0.1 0.2-0.1 0.4-0.1 0.2-0.3 0.3-0.2 0-0.5-0.1l-5.7-4q-0.2-0.1-0.3-0.3 0-0.3 0.2-0.5 0.1-0.2 0.3-0.2 0.2-0.1 0.4 0.1l0.6 0.4q-0.3-0.7-0.2-1.5 0.1-0.7 0.5-1.4 0.4-0.5 0.7-0.7z"/><path  d="m91.7 122.9q0.9-0.4 1.8-0.2 1 0.1 1.9 0.8l3.1 2.3q0.2 0.2 0.2 0.4 0.1 0.3-0.1 0.4-0.2 0.2-0.4 0.3-0.2 0-0.4-0.2l-3-2.3q-1.1-0.8-2.1-0.6-1 0.2-1.7 1.1-0.4 0.6-0.6 1.2-0.1 0.6 0.1 1.2 0.2 0.6 0.7 0.9l3.5 2.7q0.1 0.2 0.2 0.4 0 0.2-0.1 0.4-0.2 0.2-0.4 0.2-0.2 0.1-0.4-0.1l-5.6-4.2q-0.1-0.1-0.2-0.4 0-0.2 0.1-0.4 0.2-0.2 0.4-0.2 0.2 0 0.4 0.1l0.4 0.3q-0.1-0.7 0.1-1.5 0.1-0.7 0.6-1.3 0.7-0.9 1.5-1.3z"/><path  d="m86.5 340q0-0.2 0.2-0.4l8.1-6.6q0.1-0.1 0.4-0.1 0.2 0 0.4 0.2 0.1 0.2 0.1 0.4 0 0.3-0.2 0.4l-6.5 5.3 9.1-2.1q0.4-0.1 0.6 0.2 0.2 0.3 0 0.6l-3.7 8.4 6.4-5.2q0.2-0.2 0.4-0.2 0.2 0.1 0.4 0.2 0.1 0.2 0.1 0.5 0 0.2-0.2 0.4l-8 6.6q-0.2 0.1-0.4 0.1-0.3 0-0.4-0.2-0.3-0.3-0.1-0.6l4.2-9.6-10.2 2.3q-0.3 0.1-0.5-0.2-0.2-0.2-0.2-0.4z"/><path  d="m84.5 330.8q-0.1-1.1 0.4-2.1 0.4-0.9 1.4-1.6l2.8-2q0.2-0.2 0.4-0.1 0.2 0 0.4 0.2 0.1 0.2 0.1 0.4 0 0.3-0.2 0.4l-0.7 0.5q0.8 0 1.6 0.4 0.8 0.5 1.4 1.2 0.6 0.9 0.7 2 0.1 1.1-0.3 2-0.5 1-1.4 1.7-1 0.7-2.1 0.8-1.1 0.1-2-0.4-1-0.4-1.7-1.4-0.7-0.9-0.8-2zm5.5-3.2q-0.7-0.3-1.5-0.2-0.8 0.1-1.6 0.6-0.7 0.5-1 1.2-0.3 0.8-0.3 1.6 0.1 0.7 0.6 1.4 0.5 0.7 1.2 1 0.7 0.4 1.5 0.3 0.8-0.1 1.5-0.6 0.7-0.5 1.1-1.3 0.3-0.7 0.2-1.5 0-0.8-0.5-1.5-0.5-0.7-1.2-1z"/><path  d="m79.6 324.1q-0.1-0.4 0.2-0.6 0.1 0 0.1 0 0.2-0.1 0.3 0 0.2 0 0.3 0.2 0.1 0.1 0.2 0.4 0.1 0.1 0.2 0.3 0.6 1 1.5 1.2 0.9 0.3 1.6-0.2l3.8-2.4q0.2-0.2 0.4-0.1 0.2 0 0.3 0.2 0.2 0.3 0.1 0.5 0 0.2-0.2 0.3l-5.9 3.8q-0.2 0.1-0.4 0.1-0.2 0-0.4-0.3-0.1-0.2-0.1-0.4 0.1-0.2 0.3-0.3l0.6-0.4q-0.8 0-1.4-0.4-0.7-0.4-1.1-1-0.3-0.5-0.4-0.9z"/><path  d="m82.1 313.5q0.1-0.1 0.4 0 0.2 0 0.3 0.2 0.1 0.2 0 0.4l-1.6 4.6 1.4 0.4 2-1.2q0.2-0.1 0.4-0.1 0.2 0.1 0.3 0.3 0.2 0.2 0.1 0.4 0 0.3-0.2 0.4l-9 5.3q-0.2 0.1-0.4 0.1-0.3-0.1-0.4-0.3-0.1-0.2-0.1-0.4 0.1-0.2 0.3-0.4l5.8-3.4-5.4-1.7q-0.2 0-0.3-0.2-0.1-0.2 0-0.4 0.1-0.3 0.2-0.3 0.2-0.1 0.4-0.1l3.8 1.2 1.7-4.6q0.1-0.1 0.2-0.2z"/><path  d="m72.8 311.3q0-0.9 0.6-1.8 0.6-0.8 1.6-1.3 0.2-0.2 0.4-0.1 0.2 0.1 0.3 0.3l2.8 5.2q1-0.6 1.3-1.7 0.3-1.1-0.3-2.2-0.3-0.5-0.7-0.9-0.4-0.4-0.8-0.5-0.2-0.1-0.3-0.3-0.1-0.1-0.1-0.3 0.1-0.3 0.3-0.4 0.2-0.1 0.3 0 0.6 0.2 1.2 0.8 0.6 0.5 1 1.1 0.5 1.1 0.5 2.1 0 1.1-0.6 2-0.6 0.9-1.6 1.5-1.1 0.5-2.1 0.5-1.1 0-2-0.5-0.9-0.5-1.4-1.5-0.5-1-0.5-2zm2.9 2.8q1 0.3 2 0l-2.5-4.8q-1 0.6-1.2 1.6-0.3 0.9 0.2 1.9 0.5 1 1.5 1.3z"/><path  d="m75.6 302q0.1-0.2 0.3-0.3 0.2-0.1 0.5 0 0.2 0.1 0.3 0.3l0.1 0.3q0.4 0.7 0.3 1.5-0.1 0.7-0.5 1.3-0.4 0.6-1.2 0.9l-3.5 1.7 0.4 0.9q0.1 0.2 0 0.4 0 0.2-0.2 0.3-0.2 0.1-0.4 0-0.2-0.1-0.3-0.3l-0.4-0.8-2.1 0.9q-0.2 0.2-0.4 0.1-0.2-0.1-0.3-0.3-0.1-0.2-0.1-0.5 0.1-0.2 0.3-0.3l2.1-1-0.7-1.5q-0.1-0.2-0.1-0.4 0.1-0.2 0.3-0.3 0.2-0.1 0.4 0 0.2 0.1 0.3 0.3l0.7 1.5 3.5-1.7q0.7-0.3 1-0.9 0.2-0.7-0.1-1.3l-0.2-0.3q-0.1-0.3 0-0.5z"/><path  d="m66.9 304.4q-0.1 0.3-0.4 0.4-0.3 0.2-0.6 0.1-0.3-0.2-0.5-0.5-0.1-0.3 0-0.6 0.1-0.3 0.4-0.4 0.3-0.2 0.7-0.1 0.3 0.2 0.4 0.5 0.1 0.3 0 0.6zm8.8-4.2q-0.1 0.3-0.3 0.4l-6.3 2.8q-0.3 0.1-0.5 0-0.2 0-0.3-0.3-0.1-0.2 0-0.4 0-0.2 0.3-0.3l6.3-2.9q0.2-0.1 0.4 0 0.2 0.1 0.4 0.3 0.1 0.2 0 0.5z"/><path  d="m65.3 295q0.1-0.9 0.7-1.7 0.6-0.7 1.7-1.2l3.5-1.4q0.3-0.1 0.5 0 0.2 0.1 0.3 0.3 0.1 0.2 0 0.4-0.1 0.2-0.3 0.3l-3.6 1.5q-1.2 0.5-1.6 1.4-0.3 0.9 0.1 2 0.3 0.7 0.7 1.1 0.5 0.5 1.1 0.6 0.6 0.1 1.2-0.1l4-1.6q0.2-0.1 0.4 0 0.3 0 0.3 0.3 0.1 0.2 0 0.4 0 0.2-0.3 0.3l-6.4 2.6q-0.3 0.1-0.5 0-0.2-0.1-0.3-0.3-0.1-0.2 0-0.4 0.1-0.2 0.3-0.3l0.5-0.2q-0.7-0.3-1.2-0.8-0.6-0.5-0.9-1.3-0.4-0.9-0.3-1.9z"/><path  d="m62.1 285.9q0.2-1 0.9-1.8 0.7-0.8 1.9-1.2l2.8-1q1.1-0.4 2.2-0.2 1.1 0.2 1.9 0.9 0.8 0.7 1.2 1.8 0.4 1.1 0.3 2-0.1 1-0.7 1.8-0.1 0.2-0.3 0.3-0.2 0-0.4-0.1-0.1-0.1-0.2-0.3 0-0.1 0-0.2 0-0.2 0.1-0.3 0.4-0.6 0.4-1.3 0.1-0.8-0.2-1.6-0.2-0.8-0.8-1.3-0.6-0.5-1.4-0.6-0.9-0.1-1.8 0.2l-0.6 0.2q1 0.1 1.7 0.7 0.7 0.7 1 1.6 0.4 1.1 0.2 2.2-0.2 1-0.9 1.8-0.8 0.8-1.9 1.1-1.1 0.4-2.2 0.2-1-0.2-1.8-0.9-0.8-0.7-1.2-1.8-0.4-1.1-0.2-2.2zm6.1-1.5q-0.6-0.5-1.4-0.6-0.7-0.2-1.6 0.1-0.8 0.3-1.4 0.9-0.5 0.6-0.7 1.4-0.1 0.8 0.2 1.6 0.3 0.8 0.9 1.3 0.6 0.5 1.3 0.6 0.8 0.2 1.7-0.1 0.8-0.3 1.4-0.9 0.5-0.6 0.6-1.3 0.2-0.8-0.1-1.6-0.3-0.8-0.9-1.4z"/><path  d="m174 391.3q1 1.2 1.3 2.8 0.3 1.5-0.3 3.1-0.6 1.6-1.8 2.6-1.1 1-2.7 1.2-1.5 0.3-3.1-0.3-1.5-0.5-2.6-1.7-1-1.2-1.2-2.7-0.3-1.5 0.3-3.1 0.6-1.6 1.7-2.6 1.2-1 2.7-1.3 1.6-0.3 3.2 0.3 1.5 0.6 2.5 1.8zm-5.4-1q-1.3 0.2-2.2 1.1-1 0.8-1.4 2.1-0.5 1.2-0.3 2.5 0.2 1.2 1 2.2 0.8 1 2.1 1.4 1.3 0.5 2.5 0.2 1.3-0.2 2.2-1 1-0.8 1.4-2.1 0.5-1.3 0.3-2.5-0.2-1.3-1-2.2-0.8-1-2.1-1.5-1.3-0.4-2.5-0.2z"/><path  d="m155.9 391.7q-0.6-0.9-0.8-2-0.1-1.1 0.4-2.1 0.4-1.1 1.3-1.7 0.9-0.7 1.9-0.8 1-0.1 2.1 0.3 0.9 0.4 1.4 1.1 0.6 0.7 0.8 1.5l1.7-3.9q0.1-0.3 0.4-0.3 0.2-0.1 0.4 0 0.2 0.1 0.3 0.3 0.1 0.2 0 0.4l-1.3 3.1c0 0 0 0-0.1 0.1l-1.4 3.2q-0.4 1-1.3 1.7-0.9 0.6-2 0.8-1 0.1-2.1-0.4-1-0.5-1.7-1.3zm3-5.5q-0.8 0.1-1.4 0.5-0.6 0.5-1 1.3-0.3 0.8-0.2 1.6 0 0.8 0.5 1.5 0.5 0.6 1.2 1 0.8 0.3 1.6 0.2 0.8-0.1 1.4-0.6 0.6-0.5 1-1.3 0.1-0.2 0.1-0.3 0-0.1 0.1-0.1 0.3-1.1-0.2-2.1-0.4-1-1.5-1.5-0.8-0.3-1.6-0.2z"/><path  d="m147.7 387.7q-0.6-0.8-0.6-1.9 0-1 0.5-2 0.1-0.2 0.3-0.3 0.2 0 0.4 0.1l5.4 2.7q0.4-1.2 0-2.2-0.4-1.1-1.5-1.6-0.5-0.3-1.1-0.4-0.5 0-0.9 0.1-0.3 0-0.5-0.1-0.1-0.1-0.2-0.2-0.1-0.3 0-0.5 0.1-0.1 0.3-0.2 0.6-0.2 1.4-0.1 0.8 0.1 1.4 0.5 1.1 0.5 1.7 1.4 0.6 0.9 0.6 1.9 0.1 1.1-0.4 2.2-0.6 1-1.4 1.7-0.9 0.6-1.9 0.6-1.1 0.1-2.1-0.4-1-0.5-1.5-1.3zm4 0.6q0.9-0.3 1.6-1.2l-4.8-2.4q-0.4 1-0.1 2 0.3 0.9 1.3 1.4 1 0.5 2 0.2z"/><path  d="m140.6 384.3q-0.2-0.4-0.1-0.6 0.1-0.1 0.1-0.1 0.2-0.2 0.3-0.2 0.1 0 0.3 0.1 0.1 0.1 0.4 0.3 0.1 0 0.3 0.2 1 0.5 1.9 0.3 0.9-0.2 1.4-1l2.1-3.8q0.1-0.3 0.3-0.3 0.2-0.1 0.5 0 0.2 0.2 0.3 0.4 0 0.2-0.1 0.4l-3.4 6.1q-0.1 0.2-0.3 0.3-0.2 0-0.5-0.1-0.2-0.1-0.3-0.3 0-0.2 0.1-0.5l0.3-0.5q-0.6 0.3-1.4 0.3-0.7 0-1.4-0.4-0.5-0.3-0.8-0.6z"/><path  d="m135.2 380.5q-0.6-0.9-0.5-2 0-1.1 0.6-2.1l1.8-3q0.1-0.2 0.4-0.2 0.2-0.1 0.4 0.1 0.2 0.1 0.3 0.3 0 0.2-0.1 0.4l-0.5 0.8q0.8-0.3 1.7-0.3 0.9 0.1 1.7 0.6 1 0.6 1.5 1.5 0.5 1 0.4 2 0 1.1-0.6 2.1-0.6 1-1.6 1.5-0.9 0.5-2 0.5-1.1-0.1-2.1-0.6-0.9-0.6-1.5-1.6zm3.8-5.1q-0.8 0-1.5 0.4-0.7 0.4-1.2 1.2-0.4 0.7-0.5 1.5 0 0.8 0.4 1.5 0.3 0.7 1.1 1.2 0.7 0.4 1.5 0.4 0.8 0 1.5-0.4 0.7-0.4 1.2-1.1 0.4-0.8 0.4-1.6 0.1-0.8-0.3-1.5-0.4-0.7-1.1-1.1-0.7-0.4-1.5-0.5z"/><path  d="m132.5 370.8q-0.1-0.2 0.1-0.4 0.1-0.2 0.3-0.3 0.3 0 0.5 0.2l0.3 0.1q0.6 0.5 0.9 1.1 0.3 0.7 0.2 1.4 0 0.7-0.5 1.4l-2.2 3.3 0.8 0.5q0.2 0.2 0.3 0.3 0 0.2-0.1 0.4-0.1 0.2-0.3 0.2-0.2 0.1-0.4-0.1l-0.8-0.5-1.3 1.9q-0.2 0.2-0.4 0.3-0.2 0-0.4-0.1-0.2-0.2-0.3-0.4 0-0.2 0.1-0.4l1.3-1.9-1.4-1q-0.2-0.1-0.2-0.3 0-0.2 0.1-0.3 0.1-0.2 0.3-0.3 0.2 0 0.4 0.1l1.4 1 2.2-3.3q0.4-0.6 0.3-1.3-0.1-0.6-0.7-1l-0.3-0.2q-0.2-0.2-0.3-0.4z"/><path  d="m126.1 377.2q0.1 0.3-0.1 0.6-0.2 0.3-0.5 0.3-0.4 0.1-0.6-0.1-0.3-0.2-0.4-0.5 0-0.3 0.2-0.6 0.2-0.3 0.5-0.4 0.3 0 0.6 0.2 0.3 0.2 0.3 0.5zm5.5-8q0.1 0.2-0.1 0.4l-4 5.7q-0.1 0.2-0.4 0.2-0.2 0.1-0.4-0.1-0.2-0.1-0.2-0.3-0.1-0.3 0.1-0.5l4-5.6q0.1-0.2 0.4-0.3 0.2 0 0.4 0.1 0.2 0.2 0.2 0.4z"/><path  d="m127.7 366.7q0.4 1 0.3 2.1-0.2 1.1-0.9 2-0.7 0.9-1.7 1.3-1 0.5-2.1 0.3-1-0.1-2-0.9-0.9-0.7-1.3-1.7-0.4-0.9-0.3-2 0.2-1.1 0.9-2 0.7-1 1.7-1.4 1-0.4 2.1-0.3 1 0.2 1.9 0.9 1 0.7 1.4 1.7zm-3.4-1.5q-0.8-0.1-1.6 0.2-0.7 0.4-1.2 1.1-0.5 0.7-0.7 1.5-0.1 0.7 0.2 1.5 0.3 0.7 1 1.2 0.6 0.6 1.4 0.6 0.8 0.1 1.5-0.2 0.8-0.3 1.3-1 0.6-0.7 0.7-1.5 0.1-0.8-0.2-1.5-0.3-0.8-1-1.3-0.7-0.5-1.4-0.6z"/><path  d="m112.6 363.9q-0.3-0.9-0.1-1.9 0.2-0.9 1-1.8l2.5-3q0.1-0.1 0.3-0.1 0.3-0.1 0.5 0.1 0.1 0.2 0.2 0.4 0 0.2-0.2 0.4l-2.5 2.9q-0.8 1-0.7 2 0.1 1 1 1.8 0.5 0.5 1.1 0.6 0.7 0.2 1.3 0 0.5-0.1 0.9-0.6l2.9-3.3q0.1-0.2 0.4-0.2 0.2 0 0.4 0.1 0.2 0.2 0.2 0.4 0 0.3-0.1 0.4l-4.6 5.3q-0.1 0.2-0.4 0.2-0.2 0-0.4-0.1-0.2-0.2-0.2-0.4 0-0.2 0.2-0.4l0.3-0.4q-0.7 0.1-1.5-0.1-0.7-0.2-1.3-0.8-0.8-0.7-1.2-1.5z"/><path  d="m334.9 364.5q-0.1-0.2-0.1-0.4 0.1-0.2 0.3-0.3 0.1-0.1 0.3-0.2 0.1 0 0.3 0.1l4.7 1.5 0.2-0.2 1.7-1.4-2.6-3q-0.1-0.2-0.1-0.4 0-0.3 0.2-0.4 0.2-0.2 0.4-0.2 0.3 0.1 0.4 0.2l6.7 8q0.2 0.2 0.2 0.4 0 0.2-0.2 0.4l-2.1 1.8q-0.9 0.7-1.8 0.9-0.9 0.2-1.8-0.1-0.9-0.4-1.6-1.1-0.7-0.9-0.8-2-0.1-1 0.5-2l-4.4-1.3q-0.2-0.1-0.3-0.3zm6.3 1.4q-0.5 0.4-0.8 1.1-0.2 0.6-0.2 1.2 0.1 0.6 0.6 1.1 0.4 0.6 1.1 0.8 0.6 0.2 1.2 0.1 0.7-0.2 1.2-0.7l1.7-1.4-3.1-3.6z"/><path  d="m334.4 374q-1 0.1-1.9-0.4-0.9-0.4-1.6-1.3-0.2-0.2-0.1-0.4 0-0.2 0.2-0.3l4.7-3.7q-0.8-0.9-1.9-1-1.2-0.1-2.1 0.7-0.5 0.3-0.8 0.8-0.3 0.5-0.4 0.9 0 0.2-0.2 0.3-0.1 0.1-0.3 0.1-0.3 0-0.4-0.2-0.1-0.1-0.1-0.3 0.1-0.7 0.6-1.3 0.4-0.7 1-1.1 0.9-0.7 1.9-0.9 1.1-0.1 2.1 0.3 1 0.4 1.7 1.3 0.7 1 0.9 2 0.2 1.1-0.2 2-0.4 1-1.3 1.6-0.8 0.7-1.8 0.8zm2.3-3.3q0.1-1-0.4-2l-4.3 3.3q0.8 0.9 1.7 1 1 0.1 1.9-0.6 0.9-0.7 1.1-1.7z"/><path  d="m326.7 370.4q0.9-0.2 1.6-0.1 0.2 0.1 0.3 0.2 0.2 0.2 0.1 0.5-0.1 0.2-0.2 0.3-0.3 0.2-0.5 0.1-0.5-0.1-1.2 0-0.6 0.2-1.1 0.6-0.9 0.6-1.1 1.2-0.2 0.6 0.1 1 0.3 0.5 0.9 0.5 0.6 0 1.7-0.5 1.3-0.7 2.2-0.6 0.9 0.1 1.4 0.7 0.6 0.9 0.3 1.9-0.4 1-1.4 1.7-0.8 0.5-1.6 0.7-0.8 0.1-1.5-0.1-0.2-0.1-0.3-0.2-0.1-0.2 0-0.5 0-0.1 0.2-0.2 0.2-0.2 0.5-0.1 1.1 0.2 2.1-0.5 0.7-0.4 0.9-1 0.2-0.5-0.1-1-0.3-0.4-0.8-0.4-0.6 0-1.7 0.5-1.4 0.7-2.3 0.6-0.9-0.1-1.4-0.8-0.4-0.6-0.4-1.3 0-0.6 0.5-1.3 0.4-0.6 1.2-1.2 0.7-0.5 1.6-0.7z"/><path  d="m320.5 374.8q1.1 0 2.1 0.5 0.9 0.5 1.5 1.5 0.6 1 0.7 2.1 0 1.1-0.5 2-0.5 1-1.5 1.6-1 0.6-2 0.6-1.1 0.1-2.1-0.4-0.9-0.5-1.5-1.5-0.7-1-0.7-2.1-0.1-1.1 0.4-2 0.6-1 1.6-1.6 0.9-0.6 2-0.7zm-2.6 2.7q-0.3 0.7-0.3 1.5 0 0.8 0.5 1.6 0.5 0.7 1.2 1.1 0.7 0.4 1.5 0.4 0.8 0 1.5-0.5 0.7-0.4 1.1-1.1 0.3-0.8 0.3-1.5 0-0.8-0.5-1.6-0.5-0.7-1.2-1.1-0.7-0.4-1.5-0.4-0.8 0-1.5 0.5-0.7 0.4-1.1 1.1z"/><path  d="m311.4 388.8q-0.2 0-0.3-0.2l-3.4-6.1q-0.1-0.2-0.1-0.5 0.1-0.2 0.3-0.3 0.3-0.1 0.5-0.1 0.2 0.1 0.3 0.3l0.2 0.5q0.2-0.7 0.7-1.4 0.4-0.6 1.1-1 1-0.5 1.9-0.5 0.9 0 1.8 0.5 0.8 0.5 1.4 1.6l1.8 3.3q0.1 0.2 0.1 0.5-0.1 0.2-0.3 0.3-0.2 0.1-0.4 0.1-0.2-0.1-0.4-0.3l-1.8-3.4q-0.7-1.1-1.6-1.4-1-0.2-2 0.3-0.7 0.4-1 0.9-0.4 0.5-0.5 1.1 0 0.6 0.2 1.2l2.2 3.8q0.1 0.2 0 0.4 0 0.3-0.3 0.4-0.2 0.1-0.4 0z"/><path  d="m305.2 392q-0.4 0-0.5-0.2-0.1-0.1-0.1-0.1 0-0.3 0-0.4 0.1-0.1 0.3-0.2 0.1-0.1 0.5-0.2 0.1 0 0.3-0.1 1-0.5 1.3-1.4 0.4-0.8 0-1.6l-2-4q-0.1-0.2 0-0.4 0-0.2 0.3-0.4 0.2-0.1 0.4 0 0.2 0.1 0.3 0.3l3.1 6.2q0.1 0.3 0.1 0.5-0.1 0.2-0.3 0.3-0.3 0.1-0.5 0-0.2 0-0.3-0.3l-0.3-0.5q-0.1 0.7-0.5 1.3-0.5 0.6-1.2 0.9-0.5 0.3-0.9 0.3z"/><path  d="m299.9 386.1q1.1 0.2 2 0.8 0.8 0.6 1.3 1.7 0.5 1.1 0.4 2.1-0.1 1.1-0.7 2-0.6 0.8-1.6 1.3-1.6 0.7-3.3-0.1-0.1-0.1-0.2-0.2-0.1-0.3 0-0.5 0.1-0.1 0.3-0.2 0.2-0.1 0.5 0 0.5 0.3 1.1 0.3 0.6 0 1.2-0.3 0.8-0.3 1.2-0.9 0.4-0.7 0.4-1.4 0.1-0.8-0.3-1.6-0.4-0.8-1-1.3-0.6-0.5-1.4-0.6-0.8-0.1-1.5 0.3-1.1 0.4-1.5 1.3-0.1 0.3-0.3 0.3-0.2 0.1-0.4 0.1-0.2-0.1-0.3-0.3-0.1-0.2 0-0.4 0.5-1.3 2-2 1.1-0.5 2.1-0.3z"/><path  d="m291.7 397.4q-1-0.2-1.7-0.8-0.8-0.7-1.2-1.8-0.1-0.2 0-0.4 0.1-0.2 0.3-0.3l5.5-2.1q-0.5-1.1-1.5-1.5-1.1-0.4-2.2 0-0.5 0.2-1 0.6-0.4 0.4-0.6 0.7-0.1 0.2-0.3 0.3-0.2 0.1-0.4 0-0.2-0.1-0.3-0.3-0.1-0.2 0-0.3 0.3-0.6 0.9-1.1 0.6-0.6 1.3-0.8 1.1-0.5 2.1-0.3 1.1 0.1 1.9 0.8 0.9 0.7 1.3 1.8 0.4 1.1 0.3 2.2-0.1 1-0.7 1.9-0.7 0.8-1.7 1.2-1 0.4-2 0.2zm3.1-2.5q0.4-0.9 0.2-2l-5.1 1.9q0.6 1.1 1.5 1.4 0.9 0.4 1.9 0 1.1-0.4 1.5-1.3z"/><path  d="m285.3 391.8q0.9 0 1.6 0.4 0.2 0.1 0.2 0.3 0.1 0.2-0.1 0.5-0.1 0.2-0.3 0.2-0.2 0.1-0.4 0-0.5-0.3-1.1-0.3-0.6 0-1.3 0.2-1 0.3-1.4 0.8-0.4 0.5-0.2 1.1 0.2 0.5 0.8 0.6 0.6 0.2 1.7 0 1.5-0.2 2.3 0.1 0.9 0.3 1.2 1.1 0.3 1-0.3 1.8-0.6 0.9-1.8 1.3-0.9 0.3-1.7 0.2-0.8-0.1-1.4-0.5-0.2-0.1-0.2-0.3-0.1-0.2 0.1-0.4 0-0.1 0.2-0.2 0.3-0.1 0.6 0.1 0.9 0.5 2.1 0.1 0.8-0.3 1.2-0.7 0.3-0.5 0.2-1-0.2-0.5-0.8-0.6-0.5-0.2-1.6 0-1.6 0.3-2.5-0.1-0.8-0.3-1.1-1.2-0.2-0.6 0-1.3 0.2-0.6 0.8-1.1 0.6-0.5 1.5-0.8 0.8-0.3 1.7-0.3z"/><path  d="m260 397.2q0.2 0.1 0.3 0.4l1.6 10.2q0.1 0.3-0.1 0.5-0.1 0.2-0.4 0.2l-2.6 0.4q-1.6 0.3-3-0.2-1.5-0.6-2.4-1.7-0.9-1.2-1.2-2.9-0.2-1.6 0.3-3 0.5-1.4 1.7-2.4 1.2-0.9 2.8-1.2l2.6-0.4q0.3 0 0.5 0.1zm-2.9 1.3q-1.4 0.3-2.3 1-0.9 0.8-1.3 2-0.5 1.1-0.3 2.5 0.3 1.3 1 2.3 0.8 1 1.9 1.4 1.1 0.4 2.5 0.2l2-0.3-1.5-9.4z"/><path  d="m244.6 406.8q-0.8-0.4-1.4-1.3-0.6-0.8-0.7-2 0-0.2 0.1-0.4 0.2-0.1 0.4-0.1l5.9-0.6q-0.2-1.2-1.1-1.9-0.9-0.7-2.1-0.5-0.5 0-1.1 0.3-0.5 0.2-0.8 0.5-0.1 0.2-0.4 0.2-0.1 0-0.3-0.1-0.2-0.2-0.2-0.4 0-0.2 0.1-0.3 0.5-0.5 1.2-0.8 0.7-0.4 1.4-0.5 1.2-0.1 2.2 0.4 0.9 0.4 1.5 1.3 0.7 0.8 0.8 2 0.1 1.2-0.3 2.2-0.4 1-1.2 1.6-0.8 0.6-2 0.7-1.1 0.1-1.9-0.3zm3.6-1.6q0.7-0.8 0.7-1.9l-5.3 0.5q0.2 1.1 1 1.8 0.7 0.6 1.8 0.5 1.1-0.1 1.8-0.9z"/><path  d="m239.1 400q1 0.5 1.5 1.4 0.6 0.9 0.7 2 0 1.2-0.4 2.2-0.5 1-1.4 1.5-0.8 0.6-1.9 0.7-1.9 0.1-3.1-1.3-0.1-0.1-0.1-0.3 0-0.2 0.2-0.4 0.2-0.1 0.3-0.1 0.2 0 0.4 0.2 0.5 0.4 1 0.6 0.6 0.3 1.2 0.2 0.8 0 1.5-0.4 0.6-0.5 0.9-1.2 0.3-0.7 0.3-1.6-0.1-0.9-0.5-1.5-0.4-0.7-1.1-1.1-0.7-0.4-1.5-0.3-1.2 0-1.9 0.7-0.2 0.2-0.4 0.2-0.2 0-0.3-0.1-0.2-0.2-0.3-0.4 0-0.2 0.2-0.3 1-1.1 2.6-1.1 1.2-0.1 2.1 0.4z"/><path  d="m231.8 409.6q0.2 0.3 0.2 0.6 0 0.4-0.2 0.6-0.2 0.2-0.6 0.2-0.3 0-0.6-0.2-0.2-0.2-0.2-0.6 0-0.3 0.2-0.6 0.3-0.2 0.6-0.2 0.3 0 0.6 0.2zm-0.3-9.7q0.2 0.2 0.2 0.4v7q0 0.2-0.1 0.4-0.2 0.1-0.4 0.1-0.3 0-0.4-0.1-0.2-0.2-0.2-0.4l-0.1-7q0-0.2 0.2-0.4 0.2-0.1 0.4-0.1 0.3 0 0.4 0.1z"/><path  d="m226.7 400q0.8 0.3 1.3 0.9 0.1 0.2 0.1 0.4 0 0.2-0.2 0.4-0.2 0.1-0.4 0.1-0.2 0-0.4-0.2-0.3-0.4-0.9-0.6-0.6-0.3-1.3-0.3-1 0-1.6 0.3-0.5 0.3-0.5 0.9 0 0.6 0.5 0.9 0.5 0.4 1.6 0.6 1.4 0.3 2.1 0.9 0.7 0.6 0.7 1.4 0 1.1-0.8 1.6-0.9 0.6-2.2 0.6-0.9 0-1.7-0.4-0.7-0.3-1.1-0.9-0.1-0.2-0.1-0.4 0-0.2 0.2-0.4 0.1-0.1 0.3-0.1 0.3 0.1 0.5 0.3 0.7 0.8 2 0.9 0.8 0 1.3-0.3 0.5-0.4 0.5-0.9 0-0.5-0.4-0.8-0.5-0.4-1.6-0.6-1.6-0.3-2.3-0.9-0.6-0.6-0.6-1.5 0-0.7 0.4-1.2 0.5-0.5 1.2-0.8 0.7-0.3 1.6-0.3 0.9 0.1 1.8 0.4z"/><path  d="m219 409.3q0.2 0.3 0.2 0.6 0 0.4-0.3 0.6-0.2 0.2-0.6 0.2-0.3-0.1-0.5-0.3-0.2-0.2-0.2-0.6 0-0.3 0.3-0.6 0.2-0.2 0.5-0.2 0.4 0.1 0.6 0.3zm0.4-9.7q0.2 0.2 0.2 0.5l-0.5 6.9q0 0.2-0.2 0.4-0.1 0.1-0.4 0.1-0.2 0-0.4-0.2-0.1-0.2-0.1-0.4l0.4-6.9q0-0.3 0.2-0.4 0.2-0.2 0.4-0.2 0.3 0 0.4 0.2z"/><path  d="m214.1 399.5q0.9 0.7 1.3 1.7 0.4 0.9 0.3 2.1-0.1 1.2-0.7 2-0.7 0.9-1.7 1.4-0.9 0.4-2.1 0.3-1.2-0.2-2-0.8-0.9-0.6-1.4-1.6-0.4-1-0.3-2.2 0.2-1.1 0.8-2 0.6-0.9 1.6-1.3 1-0.4 2.1-0.3 1.2 0.1 2.1 0.7zm-3.8 0.5q-0.7 0.4-1.1 1-0.5 0.7-0.6 1.5-0.1 0.9 0.2 1.7 0.3 0.7 1 1.2 0.6 0.4 1.5 0.5 0.8 0.1 1.5-0.2 0.8-0.3 1.2-1 0.5-0.6 0.6-1.5 0.1-0.9-0.2-1.6-0.4-0.8-1-1.2-0.7-0.5-1.5-0.6-0.8-0.1-1.6 0.2z"/><path  d="m199 404.8q-0.7-0.5-1-1.5-0.4-0.9-0.2-2l0.7-3.8q0-0.3 0.2-0.4 0.2-0.1 0.4-0.1 0.3 0 0.4 0.2 0.1 0.2 0.1 0.5l-0.6 3.8q-0.2 1.3 0.4 2 0.6 0.8 1.7 1 0.7 0.2 1.4 0 0.6-0.2 1-0.6 0.4-0.5 0.5-1.1l0.7-4.3q0.1-0.2 0.3-0.4 0.1-0.1 0.4-0.1 0.2 0.1 0.4 0.3 0.1 0.1 0.1 0.4l-1.2 6.8q0 0.3-0.2 0.4-0.2 0.2-0.4 0.1-0.3 0-0.4-0.2-0.1-0.2-0.1-0.5l0.1-0.5q-0.6 0.5-1.3 0.7-0.8 0.2-1.6 0.1-1-0.2-1.8-0.8z"/><path  d="m385.5 299.4q0.2 0 0.4 0l9.5 4.3q0.2 0.1 0.3 0.3 0.1 0.2 0 0.4l-2.8 6.3q-0.1 0.3-0.3 0.4-0.3 0-0.5-0.1-0.2-0.1-0.3-0.3-0.1-0.2 0-0.4l2.6-5.8-3.7-1.7-1.9 4.3q-0.1 0.2-0.3 0.3-0.2 0-0.4 0-0.2-0.1-0.3-0.4-0.1-0.2 0-0.4l1.9-4.2-3.8-1.7-2.6 5.8q-0.1 0.2-0.3 0.3-0.2 0.1-0.4 0-0.2-0.1-0.3-0.3-0.1-0.2 0-0.4l2.8-6.4q0.1-0.2 0.4-0.3z"/><path  d="m385.5 316.9q-0.8 0.5-1.7 0.5-1 0.1-2-0.5l-3.5-1.7q-0.2-0.1-0.2-0.4-0.1-0.2 0-0.4 0.1-0.2 0.3-0.3 0.2-0.1 0.4 0.1l3.5 1.7q1.1 0.6 2.1 0.3 0.9-0.3 1.5-1.4 0.3-0.6 0.3-1.3 0-0.6-0.2-1.2-0.3-0.5-0.9-0.8l-3.9-2q-0.2-0.1-0.3-0.3 0-0.2 0.1-0.4 0.1-0.3 0.3-0.3 0.2-0.1 0.5 0l6.1 3.2q0.2 0.1 0.3 0.3 0.1 0.2 0 0.5-0.1 0.2-0.4 0.2-0.2 0.1-0.4 0l-0.5-0.2q0.3 0.6 0.3 1.4-0.1 0.8-0.4 1.5-0.5 0.9-1.3 1.4z"/><path  d="m375.5 320.9q-0.2 0.1-0.4-0.1-0.3-0.1-0.3-0.3 0-0.2 0.1-0.5l0.1-0.2q0.4-0.7 1.1-1.1 0.6-0.3 1.3-0.3 0.8 0 1.5 0.4l3.4 2 0.5-0.8q0.1-0.2 0.3-0.3 0.2 0 0.3 0.1 0.2 0.1 0.3 0.3 0 0.2-0.1 0.4l-0.5 0.8 2 1.1q0.2 0.2 0.3 0.4 0.1 0.2-0.1 0.4-0.1 0.2-0.3 0.3-0.2 0.1-0.4-0.1l-2-1.1-0.9 1.4q-0.1 0.3-0.3 0.3-0.2 0.1-0.4-0.1-0.1-0.1-0.2-0.3 0-0.1 0.1-0.4l0.8-1.4-3.4-2q-0.7-0.4-1.3-0.2-0.6 0.1-1 0.7l-0.2 0.4q-0.1 0.2-0.3 0.2z"/><path  d="m373.6 322.5q0.2-0.1 0.4 0.1l5.9 3.6q0.2 0.1 0.3 0.4 0 0.2-0.1 0.4-0.1 0.2-0.3 0.3-0.3 0-0.5-0.1l-5.9-3.7q-0.2-0.1-0.2-0.3-0.1-0.2 0-0.5 0.2-0.2 0.4-0.2zm8.3 4.9q0.4 0 0.7 0.1 0.3 0.2 0.3 0.5 0.1 0.3-0.1 0.6-0.2 0.3-0.5 0.4-0.3 0.1-0.6-0.1-0.3-0.2-0.4-0.5 0-0.3 0.1-0.6 0.2-0.3 0.5-0.4z"/><path  d="m370.1 329.5q-0.3 0-0.5-0.2-0.2-0.1-0.2-0.3 0-0.3 0.1-0.5l0.2-0.2q0.4-0.7 1.1-1 0.6-0.3 1.4-0.3 0.7 0.1 1.4 0.6l3.2 2.1 0.6-0.8q0.1-0.2 0.3-0.2 0.2 0 0.4 0.1 0.2 0.1 0.2 0.3 0 0.2-0.1 0.4l-0.5 0.8 1.9 1.2q0.2 0.2 0.2 0.4 0.1 0.2-0.1 0.4-0.1 0.2-0.3 0.3-0.2 0-0.4-0.1l-2-1.3-0.9 1.4q-0.1 0.2-0.3 0.3-0.2 0-0.4-0.1-0.1-0.1-0.2-0.3 0-0.2 0.1-0.4l0.9-1.4-3.3-2.2q-0.6-0.4-1.2-0.3-0.7 0.1-1.1 0.7l-0.2 0.3q-0.1 0.2-0.3 0.3z"/><path  d="m370.5 340.3q-0.2-0.1-0.2-0.2l-5.8-10q-0.2-0.3 0-0.6 0.1-0.1 0.2-0.2 0.3-0.2 0.6 0 0.1 0.1 0.2 0.2l1.7 3.1 7.5 1.4q0.1 0 0.2 0.1 0.3 0.1 0.2 0.5 0 0.1-0.1 0.2-0.2 0.3-0.5 0.2l-6.6-1.2 3.3 5.8q0.2 0.3 0 0.5-0.1 0.1-0.2 0.2-0.3 0.2-0.6 0z"/><path  d="m396.6 200.6q0.1-0.2 0.4-0.3l10.2-1.8q0.3 0 0.5 0.1 0.2 0.1 0.2 0.4l0.6 3.5q0.2 0.9-0.1 1.6-0.2 0.8-0.8 1.3-0.6 0.6-1.4 0.7-0.8 0.2-1.4-0.1-0.7-0.3-1.2-1-0.1 1.1-0.7 1.8-0.6 0.7-1.7 0.9-1 0.1-1.8-0.2-0.9-0.3-1.5-1-0.5-0.7-0.7-1.7l-0.7-3.8q0-0.2 0.1-0.4zm1.7 4q0.2 1 0.9 1.6 0.7 0.5 1.8 0.4 1-0.2 1.4-1 0.5-0.7 0.3-1.8l-0.5-3.2-4.5 0.8 0.6 3.2zm5.5-1.3q0.1 0.9 0.7 1.4 0.6 0.5 1.5 0.3 0.9-0.1 1.2-0.8 0.4-0.6 0.2-1.5l-0.5-3-3.6 0.7 0.5 3z"/><path  d="m406.5 213.1q-0.1 0.4-0.4 0.4-0.1 0-0.1 0-0.2 0-0.3-0.1-0.1-0.1-0.1-0.3-0.1-0.2-0.1-0.5 0-0.1 0-0.4-0.1-1.1-0.8-1.7-0.7-0.6-1.6-0.5l-4.4 0.6q-0.3 0-0.4-0.1-0.2-0.1-0.2-0.4-0.1-0.2 0-0.4 0.2-0.2 0.4-0.2l6.9-0.9q0.3-0.1 0.5 0.1 0.1 0.1 0.2 0.4 0 0.2-0.1 0.4-0.2 0.1-0.4 0.2l-0.7 0.1q0.7 0.3 1.1 0.9 0.5 0.7 0.6 1.4 0 0.6-0.1 1z"/><path  d="m406.8 219.7q-0.5 1-1.4 1.6-0.9 0.6-2 0.8l-3.5 0.3q-0.2 0-0.4-0.2-0.2-0.1-0.2-0.4 0-0.2 0.1-0.4 0.2-0.2 0.4-0.2h0.9q-0.8-0.5-1.2-1.3-0.5-0.7-0.6-1.7-0.1-1.1 0.4-2 0.4-1 1.3-1.6 0.9-0.6 2-0.7 1.2-0.1 2.2 0.3 0.9 0.5 1.6 1.4 0.6 0.9 0.7 2 0.1 1.2-0.4 2.1zm-6.2 0q0.4 0.7 1.2 1 0.7 0.3 1.6 0.3 0.8-0.1 1.5-0.6 0.7-0.4 1-1.1 0.3-0.7 0.3-1.6-0.1-0.8-0.6-1.5-0.4-0.6-1.2-1-0.7-0.3-1.6-0.2-0.9 0.1-1.5 0.5-0.7 0.5-1 1.2-0.4 0.7-0.3 1.5 0.1 0.9 0.6 1.5z"/><path  d="m407.4 229.2q-0.5 0.9-1.3 1.4-0.8 0.5-2 0.5l-3.9 0.2q-0.2 0-0.3-0.2-0.2-0.2-0.2-0.4 0-0.2 0.1-0.4 0.2-0.2 0.4-0.2l3.9-0.1q1.3-0.1 1.9-0.8 0.7-0.8 0.7-2-0.1-0.7-0.4-1.3-0.3-0.6-0.8-0.9-0.5-0.3-1.1-0.3l-4.4 0.2q-0.2 0-0.4-0.2-0.1-0.1-0.1-0.4-0.1-0.2 0.1-0.4 0.1-0.2 0.4-0.2l6.9-0.2q0.3 0 0.5 0.1 0.1 0.2 0.1 0.4 0.1 0.3-0.1 0.5-0.2 0.1-0.4 0.1h-0.5q0.5 0.5 0.9 1.2 0.3 0.7 0.3 1.5 0.1 1-0.3 1.9z"/><path  d="m407.1 240.8h-3.5q-1.2-0.1-2.1-0.6-0.9-0.6-1.4-1.5-0.6-1-0.5-2.1 0-1.2 0.5-2.1 0.6-0.9 1.6-1.5 0.9-0.5 2.1-0.5 1.1 0.1 2.1 0.6 0.9 0.5 1.4 1.5 0.5 0.9 0.5 2 0 1-0.4 1.8-0.5 0.7-1.2 1.3l4.4 0.1q0.2 0 0.4 0.1 0.1 0.2 0.1 0.4 0 0.3-0.1 0.4-0.2 0.2-0.5 0.2l-3.3-0.1c0 0-0.1 0-0.1 0zm-6.1-2.7q0.4 0.7 1.1 1.1 0.7 0.4 1.6 0.4 0.2 0 0.3 0 0.1 0 0.1 0 1.2-0.1 1.9-0.9 0.8-0.8 0.8-2 0-0.8-0.4-1.5-0.3-0.7-1-1.1-0.7-0.4-1.6-0.5-0.9 0-1.6 0.4-0.7 0.4-1.1 1-0.4 0.7-0.5 1.6 0 0.8 0.4 1.5z"/><path  d="m399.6 242.9q0.1-0.1 0.4-0.1l6.9 0.4q0.2 0 0.4 0.2 0.1 0.2 0.1 0.4 0 0.3-0.1 0.4-0.2 0.2-0.5 0.1l-6.9-0.4q-0.2 0-0.4-0.2-0.1-0.1-0.1-0.4 0-0.2 0.2-0.4zm9.7 0.4q0.2-0.2 0.6-0.1 0.3 0 0.5 0.2 0.2 0.3 0.2 0.6 0 0.3-0.3 0.6-0.2 0.2-0.6 0.2-0.3 0-0.5-0.3-0.2-0.2-0.2-0.6 0-0.3 0.2-0.5z"/><path  d="m406.4 252.4q-0.5 0.8-1.4 1.2-0.9 0.3-2.1 0.2l-3.8-0.3q-0.3-0.1-0.4-0.3-0.2-0.1-0.1-0.4 0-0.2 0.2-0.4 0.1-0.1 0.4-0.1l3.8 0.4q1.3 0.1 2.1-0.6 0.7-0.6 0.8-1.8 0.1-0.7-0.1-1.3-0.2-0.6-0.7-1-0.4-0.4-1.1-0.5l-4.3-0.4q-0.3 0-0.4-0.2-0.1-0.1-0.1-0.4 0-0.2 0.2-0.4 0.2-0.1 0.4-0.1l6.9 0.7q0.3 0 0.4 0.2 0.2 0.1 0.1 0.4 0 0.2-0.2 0.4-0.1 0.1-0.4 0.1l-0.5-0.1q0.5 0.6 0.7 1.3 0.3 0.7 0.2 1.5-0.1 1.1-0.6 1.9z"/><path  d="m405 261.9q-0.7 0.9-1.7 1.2-1 0.4-2.2 0.3l-3-0.5q-1.2-0.2-2-0.9-0.9-0.6-1.3-1.6-0.4-1-0.2-2.2 0.1-1.1 0.7-1.9 0.6-0.8 1.4-1.3 0.2-0.1 0.4-0.1 0.2 0 0.3 0.3 0.1 0.1 0.1 0.3-0.1 0.1-0.1 0.2-0.1 0.2-0.2 0.2-0.6 0.4-1.1 1-0.4 0.6-0.5 1.5-0.1 0.8 0.2 1.5 0.3 0.7 1 1.2 0.6 0.5 1.5 0.7l0.7 0.1q-0.8-0.6-1.1-1.5-0.4-0.8-0.2-1.9 0.2-1.1 0.8-1.9 0.7-0.8 1.7-1.2 1-0.4 2.2-0.2 1.1 0.2 2 0.9 0.8 0.6 1.2 1.6 0.4 1 0.2 2.2-0.2 1.2-0.8 2zm-6.2-1.5q0.3 0.7 1 1.2 0.6 0.5 1.5 0.6 0.9 0.1 1.6-0.1 0.8-0.3 1.3-0.9 0.5-0.6 0.6-1.5 0.1-0.8-0.2-1.6-0.3-0.7-0.9-1.2-0.6-0.5-1.5-0.6-0.9-0.1-1.6 0.1-0.8 0.3-1.3 0.9-0.5 0.6-0.6 1.5-0.1 0.8 0.1 1.6z"/><path  d="m367.9 133.5q0-0.3 0.2-0.4l8.5-6q0.2-0.1 0.4-0.1 0.3 0 0.4 0.3l1.7 2.4q0.6 0.9 0.7 1.8 0.1 1-0.3 1.9-0.4 0.8-1.3 1.5-0.9 0.6-1.9 0.7-0.9 0.1-1.8-0.3-0.9-0.5-1.5-1.3l-1.4-2-2.8 2q-0.2 0.1-0.5 0.1-0.2 0-0.3-0.2-0.2-0.2-0.1-0.5zm6-0.1q0.4 0.6 1.1 0.9 0.6 0.3 1.2 0.3 0.7-0.1 1.3-0.5 0.7-0.5 1-1.1 0.3-0.6 0.2-1.3-0.1-0.7-0.5-1.3l-1.3-1.9-4.3 3 1.3 1.9z"/><path  d="m373.4 140.6q0.3-0.9 1.2-1.5l7.1-4.6q0.2-0.1 0.4-0.1 0.2 0.1 0.4 0.3 0.1 0.2 0.1 0.4-0.1 0.2-0.3 0.4l-7.1 4.5q-0.5 0.4-0.7 0.8-0.2 0.4 0 0.8l0.2 0.3q0.1 0.2 0.1 0.4-0.1 0.2-0.3 0.3-0.2 0.1-0.4 0.1-0.3-0.1-0.4-0.4l-0.1-0.1q-0.5-0.8-0.2-1.6z"/><path  d="m384.2 145.1q0 1-0.5 2-0.5 0.9-1.5 1.5l-3 1.8q-0.2 0.1-0.4 0-0.3 0-0.4-0.2-0.1-0.3-0.1-0.5 0.1-0.2 0.3-0.3l0.8-0.5q-0.9 0-1.7-0.5-0.7-0.5-1.2-1.3-0.6-1-0.6-2.1 0-1 0.6-2 0.5-0.9 1.5-1.5 1-0.6 2.1-0.6 1.1 0 2 0.5 0.9 0.6 1.5 1.6 0.6 1 0.6 2.1zm-5.7 2.6q0.7 0.4 1.5 0.4 0.8 0 1.6-0.5 0.7-0.4 1.2-1.1 0.4-0.7 0.4-1.5 0-0.8-0.5-1.5-0.4-0.7-1.1-1.1-0.7-0.4-1.5-0.4-0.8 0-1.6 0.5-0.7 0.4-1.1 1.1-0.4 0.7-0.4 1.5 0 0.8 0.4 1.5 0.5 0.7 1.1 1.1z"/><path  d="m389.2 154.1q0 0.9-0.6 1.7-0.5 0.8-1.6 1.4l-3.4 1.7q-0.2 0.1-0.4 0-0.2 0-0.3-0.2-0.1-0.3-0.1-0.5 0.1-0.2 0.3-0.3l3.4-1.7q1.2-0.6 1.5-1.6 0.3-1-0.3-2-0.3-0.7-0.8-1.1-0.5-0.4-1.1-0.4-0.6-0.1-1.2 0.2l-3.9 2q-0.2 0.1-0.4 0-0.2-0.1-0.3-0.3-0.1-0.2-0.1-0.4 0.1-0.2 0.3-0.4l6.2-3.1q0.2-0.1 0.4-0.1 0.2 0.1 0.4 0.3 0.1 0.3 0 0.5-0.1 0.2-0.3 0.3l-0.4 0.2q0.7 0.2 1.3 0.7 0.6 0.5 0.9 1.2 0.5 0.9 0.5 1.8z"/><path  d="m289.9 72.5q-0.8-0.9-0.9-2 0-0.1 0.1-0.3 0-0.2 0.2-0.2 0.2-0.1 0.5 0 0.2 0 0.3 0.2 0.1 0.1 0.1 0.3 0.1 0.7 0.7 1.4 0.6 0.7 1.5 1 1.2 0.5 2.1 0.2 0.9-0.3 1.2-1.3 0.4-0.9-0.1-1.7-0.4-0.9-1.6-1.5-1.5-0.8-2.2-1.9-0.6-1.2-0.1-2.4 0.3-0.8 0.9-1.3 0.7-0.4 1.6-0.5 1 0 2 0.4 1.1 0.4 1.7 1.2 0.7 0.8 0.9 1.7 0 0.2-0.1 0.4-0.1 0.3-0.4 0.3-0.1 0-0.2 0-0.2-0.1-0.3-0.2-0.1-0.1-0.1-0.3-0.4-1.5-1.9-2.1-1.1-0.4-2-0.2-0.8 0.2-1.1 1.1-0.6 1.6 1.9 2.9 1.6 0.9 2.1 2 0.6 1.2 0.1 2.5-0.4 0.9-1.1 1.5-0.7 0.5-1.7 0.6-0.9 0-1.9-0.3-1.4-0.5-2.2-1.5z"/><path  d="m301 76.3q0.1 0.2 0 0.5-0.1 0.2-0.3 0.3-0.2 0.1-0.5-0.1l-0.3-0.1q-0.7-0.3-1.1-0.9-0.4-0.6-0.5-1.3-0.1-0.7 0.2-1.4l1.6-3.7-0.9-0.4q-0.2-0.1-0.3-0.2-0.1-0.2 0-0.4 0.1-0.2 0.2-0.3 0.2-0.1 0.4 0l0.9 0.4 0.9-2.1q0.1-0.2 0.3-0.3 0.2-0.1 0.5 0 0.2 0.1 0.3 0.3 0.1 0.2 0 0.4l-0.9 2.1 1.5 0.7q0.3 0.1 0.3 0.3 0.1 0.1 0 0.3 0 0.2-0.2 0.3-0.2 0.1-0.4 0l-1.6-0.6-1.5 3.6q-0.3 0.7-0.1 1.3 0.3 0.6 0.9 0.9l0.4 0.1q0.2 0.1 0.3 0.3z"/><path  d="m309.3 72.4q0.2 0.3 0.1 0.5 0 0.1 0 0.1-0.2 0.2-0.3 0.2-0.2 0-0.4 0-0.1-0.1-0.4-0.3-0.1 0-0.3-0.1-1-0.5-1.9-0.3-0.9 0.3-1.3 1.2l-1.8 4q-0.1 0.2-0.3 0.3-0.2 0.1-0.5-0.1-0.2-0.1-0.3-0.3-0.1-0.2 0.1-0.4l2.9-6.3q0.1-0.3 0.3-0.3 0.2-0.1 0.4 0 0.2 0.1 0.3 0.3 0.1 0.2 0 0.5l-0.3 0.5q0.7-0.3 1.4-0.4 0.8 0 1.5 0.3 0.5 0.3 0.8 0.6z"/><path  d="m315 75.7q0.6 0.9 0.7 2 0 1.1-0.5 2.1l-1.6 3.1q-0.1 0.2-0.3 0.3-0.2 0.1-0.5-0.1-0.2-0.1-0.3-0.3 0-0.2 0.1-0.4l0.4-0.8q-0.8 0.4-1.7 0.4-0.9 0-1.8-0.4-1-0.5-1.5-1.4-0.6-0.9-0.6-2-0.1-1.1 0.5-2.1 0.5-1 1.4-1.6 0.9-0.6 2-0.7 1.1 0 2.1 0.5 1 0.5 1.6 1.4zm-3.3 5.3q0.8 0 1.4-0.5 0.7-0.4 1.1-1.2 0.4-0.8 0.3-1.6 0-0.8-0.4-1.5-0.4-0.6-1.2-1-0.7-0.4-1.5-0.4-0.8 0.1-1.5 0.6-0.7 0.4-1.1 1.2-0.4 0.7-0.3 1.6 0 0.8 0.4 1.4 0.5 0.7 1.2 1.1 0.8 0.4 1.6 0.3z"/><path  d="m318.4 85.2q0.1 0.2 0 0.4-0.2 0.2-0.4 0.3-0.2 0-0.4-0.1l-0.3-0.2q-0.7-0.3-1.1-1-0.3-0.6-0.3-1.3 0-0.8 0.4-1.5l1.9-3.4-0.8-0.5q-0.2-0.1-0.2-0.3-0.1-0.2 0-0.4 0.1-0.2 0.3-0.2 0.2-0.1 0.4 0l0.8 0.5 1.2-2q0.1-0.2 0.3-0.3 0.2 0 0.4 0.1 0.3 0.1 0.3 0.3 0.1 0.3 0 0.5l-1.2 2 1.5 0.8q0.2 0.1 0.2 0.3 0.1 0.2 0 0.4-0.1 0.2-0.3 0.2-0.2 0.1-0.4 0l-1.5-0.9-1.9 3.5q-0.4 0.6-0.2 1.3 0.1 0.6 0.7 0.9l0.4 0.2q0.2 0.2 0.2 0.4z"/><path  d="m327.6 82.9q0.4 0.9 0.3 1.9 0 1-0.6 2-0.2 0.2-0.4 0.2-0.2 0.1-0.4 0l-5-3.2q-0.6 1.1-0.3 2.2 0.3 1.1 1.4 1.7 0.5 0.3 1 0.5 0.6 0.1 1 0c0.1 0 0.3 0 0.4 0.1q0.1 0.1 0.2 0.3 0.1 0.2 0 0.4-0.1 0.2-0.4 0.2-0.6 0.1-1.4 0-0.8-0.2-1.3-0.6-1.1-0.6-1.6-1.5-0.5-1-0.4-2 0-1.1 0.6-2.1 0.7-1 1.6-1.6 0.9-0.5 1.9-0.5 1.1 0 2 0.6 0.9 0.6 1.4 1.5zm-3.9-1q-1 0.2-1.7 1.1l4.6 2.8q0.5-1 0.3-2-0.3-1-1.2-1.5-1-0.6-2-0.4z"/><path  d="m334.8 87.8q0.5 1 0.4 2-0.1 1.1-0.8 2.1l-1.7 2.5q-0.7 0.9-1.6 1.4-1 0.5-2.1 0.5-1.1-0.1-2-0.8-1-0.6-1.5-1.5-0.5-0.8-0.5-1.8-0.1-0.2 0-0.4 0.2-0.2 0.4-0.2 0.2 0 0.4 0.1 0.1 0.1 0.1 0.2 0.1 0.2 0.1 0.3 0.1 0.7 0.4 1.3 0.4 0.7 1.1 1.2 0.7 0.4 1.5 0.5 0.8 0 1.5-0.3 0.7-0.4 1.3-1.2l0.4-0.6q-0.9 0.5-1.8 0.4-1 0-1.8-0.6-1-0.7-1.4-1.6-0.5-1-0.4-2.1 0.1-1 0.8-2 0.7-1 1.7-1.4 0.9-0.5 2-0.4 1.1 0.1 2 0.7 1 0.7 1.5 1.7zm-4.1 4.8q0.8 0.1 1.5-0.3 0.7-0.3 1.2-1.1 0.5-0.7 0.6-1.5 0.1-0.8-0.2-1.5-0.4-0.7-1.1-1.2-0.7-0.5-1.5-0.6-0.8 0-1.5 0.3-0.7 0.4-1.2 1.1-0.5 0.8-0.6 1.6-0.1 0.8 0.3 1.5 0.3 0.7 1 1.2 0.7 0.5 1.5 0.5z"/><path  d="m343.1 94q-0.1 0.1-0.2 0.2l-10.2 5.5q-0.3 0.2-0.6 0-0.1-0.1-0.1-0.2-0.2-0.4 0-0.6 0-0.1 0.2-0.2l3.1-1.7 1.5-7.4q0.1-0.1 0.2-0.3 0.1-0.2 0.5-0.1 0.1 0 0.2 0.1 0.3 0.2 0.2 0.5l-1.4 6.6 5.9-3.1q0.3-0.2 0.5 0 0.1 0.1 0.2 0.2 0.2 0.3 0 0.5z"/><path  d="m194.4 65.3q-1.3-0.4-2.3-1.5-0.9-1.1-1.2-2.6-0.3-1.5 0.1-2.9 0.4-1.4 1.5-2.3 1.1-1 2.6-1.3 1.5-0.3 2.9 0.2 1.3 0.4 2.3 1.5 0.9 1.1 1.2 2.6 0.3 1.5-0.1 2.9-0.5 1.3-1.5 2.3-1.1 0.9-2.6 1.2-1.5 0.3-2.9-0.1zm4.8-1.9q0.8-0.8 1.2-1.9 0.3-1.1 0.1-2.3-0.3-1.2-1-2.1-0.8-0.9-1.9-1.3-1.1-0.3-2.3-0.1-1.3 0.3-2.1 1.1-0.9 0.7-1.2 1.9-0.4 1.1-0.1 2.3 0.2 1.2 1 2.1 0.7 0.9 1.8 1.2 1.1 0.4 2.4 0.1 1.2-0.2 2-1z"/><path  d="m208.5 56.3q0.9 0.3 1.5 1.1 0.6 0.8 0.8 1.9 0.1 1-0.2 1.9-0.4 1-1.1 1.6-0.8 0.6-1.8 0.7-0.9 0.2-1.7-0.1-0.8-0.3-1.3-0.9l0.5 4q0.1 0.2-0.1 0.4-0.1 0.2-0.3 0.2-0.2 0-0.4-0.1-0.2-0.1-0.2-0.4l-0.4-3c0 0-0.1 0-0.1-0.1l-0.4-3.2q-0.2-1 0.2-1.9 0.4-1 1.2-1.6 0.7-0.6 1.8-0.8 1-0.1 2 0.2zm0.3 5.8q0.6-0.4 0.8-1.1 0.3-0.7 0.2-1.5-0.2-0.8-0.6-1.4-0.4-0.6-1.1-0.9-0.7-0.3-1.5-0.1-0.8 0.1-1.3 0.5-0.6 0.5-0.9 1.2-0.2 0.7-0.1 1.5 0 0.2 0.1 0.3 0 0 0 0.1 0.3 1 1.1 1.6 0.9 0.5 1.9 0.4 0.8-0.1 1.4-0.6z"/><path  d="m217.6 55.3q0.9 0.4 1.5 1.3 0.5 0.8 0.6 1.8 0.1 1.1-0.3 2-0.4 0.9-1.2 1.5-0.8 0.6-1.8 0.7-0.9 0-1.6-0.3-0.8-0.3-1.3-0.9l0.3 4q0 0.2-0.1 0.4-0.1 0.1-0.3 0.2-0.3 0-0.4-0.1-0.2-0.2-0.2-0.4l-0.3-3.1c0 0 0 0 0-0.1l-0.3-3.2q-0.1-1 0.3-1.9 0.5-0.9 1.3-1.5 0.8-0.6 1.8-0.7 1.1-0.1 2 0.3zm0 5.8q0.6-0.4 0.9-1.1 0.3-0.6 0.3-1.5-0.1-0.8-0.5-1.4-0.5-0.6-1.1-0.9-0.7-0.3-1.5-0.2-0.7 0-1.3 0.5-0.6 0.4-0.9 1.1-0.3 0.6-0.2 1.5 0 0.2 0 0.3 0 0 0 0 0.3 1.1 1.1 1.7 0.8 0.6 1.9 0.5 0.7 0 1.3-0.5z"/><path  d="m222.8 61.6q-0.9-0.4-1.4-1.3-0.5-0.8-0.6-1.9 0-1.1 0.4-2 0.5-0.9 1.3-1.4 0.9-0.5 2-0.6 1 0 1.9 0.4 0.9 0.5 1.4 1.4 0.5 0.8 0.6 1.9 0 1.1-0.4 1.9-0.5 0.9-1.3 1.4-0.9 0.6-2 0.6-1 0-1.9-0.4zm3.3-1q0.6-0.3 1-1 0.3-0.7 0.3-1.5-0.1-0.8-0.5-1.4-0.3-0.7-1-1-0.6-0.4-1.4-0.3-0.8 0-1.4 0.4-0.6 0.4-0.9 1.1-0.4 0.6-0.4 1.4 0.1 0.9 0.5 1.5 0.3 0.6 1 1 0.6 0.3 1.4 0.3 0.8-0.1 1.4-0.5z"/><path  d="m234.1 54.5q0.3 0.1 0.3 0.4 0 0.1 0 0.1 0 0.2-0.1 0.3-0.2 0-0.4 0-0.1 0-0.4 0-0.1 0-0.3 0-1 0-1.7 0.5-0.6 0.6-0.6 1.5v4q-0.1 0.3-0.2 0.4-0.1 0.1-0.4 0.1-0.2 0-0.4-0.1-0.1-0.1-0.1-0.4v-6.4q0-0.3 0.2-0.4 0.1-0.1 0.4-0.1 0.2 0 0.3 0.1 0.2 0.2 0.2 0.4v0.6q0.4-0.6 1-0.9 0.6-0.3 1.3-0.3 0.6 0 0.9 0.2z"/><path  d="m239 61.1q0.1 0.2 0.1 0.4 0 0.2-0.2 0.4-0.2 0.1-0.4 0.1h-0.3q-0.7 0-1.3-0.4-0.5-0.4-0.8-1-0.4-0.6-0.3-1.3l0.1-3.7h-0.9q-0.2 0-0.3-0.1-0.1-0.2-0.1-0.3 0-0.2 0.1-0.4 0.1-0.1 0.4-0.1h0.8l0.1-2.1q0-0.2 0.2-0.3 0.1-0.2 0.4-0.2 0.2 0 0.3 0.2 0.2 0.1 0.2 0.4l-0.1 2.1h1.5q0.2 0 0.4 0.2 0.1 0.1 0.1 0.3 0 0.2-0.1 0.3-0.2 0.1-0.4 0.1h-1.5l-0.2 3.6q0 0.7 0.4 1.2 0.4 0.4 1 0.5h0.4q0.2 0 0.4 0.1z"/><path  d="m247.1 55.2q0.2 0.2 0.2 0.4l-0.5 6.4q0 0.3-0.2 0.4-0.2 0.1-0.4 0.1-0.2 0-0.3-0.2-0.2-0.1-0.2-0.4l0.1-0.4q-0.5 0.4-1.2 0.7-0.6 0.2-1.4 0.2-0.9-0.1-1.7-0.6-0.7-0.4-1.1-1.2-0.4-0.9-0.3-1.9l0.3-3.6q0-0.2 0.2-0.3 0.1-0.2 0.3-0.2 0.3 0 0.4 0.2 0.1 0.2 0.1 0.4l-0.2 3.5q-0.1 1.2 0.5 1.9 0.6 0.7 1.7 0.8 0.7 0 1.2-0.2 0.6-0.2 0.9-0.7 0.4-0.4 0.4-0.9l0.3-4.1q0-0.2 0.2-0.3 0.1-0.2 0.4-0.1 0.2 0 0.3 0.1z"/><path  d="m254.5 56.3q0.7 0.5 1.1 1.3 0.3 0.9 0.2 1.9l-0.5 3.5q0 0.3-0.2 0.4-0.1 0.1-0.4 0.1-0.2 0-0.3-0.2-0.1-0.2-0.1-0.4l0.4-3.5q0.2-1.2-0.4-1.9-0.6-0.7-1.7-0.9-0.6 0-1.2 0.1-0.6 0.2-1 0.7-0.3 0.4-0.4 0.9l-0.5 4q0 0.2-0.2 0.4-0.2 0.1-0.4 0.1-0.2-0.1-0.3-0.2-0.2-0.2-0.1-0.4l0.8-6.4q0-0.2 0.2-0.3 0.1-0.2 0.3-0.1 0.3 0 0.4 0.2 0.1 0.1 0.1 0.4l-0.1 0.4q0.5-0.4 1.2-0.6 0.7-0.2 1.4-0.1 1 0.1 1.7 0.6z"/><path  d="m257.2 63.8q-0.1-0.2-0.1-0.4l1-6.4q0-0.2 0.2-0.3 0.2-0.1 0.4-0.1 0.2 0 0.4 0.2 0.1 0.2 0 0.4l-1 6.3q0 0.3-0.2 0.4-0.1 0.1-0.4 0.1-0.2-0.1-0.3-0.2zm1.2-8.9q-0.1-0.2-0.1-0.5 0.1-0.4 0.3-0.5 0.3-0.2 0.6-0.1 0.3 0 0.4 0.2 0.2 0.3 0.2 0.6-0.1 0.3-0.3 0.5-0.3 0.2-0.6 0.1-0.3 0-0.5-0.3z"/><path  d="m263.7 64.1q0.1 0.2 0 0.4 0 0.3-0.2 0.4-0.2 0.1-0.4 0.1l-0.3-0.1q-0.7-0.1-1.2-0.6-0.5-0.4-0.7-1.1-0.2-0.6-0.1-1.3l0.7-3.6-0.9-0.2q-0.2 0-0.3-0.2-0.1-0.1-0.1-0.3 0.1-0.2 0.2-0.3 0.2-0.1 0.4-0.1l0.9 0.2 0.4-2.1q0-0.2 0.2-0.3 0.1-0.2 0.4-0.1 0.2 0 0.3 0.2 0.1 0.2 0.1 0.4l-0.4 2.1 1.5 0.3q0.2 0 0.3 0.1 0.1 0.2 0.1 0.4 0 0.2-0.2 0.3-0.1 0.1-0.3 0.1l-1.6-0.3-0.6 3.5q-0.2 0.7 0.2 1.2 0.3 0.5 0.9 0.7h0.4q0.2 0.1 0.3 0.3z"/><path  d="m272.1 59.7q0 0.1-0.1 0.2l-6.4 8.6q-0.2 0.2-0.5 0.2-0.1-0.1-0.2-0.1-0.3-0.2-0.2-0.5 0-0.1 0.1-0.2l2-2.6-1.6-6.9q-0.1-0.1 0-0.2 0-0.3 0.3-0.3 0.2-0.1 0.3 0 0.3 0 0.3 0.3l1.4 6.1 3.7-4.9q0.2-0.3 0.5-0.2 0.1 0 0.2 0.1 0.3 0.1 0.2 0.4z"/><path  d="m134.5 91.8q0.2 0.1 0.1 0.3-0.1 0.2-0.3 0.4-0.1 0.1-0.3 0.1-0.1 0-0.3 0l-4.6-1.8-0.2 0.1-1.8 1.3 2.4 3.2q0.1 0.2 0.1 0.4 0 0.2-0.2 0.4-0.2 0.1-0.5 0.1-0.2 0-0.3-0.2l-6.2-8.4q-0.2-0.2-0.1-0.4 0-0.3 0.2-0.4l2.2-1.6q0.9-0.7 1.8-0.8 1-0.2 1.8 0.2 0.9 0.4 1.5 1.2 0.7 0.9 0.7 2 0 1-0.6 2l4.3 1.6q0.2 0.1 0.3 0.3zm-6.2-1.8q0.6-0.4 0.9-1 0.3-0.6 0.2-1.2 0-0.7-0.4-1.2-0.5-0.6-1.1-0.8-0.6-0.3-1.2-0.2-0.7 0.1-1.3 0.6l-1.7 1.3 2.8 3.8 1.8-1.3z"/><path  d="m135.7 82.4q1-0.1 1.9 0.4 0.9 0.5 1.5 1.5 0.1 0.2 0.1 0.4-0.1 0.2-0.3 0.3l-4.9 3.3q0.7 1 1.8 1.1 1.1 0.2 2.2-0.5 0.4-0.3 0.8-0.7 0.3-0.5 0.4-0.9 0.1-0.3 0.3-0.4 0.1-0.1 0.3 0 0.3 0 0.4 0.2 0.1 0.1 0 0.4-0.1 0.6-0.6 1.2-0.5 0.7-1.1 1-1 0.7-2 0.8-1.1 0.1-2-0.4-1-0.5-1.7-1.5-0.6-1-0.7-2.1-0.2-1 0.3-1.9 0.4-1 1.4-1.6 0.9-0.6 1.9-0.6zm-2.5 3.1q-0.3 1 0.2 2l4.5-3q-0.7-0.9-1.7-1.1-1-0.2-1.9 0.5-0.9 0.6-1.1 1.6z"/><path  d="m143.8 77.4c0 0 0.1 0.2 0.1 0.3l0.8 7.6q0.1 0.4-0.2 0.6-0.4 0.2-0.7 0l-6.4-4.3c0 0-0.1-0.1-0.2-0.1q-0.1-0.3 0.1-0.6 0-0.1 0.1-0.2 0.2-0.1 0.3-0.1 0.2 0 0.3 0.1l5.6 3.8-0.8-6.7q0-0.2 0.1-0.3 0-0.1 0.2-0.2 0.1-0.1 0.2-0.1 0.4 0 0.5 0.3z"/><path  d="m143.8 74.9q-0.3-0.1-0.5-0.4-0.2-0.3-0.1-0.6 0.1-0.3 0.4-0.5 0.3-0.2 0.6-0.1 0.3 0.1 0.5 0.4 0.2 0.3 0.1 0.6-0.1 0.3-0.4 0.5-0.3 0.2-0.6 0.1zm4.9 8.4q-0.2-0.1-0.4-0.3l-3.4-6.1q-0.1-0.2 0-0.4 0-0.2 0.3-0.3 0.2-0.2 0.4-0.1 0.2 0.1 0.3 0.3l3.4 6q0.1 0.3 0.1 0.5-0.1 0.2-0.3 0.3-0.2 0.1-0.4 0.1z"/><path  d="m152.7 72.6q1 0.1 1.8 0.7 0.8 0.6 1.4 1.6 0.1 0.2 0 0.4-0.1 0.2-0.3 0.3l-5.3 2.7q0.7 1.1 1.8 1.3 1 0.3 2.1-0.2 0.5-0.3 0.9-0.7 0.4-0.4 0.6-0.8 0.1-0.2 0.2-0.3 0.2-0.1 0.4-0.1 0.2 0.1 0.3 0.3 0.1 0.2 0 0.4-0.2 0.6-0.7 1.2-0.6 0.6-1.2 0.9-1.1 0.5-2.1 0.5-1.1 0-2-0.6-0.9-0.6-1.4-1.7-0.6-1-0.6-2.1 0-1.1 0.6-1.9 0.5-0.9 1.5-1.4 1-0.5 2-0.5zm-2.8 2.9q-0.4 0.9 0 2l4.8-2.5q-0.6-0.9-1.6-1.2-0.9-0.3-1.9 0.2-1 0.5-1.4 1.5z"/><path  d="m163.6 67.2q0.2 0.1 0.3 0.3 0 0.2 0 0.3l0.8 7.3q0 0.1-0.1 0.3-0.1 0.1-0.3 0.2-0.1 0.1-0.3 0.1-0.2-0.1-0.3-0.2l-4-4.6 0.8 6.1c0 0.1 0 0.2-0.1 0.3q-0.1 0.2-0.3 0.2-0.2 0.1-0.3 0.1-0.2-0.1-0.3-0.2l-5-5.4q-0.1-0.1-0.2-0.2-0.1-0.5 0.3-0.7 0.4-0.1 0.7 0.2l4.1 4.5-0.8-6q0-0.2 0.1-0.4 0-0.1 0.2-0.2 0.2-0.1 0.4-0.1 0.2 0.1 0.3 0.2l3.9 4.6-0.6-6q-0.1-0.5 0.3-0.7 0.2-0.1 0.4 0z"/><path  d="m174 276.6h-2.7v8.6q0 0.3-0.2 0.5-0.2 0.2-0.5 0.2-0.3 0-0.5-0.2-0.2-0.2-0.2-0.5v-8.6h-2.7q-0.3 0-0.5-0.2-0.2-0.3-0.2-0.5 0-0.3 0.2-0.5 0.2-0.2 0.5-0.2h6.8q0.3-0.1 0.5 0.2 0.2 0.2 0.2 0.5 0 0.3-0.2 0.5-0.2 0.2-0.5 0.2z"/><path  d="m176.6 285.2q0 0.3-0.3 0.5-0.2 0.2-0.5 0.2-0.2 0-0.5-0.2-0.2-0.2-0.2-0.5v-9.4q0-0.2 0.2-0.5 0.3-0.2 0.5-0.2 0.3 0 0.5 0.2 0.3 0.3 0.3 0.5v3.3q0.9-0.7 2.1-0.7 0.7 0 1.3 0.3 0.7 0.3 1.2 0.7 0.4 0.5 0.7 1.1 0.3 0.7 0.3 1.4v3.3q0 0.3-0.2 0.5-0.2 0.2-0.5 0.2-0.3 0-0.5-0.2-0.2-0.2-0.2-0.5v-3.3q0-0.4-0.2-0.8-0.2-0.4-0.4-0.7-0.3-0.3-0.7-0.4-0.4-0.2-0.8-0.2-0.5 0-0.9 0.2-0.3 0.1-0.6 0.4-0.3 0.3-0.5 0.7-0.1 0.4-0.1 0.8v3.3z"/><path  d="m188.5 283.8q0.3 0 0.5 0.2 0.2 0.2 0.2 0.5 0 0.3-0.2 0.5-1.1 0.9-2.5 0.9-1.6 0-2.7-1.1-1.1-1.1-1.1-2.7 0-1.5 1.1-2.6 1.1-1.1 2.7-1.1 1.6 0 2.7 1.1 0.5 0.5 0.8 1.2 0.3 0.7 0.3 1.4 0 0.4-0.2 0.5-0.2 0.2-0.5 0.3h-5.4q0.2 0.3 0.4 0.6 0.2 0.3 0.5 0.6 0.3 0.2 0.7 0.3 0.3 0.1 0.7 0.1 0.4 0 0.8-0.1 0.4-0.1 0.7-0.4 0.2-0.2 0.5-0.2zm0.3-2.4q-0.1-0.3-0.4-0.7-0.2-0.3-0.5-0.5-0.3-0.2-0.6-0.3-0.4-0.1-0.8-0.1-0.4 0-0.7 0.1-0.4 0.1-0.7 0.3-0.3 0.2-0.5 0.5-0.2 0.3-0.4 0.7z"/><path  d="m197.1 275.1q0.6 0 1.1 0.3 0.5 0.2 0.9 0.6 0.4 0.3 0.6 0.9 0.2 0.5 0.2 1 0 1.1-0.6 1.8 0.4 0.3 0.7 0.6 0.3 0.3 0.5 0.7 0.2 0.4 0.4 0.8 0.1 0.4 0.1 0.8 0 0.7-0.3 1.3-0.3 0.6-0.7 1-0.5 0.5-1.1 0.8-0.6 0.2-1.3 0.2h-2.6q-0.1 0-0.2 0-0.2-0.1-0.3-0.2-0.1-0.1-0.1-0.2-0.1-0.1-0.1-0.3v-9.4q0-0.1 0.1-0.2 0-0.2 0.1-0.3 0.1-0.1 0.3-0.1 0.1-0.1 0.2-0.1h2.1zm-1.4 1.5v2.7h1.4q0.3 0 0.5-0.1 0.3-0.1 0.5-0.3 0.2-0.2 0.3-0.4 0.1-0.3 0.1-0.6 0-0.3-0.1-0.5-0.1-0.2-0.3-0.4-0.2-0.2-0.5-0.3-0.2-0.1-0.5-0.1h-1.4zm0 4.1v3.8h1.9q0.4 0 0.8-0.1 0.3-0.2 0.6-0.4 0.2-0.3 0.4-0.6 0.1-0.4 0.1-0.8 0-0.4-0.1-0.7-0.2-0.4-0.5-0.6-0.2-0.3-0.6-0.4-0.3-0.2-0.7-0.2h-1.9z"/><path  d="m207.7 285.9q-0.3 0-0.5-0.2-0.1-0.2-0.2-0.5-0.4 0.4-1 0.6-0.5 0.1-1.1 0.1-0.7 0-1.3-0.2-0.7-0.3-1.2-0.8-0.4-0.5-0.7-1.1-0.3-0.7-0.3-1.4v-3.3q0-0.3 0.2-0.5 0.2-0.2 0.5-0.2 0.3 0 0.5 0.2 0.2 0.2 0.2 0.5v3.3q0 0.5 0.2 0.8 0.1 0.4 0.4 0.7 0.3 0.3 0.7 0.5 0.4 0.1 0.8 0.1 0.5 0 0.8-0.1 0.4-0.2 0.7-0.5 0.3-0.3 0.5-0.7 0.1-0.3 0.1-0.8v-3.3q0-0.3 0.2-0.5 0.3-0.2 0.5-0.2 0.3 0 0.5 0.2 0.3 0.2 0.3 0.5v6.1q0 0.3-0.3 0.5-0.2 0.3-0.5 0.3z"/><path  d="m210.4 282.3q-0.7-0.2-0.9-0.5-0.5-0.5-0.5-1.2 0-0.5 0.2-0.9 0.3-0.4 0.7-0.7 0.5-0.3 1-0.5 0.6-0.1 1.1-0.1 1.7 0 2.9 1.3 0.2 0.2 0.2 0.5 0 0.3-0.2 0.5-0.2 0.2-0.5 0.2-0.2 0-0.4-0.1-0.2-0.2-0.3-0.3-0.7-0.7-1.7-0.7-1 0-1.5 0.6-0.1 0.1-0.1 0.3 0 0.2 0.2 0.2l3.1 1.1q0.7 0.2 0.9 0.5 0.5 0.5 0.5 1.2 0 0.5-0.3 0.9-0.2 0.4-0.7 0.7-0.4 0.3-1 0.5-0.5 0.1-1.1 0.1-1.7 0-2.9-1.3-0.1-0.2-0.1-0.4 0-0.3 0.2-0.5 0.2-0.2 0.5-0.2 0.2 0 0.4 0.1 0.1 0.1 0.3 0.2 0.6 0.7 1.6 0.7c0.7 0 1.2-0.2 1.6-0.6q0.1-0.1 0.1-0.3 0-0.1-0.2-0.2z"/><path  d="m217.5 277q0 0.4-0.2 0.6-0.3 0.3-0.6 0.3-0.3 0-0.6-0.3-0.2-0.2-0.2-0.6 0-0.3 0.2-0.6 0.3-0.2 0.6-0.2 0.3 0 0.6 0.2 0.2 0.3 0.2 0.6zm-1.5 8.2v-6.1q0-0.3 0.2-0.5 0.2-0.2 0.5-0.2 0.3 0 0.5 0.2 0.2 0.2 0.2 0.5v6.1q0 0.3-0.2 0.5-0.2 0.2-0.5 0.2-0.3 0-0.5-0.2-0.2-0.2-0.2-0.5z"/><path  d="m219.7 279.1q0.9-0.7 2.1-0.7 0.8 0 1.4 0.3 0.6 0.2 1.1 0.7 0.5 0.5 0.8 1.1 0.3 0.7 0.3 1.4v3.3q0 0.3-0.2 0.5-0.2 0.3-0.5 0.3-0.3 0-0.5-0.3-0.2-0.2-0.2-0.5v-3.3q0-0.4-0.2-0.8-0.2-0.4-0.4-0.7-0.3-0.3-0.7-0.4-0.4-0.2-0.8-0.2-0.5 0-0.9 0.2-0.3 0.1-0.6 0.4-0.3 0.3-0.5 0.7-0.1 0.4-0.1 0.8v3.4q0 0.3-0.3 0.5-0.2 0.2-0.5 0.2-0.3 0-0.5-0.2-0.2-0.3-0.2-0.5v-6.2q0-0.3 0.2-0.5 0.3-0.2 0.5-0.2 0.3 0 0.5 0.2 0.3 0.2 0.3 0.5z"/><path  d="m231.7 283.8q0.3 0 0.5 0.2 0.2 0.2 0.2 0.5 0 0.3-0.2 0.5-1.1 0.9-2.5 0.9-1.6 0-2.7-1.1-1.1-1.1-1.1-2.7 0-1.5 1.1-2.6 1.1-1.1 2.7-1.1 1.6 0 2.7 1.1 0.5 0.5 0.8 1.2 0.3 0.7 0.3 1.4 0 0.4-0.2 0.5-0.2 0.2-0.5 0.3h-5.4q0.1 0.3 0.4 0.6 0.2 0.3 0.5 0.6 0.3 0.2 0.6 0.3 0.4 0.1 0.8 0.1 0.4 0 0.8-0.1 0.4-0.1 0.7-0.4 0.2-0.2 0.5-0.2zm0.3-2.4q-0.1-0.3-0.4-0.7-0.2-0.3-0.5-0.5-0.3-0.2-0.7-0.3-0.3-0.1-0.7-0.1-0.4 0-0.7 0.1-0.4 0.1-0.7 0.3-0.3 0.2-0.5 0.5-0.3 0.3-0.4 0.7z"/><path  d="m235.4 282.3q-0.6-0.2-0.9-0.5-0.5-0.5-0.5-1.2 0-0.5 0.3-0.9 0.3-0.4 0.7-0.7 0.4-0.3 1-0.5 0.5-0.1 1.1-0.1 1.7 0 2.9 1.3 0.1 0.2 0.1 0.5 0 0.3-0.2 0.5-0.2 0.2-0.5 0.2-0.2 0-0.4-0.1-0.1-0.2-0.3-0.3-0.7-0.7-1.6-0.7-1 0-1.6 0.6-0.1 0.1-0.1 0.3 0 0.2 0.2 0.2l3.2 1.1q0.6 0.2 0.8 0.5 0.6 0.5 0.6 1.2 0 0.5-0.3 0.9-0.3 0.4-0.7 0.7-0.4 0.3-1 0.5-0.6 0.1-1.1 0.1-1.7 0-2.9-1.3-0.2-0.2-0.2-0.4 0-0.3 0.2-0.5 0.2-0.2 0.5-0.2 0.3 0 0.4 0.1 0.2 0.1 0.3 0.2 0.7 0.7 1.7 0.7c0.7 0 1.1-0.2 1.5-0.6q0.1-0.1 0.1-0.3 0-0.1-0.1-0.2z"/><path  d="m242 282.3q-0.6-0.2-0.8-0.5-0.6-0.5-0.6-1.2 0-0.5 0.3-0.9 0.3-0.4 0.7-0.7 0.5-0.3 1-0.5 0.6-0.1 1.1-0.1 1.7 0 2.9 1.3 0.1 0.2 0.1 0.5 0.1 0.3-0.2 0.5-0.2 0.2-0.5 0.2-0.2 0-0.3-0.1-0.2-0.2-0.3-0.3-0.7-0.7-1.7-0.7-1 0-1.6 0.6-0.1 0.1-0.1 0.3 0 0.2 0.2 0.2l3.2 1.1q0.6 0.2 0.9 0.5 0.5 0.5 0.5 1.2 0 0.5-0.3 0.9-0.3 0.4-0.7 0.7-0.4 0.3-1 0.5-0.5 0.1-1.1 0.1-1.7 0-2.9-1.3-0.1-0.2-0.1-0.4 0-0.3 0.2-0.5 0.2-0.2 0.5-0.2 0.2 0 0.3 0.1 0.2 0.1 0.3 0.2 0.7 0.7 1.7 0.7c0.7 0 1.2-0.2 1.6-0.6q0.1-0.1 0.1-0.3 0-0.1-0.2-0.2z"/><path  d="m259.1 283.5q0.2 0 0.3 0.1 0.1 0 0.2 0.1 0.1 0.1 0.2 0.2 0 0.2 0 0.3 0 0.3-0.2 0.5-1.5 1.2-3.4 1.3-2.2 0-3.8-1.6-1.6-1.6-1.6-3.8 0-2.3 1.6-3.9 1.6-1.5 3.8-1.5 1.9 0 3.5 1.2 0.2 0.2 0.2 0.5 0 0.2-0.1 0.3 0 0.1-0.1 0.2-0.1 0.1-0.3 0.2-0.1 0-0.2 0-0.3 0-0.5-0.2-0.5-0.4-1.2-0.6-0.6-0.2-1.3-0.2-1.6 0-2.8 1.1-1.1 1.2-1.1 2.9 0 1.6 1.1 2.8 1.2 1.1 2.8 1.1 1.5 0 2.5-0.9 0.2-0.1 0.4-0.1z"/><path  d="m260.2 285.2v-9.4q0-0.2 0.2-0.5 0.2-0.2 0.5-0.2 0.3 0 0.5 0.2 0.2 0.3 0.2 0.5v8.7h0.3q0.3 0 0.5 0.2 0.2 0.3 0.2 0.5 0 0.3-0.2 0.5-0.2 0.3-0.5 0.3h-1q-0.3 0-0.5-0.3-0.2-0.2-0.2-0.5z"/><path  d="m270.6 282.2q0 1.5-1.1 2.6-1.2 1.1-2.7 1.1-1.6 0-2.7-1.1-1.1-1.1-1.1-2.6 0-1.6 1.1-2.7 1.1-1.1 2.7-1.1 1.5 0 2.7 1.1 0.5 0.5 0.8 1.2 0.3 0.7 0.3 1.5zm-3.8-2.4q-0.5 0-0.9 0.2-0.5 0.2-0.8 0.5-0.3 0.3-0.5 0.8-0.2 0.4-0.2 0.9 0 0.5 0.2 0.9 0.2 0.4 0.5 0.7 0.3 0.4 0.8 0.6 0.4 0.2 0.9 0.2 0.5 0 0.9-0.2 0.4-0.2 0.8-0.6 0.3-0.3 0.5-0.7 0.1-0.4 0.1-0.9 0-0.5-0.1-0.9-0.2-0.5-0.5-0.8-0.4-0.3-0.8-0.5-0.4-0.2-0.9-0.2z"/><path  d="m276.9 283.8q0.3 0 0.5 0.2 0.2 0.2 0.2 0.5 0 0.3-0.2 0.5-1.1 0.9-2.5 0.9-1.6 0-2.7-1.1-1.1-1.1-1.1-2.7 0-1.5 1.1-2.6 1.1-1.1 2.7-1.1 1.4 0 2.5 0.9 0.2 0.2 0.2 0.5 0 0.3-0.2 0.5-0.2 0.2-0.5 0.2-0.2 0-0.5-0.1-0.3-0.3-0.7-0.5-0.3-0.1-0.8-0.1-0.5 0-0.9 0.1-0.5 0.2-0.8 0.5-0.3 0.4-0.5 0.8-0.2 0.4-0.2 0.9 0 0.5 0.2 1 0.2 0.4 0.5 0.7 0.3 0.3 0.8 0.5 0.4 0.2 0.9 0.2 0.4 0 0.8-0.2 0.4-0.1 0.7-0.4 0.2-0.1 0.5-0.1z"/><path  d="m278.2 285.2v-9.4q0-0.2 0.2-0.5 0.2-0.2 0.5-0.2 0.3 0 0.5 0.2 0.2 0.3 0.2 0.5v5.3l4-2.6q0.2-0.1 0.4-0.1 0.1 0 0.2 0 0.2 0.1 0.3 0.2 0.1 0.1 0.1 0.2 0.1 0.2 0.1 0.3 0 0.4-0.3 0.6l-2.8 1.8 2.9 3.3q0.2 0.2 0.2 0.5 0 0.1-0.1 0.2 0 0.2-0.1 0.3-0.1 0.1-0.3 0.1-0.1 0.1-0.2 0.1-0.3 0-0.5-0.2l-3.1-3.5-0.8 0.5v2.5q0 0.2-0.2 0.5-0.3 0.2-0.5 0.2-0.3 0-0.6-0.2-0.2-0.3-0.2-0.5z"/><path class="d" d="m216.5 111.7v-0.7q1.1-0.1 1.7-0.3 0.6-0.1 0.9-0.4 0.3-0.3 0.4-0.8 0.1-0.5 0.1-1.2v-14.3q0-0.4 0-0.8-0.1-0.4-0.2-0.7-0.1-0.3-0.3-0.5-0.2-0.3-0.6-0.4-0.4 0-0.9 0.1-0.5 0-1.3 0.4v-0.7l7.5-3.2q0.2-0.1 0.2 0 0.1 0 0.1 0.2v20.6q0 0.5 0.1 0.9 0.1 0.3 0.4 0.5 0.3 0.3 0.9 0.4 0.6 0.1 1.7 0.1v0.8h-10.7z"/><path class="d" d="m245.9 111.7h-13.9v-0.6q1.7-1.8 3-3.3 1.3-1.6 2.3-2.8 1.1-1.4 1.8-2.5 0.7-1.1 1.1-2.2 0.5-1.1 0.7-2.1 0.2-1.1 0.2-2.2 0-0.9-0.2-1.7-0.3-0.7-0.8-1.3-0.5-0.6-1.2-0.9-0.7-0.3-1.7-0.3-1.6 0-2.7 0.8-1 0.9-1.8 2.6l-0.7-0.2q0.4-1.4 1-2.7 0.6-1.3 1.5-2.2 1-1 2.2-1.5 1.2-0.6 2.7-0.6 1.7 0 2.9 0.5 1.3 0.5 2 1.4 0.8 0.8 1.1 2 0.4 1.1 0.4 2.4 0 1.7-0.8 3.4-0.8 1.7-2.2 3.4-1.3 1.7-3 3.5-1.7 1.8-3.4 3.6h7.4q0.5 0 0.9-0.1 0.4 0 0.7-0.3 0.3-0.2 0.6-0.7 0.3-0.4 0.7-1.2l0.5 0.2-1.3 5.6z"/><path class="d" d="m295.3 131.4v-0.7q1.1-0.1 1.7-0.3 0.6-0.1 0.9-0.4 0.4-0.3 0.4-0.8 0.1-0.5 0.1-1.1v-14.4q0-0.4 0-0.7 0-0.4-0.1-0.8-0.1-0.3-0.4-0.5-0.2-0.3-0.5-0.3-0.4-0.1-0.9 0-0.6 0.1-1.4 0.4v-0.7l7.5-3.1q0.2-0.1 0.3-0.1 0 0 0 0.3v20.5q0 0.5 0.1 0.9 0.1 0.3 0.4 0.6 0.3 0.2 1 0.3 0.6 0.1 1.6 0.2v0.7h-10.6z"/><path class="d" d="m156.7 131.4v-0.7q1.1-0.1 1.7-0.3 0.6-0.1 0.9-0.4 0.3-0.3 0.4-0.8 0.1-0.5 0.1-1.1v-14.4q0-0.4 0-0.7 0-0.4-0.1-0.8-0.2-0.3-0.4-0.5-0.2-0.3-0.5-0.3-0.4-0.1-1 0-0.5 0.1-1.3 0.4v-0.7l7.5-3.1q0.2-0.1 0.3-0.1 0 0 0 0.3v20.5q0 0.5 0.1 0.9 0.1 0.3 0.4 0.6 0.3 0.2 0.9 0.3 0.6 0.1 1.7 0.2v0.7h-10.7z"/><path class="d" d="m174.7 131.4v-0.7q1.1-0.1 1.7-0.3 0.6-0.1 0.9-0.4 0.3-0.3 0.4-0.8 0.1-0.5 0.1-1.1v-14.4q0-0.4 0-0.7 0-0.4-0.1-0.8-0.2-0.3-0.4-0.5-0.2-0.3-0.5-0.3-0.4-0.1-1 0-0.5 0.1-1.3 0.4v-0.7l7.5-3.1q0.2-0.1 0.3-0.1 0 0 0 0.3v20.5q0 0.5 0.1 0.9 0.1 0.3 0.4 0.6 0.3 0.2 0.9 0.3 0.6 0.1 1.7 0.2v0.7h-10.7z"/><path class="d" d="m358.2 183.5h-13.9v-0.5q1.7-1.9 3-3.4 1.3-1.5 2.3-2.8 1.1-1.3 1.8-2.4 0.7-1.2 1.1-2.3 0.5-1 0.7-2.1 0.2-1.1 0.2-2.2 0-0.8-0.2-1.6-0.3-0.8-0.8-1.4-0.5-0.5-1.2-0.9-0.7-0.3-1.7-0.3-1.6 0-2.7 0.9-1 0.8-1.8 2.5l-0.7-0.1q0.4-1.5 1-2.8 0.6-1.2 1.5-2.2 1-0.9 2.2-1.5 1.2-0.5 2.7-0.5 1.7 0 2.9 0.5 1.3 0.5 2 1.3 0.8 0.9 1.1 2 0.4 1.2 0.4 2.5 0 1.6-0.8 3.3-0.8 1.7-2.2 3.5-1.3 1.7-3 3.5-1.7 1.7-3.4 3.6h7.4q0.5 0 0.9-0.1 0.4-0.1 0.7-0.3 0.3-0.3 0.6-0.7 0.3-0.5 0.7-1.2l0.5 0.2-1.3 5.5z"/><path class="d" d="m104.9 183.5v-0.7q1-0.1 1.7-0.2 0.6-0.2 0.9-0.5 0.3-0.3 0.4-0.8 0.1-0.4 0.1-1.1v-14.4q0-0.3 0-0.7-0.1-0.4-0.2-0.7-0.1-0.4-0.3-0.6-0.2-0.2-0.6-0.3-0.4-0.1-0.9 0-0.5 0.1-1.3 0.5v-0.8l7.5-3.1q0.2-0.1 0.2-0.1 0.1 0.1 0.1 0.3v20.5q0 0.6 0.1 0.9 0.1 0.3 0.4 0.6 0.3 0.2 0.9 0.3 0.6 0.1 1.7 0.2v0.7h-10.7z"/><path class="d" d="m134.8 177.3q-0.7 2.2-1.8 3.7-1.1 1.4-2.6 2.1-1.4 0.7-2.9 0.7-1.5 0-3-0.7-1.4-0.7-2.5-2.1-1.1-1.4-1.8-3.6-0.6-2.2-0.6-5.3 0-3.3 0.7-5.6 0.7-2.4 1.8-3.8 1.1-1.5 2.6-2.1 1.5-0.7 3.1-0.7 1.3 0 2.6 0.7 1.4 0.7 2.5 2.1 1.1 1.5 1.8 3.8 0.7 2.2 0.7 5.4 0 3.1-0.6 5.4zm-4.5-10.2q-0.2-2.1-0.6-3.4-0.4-1.3-0.9-1.8-0.5-0.6-1.2-0.6-0.6 0-1.2 0.5-0.6 0.5-1 1.7-0.5 1.3-0.7 3.3-0.3 2-0.3 5c0 2 0.1 3.7 0.3 5.1q0.3 2.1 0.7 3.4 0.5 1.3 1 1.9 0.6 0.6 1.2 0.6 0.7 0 1.2-0.6 0.6-0.6 1-1.9 0.3-1.3 0.5-3.3 0.2-2 0.2-4.8 0-3.1-0.2-5.2z"/><path class="d" d="m374 238q-0.5 1.5-1.6 2.7-1.1 1.2-3 1.9-1.8 0.7-4.4 0.7-1.5 0-2.5-0.3-1-0.2-1.6-0.6-0.6-0.3-0.9-0.8-0.2-0.4-0.2-0.8 0-0.9 0.5-1.3 0.5-0.4 1.3-0.4 0.5 0 1 0.2 0.5 0.2 0.9 0.6 0.5 0.3 0.9 0.7 0.4 0.3 0.9 0.7 0.5 0.3 0.9 0.5 0.5 0.2 1 0.2 0.9 0 1.6-0.3 0.8-0.2 1.3-0.8 0.5-0.5 0.7-1.3 0.3-0.8 0.3-1.7 0-1.3-0.5-2.5-0.4-1.2-1.3-2.1-0.8-0.9-2-1.4-1.1-0.6-2.6-0.6h-0.3q-0.2 0-0.4 0.1l-0.1-0.7q1.4-0.3 2.4-0.7 1-0.5 1.6-1.1 0.6-0.6 0.9-1.3 0.2-0.7 0.2-1.4 0-0.8-0.3-1.4-0.3-0.7-0.8-1.2-0.5-0.5-1.2-0.8-0.7-0.3-1.4-0.3-1.6 0-2.6 0.8-1.1 0.8-1.9 2.4l-0.6-0.1q0.4-1.5 1.2-2.7 0.8-1.1 1.9-1.9 1-0.8 2.1-1.2 1.2-0.4 2.3-0.4 1.3 0 2.3 0.3 1.1 0.4 1.8 1 0.7 0.7 1.1 1.5 0.4 0.9 0.4 2 0 1.4-0.8 2.6-0.7 1.2-2.2 1.9 0.6 0.3 1.4 0.7 0.7 0.4 1.4 1.1 0.6 0.7 1 1.7 0.5 1 0.5 2.5 0 1.8-0.5 3.3z"/><path class="d" d="m102.5 231q-0.4 1.7-1.2 3.2-0.8 1.5-2 2.8-1.2 1.4-2.8 2.4-1.6 1-3.5 1.7-2 0.7-4.3 0.9l-0.3-0.9q1.6-0.3 2.9-0.8 1.2-0.5 2.1-1 0.8-0.6 1.5-1.4 0.6-0.8 1.1-1.7 0.4-0.9 0.8-2 0.4-1.1 0.8-2.5-0.9 0.7-1.7 1-0.9 0.3-2 0.3-1.1 0-2.3-0.4-1.1-0.4-2.1-1.3-1-0.9-1.6-2.3-0.6-1.4-0.6-3.4 0-1.7 0.6-3.2 0.5-1.5 1.5-2.6 0.9-1.1 2.3-1.7 1.4-0.6 3.1-0.6c1.2 0 2.2 0.2 3.2 0.7q1.5 0.6 2.6 1.8 1.1 1.3 1.7 3.2 0.6 1.9 0.6 4.4 0 1.7-0.4 3.4zm-4.6-6.2q-0.1-0.9-0.2-1.8-0.2-0.9-0.4-1.7-0.3-0.8-0.7-1.4-0.4-0.6-0.9-0.9-0.5-0.4-1.2-0.4-0.5 0-1 0.4-0.4 0.3-0.7 0.9-0.3 0.7-0.5 1.8-0.2 1-0.2 2.5 0 3.4 0.9 5.2 0.8 1.8 2.4 1.8 0.7 0 1.2-0.3 0.5-0.2 0.9-0.6 0.1-0.2 0.2-0.6 0.1-0.3 0.2-0.9 0-0.5 0.1-1.1 0-0.5 0-1 0-0.9-0.1-1.9z"/><path class="d" d="m352.2 301.7v5h-4.2v-5h-8.9v-3.4l11-15.1h2.1v15.2h2.9v3.3h-2.9zm-4.2-13.4l-7.2 10.1h7.2z"/><path class="d" d="m120.5 303.4q-0.4 1.1-1.3 1.9-0.9 0.8-2.3 1.3-1.4 0.5-3.4 0.5-1.5 0-2.8-0.3-1.4-0.3-2.4-1-1.1-0.7-1.7-1.7-0.6-1.1-0.6-2.6 0-1.1 0.3-2 0.3-0.9 0.9-1.6 0.6-0.8 1.5-1.4 0.9-0.6 2-1.2-1.2-0.7-2-1.5-0.8-0.8-1.3-1.7-0.5-0.7-0.7-1.5-0.3-0.8-0.3-1.5 0-1.4 0.5-2.5 0.5-1.1 1.5-1.9 0.9-0.8 2.3-1.2 1.3-0.4 3-0.4 1.8 0 3.1 0.4 1.3 0.4 2.1 1.1 0.8 0.7 1.2 1.6 0.4 0.9 0.4 1.9 0 0.9-0.3 1.6-0.2 0.8-0.8 1.4-0.6 0.7-1.5 1.3-0.8 0.7-2.1 1.3 1.3 0.9 2.2 1.7 0.8 0.8 1.4 1.5 0.6 0.6 0.9 1.2 0.3 0.6 0.4 1.1 0.2 0.5 0.2 1 0 0.5 0 0.9 0 1.2-0.4 2.3zm-4-2q-0.2-0.7-0.6-1.5-0.5-0.7-1.5-1.6-0.9-0.8-2.4-1.9-1.1 1.2-1.4 2.4-0.4 1.2-0.4 2.5 0 0.9 0.2 1.8 0.3 0.8 0.7 1.5 0.5 0.6 1.1 1.1 0.7 0.4 1.6 0.4 0.7 0 1.2-0.3 0.6-0.2 0.9-0.7 0.4-0.4 0.6-1 0.2-0.5 0.2-1.2 0-0.8-0.2-1.5zm-0.2-14.7q-0.2-0.7-0.5-1.2-0.4-0.6-1-0.9-0.5-0.3-1.4-0.3-1.3 0-2 0.8-0.8 0.7-0.8 2.2 0 0.7 0.2 1.4 0.1 0.6 0.6 1.3 0.4 0.7 1.2 1.4 0.8 0.7 2 1.4 1-0.9 1.4-2.1 0.4-1.2 0.4-2.5 0-0.8-0.1-1.5z"/><path class="d" d="m304.4 337.3q-0.2 0.4-0.7 0.4h-8.5l-1.2 2.8q1.4 0.1 2.9 0.3 1.4 0.2 2.6 0.6 1.3 0.4 2.4 1.1 1.2 0.6 2 1.6 0.8 0.9 1.3 2.3 0.4 1.3 0.4 3 0 1.9-0.7 3.4-0.7 1.6-2 2.7-1.3 1.1-3.1 1.7-1.7 0.6-3.7 0.6-1.6 0-2.6-0.2-1-0.3-1.6-0.6-0.7-0.4-0.9-0.9-0.3-0.5-0.3-1.1 0-0.8 0.4-1.3 0.5-0.4 1.4-0.5 0.6 0 1.1 0.3 0.5 0.2 1 0.6 0.5 0.3 0.9 0.7 0.5 0.4 0.9 0.7 0.5 0.4 0.9 0.6 0.5 0.3 1 0.3 0.7 0 1.4-0.4 0.7-0.4 1.3-1 0.6-0.6 0.9-1.5 0.4-0.9 0.4-1.9 0-1.8-0.8-3-0.9-1.3-2.3-2.2-1.5-0.8-3.5-1.2-2-0.4-4.2-0.4-0.2 0-0.3-0.1-0.1-0.1 0-0.3l3.9-10.2h9q0.2 0 0.3-0.1 0.2-0.1 0.3-0.2 0.1-0.1 0.2-0.3 0.1-0.1 0.2-0.3l0.6 0.2-1.3 3.8z"/><path class="d" d="m166.2 357.4h-3l6.4-19.6h-6.4q-1 0-1.7 0.2-0.7 0.1-1.1 0.4-0.5 0.3-0.8 0.8-0.4 0.5-0.8 1.2l-0.7-0.1 1.7-6.1h13.5v1.1l-7.1 22.1z"/><path class="d" d="m238.7 370.9q-0.6 1.5-1.6 2.6-1 1.1-2.3 1.7-1.3 0.6-2.7 0.6-1.5 0-2.9-0.6-1.5-0.7-2.6-2-1.2-1.3-1.9-3.3-0.8-1.9-0.8-4.5 0-1.8 0.5-3.5 0.5-1.7 1.4-3.3 0.9-1.5 2.2-2.8 1.3-1.3 2.9-2.3 1.6-1 3.5-1.5 1.9-0.6 4-0.6l0.1 0.8q-1.8 0.3-3.3 1-1.4 0.7-2.6 1.9-1.1 1.1-1.9 2.6-0.8 1.6-1.3 3.6 0.8-0.6 1.7-0.8 0.8-0.2 1.8-0.2 1.2 0 2.3 0.4 1.2 0.4 2.1 1.3 0.9 0.8 1.5 2.2 0.5 1.4 0.5 3.4 0 1.8-0.6 3.3zm-4.8-6.9q-1-1.9-2.6-1.9-1.5 0-2.2 1-0.6 1.1-0.6 3.3 0 1.4 0.2 2.9 0.2 1.4 0.7 2.7 0.4 1.1 1.1 1.9 0.7 0.8 1.7 0.8 0.7 0 1.2-0.4 0.5-0.4 0.8-1 0.3-0.7 0.5-1.7 0.1-1 0.1-2.2 0-3.5-0.9-5.4z"/><path  d="m206.7 195.4v-0.3q-0.9 0.8-2 1.2-1.1 0.4-2.4 0.4-2.9 0-4.9-2.1-2-2-2-4.9 0-2.9 2-5 2-2 4.9-2 2.9 0 5 2 2 2.1 2 5v5.7q0 0.5-0.4 0.9-0.4 0.4-0.9 0.4-0.5 0-0.9-0.4-0.4-0.4-0.4-0.9zm-4.4-10.1q-0.9 0-1.7 0.3-0.8 0.4-1.4 1-0.6 0.6-0.9 1.4-0.3 0.8-0.3 1.7 0 0.9 0.3 1.7 0.3 0.8 0.9 1.4 0.6 0.5 1.4 0.9 0.8 0.3 1.7 0.3 0.9 0 1.7-0.3 0.8-0.4 1.4-1 0.6-0.6 1-1.3 0.3-0.8 0.3-1.7 0-0.9-0.3-1.7-0.4-0.8-1-1.4-0.6-0.6-1.4-1-0.8-0.3-1.7-0.3z"/><path  d="m215 184v12.6q0 1.2-0.5 2.3-0.5 1.1-1.3 1.9-0.8 0.8-1.9 1.3-1.1 0.5-2.3 0.5-0.6 0-0.9-0.4-0.4-0.3-0.4-0.9 0-0.6 0.4-0.9 0.3-0.4 0.9-0.4 0.7 0 1.3-0.3 0.6-0.2 1.1-0.7 0.5-0.5 0.8-1.1 0.2-0.6 0.2-1.3v-12.6q0-0.6 0.4-1 0.4-0.3 0.9-0.3 0.6 0 0.9 0.3 0.4 0.4 0.4 1zm0.2-3.8q0 0.6-0.4 1.1-0.5 0.4-1.1 0.4-0.6 0-1.1-0.4-0.4-0.5-0.4-1.1 0-0.6 0.4-1.1 0.5-0.4 1.1-0.4 0.6 0 1.1 0.4 0.4 0.5 0.4 1.1z"/><path  d="m219.5 184q1.6-1.3 3.9-1.3 1.3 0 2.5 0.5 1.2 0.5 2.1 1.4 0.8 0.9 1.4 2.1 0.5 1.2 0.5 2.5v6.2q0 0.5-0.4 0.9-0.4 0.4-0.9 0.4-0.5 0-0.9-0.4-0.4-0.4-0.4-0.9v-6.2q0-0.8-0.3-1.5-0.3-0.7-0.8-1.2-0.6-0.6-1.3-0.9-0.7-0.3-1.5-0.3-0.8 0-1.5 0.3-0.7 0.3-1.2 0.9-0.6 0.5-0.9 1.2-0.3 0.7-0.3 1.5v6.2q0 0.5-0.4 0.9-0.3 0.4-0.9 0.4-0.5 0-0.9-0.4-0.4-0.4-0.4-0.9v-11.4q0-0.5 0.4-0.9 0.4-0.4 0.9-0.4 0.6 0 0.9 0.4 0.4 0.4 0.4 0.9z"/><path  d="m242.5 192.7q0.5 0 0.9 0.4 0.4 0.4 0.4 0.9 0 0.6-0.4 1-1.9 1.7-4.6 1.7-2.9 0-4.9-2.1-2-2-2-4.9 0-2.9 2-5 2-2 4.9-2 2.9 0 5 2 1 1.1 1.5 2.3 0.5 1.2 0.5 2.7 0 0.5-0.4 0.9-0.3 0.4-0.9 0.4h-9.9q0.2 0.7 0.7 1.2 0.4 0.6 0.9 1 0.6 0.4 1.2 0.6 0.7 0.3 1.4 0.3 0.9 0 1.5-0.3 0.7-0.2 1.3-0.7 0.4-0.4 0.9-0.4zm0.5-4.3q-0.2-0.7-0.6-1.3-0.4-0.5-1-0.9-0.5-0.4-1.2-0.7-0.7-0.2-1.4-0.2-0.7 0-1.4 0.2-0.6 0.3-1.2 0.7-0.5 0.4-1 0.9-0.4 0.6-0.6 1.3z"/><path  d="m258.4 192.7q0.6 0 1 0.4 0.3 0.4 0.3 0.9 0 0.6-0.3 1-2 1.7-4.6 1.7-2.9 0-4.9-2.1-2.1-2-2.1-4.9 0-2.9 2.1-5 2-2 4.9-2 2.9 0 4.9 2 1.1 1.1 1.6 2.3 0.5 1.2 0.5 2.7 0 0.5-0.4 0.9-0.4 0.4-0.9 0.4h-9.9q0.2 0.7 0.6 1.2 0.4 0.6 1 1 0.5 0.4 1.2 0.6 0.7 0.3 1.4 0.3 0.8 0 1.5-0.3 0.7-0.2 1.3-0.7 0.3-0.4 0.8-0.4zm0.6-4.3q-0.2-0.7-0.6-1.3-0.5-0.5-1-0.9-0.6-0.4-1.2-0.7-0.7-0.2-1.4-0.2-0.7 0-1.4 0.2-0.7 0.3-1.2 0.7-0.6 0.4-1 0.9-0.4 0.6-0.6 1.3z"/><path class="e" d="m228.5 459.5h2.5c126 0 228.5-102.5 228.5-228.5 0-126-102.5-228.5-228.5-228.5-126 0-228.5 102.5-228.5 228.5 0 125.1 101.2 227.1 226 228.5zm-217-228.5c0-121 98.5-219.5 219.5-219.5 121 0 219.5 98.5 219.5 219.5 0 121-98.5 219.5-219.5 219.5-121 0-219.5-98.5-219.5-219.5z"/><path  d="m231.9 159.9c0 0.9-0.7 1.6-1.6 1.6-0.8 0-1.5-0.7-1.5-1.6 0-0.9 0.7-1.5 1.5-1.5 0.9 0 1.6 0.6 1.6 1.5z"/><path  d="m239.7 138.7c-0.8 0.1-1.6-0.7-1.6-1.5 0-0.8 0.7-1.6 1.6-1.5 1 0 1.6 0.8 1.5 1.5 0 0.9-0.6 1.5-1.5 1.5z"/><path  d="m225.4 135.9c-0.9 0-1.6-0.7-1.6-1.5 0-0.9 0.7-1.6 1.6-1.6 0.8 0 1.5 0.7 1.5 1.5 0 0.9-0.7 1.6-1.5 1.6z"/><path  d="m220.9 138.7c-0.9 0-1.5-0.7-1.5-1.5 0-0.9 0.7-1.6 1.5-1.5 1 0 1.6 0.8 1.6 1.5 0 0.9-0.7 1.5-1.6 1.5z"/><path  d="m218.8 146.5c0 0.9-0.7 1.5-1.6 1.5-0.8 0-1.5-0.6-1.5-1.5 0-0.9 0.7-1.5 1.5-1.6 0.9 0 1.6 0.7 1.6 1.6z"/><path  d="m226.7 158.7c0 0.8-0.7 1.6-1.5 1.6-0.8 0-1.6-0.8-1.6-1.6 0-0.8 0.6-1.5 1.6-1.6 0.8 0 1.5 0.8 1.5 1.6z"/><path  d="m245.1 146.5c0 0.9-0.7 1.6-1.5 1.5-0.9 0-1.6-0.7-1.6-1.5 0-0.9 0.8-1.6 1.6-1.6 0.8 0 1.5 0.8 1.5 1.6z"/><path  d="m237 158.7c0 0.8-0.7 1.5-1.5 1.5-0.9 0-1.6-0.7-1.6-1.5 0-0.9 0.7-1.6 1.6-1.6 0.8 0 1.5 0.7 1.5 1.5z"/><path  d="m239.6 157.4c-0.9 0-1.6-0.7-1.6-1.6 0-0.8 0.7-1.5 1.6-1.5 0.8 0 1.5 0.6 1.5 1.5 0 0.9-0.7 1.6-1.5 1.6z"/><path  d="m231.9 133.6c0 0.8-0.7 1.5-1.6 1.5-0.8 0-1.5-0.7-1.5-1.5 0-0.9 0.7-1.6 1.5-1.6 0.9 0 1.6 0.7 1.6 1.6z"/><path  d="m216.5 151.5c0-0.8 0.7-1.5 1.6-1.5 0.8 0 1.5 0.7 1.5 1.6 0 0.8-0.7 1.5-1.6 1.5-0.8 0-1.5-0.7-1.5-1.6z"/><path  d="m243.9 151.6c0 0.8-0.7 1.5-1.5 1.5-0.9 0-1.6-0.7-1.6-1.6 0-0.8 0.7-1.5 1.6-1.5 0.8 0 1.5 0.7 1.5 1.6z"/><path  d="m221.1 157.4c-0.9 0-1.6-0.7-1.6-1.6 0-0.8 0.7-1.5 1.6-1.5 0.9 0 1.5 0.7 1.5 1.6 0 0.8-0.7 1.5-1.5 1.5z"/><path  d="m235.2 135.9c-0.8 0-1.5-0.7-1.5-1.5 0-0.9 0.7-1.6 1.6-1.6 0.8 0 1.5 0.7 1.5 1.5 0 0.9-0.7 1.6-1.6 1.6z"/><path  d="m216.5 141.5c0-0.9 0.7-1.6 1.5-1.6 0.9 0 1.6 0.8 1.6 1.6 0 0.8-0.7 1.5-1.5 1.5-0.9 0-1.6-0.7-1.6-1.5z"/><path  d="m243.9 141.5c0 0.8-0.6 1.5-1.5 1.5-0.8 0-1.6-0.7-1.6-1.5 0-0.8 0.8-1.6 1.6-1.6 0.9 0 1.5 0.7 1.5 1.6z"/><path  d="m244.8 138c-0.5 0-1-0.4-1-0.9 0-0.5 0.5-1 1-1 0.5 0 1 0.4 1 0.9 0 0.6-0.5 1-1 1z"/><path  d="m235 130c0 0.6-0.5 1-1 1-0.5 0-0.9-0.4-0.9-1 0-0.5 0.4-0.9 0.9-0.9 0.5 0 1 0.4 1 0.9z"/><path  d="m213.4 142.8c0-0.5 0.4-0.9 1-0.9 0.5 0 0.9 0.4 0.9 0.9 0 0.6-0.4 1-1 1-0.5 0-0.9-0.4-0.9-1z"/><path  d="m233.9 161.8c0.5 0 0.9 0.4 0.9 0.9 0 0.6-0.4 1-0.9 1-0.5 0-1-0.4-1-1 0-0.5 0.5-0.9 1-0.9z"/><path  d="m245.4 155.7c0 0.5-0.5 0.9-1 0.9-0.5 0-0.9-0.5-0.9-1 0-0.5 0.4-0.9 0.9-0.9 0.6 0 1 0.4 1 1z"/><path  d="m216.7 156.4c-0.5 0-0.9-0.5-0.9-1 0-0.5 0.4-0.9 1-0.9 0.5 0 0.9 0.4 0.9 1 0 0.5-0.4 0.9-1 0.9z"/><path  d="m247.2 148.7c0.5 0 0.9 0.5 0.9 1 0 0.5-0.4 0.9-0.9 0.9-0.5 0-1-0.4-1-0.9 0-0.5 0.5-1 1-1z"/><path  d="m222.3 132.2c0 0.5-0.4 0.9-1 0.9-0.5 0-0.9-0.4-0.9-0.9 0-0.5 0.4-1 1-1 0.5 0 0.9 0.5 0.9 1z"/><path  d="m227.7 128.8c0.5 0 0.9 0.5 0.9 1 0 0.5-0.5 0.9-1 0.9-0.5 0-0.9-0.4-0.9-0.9 0-0.5 0.4-1 1-1z"/><path  d="m221.1 159.1c0.6 0 1 0.4 1 1 0 0.5-0.5 0.9-1 0.9-0.5 0-0.9-0.4-0.9-0.9 0-0.5 0.4-1 0.9-1z"/><path  d="m246.1 143.1c0-0.6 0.5-1 0.9-1 0.5 0 1 0.5 1 1 0 0.5-0.5 0.9-1 0.9-0.5 0-0.9-0.4-0.9-0.9z"/><path  d="m227.2 163.8c-0.5 0-0.9-0.4-0.9-0.9 0-0.5 0.4-0.9 0.9-0.9 0.5 0 1 0.4 1 0.9 0 0.5-0.5 0.9-1 0.9z"/><path  d="m240 133.3c-0.5 0-0.9-0.4-0.9-1 0-0.5 0.4-0.9 0.9-0.9 0.6 0 1 0.4 1 0.9 0 0.6-0.5 1-1 1z"/><path  d="m215.8 136.8c0-0.6 0.4-1 0.9-1 0.5 0 0.9 0.4 0.9 1 0 0.5-0.4 0.9-0.9 0.9-0.5 0-0.9-0.4-0.9-0.9z"/><path  d="m239.8 161.2c-0.6 0-1-0.4-1-1 0-0.5 0.5-0.9 1-0.9 0.5 0 0.9 0.4 0.9 0.9 0 0.6-0.4 1-0.9 1z"/><path  d="m214.1 148.4c0.5 0 0.9 0.4 0.9 0.9 0 0.5-0.4 1-0.9 1-0.5 0-1-0.5-1-1 0-0.5 0.5-0.9 1-0.9z"/><path  d="m249.4 155.1c-0.4 0-0.7-0.3-0.7-0.7 0-0.3 0.3-0.6 0.7-0.6 0.4 0 0.7 0.3 0.7 0.6 0 0.4-0.3 0.7-0.7 0.7z"/><path  d="m222.1 165.4c-0.3 0-0.6-0.3-0.6-0.7 0-0.4 0.3-0.7 0.7-0.6 0.4 0 0.7 0.3 0.7 0.7 0 0.4-0.4 0.6-0.8 0.6z"/><path  d="m239.9 127.7c0 0.3-0.4 0.6-0.8 0.6-0.3 0-0.6-0.3-0.6-0.7 0-0.3 0.3-0.6 0.7-0.6 0.4 0 0.7 0.3 0.7 0.7z"/><path  d="m217.5 130.9c0 0.3-0.3 0.7-0.7 0.7-0.4 0-0.7-0.3-0.7-0.7 0-0.4 0.3-0.7 0.7-0.7 0.4 0 0.7 0.3 0.7 0.7z"/><path  d="m215.7 159c0.4 0 0.7 0.3 0.7 0.7 0 0.4-0.3 0.7-0.7 0.7-0.3 0-0.7-0.3-0.7-0.7 0-0.3 0.3-0.7 0.7-0.7z"/><path  d="m224.3 126.8c0 0.3-0.4 0.6-0.8 0.6-0.3 0-0.6-0.3-0.6-0.7 0-0.3 0.3-0.7 0.7-0.7 0.4 0 0.7 0.4 0.7 0.7z"/><path  d="m245.2 160.8c0 0.4-0.3 0.7-0.7 0.7-0.4 0-0.7-0.4-0.7-0.7 0-0.4 0.4-0.7 0.7-0.7 0.4 0 0.7 0.3 0.7 0.7z"/><path  d="m250.4 146.6c0-0.4 0.3-0.7 0.7-0.7 0.3 0 0.6 0.3 0.6 0.7 0 0.4-0.3 0.7-0.6 0.7-0.4 0-0.7-0.3-0.7-0.7z"/><path  d="m250 139.5c-0.4 0-0.7-0.3-0.7-0.7 0-0.3 0.3-0.6 0.7-0.6 0.4 0 0.7 0.3 0.7 0.6 0 0.4-0.3 0.7-0.7 0.7z"/><path  d="m211.1 153c0-0.4 0.3-0.7 0.7-0.6 0.4 0 0.7 0.3 0.7 0.7 0 0.3-0.3 0.6-0.7 0.6-0.4 0-0.7-0.3-0.7-0.7z"/><path  d="m245.6 132.7c-0.3 0-0.6-0.4-0.6-0.7 0-0.4 0.3-0.7 0.6-0.7 0.4 0 0.7 0.3 0.7 0.7 0 0.3-0.3 0.7-0.7 0.7z"/><path  d="m212.4 138.1c-0.4 0-0.7-0.3-0.7-0.7 0-0.4 0.3-0.7 0.6-0.7 0.4 0 0.8 0.4 0.7 0.7 0 0.4-0.3 0.7-0.6 0.7z"/><path  d="m211 145.1c0 0.3-0.3 0.7-0.7 0.7-0.4 0-0.7-0.4-0.7-0.7 0-0.4 0.3-0.7 0.7-0.7 0.4 0 0.7 0.3 0.7 0.7z"/><path  d="m237.1 164.9c0-0.3 0.3-0.6 0.6-0.6 0.4 0 0.7 0.3 0.7 0.6 0 0.4-0.3 0.7-0.6 0.7-0.4 0-0.7-0.3-0.7-0.7z"/><path  d="m232.3 125.5c0 0.4-0.3 0.7-0.6 0.8-0.4 0-0.7-0.4-0.7-0.8 0-0.3 0.3-0.6 0.7-0.6 0.4 0 0.6 0.3 0.6 0.6z"/><path  d="m230.1 167c-0.4 0-0.7-0.3-0.7-0.7 0-0.4 0.4-0.7 0.8-0.7 0.3 0 0.6 0.3 0.6 0.7 0 0.4-0.3 0.7-0.7 0.7z"/><path  d="m254.7 141.8c0 0.3-0.2 0.5-0.5 0.5-0.3 0-0.5-0.2-0.5-0.4 0-0.3 0.2-0.6 0.5-0.6 0.3 0 0.5 0.3 0.5 0.5z"/><path  d="m244.6 126.9c0 0.3-0.2 0.5-0.5 0.5-0.3 0-0.5-0.2-0.5-0.5 0-0.3 0.2-0.5 0.5-0.5 0.3 0 0.5 0.2 0.5 0.5z"/><path  d="m243.5 166.2c-0.3 0-0.5-0.2-0.5-0.5 0-0.3 0.2-0.5 0.5-0.5 0.3 0 0.5 0.3 0.5 0.5 0 0.3-0.2 0.5-0.5 0.5z"/><path  d="m250.9 159.5c0 0.3-0.3 0.5-0.5 0.5-0.3 0-0.5-0.2-0.5-0.5 0-0.3 0.2-0.5 0.5-0.5 0.3 0 0.5 0.3 0.5 0.5z"/><path  d="m207.2 140.9c0-0.3 0.2-0.5 0.4-0.5 0.3 0 0.6 0.2 0.6 0.5 0 0.3-0.2 0.5-0.5 0.5-0.3 0-0.5-0.2-0.5-0.5z"/><path  d="m234.9 168.6c0.4 0 0.6 0.2 0.6 0.5 0 0.3-0.2 0.5-0.5 0.5-0.3 0-0.5-0.2-0.5-0.5 0-0.3 0.2-0.5 0.4-0.5z"/><path  d="m218 125.6c0.2 0 0.5 0.2 0.5 0.5 0 0.2-0.3 0.5-0.6 0.5-0.2 0-0.4-0.2-0.4-0.5 0-0.3 0.1-0.5 0.5-0.5z"/><path  d="m208.3 150.3c0 0.3-0.3 0.5-0.6 0.5-0.2 0-0.4-0.2-0.4-0.5 0-0.3 0.2-0.5 0.5-0.5 0.3 0 0.5 0.2 0.5 0.5z"/><path  d="m250.1 133.1c0-0.3 0.2-0.5 0.5-0.5 0.2 0 0.5 0.2 0.5 0.5 0 0.3-0.3 0.5-0.5 0.5-0.3 0-0.5-0.2-0.5-0.5z"/><path  d="m212.1 132.6c0 0.3-0.3 0.6-0.5 0.6-0.3 0-0.5-0.3-0.5-0.5 0-0.3 0.2-0.6 0.5-0.6 0.3 0 0.5 0.3 0.5 0.5z"/><path  d="m235.9 123.5c-0.2 0-0.4-0.2-0.4-0.5 0-0.3 0.2-0.5 0.5-0.5 0.2 0 0.5 0.2 0.5 0.5 0 0.3-0.3 0.5-0.6 0.5z"/><path  d="m210.9 158.2c0.3 0 0.5 0.3 0.5 0.6 0 0.2-0.3 0.4-0.5 0.4-0.3 0-0.5-0.3-0.5-0.5 0-0.3 0.3-0.5 0.5-0.5z"/><path  d="m217.2 166.2q-0.5 0-0.5-0.5c0-0.3 0.3-0.5 0.5-0.5 0.3 0 0.5 0.2 0.5 0.5q0 0.5-0.5 0.5z"/><path  d="m227 122.7c0 0.3-0.2 0.5-0.5 0.5-0.3 0-0.5-0.2-0.5-0.5 0-0.2 0.3-0.5 0.5-0.5 0.3 0 0.5 0.2 0.5 0.5z"/><path  d="m253.8 150.4c0.3 0 0.5 0.2 0.5 0.5 0 0.3-0.2 0.5-0.5 0.5-0.2 0-0.5-0.3-0.5-0.5 0-0.3 0.2-0.5 0.5-0.5z"/><path  d="m226.5 169.1c0 0.3-0.2 0.5-0.5 0.5-0.3 0-0.5-0.2-0.5-0.5 0-0.3 0.2-0.5 0.5-0.5 0.2 0 0.5 0.3 0.5 0.5z"/><path  d="m192.7 293q2.2 0 3.8 1.6 0.7 0.8 1.1 1.8 0.4 1 0.4 2.1 0 2.3-1.6 3.9-1.5 1.6-3.7 1.6h-2q-0.1 0-0.3-0.1-0.1 0-0.2-0.1-0.1-0.1-0.1-0.3-0.1-0.1-0.1-0.2v-9.6q0-0.1 0.1-0.3 0-0.1 0.1-0.2 0.1-0.1 0.2-0.1 0.2-0.1 0.3-0.1h2zm0 9.5q1.6 0 2.8-1.2 0.5-0.6 0.8-1.3 0.3-0.7 0.3-1.5 0-1.7-1.1-2.9-1.2-1.2-2.8-1.2h-1.3v8.1z"/><path  d="m205.9 300.1q0 1.7-1.1 2.8-1 1.1-2.6 1.1-1.5 0-2.6-1.1-1-1.2-1-2.8 0-1.5 1-2.7 1.1-1.1 2.6-1.1 1.6 0 2.6 1.1 0.6 0.6 0.8 1.3 0.3 0.7 0.3 1.5zm-3.7-2.4q-0.4 0-0.9 0.2-0.4 0.1-0.7 0.5-0.3 0.3-0.5 0.7-0.2 0.5-0.2 1 0 0.4 0.2 0.9 0.2 0.4 0.5 0.8 0.3 0.3 0.7 0.5 0.5 0.2 0.9 0.2 0.5 0 0.9-0.2 0.5-0.2 0.8-0.5 0.3-0.4 0.5-0.8 0.2-0.4 0.2-0.9 0-0.5-0.2-1-0.2-0.4-0.5-0.7-0.3-0.4-0.8-0.5-0.4-0.2-0.9-0.2z"/><path  d="m207.9 303.3q0 0.3-0.2 0.5-0.2 0.2-0.5 0.2-0.2 0-0.4-0.2-0.2-0.2-0.2-0.5v-9.6q0-0.3 0.2-0.5 0.2-0.2 0.4-0.2 0.3 0 0.5 0.2 0.2 0.2 0.2 0.5v3.3q0.9-0.7 2.1-0.7 0.7 0 1.3 0.3 0.6 0.3 1.1 0.8 0.5 0.4 0.7 1.1 0.3 0.7 0.3 1.4v3.4q0 0.3-0.2 0.5-0.2 0.2-0.5 0.2-0.3 0-0.4-0.2-0.2-0.2-0.3-0.5v-3.4q0-0.4-0.1-0.8-0.2-0.4-0.5-0.7-0.2-0.3-0.6-0.5-0.4-0.1-0.8-0.1-0.4 0-0.8 0.1-0.4 0.2-0.7 0.5-0.2 0.3-0.4 0.7-0.2 0.4-0.2 0.8v3.4z"/><path  d="m220 303.3v-0.2q-0.5 0.5-1.1 0.7-0.5 0.2-1.2 0.2-1.5 0-2.6-1.1-1.1-1.2-1.1-2.8 0-1.5 1.1-2.7 1.1-1.1 2.6-1.1 1.5 0 2.6 1.1 1.1 1.2 1.1 2.7v3.2q0 0.3-0.2 0.5-0.2 0.2-0.5 0.2-0.3 0-0.5-0.2-0.2-0.2-0.2-0.5zm-2.3-5.6q-0.5 0-0.9 0.2-0.4 0.2-0.7 0.5-0.3 0.4-0.5 0.8-0.2 0.4-0.2 0.9 0 0.5 0.2 1 0.1 0.4 0.5 0.7 0.3 0.3 0.7 0.5 0.4 0.2 0.9 0.2 0.5 0 0.9-0.2 0.4-0.2 0.7-0.5 0.3-0.3 0.5-0.7 0.2-0.5 0.2-1 0-0.5-0.2-0.9-0.1-0.4-0.5-0.8-0.3-0.3-0.7-0.5-0.4-0.2-0.9-0.2z"/><path  d="m226.2 300.9q-0.3 0-0.5-0.2-0.2-0.2-0.2-0.5 0-0.3 0.2-0.6 0.2-0.2 0.5-0.2h3q0.3 0 0.5 0.2 0.1 0.2 0.1 0.6 0 0.3-0.1 0.5-0.2 0.2-0.5 0.2z"/><path  d="m242.3 302.9q-0.7 0.5-1.5 0.8-0.7 0.3-1.7 0.3-2.2 0-3.7-1.6-1.5-1.6-1.5-3.9 0-2.3 1.5-3.9 1.6-1.6 3.7-1.6 2.2 0 3.7 1.6 0.8 0.8 1.2 1.8 0.4 1 0.4 2.1 0 1-0.3 1.8-0.3 0.8-0.8 1.6l0.9 0.9q0.2 0.2 0.2 0.5 0 0.1-0.1 0.3 0 0.1-0.1 0.2-0.1 0.1-0.3 0.1-0.1 0.1-0.2 0.1-0.3 0-0.5-0.2l-0.9-0.9zm-1.9-2q-0.2-0.3-0.2-0.5 0-0.2 0-0.3 0.1-0.2 0.2-0.3 0.1-0.1 0.2-0.1 0.1-0.1 0.3-0.1 0.3 0 0.5 0.2l0.9 1q0.7-1 0.7-2.3 0-1.6-1.1-2.8-1.2-1.2-2.8-1.2-0.8 0-1.5 0.3-0.6 0.3-1.2 0.9-0.6 0.5-0.9 1.2-0.2 0.8-0.2 1.6 0 1.7 1.1 2.8 1.1 1.2 2.7 1.2 1.3 0 2.2-0.7l-0.9-0.9z"/><path  d="m251 303.3v-0.2q-0.5 0.5-1.1 0.7-0.5 0.2-1.2 0.2-1.5 0-2.6-1.1-1.1-1.2-1.1-2.8 0-1.5 1.1-2.7 1.1-1.1 2.6-1.1 1.5 0 2.6 1.1 1.1 1.2 1.1 2.7v3.2q0 0.3-0.2 0.5-0.2 0.2-0.5 0.2-0.3 0-0.5-0.2-0.2-0.2-0.2-0.5zm-2.3-5.6q-0.5 0-0.9 0.2-0.4 0.2-0.7 0.5-0.3 0.4-0.5 0.8-0.2 0.4-0.2 0.9 0 0.5 0.2 1 0.1 0.4 0.5 0.7 0.3 0.3 0.7 0.5 0.4 0.2 0.9 0.2 0.5 0 0.9-0.2 0.4-0.2 0.7-0.5 0.3-0.3 0.5-0.7 0.2-0.5 0.2-1 0-0.5-0.2-0.9-0.1-0.4-0.5-0.8-0.3-0.3-0.7-0.5-0.4-0.2-0.9-0.2z"/><path  d="m253.7 296.3h0.3v-2.6q0-0.3 0.2-0.5 0.2-0.2 0.5-0.2 0.3 0 0.4 0.2 0.2 0.2 0.3 0.5v2.6h0.8q0.3 0 0.5 0.2 0.1 0.2 0.1 0.5 0 0.3-0.1 0.5-0.2 0.3-0.5 0.3h-0.8v3.4q0 1.4 1.3 1.4 0.3 0 0.4 0.2 0.2 0.2 0.2 0.5 0 0.3-0.2 0.5-0.1 0.2-0.4 0.2-2.7 0-2.7-2.8v-3.4h-0.3q-0.3-0.1-0.5-0.3-0.2-0.2-0.2-0.5 0-0.3 0.2-0.5 0.2-0.2 0.5-0.2z"/><path  d="m263.4 303.3v-0.2q-0.4 0.5-1 0.7-0.6 0.2-1.3 0.2-1.5 0-2.6-1.1-1-1.2-1-2.8 0-1.5 1-2.7 1.1-1.1 2.6-1.1 1.5 0 2.6 1.1 1.1 1.2 1.1 2.7v3.2q0 0.3-0.2 0.5-0.2 0.2-0.5 0.2-0.3 0-0.4-0.2-0.3-0.2-0.3-0.5zm-2.3-5.6q-0.4 0-0.9 0.2-0.4 0.2-0.7 0.5-0.3 0.4-0.5 0.8-0.2 0.4-0.2 0.9 0 0.5 0.2 1 0.2 0.4 0.5 0.7 0.3 0.3 0.7 0.5 0.5 0.2 0.9 0.2 0.5 0 0.9-0.2 0.5-0.2 0.8-0.5 0.3-0.3 0.5-0.7 0.1-0.5 0.1-1 0-0.5-0.1-0.9-0.2-0.4-0.5-0.8-0.3-0.3-0.8-0.5-0.4-0.2-0.9-0.2z"/><path  d="m266.8 297v0.2q0.5-0.5 1.1-0.7 0.5-0.2 1.2-0.2 0.3 0 0.6 0.1 0.4 0 0.6 0.1 0.3 0.1 0.5 0.3 0.2 0.2 0.2 0.5 0 0.1-0.1 0.2 0 0.2-0.1 0.3-0.1 0.1-0.2 0.1-0.2 0.1-0.3 0.1-0.1 0-0.3-0.1-0.4-0.2-0.9-0.2c-0.3 0-0.6 0.1-0.9 0.2q-0.4 0.2-0.7 0.5-0.3 0.4-0.5 0.8-0.2 0.4-0.2 0.9v3.2q0 0.3-0.2 0.5-0.2 0.2-0.5 0.2-0.3 0-0.5-0.2-0.2-0.2-0.2-0.5v-6.3q0-0.3 0.2-0.5 0.2-0.2 0.5-0.2 0.3 0 0.5 0.2 0.2 0.2 0.2 0.5z"/><path fill-rule="evenodd" class="a" d="m277 289v19h-92v-19z"/></svg>