<svg width="402" height="402" viewBox="0 0 402 402" fill="none" xmlns="http://www.w3.org/2000/svg">
<path d="M143.891 245.2H141.23V253.852C141.23 254.044 141.166 254.224 141.025 254.353C140.883 254.482 140.716 254.559 140.523 254.559C140.331 254.559 140.151 254.494 140.022 254.353C139.893 254.212 139.816 254.044 139.816 253.852V245.2H137.143C136.95 245.2 136.77 245.136 136.641 244.995C136.513 244.853 136.436 244.686 136.436 244.493C136.436 244.3 136.5 244.121 136.641 243.992C136.783 243.863 136.95 243.786 137.143 243.786H143.904C144.097 243.786 144.277 243.851 144.406 243.992C144.534 244.133 144.611 244.3 144.611 244.493C144.611 244.686 144.547 244.866 144.406 244.995C144.264 245.123 144.097 245.2 143.904 245.2H143.891Z" fill="black"/>
<path d="M146.49 253.865C146.49 254.058 146.426 254.238 146.285 254.367C146.143 254.508 145.976 254.572 145.783 254.572C145.59 254.572 145.423 254.508 145.282 254.367C145.14 254.225 145.076 254.058 145.076 253.865V244.481C145.076 244.289 145.14 244.121 145.282 243.98C145.423 243.839 145.59 243.774 145.783 243.774C145.976 243.774 146.143 243.839 146.285 243.98C146.426 244.121 146.49 244.289 146.503 244.481V247.721C147.107 247.258 147.801 247.027 148.611 247.027C149.087 247.027 149.537 247.117 149.961 247.309C150.385 247.502 150.758 247.747 151.092 248.055C151.414 248.376 151.671 248.749 151.864 249.173C152.056 249.598 152.146 250.06 152.146 250.549V253.865C152.146 254.058 152.069 254.238 151.928 254.367C151.786 254.508 151.619 254.572 151.426 254.572C151.234 254.572 151.067 254.508 150.925 254.367C150.784 254.225 150.719 254.058 150.719 253.865V250.549C150.719 250.266 150.668 249.983 150.552 249.726C150.437 249.469 150.282 249.251 150.102 249.058C149.91 248.865 149.691 248.711 149.434 248.608C149.177 248.492 148.907 248.441 148.611 248.441C148.316 248.441 148.046 248.492 147.789 248.608C147.531 248.723 147.313 248.865 147.12 249.058C146.927 249.251 146.773 249.482 146.67 249.739C146.567 249.996 146.503 250.266 146.503 250.562V253.878L146.49 253.865Z" fill="black"/>
<path d="M158.416 252.451C158.622 252.451 158.789 252.515 158.917 252.643C159.046 252.772 159.123 252.939 159.123 253.145C159.123 253.35 159.059 253.518 158.917 253.646C158.223 254.263 157.401 254.559 156.449 254.559C155.408 254.559 154.508 254.186 153.775 253.453C153.03 252.721 152.67 251.821 152.67 250.779C152.67 249.738 153.043 248.838 153.775 248.106C154.508 247.373 155.408 247 156.449 247C157.49 247 158.377 247.373 159.123 248.106C159.496 248.466 159.766 248.877 159.959 249.327C160.139 249.777 160.229 250.265 160.229 250.779C160.229 250.985 160.164 251.152 160.023 251.281C159.881 251.409 159.714 251.486 159.522 251.486H154.174C154.251 251.731 154.367 251.962 154.508 252.168C154.65 252.373 154.83 252.553 155.035 252.695C155.241 252.836 155.459 252.952 155.691 253.042C155.935 253.119 156.179 253.158 156.449 253.158C156.745 253.158 157.015 253.106 157.272 253.016C157.516 252.926 157.748 252.798 157.966 252.605C158.108 252.489 158.262 252.438 158.429 252.425L158.416 252.451ZM158.725 250.085C158.647 249.841 158.532 249.61 158.377 249.404C158.223 249.198 158.056 249.018 157.85 248.877C157.645 248.736 157.426 248.62 157.195 248.53C156.951 248.453 156.706 248.414 156.449 248.414C156.192 248.414 155.948 248.453 155.704 248.53C155.459 248.607 155.241 248.723 155.035 248.877C154.83 249.031 154.662 249.198 154.508 249.404C154.354 249.61 154.251 249.828 154.174 250.085H158.725Z" fill="black"/>
<path d="M167.068 243.774C167.454 243.774 167.814 243.851 168.148 243.993C168.482 244.134 168.791 244.34 169.035 244.597C169.279 244.854 169.485 245.15 169.639 245.484C169.78 245.818 169.857 246.178 169.857 246.564C169.857 247.245 169.652 247.849 169.228 248.351C169.498 248.518 169.742 248.698 169.947 248.916C170.153 249.135 170.333 249.353 170.475 249.61C170.616 249.868 170.719 250.125 170.796 250.395C170.873 250.665 170.899 250.96 170.899 251.243C170.899 251.693 170.809 252.13 170.629 252.528C170.449 252.927 170.217 253.287 169.922 253.583C169.626 253.878 169.266 254.122 168.868 254.302C168.469 254.482 168.032 254.572 167.582 254.572H164.973C164.87 254.572 164.78 254.56 164.703 254.521C164.613 254.482 164.536 254.431 164.471 254.367C164.407 254.302 164.356 254.225 164.317 254.135C164.278 254.045 164.266 253.955 164.266 253.853V244.481C164.266 244.379 164.278 244.289 164.317 244.199C164.356 244.109 164.407 244.031 164.471 243.967C164.536 243.903 164.613 243.851 164.703 243.813C164.793 243.774 164.883 243.761 164.973 243.761H167.055L167.068 243.774ZM165.693 245.201V247.939H167.068C167.261 247.939 167.441 247.901 167.595 247.836C167.762 247.759 167.904 247.669 168.032 247.541C168.161 247.412 168.251 247.271 168.328 247.104C168.405 246.937 168.431 246.77 168.431 246.577C168.431 246.384 168.392 246.217 168.328 246.05C168.263 245.883 168.161 245.741 168.032 245.613C167.904 245.484 167.762 245.394 167.595 245.317C167.428 245.24 167.261 245.214 167.068 245.214H165.693V245.201ZM165.693 249.366V253.146H167.582C167.839 253.146 168.084 253.094 168.315 252.991C168.546 252.888 168.739 252.76 168.906 252.593C169.073 252.426 169.215 252.22 169.305 251.989C169.395 251.757 169.459 251.513 169.459 251.256C169.459 250.999 169.408 250.755 169.305 250.523C169.202 250.292 169.073 250.099 168.893 249.919C168.726 249.752 168.521 249.61 168.289 249.508C168.058 249.405 167.814 249.353 167.556 249.353H165.667L165.693 249.366Z" fill="black"/>
<path d="M177.684 254.572C177.479 254.572 177.311 254.507 177.183 254.366C177.054 254.225 176.99 254.07 176.977 253.878C176.669 254.122 176.335 254.302 175.987 254.405C175.64 254.507 175.268 254.572 174.856 254.572C174.368 254.572 173.918 254.482 173.494 254.289C173.069 254.096 172.697 253.852 172.375 253.53C172.054 253.209 171.797 252.836 171.617 252.412C171.424 251.988 171.334 251.525 171.334 251.049V247.72C171.334 247.527 171.398 247.36 171.54 247.219C171.681 247.077 171.848 247.013 172.041 247.013C172.234 247.013 172.401 247.077 172.542 247.219C172.684 247.36 172.748 247.527 172.748 247.72V251.049C172.748 251.345 172.799 251.615 172.915 251.872C173.031 252.129 173.172 252.348 173.365 252.541C173.558 252.733 173.776 252.888 174.034 252.991C174.291 253.106 174.561 253.158 174.856 253.158C175.152 253.158 175.422 253.106 175.679 252.991C175.936 252.875 176.167 252.733 176.36 252.541C176.553 252.348 176.707 252.116 176.81 251.872C176.926 251.615 176.977 251.345 176.977 251.049V247.72C176.977 247.527 177.042 247.36 177.183 247.219C177.324 247.077 177.491 247.013 177.684 247.013C177.877 247.013 178.044 247.077 178.186 247.219C178.327 247.36 178.391 247.527 178.391 247.72V253.878C178.391 254.07 178.327 254.237 178.186 254.379C178.044 254.52 177.877 254.585 177.684 254.585V254.572Z" fill="black"/>
<path d="M180.309 250.972C179.885 250.805 179.59 250.638 179.422 250.471C179.075 250.124 178.908 249.713 178.908 249.25C178.908 248.903 178.998 248.594 179.178 248.324C179.358 248.041 179.602 247.81 179.885 247.617C180.181 247.424 180.502 247.27 180.875 247.167C181.248 247.064 181.608 247.013 181.981 247.013C183.112 247.013 184.076 247.463 184.873 248.376C184.963 248.491 185.014 248.633 185.014 248.8C185.014 249.006 184.95 249.173 184.809 249.301C184.667 249.43 184.513 249.507 184.307 249.507C184.166 249.507 184.037 249.468 183.934 249.391C183.832 249.314 183.729 249.224 183.639 249.121C183.176 248.658 182.623 248.427 181.968 248.427C181.312 248.427 180.798 248.62 180.412 249.018C180.335 249.096 180.309 249.185 180.309 249.314C180.309 249.443 180.361 249.52 180.489 249.571L183.652 250.612C184.089 250.779 184.384 250.947 184.539 251.114C184.886 251.461 185.053 251.872 185.053 252.335C185.053 252.682 184.963 252.991 184.783 253.26C184.603 253.53 184.359 253.775 184.076 253.967C183.793 254.16 183.459 254.315 183.086 254.417C182.726 254.52 182.353 254.572 181.981 254.572C180.849 254.572 179.885 254.122 179.088 253.235C178.985 253.106 178.934 252.952 178.934 252.798C178.934 252.592 178.998 252.425 179.14 252.296C179.281 252.168 179.435 252.091 179.641 252.091C179.795 252.091 179.911 252.129 180.014 252.219C180.117 252.309 180.207 252.386 180.297 252.476C180.759 252.939 181.312 253.17 181.981 253.17C182.649 253.17 183.137 252.965 183.536 252.566C183.6 252.489 183.639 252.399 183.639 252.283C183.639 252.155 183.575 252.065 183.459 252.014L180.309 250.972Z" fill="black"/>
<path d="M187.47 245.664C187.47 245.895 187.393 246.088 187.226 246.255C187.059 246.422 186.866 246.499 186.634 246.499C186.403 246.499 186.21 246.422 186.043 246.255C185.876 246.088 185.799 245.895 185.799 245.664C185.799 245.432 185.876 245.24 186.043 245.072C186.21 244.905 186.403 244.828 186.634 244.828C186.866 244.828 187.059 244.905 187.226 245.072C187.393 245.24 187.47 245.432 187.47 245.664ZM185.94 253.865V247.721C185.94 247.528 186.005 247.361 186.146 247.219C186.287 247.078 186.454 247.013 186.647 247.013C186.84 247.013 187.007 247.078 187.149 247.219C187.29 247.361 187.354 247.528 187.367 247.721V253.865C187.367 254.058 187.29 254.238 187.149 254.366C187.007 254.508 186.84 254.572 186.647 254.572C186.454 254.572 186.287 254.508 186.146 254.366C186.005 254.225 185.94 254.058 185.94 253.865Z" fill="black"/>
<path d="M189.68 247.707C190.285 247.244 190.979 247.013 191.789 247.013C192.264 247.013 192.714 247.103 193.138 247.296C193.563 247.489 193.935 247.733 194.27 248.054C194.591 248.376 194.848 248.748 195.041 249.173C195.234 249.597 195.324 250.06 195.324 250.548V253.878C195.324 254.07 195.259 254.25 195.118 254.379C194.977 254.52 194.81 254.585 194.617 254.585C194.424 254.585 194.257 254.52 194.115 254.379C193.974 254.237 193.91 254.07 193.91 253.878V250.548C193.91 250.265 193.858 249.982 193.743 249.725C193.627 249.468 193.473 249.25 193.293 249.057C193.1 248.864 192.881 248.71 192.624 248.607C192.367 248.491 192.097 248.44 191.802 248.44C191.506 248.44 191.236 248.491 190.979 248.607C190.722 248.723 190.503 248.864 190.31 249.057C190.118 249.25 189.963 249.481 189.86 249.738C189.745 249.995 189.693 250.265 189.693 250.561V253.89C189.693 254.083 189.629 254.263 189.488 254.392C189.346 254.533 189.179 254.597 188.986 254.597C188.793 254.597 188.614 254.533 188.485 254.392C188.356 254.25 188.279 254.083 188.279 253.89V247.746C188.279 247.553 188.344 247.386 188.485 247.244C188.626 247.103 188.793 247.039 188.986 247.039C189.179 247.039 189.346 247.103 189.488 247.244C189.629 247.386 189.693 247.54 189.693 247.733L189.68 247.707Z" fill="black"/>
<path d="M201.607 252.451C201.813 252.451 201.98 252.515 202.109 252.643C202.237 252.772 202.314 252.939 202.314 253.145C202.314 253.35 202.25 253.518 202.109 253.646C201.415 254.263 200.592 254.559 199.641 254.559C198.599 254.559 197.7 254.186 196.967 253.453C196.221 252.721 195.861 251.821 195.861 250.779C195.861 249.738 196.234 248.838 196.967 248.106C197.7 247.373 198.599 247 199.641 247C200.682 247 201.569 247.373 202.314 248.106C202.687 248.466 202.957 248.877 203.15 249.327C203.33 249.777 203.42 250.265 203.42 250.779C203.42 250.985 203.356 251.152 203.214 251.281C203.073 251.409 202.906 251.486 202.713 251.486H197.365C197.442 251.731 197.558 251.962 197.7 252.168C197.841 252.373 198.021 252.553 198.227 252.695C198.432 252.836 198.651 252.952 198.882 253.042C199.126 253.119 199.371 253.158 199.641 253.158C199.936 253.158 200.206 253.106 200.463 253.016C200.708 252.926 200.939 252.798 201.158 252.605C201.299 252.489 201.453 252.438 201.62 252.425L201.607 252.451ZM201.903 250.085C201.826 249.841 201.71 249.61 201.556 249.404C201.402 249.198 201.235 249.018 201.029 248.877C200.823 248.736 200.605 248.62 200.373 248.53C200.129 248.453 199.885 248.414 199.628 248.414C199.371 248.414 199.126 248.453 198.882 248.53C198.638 248.607 198.419 248.723 198.214 248.877C198.008 249.031 197.841 249.198 197.687 249.404C197.532 249.61 197.43 249.828 197.352 250.085H201.903Z" fill="black"/>
<path d="M205.35 250.972C204.926 250.805 204.631 250.638 204.463 250.471C204.116 250.124 203.949 249.713 203.949 249.25C203.949 248.903 204.039 248.594 204.219 248.324C204.399 248.041 204.643 247.81 204.926 247.617C205.222 247.424 205.543 247.27 205.916 247.167C206.289 247.064 206.649 247.013 207.022 247.013C208.153 247.013 209.117 247.463 209.914 248.376C210.004 248.491 210.055 248.633 210.055 248.8C210.055 249.006 209.991 249.173 209.85 249.301C209.708 249.43 209.554 249.507 209.348 249.507C209.207 249.507 209.078 249.468 208.975 249.391C208.873 249.314 208.77 249.224 208.68 249.121C208.217 248.658 207.664 248.427 207.009 248.427C206.353 248.427 205.839 248.62 205.453 249.018C205.376 249.096 205.35 249.185 205.35 249.314C205.35 249.443 205.402 249.52 205.53 249.571L208.693 250.612C209.13 250.779 209.425 250.947 209.58 251.114C209.927 251.461 210.094 251.872 210.094 252.335C210.094 252.682 210.004 252.991 209.824 253.26C209.644 253.53 209.4 253.775 209.117 253.967C208.834 254.16 208.5 254.315 208.127 254.417C207.767 254.52 207.394 254.572 207.022 254.572C205.89 254.572 204.926 254.122 204.129 253.235C204.026 253.106 203.975 252.952 203.975 252.798C203.975 252.592 204.039 252.425 204.181 252.296C204.322 252.168 204.476 252.091 204.682 252.091C204.836 252.091 204.952 252.129 205.055 252.219C205.158 252.309 205.248 252.386 205.338 252.476C205.8 252.939 206.353 253.17 207.022 253.17C207.69 253.17 208.178 252.965 208.577 252.566C208.641 252.489 208.68 252.399 208.68 252.283C208.68 252.155 208.616 252.065 208.5 252.014L205.35 250.972Z" fill="black"/>
<path d="M211.983 250.972C211.559 250.805 211.263 250.638 211.096 250.471C210.749 250.124 210.582 249.713 210.582 249.25C210.582 248.903 210.672 248.594 210.852 248.324C211.032 248.041 211.276 247.81 211.559 247.617C211.855 247.424 212.176 247.27 212.549 247.167C212.922 247.064 213.282 247.013 213.654 247.013C214.786 247.013 215.75 247.463 216.547 248.376C216.637 248.491 216.688 248.633 216.688 248.8C216.688 249.006 216.624 249.173 216.482 249.301C216.341 249.43 216.187 249.507 215.981 249.507C215.84 249.507 215.711 249.468 215.608 249.391C215.505 249.314 215.403 249.224 215.313 249.121C214.85 248.658 214.297 248.427 213.641 248.427C212.986 248.427 212.472 248.62 212.086 249.018C212.009 249.096 211.983 249.185 211.983 249.314C211.983 249.443 212.035 249.52 212.163 249.571L215.325 250.612C215.763 250.779 216.058 250.947 216.212 251.114C216.56 251.461 216.727 251.872 216.727 252.335C216.727 252.682 216.637 252.991 216.457 253.26C216.277 253.53 216.032 253.775 215.75 253.967C215.467 254.16 215.133 254.315 214.76 254.417C214.4 254.52 214.027 254.572 213.654 254.572C212.523 254.572 211.559 254.122 210.762 253.235C210.659 253.106 210.608 252.952 210.608 252.798C210.608 252.592 210.672 252.425 210.813 252.296C210.955 252.168 211.109 252.091 211.315 252.091C211.469 252.091 211.585 252.129 211.688 252.219C211.79 252.309 211.88 252.386 211.97 252.476C212.433 252.939 212.986 253.17 213.654 253.17C214.323 253.17 214.811 252.965 215.21 252.566C215.274 252.489 215.313 252.399 215.313 252.283C215.313 252.155 215.248 252.065 215.133 252.014L211.983 250.972Z" fill="black"/>
<path d="M229.055 252.142C229.158 252.142 229.248 252.168 229.338 252.193C229.428 252.232 229.492 252.283 229.569 252.348C229.646 252.412 229.685 252.489 229.724 252.579C229.762 252.669 229.775 252.759 229.775 252.862C229.775 253.055 229.698 253.222 229.556 253.376C228.554 254.173 227.422 254.584 226.163 254.584C224.672 254.584 223.399 254.057 222.345 253.003C221.291 251.949 220.764 250.676 220.764 249.185C220.764 247.694 221.291 246.422 222.345 245.367C223.399 244.313 224.672 243.786 226.163 243.786C227.435 243.786 228.592 244.211 229.634 245.046C229.762 245.162 229.826 245.329 229.826 245.535C229.826 245.637 229.813 245.727 229.775 245.817C229.736 245.907 229.685 245.972 229.621 246.049C229.556 246.126 229.479 246.164 229.389 246.203C229.299 246.242 229.209 246.254 229.106 246.254C228.927 246.254 228.772 246.19 228.618 246.049C228.271 245.779 227.898 245.573 227.487 245.432C227.075 245.29 226.638 245.213 226.176 245.213C225.083 245.213 224.145 245.599 223.36 246.383C222.576 247.167 222.203 248.093 222.203 249.185C222.203 250.278 222.589 251.229 223.36 251.988C224.132 252.746 225.07 253.145 226.176 253.145C227.114 253.145 227.95 252.849 228.657 252.271C228.772 252.193 228.914 252.142 229.081 252.142H229.055Z" fill="black"/>
<path d="M230.159 253.878V244.481C230.159 244.289 230.224 244.121 230.352 243.98C230.481 243.839 230.648 243.774 230.854 243.774C231.059 243.774 231.226 243.839 231.355 243.98C231.483 244.121 231.548 244.289 231.548 244.481V253.171H231.869C232.062 253.171 232.229 253.236 232.37 253.377C232.512 253.518 232.576 253.685 232.576 253.878C232.576 254.071 232.512 254.238 232.37 254.38C232.229 254.521 232.062 254.585 231.869 254.585H230.841C230.648 254.585 230.481 254.521 230.352 254.38C230.224 254.238 230.146 254.071 230.146 253.878H230.159Z" fill="black"/>
<path d="M240.508 250.792C240.508 251.846 240.135 252.733 239.402 253.466C238.657 254.199 237.77 254.572 236.729 254.572C235.687 254.572 234.787 254.199 234.055 253.466C233.309 252.733 232.949 251.834 232.949 250.792C232.949 249.751 233.322 248.851 234.055 248.119C234.787 247.386 235.687 247.013 236.729 247.013C237.77 247.013 238.657 247.386 239.402 248.119C239.775 248.491 240.045 248.89 240.225 249.34C240.405 249.79 240.495 250.265 240.508 250.792ZM236.729 248.427C236.394 248.427 236.086 248.491 235.79 248.62C235.507 248.748 235.25 248.916 235.045 249.134C234.839 249.353 234.672 249.597 234.543 249.893C234.415 250.175 234.363 250.484 234.363 250.805C234.363 251.127 234.428 251.435 234.543 251.718C234.672 252.001 234.839 252.258 235.045 252.476C235.263 252.695 235.507 252.862 235.79 252.991C236.073 253.119 236.394 253.183 236.729 253.183C237.063 253.183 237.371 253.119 237.654 252.991C237.937 252.862 238.194 252.695 238.4 252.476C238.618 252.258 238.785 252.014 238.901 251.731C239.03 251.448 239.081 251.139 239.081 250.818C239.081 250.497 239.017 250.188 238.901 249.905C238.772 249.623 238.605 249.365 238.4 249.147C238.181 248.928 237.937 248.761 237.654 248.633C237.371 248.504 237.063 248.44 236.729 248.44V248.427Z" fill="black"/>
<path d="M246.82 252.438C247.025 252.438 247.192 252.502 247.321 252.631C247.449 252.759 247.527 252.926 247.527 253.132C247.527 253.338 247.449 253.505 247.308 253.646C246.614 254.263 245.791 254.559 244.84 254.559C243.799 254.559 242.899 254.186 242.166 253.453C241.433 252.721 241.061 251.821 241.061 250.779C241.061 249.738 241.433 248.838 242.166 248.106C242.899 247.373 243.799 247 244.84 247C245.791 247 246.614 247.309 247.308 247.913C247.475 248.054 247.552 248.234 247.552 248.453C247.552 248.671 247.488 248.825 247.347 248.954C247.218 249.095 247.051 249.16 246.845 249.16C246.678 249.16 246.524 249.108 246.382 248.993C246.151 248.8 245.907 248.658 245.663 248.556C245.418 248.453 245.136 248.401 244.84 248.401C244.506 248.401 244.197 248.466 243.914 248.581C243.632 248.71 243.374 248.877 243.156 249.083C242.937 249.301 242.77 249.545 242.642 249.841C242.513 250.124 242.462 250.432 242.462 250.767C242.462 251.101 242.526 251.409 242.642 251.692C242.77 251.975 242.937 252.232 243.156 252.438C243.374 252.656 243.619 252.823 243.914 252.939C244.197 253.068 244.506 253.119 244.84 253.119C245.136 253.119 245.406 253.068 245.663 252.978C245.92 252.888 246.151 252.733 246.382 252.541C246.511 252.451 246.652 252.399 246.832 252.386L246.82 252.438Z" fill="black"/>
<path d="M248.095 253.865V244.481C248.095 244.289 248.159 244.121 248.301 243.98C248.442 243.839 248.609 243.774 248.802 243.774C248.995 243.774 249.162 243.839 249.303 243.98C249.445 244.121 249.509 244.289 249.509 244.481V249.752L253.545 247.129C253.661 247.052 253.79 247.027 253.918 247.027C254.021 247.027 254.111 247.039 254.188 247.078C254.278 247.117 254.342 247.168 254.407 247.232C254.471 247.297 254.522 247.374 254.561 247.464C254.599 247.554 254.612 247.644 254.612 247.734C254.612 247.991 254.522 248.171 254.342 248.299L251.514 250.138L254.419 253.403C254.548 253.544 254.612 253.711 254.612 253.891C254.612 253.981 254.587 254.071 254.561 254.161C254.522 254.251 254.471 254.315 254.407 254.392C254.342 254.47 254.265 254.508 254.188 254.547C254.111 254.585 254.008 254.598 253.918 254.598C253.725 254.598 253.571 254.534 253.442 254.418L250.319 250.909L249.496 251.449V253.891C249.496 254.084 249.432 254.251 249.29 254.392C249.149 254.534 248.982 254.598 248.789 254.598C248.596 254.598 248.429 254.534 248.288 254.392C248.146 254.251 248.082 254.084 248.082 253.891L248.095 253.865Z" fill="black"/>
<path d="M176.644 203.997V203.753C176.027 204.255 175.345 204.627 174.613 204.897C173.88 205.167 173.096 205.296 172.273 205.296C170.345 205.296 168.699 204.614 167.337 203.252C165.974 201.889 165.293 200.244 165.293 198.316C165.293 196.387 165.974 194.742 167.337 193.379C168.699 192.017 170.345 191.335 172.273 191.335C174.201 191.335 175.834 192.017 177.209 193.379C178.572 194.742 179.253 196.387 179.253 198.316V203.997C179.253 204.357 179.125 204.666 178.868 204.91C178.611 205.154 178.315 205.296 177.955 205.296C177.595 205.296 177.274 205.167 177.029 204.91C176.785 204.653 176.644 204.357 176.644 203.997ZM172.273 193.932C171.656 193.932 171.091 194.048 170.551 194.279C170.024 194.511 169.561 194.832 169.162 195.218C168.764 195.603 168.468 196.079 168.237 196.606C168.005 197.133 167.89 197.699 167.89 198.303C167.89 198.907 168.005 199.46 168.237 200C168.468 200.539 168.777 200.989 169.162 201.388C169.548 201.786 170.011 202.095 170.551 202.326C171.078 202.558 171.656 202.673 172.273 202.673C172.89 202.673 173.443 202.558 173.983 202.326C174.51 202.095 174.973 201.774 175.371 201.375C175.77 200.977 176.078 200.514 176.31 199.987C176.541 199.46 176.657 198.894 176.657 198.303C176.657 197.711 176.541 197.146 176.31 196.619C176.078 196.092 175.77 195.629 175.371 195.23C174.973 194.832 174.51 194.511 173.983 194.279C173.456 194.048 172.877 193.932 172.273 193.932Z" fill="black"/>
<path d="M184.934 192.633V205.218C184.934 206.041 184.779 206.825 184.458 207.545C184.137 208.278 183.699 208.92 183.16 209.46C182.62 210 181.977 210.437 181.244 210.759C180.511 211.08 179.74 211.234 178.917 211.234C178.545 211.234 178.236 211.106 177.992 210.861C177.748 210.617 177.619 210.296 177.619 209.923C177.619 209.55 177.748 209.242 177.992 208.997C178.236 208.753 178.545 208.625 178.917 208.625C179.393 208.625 179.83 208.535 180.254 208.355C180.666 208.175 181.039 207.93 181.347 207.622C181.656 207.313 181.9 206.941 182.093 206.529C182.285 206.118 182.363 205.668 182.363 205.192V192.608C182.363 192.235 182.491 191.926 182.735 191.682C182.98 191.438 183.288 191.296 183.648 191.296C184.008 191.296 184.317 191.425 184.561 191.682C184.805 191.939 184.946 192.248 184.946 192.608L184.934 192.633ZM185.165 188.854C185.165 189.278 185.011 189.638 184.715 189.934C184.419 190.229 184.059 190.384 183.635 190.384C183.211 190.384 182.851 190.229 182.555 189.934C182.26 189.638 182.105 189.278 182.105 188.854C182.105 188.43 182.26 188.07 182.555 187.774C182.851 187.478 183.211 187.324 183.635 187.324C184.059 187.324 184.419 187.478 184.715 187.774C185.011 188.07 185.165 188.43 185.165 188.854Z" fill="black"/>
<path d="M189.433 192.621C190.539 191.76 191.837 191.335 193.341 191.335C194.215 191.335 195.038 191.503 195.822 191.85C196.606 192.197 197.301 192.659 197.892 193.238C198.483 193.829 198.959 194.511 199.319 195.308C199.679 196.105 199.846 196.94 199.846 197.84V203.985C199.846 204.357 199.717 204.666 199.46 204.91C199.203 205.154 198.907 205.296 198.548 205.296C198.188 205.296 197.866 205.167 197.622 204.91C197.378 204.653 197.236 204.345 197.236 203.985V197.84C197.236 197.313 197.133 196.812 196.928 196.336C196.722 195.86 196.439 195.449 196.092 195.102C195.745 194.742 195.321 194.472 194.858 194.266C194.383 194.061 193.881 193.958 193.354 193.958C192.827 193.958 192.313 194.061 191.837 194.266C191.362 194.472 190.95 194.755 190.603 195.102C190.243 195.462 189.96 195.873 189.768 196.349C189.562 196.824 189.459 197.326 189.459 197.853V203.997C189.459 204.37 189.331 204.679 189.073 204.923C188.816 205.167 188.521 205.309 188.161 205.309C187.801 205.309 187.479 205.18 187.235 204.923C186.991 204.666 186.85 204.357 186.85 203.997V192.659C186.85 192.3 186.978 191.991 187.235 191.734C187.492 191.477 187.801 191.348 188.161 191.348C188.521 191.348 188.829 191.477 189.073 191.734C189.318 191.991 189.459 192.287 189.459 192.634L189.433 192.621Z" fill="black"/>
<path d="M212.419 201.362C212.792 201.362 213.1 201.491 213.344 201.735C213.589 201.979 213.717 202.288 213.717 202.661C213.717 203.033 213.589 203.342 213.344 203.599C212.059 204.73 210.529 205.296 208.781 205.296C206.853 205.296 205.207 204.614 203.845 203.252C202.482 201.889 201.801 200.244 201.801 198.316C201.801 196.387 202.482 194.742 203.845 193.379C205.207 192.017 206.853 191.335 208.781 191.335C210.709 191.335 212.342 192.017 213.717 193.379C214.399 194.048 214.913 194.806 215.247 195.629C215.594 196.452 215.761 197.351 215.761 198.316C215.761 198.688 215.633 198.997 215.375 199.241C215.118 199.485 214.81 199.614 214.45 199.614H204.577C204.719 200.077 204.925 200.488 205.194 200.861C205.464 201.234 205.786 201.568 206.159 201.838C206.531 202.108 206.93 202.313 207.38 202.468C207.83 202.622 208.292 202.686 208.768 202.686C209.321 202.686 209.822 202.609 210.272 202.442C210.735 202.275 211.159 202.031 211.545 201.696C211.789 201.491 212.085 201.375 212.406 201.375L212.419 201.362ZM212.984 197.017C212.843 196.554 212.637 196.143 212.355 195.77C212.072 195.398 211.75 195.063 211.378 194.793C211.005 194.523 210.606 194.318 210.156 194.163C209.707 194.009 209.257 193.945 208.781 193.945C208.305 193.945 207.843 194.022 207.393 194.163C206.943 194.318 206.531 194.523 206.159 194.793C205.786 195.063 205.464 195.385 205.182 195.77C204.912 196.143 204.706 196.567 204.577 197.017H212.984Z" fill="black"/>
<path d="M228.372 201.362C228.745 201.362 229.053 201.491 229.298 201.735C229.542 201.979 229.67 202.288 229.67 202.661C229.67 203.033 229.542 203.342 229.298 203.599C228.012 204.73 226.482 205.296 224.734 205.296C222.806 205.296 221.16 204.614 219.798 203.252C218.435 201.889 217.754 200.244 217.754 198.316C217.754 196.387 218.435 194.742 219.798 193.379C221.16 192.017 222.806 191.335 224.734 191.335C226.662 191.335 228.295 192.017 229.67 193.379C230.352 194.048 230.866 194.806 231.2 195.629C231.547 196.452 231.714 197.351 231.714 198.316C231.714 198.688 231.586 198.997 231.329 199.241C231.072 199.485 230.763 199.614 230.403 199.614H220.531C220.672 200.077 220.878 200.488 221.148 200.861C221.418 201.234 221.739 201.568 222.112 201.838C222.484 202.108 222.883 202.313 223.333 202.468C223.783 202.622 224.246 202.686 224.721 202.686C225.274 202.686 225.775 202.609 226.225 202.442C226.688 202.275 227.112 202.031 227.498 201.696C227.742 201.491 228.038 201.375 228.359 201.375L228.372 201.362ZM228.938 197.017C228.796 196.554 228.591 196.143 228.308 195.77C228.025 195.398 227.704 195.063 227.331 194.793C226.958 194.523 226.559 194.318 226.11 194.163C225.66 194.009 225.21 193.945 224.734 193.945C224.258 193.945 223.796 194.022 223.346 194.163C222.896 194.318 222.484 194.523 222.112 194.793C221.739 195.063 221.418 195.385 221.135 195.77C220.865 196.143 220.659 196.567 220.531 197.017H228.938Z" fill="black"/>
<path d="M201.802 168.544C201.802 169.405 201.095 170.112 200.26 170.099C199.398 170.099 198.704 169.392 198.717 168.544C198.717 167.682 199.411 166.988 200.272 166.988C201.134 166.988 201.815 167.682 201.815 168.544H201.802Z" fill="black"/>
<path d="M209.642 147.372C208.806 147.411 208.061 146.652 208.061 145.817C208.061 144.994 208.78 144.274 209.616 144.287C210.632 144.3 211.197 145.097 211.184 145.855C211.184 146.716 210.529 147.372 209.655 147.372H209.642Z" fill="black"/>
<path d="M195.312 144.505C194.477 144.544 193.744 143.85 193.744 142.988C193.744 142.127 194.451 141.433 195.325 141.433C196.174 141.433 196.855 142.114 196.855 142.963C196.855 143.824 196.187 144.505 195.312 144.505Z" fill="black"/>
<path d="M190.863 147.372C189.989 147.372 189.32 146.678 189.32 145.817C189.32 144.968 190.014 144.274 190.863 144.287C191.866 144.313 192.431 145.097 192.418 145.829C192.418 146.704 191.737 147.372 190.863 147.372Z" fill="black"/>
<path d="M188.704 155.148C188.704 156.01 188.036 156.678 187.175 156.678C186.301 156.678 185.606 155.997 185.619 155.11C185.619 154.274 186.313 153.593 187.162 153.58C188.01 153.58 188.704 154.274 188.704 155.135V155.148Z" fill="black"/>
<path d="M196.67 167.323C196.67 168.145 195.925 168.891 195.115 168.904C194.292 168.904 193.572 168.171 193.572 167.323C193.572 166.539 194.176 165.793 195.141 165.78C195.976 165.78 196.67 166.487 196.67 167.323Z" fill="black"/>
<path d="M215.043 155.136C215.043 156.011 214.362 156.692 213.501 156.679C212.652 156.679 211.958 155.972 211.971 155.111C211.971 154.262 212.691 153.555 213.539 153.568C214.362 153.568 215.056 154.288 215.056 155.136H215.043Z" fill="black"/>
<path d="M206.92 167.284C206.92 168.145 206.239 168.865 205.403 168.865C204.568 168.865 203.835 168.158 203.822 167.323C203.822 166.474 204.529 165.767 205.403 165.767C206.252 165.767 206.92 166.436 206.92 167.271V167.284Z" fill="black"/>
<path d="M209.503 165.999C208.641 165.999 207.947 165.317 207.947 164.456C207.947 163.595 208.616 162.914 209.49 162.914C210.338 162.914 211.02 163.569 211.032 164.43C211.032 165.292 210.364 165.999 209.503 165.999Z" fill="black"/>
<path d="M201.801 142.204C201.801 143.052 201.107 143.746 200.259 143.734C199.41 143.734 198.716 143.039 198.703 142.204C198.703 141.343 199.423 140.636 200.284 140.636C201.12 140.636 201.801 141.343 201.801 142.204Z" fill="black"/>
<path d="M186.442 160.176C186.442 159.327 187.149 158.633 188.01 158.633C188.845 158.633 189.552 159.353 189.54 160.188C189.54 161.037 188.807 161.744 187.958 161.731C187.123 161.731 186.429 161.024 186.442 160.176Z" fill="black"/>
<path d="M213.875 160.201C213.875 161.05 213.181 161.731 212.346 161.744C211.484 161.744 210.777 161.024 210.777 160.176C210.777 159.34 211.484 158.659 212.32 158.659C213.168 158.659 213.863 159.366 213.863 160.214L213.875 160.201Z" fill="black"/>
<path d="M191.004 166.012C190.155 166.012 189.461 165.33 189.461 164.482C189.461 163.595 190.142 162.914 191.029 162.927C191.903 162.927 192.546 163.608 192.546 164.495C192.546 165.343 191.865 166.012 191.004 166.012Z" fill="black"/>
<path d="M205.186 144.505C204.35 144.505 203.669 143.824 203.656 142.988C203.656 142.14 204.363 141.433 205.237 141.433C206.086 141.433 206.741 142.101 206.741 142.976C206.741 143.785 206.047 144.544 205.173 144.505H205.186Z" fill="black"/>
<path d="M186.442 150.11C186.442 149.261 187.136 148.58 187.984 148.58C188.833 148.58 189.552 149.3 189.54 150.136C189.527 150.971 188.845 151.64 187.997 151.64C187.123 151.64 186.429 150.958 186.442 150.097V150.11Z" fill="black"/>
<path d="M213.875 150.123C213.875 150.971 213.194 151.652 212.346 151.652C211.497 151.652 210.777 150.945 210.777 150.097C210.777 149.287 211.51 148.58 212.346 148.58C213.194 148.58 213.875 149.261 213.875 150.123Z" fill="black"/>
<path d="M214.723 146.614C214.209 146.614 213.771 146.202 213.771 145.701C213.771 145.2 214.234 144.724 214.748 144.724C215.25 144.724 215.7 145.174 215.7 145.675C215.7 146.189 215.263 146.601 214.736 146.614H214.723Z" fill="black"/>
<path d="M204.902 138.682C204.902 139.209 204.452 139.659 203.938 139.646C203.45 139.646 203.025 139.183 203.025 138.682C203.025 138.18 203.462 137.718 203.964 137.718C204.478 137.718 204.902 138.155 204.902 138.682Z" fill="black"/>
<path d="M183.342 151.447C183.342 150.946 183.779 150.496 184.306 150.522C184.82 150.547 185.231 150.946 185.231 151.46C185.231 151.987 184.807 152.411 184.28 152.411C183.753 152.411 183.342 151.987 183.342 151.46V151.447Z" fill="black"/>
<path d="M203.845 170.421C204.359 170.421 204.771 170.845 204.771 171.359C204.771 171.886 204.346 172.31 203.819 172.31C203.292 172.31 202.881 171.899 202.881 171.359C202.881 170.832 203.318 170.421 203.845 170.434V170.421Z" fill="black"/>
<path d="M215.315 164.302C215.315 164.804 214.878 165.254 214.39 165.241C213.876 165.241 213.426 164.778 213.426 164.251C213.426 163.724 213.863 163.313 214.39 163.325C214.917 163.325 215.315 163.763 215.315 164.302Z" fill="black"/>
<path d="M186.687 165.009C186.147 165.009 185.71 164.572 185.723 164.071C185.723 163.556 186.173 163.132 186.7 163.132C187.214 163.132 187.651 163.582 187.651 164.096C187.651 164.598 187.201 165.022 186.687 165.009Z" fill="black"/>
<path d="M217.163 157.373C217.677 157.373 218.075 157.785 218.075 158.312C218.075 158.826 217.651 159.25 217.15 159.25C216.635 159.25 216.186 158.813 216.186 158.312C216.186 157.785 216.623 157.361 217.163 157.361V157.373Z" fill="black"/>
<path d="M192.253 140.79C192.253 141.33 191.829 141.754 191.289 141.754C190.775 141.754 190.376 141.356 190.363 140.855C190.363 140.315 190.787 139.878 191.315 139.878C191.842 139.878 192.253 140.289 192.253 140.79Z" fill="black"/>
<path d="M197.611 137.473C198.125 137.473 198.524 137.898 198.511 138.425C198.511 138.952 198.074 139.363 197.547 139.35C197.02 139.337 196.609 138.913 196.621 138.412C196.621 137.885 197.071 137.461 197.611 137.473Z" fill="black"/>
<path d="M191.071 167.773C191.598 167.773 192.01 168.171 192.022 168.686C192.022 169.213 191.573 169.663 191.058 169.663C190.57 169.663 190.133 169.2 190.133 168.698C190.133 168.197 190.57 167.773 191.071 167.773Z" fill="black"/>
<path d="M216.047 151.704C216.008 151.165 216.51 150.753 216.985 150.766C217.487 150.779 217.898 151.19 217.898 151.717C217.898 152.244 217.474 152.669 216.947 152.656C216.42 152.656 216.047 152.244 216.047 151.704Z" fill="black"/>
<path d="M197.149 172.452C196.622 172.452 196.211 172.053 196.211 171.539C196.211 171.025 196.635 170.588 197.162 170.588C197.664 170.588 198.113 171.012 198.113 171.501C198.113 172.002 197.676 172.439 197.149 172.439V172.452Z" fill="black"/>
<path d="M209.952 141.908C209.412 141.908 209.001 141.497 209.014 140.957C209.014 140.43 209.451 140.006 209.978 140.018C210.492 140.018 210.891 140.456 210.891 140.97C210.891 141.484 210.479 141.895 209.965 141.895L209.952 141.908Z" fill="black"/>
<path d="M185.695 145.406C185.695 144.879 186.107 144.481 186.647 144.468C187.186 144.468 187.585 144.866 187.585 145.406C187.585 145.92 187.161 146.319 186.634 146.319C186.12 146.319 185.695 145.907 185.695 145.406Z" fill="black"/>
<path d="M209.709 169.803C209.182 169.803 208.771 169.392 208.758 168.852C208.758 168.338 209.195 167.914 209.722 167.927C210.236 167.927 210.635 168.351 210.635 168.878C210.635 169.392 210.21 169.803 209.709 169.803Z" fill="black"/>
<path d="M184.026 157.012C184.54 157.012 184.952 157.424 184.952 157.938C184.952 158.465 184.553 158.889 184.039 158.889C183.512 158.889 183.088 158.452 183.088 157.912C183.088 157.411 183.499 157.012 184.013 157.012H184.026Z" fill="black"/>
<path d="M219.361 163.762C218.962 163.762 218.654 163.466 218.666 163.08C218.666 162.708 218.975 162.386 219.335 162.386C219.708 162.386 220.042 162.695 220.042 163.068C220.042 163.479 219.759 163.762 219.361 163.762Z" fill="black"/>
<path d="M192.084 174.059C191.699 174.059 191.416 173.763 191.416 173.377C191.416 172.979 191.737 172.67 192.136 172.683C192.509 172.683 192.804 173.017 192.804 173.403C192.804 173.789 192.483 174.071 192.084 174.059Z" fill="black"/>
<path d="M209.795 136.291C209.795 136.677 209.487 136.96 209.088 136.96C208.703 136.96 208.42 136.664 208.42 136.278C208.42 135.906 208.754 135.584 209.127 135.584C209.5 135.584 209.808 135.906 209.808 136.291H209.795Z" fill="black"/>
<path d="M187.42 139.492C187.42 139.878 187.125 140.186 186.739 140.199C186.366 140.199 186.045 139.904 186.045 139.518C186.045 139.145 186.341 138.837 186.713 138.824C187.099 138.824 187.42 139.107 187.433 139.492H187.42Z" fill="black"/>
<path d="M185.657 167.67C186.056 167.67 186.338 167.966 186.338 168.364C186.338 168.737 186.03 169.045 185.67 169.045C185.297 169.045 184.963 168.711 184.963 168.364C184.963 167.991 185.271 167.67 185.657 167.67Z" fill="black"/>
<path d="M194.207 135.392C194.207 135.765 193.885 136.06 193.487 136.06C193.114 136.06 192.818 135.752 192.818 135.366C192.818 134.993 193.14 134.672 193.525 134.672C193.898 134.672 194.207 135.006 194.207 135.379V135.392Z" fill="black"/>
<path d="M215.147 169.444C215.147 169.83 214.826 170.113 214.427 170.1C214.067 170.1 213.771 169.778 213.771 169.405C213.771 169.033 214.106 168.711 214.479 168.724C214.851 168.737 215.147 169.058 215.147 169.444Z" fill="black"/>
<path d="M220.303 155.239C220.303 154.853 220.611 154.557 220.997 154.557C221.37 154.557 221.678 154.879 221.678 155.264C221.678 155.624 221.357 155.933 220.997 155.933C220.624 155.933 220.303 155.612 220.303 155.239Z" fill="black"/>
<path d="M219.941 148.169C219.568 148.169 219.26 147.861 219.26 147.475C219.26 147.102 219.581 146.794 219.967 146.794C220.327 146.794 220.635 147.115 220.648 147.475C220.648 147.848 220.327 148.169 219.954 148.169H219.941Z" fill="black"/>
<path d="M181.069 161.641C181.069 161.268 181.377 160.973 181.75 160.986C182.11 160.986 182.444 161.345 182.444 161.705C182.444 162.052 182.097 162.374 181.737 162.374C181.364 162.374 181.056 162.04 181.069 161.654V161.641Z" fill="black"/>
<path d="M215.586 141.291C215.2 141.291 214.904 140.983 214.904 140.597C214.904 140.211 215.2 139.916 215.573 139.929C215.933 139.929 216.267 140.263 216.28 140.623C216.28 140.957 215.946 141.291 215.586 141.291Z" fill="black"/>
<path d="M182.301 146.743C181.928 146.743 181.607 146.408 181.62 146.036C181.62 145.676 181.928 145.38 182.288 145.367C182.661 145.367 182.995 145.689 182.982 146.061C182.982 146.434 182.674 146.743 182.301 146.743Z" fill="black"/>
<path d="M180.915 153.709C180.915 154.082 180.593 154.391 180.246 154.391C179.873 154.391 179.552 154.057 179.565 153.684C179.565 153.311 179.886 153.015 180.259 153.028C180.632 153.028 180.927 153.35 180.915 153.722V153.709Z" fill="black"/>
<path d="M207.008 173.583C207.008 173.197 207.291 172.901 207.663 172.901C208.036 172.901 208.383 173.223 208.383 173.583C208.383 173.93 208.049 174.251 207.689 174.251C207.316 174.251 207.008 173.968 207.008 173.583Z" fill="black"/>
<path d="M202.266 134.17C202.266 134.556 201.957 134.877 201.597 134.89C201.225 134.89 200.916 134.569 200.916 134.183C200.916 133.81 201.237 133.515 201.61 133.528C201.996 133.528 202.266 133.81 202.266 134.17Z" fill="black"/>
<path d="M200.064 175.601C199.678 175.601 199.383 175.306 199.383 174.933C199.383 174.573 199.717 174.251 200.103 174.264C200.463 174.264 200.771 174.56 200.771 174.92C200.771 175.293 200.45 175.601 200.077 175.601H200.064Z" fill="black"/>
<path d="M224.634 150.457C224.634 150.727 224.402 150.971 224.133 150.984C223.875 150.984 223.618 150.752 223.605 150.508C223.605 150.213 223.824 149.981 224.133 149.968C224.39 149.968 224.634 150.2 224.634 150.457Z" fill="black"/>
<path d="M214.504 135.532C214.504 135.841 214.337 136.034 214.054 136.047C213.746 136.047 213.54 135.867 213.527 135.571C213.527 135.263 213.733 135.031 214.029 135.031C214.311 135.031 214.504 135.237 214.504 135.532Z" fill="black"/>
<path d="M213.461 174.856C213.152 174.856 212.947 174.65 212.96 174.354C212.96 174.059 213.178 173.853 213.474 173.866C213.757 173.866 213.988 174.11 213.975 174.38C213.975 174.65 213.744 174.856 213.461 174.856Z" fill="black"/>
<path d="M220.826 168.145C220.826 168.415 220.569 168.659 220.299 168.647C220.042 168.647 219.811 168.389 219.811 168.145C219.811 167.85 220.068 167.618 220.35 167.631C220.595 167.631 220.826 167.901 220.826 168.158V168.145Z" fill="black"/>
<path d="M177.109 149.544C177.109 149.274 177.314 149.056 177.584 149.043C177.867 149.043 178.098 149.249 178.098 149.532C178.098 149.827 177.893 150.033 177.597 150.046C177.301 150.046 177.109 149.853 177.096 149.544H177.109Z" fill="black"/>
<path d="M204.888 177.259C205.21 177.259 205.415 177.465 205.415 177.773C205.415 178.03 205.197 178.223 204.927 178.236C204.618 178.236 204.4 178.018 204.413 177.709C204.413 177.413 204.593 177.259 204.888 177.259Z" fill="black"/>
<path d="M187.907 134.209C188.177 134.209 188.395 134.414 188.395 134.697C188.395 134.98 188.177 135.199 187.881 135.199C187.598 135.199 187.405 135.019 187.393 134.749C187.393 134.427 187.585 134.222 187.894 134.209H187.907Z" fill="black"/>
<path d="M178.202 158.929C178.202 159.199 177.958 159.443 177.688 159.443C177.431 159.443 177.199 159.199 177.199 158.941C177.199 158.672 177.456 158.44 177.726 158.427C177.996 158.427 178.215 158.646 178.215 158.929H178.202Z" fill="black"/>
<path d="M220.031 141.741C220.031 141.433 220.237 141.227 220.533 141.227C220.777 141.227 221.008 141.471 221.008 141.741C221.008 142.011 220.79 142.243 220.533 142.243C220.224 142.243 220.031 142.05 220.031 141.741Z" fill="black"/>
<path d="M182.019 141.278C182.019 141.548 181.788 141.793 181.544 141.793C181.261 141.793 181.029 141.574 181.029 141.291C181.029 141.021 181.274 140.777 181.544 140.777C181.801 140.777 182.032 141.008 182.032 141.278H182.019Z" fill="black"/>
<path d="M205.865 132.125C205.595 132.125 205.402 131.907 205.402 131.611C205.402 131.354 205.634 131.123 205.904 131.123C206.186 131.123 206.418 131.367 206.405 131.637C206.392 131.907 206.148 132.138 205.865 132.125Z" fill="black"/>
<path d="M180.886 166.835C181.169 166.86 181.374 167.092 181.349 167.387C181.323 167.657 181.079 167.863 180.809 167.837C180.513 167.811 180.32 167.58 180.346 167.284C180.372 167.015 180.616 166.822 180.886 166.835Z" fill="black"/>
<path d="M187.173 174.804C186.852 174.804 186.672 174.625 186.672 174.303C186.672 174.02 186.89 173.828 187.173 173.828C187.456 173.828 187.649 174.046 187.649 174.329C187.649 174.65 187.495 174.804 187.173 174.792V174.804Z" fill="black"/>
<path d="M196.957 131.329C196.957 131.599 196.751 131.805 196.455 131.818C196.185 131.818 195.967 131.625 195.967 131.355C195.967 131.098 196.224 130.815 196.455 130.802C196.712 130.802 196.957 131.046 196.957 131.329Z" fill="black"/>
<path d="M223.733 159.019C224.016 159.019 224.235 159.237 224.235 159.533C224.235 159.79 224.016 160.009 223.759 160.009C223.502 160.009 223.271 159.777 223.258 159.52C223.258 159.225 223.451 159.019 223.733 159.019Z" fill="black"/>
<path d="M196.456 177.76C196.456 178.005 196.212 178.236 195.942 178.236C195.685 178.236 195.466 178.018 195.453 177.76C195.453 177.465 195.633 177.259 195.916 177.259C196.186 177.259 196.443 177.49 196.443 177.748L196.456 177.76Z" fill="black"/>
<path d="M162.686 261.649C164.133 261.649 165.374 262.182 166.397 263.263C166.909 263.797 167.303 264.391 167.551 265.031C167.814 265.671 167.931 266.372 167.931 267.133C167.931 268.642 167.42 269.937 166.383 271.018C165.345 272.1 164.118 272.618 162.672 272.618H160.641C160.538 272.618 160.451 272.603 160.363 272.557C160.276 272.511 160.202 272.466 160.144 272.405C160.086 272.344 160.027 272.268 159.998 272.176C159.954 272.085 159.939 271.993 159.939 271.887V262.365C159.939 262.258 159.954 262.167 159.998 262.075C160.042 261.984 160.086 261.908 160.144 261.847C160.202 261.786 160.276 261.725 160.363 261.694C160.451 261.664 160.538 261.633 160.641 261.633H162.672L162.686 261.649ZM162.686 271.171C163.753 271.171 164.659 270.774 165.418 269.982C165.798 269.586 166.09 269.16 166.28 268.687C166.47 268.215 166.558 267.697 166.558 267.133C166.558 266.021 166.178 265.077 165.418 264.284C164.659 263.492 163.753 263.096 162.686 263.096H161.357V271.171H162.686Z" fill="black"/>
<path d="M175.864 268.779C175.864 269.846 175.499 270.76 174.783 271.491C174.053 272.238 173.191 272.619 172.183 272.619C171.175 272.619 170.298 272.238 169.582 271.491C168.866 270.745 168.501 269.831 168.501 268.779C168.501 267.728 168.866 266.814 169.582 266.068C170.298 265.321 171.175 264.94 172.183 264.94C173.191 264.94 174.053 265.321 174.783 266.068C175.149 266.449 175.412 266.86 175.587 267.317C175.762 267.774 175.85 268.262 175.864 268.795V268.779ZM172.183 266.372C171.861 266.372 171.554 266.433 171.277 266.57C170.999 266.692 170.751 266.875 170.546 267.088C170.342 267.302 170.181 267.561 170.05 267.85C169.933 268.14 169.874 268.46 169.874 268.779C169.874 269.099 169.933 269.419 170.05 269.709C170.166 269.998 170.327 270.257 170.546 270.471C170.751 270.684 170.999 270.867 171.277 270.989C171.554 271.111 171.861 271.187 172.183 271.187C172.504 271.187 172.796 271.126 173.088 270.989C173.366 270.867 173.614 270.684 173.819 270.471C174.024 270.257 174.184 269.998 174.316 269.709C174.433 269.419 174.491 269.115 174.491 268.779C174.491 268.444 174.433 268.14 174.316 267.85C174.199 267.561 174.038 267.302 173.819 267.088C173.614 266.875 173.366 266.692 173.088 266.57C172.811 266.449 172.504 266.372 172.183 266.372Z" fill="black"/>
<path d="M177.866 271.902C177.866 272.1 177.793 272.268 177.662 272.405C177.53 272.542 177.369 272.618 177.18 272.618C176.99 272.618 176.829 272.542 176.697 272.405C176.566 272.268 176.493 272.1 176.493 271.902V262.365C176.493 262.167 176.566 261.999 176.697 261.847C176.829 261.71 176.99 261.633 177.18 261.633C177.369 261.633 177.53 261.71 177.662 261.847C177.793 261.984 177.866 262.151 177.866 262.365V265.655C178.451 265.183 179.137 264.955 179.926 264.955C180.394 264.955 180.818 265.046 181.241 265.229C181.65 265.412 182.016 265.671 182.337 265.991C182.658 266.311 182.907 266.691 183.082 267.133C183.272 267.575 183.36 268.032 183.36 268.535V271.902C183.36 272.1 183.287 272.268 183.155 272.405C183.024 272.542 182.863 272.618 182.673 272.618C182.483 272.618 182.322 272.542 182.191 272.405C182.059 272.268 181.986 272.1 181.986 271.902V268.535C181.986 268.245 181.928 267.971 181.826 267.712C181.723 267.453 181.563 267.225 181.387 267.027C181.197 266.829 180.978 266.676 180.73 266.57C180.481 266.463 180.219 266.402 179.941 266.402C179.663 266.402 179.386 266.463 179.137 266.57C178.889 266.676 178.67 266.829 178.48 267.027C178.29 267.225 178.144 267.453 178.042 267.712C177.939 267.971 177.881 268.245 177.881 268.535V271.902H177.866Z" fill="black"/>
<path d="M189.949 271.918V271.781C189.628 272.055 189.262 272.268 188.882 272.405C188.503 272.558 188.079 272.619 187.641 272.619C186.618 272.619 185.756 272.238 185.04 271.491C184.324 270.745 183.959 269.831 183.959 268.779C183.959 267.728 184.324 266.814 185.04 266.068C185.756 265.321 186.632 264.94 187.641 264.94C188.649 264.94 189.511 265.321 190.241 266.068C190.957 266.814 191.322 267.728 191.322 268.779V271.903C191.322 272.101 191.249 272.268 191.118 272.405C190.986 272.543 190.826 272.619 190.636 272.619C190.446 272.619 190.285 272.543 190.154 272.405C190.022 272.268 189.949 272.101 189.949 271.903V271.918ZM187.641 266.372C187.319 266.372 187.012 266.433 186.735 266.57C186.457 266.692 186.209 266.875 186.004 267.088C185.8 267.302 185.639 267.561 185.507 267.85C185.391 268.14 185.332 268.46 185.332 268.779C185.332 269.099 185.391 269.419 185.507 269.709C185.624 269.998 185.785 270.257 186.004 270.471C186.209 270.684 186.457 270.867 186.735 270.989C187.012 271.111 187.319 271.187 187.641 271.187C187.962 271.187 188.254 271.126 188.546 270.989C188.824 270.867 189.072 270.684 189.277 270.471C189.481 270.257 189.642 269.998 189.774 269.709C189.891 269.419 189.949 269.115 189.949 268.779C189.949 268.444 189.891 268.14 189.774 267.85C189.657 267.561 189.496 267.302 189.277 267.088C189.072 266.875 188.824 266.692 188.546 266.57C188.269 266.449 187.962 266.372 187.641 266.372Z" fill="black"/>
<path d="M196.1 269.495C195.895 269.495 195.735 269.435 195.603 269.297C195.472 269.16 195.413 268.993 195.413 268.795C195.413 268.597 195.472 268.414 195.603 268.277C195.735 268.14 195.895 268.079 196.1 268.079H199.095C199.3 268.079 199.46 268.14 199.592 268.277C199.723 268.414 199.782 268.581 199.782 268.795C199.782 269.008 199.723 269.176 199.592 269.297C199.46 269.419 199.3 269.495 199.095 269.495H196.1Z" fill="black"/>
<path d="M212.274 271.506C211.806 271.887 211.309 272.176 210.783 272.359C210.257 272.542 209.687 272.633 209.074 272.633C207.613 272.633 206.371 272.1 205.348 271.034C204.325 269.967 203.814 268.672 203.814 267.149C203.814 265.625 204.325 264.345 205.348 263.279C206.386 262.197 207.613 261.664 209.074 261.664C210.535 261.664 211.762 262.197 212.785 263.279C213.296 263.812 213.691 264.406 213.939 265.046C214.202 265.686 214.319 266.387 214.319 267.149C214.319 267.789 214.231 268.383 214.056 268.931C213.881 269.48 213.603 269.998 213.238 270.485L214.114 271.399C214.246 271.552 214.304 271.719 214.304 271.902C214.304 272.009 214.29 272.1 214.246 272.192C214.217 272.283 214.158 272.359 214.1 272.42C214.041 272.481 213.968 272.542 213.881 272.572C213.793 272.603 213.705 272.633 213.603 272.633C213.398 272.633 213.238 272.557 213.106 272.42L212.244 271.506H212.274ZM210.345 269.51C210.213 269.358 210.155 269.175 210.155 268.992C210.155 268.886 210.17 268.794 210.213 268.703C210.243 268.611 210.301 268.535 210.36 268.474C210.418 268.413 210.491 268.352 210.579 268.322C210.666 268.291 210.754 268.261 210.856 268.261C211.046 268.261 211.222 268.337 211.353 268.474L212.274 269.434C212.726 268.779 212.946 268.002 212.946 267.149C212.946 266.037 212.566 265.092 211.821 264.3C211.061 263.507 210.155 263.111 209.088 263.111C208.548 263.111 208.051 263.203 207.598 263.401C207.145 263.599 206.736 263.888 206.356 264.284C205.976 264.681 205.684 265.107 205.509 265.579C205.319 266.052 205.231 266.57 205.231 267.133C205.231 268.246 205.611 269.205 206.356 269.982C207.101 270.759 208.022 271.171 209.088 271.171C209.921 271.171 210.652 270.927 211.295 270.47L210.374 269.51H210.345Z" fill="black"/>
<path d="M220.952 271.918V271.781C220.631 272.055 220.266 272.268 219.886 272.405C219.506 272.558 219.082 272.619 218.644 272.619C217.621 272.619 216.759 272.238 216.043 271.491C215.327 270.745 214.962 269.831 214.962 268.779C214.962 267.728 215.327 266.814 216.043 266.068C216.759 265.321 217.636 264.94 218.644 264.94C219.652 264.94 220.514 265.321 221.245 266.068C221.961 266.814 222.326 267.728 222.326 268.779V271.903C222.326 272.101 222.253 272.268 222.121 272.405C221.99 272.543 221.829 272.619 221.639 272.619C221.449 272.619 221.288 272.543 221.157 272.405C221.025 272.268 220.952 272.101 220.952 271.903V271.918ZM218.644 266.372C218.323 266.372 218.016 266.433 217.738 266.57C217.461 266.692 217.212 266.875 217.008 267.088C216.803 267.302 216.642 267.561 216.511 267.85C216.394 268.14 216.336 268.46 216.336 268.779C216.336 269.099 216.394 269.419 216.511 269.709C216.628 269.998 216.788 270.257 217.008 270.471C217.212 270.684 217.461 270.867 217.738 270.989C218.016 271.111 218.323 271.187 218.644 271.187C218.965 271.187 219.258 271.126 219.55 270.989C219.827 270.867 220.076 270.684 220.28 270.471C220.485 270.257 220.646 269.998 220.777 269.709C220.894 269.419 220.952 269.115 220.952 268.779C220.952 268.444 220.894 268.14 220.777 267.85C220.66 267.561 220.499 267.302 220.28 267.088C220.076 266.875 219.827 266.692 219.55 266.57C219.272 266.449 218.965 266.372 218.644 266.372Z" fill="black"/>
<path d="M223.597 264.94H223.903V262.365C223.903 262.167 223.976 261.999 224.108 261.862C224.239 261.725 224.4 261.649 224.605 261.649C224.809 261.649 224.955 261.725 225.087 261.862C225.218 261.999 225.291 262.167 225.291 262.365V264.94H226.11C226.3 264.94 226.46 265.016 226.592 265.153C226.723 265.29 226.782 265.458 226.782 265.656C226.782 265.854 226.723 266.021 226.592 266.174C226.46 266.326 226.3 266.387 226.11 266.387H225.291V269.83C225.291 270.744 225.73 271.201 226.606 271.201C226.796 271.201 226.957 271.277 227.088 271.414C227.22 271.552 227.278 271.719 227.278 271.917C227.278 272.115 227.22 272.283 227.088 272.42C226.957 272.557 226.796 272.633 226.606 272.633C224.809 272.633 223.918 271.704 223.918 269.83V266.387H223.611C223.421 266.387 223.261 266.311 223.129 266.174C222.998 266.036 222.925 265.869 222.925 265.656C222.925 265.442 222.998 265.29 223.129 265.153C223.261 265.016 223.421 264.94 223.611 264.94H223.597Z" fill="black"/>
<path d="M233.385 271.918V271.781C233.064 272.055 232.699 272.268 232.319 272.405C231.939 272.558 231.515 272.619 231.077 272.619C230.054 272.619 229.192 272.238 228.476 271.491C227.76 270.745 227.395 269.831 227.395 268.779C227.395 267.728 227.76 266.814 228.476 266.068C229.192 265.321 230.069 264.94 231.077 264.94C232.085 264.94 232.947 265.321 233.678 266.068C234.394 266.814 234.759 267.728 234.759 268.779V271.903C234.759 272.101 234.686 272.268 234.554 272.405C234.423 272.543 234.262 272.619 234.072 272.619C233.882 272.619 233.721 272.543 233.59 272.405C233.458 272.268 233.385 272.101 233.385 271.903V271.918ZM231.077 266.372C230.756 266.372 230.449 266.433 230.171 266.57C229.894 266.692 229.645 266.875 229.441 267.088C229.236 267.302 229.075 267.561 228.944 267.85C228.827 268.14 228.769 268.46 228.769 268.779C228.769 269.099 228.827 269.419 228.944 269.709C229.061 269.998 229.221 270.257 229.441 270.471C229.645 270.684 229.894 270.867 230.171 270.989C230.449 271.111 230.756 271.187 231.077 271.187C231.398 271.187 231.691 271.126 231.983 270.989C232.26 270.867 232.509 270.684 232.713 270.471C232.918 270.257 233.079 269.998 233.21 269.709C233.327 269.419 233.385 269.115 233.385 268.779C233.385 268.444 233.327 268.14 233.21 267.85C233.093 267.561 232.932 267.302 232.713 267.088C232.509 266.875 232.26 266.692 231.983 266.57C231.705 266.449 231.398 266.372 231.077 266.372Z" fill="black"/>
<path d="M236.732 265.656V265.793C237.068 265.519 237.418 265.306 237.798 265.153C238.178 265.001 238.602 264.94 239.04 264.94C239.23 264.94 239.435 264.94 239.668 264.986C239.887 265.016 240.092 265.062 240.282 265.138C240.472 265.214 240.618 265.306 240.75 265.428C240.881 265.55 240.939 265.717 240.939 265.9C240.939 266.007 240.925 266.098 240.881 266.174C240.837 266.266 240.793 266.342 240.735 266.403C240.676 266.464 240.603 266.525 240.516 266.555C240.428 266.586 240.34 266.616 240.253 266.616C240.165 266.616 240.077 266.586 239.961 266.54C239.683 266.418 239.391 266.372 239.055 266.372C238.719 266.372 238.441 266.433 238.149 266.555C237.871 266.677 237.623 266.86 237.418 267.073C237.214 267.286 237.038 267.545 236.922 267.835C236.805 268.124 236.746 268.444 236.746 268.779V271.903C236.746 272.101 236.673 272.268 236.542 272.405C236.41 272.543 236.25 272.619 236.06 272.619C235.87 272.619 235.709 272.543 235.563 272.405C235.431 272.268 235.358 272.101 235.358 271.903V265.641C235.358 265.443 235.431 265.275 235.563 265.138C235.694 265.001 235.855 264.925 236.06 264.925C236.264 264.925 236.41 265.001 236.542 265.138C236.673 265.275 236.746 265.443 236.746 265.641L236.732 265.656Z" fill="black"/>
</svg>
