<svg width="402" height="402" viewBox="0 0 402 402" fill="none" xmlns="http://www.w3.org/2000/svg">
<path d="M181.04 0.00717232L178.1 0.316223L179.231 11.0807L182.171 10.7717L181.04 0.00717232Z" fill="#7C7C7C"/>
<path d="M222.065 390.218L219.125 390.527L220.256 401.292L223.197 400.983L222.065 390.218Z" fill="#7C7C7C"/>
<path d="M160.187 3.1503L157.295 3.76501L159.545 14.3523L162.437 13.7376L160.187 3.1503Z" fill="#7C7C7C"/>
<path d="M241.757 386.947L238.865 387.562L241.116 398.149L244.008 397.535L241.757 386.947Z" fill="#7C7C7C"/>
<path d="M139.763 8.46416L136.951 9.37781L140.296 19.6718L143.108 18.7582L139.763 8.46416Z" fill="#7C7C7C"/>
<path d="M261.021 381.622L258.209 382.535L261.554 392.829L264.366 391.916L261.021 381.622Z" fill="#7C7C7C"/>
<path d="M120.004 15.8876L117.303 17.0901L121.705 26.9781L124.406 25.7756L120.004 15.8876Z" fill="#7C7C7C"/>
<path d="M279.594 374.317L276.893 375.52L281.295 385.408L283.996 384.205L279.594 374.317Z" fill="#7C7C7C"/>
<path d="M83.3568 36.7057L80.9648 38.4436L87.3269 47.2002L89.7189 45.4624L83.3568 36.7057Z" fill="#7C7C7C"/>
<path d="M313.986 354.112L311.594 355.85L317.956 364.607L320.348 362.869L313.986 354.112Z" fill="#7C7C7C"/>
<path d="M66.8574 49.8489L64.6602 51.8273L71.9027 59.8709L74.0999 57.8926L66.8574 49.8489Z" fill="#7C7C7C"/>
<path d="M329.402 341.441L327.205 343.419L334.448 351.463L336.645 349.485L329.402 341.441Z" fill="#7C7C7C"/>
<path d="M51.8358 64.6649L49.8574 66.8621L57.9011 74.1046L59.8794 71.9074L51.8358 64.6649Z" fill="#7C7C7C"/>
<path d="M343.41 327.212L341.432 329.409L349.475 336.652L351.454 334.454L343.41 327.212Z" fill="#7C7C7C"/>
<path d="M38.4195 80.9714L36.6816 83.3633L45.4383 89.7254L47.1761 87.3335L38.4195 80.9714Z" fill="#7C7C7C"/>
<path d="M355.853 311.604L354.115 313.996L362.872 320.358L364.61 317.966L355.853 311.604Z" fill="#7C7C7C"/>
<path d="M17.0834 117.306L15.8809 120.007L25.7689 124.409L26.9714 121.708L17.0834 117.306Z" fill="#7C7C7C"/>
<path d="M375.54 276.903L374.338 279.604L384.226 284.006L385.428 281.305L375.54 276.903Z" fill="#7C7C7C"/>
<path d="M9.36481 136.948L8.45117 139.76L18.7452 143.105L19.6588 140.293L9.36481 136.948Z" fill="#7C7C7C"/>
<path d="M382.527 258.175L381.613 260.987L391.907 264.332L392.821 261.52L382.527 258.175Z" fill="#7C7C7C"/>
<path d="M3.7612 157.289L3.14648 160.181L13.7337 162.431L14.3485 159.539L3.7612 157.289Z" fill="#7C7C7C"/>
<path d="M387.539 238.85L386.924 241.742L397.511 243.992L398.126 241.1L387.539 238.85Z" fill="#7C7C7C"/>
<path d="M0.309051 178.103L0 181.043L10.7645 182.175L11.0735 179.234L0.309051 178.103Z" fill="#7C7C7C"/>
<path d="M390.538 219.133L390.229 222.073L400.993 223.205L401.302 220.264L390.538 219.133Z" fill="#7C7C7C"/>
<path d="M0.0132148 220.265L0.322266 223.206L11.0868 222.074L10.7777 219.134L0.0132148 220.265Z" fill="#7C7C7C"/>
<path d="M390.201 179.244L390.51 182.184L401.274 181.053L400.965 178.112L390.201 179.244Z" fill="#7C7C7C"/>
<path d="M3.15091 241.131L3.76562 244.023L14.3529 241.772L13.7382 238.88L3.15091 241.131Z" fill="#7C7C7C"/>
<path d="M386.952 159.539L387.566 162.431L398.154 160.18L397.539 157.288L386.952 159.539Z" fill="#7C7C7C"/>
<path d="M8.47112 261.554L9.38477 264.366L19.6788 261.022L18.7652 258.21L8.47112 261.554Z" fill="#7C7C7C"/>
<path d="M381.625 140.301L382.539 143.113L392.833 139.768L391.919 136.956L381.625 140.301Z" fill="#7C7C7C"/>
<path d="M15.8814 281.284L17.084 283.985L26.972 279.583L25.7694 276.882L15.8814 281.284Z" fill="#7C7C7C"/>
<path d="M374.311 121.709L375.514 124.41L385.402 120.007L384.199 117.306L374.311 121.709Z" fill="#7C7C7C"/>
<path d="M36.6801 317.942L38.418 320.333L47.1746 313.971L45.4367 311.58L36.6801 317.942Z" fill="#7C7C7C"/>
<path d="M354.106 87.3303L355.844 89.7222L364.6 83.3602L362.863 80.9682L354.106 87.3303Z" fill="#7C7C7C"/>
<path d="M49.8517 334.46L51.8301 336.657L59.8737 329.415L57.8953 327.218L49.8517 334.46Z" fill="#7C7C7C"/>
<path d="M341.42 71.9114L343.398 74.1086L351.442 66.8661L349.464 64.6689L341.42 71.9114Z" fill="#7C7C7C"/>
<path d="M64.6505 349.471L66.8477 351.45L74.0902 343.406L71.893 341.428L64.6505 349.471Z" fill="#7C7C7C"/>
<path d="M327.184 57.8902L329.381 59.8685L336.623 51.8249L334.426 49.8465L327.184 57.8902Z" fill="#7C7C7C"/>
<path d="M80.9518 362.878L83.3438 364.616L89.7058 355.859L87.3139 354.121L80.9518 362.878Z" fill="#7C7C7C"/>
<path d="M311.598 45.4485L313.99 47.1863L320.352 38.4297L317.96 36.6918L311.598 45.4485Z" fill="#7C7C7C"/>
<path d="M117.303 384.223L120.004 385.426L124.406 375.538L121.705 374.335L117.303 384.223Z" fill="#7C7C7C"/>
<path d="M276.899 25.7629L279.6 26.9655L284.002 17.0774L281.301 15.8749L276.899 25.7629Z" fill="#7C7C7C"/>
<path d="M136.926 391.926L139.738 392.84L143.083 382.546L140.271 381.632L136.926 391.926Z" fill="#7C7C7C"/>
<path d="M258.19 18.7704L261.002 19.6841L264.347 9.39006L261.535 8.47642L258.19 18.7704Z" fill="#7C7C7C"/>
<path d="M157.27 397.547L160.162 398.161L162.413 387.574L159.52 386.959L157.27 397.547Z" fill="#7C7C7C"/>
<path d="M238.856 13.7547L241.748 14.3694L243.998 3.78218L241.106 3.16747L238.856 13.7547Z" fill="#7C7C7C"/>
<path d="M178.095 400.997L181.035 401.306L182.167 390.541L179.226 390.232L178.095 400.997Z" fill="#7C7C7C"/>
<path d="M219.12 10.7643L222.061 11.0733L223.192 0.308807L220.252 -0.000243566L219.12 10.7643Z" fill="#7C7C7C"/>
</svg>
