<svg version="1.2" xmlns="http://www.w3.org/2000/svg" viewBox="0 0 336 345" width="336" height="345"><style>.a{fill:#090e34}.b{fill:#fff}.c{fill:none;stroke:#fff}</style><path class="a" d="m168 344.1c92.7 0 167.9-77 167.9-172 0-95.1-75.2-172.1-167.9-172.1-92.8 0-168 77-168 172.1 0 95 75.2 172 168 172z"/><path class="b" d="m172.8 11.5h-10.3v8.8h10.3z"/><path class="b" d="m172.8 324h-10.3v8.9h10.3z"/><path class="b" d="m93.7 30.4l-8.9 5.3 4.3 7.6 8.9-5.3z"/><path class="b" d="m246.3 301l-9 5.3 4.3 7.7 9-5.3z"/><path class="b" d="m34.4 87.2l-5.2 9.2 7.5 4.5 5.2-9.2z"/><path class="b" d="m298.6 243.5l-5.2 9.2 7.5 4.4 5.2-9.2z"/><path class="b" d="m19.5 166.9h-8.7v10.6h8.7z"/><path class="b" d="m324.5 166.9h-8.6v10.6h8.6z"/><path class="b" d="m36.7 243.5l-7.4 4.4 5.1 9.2 7.5-4.4z"/><path class="b" d="m300.9 87.2l-7.5 4.5 5.2 9.2 7.5-4.5z"/><path class="b" d="m89.1 301l-4.3 7.7 8.9 5.3 4.4-7.7z"/><path class="b" d="m241.6 30.4l-4.3 7.6 9 5.3 4.3-7.6z"/><path class="b" d="m152.5 12.3l-2.3 0.2 0.9 8.6 2.3-0.3z"/><path class="b" d="m184.4 323.2l-2.3 0.2 0.9 8.6 2.3-0.3z"/><path class="b" d="m136.3 14.8l-2.2 0.4 1.7 8.5 2.3-0.5z"/><path class="b" d="m199.7 320.6l-2.2 0.4 1.7 8.5 2.3-0.5z"/><path class="b" d="m120.4 19l-2.2 0.7 2.6 8.2 2.2-0.7z"/><path class="b" d="m214.7 316.3l-2.2 0.7 2.6 8.2 2.2-0.7z"/><path class="b" d="m105.1 24.9l-2.1 1 3.4 7.8 2.1-0.9z"/><path class="b" d="m229.2 310.5l-2.1 1 3.4 7.8 2.1-0.9z"/><path class="b" d="m76.5 41.5l-1.8 1.4 4.9 7 1.9-1.4z"/><path class="b" d="m255.9 294.4l-1.8 1.4 4.9 7 1.9-1.4z"/><path class="b" d="m63.7 52l-1.7 1.5 5.6 6.4 1.7-1.5z"/><path class="b" d="m267.9 284.3l-1.7 1.6 5.6 6.4 1.7-1.6z"/><path class="b" d="m52 63.8l-1.5 1.7 6.2 5.8 1.6-1.8z"/><path class="b" d="m278.8 273l-1.5 1.7 6.2 5.8 1.6-1.8z"/><path class="b" d="m41.6 76.8l-1.4 1.9 6.9 5 1.3-1.9z"/><path class="b" d="m288.5 260.5l-1.4 1.9 6.8 5.1 1.4-1.9z"/><path class="b" d="m25 105.7l-0.9 2.2 7.7 3.5 0.9-2.2z"/><path class="b" d="m303.8 232.9l-0.9 2.1 7.7 3.5 0.9-2.1z"/><path class="b" d="m19 121.4l-0.7 2.2 8 2.7 0.7-2.3z"/><path class="b" d="m309.2 218l-0.7 2.2 8 2.7 0.7-2.3z"/><path class="b" d="m14.6 137.6l-0.4 2.3 8.2 1.8 0.5-2.3z"/><path class="b" d="m313.1 202.6l-0.4 2.3 8.2 1.8 0.5-2.4z"/><path class="b" d="m12 154.2l-0.3 2.3 8.4 0.9 0.2-2.3z"/><path class="b" d="m315.5 186.8l-0.3 2.4 8.4 0.9 0.2-2.4z"/><path class="b" d="m11.7 187.7l0.3 2.4 8.3-0.9-0.2-2.4z"/><path class="b" d="m315.2 155.1l0.2 2.3 8.4-0.9-0.2-2.3z"/><path class="b" d="m14.2 204.4l0.4 2.3 8.3-1.8-0.5-2.3z"/><path class="b" d="m312.7 139.4l0.5 2.3 8.2-1.8-0.5-2.3z"/><path class="b" d="m18.3 220.6l0.7 2.3 8-2.7-0.7-2.2z"/><path class="b" d="m308.5 124l0.7 2.3 8.1-2.7-0.8-2.2z"/><path class="b" d="m24.1 236.4l0.9 2.1 7.7-3.5-0.9-2.1z"/><path class="b" d="m302.8 109.2l1 2.2 7.7-3.5-1-2.2z"/><path class="b" d="m40.2 265.6l1.4 1.9 6.8-5.1-1.3-1.9z"/><path class="b" d="m287.1 81.8l1.4 1.9 6.8-5-1.4-1.9z"/><path class="b" d="m50.5 278.7l1.5 1.8 6.3-5.8-1.6-1.7z"/><path class="b" d="m277.3 69.5l1.5 1.8 6.3-5.8-1.6-1.7z"/><path class="b" d="m62 290.7l1.7 1.6 5.6-6.4-1.7-1.6z"/><path class="b" d="m266.2 58.4l1.7 1.5 5.6-6.4-1.7-1.5z"/><path class="b" d="m74.7 301.4l1.8 1.4 5-7-1.9-1.4z"/><path class="b" d="m254.1 48.5l1.8 1.3 5-6.9-1.9-1.4z"/><path class="b" d="m102.9 318.4l2.1 0.9 3.5-7.8-2.1-1z"/><path class="b" d="m227.1 32.8l2.1 0.9 3.4-7.8-2.1-1z"/><path class="b" d="m118.2 324.5l2.2 0.8 2.6-8.2-2.2-0.8z"/><path class="b" d="m212.5 27.2l2.2 0.7 2.6-8.2-2.2-0.7z"/><path class="b" d="m134 329l2.3 0.5 1.7-8.4-2.2-0.5z"/><path class="b" d="m197.5 23.2l2.2 0.5 1.8-8.4-2.3-0.5z"/><path class="b" d="m150.2 331.8l2.3 0.2 0.9-8.6-2.3-0.2z"/><path class="b" d="m182.1 20.8l2.3 0.3 0.9-8.6-2.3-0.3z"/><path class="c" d="m167.9 296.6c67.2 0 121.6-55.7 121.6-124.5 0-68.8-54.4-124.6-121.6-124.6-67.1 0-121.5 55.8-121.5 124.6 0 68.8 54.4 124.5 121.5 124.5z"/><path class="b" d="m31.2 181.9q0.3-0.8 1-1.3 0.7-0.5 1.6-0.6l2.7-0.2q0.2 0 0.3 0.1 0.2 0.1 0.2 0.3 0 0.2-0.1 0.3-0.1 0.2-0.3 0.2l-0.7 0.1q0.6 0.3 1 0.9 0.3 0.6 0.4 1.4 0.1 0.9-0.3 1.6-0.3 0.8-1 1.3-0.7 0.5-1.6 0.5-0.9 0.1-1.7-0.2-0.7-0.4-1.2-1.1-0.5-0.7-0.6-1.6-0.1-0.9 0.3-1.7zm4.9 0q-0.4-0.5-1-0.8-0.5-0.2-1.2-0.2-0.7 0.1-1.2 0.4-0.5 0.4-0.8 1-0.3 0.5-0.2 1.2 0.1 0.7 0.4 1.2 0.4 0.5 1 0.8 0.5 0.2 1.2 0.2 0.7-0.1 1.2-0.4 0.5-0.4 0.8-1 0.2-0.5 0.2-1.2-0.1-0.7-0.4-1.2z"/><path class="b" d="m29.2 178.3q-0.2 0.2-0.4 0.2-0.3 0-0.5-0.1-0.2-0.2-0.2-0.5 0-0.3 0.2-0.4 0.1-0.2 0.4-0.3 0.3 0 0.5 0.2 0.2 0.2 0.2 0.5 0 0.2-0.2 0.4zm10.3 1.7q-0.1 0.1-0.3 0.1-0.2 0-0.3-0.1-0.1-0.1-0.1-0.3-0.1-0.8-0.6-1.3-0.5-0.5-1.3-0.5l-5.9 0.3q-0.2 0-0.3-0.1-0.1-0.1-0.1-0.3 0-0.2 0.1-0.3 0.1-0.2 0.3-0.2l5.8-0.3q0.8 0 1.4 0.3 0.7 0.3 1 0.9 0.4 0.7 0.4 1.4 0 0.2-0.1 0.4z"/><path class="b" d="m30.7 170.3q0.3-0.7 1-1.1 0.6-0.4 1.6-0.4h3q0.1 0 0.3 0.1 0.1 0.2 0.1 0.4 0 0.2-0.1 0.3-0.2 0.1-0.3 0.1h-3q-1.1 0-1.6 0.6-0.5 0.6-0.5 1.6 0 0.5 0.2 1 0.2 0.5 0.6 0.7 0.4 0.3 0.9 0.3h3.4q0.2 0 0.3 0.1 0.1 0.1 0.1 0.3 0 0.2-0.1 0.4-0.1 0.1-0.3 0.1h-5.4q-0.2 0-0.3-0.1-0.2-0.1-0.2-0.3 0-0.2 0.1-0.3 0.2-0.2 0.4-0.2h0.4q-0.5-0.4-0.7-0.9-0.3-0.6-0.3-1.2 0-0.8 0.4-1.5z"/><path class="b" d="m31 162.4q0.4-0.7 1.2-1 0.7-0.4 1.6-0.3 0.2 0 0.3 0.1 0.1 0.1 0.1 0.3l-0.3 4.8q1-0.1 1.6-0.7 0.6-0.6 0.7-1.6 0-0.4-0.1-0.9-0.2-0.4-0.4-0.7-0.1-0.1-0.1-0.3 0-0.1 0.1-0.3 0.2-0.1 0.3-0.1 0.2 0 0.3 0.1 0.3 0.4 0.5 1.1 0.2 0.6 0.2 1.1-0.1 1-0.5 1.7-0.5 0.7-1.2 1.1-0.8 0.4-1.7 0.3-0.9 0-1.6-0.5-0.7-0.4-1.1-1.1-0.4-0.7-0.3-1.7 0-0.8 0.4-1.5zm0.8 3.1q0.5 0.6 1.4 0.8l0.2-4.3q-0.9 0-1.4 0.6-0.6 0.5-0.7 1.4 0 0.9 0.5 1.5z"/><path class="b" d="m31.6 155.1q0.5-0.6 1.2-0.9 0.8-0.3 1.7-0.2 0.2 0 0.3 0.2 0 0.1 0 0.3l-0.4 4.7q0.9 0 1.6-0.6 0.6-0.6 0.7-1.6 0.1-0.4 0-0.8-0.1-0.5-0.3-0.7-0.1-0.2-0.1-0.4 0-0.1 0.1-0.2 0.2-0.2 0.3-0.1 0.2 0 0.3 0.1 0.3 0.4 0.4 1.1 0.2 0.6 0.1 1.1-0.1 1-0.6 1.6-0.4 0.7-1.2 1.1-0.8 0.3-1.7 0.2-0.9-0.1-1.6-0.5-0.7-0.5-1-1.2-0.4-0.8-0.3-1.7 0.1-0.8 0.6-1.5zm0.6 3.1q0.5 0.7 1.4 0.9l0.4-4.3q-0.9 0-1.5 0.5-0.6 0.5-0.7 1.4-0.1 0.9 0.4 1.5z"/><path class="b" d="m48.5 114.9q0.1 0.1 0.2 0.2 0 0.2-0.1 0.4 0 0.1-0.1 0.2-0.1 0-0.2 0.1l-3.9 0.6-0.1 0.2-0.6 1.5 2.8 1.3q0.1 0.1 0.2 0.2 0.1 0.2 0 0.4-0.1 0.2-0.2 0.2-0.2 0.1-0.4 0l-7.4-3.3q-0.2 0-0.2-0.2-0.1-0.2 0-0.4l0.8-2q0.4-0.8 1-1.2 0.5-0.5 1.3-0.6 0.7-0.1 1.4 0.2 0.8 0.4 1.3 1.1 0.4 0.7 0.3 1.6l3.6-0.5q0.1-0.1 0.3 0zm-4.9 1.3q0.2-0.5 0.2-1.1-0.1-0.5-0.3-0.9-0.3-0.4-0.8-0.6-0.5-0.3-1-0.2-0.5 0.1-0.9 0.4-0.4 0.3-0.7 0.9l-0.6 1.6 3.4 1.5z"/><path class="b" d="m45.9 107.4q0.6-0.4 1.4-0.4 0.8 0 1.6 0.4 0.1 0.1 0.2 0.2 0 0.2 0 0.3l-2.1 4.3q0.9 0.4 1.7 0 0.8-0.3 1.2-1.2 0.2-0.4 0.3-0.8 0-0.5-0.1-0.8 0-0.2 0.1-0.3 0-0.1 0.2-0.2 0.2-0.1 0.3 0 0.2 0 0.2 0.2 0.1 0.5 0.1 1.1-0.1 0.7-0.4 1.2-0.4 0.8-1.1 1.3-0.7 0.5-1.5 0.5-0.8 0.1-1.6-0.4-0.9-0.4-1.4-1.1-0.4-0.7-0.5-1.5-0.1-0.8 0.3-1.6 0.4-0.8 1.1-1.2zm-0.5 3.1q0.2 0.8 1 1.3l1.8-3.8q-0.8-0.4-1.5-0.1-0.8 0.3-1.1 1-0.4 0.8-0.2 1.6z"/><path class="b" d="m53.3 104.5q0.2-0.1 0.4 0 0.1 0.1 0.2 0.3 0 0.2-0.1 0.4l-0.1 0.2q-0.3 0.5-0.8 0.8-0.5 0.3-1.1 0.3-0.5 0-1.1-0.3l-2.7-1.6-0.3 0.7q-0.1 0.2-0.3 0.2-0.1 0.1-0.3 0-0.1-0.1-0.1-0.3-0.1-0.1 0-0.3l0.4-0.7-1.6-0.8q-0.2-0.1-0.2-0.3-0.1-0.2 0-0.3 0.1-0.2 0.3-0.3 0.2 0 0.3 0.1l1.6 0.9 0.6-1.2q0.1-0.2 0.3-0.2 0.1-0.1 0.3 0 0.1 0.1 0.1 0.3 0.1 0.1 0 0.3l-0.6 1.1 2.7 1.6q0.5 0.3 1 0.1 0.5-0.1 0.7-0.6l0.2-0.2q0.1-0.2 0.2-0.2z"/><path class="b" d="m52.4 95.4q0.1-0.1 0.3 0l4.6 2.9q0.2 0.1 0.2 0.3 0.1 0.2 0 0.4-0.1 0.1-0.3 0.2-0.2 0-0.3-0.1l-0.4-0.2q0.2 0.5 0.1 1.1-0.1 0.6-0.4 1.2-0.4 0.7-1.1 1.1-0.6 0.4-1.4 0.3-0.7 0-1.5-0.5l-2.5-1.6q-0.2-0.1-0.2-0.3-0.1-0.2 0-0.3 0.1-0.2 0.3-0.2 0.2-0.1 0.3 0l2.6 1.6q0.8 0.6 1.6 0.4 0.7-0.2 1.2-1 0.3-0.5 0.4-1 0-0.5-0.2-1-0.1-0.4-0.5-0.7l-2.9-1.8q-0.2-0.1-0.3-0.3 0-0.2 0.1-0.3 0.1-0.2 0.3-0.2z"/><path class="b" d="m55.7 90.2q0.3-0.2 0.5 0 0 0 0.1 0 0.1 0.2 0.1 0.3-0.1 0.1-0.2 0.3 0 0-0.2 0.2 0 0.1-0.1 0.3-0.5 0.7-0.5 1.4 0.1 0.8 0.7 1.2l2.8 2q0.2 0.1 0.2 0.3 0.1 0.1-0.1 0.3-0.1 0.2-0.2 0.2-0.2 0-0.4-0.1l-4.4-3.1q-0.2-0.1-0.2-0.3-0.1-0.2 0.1-0.4 0.1-0.1 0.3-0.2 0.1 0 0.3 0.1l0.4 0.3q-0.2-0.5-0.1-1.1 0-0.6 0.4-1.1 0.3-0.4 0.5-0.6z"/><path class="b" d="m59.7 85.2q0.6-0.3 1.4-0.2 0.7 0.1 1.5 0.7l2.3 1.8q0.2 0.1 0.2 0.3 0 0.2-0.1 0.3-0.1 0.2-0.3 0.2-0.2 0.1-0.3-0.1l-2.4-1.8q-0.8-0.6-1.5-0.5-0.8 0.1-1.4 0.9-0.3 0.4-0.4 0.9-0.1 0.5 0 1 0.2 0.4 0.5 0.7l2.7 2.2q0.2 0.1 0.2 0.3 0.1 0.1-0.1 0.3-0.1 0.1-0.3 0.2-0.1 0-0.3-0.1l-4.3-3.4q-0.1-0.1-0.2-0.3 0-0.2 0.1-0.3 0.2-0.2 0.3-0.2 0.2 0 0.4 0.1l0.3 0.3q-0.1-0.6 0-1.2 0.1-0.6 0.5-1.1 0.5-0.7 1.2-1z"/><path class="b" d="m55.6 258.2q0-0.2 0.2-0.3l6.2-5.3q0.2-0.1 0.4-0.1 0.1 0 0.3 0.2 0.1 0.1 0.1 0.3 0 0.2-0.2 0.3l-5 4.3 7.1-1.8q0.2 0 0.4 0.2 0.2 0.2 0 0.5l-2.9 6.7 5-4.2q0.1-0.1 0.3-0.1 0.2 0 0.3 0.2 0.1 0.1 0.1 0.3 0 0.2-0.2 0.3l-6.2 5.3q-0.2 0.1-0.3 0.1-0.2 0-0.3-0.2-0.2-0.2-0.1-0.5l3.3-7.6-7.9 1.9q-0.3 0-0.5-0.2-0.1-0.1-0.1-0.3z"/><path class="b" d="m54.1 250.8q-0.1-0.8 0.3-1.6 0.3-0.8 1-1.3l2.2-1.6q0.2-0.1 0.4-0.1 0.1 0 0.2 0.2 0.2 0.1 0.1 0.3 0 0.2-0.1 0.3l-0.6 0.4q0.7 0 1.3 0.4 0.6 0.3 1 0.9 0.6 0.7 0.6 1.6 0.1 0.8-0.3 1.6-0.3 0.8-1.1 1.3-0.7 0.5-1.5 0.6-0.9 0.1-1.6-0.2-0.8-0.4-1.3-1.2-0.5-0.7-0.6-1.6zm4.2-2.5q-0.5-0.2-1.2-0.2-0.6 0.1-1.1 0.5-0.6 0.4-0.9 1-0.2 0.6-0.2 1.2 0.1 0.6 0.5 1.2 0.3 0.5 0.9 0.8 0.6 0.2 1.2 0.2 0.6-0.1 1.2-0.5 0.5-0.4 0.8-1 0.2-0.6 0.2-1.2-0.1-0.6-0.5-1.2-0.3-0.5-0.9-0.8z"/><path class="b" d="m50.2 245.5q0-0.3 0.2-0.5 0.1 0 0.1 0 0.1-0.1 0.2 0 0.1 0 0.2 0.2 0.1 0.1 0.2 0.3 0.1 0.1 0.2 0.3 0.4 0.7 1.1 0.9 0.7 0.2 1.3-0.2l2.9-1.9q0.2-0.1 0.3-0.1 0.2 0 0.3 0.2 0.1 0.2 0.1 0.4-0.1 0.1-0.2 0.2l-4.6 3.1q-0.2 0.1-0.3 0-0.2 0-0.3-0.2-0.1-0.2-0.1-0.3 0.1-0.2 0.2-0.3l0.5-0.3q-0.6 0-1.1-0.3-0.5-0.3-0.9-0.8-0.2-0.4-0.3-0.7z"/><path class="b" d="m52.2 237q0.1-0.1 0.3 0 0.2 0.1 0.2 0.2 0.1 0.2 0.1 0.4l-1.3 3.6 1.1 0.3 1.5-0.9q0.2-0.1 0.3-0.1 0.2 0.1 0.3 0.2 0.1 0.2 0.1 0.4-0.1 0.1-0.2 0.2l-7 4.3q-0.2 0.1-0.3 0-0.2 0-0.3-0.2-0.1-0.2-0.1-0.3 0.1-0.2 0.2-0.3l4.5-2.7-4.1-1.4q-0.2 0-0.3-0.2-0.1-0.1 0-0.3 0.1-0.2 0.2-0.2 0.1-0.1 0.3-0.1l3 1 1.3-3.7q0-0.1 0.1-0.2z"/><path class="b" d="m44.9 235.3q0.1-0.8 0.5-1.4 0.5-0.7 1.3-1.1 0.1-0.1 0.3-0.1 0.1 0.1 0.2 0.3l2.2 4.2q0.8-0.6 1-1.4 0.2-0.9-0.2-1.8-0.2-0.4-0.6-0.7-0.3-0.3-0.6-0.4-0.2-0.1-0.3-0.2 0-0.1 0-0.3 0-0.2 0.2-0.3 0.1-0.1 0.3 0 0.5 0.2 0.9 0.6 0.5 0.4 0.7 0.9 0.5 0.9 0.5 1.7-0.1 0.9-0.5 1.6-0.5 0.7-1.3 1.1-0.8 0.5-1.6 0.5-0.9 0-1.5-0.4-0.7-0.4-1.1-1.2-0.4-0.8-0.4-1.6zm2.2 2.2q0.8 0.3 1.6 0l-2-3.8q-0.7 0.5-0.9 1.3-0.2 0.7 0.2 1.5 0.4 0.8 1.1 1z"/><path class="b" d="m47.1 227.9q0.1-0.2 0.3-0.2 0.1-0.1 0.3 0 0.2 0 0.3 0.2l0.1 0.2q0.3 0.6 0.2 1.2-0.1 0.6-0.4 1-0.3 0.5-0.9 0.8l-2.8 1.3 0.4 0.7q0 0.2 0 0.3 0 0.2-0.2 0.3-0.1 0.1-0.3 0-0.1-0.1-0.2-0.2l-0.3-0.7-1.7 0.8q-0.1 0.1-0.3 0-0.2-0.1-0.2-0.2-0.1-0.2-0.1-0.4 0.1-0.2 0.3-0.2l1.6-0.8-0.6-1.2q-0.1-0.2 0-0.4 0-0.1 0.2-0.2 0.1 0 0.3 0 0.1 0.1 0.2 0.2l0.6 1.2 2.7-1.3q0.5-0.3 0.7-0.8 0.2-0.5 0-1l-0.1-0.3q-0.1-0.1-0.1-0.3z"/><path class="b" d="m40.4 229.8q-0.1 0.2-0.3 0.3-0.3 0.2-0.5 0.1-0.3-0.1-0.4-0.4-0.1-0.2 0-0.5 0.1-0.2 0.3-0.3 0.3-0.1 0.5 0 0.3 0 0.4 0.3 0.1 0.2 0 0.5zm6.8-3.3q-0.1 0.2-0.2 0.2l-5 2.3q-0.1 0.1-0.3 0-0.2 0-0.2-0.2-0.1-0.2-0.1-0.4 0.1-0.1 0.3-0.2l4.9-2.3q0.2-0.1 0.3 0 0.2 0.1 0.3 0.2 0.1 0.2 0 0.4z"/><path class="b" d="m39.1 222.3q0.1-0.7 0.5-1.3 0.5-0.6 1.4-1l2.7-1.1q0.2-0.1 0.4 0 0.2 0 0.2 0.2 0.1 0.2 0 0.4-0.1 0.1-0.2 0.2l-2.8 1.2q-0.9 0.3-1.2 1.1-0.3 0.7 0 1.6 0.2 0.5 0.6 0.9 0.4 0.3 0.8 0.4 0.5 0.1 0.9 0l3.2-1.4q0.2 0 0.3 0 0.2 0.1 0.3 0.3 0 0.2 0 0.3-0.1 0.2-0.3 0.3l-5 2.1q-0.2 0.1-0.4 0-0.1-0.1-0.2-0.3-0.1-0.2 0-0.3 0.1-0.2 0.3-0.3l0.3-0.1q-0.5-0.2-0.9-0.6-0.5-0.5-0.7-1.1-0.3-0.7-0.2-1.5z"/><path class="b" d="m36.6 215.1q0.2-0.9 0.7-1.5 0.6-0.6 1.5-1l2.2-0.7q0.9-0.3 1.7-0.2 0.8 0.2 1.5 0.7 0.6 0.6 0.9 1.4 0.3 0.9 0.2 1.7-0.1 0.8-0.5 1.4 0 0.2-0.2 0.2-0.2 0.1-0.3-0.1-0.1-0.1-0.2-0.2 0-0.1 0-0.2 0-0.1 0.1-0.2 0.3-0.5 0.3-1.1 0.1-0.6-0.1-1.2-0.2-0.6-0.7-1-0.5-0.4-1.1-0.5-0.7-0.1-1.3 0.1l-0.5 0.2q0.7 0.1 1.3 0.6 0.5 0.5 0.8 1.3 0.3 0.8 0.1 1.7-0.1 0.8-0.7 1.4-0.6 0.6-1.4 0.9-0.9 0.3-1.8 0.2-0.8-0.2-1.4-0.7-0.6-0.6-0.9-1.5-0.3-0.9-0.2-1.7zm4.8-1.2q-0.5-0.4-1.1-0.5-0.6-0.1-1.2 0.1-0.7 0.2-1.1 0.7-0.4 0.5-0.6 1.1-0.1 0.6 0.1 1.2 0.3 0.7 0.7 1.1 0.5 0.4 1.1 0.5 0.6 0.1 1.3-0.1 0.6-0.2 1.1-0.7 0.4-0.5 0.5-1.1 0.1-0.6-0.1-1.3-0.2-0.6-0.7-1z"/><path class="b" d="m123.7 299.1q0.8 0.9 1 2.1 0.2 1.2-0.3 2.5-0.4 1.3-1.3 2.1-0.9 0.8-2.1 1-1.2 0.2-2.4-0.3-1.3-0.4-2.1-1.3-0.7-1-0.9-2.2-0.2-1.2 0.2-2.5 0.4-1.2 1.4-2 0.9-0.9 2.1-1.1 1.2-0.2 2.4 0.3 1.2 0.4 2 1.4zm-4.3-0.8q-0.9 0.2-1.7 0.9-0.7 0.6-1.1 1.6-0.3 1.1-0.2 2 0.2 1 0.8 1.8 0.7 0.8 1.6 1.1 1 0.4 2 0.2 1-0.2 1.7-0.8 0.8-0.7 1.1-1.7 0.4-1 0.2-2-0.1-1-0.8-1.8-0.6-0.7-1.6-1.1-1-0.4-1.9-0.2z"/><path class="b" d="m109.6 299.3q-0.5-0.7-0.6-1.5-0.1-0.9 0.3-1.7 0.3-0.9 1-1.4 0.7-0.5 1.5-0.6 0.8-0.1 1.6 0.2 0.7 0.3 1.1 0.9 0.5 0.6 0.6 1.2l1.4-3.1q0-0.2 0.2-0.3 0.2 0 0.4 0 0.1 0.1 0.2 0.3 0.1 0.2 0 0.3l-1.1 2.5c0-0.1 0 0 0 0.1l-1.1 2.5q-0.3 0.8-1 1.4-0.7 0.5-1.5 0.6-0.9 0.1-1.7-0.3-0.8-0.4-1.3-1.1zm2.3-4.4q-0.6 0.1-1.1 0.5-0.5 0.4-0.7 1-0.3 0.7-0.2 1.3 0 0.6 0.4 1.1 0.3 0.6 0.9 0.8 0.6 0.3 1.2 0.2 0.7 0 1.2-0.4 0.5-0.4 0.7-1.1 0.1-0.2 0.1-0.2 0-0.1 0-0.1 0.3-0.9-0.1-1.7-0.3-0.8-1.1-1.2-0.6-0.2-1.3-0.2z"/><path class="b" d="m103.2 296.2q-0.4-0.7-0.4-1.5 0-0.8 0.4-1.6 0-0.2 0.2-0.3 0.1 0 0.3 0.1l4.1 2.1q0.4-0.9 0.1-1.7-0.3-0.9-1.2-1.3-0.4-0.2-0.8-0.3-0.5 0-0.8 0.1-0.1 0-0.3-0.1-0.1 0-0.2-0.2 0-0.2 0-0.3 0.1-0.2 0.2-0.2 0.5-0.1 1.2-0.1 0.6 0.1 1 0.4 0.9 0.4 1.3 1.1 0.5 0.7 0.5 1.6 0.1 0.8-0.3 1.7-0.5 0.8-1.1 1.3-0.7 0.5-1.5 0.6-0.8 0-1.6-0.4-0.7-0.4-1.1-1zm3 0.5q0.8-0.3 1.3-1l-3.8-2q-0.3 0.9 0 1.6 0.2 0.8 1 1.2 0.8 0.4 1.5 0.2z"/><path class="b" d="m97.7 293.4q-0.2-0.2-0.1-0.4 0.1-0.1 0.1-0.1 0.1-0.1 0.2-0.1 0.1 0 0.3 0 0.1 0.1 0.3 0.2 0 0.1 0.2 0.2 0.8 0.4 1.5 0.3 0.7-0.2 1-0.8l1.7-3.1q0.1-0.2 0.3-0.2 0.1-0.1 0.3 0 0.2 0.1 0.2 0.3 0.1 0.1 0 0.3l-2.7 4.9q-0.1 0.2-0.2 0.2-0.2 0.1-0.4 0-0.2-0.1-0.2-0.3 0-0.2 0.1-0.4l0.2-0.4q-0.5 0.3-1.1 0.2-0.6 0-1.1-0.3-0.4-0.2-0.6-0.5z"/><path class="b" d="m93.5 290.4q-0.5-0.7-0.4-1.6 0-0.8 0.5-1.6l1.4-2.4q0.1-0.2 0.2-0.2 0.2 0 0.4 0.1 0.1 0.1 0.2 0.2 0 0.2-0.1 0.4l-0.3 0.6q0.6-0.3 1.3-0.2 0.7 0 1.3 0.4 0.8 0.5 1.2 1.2 0.3 0.8 0.3 1.6 0 0.9-0.5 1.7-0.5 0.8-1.2 1.2-0.7 0.4-1.6 0.4-0.8-0.1-1.6-0.5-0.8-0.5-1.2-1.3zm3-4q-0.7 0-1.2 0.3-0.5 0.3-0.9 0.9-0.4 0.6-0.4 1.3 0 0.6 0.3 1.1 0.3 0.6 0.8 1 0.6 0.3 1.2 0.3 0.6 0 1.2-0.3 0.5-0.3 0.9-0.9 0.3-0.6 0.4-1.2 0-0.7-0.3-1.2-0.3-0.6-0.9-0.9-0.5-0.4-1.1-0.4z"/><path class="b" d="m91.4 282.7q-0.1-0.2 0-0.3 0.1-0.2 0.3-0.2 0.2-0.1 0.4 0.1l0.2 0.1q0.5 0.3 0.7 0.9 0.3 0.5 0.2 1.1 0 0.6-0.4 1.1l-1.7 2.6 0.6 0.4q0.2 0.1 0.2 0.3 0 0.1-0.1 0.3-0.1 0.1-0.2 0.2-0.2 0-0.3-0.1l-0.6-0.4-1 1.5q-0.1 0.1-0.3 0.2-0.2 0-0.3-0.1-0.2-0.1-0.2-0.3-0.1-0.2 0-0.3l1-1.5-1.1-0.8q-0.1-0.1-0.1-0.2-0.1-0.2 0-0.3 0.1-0.2 0.3-0.2 0.1 0 0.3 0.1l1.1 0.7 1.7-2.6q0.3-0.5 0.2-1-0.1-0.5-0.5-0.8l-0.3-0.2q-0.1-0.1-0.2-0.3z"/><path class="b" d="m86.4 287.8q0.1 0.3-0.1 0.5-0.1 0.2-0.4 0.2-0.2 0.1-0.4-0.1-0.2-0.1-0.3-0.4 0-0.2 0.1-0.5 0.2-0.2 0.4-0.2 0.3-0.1 0.5 0.1 0.2 0.1 0.2 0.4zm4.3-6.4q0 0.2-0.1 0.4l-3.1 4.5q-0.1 0.1-0.3 0.2-0.2 0-0.3-0.1-0.2-0.1-0.2-0.3 0-0.2 0.1-0.3l3.1-4.5q0.1-0.2 0.3-0.2 0.2-0.1 0.3 0 0.2 0.2 0.2 0.3z"/><path class="b" d="m87.7 279.5q0.3 0.8 0.2 1.6-0.2 0.8-0.7 1.6-0.6 0.7-1.3 1.1-0.8 0.3-1.6 0.2-0.9-0.1-1.6-0.7-0.7-0.6-1-1.4-0.4-0.7-0.2-1.6 0.1-0.9 0.6-1.6 0.6-0.7 1.4-1.1 0.7-0.3 1.6-0.2 0.8 0.1 1.5 0.7 0.7 0.6 1.1 1.3zm-2.7-1.2q-0.6 0-1.2 0.2-0.6 0.3-1 0.8-0.4 0.6-0.5 1.2-0.1 0.7 0.1 1.2 0.3 0.6 0.8 1 0.5 0.5 1.1 0.5 0.6 0.1 1.2-0.1 0.6-0.3 1-0.9 0.4-0.5 0.5-1.1 0.1-0.7-0.1-1.3-0.3-0.6-0.8-1-0.5-0.4-1.1-0.5z"/><path class="b" d="m75.9 277.2q-0.2-0.7-0.1-1.5 0.2-0.8 0.8-1.5l1.9-2.3q0.1-0.1 0.3-0.2 0.2 0 0.3 0.2 0.2 0.1 0.2 0.3 0 0.2-0.1 0.3l-2 2.3q-0.6 0.8-0.5 1.6 0 0.8 0.7 1.4 0.5 0.4 1 0.5 0.4 0.2 0.9 0.1 0.4-0.2 0.8-0.5l2.2-2.7q0.1-0.1 0.3-0.1 0.1-0.1 0.3 0.1 0.1 0.1 0.2 0.3 0 0.2-0.1 0.3l-3.6 4.2q-0.1 0.2-0.3 0.2-0.2 0-0.3-0.1-0.2-0.2-0.2-0.4 0-0.1 0.2-0.3l0.2-0.3q-0.5 0.1-1.1-0.1-0.6-0.2-1.1-0.6-0.6-0.5-0.9-1.2z"/><path class="b" d="m248.8 277.7q-0.1-0.1 0-0.3 0-0.2 0.2-0.3 0.1-0.1 0.2-0.1 0.1 0 0.2 0l3.7 1.2 0.2-0.1 1.3-1.1-2-2.4q-0.1-0.2-0.1-0.4 0-0.2 0.1-0.3 0.2-0.1 0.4-0.1 0.1 0 0.3 0.2l5.2 6.3q0.1 0.1 0.1 0.3 0 0.2-0.2 0.3l-1.6 1.5q-0.6 0.5-1.4 0.7-0.7 0.1-1.4-0.1-0.7-0.3-1.2-0.9-0.6-0.7-0.6-1.5-0.1-0.9 0.3-1.6l-3.4-1.1q-0.2-0.1-0.2-0.2zm4.9 1.1q-0.4 0.4-0.6 0.8-0.2 0.5-0.2 1 0.1 0.5 0.5 0.9 0.3 0.5 0.8 0.6 0.5 0.2 1 0.1 0.5-0.1 0.9-0.5l1.3-1.1-2.4-3z"/><path class="b" d="m248.4 285.2q-0.7 0.1-1.5-0.2-0.7-0.4-1.2-1.1-0.1-0.2-0.1-0.3 0-0.2 0.2-0.3l3.6-2.9q-0.6-0.7-1.5-0.8-0.8-0.1-1.6 0.5-0.3 0.3-0.6 0.7-0.2 0.3-0.3 0.7 0 0.2-0.2 0.3-0.1 0.1-0.2 0.1-0.2-0.1-0.3-0.2-0.1-0.1-0.1-0.3 0.1-0.5 0.4-1 0.4-0.6 0.8-0.9 0.7-0.6 1.6-0.7 0.8-0.1 1.6 0.2 0.7 0.3 1.3 1.1 0.5 0.7 0.7 1.6 0.1 0.8-0.2 1.6-0.3 0.7-1 1.3-0.6 0.5-1.4 0.6zm1.8-2.6q0.1-0.8-0.3-1.6l-3.4 2.6q0.6 0.7 1.4 0.8 0.8 0 1.5-0.5 0.6-0.5 0.8-1.3z"/><path class="b" d="m242.4 282.4q0.7-0.2 1.3-0.1 0.2 0.1 0.2 0.2 0.1 0.1 0.1 0.4-0.1 0.1-0.2 0.2-0.2 0.1-0.4 0.1-0.4-0.1-0.9 0-0.4 0.1-0.9 0.4-0.6 0.5-0.8 1-0.2 0.5 0.1 0.8 0.2 0.4 0.7 0.4 0.5 0 1.3-0.4 1-0.5 1.7-0.5 0.7 0.1 1.1 0.6 0.5 0.7 0.2 1.5-0.3 0.8-1.1 1.3-0.6 0.5-1.2 0.6-0.6 0.1-1.1-0.1-0.2-0.1-0.3-0.1-0.1-0.2 0-0.4 0-0.1 0.1-0.2 0.2-0.1 0.5-0.1 0.8 0.2 1.6-0.3 0.5-0.4 0.7-0.8 0.2-0.5-0.1-0.8-0.2-0.4-0.6-0.4-0.5 0-1.3 0.4-1.1 0.6-1.8 0.5-0.7-0.1-1.1-0.7-0.3-0.4-0.3-0.9 0-0.6 0.3-1.1 0.4-0.5 0.9-0.9 0.6-0.4 1.3-0.6z"/><path class="b" d="m237.6 285.9q0.9 0 1.6 0.4 0.7 0.4 1.2 1.2 0.5 0.8 0.5 1.6 0.1 0.9-0.3 1.7-0.4 0.7-1.2 1.2-0.8 0.5-1.6 0.5-0.8 0.1-1.6-0.3-0.7-0.5-1.2-1.2-0.5-0.8-0.5-1.7 0-0.8 0.3-1.6 0.4-0.8 1.2-1.3 0.8-0.5 1.6-0.5zm-2 2.2q-0.3 0.5-0.3 1.2 0.1 0.6 0.4 1.2 0.4 0.6 1 0.9 0.5 0.3 1.1 0.3 0.6 0 1.2-0.4 0.6-0.3 0.8-0.9 0.3-0.6 0.3-1.2 0-0.6-0.4-1.2-0.4-0.6-0.9-0.9-0.6-0.3-1.2-0.3-0.6 0-1.2 0.4-0.5 0.3-0.8 0.9z"/><path class="b" d="m230.5 297.1q-0.1-0.1-0.2-0.3l-2.7-4.8q0-0.2 0-0.3 0.1-0.2 0.2-0.3 0.2-0.1 0.4-0.1 0.1 0.1 0.2 0.3l0.2 0.3q0.1-0.6 0.5-1 0.4-0.5 0.9-0.8 0.7-0.4 1.5-0.5 0.7 0 1.3 0.4 0.7 0.4 1.1 1.3l1.5 2.7q0.1 0.1 0 0.3 0 0.2-0.2 0.3-0.2 0.1-0.3 0-0.2 0-0.3-0.2l-1.4-2.7q-0.5-0.9-1.3-1.1-0.7-0.2-1.6 0.3-0.4 0.2-0.7 0.7-0.3 0.4-0.4 0.9 0 0.4 0.2 0.9l1.6 3q0.1 0.2 0.1 0.4 0 0.1-0.2 0.2-0.2 0.1-0.4 0.1z"/><path class="b" d="m225.7 299.6q-0.3 0-0.4-0.2 0 0-0.1-0.1 0-0.2 0.1-0.3 0 0 0.2-0.1 0.1-0.1 0.3-0.2 0.1 0 0.3-0.1 0.7-0.4 1-1 0.3-0.7 0-1.4l-1.5-3.1q-0.1-0.2-0.1-0.4 0.1-0.1 0.3-0.2 0.2-0.1 0.3-0.1 0.2 0.1 0.3 0.3l2.4 4.9q0 0.2 0 0.4-0.1 0.1-0.2 0.2-0.2 0.1-0.4 0.1-0.1-0.1-0.2-0.3l-0.3-0.4q0 0.6-0.4 1-0.3 0.5-0.9 0.8-0.4 0.2-0.7 0.2z"/><path class="b" d="m221.6 294.9q0.8 0.1 1.5 0.6 0.7 0.5 1 1.4 0.4 0.8 0.4 1.7-0.1 0.8-0.6 1.5-0.4 0.7-1.2 1.1-1.3 0.6-2.6-0.1-0.1-0.1-0.2-0.2 0-0.2 0.1-0.4 0.1-0.1 0.2-0.1 0.1-0.1 0.3 0 0.5 0.2 1 0.2 0.4 0 0.9-0.2 0.6-0.3 0.9-0.8 0.3-0.5 0.3-1.1 0.1-0.6-0.2-1.2-0.3-0.7-0.8-1.1-0.5-0.4-1.1-0.4-0.6-0.1-1.2 0.2-0.8 0.4-1.1 1.1-0.1 0.1-0.3 0.2-0.1 0.1-0.2 0-0.2 0-0.3-0.2-0.1-0.1 0-0.3 0.4-1.1 1.6-1.6 0.8-0.4 1.6-0.3z"/><path class="b" d="m215.2 303.9q-0.7-0.1-1.3-0.7-0.6-0.5-1-1.4 0-0.1 0-0.3 0.1-0.1 0.3-0.2l4.3-1.7q-0.4-0.9-1.2-1.2-0.8-0.3-1.7 0-0.4 0.2-0.8 0.5-0.3 0.3-0.5 0.6-0.1 0.1-0.2 0.2-0.1 0-0.3 0-0.2-0.1-0.2-0.2-0.1-0.2 0-0.3 0.2-0.5 0.7-0.9 0.5-0.4 1-0.6 0.8-0.4 1.6-0.3 0.9 0.1 1.5 0.7 0.7 0.5 1 1.4 0.3 0.9 0.2 1.8 0 0.8-0.5 1.4-0.5 0.7-1.3 1-0.8 0.3-1.6 0.2zm2.4-2q0.4-0.7 0.2-1.6l-4 1.6q0.4 0.8 1.2 1.1 0.7 0.3 1.5 0 0.8-0.4 1.1-1.1z"/><path class="b" d="m210.2 299.4q0.7 0.1 1.3 0.4 0.1 0.1 0.2 0.2 0 0.2-0.1 0.4-0.1 0.1-0.2 0.2-0.2 0-0.4-0.1-0.4-0.2-0.9-0.2-0.5 0-1 0.2-0.7 0.2-1 0.6-0.3 0.4-0.2 0.9 0.1 0.4 0.6 0.5 0.5 0.1 1.4 0 1.1-0.2 1.8 0 0.6 0.3 0.8 0.9 0.3 0.8-0.2 1.5-0.4 0.6-1.4 1-0.7 0.2-1.3 0.2-0.6-0.1-1.1-0.4-0.1-0.2-0.1-0.3-0.1-0.2 0-0.3 0.1-0.1 0.2-0.1 0.2-0.1 0.5 0 0.7 0.4 1.6 0.1 0.6-0.2 0.9-0.6 0.3-0.4 0.2-0.7-0.2-0.4-0.6-0.6-0.4-0.1-1.3 0.1-1.3 0.2-1.9-0.1-0.6-0.3-0.9-1-0.1-0.5 0-1 0.2-0.5 0.6-0.9 0.5-0.4 1.2-0.6 0.6-0.3 1.3-0.2z"/><path class="b" d="m190.6 303.7q0.1 0.1 0.2 0.3l1.2 8.2q0.1 0.2 0 0.4-0.1 0.1-0.3 0.1l-2.1 0.4q-1.3 0.2-2.4-0.2-1.1-0.4-1.8-1.4-0.7-0.9-0.9-2.2-0.2-1.4 0.2-2.5 0.4-1.1 1.3-1.8 0.9-0.8 2.2-1l2.1-0.3q0.1-0.1 0.3 0zm-2.3 1.1q-1 0.2-1.7 0.8-0.7 0.6-1.1 1.5-0.3 1-0.1 2 0.1 1.1 0.7 1.9 0.6 0.7 1.5 1.1 0.9 0.3 1.9 0.2l1.6-0.3-1.2-7.5z"/><path class="b" d="m178.6 311.4q-0.7-0.4-1.1-1-0.4-0.7-0.5-1.6 0-0.2 0-0.3 0.2-0.2 0.3-0.2l4.7-0.4q-0.2-1-0.9-1.5-0.7-0.6-1.7-0.5-0.4 0.1-0.8 0.3-0.4 0.2-0.6 0.4-0.2 0.1-0.3 0.2-0.1 0-0.3-0.1-0.1-0.1-0.2-0.3 0-0.2 0.1-0.3 0.4-0.4 0.9-0.6 0.6-0.3 1.1-0.4 1-0.1 1.7 0.3 0.8 0.3 1.3 1 0.4 0.7 0.5 1.7 0.1 0.9-0.2 1.7-0.3 0.8-0.9 1.3-0.7 0.4-1.5 0.5-0.9 0.1-1.6-0.2zm2.9-1.3q0.5-0.6 0.5-1.5l-4.2 0.4q0.2 0.9 0.8 1.4 0.6 0.5 1.5 0.4 0.8-0.1 1.4-0.7z"/><path class="b" d="m174.3 305.9q0.8 0.4 1.2 1.2 0.4 0.7 0.5 1.6 0 1-0.3 1.7-0.4 0.8-1.1 1.3-0.6 0.4-1.5 0.5-1.4 0-2.4-1.1-0.1-0.1-0.1-0.2 0-0.2 0.2-0.3 0.1-0.1 0.2-0.1 0.2 0 0.4 0.1 0.3 0.4 0.7 0.6 0.5 0.1 1 0.1 0.6 0 1.1-0.3 0.5-0.4 0.7-0.9 0.2-0.6 0.2-1.3 0-0.7-0.3-1.3-0.3-0.5-0.9-0.8-0.5-0.3-1.2-0.3-0.9 0.1-1.4 0.6-0.2 0.2-0.3 0.2-0.2 0-0.3-0.1-0.2-0.2-0.2-0.3 0-0.2 0.1-0.3 0.8-0.8 2.1-0.9 0.9 0 1.6 0.4z"/><path class="b" d="m168.6 313.6q0.2 0.2 0.2 0.5 0 0.3-0.2 0.5-0.2 0.1-0.4 0.1-0.3 0-0.5-0.1-0.2-0.2-0.2-0.5 0-0.3 0.2-0.5 0.2-0.1 0.5-0.1 0.2 0 0.4 0.1zm-0.2-7.7q0.1 0.1 0.1 0.3l0.1 5.6q0 0.2-0.2 0.3-0.1 0.1-0.3 0.1-0.2 0-0.3-0.1-0.1-0.1-0.1-0.3l-0.1-5.6q0-0.2 0.2-0.3 0.1-0.1 0.3-0.1 0.2 0 0.3 0.1z"/><path class="b" d="m164.6 306q0.7 0.2 1.1 0.7 0.1 0.1 0.1 0.3 0 0.2-0.2 0.3-0.1 0.1-0.3 0.1-0.2 0-0.3-0.2-0.3-0.3-0.7-0.5-0.5-0.2-1-0.2-0.9 0-1.3 0.3-0.4 0.2-0.4 0.7 0 0.4 0.4 0.7 0.4 0.3 1.3 0.5 1.1 0.2 1.6 0.7 0.6 0.4 0.5 1.1 0 0.9-0.6 1.3-0.7 0.5-1.7 0.4-0.7 0-1.3-0.3-0.5-0.2-0.9-0.7-0.1-0.2-0.1-0.3 0-0.2 0.2-0.3 0.1-0.1 0.3-0.1 0.2 0.1 0.4 0.2 0.5 0.7 1.5 0.7 0.6 0 1-0.2 0.4-0.3 0.4-0.7 0-0.4-0.3-0.7-0.4-0.2-1.3-0.4-1.2-0.2-1.7-0.7-0.6-0.5-0.5-1.2 0-0.6 0.3-1 0.3-0.4 0.9-0.6 0.6-0.2 1.3-0.2 0.7 0 1.3 0.3z"/><path class="b" d="m158.7 313.4q0.1 0.2 0.1 0.5 0 0.2-0.2 0.4-0.2 0.2-0.4 0.2-0.3-0.1-0.5-0.2-0.1-0.2-0.1-0.5 0-0.3 0.2-0.5 0.2-0.1 0.4-0.1 0.3 0 0.5 0.2zm0.3-7.7q0.1 0.1 0.1 0.3l-0.3 5.5q0 0.2-0.2 0.3-0.1 0.2-0.3 0.1-0.2 0-0.3-0.1-0.1-0.1-0.1-0.3l0.3-5.6q0-0.2 0.2-0.3 0.1-0.1 0.3-0.1 0.2 0 0.3 0.2z"/><path class="b" d="m154.8 305.6q0.7 0.5 1.1 1.3 0.3 0.8 0.2 1.7-0.1 0.9-0.6 1.6-0.5 0.7-1.2 1.1-0.8 0.3-1.7 0.2-0.9-0.1-1.6-0.6-0.7-0.5-1-1.3-0.3-0.8-0.3-1.7 0.1-0.9 0.6-1.6 0.5-0.7 1.3-1.1 0.8-0.3 1.7-0.2 0.9 0.1 1.5 0.6zm-2.9 0.4q-0.5 0.3-0.9 0.8-0.3 0.5-0.4 1.2-0.1 0.7 0.2 1.3 0.2 0.6 0.7 0.9 0.5 0.4 1.2 0.5 0.6 0.1 1.2-0.2 0.5-0.3 0.9-0.8 0.4-0.5 0.4-1.2 0.1-0.7-0.1-1.3-0.3-0.6-0.8-0.9-0.5-0.4-1.1-0.5-0.7-0.1-1.3 0.2z"/><path class="b" d="m143.1 309.8q-0.5-0.4-0.8-1.2-0.3-0.7-0.1-1.6l0.5-3.1q0-0.1 0.2-0.3 0.1-0.1 0.3 0 0.2 0 0.3 0.2 0.1 0.1 0.1 0.3l-0.5 3q-0.2 1.1 0.3 1.7 0.5 0.6 1.4 0.8 0.5 0.1 1-0.1 0.5-0.1 0.8-0.5 0.3-0.3 0.4-0.8l0.6-3.4q0-0.2 0.1-0.3 0.2-0.1 0.4-0.1 0.2 0 0.3 0.2 0.1 0.1 0 0.3l-0.8 5.5q-0.1 0.2-0.2 0.3-0.2 0.1-0.4 0.1-0.2-0.1-0.2-0.2-0.1-0.2-0.1-0.4v-0.4q-0.4 0.4-1 0.5-0.5 0.2-1.2 0.1-0.8-0.1-1.4-0.6z"/><path class="b" d="m288.1 225.8q0.2 0 0.4 0l7.4 3.4q0.1 0.1 0.2 0.3 0.1 0.1 0 0.3l-2.2 5.1q-0.1 0.1-0.3 0.2-0.1 0.1-0.3 0-0.2-0.1-0.2-0.3-0.1-0.1 0-0.3l2-4.6-2.9-1.4-1.5 3.4q0 0.2-0.2 0.3-0.2 0-0.3-0.1-0.2 0-0.3-0.2 0-0.2 0-0.4l1.5-3.3-2.9-1.4-2 4.7q-0.1 0.2-0.3 0.2-0.1 0.1-0.3 0-0.2 0-0.2-0.2-0.1-0.2 0-0.4l2.2-5q0.1-0.2 0.2-0.3z"/><path class="b" d="m288.2 239.7q-0.6 0.5-1.4 0.5-0.7 0-1.6-0.4l-2.6-1.4q-0.2-0.1-0.2-0.3-0.1-0.2 0-0.3 0.1-0.2 0.3-0.3 0.1 0 0.3 0.1l2.6 1.4q1 0.4 1.7 0.2 0.7-0.3 1.2-1.1 0.2-0.5 0.2-1 0-0.6-0.2-1-0.2-0.4-0.6-0.6l-3.1-1.6q-0.1-0.1-0.2-0.3 0-0.2 0.1-0.3 0-0.2 0.2-0.3 0.2 0 0.3 0.1l4.8 2.5q0.2 0.1 0.3 0.3 0 0.1-0.1 0.3 0 0.2-0.2 0.2-0.2 0.1-0.4 0l-0.3-0.2q0.2 0.6 0.2 1.2-0.1 0.6-0.4 1.1-0.3 0.8-0.9 1.2z"/><path class="b" d="m280.4 243q-0.2 0-0.4-0.1-0.1-0.1-0.2-0.3 0-0.2 0.1-0.4l0.1-0.2q0.3-0.5 0.8-0.8 0.5-0.3 1.1-0.3 0.5 0.1 1.1 0.4l2.7 1.6 0.3-0.7q0.1-0.2 0.3-0.2 0.1 0 0.3 0 0.1 0.1 0.1 0.3 0.1 0.1 0 0.3l-0.4 0.7 1.6 0.9q0.1 0.1 0.2 0.2 0 0.2-0.1 0.4-0.1 0.2-0.2 0.2-0.2 0.1-0.4 0l-1.5-0.9-0.7 1.1q-0.1 0.2-0.2 0.2-0.2 0.1-0.3 0-0.1-0.1-0.2-0.3 0-0.1 0.1-0.3l0.6-1.1-2.6-1.6q-0.5-0.3-1-0.2-0.5 0.1-0.8 0.6l-0.2 0.3q-0.1 0.1-0.2 0.2z"/><path class="b" d="m278.9 244.2q0.2 0 0.3 0.1l4.6 2.9q0.2 0.1 0.2 0.3 0.1 0.1 0 0.3-0.1 0.2-0.3 0.2-0.2 0-0.3-0.1l-4.6-2.9q-0.2-0.1-0.2-0.2-0.1-0.2 0-0.4 0.1-0.2 0.3-0.2zm6.5 3.9q0.2 0 0.5 0.1 0.2 0.2 0.3 0.4 0 0.3-0.1 0.5-0.2 0.2-0.4 0.3-0.3 0.1-0.5-0.1-0.2-0.1-0.3-0.4 0-0.3 0.1-0.5 0.1-0.2 0.4-0.3z"/><path class="b" d="m276.1 249.8q-0.1 0-0.3-0.1-0.1-0.1-0.2-0.3 0-0.2 0.1-0.4l0.1-0.2q0.4-0.5 0.9-0.8 0.5-0.2 1.1-0.2 0.5 0.1 1.1 0.4l2.5 1.8 0.4-0.7q0.1-0.1 0.3-0.1 0.1-0.1 0.3 0 0.1 0.1 0.1 0.3 0.1 0.1 0 0.3l-0.4 0.6 1.5 1q0.1 0.1 0.2 0.3 0 0.2-0.1 0.4-0.1 0.1-0.3 0.2-0.2 0-0.3-0.1l-1.5-1-0.7 1.1q-0.1 0.1-0.3 0.2-0.1 0-0.3-0.1-0.1-0.1-0.2-0.2 0-0.2 0.1-0.3l0.7-1.2-2.5-1.7q-0.5-0.3-1-0.2-0.5 0.1-0.8 0.5l-0.2 0.3q-0.1 0.1-0.3 0.2z"/><path class="b" d="m276.5 258.4q-0.1 0-0.2-0.2l-4.4-8q-0.2-0.2-0.1-0.4 0.1-0.1 0.2-0.1 0.2-0.2 0.4 0 0.1 0 0.2 0.1l1.3 2.5 5.9 1q0.1 0.1 0.1 0.1 0.2 0.2 0.2 0.4 0 0.1-0.1 0.2-0.1 0.2-0.4 0.2l-5.1-1 2.5 4.6q0.2 0.3 0 0.4 0 0.1-0.1 0.2-0.3 0.1-0.5 0z"/><path class="b" d="m296.8 147.1q0.1-0.2 0.3-0.2l8-1.5q0.2 0 0.3 0.1 0.2 0.1 0.2 0.3l0.5 2.8q0.1 0.7-0.1 1.3-0.2 0.6-0.6 1-0.5 0.5-1.1 0.6-0.6 0.1-1.2-0.1-0.5-0.3-0.8-0.8-0.1 0.8-0.6 1.4-0.5 0.6-1.3 0.7-0.8 0.2-1.5-0.1-0.6-0.2-1.1-0.8-0.4-0.6-0.5-1.4l-0.6-3q0-0.2 0.1-0.3zm1.3 3.1q0.2 0.9 0.7 1.3 0.6 0.5 1.4 0.3 0.8-0.1 1.1-0.7 0.4-0.6 0.3-1.5l-0.5-2.5-3.4 0.6 0.4 2.6zm4.3-1q0.1 0.7 0.6 1.1 0.4 0.3 1.1 0.2 0.7-0.1 1-0.6 0.2-0.5 0.1-1.2l-0.4-2.4-2.8 0.5 0.4 2.4z"/><path class="b" d="m304.5 157q-0.1 0.4-0.3 0.4-0.1 0-0.1 0-0.2 0-0.2-0.1-0.1-0.1-0.1-0.3 0-0.1-0.1-0.4 0.1-0.1 0-0.2-0.1-0.9-0.6-1.4-0.5-0.5-1.3-0.4l-3.4 0.5q-0.2 0-0.3-0.1-0.1-0.1-0.2-0.3 0-0.2 0.1-0.4 0.1-0.1 0.3-0.1l5.4-0.8q0.2 0 0.3 0.1 0.1 0.1 0.2 0.3 0 0.2-0.1 0.4-0.1 0.1-0.3 0.1l-0.5 0.1q0.5 0.3 0.8 0.8 0.4 0.5 0.4 1.1 0.1 0.5 0 0.7z"/><path class="b" d="m304.7 162.3q-0.3 0.8-1 1.3-0.7 0.5-1.6 0.6l-2.7 0.2q-0.2 0.1-0.3-0.1-0.2-0.1-0.2-0.3 0-0.2 0.1-0.3 0.1-0.2 0.3-0.2h0.7q-0.6-0.4-1-1-0.3-0.6-0.4-1.4-0.1-0.9 0.3-1.6 0.3-0.8 1-1.3 0.7-0.4 1.6-0.5 0.9-0.1 1.6 0.3 0.8 0.3 1.3 1 0.5 0.7 0.6 1.6 0 1-0.3 1.7zm-4.9 0q0.4 0.6 0.9 0.8 0.6 0.3 1.3 0.2 0.7-0.1 1.2-0.4 0.5-0.4 0.7-0.9 0.3-0.6 0.3-1.3-0.1-0.7-0.5-1.2-0.3-0.5-0.9-0.8-0.6-0.2-1.3-0.1-0.6 0-1.1 0.4-0.6 0.3-0.8 0.9-0.3 0.6-0.2 1.2 0 0.7 0.4 1.2z"/><path class="b" d="m305.2 169.9q-0.4 0.7-1 1.1-0.7 0.4-1.6 0.4l-3 0.1q-0.1 0-0.3-0.1-0.1-0.1-0.1-0.3 0-0.2 0.1-0.4 0.1-0.1 0.3-0.1l3-0.1q1-0.1 1.5-0.7 0.5-0.6 0.5-1.5 0-0.6-0.2-1-0.3-0.5-0.7-0.8-0.4-0.2-0.8-0.2l-3.4 0.1q-0.2 0-0.4-0.1-0.1-0.1-0.1-0.3 0-0.2 0.1-0.3 0.1-0.2 0.3-0.2l5.4-0.2q0.2 0 0.4 0.1 0.1 0.2 0.1 0.4 0 0.2-0.1 0.3-0.1 0.1-0.3 0.1h-0.4q0.4 0.4 0.7 1 0.2 0.5 0.3 1.1 0 0.9-0.3 1.6z"/><path class="b" d="m304.9 179.1h-2.7q-0.9 0-1.6-0.5-0.7-0.4-1.1-1.2-0.4-0.7-0.4-1.6 0-1 0.5-1.7 0.4-0.7 1.1-1.2 0.8-0.4 1.7-0.4 0.9 0.1 1.6 0.5 0.7 0.4 1.1 1.2 0.4 0.7 0.4 1.6 0 0.7-0.3 1.4-0.4 0.6-0.9 1l3.4 0.1q0.2 0 0.3 0.1 0.1 0.1 0.1 0.3 0 0.2-0.1 0.4-0.2 0.1-0.4 0.1l-2.5-0.1c0 0-0.1 0-0.1 0zm-4.8-2.1q0.3 0.5 0.9 0.8 0.5 0.4 1.2 0.4 0.2 0 0.3 0 0 0 0 0 0.9-0.1 1.5-0.8 0.6-0.6 0.6-1.5 0.1-0.7-0.2-1.3-0.3-0.5-0.9-0.9-0.5-0.3-1.2-0.3-0.7 0-1.2 0.3-0.6 0.3-0.9 0.8-0.3 0.6-0.4 1.2 0 0.7 0.3 1.3z"/><path class="b" d="m299.1 180.8q0.1-0.1 0.3-0.1l5.4 0.3q0.2 0 0.3 0.2 0.1 0.1 0.1 0.3 0 0.2-0.1 0.3-0.1 0.2-0.3 0.1l-5.4-0.3q-0.2 0-0.3-0.1-0.2-0.2-0.1-0.4 0-0.2 0.1-0.3zm7.5 0.3q0.2-0.1 0.5-0.1 0.3 0 0.4 0.2 0.2 0.2 0.2 0.5 0 0.2-0.2 0.4-0.2 0.2-0.5 0.2-0.2 0-0.4-0.2-0.2-0.2-0.2-0.5 0-0.3 0.2-0.4z"/><path class="b" d="m304.4 188.3q-0.4 0.7-1.1 1-0.7 0.3-1.6 0.2l-3-0.3q-0.2 0-0.3-0.2-0.1-0.1-0.1-0.3 0-0.2 0.2-0.3 0.1-0.1 0.3-0.1l3 0.3q1 0.1 1.6-0.4 0.6-0.6 0.7-1.5 0-0.6-0.2-1.1-0.1-0.4-0.5-0.8-0.3-0.3-0.8-0.3l-3.4-0.3q-0.2-0.1-0.3-0.2-0.1-0.1-0.1-0.3 0-0.2 0.2-0.4 0.1-0.1 0.3-0.1l5.4 0.6q0.2 0 0.3 0.1 0.1 0.2 0.1 0.4 0 0.2-0.2 0.3-0.1 0.1-0.3 0.1l-0.4-0.1q0.4 0.5 0.6 1 0.2 0.6 0.1 1.3-0.1 0.8-0.5 1.4z"/><path class="b" d="m303.3 195.9q-0.5 0.7-1.3 1-0.8 0.3-1.7 0.2l-2.3-0.4q-0.9-0.1-1.6-0.7-0.7-0.5-1-1.3-0.3-0.8-0.2-1.7 0.2-0.9 0.6-1.6 0.4-0.6 1.1-1 0.1-0.1 0.3-0.1 0.1 0.1 0.2 0.3 0.1 0.1 0.1 0.2 0 0.1-0.1 0.2-0.1 0.1-0.2 0.2-0.4 0.2-0.8 0.7-0.3 0.5-0.4 1.2-0.1 0.7 0.2 1.3 0.2 0.5 0.7 0.9 0.5 0.4 1.3 0.5l0.5 0.1q-0.6-0.4-0.9-1.1-0.3-0.7-0.2-1.6 0.2-0.9 0.7-1.5 0.5-0.7 1.3-1 0.8-0.2 1.7-0.1 0.9 0.1 1.6 0.7 0.6 0.5 0.9 1.3 0.3 0.8 0.2 1.7-0.2 1-0.7 1.6zm-4.8-1.2q0.3 0.6 0.8 1 0.4 0.4 1.1 0.5 0.7 0.1 1.3-0.1 0.6-0.3 1-0.7 0.4-0.5 0.5-1.2 0.1-0.7-0.2-1.3-0.2-0.6-0.7-1-0.5-0.3-1.2-0.4-0.6-0.2-1.2 0.1-0.6 0.2-1 0.7-0.4 0.5-0.5 1.2-0.1 0.6 0.1 1.2z"/><path class="b" d="m274.5 93.6q0-0.2 0.1-0.3l6.7-4.8q0.1-0.1 0.3 0 0.2 0 0.3 0.1l1.3 2q0.5 0.7 0.6 1.5 0 0.7-0.3 1.4-0.3 0.7-1 1.2-0.7 0.5-1.5 0.6-0.7 0.1-1.4-0.3-0.7-0.3-1.2-1l-1-1.6-2.2 1.6q-0.2 0.1-0.4 0.1-0.2 0-0.3-0.2-0.1-0.2-0.1-0.3zm4.7-0.1q0.4 0.5 0.9 0.7 0.4 0.2 1 0.2 0.5-0.1 1-0.4 0.5-0.4 0.7-0.9 0.2-0.4 0.2-1-0.1-0.5-0.4-1l-1.1-1.6-3.3 2.4 1.1 1.6z"/><path class="b" d="m278.7 99.2q0.3-0.6 1-1.1l5.5-3.7q0.2-0.1 0.3 0 0.2 0 0.3 0.2 0.1 0.1 0.1 0.3-0.1 0.2-0.2 0.3l-5.5 3.6q-0.4 0.3-0.6 0.6-0.2 0.4 0 0.7l0.2 0.2q0.1 0.2 0 0.3 0 0.2-0.2 0.3-0.1 0.1-0.3 0-0.2 0-0.3-0.2l-0.1-0.2q-0.4-0.6-0.1-1.2z"/><path class="b" d="m287.2 102.8q0 0.9-0.4 1.6-0.5 0.8-1.2 1.3l-2.4 1.4q-0.1 0.1-0.3 0-0.2 0-0.3-0.2-0.1-0.2 0-0.3 0-0.2 0.2-0.3l0.6-0.4q-0.7 0-1.3-0.4-0.6-0.4-1-1.1-0.4-0.8-0.4-1.6 0-0.8 0.4-1.6 0.4-0.7 1.2-1.2 0.8-0.4 1.6-0.5 0.9 0 1.6 0.4 0.8 0.5 1.2 1.3 0.5 0.8 0.5 1.6zm-4.4 2.2q0.5 0.3 1.1 0.3 0.6-0.1 1.2-0.4 0.6-0.4 0.9-0.9 0.3-0.6 0.3-1.2 0-0.6-0.3-1.2-0.3-0.6-0.9-0.9-0.5-0.3-1.1-0.3-0.7 0-1.2 0.4-0.6 0.3-0.9 0.9-0.4 0.5-0.4 1.2 0 0.6 0.4 1.2 0.3 0.5 0.9 0.8z"/><path class="b" d="m291 110q0 0.8-0.4 1.4-0.4 0.6-1.2 1.1l-2.7 1.4q-0.2 0.1-0.3 0-0.2-0.1-0.3-0.2-0.1-0.2 0-0.4 0-0.2 0.2-0.2l2.7-1.4q0.9-0.5 1.1-1.3 0.2-0.7-0.2-1.6-0.3-0.5-0.7-0.8-0.4-0.3-0.8-0.4-0.5 0-0.9 0.2l-3 1.6q-0.2 0-0.4 0-0.1 0-0.2-0.2-0.1-0.2-0.1-0.4 0.1-0.2 0.2-0.2l4.9-2.6q0.1-0.1 0.3 0 0.2 0.1 0.3 0.2 0 0.2 0 0.4-0.1 0.2-0.2 0.2l-0.4 0.2q0.6 0.2 1 0.5 0.5 0.4 0.8 1 0.3 0.7 0.3 1.5z"/><path class="b" d="m213.8 45q-0.6-0.7-0.7-1.6 0-0.1 0.1-0.2 0-0.2 0.2-0.2 0.1-0.1 0.3 0 0.2 0 0.2 0.2 0.1 0.1 0.1 0.2 0.1 0.6 0.6 1.1 0.4 0.6 1.2 0.9 0.9 0.3 1.6 0.1 0.7-0.3 1-1 0.2-0.7-0.1-1.4-0.4-0.7-1.3-1.2-1.2-0.6-1.7-1.5-0.5-1-0.1-1.9 0.2-0.7 0.7-1 0.6-0.4 1.3-0.4 0.7-0.1 1.5 0.2 0.8 0.4 1.3 1 0.6 0.6 0.7 1.4 0 0.1 0 0.3-0.1 0.2-0.3 0.2-0.1 0.1-0.2 0-0.2 0-0.2-0.1-0.1-0.1-0.2-0.3-0.2-1.2-1.4-1.6-0.9-0.4-1.5-0.2-0.7 0.2-0.9 0.9-0.5 1.3 1.4 2.3 1.3 0.7 1.7 1.6 0.5 0.9 0.1 2-0.3 0.7-0.9 1.2-0.6 0.4-1.3 0.4-0.7 0.1-1.5-0.2-1-0.4-1.7-1.2z"/><path class="b" d="m222.5 48.1q0 0.1-0.1 0.3 0 0.2-0.2 0.3-0.2 0-0.4-0.1l-0.2-0.1q-0.5-0.2-0.9-0.7-0.3-0.4-0.4-1 0-0.6 0.2-1.2l1.2-2.9-0.7-0.3q-0.1-0.1-0.2-0.2-0.1-0.1 0-0.3 0.1-0.2 0.2-0.2 0.1-0.1 0.3 0l0.7 0.3 0.7-1.7q0.1-0.2 0.2-0.2 0.2-0.1 0.4 0 0.1 0 0.2 0.2 0.1 0.2 0 0.4l-0.7 1.6 1.2 0.6q0.2 0 0.3 0.2 0 0.1 0 0.3-0.1 0.1-0.2 0.2-0.2 0-0.4 0l-1.2-0.5-1.2 2.9q-0.2 0.5 0 1 0.2 0.5 0.7 0.7l0.3 0.1q0.1 0.1 0.2 0.3z"/><path class="b" d="m228.9 44.9q0.2 0.2 0.1 0.5 0 0-0.1 0.1-0.1 0.1-0.2 0.1-0.1 0-0.3-0.1 0 0-0.3-0.1 0-0.1-0.2-0.2-0.8-0.3-1.5-0.1-0.7 0.2-1 0.8l-1.4 3.2q-0.1 0.2-0.3 0.3-0.1 0.1-0.3 0-0.2-0.1-0.2-0.3-0.1-0.1 0-0.3l2.2-5.1q0.1-0.2 0.3-0.2 0.1-0.1 0.3 0 0.2 0.1 0.3 0.3 0 0.1-0.1 0.3l-0.2 0.5q0.5-0.3 1.1-0.4 0.6 0 1.1 0.3 0.5 0.2 0.7 0.4z"/><path class="b" d="m233.3 47.6q0.5 0.7 0.5 1.5 0.1 0.9-0.3 1.7l-1.3 2.5q0 0.2-0.2 0.2-0.2 0.1-0.4 0-0.1-0.1-0.2-0.3 0-0.1 0-0.3l0.4-0.6q-0.7 0.3-1.4 0.3-0.6 0-1.3-0.4-0.8-0.4-1.2-1.1-0.5-0.7-0.5-1.5 0-0.9 0.4-1.7 0.4-0.8 1.1-1.3 0.7-0.5 1.5-0.5 0.9-0.1 1.7 0.3 0.8 0.4 1.2 1.2zm-2.6 4.2q0.6 0 1.2-0.4 0.5-0.3 0.8-1 0.3-0.6 0.3-1.2 0-0.7-0.4-1.2-0.3-0.5-0.9-0.8-0.6-0.3-1.2-0.3-0.6 0-1.1 0.4-0.6 0.3-0.9 1-0.3 0.6-0.2 1.2 0 0.7 0.3 1.2 0.4 0.5 0.9 0.8 0.6 0.3 1.2 0.3z"/><path class="b" d="m236 55.1q0 0.2-0.1 0.4 0 0.1-0.2 0.2-0.2 0-0.4-0.1l-0.2-0.1q-0.5-0.3-0.8-0.8-0.3-0.5-0.3-1.1 0-0.6 0.3-1.2l1.6-2.7-0.7-0.4q-0.2-0.1-0.2-0.2 0-0.2 0-0.3 0.1-0.2 0.3-0.2 0.1-0.1 0.3 0l0.6 0.4 0.9-1.6q0.1-0.1 0.3-0.2 0.1 0 0.3 0 0.2 0.1 0.2 0.3 0.1 0.2 0 0.4l-0.9 1.6 1.1 0.6q0.2 0.1 0.2 0.3 0.1 0.1 0 0.3-0.1 0.1-0.2 0.2-0.2 0-0.3-0.1l-1.2-0.7-1.5 2.8q-0.3 0.5-0.2 1 0.2 0.5 0.6 0.8l0.3 0.1q0.2 0.1 0.2 0.3z"/><path class="b" d="m243.1 53.3q0.4 0.7 0.3 1.5-0.1 0.8-0.5 1.6-0.1 0.2-0.3 0.2-0.1 0-0.3-0.1l-3.9-2.4q-0.5 0.8-0.2 1.7 0.2 0.8 1 1.4 0.4 0.2 0.8 0.3 0.4 0.1 0.8 0 0.2 0 0.3 0.1 0.1 0.1 0.2 0.2 0 0.2-0.1 0.4 0 0.1-0.2 0.1-0.5 0.1-1.1 0-0.6-0.1-1.1-0.4-0.8-0.5-1.2-1.3-0.4-0.7-0.3-1.6 0-0.8 0.5-1.6 0.5-0.8 1.2-1.3 0.7-0.4 1.5-0.4 0.8 0 1.5 0.5 0.8 0.5 1.1 1.2zm-3-0.8q-0.8 0.1-1.3 0.8l3.5 2.3q0.4-0.8 0.2-1.6-0.1-0.8-0.9-1.2-0.7-0.5-1.5-0.3z"/><path class="b" d="m248.7 57.2q0.4 0.8 0.3 1.6 0 0.9-0.6 1.7l-1.3 1.9q-0.5 0.8-1.3 1.2-0.7 0.4-1.6 0.3-0.8 0-1.6-0.5-0.7-0.6-1.1-1.2-0.4-0.7-0.4-1.5 0-0.2 0-0.3 0.2-0.1 0.3-0.1 0.2 0 0.3 0 0.1 0.1 0.1 0.2 0.1 0.1 0.1 0.2 0 0.6 0.3 1.1 0.3 0.5 0.9 0.9 0.5 0.4 1.1 0.4 0.6 0 1.2-0.3 0.6-0.3 1-0.9l0.3-0.4q-0.7 0.3-1.4 0.3-0.7-0.1-1.4-0.6-0.8-0.5-1.1-1.2-0.4-0.8-0.3-1.6 0.1-0.9 0.6-1.7 0.6-0.7 1.3-1.1 0.8-0.4 1.6-0.3 0.8 0.1 1.6 0.6 0.7 0.5 1.1 1.3zm-3.1 3.9q0.6 0 1.1-0.3 0.6-0.3 1-0.9 0.4-0.5 0.4-1.2 0.1-0.6-0.2-1.2-0.2-0.5-0.8-0.9-0.5-0.4-1.1-0.5-0.7 0-1.2 0.3-0.6 0.3-1 0.8-0.4 0.6-0.4 1.3-0.1 0.6 0.2 1.2 0.2 0.5 0.8 0.9 0.5 0.4 1.2 0.5z"/><path class="b" d="m255.2 62.2q-0.1 0.1-0.2 0.1l-7.9 4.4q-0.3 0.1-0.4 0-0.1-0.1-0.2-0.2-0.1-0.3 0-0.4 0.1-0.1 0.2-0.2l2.4-1.3 1.2-6q0-0.1 0.1-0.2 0.1-0.2 0.4-0.1 0.1 0 0.2 0.1 0.2 0.2 0.1 0.4l-1.1 5.3 4.6-2.5q0.2-0.2 0.4 0 0.1 0 0.2 0.1 0.1 0.3 0 0.5z"/><path class="b" d="m139.5 39.3q-1-0.4-1.7-1.2-0.8-0.9-1-2.1-0.3-1.2 0.1-2.3 0.3-1.1 1.2-1.8 0.8-0.8 2-1 1.1-0.3 2.2 0.1 1.1 0.3 1.8 1.2 0.7 0.8 1 2 0.2 1.3-0.1 2.3-0.4 1.1-1.2 1.9-0.9 0.7-2 1-1.2 0.2-2.3-0.1zm3.7-1.5q0.7-0.6 1-1.5 0.2-0.9 0.1-1.9-0.2-1-0.8-1.7-0.6-0.7-1.5-0.9-0.8-0.3-1.8-0.1-0.9 0.2-1.6 0.8-0.7 0.6-1 1.5-0.2 0.9 0 1.8 0.2 1 0.7 1.7 0.6 0.7 1.5 1 0.8 0.3 1.8 0.1 0.9-0.2 1.6-0.8z"/><path class="b" d="m150.5 32.1q0.7 0.3 1.2 0.9 0.5 0.6 0.6 1.5 0.1 0.8-0.2 1.6-0.3 0.7-0.9 1.2-0.5 0.5-1.3 0.6-0.7 0.1-1.3-0.1-0.6-0.3-1.1-0.7l0.5 3.1q0 0.2-0.1 0.4-0.1 0.1-0.3 0.1-0.2 0-0.3-0.1-0.1-0.1-0.2-0.2l-0.3-2.5c0 0 0 0 0 0l-0.4-2.6q-0.1-0.8 0.2-1.6 0.3-0.7 0.9-1.2 0.6-0.5 1.4-0.6 0.9-0.1 1.6 0.2zm0.2 4.6q0.5-0.4 0.7-0.9 0.2-0.6 0.1-1.2-0.1-0.7-0.5-1.1-0.3-0.5-0.8-0.7-0.6-0.3-1.2-0.2-0.6 0.1-1 0.5-0.4 0.4-0.7 0.9-0.2 0.6-0.1 1.2 0 0.2 0.1 0.3 0 0 0 0 0.2 0.8 0.9 1.3 0.6 0.4 1.5 0.3 0.6-0.1 1-0.4z"/><path class="b" d="m157.6 31.3q0.7 0.4 1.1 1 0.5 0.7 0.5 1.5 0.1 0.9-0.2 1.6-0.3 0.7-0.9 1.2-0.6 0.4-1.4 0.5-0.7 0.1-1.3-0.2-0.6-0.2-1-0.7l0.2 3.2q0.1 0.1 0 0.3-0.2 0.1-0.3 0.1-0.2 0-0.3-0.1-0.2-0.1-0.2-0.3l-0.2-2.4q0 0 0-0.1l-0.2-2.5q-0.1-0.9 0.2-1.6 0.4-0.7 1-1.2 0.6-0.4 1.5-0.5 0.8-0.1 1.5 0.2zm0 4.7q0.5-0.4 0.7-0.9 0.2-0.6 0.2-1.2-0.1-0.6-0.4-1.1-0.3-0.5-0.8-0.8-0.6-0.2-1.2-0.2-0.6 0.1-1 0.4-0.5 0.4-0.7 0.9-0.3 0.6-0.2 1.2 0 0.2 0 0.3 0 0 0.1 0 0.1 0.8 0.8 1.3 0.6 0.5 1.4 0.5 0.6-0.1 1.1-0.4z"/><path class="b" d="m161.6 36.3q-0.7-0.3-1.1-1-0.4-0.7-0.4-1.5 0-0.9 0.3-1.6 0.4-0.7 1-1.1 0.7-0.4 1.5-0.5 0.8 0 1.5 0.4 0.7 0.3 1.1 1 0.4 0.7 0.5 1.5 0 0.9-0.4 1.6-0.3 0.7-1 1.1-0.6 0.4-1.5 0.5-0.8 0-1.5-0.4zm2.6-0.7q0.5-0.3 0.7-0.9 0.3-0.5 0.3-1.1-0.1-0.7-0.4-1.2-0.3-0.5-0.7-0.8-0.5-0.2-1.2-0.2-0.6 0-1 0.3-0.5 0.3-0.8 0.9-0.2 0.5-0.2 1.1 0 0.7 0.3 1.2 0.3 0.5 0.8 0.8 0.5 0.2 1.1 0.2 0.6 0 1.1-0.3z"/><path class="b" d="m170.4 30.6q0.3 0.2 0.3 0.4 0 0 0 0.1-0.1 0.1-0.2 0.2-0.1 0-0.2 0-0.1 0-0.4 0 0 0-0.2 0-0.8 0-1.3 0.4-0.5 0.5-0.5 1.2v3.2q0 0.2-0.1 0.3-0.1 0.1-0.3 0.1-0.2 0-0.3-0.1-0.1-0.1-0.1-0.3v-5.1q0-0.2 0.1-0.3 0.1-0.1 0.3-0.1 0.2 0 0.3 0.1 0.1 0.1 0.1 0.3v0.5q0.3-0.5 0.8-0.7 0.5-0.3 1-0.3 0.5 0 0.7 0.2z"/><path class="b" d="m174.2 35.9q0.1 0.2 0.1 0.3 0 0.2-0.2 0.3-0.1 0.1-0.3 0.1h-0.2q-0.6 0-1-0.3-0.4-0.3-0.7-0.7-0.2-0.5-0.2-1.1l0.1-2.9h-0.7q-0.1 0-0.2-0.1-0.1-0.1-0.1-0.3 0-0.2 0.1-0.3 0.1-0.1 0.2-0.1l0.7 0.1 0.1-1.7q0-0.2 0.1-0.3 0.1-0.1 0.3-0.1 0.2 0 0.3 0.1 0.1 0.1 0.1 0.3v1.7h1.2q0.1 0 0.2 0.1 0.1 0.2 0.1 0.3 0 0.2-0.1 0.3-0.1 0.1-0.3 0.1l-1.2-0.1-0.1 2.9q0 0.6 0.3 0.9 0.3 0.4 0.8 0.4h0.3q0.2 0 0.3 0.2z"/><path class="b" d="m180.5 31.3q0.2 0.1 0.1 0.3l-0.3 5.1q0 0.2-0.2 0.3-0.1 0.1-0.3 0.1-0.2 0-0.3-0.2-0.1-0.1 0-0.3v-0.4q-0.4 0.4-0.9 0.6-0.5 0.2-1.1 0.1-0.7 0-1.3-0.4-0.6-0.4-0.9-1-0.3-0.6-0.2-1.5l0.2-2.8q0-0.2 0.1-0.3 0.2-0.1 0.3-0.1 0.2 0 0.3 0.1 0.1 0.1 0.1 0.3l-0.2 2.8q-0.1 1 0.4 1.5 0.5 0.6 1.3 0.6 0.6 0.1 1-0.1 0.4-0.2 0.7-0.5 0.3-0.4 0.3-0.8l0.2-3.2q0-0.2 0.2-0.3 0.1-0.1 0.3-0.1 0.1 0 0.2 0.1z"/><path class="b" d="m186.3 32.1q0.5 0.4 0.8 1.1 0.3 0.6 0.2 1.5l-0.4 2.8q0 0.2-0.1 0.3-0.2 0.1-0.3 0-0.2 0-0.3-0.1-0.1-0.1-0.1-0.3l0.3-2.8q0.2-1-0.3-1.5-0.5-0.6-1.3-0.7-0.5-0.1-1 0.1-0.4 0.1-0.7 0.5-0.3 0.3-0.3 0.7l-0.4 3.2q0 0.2-0.2 0.3-0.1 0.1-0.3 0.1-0.1-0.1-0.2-0.2-0.2-0.1-0.1-0.3l0.6-5.1q0-0.1 0.1-0.2 0.2-0.1 0.4-0.1 0.1 0 0.2 0.1 0.1 0.2 0.1 0.3v0.4q0.3-0.3 0.9-0.5 0.5-0.2 1.1-0.1 0.7 0.1 1.3 0.5z"/><path class="b" d="m188.4 38.1q-0.1-0.2-0.1-0.4l0.8-5q0-0.2 0.1-0.3 0.2-0.1 0.4 0 0.1 0 0.2 0.1 0.1 0.2 0.1 0.3l-0.8 5.1q0 0.1-0.2 0.3-0.1 0.1-0.3 0-0.2 0-0.2-0.1zm0.9-7.1q-0.1-0.2-0.1-0.4 0.1-0.3 0.3-0.4 0.2-0.2 0.4-0.1 0.2 0 0.4 0.2 0.1 0.2 0.1 0.5-0.1 0.2-0.3 0.3-0.2 0.2-0.4 0.1-0.2 0-0.4-0.2z"/><path class="b" d="m193.4 38.4q0.1 0.1 0.1 0.3-0.1 0.1-0.2 0.2-0.2 0.1-0.3 0.1h-0.3q-0.5-0.1-0.9-0.5-0.4-0.3-0.6-0.9-0.1-0.5 0-1.1l0.5-2.8-0.7-0.1q-0.1-0.1-0.2-0.2-0.1-0.1-0.1-0.3 0.1-0.1 0.2-0.2 0.1-0.1 0.3-0.1l0.7 0.2 0.3-1.7q0-0.2 0.1-0.3 0.1-0.1 0.3 0 0.2 0 0.3 0.1 0.1 0.2 0.1 0.4l-0.3 1.6 1.1 0.2q0.2 0.1 0.3 0.2 0.1 0.1 0 0.3 0 0.1-0.1 0.2-0.1 0.1-0.3 0.1l-1.2-0.3-0.5 2.9q-0.1 0.5 0.2 0.9 0.2 0.4 0.7 0.5l0.3 0.1q0.1 0 0.2 0.2z"/><path class="b" d="m200 34.8q-0.1 0.1-0.1 0.2l-5 6.8q-0.1 0.2-0.3 0.2-0.1-0.1-0.2-0.1-0.2-0.2-0.2-0.4 0-0.1 0.1-0.2l1.5-2.1-1.2-5.4q-0.1-0.1 0-0.2 0-0.2 0.3-0.3 0.1 0 0.2 0 0.2 0.1 0.2 0.3l1.1 4.9 2.9-4q0.1-0.2 0.3-0.1 0.1 0 0.2 0.1 0.2 0.1 0.2 0.3z"/><path class="b" d="m93 60.4q0.1 0.1 0 0.3 0 0.1-0.2 0.3-0.1 0-0.2 0-0.1 0.1-0.2 0l-3.7-1.4-0.1 0.1-1.4 1 1.8 2.5q0.2 0.2 0.1 0.4 0 0.2-0.2 0.3-0.1 0.1-0.3 0.1-0.2-0.1-0.3-0.2l-4.8-6.7q-0.1-0.1-0.1-0.3 0.1-0.2 0.2-0.3l1.7-1.3q0.7-0.5 1.4-0.6 0.8-0.1 1.5 0.1 0.6 0.3 1.1 1 0.5 0.7 0.6 1.6 0 0.8-0.5 1.5l3.3 1.4q0.2 0 0.3 0.2zm-4.9-1.4q0.4-0.4 0.7-0.9 0.2-0.4 0.2-0.9-0.1-0.5-0.4-1-0.3-0.4-0.8-0.6-0.4-0.2-0.9-0.1-0.5 0-1 0.4l-1.4 1 2.2 3.1 1.4-1z"/><path class="b" d="m93.9 52.9q0.7-0.1 1.4 0.3 0.7 0.4 1.2 1.2 0.1 0.1 0.1 0.3-0.1 0.2-0.2 0.3l-3.9 2.6q0.6 0.8 1.5 0.9 0.8 0.1 1.6-0.4 0.4-0.3 0.7-0.6 0.2-0.4 0.3-0.7 0.1-0.2 0.2-0.3 0.1-0.1 0.3 0 0.2 0 0.3 0.1 0 0.2 0 0.3-0.1 0.5-0.5 1-0.4 0.6-0.8 0.9-0.8 0.5-1.6 0.5-0.9 0.1-1.6-0.3-0.7-0.4-1.3-1.2-0.5-0.8-0.6-1.6 0-0.8 0.3-1.6 0.3-0.7 1.1-1.2 0.7-0.5 1.4-0.5zm-1.9 2.5q-0.2 0.7 0.2 1.6l3.5-2.4q-0.6-0.7-1.3-0.9-0.8-0.1-1.5 0.4-0.7 0.5-0.9 1.3z"/><path class="b" d="m100.2 49c0 0 0 0.1 0.1 0.1l0.6 6.1q0 0.4-0.2 0.5-0.3 0.1-0.5 0l-5-3.4c0 0-0.1-0.1-0.1-0.1q-0.1-0.3 0-0.5 0-0.1 0.1-0.1 0.1-0.1 0.2-0.1 0.2 0 0.3 0.1l4.3 3-0.6-5.4q0-0.1 0.1-0.2 0-0.1 0.1-0.2 0.1 0 0.2 0 0.3-0.1 0.4 0.2z"/><path class="b" d="m100.2 46.9q-0.3-0.1-0.4-0.3-0.1-0.2-0.1-0.5 0.1-0.2 0.3-0.4 0.3-0.1 0.5 0 0.2 0 0.4 0.3 0.1 0.2 0 0.5 0 0.2-0.3 0.4-0.2 0.1-0.4 0zm3.8 6.7q-0.2-0.1-0.3-0.2l-2.6-4.8q-0.1-0.2-0.1-0.4 0.1-0.2 0.2-0.3 0.2-0.1 0.4 0 0.1 0 0.2 0.2l2.7 4.8q0.1 0.2 0 0.4 0 0.2-0.2 0.3-0.2 0.1-0.3 0z"/><path class="b" d="m107.1 45.1q0.7 0.1 1.4 0.6 0.6 0.4 1.1 1.2 0 0.2 0 0.3-0.1 0.2-0.2 0.3l-4.2 2.2q0.5 0.8 1.4 1 0.8 0.2 1.7-0.2 0.4-0.2 0.7-0.5 0.3-0.4 0.4-0.7 0.1-0.2 0.2-0.2 0.1-0.1 0.3-0.1 0.2 0.1 0.3 0.3 0 0.1 0 0.3-0.2 0.4-0.6 0.9-0.5 0.5-0.9 0.7-0.9 0.5-1.7 0.4-0.8 0-1.5-0.5-0.7-0.5-1.1-1.3-0.5-0.8-0.5-1.7 0-0.8 0.5-1.5 0.4-0.7 1.2-1.1 0.7-0.4 1.5-0.4zm-2.2 2.3q-0.3 0.7 0 1.6l3.8-2q-0.5-0.7-1.3-1-0.7-0.2-1.5 0.2-0.8 0.4-1 1.2z"/><path class="b" d="m115.6 40.8q0.1 0.1 0.2 0.2 0 0.2 0 0.3l0.6 5.8q0 0.1 0 0.2-0.1 0.1-0.2 0.2-0.2 0.1-0.3 0-0.2 0-0.3-0.1l-3.1-3.7 0.6 4.9c0 0.1 0 0.2 0 0.2q-0.1 0.2-0.2 0.2-0.2 0.1-0.3 0.1-0.1-0.1-0.2-0.2l-3.9-4.2q-0.1-0.1-0.1-0.3-0.2-0.3 0.2-0.5 0.3-0.1 0.5 0.2l3.2 3.5-0.6-4.7q0-0.2 0-0.3 0.1-0.2 0.2-0.2 0.2-0.1 0.3-0.1 0.2 0.1 0.3 0.2l3 3.6-0.5-4.8q0-0.3 0.3-0.5 0.1-0.1 0.3 0z"/><path class="b" d="m123.6 207.6h-2v6.9q0 0.2-0.2 0.4-0.2 0.2-0.4 0.2-0.2 0-0.4-0.2-0.1-0.2-0.1-0.4v-6.9h-2.1q-0.3 0-0.4-0.1-0.2-0.2-0.2-0.4 0-0.3 0.2-0.4 0.2-0.2 0.4-0.2h5.2q0.3 0 0.4 0.2 0.2 0.1 0.2 0.4 0 0.2-0.2 0.4-0.1 0.1-0.4 0.1z"/><path class="b" d="m125.6 214.5q0 0.3-0.1 0.4-0.2 0.2-0.4 0.2-0.2 0-0.4-0.2-0.2-0.1-0.2-0.4v-7.5q0-0.2 0.2-0.4 0.2-0.1 0.4-0.1 0.2 0 0.4 0.1 0.1 0.2 0.2 0.4v2.6q0.7-0.5 1.6-0.5 0.6 0 1 0.2 0.5 0.2 0.9 0.6 0.4 0.4 0.6 0.9 0.2 0.5 0.2 1.1v2.6q0 0.3-0.1 0.4-0.2 0.2-0.4 0.2-0.2 0-0.4-0.2-0.2-0.1-0.2-0.4v-2.6q0-0.4-0.1-0.7-0.1-0.3-0.3-0.5-0.3-0.2-0.6-0.4-0.3-0.1-0.6-0.1-0.3 0-0.6 0.1-0.3 0.2-0.6 0.4-0.2 0.2-0.3 0.5-0.1 0.3-0.1 0.7v2.6z"/><path class="b" d="m134.9 213.4q0.3 0 0.4 0.1 0.2 0.2 0.2 0.4 0 0.3-0.2 0.4-0.8 0.8-1.9 0.8-1.2 0-2.1-0.9-0.9-0.9-0.8-2.1 0-1.3 0.8-2.2 0.9-0.8 2.1-0.8 1.2 0 2.1 0.8 0.4 0.5 0.6 1 0.2 0.5 0.2 1.2 0 0.2-0.1 0.4-0.2 0.1-0.4 0.1h-4.2q0.1 0.3 0.3 0.6 0.2 0.2 0.4 0.4 0.2 0.2 0.5 0.3 0.3 0.1 0.6 0.1 0.3 0 0.6-0.2 0.3-0.1 0.6-0.3 0.1-0.1 0.3-0.1zm0.3-1.9q-0.1-0.3-0.3-0.6-0.2-0.2-0.4-0.4-0.2-0.1-0.5-0.3-0.3 0-0.6 0-0.3 0-0.6 0-0.3 0.1-0.5 0.3-0.2 0.2-0.4 0.4-0.2 0.3-0.3 0.6z"/><path class="b" d="m141.7 206.5q0.4 0 0.8 0.2 0.4 0.1 0.7 0.4 0.3 0.3 0.5 0.7 0.1 0.4 0.1 0.9 0 0.8-0.5 1.4 0.4 0.2 0.6 0.5 0.2 0.2 0.4 0.5 0.2 0.3 0.3 0.7 0 0.3 0 0.6 0 0.6-0.2 1.1-0.2 0.4-0.5 0.8-0.4 0.4-0.8 0.6-0.5 0.2-1 0.2h-2.1q-0.1 0-0.2-0.1-0.1 0-0.2-0.1 0-0.1-0.1-0.2 0-0.1 0-0.2v-7.5q0-0.1 0-0.2 0.1-0.1 0.1-0.2 0.1 0 0.2-0.1 0.1 0 0.2 0h1.6zm-1 1.1v2.2h1q0.3 0 0.5-0.1 0.1-0.1 0.3-0.2 0.1-0.2 0.2-0.4 0.1-0.2 0.1-0.4 0-0.2-0.1-0.4-0.1-0.2-0.2-0.4-0.2-0.1-0.3-0.2-0.2-0.1-0.5-0.1h-1zm0 3.3v3h1.4q0.3 0 0.6-0.1 0.3-0.1 0.5-0.3 0.2-0.2 0.3-0.5 0.1-0.3 0.1-0.6 0-0.3-0.1-0.5-0.1-0.3-0.3-0.5-0.2-0.2-0.5-0.4-0.3-0.1-0.6-0.1h-1.4z"/><path class="b" d="m149.9 215.1q-0.2 0-0.4-0.2-0.1-0.1-0.1-0.4-0.4 0.3-0.8 0.5-0.4 0.1-0.9 0.1-0.6 0-1-0.2-0.5-0.3-0.9-0.6-0.4-0.4-0.6-0.9-0.2-0.5-0.2-1.1v-2.7q0-0.2 0.1-0.4 0.2-0.1 0.4-0.1 0.2 0 0.4 0.1 0.2 0.2 0.2 0.4v2.7q0 0.3 0.1 0.6 0.1 0.3 0.4 0.6 0.2 0.2 0.5 0.3 0.3 0.2 0.6 0.2 0.4 0 0.7-0.2 0.3-0.1 0.5-0.3 0.2-0.3 0.3-0.6 0.2-0.3 0.2-0.6v-2.7q0-0.2 0.1-0.4 0.2-0.1 0.4-0.1 0.2 0 0.4 0.1 0.2 0.2 0.2 0.4v4.9q0 0.3-0.2 0.4-0.2 0.2-0.4 0.2z"/><path class="b" d="m152 212.2q-0.5-0.2-0.7-0.4-0.4-0.4-0.4-1 0-0.4 0.2-0.7 0.2-0.3 0.5-0.6 0.4-0.2 0.8-0.3 0.4-0.1 0.9-0.1 1.3 0 2.2 1 0.1 0.2 0.1 0.4 0 0.2-0.1 0.4-0.2 0.1-0.4 0.1-0.2 0-0.3 0-0.2-0.1-0.3-0.3-0.5-0.5-1.3-0.5-0.7 0-1.2 0.5-0.1 0 0 0.2-0.1 0.1 0.1 0.2l2.5 0.8q0.5 0.2 0.6 0.4 0.4 0.4 0.4 1 0 0.4-0.2 0.7-0.2 0.4-0.5 0.6-0.4 0.2-0.8 0.4-0.4 0.1-0.8 0.1-1.4 0-2.3-1.1-0.1-0.1-0.1-0.3 0-0.3 0.1-0.4 0.2-0.2 0.4-0.2 0.2 0 0.3 0.1 0.1 0.1 0.2 0.2 0.6 0.6 1.4 0.6c0.5 0 0.9-0.2 1.2-0.5q0-0.1 0-0.2 0-0.2-0.1-0.3z"/><path class="b" d="m157.5 208q0 0.3-0.2 0.5-0.2 0.2-0.4 0.2-0.3 0-0.5-0.2-0.2-0.2-0.2-0.5 0-0.3 0.2-0.5 0.2-0.2 0.5-0.2 0.2 0 0.4 0.2 0.2 0.2 0.2 0.5zm-1.2 6.5v-4.9q0-0.2 0.2-0.4 0.2-0.1 0.4-0.1 0.2 0 0.4 0.1 0.1 0.2 0.1 0.4v4.9q0 0.3-0.1 0.4-0.2 0.2-0.4 0.2-0.2 0-0.4-0.2-0.2-0.1-0.2-0.4z"/><path class="b" d="m159.2 209.6q0.7-0.5 1.7-0.5 0.5 0 1 0.2 0.5 0.2 0.9 0.6 0.4 0.4 0.6 0.9 0.2 0.5 0.2 1.1v2.6q0 0.3-0.1 0.4-0.2 0.2-0.4 0.2-0.2 0-0.4-0.2-0.2-0.1-0.2-0.4v-2.6q0-0.4-0.1-0.7-0.1-0.3-0.3-0.5-0.3-0.2-0.6-0.4-0.3-0.1-0.6-0.1-0.4 0-0.6 0.1-0.3 0.2-0.6 0.4-0.2 0.2-0.3 0.5-0.2 0.3-0.1 0.7v2.6q0 0.3-0.2 0.4-0.2 0.2-0.4 0.2-0.2 0-0.4-0.2-0.1-0.1-0.1-0.4v-4.9q-0.1-0.2 0.1-0.4 0.2-0.1 0.4-0.1 0.2 0 0.4 0.1 0.2 0.2 0.2 0.4z"/><path class="b" d="m168.5 213.4q0.3 0 0.4 0.1 0.2 0.2 0.2 0.4 0 0.3-0.2 0.4-0.8 0.8-1.9 0.8-1.2 0-2.1-0.9-0.9-0.9-0.8-2.1 0-1.3 0.8-2.2 0.9-0.8 2.1-0.8 1.2 0 2.1 0.8 0.4 0.5 0.6 1 0.2 0.5 0.2 1.2 0 0.2-0.1 0.4-0.2 0.1-0.4 0.1h-4.2q0.1 0.3 0.3 0.6 0.1 0.2 0.4 0.4 0.2 0.2 0.5 0.3 0.3 0.1 0.6 0.1 0.3 0 0.6-0.2 0.3-0.1 0.6-0.3 0.1-0.1 0.3-0.1zm0.3-1.9q-0.1-0.3-0.3-0.6-0.2-0.2-0.4-0.4-0.3-0.1-0.5-0.3-0.3 0-0.6 0-0.3 0-0.6 0-0.3 0.1-0.5 0.3-0.2 0.2-0.4 0.4-0.2 0.3-0.3 0.6z"/><path class="b" d="m171.4 212.2q-0.5-0.2-0.7-0.4-0.4-0.4-0.4-1 0-0.4 0.2-0.7 0.3-0.3 0.6-0.6 0.3-0.2 0.8-0.3 0.4-0.1 0.8-0.1 1.3 0 2.3 1 0.1 0.2 0.1 0.4 0 0.2-0.2 0.4-0.1 0.1-0.4 0.1-0.1 0-0.3 0-0.1-0.1-0.2-0.3-0.5-0.5-1.3-0.5-0.7 0-1.2 0.5-0.1 0-0.1 0.2 0 0.1 0.2 0.2l2.4 0.8q0.5 0.2 0.7 0.4 0.4 0.4 0.4 1 0 0.4-0.2 0.7-0.2 0.4-0.5 0.6-0.4 0.2-0.8 0.4-0.4 0.1-0.9 0.1-1.3 0-2.2-1.1-0.1-0.1-0.1-0.3 0-0.3 0.1-0.4 0.2-0.2 0.4-0.2 0.2 0 0.3 0.1 0.1 0.1 0.2 0.2 0.6 0.6 1.3 0.6c0.5 0 0.9-0.2 1.2-0.5q0.1-0.1 0.1-0.2 0-0.2-0.1-0.3z"/><path class="b" d="m176.6 212.2q-0.5-0.2-0.7-0.4-0.4-0.4-0.4-1 0-0.4 0.2-0.7 0.2-0.3 0.6-0.6 0.3-0.2 0.7-0.3 0.5-0.1 0.9-0.1 1.3 0 2.2 1 0.1 0.2 0.1 0.4 0 0.2-0.1 0.4-0.2 0.1-0.4 0.1-0.2 0-0.3 0-0.1-0.1-0.2-0.3-0.6-0.5-1.3-0.5-0.8 0-1.2 0.5-0.1 0-0.1 0.2 0 0.1 0.1 0.2l2.5 0.8q0.5 0.2 0.7 0.4 0.4 0.4 0.4 1 0 0.4-0.2 0.7-0.2 0.4-0.6 0.6-0.3 0.2-0.8 0.4-0.4 0.1-0.8 0.1-1.3 0-2.3-1.1-0.1-0.1-0.1-0.3 0-0.3 0.2-0.4 0.1-0.2 0.4-0.2 0.1 0 0.3 0.1 0.1 0.1 0.2 0.2 0.5 0.6 1.3 0.6c0.5 0 0.9-0.2 1.2-0.5q0.1-0.1 0.1-0.2 0-0.2-0.2-0.3z"/><path class="b" d="m189.9 213.1q0.1 0.1 0.2 0.1 0.1 0 0.2 0.1 0 0.1 0.1 0.2 0 0.1 0 0.2 0 0.2-0.1 0.4-1.2 1-2.7 1-1.7 0-3-1.3-1.2-1.2-1.2-3 0-1.8 1.2-3 1.3-1.3 3-1.3 1.5 0 2.7 1 0.2 0.1 0.2 0.4 0 0.1-0.1 0.2 0 0.1-0.1 0.2-0.1 0.1-0.2 0.1-0.1 0.1-0.2 0.1-0.2 0-0.4-0.2-0.4-0.3-0.9-0.5-0.4-0.2-1-0.2-1.2 0-2.2 1-0.9 0.9-0.9 2.2 0 1.3 0.9 2.2 0.9 0.9 2.2 0.9 1.1 0 2-0.6 0.1-0.1 0.3-0.2z"/><path class="b" d="m190.7 214.5v-7.5q0-0.2 0.2-0.4 0.1-0.1 0.4-0.1 0.2 0 0.4 0.1 0.1 0.2 0.1 0.4v7h0.3q0.2 0 0.3 0.1 0.2 0.2 0.2 0.4 0 0.3-0.2 0.4-0.1 0.2-0.3 0.2h-0.8q-0.3 0-0.4-0.2-0.2-0.1-0.2-0.4z"/><path class="b" d="m198.8 212.1q0 1.2-0.9 2.1-0.9 0.9-2.1 0.9-1.2 0-2-0.9-0.9-0.9-0.9-2.1 0-1.3 0.9-2.2 0.8-0.8 2-0.8 1.2 0 2.1 0.8 0.4 0.5 0.7 1 0.2 0.5 0.2 1.2zm-3-1.9q-0.4 0-0.7 0.1-0.3 0.2-0.6 0.5-0.2 0.2-0.4 0.6-0.1 0.3-0.1 0.7 0 0.4 0.1 0.7 0.2 0.4 0.4 0.6 0.3 0.3 0.6 0.4 0.3 0.2 0.7 0.2 0.4 0 0.8-0.2 0.3-0.1 0.5-0.4 0.3-0.2 0.4-0.6 0.2-0.3 0.2-0.7 0-0.4-0.2-0.7-0.1-0.4-0.4-0.6-0.2-0.3-0.5-0.4-0.4-0.2-0.8-0.2z"/><path class="b" d="m203.7 213.4q0.2 0 0.4 0.1 0.1 0.2 0.1 0.4 0 0.3-0.1 0.4-0.8 0.8-2 0.8-1.2 0-2-0.9-0.9-0.9-0.9-2.1 0-1.3 0.9-2.2 0.8-0.8 2-0.8 1.2 0 2 0.7 0.2 0.1 0.2 0.4 0 0.3-0.2 0.4-0.2 0.2-0.4 0.2-0.2 0-0.4-0.2-0.2-0.2-0.5-0.3-0.3-0.1-0.7-0.1-0.3 0-0.7 0.1-0.3 0.2-0.6 0.4-0.2 0.3-0.4 0.6-0.1 0.4-0.1 0.8 0 0.4 0.1 0.7 0.2 0.3 0.4 0.6 0.3 0.2 0.6 0.4 0.4 0.1 0.7 0.1 0.4 0 0.7-0.1 0.3-0.1 0.5-0.3 0.2-0.1 0.4-0.2z"/><path class="b" d="m204.7 214.5v-7.5q0-0.2 0.1-0.4 0.2-0.1 0.4-0.1 0.2 0 0.4 0.1 0.2 0.2 0.2 0.4v4.2l3.1-2q0.1-0.1 0.3-0.1 0.1 0 0.2 0 0.1 0.1 0.2 0.1 0.1 0.1 0.1 0.2 0 0.1 0 0.2 0 0.3-0.2 0.5l-2.2 1.5 2.3 2.6q0.1 0.1 0.1 0.3 0 0.1 0 0.3 0 0.1-0.1 0.1-0.1 0.1-0.2 0.2-0.1 0-0.2 0-0.2 0-0.4-0.1l-2.4-2.8-0.6 0.4v1.9q0 0.3-0.2 0.4-0.2 0.2-0.4 0.2-0.2 0-0.4-0.2-0.1-0.1-0.1-0.4z"/><path class="b" d="m156.7 76.2v-0.5q0.8-0.1 1.3-0.2 0.5-0.1 0.7-0.4 0.3-0.2 0.4-0.6 0-0.4 0-0.9v-11.5q0-0.3 0-0.6 0-0.3-0.1-0.5-0.1-0.3-0.3-0.5-0.1-0.2-0.4-0.2-0.3-0.1-0.7 0-0.4 0.1-1 0.3v-0.5l5.8-2.5q0.1-0.1 0.2-0.1 0 0 0 0.2v16.4q0 0.4 0.1 0.7 0.1 0.3 0.3 0.4 0.2 0.2 0.7 0.3 0.5 0.1 1.3 0.2v0.5h-8.3z"/><path class="b" d="m179.6 76.2h-10.8v-0.4q1.3-1.5 2.3-2.7 1-1.2 1.8-2.2 0.8-1.1 1.4-2 0.5-0.9 0.9-1.7 0.3-0.9 0.5-1.7 0.2-0.9 0.2-1.8 0-0.7-0.2-1.3-0.2-0.6-0.6-1-0.4-0.5-1-0.8-0.5-0.2-1.2-0.2-1.3 0-2.1 0.6-0.9 0.7-1.4 2.1l-0.6-0.1q0.3-1.2 0.8-2.2 0.4-1 1.2-1.8 0.7-0.7 1.6-1.2 1-0.4 2.2-0.4 1.3 0 2.2 0.4 1 0.4 1.5 1.1 0.6 0.6 0.9 1.6 0.3 0.9 0.3 1.9 0 1.3-0.6 2.7-0.7 1.3-1.7 2.7-1 1.4-2.3 2.8-1.3 1.4-2.7 2.9h5.7q0.4 0 0.7-0.1 0.3-0.1 0.6-0.2 0.2-0.2 0.5-0.6 0.2-0.3 0.5-0.9l0.4 0.1-1 4.4z"/><path class="b" d="m218 92v-0.6q0.9-0.1 1.4-0.2 0.4-0.1 0.7-0.4 0.2-0.2 0.3-0.6 0-0.4 0-0.9v-11.5q0.1-0.2 0-0.6 0-0.3-0.1-0.5-0.1-0.3-0.2-0.5-0.2-0.2-0.5-0.2-0.3-0.1-0.7 0-0.4 0.1-1 0.4v-0.6l5.8-2.5q0.2-0.1 0.2-0.1 0 0 0 0.2v16.4q0 0.4 0.1 0.7 0.1 0.3 0.3 0.5 0.3 0.1 0.8 0.2 0.4 0.1 1.2 0.2v0.5h-8.2z"/><path class="b" d="m110.2 92v-0.6q0.9-0.1 1.3-0.2 0.5-0.1 0.8-0.4 0.2-0.2 0.3-0.6 0-0.4 0-0.9v-11.5q0-0.2 0-0.6 0-0.3-0.1-0.5-0.1-0.3-0.2-0.5-0.2-0.2-0.5-0.2-0.3-0.1-0.7 0-0.4 0.1-1 0.4v-0.6l5.8-2.5q0.1-0.1 0.2-0.1 0 0 0 0.2v16.4q0 0.4 0.1 0.7 0.1 0.3 0.3 0.5 0.3 0.1 0.7 0.2 0.5 0.1 1.3 0.2v0.5h-8.3z"/><path class="b" d="m124.2 92v-0.6q0.9-0.1 1.3-0.2 0.5-0.1 0.8-0.4 0.2-0.2 0.3-0.6 0-0.4 0-0.9v-11.5q0-0.2 0-0.6 0-0.3-0.1-0.5-0.1-0.3-0.2-0.5-0.2-0.2-0.5-0.2-0.3-0.1-0.7 0-0.4 0.1-1 0.4v-0.6l5.8-2.5q0.1-0.1 0.2-0.1 0 0 0 0.2v16.4q0 0.4 0.1 0.7 0.1 0.3 0.3 0.5 0.3 0.1 0.7 0.2 0.5 0.1 1.3 0.2v0.5h-8.3z"/><path class="b" d="m266.9 133.5h-10.8v-0.5q1.3-1.4 2.3-2.6 1.1-1.2 1.9-2.3 0.8-1 1.3-1.9 0.6-0.9 0.9-1.8 0.4-0.9 0.6-1.7 0.1-0.8 0.1-1.7 0-0.7-0.2-1.3-0.2-0.6-0.6-1.1-0.4-0.5-0.9-0.7-0.6-0.3-1.3-0.3-1.3 0-2.1 0.7-0.8 0.7-1.4 2l-0.6-0.1q0.3-1.2 0.8-2.2 0.5-1 1.2-1.7 0.7-0.8 1.7-1.2 0.9-0.5 2.1-0.5 1.3 0 2.3 0.4 0.9 0.4 1.5 1.1 0.6 0.7 0.9 1.6 0.2 0.9 0.2 2 0 1.3-0.6 2.6-0.6 1.4-1.7 2.8-1 1.3-2.3 2.8-1.3 1.4-2.7 2.8h5.8q0.4 0 0.7 0 0.3-0.1 0.5-0.3 0.3-0.2 0.5-0.5 0.2-0.4 0.5-1l0.5 0.2-1.1 4.4z"/><path class="b" d="m69.9 133.5v-0.6q0.8-0.1 1.3-0.2 0.5-0.1 0.7-0.3 0.3-0.3 0.3-0.7 0.1-0.3 0.1-0.9v-11.4q0-0.3 0-0.6 0-0.3-0.1-0.6-0.1-0.2-0.3-0.4-0.1-0.2-0.4-0.3-0.3-0.1-0.7 0-0.4 0.1-1.1 0.4v-0.6l5.9-2.5q0.1-0.1 0.2-0.1 0 0.1 0 0.3v16.3q0 0.5 0.1 0.7 0.1 0.3 0.3 0.5 0.2 0.2 0.7 0.3 0.5 0.1 1.3 0.1v0.6h-8.3z"/><path class="b" d="m93.2 128.5q-0.6 1.8-1.4 3-0.9 1.1-2 1.7-1.1 0.5-2.3 0.5-1.2 0-2.3-0.5-1.1-0.6-2-1.7-0.8-1.1-1.3-2.9-0.6-1.8-0.6-4.2 0.1-2.7 0.6-4.5 0.5-1.9 1.4-3 0.9-1.2 2-1.7 1.2-0.5 2.4-0.5 1 0 2.1 0.5 1.1 0.6 1.9 1.7 0.9 1.2 1.4 3 0.6 1.8 0.6 4.3 0 2.5-0.5 4.3zm-3.5-8.1q-0.2-1.7-0.5-2.7-0.3-1-0.7-1.5-0.4-0.4-0.9-0.4-0.5 0-0.9 0.4-0.5 0.4-0.8 1.4-0.4 0.9-0.6 2.5-0.2 1.6-0.2 4 0 2.4 0.2 4.1 0.2 1.7 0.6 2.7 0.3 1.1 0.8 1.5 0.4 0.5 0.9 0.5 0.5 0 0.9-0.5 0.5-0.5 0.8-1.5 0.2-1.1 0.4-2.6 0.1-1.6 0.1-3.8 0-2.5-0.1-4.2z"/><path class="b" d="m279.2 176.9q-0.3 1.2-1.2 2.2-0.9 0.9-2.3 1.4-1.4 0.6-3.5 0.6-1.2 0-1.9-0.2-0.8-0.2-1.3-0.5-0.4-0.3-0.6-0.6-0.2-0.4-0.2-0.7 0-0.7 0.4-1 0.3-0.4 0.9-0.4 0.5 0.1 0.8 0.2 0.4 0.2 0.8 0.5 0.3 0.2 0.7 0.5 0.3 0.3 0.7 0.6 0.3 0.3 0.7 0.4 0.4 0.2 0.8 0.2 0.7 0 1.2-0.2 0.6-0.3 1-0.7 0.4-0.4 0.6-1 0.2-0.6 0.2-1.4 0-1-0.4-2-0.4-0.9-1-1.7-0.7-0.7-1.6-1.1-0.9-0.4-2-0.4h-0.3q-0.1 0-0.3 0v-0.5q1.1-0.2 1.8-0.6 0.8-0.4 1.3-0.9 0.4-0.5 0.6-1 0.3-0.6 0.3-1.2-0.1-0.5-0.3-1.1-0.2-0.5-0.6-0.9-0.4-0.4-0.9-0.6-0.6-0.3-1.2-0.3-1.2 0-2 0.7-0.8 0.6-1.4 1.9l-0.5-0.1q0.3-1.2 0.9-2.1 0.7-0.9 1.5-1.6 0.8-0.6 1.7-0.9 0.8-0.4 1.7-0.4 1 0 1.8 0.3 0.8 0.3 1.4 0.8 0.6 0.5 0.9 1.2 0.3 0.7 0.3 1.6 0 1.1-0.6 2-0.6 1-1.8 1.6 0.5 0.2 1.1 0.6 0.6 0.3 1.1 0.8 0.5 0.6 0.8 1.4 0.4 0.8 0.4 1.9 0 1.5-0.4 2.7z"/><path class="b" d="m68.1 171.3q-0.3 1.3-1 2.6-0.6 1.2-1.5 2.2-1 1.1-2.2 1.9-1.2 0.8-2.8 1.3-1.5 0.6-3.3 0.8l-0.2-0.8q1.3-0.2 2.2-0.6 1-0.4 1.6-0.8 0.7-0.5 1.2-1.1 0.5-0.6 0.9-1.3 0.3-0.8 0.6-1.7 0.3-0.8 0.6-1.9-0.7 0.5-1.3 0.7-0.7 0.3-1.5 0.3-0.9 0-1.8-0.4-0.9-0.3-1.7-1-0.7-0.7-1.2-1.8-0.4-1.1-0.4-2.7 0-1.4 0.4-2.6 0.4-1.2 1.1-2 0.8-0.9 1.9-1.3 1-0.5 2.4-0.5c0.9 0 1.7 0.1 2.4 0.5q1.2 0.5 2 1.5 0.9 1 1.4 2.5 0.5 1.5 0.5 3.5 0 1.4-0.3 2.7zm-3.6-4.9q-0.1-0.8-0.2-1.5-0.1-0.7-0.3-1.3-0.2-0.7-0.5-1.1-0.3-0.5-0.7-0.8-0.4-0.2-0.9-0.2-0.5 0-0.8 0.2-0.4 0.3-0.6 0.8-0.3 0.5-0.4 1.4-0.1 0.8-0.1 2 0 2.7 0.6 4.1 0.7 1.4 1.9 1.4 0.6 0 1-0.2 0.4-0.1 0.7-0.5 0.1-0.1 0.1-0.4 0.1-0.3 0.2-0.7 0-0.5 0-0.9 0-0.5 0-0.8 0-0.8 0-1.5z"/><path class="b" d="m262.3 227.6v4.1h-3.3v-4.1h-6.9v-2.7l8.5-12h1.7v12.1h2.2v2.6h-2.2zm-3.3-10.6l-5.6 8h5.6z"/><path class="b" d="m82 229q-0.3 0.9-1 1.5-0.7 0.7-1.8 1.1-1.1 0.4-2.6 0.4-1.1 0-2.2-0.3-1.1-0.2-1.9-0.8-0.8-0.5-1.2-1.4-0.5-0.8-0.5-2 0-0.9 0.2-1.6 0.3-0.7 0.7-1.3 0.5-0.6 1.2-1.1 0.6-0.5 1.6-0.9-1-0.6-1.6-1.3-0.6-0.6-1-1.3-0.4-0.6-0.6-1.2-0.2-0.6-0.2-1.2 0-1.1 0.4-2 0.4-0.9 1.1-1.5 0.8-0.6 1.8-0.9 1.1-0.4 2.4-0.4 1.4 0 2.4 0.3 1 0.4 1.6 0.9 0.7 0.5 1 1.3 0.3 0.7 0.3 1.5 0 0.7-0.3 1.3-0.2 0.6-0.6 1.1-0.4 0.6-1.1 1.1-0.7 0.5-1.7 1 1 0.7 1.7 1.3 0.7 0.6 1.1 1.2 0.4 0.5 0.7 1 0.2 0.4 0.3 0.9 0.1 0.4 0.1 0.7 0.1 0.4 0.1 0.8 0 0.9-0.4 1.8zm-3.1-1.6q-0.1-0.6-0.5-1.2-0.3-0.6-1.1-1.2-0.7-0.7-1.9-1.6-0.8 1-1.1 1.9-0.2 1-0.2 2 0 0.7 0.1 1.4 0.2 0.7 0.6 1.2 0.3 0.6 0.8 0.9 0.6 0.3 1.3 0.3 0.5 0 0.9-0.2 0.4-0.2 0.7-0.5 0.3-0.4 0.4-0.8 0.2-0.5 0.2-1 0-0.7-0.2-1.2zm-0.1-11.7q-0.1-0.6-0.4-1-0.3-0.4-0.8-0.7-0.4-0.3-1-0.2-1-0.1-1.7 0.6-0.6 0.6-0.6 1.8 0 0.5 0.2 1.1 0.1 0.5 0.5 1 0.3 0.5 0.9 1.1 0.6 0.6 1.6 1.2 0.8-0.8 1.1-1.7 0.3-1 0.3-2 0-0.6-0.1-1.2z"/><path class="b" d="m225.1 256q-0.2 0.3-0.5 0.3h-6.7l-0.9 2.3q1.1 0 2.2 0.2 1.1 0.1 2.1 0.5 1 0.3 1.9 0.8 0.9 0.5 1.5 1.3 0.6 0.8 1 1.8 0.3 1.1 0.4 2.4 0 1.5-0.6 2.8-0.6 1.2-1.6 2.1-1 0.9-2.3 1.3-1.4 0.5-3 0.5-1.2 0-2-0.1-0.8-0.2-1.3-0.5-0.4-0.3-0.7-0.7-0.2-0.4-0.2-0.9 0-0.6 0.4-1 0.3-0.4 1-0.4 0.5 0 0.9 0.2 0.4 0.2 0.8 0.5 0.4 0.2 0.7 0.6 0.3 0.3 0.7 0.5 0.3 0.3 0.7 0.5 0.4 0.2 0.8 0.2 0.5 0 1-0.3 0.6-0.3 1-0.8 0.5-0.5 0.8-1.2 0.3-0.7 0.3-1.5 0-1.4-0.7-2.4-0.6-1.1-1.8-1.7-1.1-0.7-2.7-1-1.5-0.3-3.2-0.3-0.2 0-0.3-0.1 0-0.1 0.1-0.3l3-8.1h7q0.1 0 0.2 0 0.1-0.1 0.2-0.2 0.1-0.1 0.2-0.2 0-0.1 0.1-0.3l0.5 0.2-1 3z"/><path class="b" d="m117.6 272h-2.4l5-15.6h-4.9q-0.8 0-1.3 0.1-0.6 0.1-0.9 0.4-0.4 0.2-0.7 0.6-0.2 0.4-0.5 0.9h-0.6l1.3-4.9h10.5v0.9l-5.5 17.6z"/><path class="b" d="m174 282.8q-0.5 1.2-1.2 2-0.8 0.9-1.8 1.4-1.1 0.5-2.2 0.5-1.1 0-2.2-0.5-1.1-0.5-2-1.6-1-1-1.5-2.6-0.6-1.5-0.6-3.6 0-1.4 0.4-2.8 0.3-1.4 1-2.6 0.7-1.2 1.7-2.3 1-1 2.3-1.8 1.2-0.8 2.7-1.2 1.5-0.4 3.2-0.5l0.1 0.7q-1.5 0.2-2.6 0.8-1.2 0.6-2 1.5-0.9 0.8-1.5 2.1-0.6 1.2-1 2.8 0.6-0.4 1.2-0.6 0.7-0.2 1.5-0.2 0.9 0 1.8 0.3 0.9 0.4 1.6 1.1 0.7 0.7 1.1 1.8 0.5 1.1 0.5 2.7 0 1.4-0.5 2.6zm-3.8-5.5q-0.7-1.5-2-1.5-1.2 0-1.6 0.8-0.5 0.8-0.5 2.6 0 1.1 0.1 2.3 0.2 1.2 0.5 2.1 0.4 1 0.9 1.6 0.6 0.6 1.3 0.6 0.6 0 1-0.3 0.4-0.3 0.6-0.8 0.3-0.6 0.3-1.4 0.2-0.7 0.1-1.7 0-2.8-0.7-4.3z"/><path class="b" d="m168 344.2c-92.6 0-168-77.2-168-172.1 0-94.9 75.4-172.1 168-172.1 92.6 0 168 77.2 168 172.1 0 94.9-75.4 172.1-168 172.1zm0-341.1c-91 0-165 75.8-165 169 0 93.2 74 169 165 169 91 0 165-75.8 165-169 0-93.2-74-169-165-169z"/><path class="b" d="m139.2 222.2q1.5 0 2.5 1.1 0.5 0.5 0.8 1.2 0.3 0.6 0.3 1.4 0 1.5-1.1 2.6-1.1 1.1-2.5 1.1h-1.4q-0.1 0-0.2-0.1-0.1 0-0.2-0.1 0 0-0.1-0.1 0-0.1 0-0.2v-6.4q0-0.1 0-0.2 0.1-0.1 0.1-0.2 0.1 0 0.2-0.1 0.1 0 0.2 0h1.4zm0 6.4q1 0 1.8-0.8 0.4-0.4 0.6-0.9 0.2-0.5 0.2-1 0-1.2-0.8-1.9-0.8-0.8-1.8-0.8h-1v5.4z"/><path class="b" d="m148.2 227q0 1.1-0.8 1.8-0.7 0.8-1.7 0.8-1.1 0-1.8-0.8-0.8-0.8-0.8-1.8 0-1.1 0.8-1.8 0.7-0.8 1.8-0.8 1 0 1.7 0.8 0.4 0.3 0.6 0.8 0.2 0.5 0.2 1zm-2.5-1.6q-0.4 0-0.7 0.1-0.2 0.1-0.5 0.4-0.2 0.2-0.3 0.5-0.1 0.3-0.1 0.6 0 0.3 0.1 0.6 0.1 0.3 0.3 0.5 0.3 0.2 0.5 0.4 0.3 0.1 0.7 0.1 0.3 0 0.6-0.1 0.3-0.2 0.5-0.4 0.2-0.2 0.3-0.5 0.1-0.3 0.1-0.6 0-0.3-0.1-0.6-0.1-0.3-0.3-0.5-0.2-0.3-0.5-0.4-0.3-0.1-0.6-0.1z"/><path class="b" d="m149.6 229.1q0 0.2-0.2 0.3-0.1 0.2-0.3 0.2-0.2 0-0.3-0.2-0.2-0.1-0.2-0.3v-6.4q0-0.2 0.2-0.4 0.1-0.1 0.3-0.1 0.2 0 0.3 0.1 0.2 0.2 0.2 0.4v2.2q0.6-0.5 1.4-0.5 0.4 0 0.9 0.2 0.4 0.2 0.7 0.5 0.3 0.3 0.5 0.8 0.2 0.4 0.2 0.9v2.3q0 0.2-0.1 0.3-0.2 0.2-0.4 0.2-0.2 0-0.3-0.2-0.1-0.1-0.1-0.3v-2.3q0-0.3-0.1-0.5-0.1-0.3-0.3-0.5-0.2-0.2-0.5-0.3-0.2-0.1-0.5-0.1-0.3 0-0.6 0.1-0.2 0.1-0.4 0.3-0.2 0.2-0.3 0.5-0.1 0.2-0.1 0.5v2.3z"/><path class="b" d="m157.8 229.1v-0.1q-0.3 0.3-0.7 0.4-0.4 0.2-0.9 0.2-1 0-1.7-0.8-0.8-0.8-0.8-1.8 0-1.1 0.8-1.8 0.7-0.8 1.7-0.8 1.1 0 1.8 0.8 0.8 0.7 0.8 1.8v2.1q0 0.2-0.2 0.3-0.1 0.2-0.3 0.2-0.2 0-0.3-0.2-0.2-0.1-0.2-0.3zm-1.6-3.7q-0.3 0-0.6 0.1-0.3 0.1-0.5 0.3-0.2 0.3-0.3 0.5-0.1 0.3-0.1 0.7 0 0.3 0.1 0.6 0.1 0.3 0.3 0.5 0.2 0.2 0.5 0.4 0.3 0.1 0.6 0.1 0.4 0 0.7-0.1 0.3-0.2 0.5-0.4 0.2-0.2 0.3-0.5 0.1-0.3 0.1-0.6 0-0.4-0.1-0.7-0.1-0.2-0.3-0.5-0.2-0.2-0.5-0.3-0.3-0.1-0.7-0.1z"/><path class="b" d="m162 227.5q-0.2 0-0.3-0.2-0.1-0.1-0.1-0.3 0-0.2 0.1-0.4 0.1-0.1 0.3-0.1h2.1q0.2 0 0.3 0.1 0.2 0.2 0.2 0.4 0 0.2-0.2 0.3-0.1 0.2-0.3 0.2z"/><path class="b" d="m173.1 228.8q-0.5 0.4-1 0.6-0.6 0.2-1.2 0.2-1.5 0-2.5-1.1-1.1-1.1-1.1-2.6 0-1.5 1.1-2.6 1-1.1 2.5-1.1 1.5 0 2.6 1.1 0.5 0.5 0.7 1.2 0.3 0.6 0.3 1.4 0 0.6-0.2 1.2-0.2 0.5-0.5 1l0.6 0.6q0.1 0.2 0.1 0.4 0 0.1 0 0.2-0.1 0.1-0.1 0.1-0.1 0.1-0.2 0.1-0.1 0.1-0.2 0.1-0.2 0-0.3-0.2l-0.6-0.6zm-1.3-1.3q-0.2-0.2-0.2-0.4 0-0.1 0.1-0.2 0-0.1 0.1-0.1 0-0.1 0.1-0.1 0.1-0.1 0.2-0.1 0.2 0 0.4 0.2l0.6 0.6q0.4-0.6 0.4-1.5 0-1.1-0.7-1.9-0.8-0.8-1.9-0.8-0.5 0-1 0.2-0.5 0.2-0.9 0.6-0.4 0.4-0.5 0.8-0.2 0.5-0.2 1.1 0 1.1 0.7 1.9 0.8 0.8 1.9 0.8 0.9 0 1.5-0.5l-0.6-0.6z"/><path class="b" d="m179 229.1v-0.1q-0.3 0.3-0.7 0.4-0.4 0.2-0.8 0.2-1.1 0-1.8-0.8-0.8-0.8-0.8-1.8 0-1.1 0.8-1.8 0.7-0.8 1.8-0.8 1 0 1.7 0.8 0.8 0.7 0.8 1.8v2.1q0 0.2-0.2 0.3-0.1 0.2-0.3 0.2-0.2 0-0.3-0.2-0.2-0.1-0.2-0.3zm-1.5-3.7q-0.4 0-0.7 0.1-0.2 0.1-0.5 0.3-0.2 0.3-0.3 0.5-0.1 0.3-0.1 0.7 0 0.3 0.1 0.6 0.1 0.3 0.3 0.5 0.3 0.2 0.5 0.4 0.3 0.1 0.7 0.1 0.3 0 0.6-0.1 0.3-0.2 0.5-0.4 0.2-0.2 0.3-0.5 0.1-0.3 0.1-0.6 0-0.4-0.1-0.7-0.1-0.2-0.3-0.5-0.2-0.2-0.5-0.3-0.3-0.1-0.6-0.1z"/><path class="b" d="m180.9 224.4h0.2v-1.7q0-0.2 0.1-0.4 0.1-0.1 0.3-0.1 0.2 0 0.4 0.1 0.1 0.2 0.1 0.4v1.7h0.6q0.2 0 0.3 0.1 0.1 0.2 0.1 0.4 0 0.2-0.1 0.3-0.1 0.2-0.3 0.2h-0.6v2.3q0 0.9 0.9 0.9 0.2 0 0.3 0.2 0.2 0.1 0.2 0.3 0 0.2-0.2 0.3-0.1 0.2-0.3 0.2-1.8 0-1.8-1.9v-2.3h-0.2q-0.2 0-0.4-0.2-0.1-0.1-0.1-0.3 0-0.2 0.1-0.4 0.2-0.1 0.4-0.1z"/><path class="b" d="m187.6 229.1v-0.1q-0.4 0.3-0.8 0.4-0.4 0.2-0.8 0.2-1.1 0-1.8-0.8-0.7-0.8-0.7-1.8 0-1.1 0.7-1.8 0.7-0.8 1.8-0.8 1 0 1.8 0.8 0.7 0.7 0.7 1.8v2.1q0 0.2-0.1 0.3-0.2 0.2-0.4 0.2-0.2 0-0.3-0.2-0.1-0.1-0.1-0.3zm-1.6-3.7q-0.4 0-0.6 0.1-0.3 0.1-0.5 0.3-0.3 0.3-0.4 0.5-0.1 0.3-0.1 0.7 0 0.3 0.1 0.6 0.1 0.3 0.4 0.5 0.2 0.2 0.5 0.4 0.2 0.1 0.6 0.1 0.3 0 0.6-0.1 0.3-0.2 0.5-0.4 0.2-0.2 0.3-0.5 0.2-0.3 0.2-0.6 0-0.4-0.2-0.7-0.1-0.2-0.3-0.5-0.2-0.2-0.5-0.3-0.3-0.1-0.6-0.1z"/><path class="b" d="m189.8 224.9v0.1q0.4-0.3 0.8-0.5 0.4-0.1 0.8-0.1 0.2 0 0.5 0 0.2 0.1 0.4 0.1 0.2 0.1 0.3 0.2 0.1 0.2 0.1 0.3 0 0.2 0 0.2-0.1 0.1-0.1 0.2-0.1 0.1-0.2 0.1-0.1 0-0.1 0-0.1 0-0.2 0-0.3-0.1-0.7-0.1-0.3 0-0.6 0.1-0.3 0.1-0.5 0.3-0.2 0.3-0.3 0.5-0.1 0.3-0.1 0.7v2.1q0 0.2-0.2 0.3-0.1 0.2-0.3 0.2-0.2 0-0.4-0.2-0.1-0.1-0.1-0.3v-4.2q0-0.2 0.1-0.4 0.2-0.1 0.4-0.1 0.2 0 0.3 0.1 0.2 0.2 0.2 0.4z"/><path fill-rule="evenodd" class="a" d="m199 220v14h-68v-14z"/></svg>