<svg version="1.2" xmlns="http://www.w3.org/2000/svg" viewBox="0 0 336 336" width="336" height="336"><style>.a{fill:#1377fe}.b{fill:#fff}.c{fill:none;stroke:#fff}</style><path class="a" d="m168 335.9c92.7 0 167.9-75.2 167.9-167.9 0-92.8-75.2-168-167.9-168-92.8 0-168 75.2-168 168 0 92.7 75.2 167.9 168 167.9z"/><path class="b" d="m172.8 11.2h-10.3v8.7h10.3z"/><path class="b" d="m172.8 316.3h-10.3v8.6h10.3z"/><path class="b" d="m93.7 29.6l-8.9 5.2 4.3 7.5 8.9-5.2z"/><path class="b" d="m246.3 293.8l-9 5.2 4.3 7.5 9-5.2z"/><path class="b" d="m34.4 85.2l-5.2 8.9 7.5 4.3 5.2-8.9z"/><path class="b" d="m298.6 237.7l-5.2 9 7.5 4.3 5.2-9z"/><path class="b" d="m19.5 162.9h-8.7v10.3h8.7z"/><path class="b" d="m324.5 162.9h-8.6v10.3h8.6z"/><path class="b" d="m36.7 237.7l-7.4 4.3 5.1 9 7.5-4.3z"/><path class="b" d="m300.9 85.2l-7.5 4.3 5.2 8.9 7.5-4.3z"/><path class="b" d="m89.1 293.8l-4.3 7.5 8.9 5.2 4.4-7.5z"/><path class="b" d="m241.6 29.6l-4.3 7.5 9 5.2 4.3-7.5z"/><path class="b" d="m152.5 12l-2.3 0.2 0.9 8.4 2.3-0.3z"/><path class="b" d="m184.4 315.5l-2.3 0.2 0.9 8.4 2.3-0.3z"/><path class="b" d="m136.3 14.4l-2.2 0.5 1.7 8.2 2.3-0.5z"/><path class="b" d="m199.7 312.9l-2.2 0.5 1.7 8.2 2.3-0.5z"/><path class="b" d="m120.4 18.5l-2.2 0.7 2.6 8.1 2.2-0.8z"/><path class="b" d="m214.7 308.8l-2.2 0.7 2.6 8 2.2-0.7z"/><path class="b" d="m105.1 24.3l-2.1 0.9 3.4 7.7 2.1-0.9z"/><path class="b" d="m229.2 303.1l-2.1 0.9 3.4 7.7 2.1-0.9z"/><path class="b" d="m76.5 40.5l-1.8 1.4 4.9 6.8 1.9-1.4z"/><path class="b" d="m255.9 287.4l-1.8 1.3 4.9 6.8 1.9-1.3z"/><path class="b" d="m63.7 50.7l-1.7 1.6 5.6 6.2 1.7-1.5z"/><path class="b" d="m267.9 277.5l-1.7 1.6 5.6 6.2 1.7-1.5z"/><path class="b" d="m52 62.2l-1.5 1.8 6.2 5.6 1.6-1.7z"/><path class="b" d="m278.8 266.4l-1.5 1.8 6.2 5.6 1.6-1.7z"/><path class="b" d="m41.6 74.9l-1.4 1.9 6.9 4.9 1.3-1.8z"/><path class="b" d="m288.5 254.3l-1.4 1.9 6.8 4.9 1.4-1.8z"/><path class="b" d="m25 103.2l-0.9 2.1 7.7 3.4 0.9-2.1z"/><path class="b" d="m303.8 227.3l-0.9 2.1 7.7 3.4 0.9-2.1z"/><path class="b" d="m19 118.5l-0.7 2.2 8 2.6 0.7-2.2z"/><path class="b" d="m309.2 212.8l-0.7 2.1 8 2.6 0.7-2.1z"/><path class="b" d="m14.6 134.3l-0.4 2.2 8.2 1.8 0.5-2.3z"/><path class="b" d="m313.1 197.7l-0.4 2.3 8.2 1.7 0.5-2.2z"/><path class="b" d="m12 150.5l-0.3 2.3 8.4 0.8 0.2-2.2z"/><path class="b" d="m315.5 182.4l-0.3 2.3 8.4 0.9 0.2-2.3z"/><path class="b" d="m11.7 183.3l0.3 2.3 8.3-0.9-0.2-2.3z"/><path class="b" d="m315.2 151.4l0.2 2.3 8.4-0.9-0.2-2.3z"/><path class="b" d="m14.2 199.5l0.4 2.2 8.3-1.7-0.5-2.3z"/><path class="b" d="m312.7 136l0.5 2.3 8.2-1.8-0.5-2.2z"/><path class="b" d="m18.3 215.4l0.7 2.2 8-2.6-0.7-2.2z"/><path class="b" d="m308.5 121.1l0.7 2.2 8.1-2.6-0.8-2.2z"/><path class="b" d="m24.1 230.7l0.9 2.1 7.7-3.4-0.9-2.1z"/><path class="b" d="m302.8 106.6l1 2.1 7.7-3.4-1-2.1z"/><path class="b" d="m40.2 259.2l1.4 1.9 6.8-4.9-1.3-1.9z"/><path class="b" d="m287.1 79.9l1.4 1.8 6.8-4.9-1.4-1.9z"/><path class="b" d="m50.5 272.1l1.5 1.7 6.3-5.6-1.6-1.7z"/><path class="b" d="m277.3 67.9l1.5 1.7 6.3-5.6-1.6-1.8z"/><path class="b" d="m62 283.8l1.7 1.5 5.6-6.3-1.7-1.5z"/><path class="b" d="m266.2 57l1.7 1.5 5.6-6.2-1.7-1.6z"/><path class="b" d="m74.7 294.2l1.8 1.3 5-6.8-1.9-1.3z"/><path class="b" d="m254.1 47.3l1.8 1.4 5-6.9-1.9-1.3z"/><path class="b" d="m102.9 310.8l2.1 0.9 3.5-7.7-2.1-0.9z"/><path class="b" d="m227.1 32l2.1 0.9 3.4-7.7-2.1-0.9z"/><path class="b" d="m118.2 316.8l2.2 0.7 2.6-8-2.2-0.7z"/><path class="b" d="m212.5 26.6l2.2 0.7 2.6-8-2.2-0.8z"/><path class="b" d="m134 321.2l2.3 0.4 1.7-8.2-2.2-0.5z"/><path class="b" d="m197.5 22.7l2.2 0.4 1.8-8.2-2.3-0.5z"/><path class="b" d="m150.2 323.8l2.3 0.3 0.9-8.4-2.3-0.2z"/><path class="b" d="m182.1 20.3l2.3 0.3 0.9-8.4-2.3-0.2z"/><path class="c" d="m167.9 289.5c67.2 0 121.6-54.4 121.6-121.6 0-67.1-54.4-121.5-121.6-121.5-67.1 0-121.5 54.4-121.5 121.5 0 67.2 54.4 121.6 121.5 121.6z"/><path class="b" d="m31.2 177.5q0.3-0.7 1-1.2 0.7-0.5 1.6-0.6l2.7-0.2q0.2 0 0.3 0.1 0.2 0.1 0.2 0.3 0 0.2-0.1 0.3-0.1 0.2-0.3 0.2h-0.7q0.6 0.4 1 1 0.3 0.6 0.4 1.3 0.1 0.9-0.3 1.6-0.3 0.8-1 1.2-0.7 0.5-1.6 0.6-0.9 0.1-1.7-0.3-0.7-0.3-1.2-1-0.5-0.7-0.6-1.6-0.1-0.9 0.3-1.7zm4.9 0q-0.4-0.4-1-0.7-0.5-0.3-1.2-0.2-0.7 0.1-1.2 0.4-0.5 0.4-0.8 0.9-0.3 0.6-0.2 1.2 0.1 0.7 0.4 1.2 0.4 0.5 1 0.8 0.5 0.2 1.2 0.2 0.7-0.1 1.2-0.5 0.5-0.3 0.8-0.9 0.2-0.5 0.2-1.2-0.1-0.6-0.4-1.1z"/><path class="b" d="m29.2 174.1q-0.2 0.1-0.4 0.2-0.3 0-0.5-0.2-0.2-0.2-0.2-0.4 0-0.3 0.2-0.5 0.1-0.2 0.4-0.2 0.3 0 0.5 0.2 0.2 0.1 0.2 0.4 0 0.3-0.2 0.5zm10.3 1.6q-0.1 0.1-0.3 0.1-0.2 0-0.3-0.1-0.1-0.1-0.1-0.3-0.1-0.8-0.6-1.3-0.5-0.5-1.3-0.4l-5.9 0.3q-0.2 0-0.3-0.1-0.1-0.2-0.1-0.4 0-0.1 0.1-0.3 0.1-0.1 0.3-0.1l5.8-0.3q0.8 0 1.4 0.3 0.7 0.3 1 0.9 0.4 0.6 0.4 1.4 0 0.2-0.1 0.3z"/><path class="b" d="m30.7 166.2q0.3-0.6 1-1 0.6-0.4 1.6-0.4h3q0.1 0 0.3 0.1 0.1 0.1 0.1 0.3 0 0.2-0.1 0.3-0.2 0.2-0.3 0.2h-3q-1.1 0-1.6 0.6-0.5 0.5-0.5 1.5 0 0.5 0.2 1 0.2 0.4 0.6 0.7 0.4 0.3 0.9 0.3l3.4-0.1q0.2 0 0.3 0.2 0.1 0.1 0.1 0.3 0 0.2-0.1 0.3-0.1 0.1-0.3 0.1l-5.4 0.1q-0.2 0-0.3-0.2-0.2-0.1-0.2-0.3 0-0.2 0.1-0.3 0.2-0.1 0.4-0.1h0.4q-0.5-0.4-0.7-0.9-0.3-0.6-0.3-1.2 0-0.8 0.4-1.5z"/><path class="b" d="m31 158.5q0.4-0.6 1.2-1 0.7-0.3 1.6-0.3 0.2 0 0.3 0.2 0.1 0.1 0.1 0.3l-0.3 4.6q1 0 1.6-0.6 0.6-0.7 0.7-1.6 0-0.4-0.1-0.9-0.2-0.4-0.4-0.7-0.1-0.1-0.1-0.3 0-0.1 0.1-0.2 0.2-0.2 0.3-0.2 0.2 0 0.3 0.2 0.3 0.4 0.5 1 0.2 0.6 0.2 1.1-0.1 0.9-0.5 1.6-0.5 0.7-1.2 1.1-0.8 0.4-1.7 0.3-0.9 0-1.6-0.4-0.7-0.5-1.1-1.2-0.4-0.7-0.3-1.6 0-0.8 0.4-1.4zm0.8 3q0.5 0.6 1.4 0.7l0.2-4.2q-0.9 0.1-1.4 0.6-0.6 0.5-0.7 1.4 0 0.9 0.5 1.5z"/><path class="b" d="m31.6 151.4q0.5-0.6 1.2-0.9 0.8-0.2 1.7-0.2 0.2 0.1 0.3 0.2 0 0.1 0 0.3l-0.4 4.6q0.9 0 1.6-0.6 0.6-0.6 0.7-1.5 0.1-0.4 0-0.8-0.1-0.5-0.3-0.8-0.1-0.1-0.1-0.3 0-0.1 0.1-0.2 0.2-0.2 0.3-0.1 0.2 0 0.3 0.1 0.3 0.4 0.4 1 0.2 0.6 0.1 1.2-0.1 0.9-0.6 1.6-0.4 0.6-1.2 1-0.8 0.3-1.7 0.2-0.9-0.1-1.6-0.5-0.7-0.5-1-1.2-0.4-0.7-0.3-1.6 0.1-0.9 0.6-1.5zm0.6 3.1q0.5 0.6 1.4 0.8l0.4-4.2q-0.9 0-1.5 0.5-0.6 0.5-0.7 1.4-0.1 0.8 0.4 1.5z"/><path class="b" d="m48.5 112.2q0.1 0 0.2 0.2 0 0.1-0.1 0.3 0 0.2-0.1 0.2-0.1 0.1-0.2 0.1l-3.9 0.6-0.1 0.2-0.6 1.5 2.8 1.2q0.1 0.1 0.2 0.3 0.1 0.2 0 0.3-0.1 0.2-0.2 0.3-0.2 0-0.4 0l-7.4-3.2q-0.2-0.1-0.2-0.3-0.1-0.2 0-0.3l0.8-2q0.4-0.8 1-1.2 0.5-0.5 1.3-0.6 0.7-0.1 1.4 0.2 0.8 0.4 1.3 1.1 0.4 0.7 0.3 1.6l3.6-0.6q0.1 0 0.3 0.1zm-4.9 1.2q0.2-0.5 0.2-1-0.1-0.5-0.3-0.9-0.3-0.4-0.8-0.7-0.5-0.2-1-0.1-0.5 0-0.9 0.4-0.4 0.3-0.7 0.8l-0.6 1.6 3.4 1.5z"/><path class="b" d="m45.9 104.9q0.6-0.5 1.4-0.5 0.8 0 1.6 0.4 0.1 0.1 0.2 0.3 0 0.1 0 0.3l-2.1 4.1q0.9 0.4 1.7 0 0.8-0.3 1.2-1.1 0.2-0.4 0.3-0.8 0-0.5-0.1-0.8 0-0.2 0.1-0.3 0-0.1 0.2-0.2 0.2-0.1 0.3 0 0.2 0 0.2 0.2 0.1 0.5 0.1 1.1-0.1 0.6-0.4 1.1-0.4 0.8-1.1 1.3-0.7 0.5-1.5 0.5-0.8 0.1-1.6-0.4-0.9-0.4-1.4-1.1-0.4-0.6-0.5-1.4-0.1-0.8 0.3-1.6 0.4-0.8 1.1-1.2zm-0.5 3.1q0.2 0.7 1 1.3l1.8-3.8q-0.8-0.3-1.5-0.1-0.8 0.3-1.1 1.1-0.4 0.7-0.2 1.5z"/><path class="b" d="m53.3 102q0.2-0.1 0.4 0 0.1 0.1 0.2 0.3 0 0.2-0.1 0.4l-0.1 0.2q-0.3 0.5-0.8 0.8-0.5 0.3-1.1 0.2-0.5 0-1.1-0.3l-2.7-1.5-0.3 0.7q-0.1 0.2-0.3 0.2-0.1 0-0.3 0-0.1-0.1-0.1-0.3-0.1-0.1 0-0.3l0.4-0.6-1.6-0.9q-0.2-0.1-0.2-0.3-0.1-0.1 0-0.3 0.1-0.2 0.3-0.2 0.2-0.1 0.3 0l1.6 0.9 0.6-1.1q0.1-0.2 0.3-0.2 0.1-0.1 0.3 0 0.1 0.1 0.1 0.2 0.1 0.2 0 0.3l-0.6 1.2 2.7 1.5q0.5 0.2 1 0.1 0.5-0.1 0.7-0.6l0.2-0.2q0.1-0.2 0.2-0.2z"/><path class="b" d="m52.4 93.1q0.1-0.1 0.3 0l4.6 2.9q0.2 0.1 0.2 0.3 0.1 0.1 0 0.3-0.1 0.2-0.3 0.2-0.2 0-0.3-0.1l-0.4-0.2q0.2 0.6 0.1 1.2-0.1 0.5-0.4 1.1-0.4 0.7-1.1 1.1-0.6 0.3-1.4 0.3-0.7 0-1.5-0.5l-2.5-1.6q-0.2-0.1-0.2-0.3-0.1-0.1 0-0.3 0.1-0.2 0.3-0.2 0.2 0 0.3 0.1l2.6 1.5q0.8 0.6 1.6 0.4 0.7-0.3 1.2-1 0.3-0.5 0.4-1 0-0.5-0.2-0.9-0.1-0.5-0.5-0.7l-2.9-1.8q-0.2-0.1-0.3-0.3 0-0.1 0.1-0.3 0.1-0.2 0.3-0.2z"/><path class="b" d="m55.7 88.1q0.3-0.2 0.5-0.1 0 0.1 0.1 0.1 0.1 0.1 0.1 0.2-0.1 0.1-0.2 0.3 0 0.1-0.2 0.3 0 0-0.1 0.2-0.5 0.7-0.5 1.4 0.1 0.7 0.7 1.1l2.8 2q0.2 0.1 0.2 0.3 0.1 0.1-0.1 0.3-0.1 0.2-0.2 0.2-0.2 0-0.4-0.1l-4.4-3.1q-0.2-0.1-0.2-0.2-0.1-0.2 0.1-0.4 0.1-0.1 0.3-0.2 0.1 0 0.3 0.1l0.4 0.3q-0.2-0.5-0.1-1.1 0-0.6 0.4-1.1 0.3-0.4 0.5-0.5z"/><path class="b" d="m59.7 83.2q0.6-0.3 1.4-0.2 0.7 0.1 1.5 0.6l2.3 1.8q0.2 0.1 0.2 0.3 0 0.2-0.1 0.3-0.1 0.2-0.3 0.2-0.2 0.1-0.3-0.1l-2.4-1.8q-0.8-0.6-1.5-0.5-0.8 0.2-1.4 0.9-0.3 0.4-0.4 0.9-0.1 0.5 0 1 0.2 0.4 0.5 0.7l2.7 2.1q0.2 0.1 0.2 0.3 0.1 0.1-0.1 0.3-0.1 0.1-0.3 0.2-0.1 0-0.3-0.1l-4.3-3.3q-0.1-0.1-0.2-0.3 0-0.2 0.1-0.3 0.2-0.2 0.3-0.2 0.2 0 0.4 0.1l0.3 0.2q-0.1-0.5 0-1.1 0.1-0.6 0.5-1.1 0.5-0.6 1.2-0.9z"/><path class="b" d="m55.6 252q0-0.2 0.2-0.3l6.2-5.1q0.2-0.1 0.4-0.1 0.1 0 0.3 0.1 0.1 0.2 0.1 0.4 0 0.2-0.2 0.3l-5 4.1 7.1-1.7q0.2 0 0.4 0.2 0.2 0.2 0 0.5l-2.9 6.5 5-4.1q0.1-0.1 0.3-0.1 0.2 0 0.3 0.2 0.1 0.1 0.1 0.3 0 0.2-0.2 0.3l-6.2 5.2q-0.2 0.1-0.3 0.1-0.2-0.1-0.3-0.2-0.2-0.2-0.1-0.5l3.3-7.5-7.9 1.9q-0.3 0-0.5-0.2-0.1-0.1-0.1-0.3z"/><path class="b" d="m54.1 244.9q-0.1-0.9 0.3-1.7 0.3-0.7 1-1.2l2.2-1.6q0.2-0.1 0.4-0.1 0.1 0 0.2 0.2 0.2 0.2 0.1 0.3 0 0.2-0.1 0.3l-0.6 0.4q0.7 0 1.3 0.3 0.6 0.4 1 1 0.6 0.7 0.6 1.5 0.1 0.8-0.3 1.6-0.3 0.7-1.1 1.3-0.7 0.5-1.5 0.6-0.9 0.1-1.6-0.3-0.8-0.3-1.3-1.1-0.5-0.7-0.6-1.5zm4.2-2.5q-0.5-0.3-1.2-0.2-0.6 0.1-1.1 0.5-0.6 0.4-0.9 0.9-0.2 0.6-0.2 1.2 0.1 0.6 0.5 1.2 0.3 0.5 0.9 0.7 0.6 0.3 1.2 0.2 0.6-0.1 1.2-0.4 0.5-0.4 0.8-1 0.2-0.6 0.2-1.2-0.1-0.6-0.5-1.1-0.3-0.6-0.9-0.8z"/><path class="b" d="m50.2 239.6q0-0.3 0.2-0.4 0.1 0 0.1-0.1 0.1 0 0.2 0 0.1 0.1 0.2 0.2 0.1 0.1 0.2 0.3 0.1 0.1 0.2 0.3 0.4 0.7 1.1 0.9 0.7 0.2 1.3-0.2l2.9-1.8q0.2-0.2 0.3-0.1 0.2 0 0.3 0.2 0.1 0.2 0.1 0.3-0.1 0.2-0.2 0.3l-4.6 2.9q-0.2 0.1-0.3 0.1-0.2 0-0.3-0.2-0.1-0.2-0.1-0.3 0.1-0.2 0.2-0.3l0.5-0.3q-0.6 0-1.1-0.3-0.5-0.3-0.9-0.8-0.2-0.4-0.3-0.7z"/><path class="b" d="m52.2 231.4q0.1-0.1 0.3 0 0.2 0 0.2 0.1 0.1 0.2 0.1 0.4l-1.3 3.5 1.1 0.3 1.5-0.9q0.2-0.1 0.3 0 0.2 0 0.3 0.2 0.1 0.1 0.1 0.3-0.1 0.2-0.2 0.3l-7 4.1q-0.2 0.1-0.3 0.1-0.2-0.1-0.3-0.2-0.1-0.2-0.1-0.4 0.1-0.1 0.2-0.2l4.5-2.7-4.1-1.3q-0.2-0.1-0.3-0.2-0.1-0.1 0-0.3 0.1-0.2 0.2-0.3 0.1 0 0.3 0l3 0.9 1.3-3.5q0-0.2 0.1-0.2z"/><path class="b" d="m44.9 229.7q0.1-0.8 0.5-1.4 0.5-0.6 1.3-1.1 0.1-0.1 0.3 0 0.1 0 0.2 0.2l2.2 4.1q0.8-0.5 1-1.4 0.2-0.8-0.2-1.7-0.2-0.3-0.6-0.6-0.3-0.3-0.6-0.5-0.2 0-0.3-0.2 0-0.1 0-0.2 0-0.2 0.2-0.3 0.1-0.1 0.3 0 0.5 0.1 0.9 0.6 0.5 0.4 0.7 0.9 0.5 0.8 0.5 1.6-0.1 0.8-0.5 1.5-0.5 0.7-1.3 1.2-0.8 0.4-1.6 0.4-0.9 0-1.5-0.4-0.7-0.4-1.1-1.2-0.4-0.7-0.4-1.5zm2.2 2.2q0.8 0.2 1.6-0.1l-2-3.7q-0.7 0.5-0.9 1.3-0.2 0.7 0.2 1.4 0.4 0.8 1.1 1.1z"/><path class="b" d="m47.1 222.5q0.1-0.2 0.3-0.3 0.1-0.1 0.3 0 0.2 0.1 0.3 0.3l0.1 0.2q0.3 0.6 0.2 1.1-0.1 0.6-0.4 1-0.3 0.5-0.9 0.8l-2.8 1.3 0.4 0.7q0 0.1 0 0.3 0 0.1-0.2 0.2-0.1 0.1-0.3 0-0.1 0-0.2-0.2l-0.3-0.7-1.7 0.8q-0.1 0.1-0.3 0-0.2 0-0.2-0.2-0.1-0.2-0.1-0.4 0.1-0.1 0.3-0.2l1.6-0.8-0.6-1.1q-0.1-0.2 0-0.4 0-0.1 0.2-0.2 0.1 0 0.3 0 0.1 0.1 0.2 0.2l0.6 1.2 2.7-1.3q0.5-0.3 0.7-0.8 0.2-0.4 0-0.9l-0.1-0.3q-0.1-0.2-0.1-0.3z"/><path class="b" d="m40.4 224.3q-0.1 0.2-0.3 0.3-0.3 0.2-0.5 0.1-0.3-0.1-0.4-0.4-0.1-0.2 0-0.4 0.1-0.3 0.3-0.4 0.3-0.1 0.5 0 0.3 0.1 0.4 0.3 0.1 0.3 0 0.5zm6.8-3.2q-0.1 0.1-0.2 0.2l-5 2.3q-0.1 0-0.3 0-0.2-0.1-0.2-0.3-0.1-0.1-0.1-0.3 0.1-0.2 0.3-0.2l4.9-2.3q0.2 0 0.3 0 0.2 0.1 0.3 0.3 0.1 0.1 0 0.3z"/><path class="b" d="m39.1 217q0.1-0.7 0.5-1.3 0.5-0.6 1.4-0.9l2.7-1.2q0.2 0 0.4 0 0.2 0.1 0.2 0.3 0.1 0.2 0 0.3-0.1 0.2-0.2 0.3l-2.8 1.1q-0.9 0.4-1.2 1.1-0.3 0.7 0 1.6 0.2 0.5 0.6 0.8 0.4 0.4 0.8 0.5 0.5 0.1 0.9-0.1l3.2-1.3q0.2-0.1 0.3 0 0.2 0.1 0.3 0.3 0 0.1 0 0.3-0.1 0.2-0.3 0.2l-5 2.1q-0.2 0-0.4 0-0.1-0.1-0.2-0.3-0.1-0.2 0-0.3 0.1-0.2 0.3-0.2l0.3-0.2q-0.5-0.2-0.9-0.6-0.5-0.4-0.7-1-0.3-0.8-0.2-1.5z"/><path class="b" d="m36.6 210q0.2-0.9 0.7-1.5 0.6-0.6 1.5-0.9l2.2-0.8q0.9-0.3 1.7-0.1 0.8 0.1 1.5 0.6 0.6 0.6 0.9 1.4 0.3 0.9 0.2 1.6-0.1 0.8-0.5 1.4 0 0.2-0.2 0.2-0.2 0.1-0.3 0-0.1-0.1-0.2-0.2 0-0.1 0-0.3 0-0.1 0.1-0.1 0.3-0.5 0.3-1.1 0.1-0.6-0.1-1.2-0.2-0.6-0.7-1-0.5-0.4-1.1-0.5-0.7-0.1-1.3 0.1l-0.5 0.2q0.7 0.1 1.3 0.6 0.5 0.5 0.8 1.2 0.3 0.9 0.1 1.7-0.1 0.8-0.7 1.4-0.6 0.6-1.4 0.9-0.9 0.3-1.8 0.2-0.8-0.2-1.4-0.7-0.6-0.6-0.9-1.5-0.3-0.8-0.2-1.7zm4.8-1.1q-0.5-0.4-1.1-0.5-0.6-0.1-1.2 0.1-0.7 0.2-1.1 0.7-0.4 0.4-0.6 1-0.1 0.6 0.1 1.3 0.3 0.6 0.7 1 0.5 0.4 1.1 0.5 0.6 0.1 1.3-0.1 0.6-0.2 1.1-0.7 0.4-0.4 0.5-1 0.1-0.6-0.1-1.3-0.2-0.6-0.7-1z"/><path class="b" d="m123.7 291.9q0.8 1 1 2.1 0.2 1.2-0.3 2.5-0.4 1.2-1.3 2-0.9 0.8-2.1 1-1.2 0.2-2.4-0.3-1.3-0.4-2.1-1.3-0.7-0.9-0.9-2.1-0.2-1.2 0.2-2.4 0.4-1.3 1.4-2.1 0.9-0.8 2.1-1 1.2-0.2 2.4 0.3 1.2 0.4 2 1.3zm-4.3-0.7q-0.9 0.2-1.7 0.8-0.7 0.7-1.1 1.7-0.3 1-0.2 1.9 0.2 1 0.8 1.7 0.7 0.8 1.6 1.1 1 0.4 2 0.2 1-0.2 1.7-0.8 0.8-0.6 1.1-1.6 0.4-1 0.2-2-0.1-1-0.8-1.7-0.6-0.8-1.6-1.1-1-0.4-1.9-0.2z"/><path class="b" d="m109.6 292.2q-0.5-0.7-0.6-1.5-0.1-0.9 0.3-1.7 0.3-0.8 1-1.3 0.7-0.5 1.5-0.6 0.8-0.1 1.6 0.2 0.7 0.3 1.1 0.9 0.5 0.5 0.6 1.2l1.4-3.1q0-0.2 0.2-0.3 0.2 0 0.4 0 0.1 0.1 0.2 0.3 0.1 0.2 0 0.3l-1.1 2.4c0 0 0 0 0 0.1l-1.1 2.5q-0.3 0.8-1 1.3-0.7 0.5-1.5 0.6-0.9 0.1-1.7-0.3-0.8-0.3-1.3-1zm2.3-4.3q-0.6 0.1-1.1 0.4-0.5 0.4-0.7 1-0.3 0.7-0.2 1.3 0 0.6 0.4 1.1 0.3 0.5 0.9 0.8 0.6 0.3 1.2 0.2 0.7-0.1 1.2-0.5 0.5-0.4 0.7-1 0.1-0.2 0.1-0.3 0 0 0 0 0.3-0.9-0.1-1.7-0.3-0.7-1.1-1.1-0.6-0.3-1.3-0.2z"/><path class="b" d="m103.2 289.1q-0.4-0.6-0.4-1.4 0-0.8 0.4-1.6 0-0.2 0.2-0.2 0.1-0.1 0.3 0l4.1 2.1q0.4-0.9 0.1-1.7-0.3-0.8-1.2-1.3-0.4-0.2-0.8-0.2-0.5-0.1-0.8 0-0.1 0-0.3 0-0.1-0.1-0.2-0.2 0-0.2 0-0.4 0.1-0.1 0.2-0.2 0.5-0.1 1.2 0 0.6 0.1 1 0.3 0.9 0.4 1.3 1.1 0.5 0.7 0.5 1.5 0.1 0.9-0.3 1.7-0.5 0.8-1.1 1.3-0.7 0.5-1.5 0.6-0.8 0-1.6-0.4-0.7-0.4-1.1-1zm3 0.5q0.8-0.2 1.3-1l-3.8-1.9q-0.3 0.9 0 1.6 0.2 0.7 1 1.1 0.8 0.4 1.5 0.2z"/><path class="b" d="m97.7 286.4q-0.2-0.2-0.1-0.4 0.1-0.1 0.1-0.1 0.1-0.1 0.2-0.1 0.1 0 0.3 0.1 0.1 0 0.3 0.1 0 0.1 0.2 0.2 0.8 0.4 1.5 0.3 0.7-0.2 1-0.8l1.7-3q0.1-0.2 0.3-0.2 0.1-0.1 0.3 0 0.2 0.1 0.2 0.3 0.1 0.1 0 0.3l-2.7 4.7q-0.1 0.2-0.2 0.3-0.2 0-0.4-0.1-0.2-0.1-0.2-0.2 0-0.2 0.1-0.4l0.2-0.4q-0.5 0.2-1.1 0.2-0.6 0-1.1-0.3-0.4-0.2-0.6-0.5z"/><path class="b" d="m93.5 283.5q-0.5-0.7-0.4-1.6 0-0.8 0.5-1.6l1.4-2.3q0.1-0.1 0.2-0.2 0.2 0 0.4 0.1 0.1 0.1 0.2 0.2 0 0.2-0.1 0.4l-0.3 0.6q0.6-0.3 1.3-0.2 0.7 0 1.3 0.4 0.8 0.5 1.2 1.2 0.3 0.7 0.3 1.5 0 0.9-0.5 1.6-0.5 0.8-1.2 1.2-0.7 0.4-1.6 0.4-0.8 0-1.6-0.5-0.8-0.5-1.2-1.2zm3-3.9q-0.7 0-1.2 0.3-0.5 0.3-0.9 0.9-0.4 0.5-0.4 1.2 0 0.6 0.3 1.1 0.3 0.6 0.8 0.9 0.6 0.4 1.2 0.4 0.6 0 1.2-0.3 0.5-0.3 0.9-0.9 0.3-0.6 0.4-1.2 0-0.6-0.3-1.2-0.3-0.5-0.9-0.9-0.5-0.3-1.1-0.3z"/><path class="b" d="m91.4 276q-0.1-0.2 0-0.4 0.1-0.1 0.3-0.2 0.2 0 0.4 0.1l0.2 0.2q0.5 0.3 0.7 0.8 0.3 0.5 0.2 1.1 0 0.6-0.4 1.1l-1.7 2.5 0.6 0.4q0.2 0.2 0.2 0.3 0 0.2-0.1 0.3-0.1 0.1-0.2 0.2-0.2 0-0.3-0.1l-0.6-0.4-1 1.5q-0.1 0.1-0.3 0.2-0.2 0-0.3-0.1-0.2-0.1-0.2-0.3-0.1-0.2 0-0.3l1-1.5-1.1-0.7q-0.1-0.1-0.1-0.3-0.1-0.1 0-0.3 0.1-0.1 0.3-0.1 0.1-0.1 0.3 0l1.1 0.8 1.7-2.6q0.3-0.5 0.2-1-0.1-0.5-0.5-0.8l-0.3-0.2q-0.1-0.1-0.2-0.2z"/><path class="b" d="m86.4 280.9q0.1 0.3-0.1 0.5-0.1 0.2-0.4 0.3-0.2 0-0.4-0.2-0.2-0.1-0.3-0.3 0-0.3 0.1-0.5 0.2-0.2 0.4-0.3 0.3 0 0.5 0.1 0.2 0.2 0.2 0.4zm4.3-6.2q0 0.2-0.1 0.4l-3.1 4.4q-0.1 0.1-0.3 0.1-0.2 0.1-0.3 0-0.2-0.2-0.2-0.3 0-0.2 0.1-0.4l3.1-4.4q0.1-0.1 0.3-0.1 0.2-0.1 0.3 0 0.2 0.1 0.2 0.3z"/><path class="b" d="m87.7 272.8q0.3 0.8 0.2 1.6-0.2 0.8-0.7 1.5-0.6 0.8-1.3 1.1-0.8 0.3-1.6 0.2-0.9-0.1-1.6-0.7-0.7-0.5-1-1.3-0.4-0.8-0.2-1.6 0.1-0.8 0.6-1.6 0.6-0.7 1.4-1 0.7-0.3 1.6-0.2 0.8 0.1 1.5 0.7 0.7 0.5 1.1 1.3zm-2.7-1.2q-0.6-0.1-1.2 0.2-0.6 0.2-1 0.8-0.4 0.5-0.5 1.1-0.1 0.7 0.1 1.2 0.3 0.6 0.8 1 0.5 0.4 1.1 0.5 0.6 0.1 1.2-0.2 0.6-0.2 1-0.8 0.4-0.5 0.5-1.1 0.1-0.7-0.1-1.2-0.3-0.6-0.8-1-0.5-0.4-1.1-0.5z"/><path class="b" d="m75.9 270.6q-0.2-0.7-0.1-1.5 0.2-0.7 0.8-1.4l1.9-2.3q0.1-0.1 0.3-0.1 0.2 0 0.3 0.1 0.2 0.1 0.2 0.3 0 0.2-0.1 0.3l-2 2.3q-0.6 0.7-0.5 1.5 0 0.8 0.7 1.4 0.5 0.4 1 0.5 0.4 0.1 0.9 0 0.4-0.1 0.8-0.5l2.2-2.5q0.1-0.2 0.3-0.2 0.1 0 0.3 0.1 0.1 0.1 0.2 0.3 0 0.2-0.1 0.3l-3.6 4.1q-0.1 0.2-0.3 0.2-0.2 0-0.3-0.1-0.2-0.2-0.2-0.3 0-0.2 0.2-0.3l0.2-0.3q-0.5 0-1.1-0.1-0.6-0.2-1.1-0.6-0.6-0.6-0.9-1.2z"/><path class="b" d="m248.8 271.1q-0.1-0.2 0-0.3 0-0.2 0.2-0.3 0.1-0.1 0.2-0.1 0.1 0 0.2 0l3.7 1.2 0.2-0.2 1.3-1.1-2-2.3q-0.1-0.1-0.1-0.3 0-0.2 0.1-0.3 0.2-0.1 0.4-0.1 0.1 0 0.3 0.1l5.2 6.2q0.1 0.1 0.1 0.3 0 0.2-0.2 0.3l-1.6 1.4q-0.6 0.6-1.4 0.7-0.7 0.2-1.4-0.1-0.7-0.2-1.2-0.8-0.6-0.7-0.6-1.5-0.1-0.8 0.3-1.6l-3.4-1.1q-0.2 0-0.2-0.1zm4.9 1q-0.4 0.4-0.6 0.9-0.2 0.4-0.2 0.9 0.1 0.5 0.5 0.9 0.3 0.4 0.8 0.6 0.5 0.2 1 0.1 0.5-0.2 0.9-0.5l1.3-1.1-2.4-2.9z"/><path class="b" d="m248.4 278.4q-0.7 0.1-1.5-0.2-0.7-0.4-1.2-1.1-0.1-0.1-0.1-0.3 0-0.1 0.2-0.3l3.6-2.8q-0.6-0.7-1.5-0.8-0.8 0-1.6 0.6-0.3 0.2-0.6 0.6-0.2 0.3-0.3 0.7 0 0.1-0.2 0.3-0.1 0-0.2 0-0.2 0-0.3-0.1-0.1-0.1-0.1-0.3 0.1-0.5 0.4-1 0.4-0.6 0.8-0.9 0.7-0.5 1.6-0.7 0.8-0.1 1.6 0.3 0.7 0.3 1.3 1 0.5 0.7 0.7 1.6 0.1 0.8-0.2 1.5-0.3 0.8-1 1.3-0.6 0.5-1.4 0.6zm1.8-2.6q0.1-0.7-0.3-1.5l-3.4 2.5q0.6 0.7 1.4 0.8 0.8 0.1 1.5-0.5 0.6-0.5 0.8-1.3z"/><path class="b" d="m242.4 275.6q0.7-0.1 1.3 0 0.2 0 0.2 0.1 0.1 0.2 0.1 0.4-0.1 0.2-0.2 0.3-0.2 0.1-0.4 0-0.4-0.1-0.9 0-0.4 0.2-0.9 0.5-0.6 0.4-0.8 0.9-0.2 0.5 0.1 0.8 0.2 0.4 0.7 0.4 0.5 0 1.3-0.4 1-0.5 1.7-0.5 0.7 0.1 1.1 0.6 0.5 0.7 0.2 1.4-0.3 0.8-1.1 1.4-0.6 0.4-1.2 0.5-0.6 0.1-1.1-0.1-0.2 0-0.3-0.1-0.1-0.2 0-0.4 0-0.1 0.1-0.2 0.2-0.1 0.5-0.1 0.8 0.3 1.6-0.3 0.5-0.4 0.7-0.8 0.2-0.4-0.1-0.7-0.2-0.4-0.6-0.4-0.5 0-1.3 0.4-1.1 0.6-1.8 0.5-0.7-0.1-1.1-0.7-0.3-0.4-0.3-0.9 0-0.6 0.3-1.1 0.4-0.5 0.9-0.9 0.6-0.4 1.3-0.6z"/><path class="b" d="m237.6 279.1q0.9 0 1.6 0.4 0.7 0.4 1.2 1.1 0.5 0.8 0.5 1.6 0.1 0.9-0.3 1.6-0.4 0.8-1.2 1.2-0.8 0.5-1.6 0.6-0.8 0-1.6-0.4-0.7-0.4-1.2-1.2-0.5-0.7-0.5-1.6 0-0.8 0.3-1.6 0.4-0.7 1.2-1.2 0.8-0.5 1.6-0.5zm-2 2.1q-0.3 0.5-0.3 1.2 0.1 0.6 0.4 1.2 0.4 0.5 1 0.8 0.5 0.4 1.1 0.3 0.6 0 1.2-0.3 0.6-0.4 0.8-0.9 0.3-0.6 0.3-1.2 0-0.6-0.4-1.2-0.4-0.6-0.9-0.9-0.6-0.3-1.2-0.3-0.6 0-1.2 0.4-0.5 0.4-0.8 0.9z"/><path class="b" d="m230.5 290q-0.1-0.1-0.2-0.2l-2.7-4.8q0-0.1 0-0.3 0.1-0.2 0.2-0.3 0.2-0.1 0.4 0 0.1 0 0.2 0.2l0.2 0.3q0.1-0.5 0.5-1 0.4-0.5 0.9-0.8 0.7-0.4 1.5-0.4 0.7 0 1.3 0.4 0.7 0.4 1.1 1.2l1.5 2.6q0.1 0.2 0 0.4 0 0.1-0.2 0.2-0.2 0.1-0.3 0.1-0.2-0.1-0.3-0.2l-1.4-2.6q-0.5-0.9-1.3-1.1-0.7-0.2-1.6 0.2-0.4 0.3-0.7 0.7-0.3 0.4-0.4 0.9 0 0.4 0.2 0.9l1.6 2.9q0.1 0.2 0.1 0.4 0 0.1-0.2 0.2-0.2 0.1-0.4 0.1z"/><path class="b" d="m225.7 292.5q-0.3 0-0.4-0.2 0-0.1-0.1-0.1 0-0.2 0.1-0.3 0-0.1 0.2-0.2 0.1 0 0.3-0.1 0.1 0 0.3-0.1 0.7-0.4 1-1 0.3-0.7 0-1.4l-1.5-3q-0.1-0.2-0.1-0.4 0.1-0.1 0.3-0.2 0.2-0.1 0.3-0.1 0.2 0.1 0.3 0.3l2.4 4.8q0 0.2 0 0.4-0.1 0.1-0.2 0.2-0.2 0.1-0.4 0.1-0.1-0.1-0.2-0.3l-0.3-0.4q0 0.6-0.4 1-0.3 0.5-0.9 0.7-0.4 0.3-0.7 0.3z"/><path class="b" d="m221.6 287.9q0.8 0.1 1.5 0.6 0.7 0.5 1 1.3 0.4 0.8 0.4 1.7-0.1 0.8-0.6 1.5-0.4 0.6-1.2 1-1.3 0.6-2.6-0.1-0.1 0-0.2-0.2 0-0.1 0.1-0.3 0.1-0.1 0.2-0.2 0.1-0.1 0.3 0 0.5 0.2 1 0.2 0.4 0 0.9-0.2 0.6-0.2 0.9-0.7 0.3-0.5 0.3-1.1 0.1-0.6-0.2-1.2-0.3-0.7-0.8-1-0.5-0.4-1.1-0.5-0.6-0.1-1.2 0.2-0.8 0.4-1.1 1.1-0.1 0.2-0.3 0.2-0.1 0.1-0.2 0-0.2 0-0.3-0.2-0.1-0.1 0-0.3 0.4-1 1.6-1.5 0.8-0.4 1.6-0.3z"/><path class="b" d="m215.2 296.6q-0.7-0.1-1.3-0.6-0.6-0.5-1-1.4 0-0.1 0-0.3 0.1-0.1 0.3-0.2l4.3-1.7q-0.4-0.8-1.2-1.1-0.8-0.4-1.7 0-0.4 0.1-0.8 0.4-0.3 0.3-0.5 0.6-0.1 0.2-0.2 0.2-0.1 0.1-0.3 0-0.2 0-0.2-0.2-0.1-0.1 0-0.3 0.2-0.4 0.7-0.8 0.5-0.4 1-0.6 0.8-0.4 1.6-0.3 0.9 0.2 1.5 0.7 0.7 0.5 1 1.4 0.3 0.8 0.2 1.7 0 0.8-0.5 1.4-0.5 0.6-1.3 1-0.8 0.3-1.6 0.1zm2.4-1.9q0.4-0.7 0.2-1.6l-4 1.6q0.4 0.7 1.2 1 0.7 0.3 1.5 0 0.8-0.3 1.1-1z"/><path class="b" d="m210.2 292.3q0.7 0 1.3 0.3 0.1 0.1 0.2 0.2 0 0.2-0.1 0.4-0.1 0.1-0.2 0.2-0.2 0.1-0.4 0-0.4-0.3-0.9-0.3-0.5 0-1 0.2-0.7 0.2-1 0.6-0.3 0.4-0.2 0.9 0.1 0.4 0.6 0.5 0.5 0.1 1.4 0 1.1-0.2 1.8 0 0.6 0.3 0.8 0.9 0.3 0.8-0.2 1.4-0.4 0.7-1.4 1-0.7 0.2-1.3 0.2-0.6-0.1-1.1-0.4-0.1-0.1-0.1-0.3-0.1-0.1 0-0.3 0.1-0.1 0.2-0.1 0.2-0.1 0.5 0 0.7 0.4 1.6 0.1 0.6-0.2 0.9-0.6 0.3-0.3 0.2-0.7-0.2-0.4-0.6-0.5-0.4-0.1-1.3 0-1.3 0.2-1.9 0-0.6-0.3-0.9-1-0.1-0.5 0-1 0.2-0.5 0.6-0.9 0.5-0.4 1.2-0.6 0.6-0.2 1.3-0.2z"/><path class="b" d="m190.6 296.5q0.1 0.1 0.2 0.3l1.2 8q0.1 0.1 0 0.3-0.1 0.1-0.3 0.2l-2.1 0.3q-1.3 0.2-2.4-0.2-1.1-0.4-1.8-1.3-0.7-0.9-0.9-2.2-0.2-1.3 0.2-2.4 0.4-1.1 1.3-1.8 0.9-0.8 2.2-1l2.1-0.3q0.1 0 0.3 0.1zm-2.3 1q-1 0.2-1.7 0.8-0.7 0.6-1.1 1.5-0.3 0.9-0.1 2 0.1 1 0.7 1.8 0.6 0.7 1.5 1 0.9 0.4 1.9 0.2l1.6-0.2-1.2-7.3z"/><path class="b" d="m178.6 303.9q-0.7-0.3-1.1-0.9-0.4-0.7-0.5-1.6 0-0.2 0-0.3 0.2-0.1 0.3-0.1l4.7-0.5q-0.2-0.9-0.9-1.4-0.7-0.6-1.7-0.5-0.4 0.1-0.8 0.3-0.4 0.2-0.6 0.4-0.2 0.1-0.3 0.1-0.1 0-0.3 0-0.1-0.2-0.2-0.3 0-0.2 0.1-0.3 0.4-0.4 0.9-0.6 0.6-0.3 1.1-0.4 1 0 1.7 0.3 0.8 0.3 1.3 1 0.4 0.7 0.5 1.6 0.1 0.9-0.2 1.7-0.3 0.8-0.9 1.2-0.7 0.5-1.5 0.6-0.9 0.1-1.6-0.3zm2.9-1.2q0.5-0.6 0.5-1.5l-4.2 0.4q0.2 0.9 0.8 1.4 0.6 0.5 1.5 0.4 0.8-0.1 1.4-0.7z"/><path class="b" d="m174.3 298.6q0.8 0.4 1.2 1.1 0.4 0.7 0.5 1.6 0 1-0.3 1.7-0.4 0.8-1.1 1.2-0.6 0.5-1.5 0.5-1.4 0.1-2.4-1-0.1-0.1-0.1-0.2 0-0.2 0.2-0.4 0.1 0 0.2 0 0.2 0 0.4 0.1 0.3 0.4 0.7 0.6 0.5 0.1 1 0.1 0.6 0 1.1-0.4 0.5-0.3 0.7-0.8 0.2-0.6 0.2-1.3 0-0.7-0.3-1.2-0.3-0.5-0.9-0.8-0.5-0.3-1.2-0.3-0.9 0.1-1.4 0.6-0.2 0.1-0.3 0.1-0.2 0-0.3 0-0.2-0.2-0.2-0.3 0-0.2 0.1-0.3 0.8-0.8 2.1-0.9 0.9 0 1.6 0.4z"/><path class="b" d="m168.6 306.2q0.2 0.1 0.2 0.4 0 0.3-0.2 0.5-0.2 0.1-0.4 0.1-0.3 0-0.5-0.1-0.2-0.2-0.2-0.5 0-0.3 0.2-0.4 0.2-0.2 0.5-0.2 0.2 0 0.4 0.2zm-0.2-7.6q0.1 0.1 0.1 0.3l0.1 5.4q0 0.2-0.2 0.3-0.1 0.2-0.3 0.2-0.2 0-0.3-0.2-0.1-0.1-0.1-0.3l-0.1-5.4q0-0.2 0.2-0.3 0.1-0.1 0.3-0.1 0.2 0 0.3 0.1z"/><path class="b" d="m164.6 298.7q0.7 0.2 1.1 0.7 0.1 0.1 0.1 0.2 0 0.2-0.2 0.4-0.1 0.1-0.3 0.1-0.2 0-0.3-0.2-0.3-0.3-0.7-0.5-0.5-0.2-1-0.2-0.9 0-1.3 0.2-0.4 0.3-0.4 0.8 0 0.4 0.4 0.7 0.4 0.2 1.3 0.4 1.1 0.2 1.6 0.7 0.6 0.5 0.5 1.1 0 0.8-0.6 1.3-0.7 0.4-1.7 0.4-0.7 0-1.3-0.3-0.5-0.3-0.9-0.7-0.1-0.2-0.1-0.3 0-0.2 0.2-0.3 0.1-0.1 0.3-0.1 0.2 0 0.4 0.2 0.5 0.7 1.5 0.7 0.6 0 1-0.2 0.4-0.3 0.4-0.7 0-0.4-0.3-0.6-0.4-0.3-1.3-0.5-1.2-0.2-1.7-0.7-0.6-0.5-0.5-1.2 0-0.5 0.3-0.9 0.3-0.4 0.9-0.6 0.6-0.2 1.3-0.2 0.7 0 1.3 0.3z"/><path class="b" d="m158.7 305.9q0.1 0.2 0.1 0.5 0 0.2-0.2 0.4-0.2 0.2-0.4 0.2-0.3-0.1-0.5-0.2-0.1-0.2-0.1-0.5 0-0.3 0.2-0.4 0.2-0.2 0.4-0.2 0.3 0 0.5 0.2zm0.3-7.5q0.1 0.1 0.1 0.3l-0.3 5.4q0 0.2-0.2 0.3-0.1 0.1-0.3 0.1-0.2 0-0.3-0.1-0.1-0.2-0.1-0.4l0.3-5.4q0-0.1 0.2-0.3 0.1-0.1 0.3-0.1 0.2 0 0.3 0.2z"/><path class="b" d="m154.8 298.3q0.7 0.5 1.1 1.3 0.3 0.7 0.2 1.6-0.1 0.9-0.6 1.6-0.5 0.7-1.2 1-0.8 0.4-1.7 0.3-0.9-0.1-1.6-0.6-0.7-0.5-1-1.3-0.3-0.7-0.3-1.6 0.1-0.9 0.6-1.6 0.5-0.7 1.3-1 0.8-0.4 1.7-0.3 0.9 0.1 1.5 0.6zm-2.9 0.4q-0.5 0.2-0.9 0.8-0.3 0.5-0.4 1.1-0.1 0.7 0.2 1.3 0.2 0.6 0.7 0.9 0.5 0.4 1.2 0.5 0.6 0 1.2-0.2 0.5-0.3 0.9-0.8 0.4-0.5 0.4-1.2 0.1-0.6-0.1-1.2-0.3-0.6-0.8-1-0.5-0.3-1.1-0.4-0.7-0.1-1.3 0.2z"/><path class="b" d="m143.1 302.4q-0.5-0.4-0.8-1.1-0.3-0.8-0.1-1.7l0.5-2.9q0-0.2 0.2-0.3 0.1-0.1 0.3-0.1 0.2 0.1 0.3 0.2 0.1 0.2 0.1 0.3l-0.5 3q-0.2 1 0.3 1.6 0.5 0.6 1.4 0.8 0.5 0.1 1-0.1 0.5-0.1 0.8-0.4 0.3-0.4 0.4-0.8l0.6-3.4q0-0.2 0.1-0.3 0.2-0.1 0.4-0.1 0.2 0.1 0.3 0.2 0.1 0.2 0 0.3l-0.8 5.4q-0.1 0.2-0.2 0.3-0.2 0.1-0.4 0-0.2 0-0.2-0.1-0.1-0.2-0.1-0.4v-0.4q-0.4 0.4-1 0.5-0.5 0.2-1.2 0.1-0.8-0.1-1.4-0.6z"/><path class="b" d="m288.1 220.5q0.2-0.1 0.4 0l7.4 3.2q0.1 0.1 0.2 0.3 0.1 0.1 0 0.3l-2.2 4.9q-0.1 0.2-0.3 0.3-0.1 0.1-0.3 0-0.2-0.1-0.2-0.3-0.1-0.1 0-0.3l2-4.5-2.9-1.3-1.5 3.3q0 0.2-0.2 0.2-0.2 0.1-0.3 0-0.2-0.1-0.3-0.2 0-0.2 0-0.4l1.5-3.3-2.9-1.3-2 4.5q-0.1 0.2-0.3 0.3-0.1 0.1-0.3 0-0.2-0.1-0.2-0.2-0.1-0.2 0-0.4l2.2-4.9q0.1-0.2 0.2-0.3z"/><path class="b" d="m288.2 234q-0.6 0.4-1.4 0.5-0.7 0-1.6-0.4l-2.6-1.4q-0.2-0.1-0.2-0.3-0.1-0.1 0-0.3 0.1-0.2 0.3-0.2 0.1-0.1 0.3 0l2.6 1.4q1 0.4 1.7 0.2 0.7-0.3 1.2-1.1 0.2-0.5 0.2-1 0-0.5-0.2-0.9-0.2-0.4-0.6-0.7l-3.1-1.5q-0.1-0.1-0.2-0.3 0-0.1 0.1-0.3 0-0.2 0.2-0.2 0.2-0.1 0.3 0l4.8 2.5q0.2 0.1 0.3 0.2 0 0.2-0.1 0.4 0 0.2-0.2 0.2-0.2 0-0.4 0l-0.3-0.2q0.2 0.5 0.2 1.1-0.1 0.6-0.4 1.1-0.3 0.8-0.9 1.2z"/><path class="b" d="m280.4 237.2q-0.2 0-0.4-0.1-0.1-0.1-0.2-0.3 0-0.2 0.1-0.3l0.1-0.2q0.3-0.6 0.8-0.8 0.5-0.3 1.1-0.3 0.5 0 1.1 0.3l2.7 1.6 0.3-0.7q0.1-0.1 0.3-0.2 0.1 0 0.3 0.1 0.1 0 0.1 0.2 0.1 0.1 0 0.3l-0.4 0.7 1.6 0.8q0.1 0.1 0.2 0.3 0 0.2-0.1 0.4-0.1 0.1-0.2 0.2-0.2 0-0.4-0.1l-1.5-0.9-0.7 1.2q-0.1 0.1-0.2 0.2-0.2 0-0.3-0.1-0.1-0.1-0.2-0.2 0-0.2 0.1-0.3l0.6-1.2-2.6-1.5q-0.5-0.3-1-0.2-0.5 0.1-0.8 0.6l-0.2 0.3q-0.1 0.1-0.2 0.2z"/><path class="b" d="m278.9 238.4q0.2-0.1 0.3 0l4.6 2.9q0.2 0.1 0.2 0.3 0.1 0.1 0 0.3-0.1 0.2-0.3 0.2-0.2 0-0.3-0.1l-4.6-2.8q-0.2-0.1-0.2-0.3-0.1-0.1 0-0.3 0.1-0.2 0.3-0.2zm6.5 3.8q0.2 0 0.5 0.1 0.2 0.1 0.3 0.4 0 0.2-0.1 0.5-0.2 0.2-0.4 0.2-0.3 0.1-0.5 0-0.2-0.2-0.3-0.4 0-0.3 0.1-0.5 0.1-0.2 0.4-0.3z"/><path class="b" d="m276.1 243.8q-0.1 0-0.3-0.1-0.1-0.1-0.2-0.3 0-0.2 0.1-0.3l0.1-0.2q0.4-0.5 0.9-0.8 0.5-0.2 1.1-0.2 0.5 0.1 1.1 0.4l2.5 1.7 0.4-0.6q0.1-0.2 0.3-0.2 0.1 0 0.3 0.1 0.1 0.1 0.1 0.2 0.1 0.2 0 0.3l-0.4 0.6 1.5 1q0.1 0.1 0.2 0.3 0 0.2-0.1 0.3-0.1 0.2-0.3 0.2-0.2 0.1-0.3 0l-1.5-1-0.7 1.1q-0.1 0.1-0.3 0.1-0.1 0.1-0.3 0-0.1-0.1-0.2-0.3 0-0.1 0.1-0.3l0.7-1-2.5-1.7q-0.5-0.4-1-0.3-0.5 0.1-0.8 0.6l-0.2 0.2q-0.1 0.2-0.3 0.2z"/><path class="b" d="m276.5 252.2q-0.1 0-0.2-0.1l-4.4-7.8q-0.2-0.3-0.1-0.5 0.1 0 0.2-0.1 0.2-0.1 0.4 0 0.1 0.1 0.2 0.2l1.3 2.4 5.9 1q0.1 0 0.1 0.1 0.2 0.1 0.2 0.4 0 0.1-0.1 0.2-0.1 0.2-0.4 0.1l-5.1-0.9 2.5 4.5q0.2 0.2 0 0.4 0 0.1-0.1 0.1-0.3 0.2-0.5 0z"/><path class="b" d="m296.8 143.6q0.1-0.2 0.3-0.2l8-1.5q0.2 0 0.3 0.1 0.2 0.1 0.2 0.3l0.5 2.8q0.1 0.6-0.1 1.2-0.2 0.6-0.6 1-0.5 0.5-1.1 0.6-0.6 0.1-1.2-0.2-0.5-0.2-0.8-0.7-0.1 0.8-0.6 1.4-0.5 0.5-1.3 0.7-0.8 0.1-1.5-0.1-0.6-0.3-1.1-0.8-0.4-0.6-0.5-1.4l-0.6-2.9q0-0.2 0.1-0.4zm1.3 3.2q0.2 0.8 0.7 1.2 0.6 0.5 1.4 0.3 0.8-0.1 1.1-0.7 0.4-0.6 0.3-1.4l-0.5-2.5-3.4 0.6 0.4 2.5zm4.3-1q0.1 0.7 0.6 1.1 0.4 0.3 1.1 0.2 0.7-0.1 1-0.6 0.2-0.5 0.1-1.2l-0.4-2.3-2.8 0.5 0.4 2.3z"/><path class="b" d="m304.5 153.3q-0.1 0.3-0.3 0.3-0.1 0-0.1 0-0.2 0-0.2-0.1-0.1-0.1-0.1-0.2 0-0.1-0.1-0.4 0.1-0.1 0-0.3-0.1-0.8-0.6-1.3-0.5-0.5-1.3-0.4l-3.4 0.5q-0.2 0-0.3-0.1-0.1-0.1-0.2-0.3 0-0.2 0.1-0.3 0.1-0.2 0.3-0.2l5.4-0.7q0.2 0 0.3 0.1 0.1 0.1 0.2 0.3 0 0.2-0.1 0.3-0.1 0.1-0.3 0.1l-0.5 0.1q0.5 0.3 0.8 0.8 0.4 0.4 0.4 1 0.1 0.5 0 0.8z"/><path class="b" d="m304.7 158.5q-0.3 0.7-1 1.2-0.7 0.5-1.6 0.6l-2.7 0.2q-0.2 0-0.3-0.1-0.2-0.1-0.2-0.3 0-0.2 0.1-0.3 0.1-0.2 0.3-0.2h0.7q-0.6-0.4-1-1-0.3-0.6-0.4-1.3-0.1-0.9 0.3-1.6 0.3-0.8 1-1.2 0.7-0.5 1.6-0.6 0.9-0.1 1.6 0.3 0.8 0.3 1.3 1 0.5 0.7 0.6 1.6 0 0.9-0.3 1.7zm-4.9 0q0.4 0.5 0.9 0.7 0.6 0.3 1.3 0.2 0.7-0.1 1.2-0.4 0.5-0.3 0.7-0.9 0.3-0.6 0.3-1.2-0.1-0.7-0.5-1.2-0.3-0.5-0.9-0.7-0.6-0.3-1.3-0.2-0.6 0-1.1 0.4-0.6 0.3-0.8 0.9-0.3 0.6-0.2 1.2 0 0.7 0.4 1.2z"/><path class="b" d="m305.2 165.8q-0.4 0.7-1 1.1-0.7 0.4-1.6 0.4l-3 0.1q-0.1 0-0.3-0.1-0.1-0.1-0.1-0.3 0-0.2 0.1-0.3 0.1-0.2 0.3-0.2l3-0.1q1 0 1.5-0.6 0.5-0.6 0.5-1.5 0-0.6-0.2-1-0.3-0.5-0.7-0.7-0.4-0.3-0.8-0.3l-3.4 0.2q-0.2 0-0.4-0.1-0.1-0.2-0.1-0.4 0-0.2 0.1-0.3 0.1-0.1 0.3-0.1l5.4-0.2q0.2 0 0.4 0.1 0.1 0.1 0.1 0.3 0 0.2-0.1 0.3-0.1 0.2-0.3 0.2h-0.4q0.4 0.3 0.7 0.9 0.2 0.5 0.3 1.1 0 0.8-0.3 1.5z"/><path class="b" d="m304.9 174.9l-2.7-0.1q-0.9 0-1.6-0.4-0.7-0.5-1.1-1.2-0.4-0.7-0.4-1.6 0-0.9 0.5-1.7 0.4-0.7 1.1-1.1 0.8-0.4 1.7-0.4 0.9 0 1.6 0.5 0.7 0.4 1.1 1.1 0.4 0.7 0.4 1.6 0 0.7-0.3 1.3-0.4 0.7-0.9 1.1h3.4q0.2 0 0.3 0.2 0.1 0.1 0.1 0.3 0 0.2-0.1 0.3-0.2 0.1-0.4 0.1l-2.5-0.1c0 0-0.1 0.1-0.1 0zm-4.8-2.1q0.3 0.6 0.9 0.9 0.5 0.3 1.2 0.3 0.2 0 0.3 0 0 0 0 0 0.9-0.1 1.5-0.7 0.6-0.6 0.6-1.5 0.1-0.7-0.2-1.2-0.3-0.6-0.9-0.9-0.5-0.3-1.2-0.3-0.7 0-1.2 0.2-0.6 0.3-0.9 0.9-0.3 0.5-0.4 1.1 0 0.7 0.3 1.2z"/><path class="b" d="m299.1 176.5q0.1-0.1 0.3-0.1l5.4 0.3q0.2 0 0.3 0.2 0.1 0.1 0.1 0.3 0 0.2-0.1 0.3-0.1 0.1-0.3 0.1l-5.4-0.3q-0.2 0-0.3-0.2-0.2-0.1-0.1-0.3 0-0.2 0.1-0.3zm7.5 0.3q0.2-0.1 0.5-0.1 0.3 0 0.4 0.2 0.2 0.2 0.2 0.4 0 0.3-0.2 0.5-0.2 0.2-0.5 0.1-0.2 0-0.4-0.2-0.2-0.2-0.2-0.4 0-0.3 0.2-0.5z"/><path class="b" d="m304.4 183.8q-0.4 0.7-1.1 1-0.7 0.3-1.6 0.2l-3-0.3q-0.2 0-0.3-0.2-0.1-0.1-0.1-0.3 0-0.2 0.2-0.3 0.1-0.1 0.3-0.1l3 0.3q1 0.1 1.6-0.4 0.6-0.5 0.7-1.5 0-0.5-0.2-1-0.1-0.5-0.5-0.8-0.3-0.3-0.8-0.3l-3.4-0.3q-0.2-0.1-0.3-0.2-0.1-0.1-0.1-0.3 0-0.2 0.2-0.3 0.1-0.1 0.3-0.1l5.4 0.5q0.2 0 0.3 0.2 0.1 0.1 0.1 0.3 0 0.2-0.2 0.3-0.1 0.1-0.3 0.1l-0.4-0.1q0.4 0.5 0.6 1 0.2 0.6 0.1 1.2-0.1 0.8-0.5 1.4z"/><path class="b" d="m303.3 191.3q-0.5 0.6-1.3 0.9-0.8 0.3-1.7 0.2l-2.3-0.4q-0.9-0.1-1.6-0.6-0.7-0.6-1-1.3-0.3-0.8-0.2-1.7 0.2-0.9 0.6-1.5 0.4-0.7 1.1-1 0.1-0.1 0.3-0.1 0.1 0 0.2 0.2 0.1 0.1 0.1 0.3 0 0.1-0.1 0.2-0.1 0.1-0.2 0.1-0.4 0.3-0.8 0.8-0.3 0.5-0.4 1.1-0.1 0.6 0.2 1.2 0.2 0.6 0.7 1 0.5 0.3 1.3 0.5h0.5q-0.6-0.4-0.9-1.1-0.3-0.7-0.2-1.5 0.2-0.9 0.7-1.5 0.5-0.6 1.3-0.9 0.8-0.3 1.7-0.1 0.9 0.1 1.6 0.6 0.6 0.5 0.9 1.3 0.3 0.8 0.2 1.7-0.2 0.9-0.7 1.6zm-4.8-1.2q0.3 0.5 0.8 0.9 0.4 0.4 1.1 0.5 0.7 0.1 1.3-0.1 0.6-0.2 1-0.7 0.4-0.5 0.5-1.1 0.1-0.7-0.2-1.3-0.2-0.6-0.7-0.9-0.5-0.4-1.2-0.5-0.6-0.1-1.2 0.1-0.6 0.2-1 0.7-0.4 0.5-0.5 1.1-0.1 0.7 0.1 1.3z"/><path class="b" d="m274.5 91.4q0-0.2 0.1-0.3l6.7-4.7q0.1-0.1 0.3-0.1 0.2 0.1 0.3 0.2l1.3 1.9q0.5 0.7 0.6 1.5 0 0.7-0.3 1.4-0.3 0.7-1 1.2-0.7 0.4-1.5 0.5-0.7 0.1-1.4-0.2-0.7-0.4-1.2-1.1l-1-1.5-2.2 1.6q-0.2 0.1-0.4 0.1-0.2-0.1-0.3-0.2-0.1-0.2-0.1-0.4zm4.7-0.1q0.4 0.5 0.9 0.8 0.4 0.2 1 0.1 0.5 0 1-0.4 0.5-0.3 0.7-0.8 0.2-0.5 0.2-1-0.1-0.5-0.4-1l-1.1-1.5-3.3 2.3 1.1 1.5z"/><path class="b" d="m278.7 96.9q0.3-0.7 1-1.2l5.5-3.5q0.2-0.1 0.3-0.1 0.2 0.1 0.3 0.2 0.1 0.2 0.1 0.3-0.1 0.2-0.2 0.3l-5.5 3.6q-0.4 0.2-0.6 0.6-0.2 0.3 0 0.6l0.2 0.2q0.1 0.2 0 0.3 0 0.2-0.2 0.3-0.1 0.1-0.3 0-0.2 0-0.3-0.2l-0.1-0.2q-0.4-0.5-0.1-1.2z"/><path class="b" d="m287.2 100.4q0 0.8-0.4 1.6-0.5 0.7-1.2 1.1l-2.4 1.4q-0.1 0.1-0.3 0.1-0.2-0.1-0.3-0.2-0.1-0.2 0-0.4 0-0.2 0.2-0.3l0.6-0.3q-0.7-0.1-1.3-0.4-0.6-0.4-1-1.1-0.4-0.7-0.4-1.5 0-0.9 0.4-1.6 0.4-0.7 1.2-1.2 0.8-0.4 1.6-0.4 0.9 0 1.6 0.4 0.8 0.4 1.2 1.2 0.5 0.7 0.5 1.6zm-4.4 2.1q0.5 0.3 1.1 0.2 0.6 0 1.2-0.3 0.6-0.4 0.9-0.9 0.3-0.5 0.3-1.2 0-0.6-0.3-1.1-0.3-0.6-0.9-0.9-0.5-0.3-1.1-0.3-0.7 0-1.2 0.4-0.6 0.3-0.9 0.8-0.4 0.6-0.4 1.2 0 0.6 0.4 1.2 0.3 0.5 0.9 0.8z"/><path class="b" d="m291 107.4q0 0.7-0.4 1.3-0.4 0.7-1.2 1.1l-2.7 1.3q-0.2 0.1-0.3 0.1-0.2-0.1-0.3-0.2-0.1-0.2 0-0.4 0-0.2 0.2-0.2l2.7-1.4q0.9-0.5 1.1-1.2 0.2-0.8-0.2-1.6-0.3-0.5-0.7-0.8-0.4-0.3-0.8-0.3-0.5-0.1-0.9 0.1l-3 1.6q-0.2 0-0.4 0-0.1-0.1-0.2-0.2-0.1-0.2-0.1-0.4 0.1-0.1 0.2-0.2l4.9-2.5q0.1-0.1 0.3 0 0.2 0 0.3 0.2 0 0.2 0 0.3-0.1 0.2-0.2 0.3l-0.4 0.2q0.6 0.1 1 0.5 0.5 0.4 0.8 0.9 0.3 0.7 0.3 1.5z"/><path class="b" d="m213.8 44q-0.6-0.8-0.7-1.6 0-0.1 0.1-0.2 0-0.2 0.2-0.2 0.1-0.1 0.3 0 0.2 0 0.2 0.1 0.1 0.1 0.1 0.3 0.1 0.6 0.6 1.1 0.4 0.5 1.2 0.8 0.9 0.3 1.6 0.1 0.7-0.2 1-1 0.2-0.7-0.1-1.3-0.4-0.7-1.3-1.2-1.2-0.6-1.7-1.5-0.5-0.9-0.1-1.8 0.2-0.7 0.7-1 0.6-0.4 1.3-0.4 0.7 0 1.5 0.3 0.8 0.3 1.3 0.9 0.6 0.6 0.7 1.3 0 0.2 0 0.3-0.1 0.2-0.3 0.3-0.1 0-0.2 0-0.2-0.1-0.2-0.2-0.1-0.1-0.2-0.2-0.2-1.2-1.4-1.7-0.9-0.3-1.5-0.1-0.7 0.2-0.9 0.9-0.5 1.2 1.4 2.2 1.3 0.7 1.7 1.6 0.5 0.9 0.1 1.9-0.3 0.7-0.9 1.2-0.6 0.4-1.3 0.4-0.7 0.1-1.5-0.2-1-0.4-1.7-1.1z"/><path class="b" d="m222.5 46.9q0 0.2-0.1 0.4 0 0.1-0.2 0.2-0.2 0.1-0.4 0l-0.2-0.1q-0.5-0.2-0.9-0.7-0.3-0.5-0.4-1 0-0.6 0.2-1.2l1.2-2.8-0.7-0.3q-0.1-0.1-0.2-0.2-0.1-0.1 0-0.3 0.1-0.2 0.2-0.2 0.1-0.1 0.3 0l0.7 0.3 0.7-1.6q0.1-0.2 0.2-0.3 0.2-0.1 0.4 0 0.1 0.1 0.2 0.2 0.1 0.2 0 0.4l-0.7 1.6 1.2 0.5q0.2 0.1 0.3 0.2 0 0.2 0 0.3-0.1 0.2-0.2 0.3-0.2 0-0.4-0.1l-1.2-0.5-1.2 2.9q-0.2 0.5 0 1 0.2 0.5 0.7 0.7l0.3 0.1q0.1 0.1 0.2 0.2z"/><path class="b" d="m228.9 43.8q0.2 0.3 0.1 0.5 0 0-0.1 0.1-0.1 0.1-0.2 0.1-0.1 0-0.3 0 0-0.1-0.3-0.2 0-0.1-0.2-0.1-0.8-0.4-1.5-0.2-0.7 0.2-1 0.8l-1.4 3.2q-0.1 0.2-0.3 0.2-0.1 0.1-0.3 0-0.2-0.1-0.2-0.3-0.1-0.1 0-0.3l2.2-4.9q0.1-0.2 0.3-0.3 0.1 0 0.3 0.1 0.2 0.1 0.3 0.2 0 0.2-0.1 0.4l-0.2 0.4q0.5-0.3 1.1-0.3 0.6 0 1.1 0.2 0.5 0.2 0.7 0.5z"/><path class="b" d="m233.3 46.4q0.5 0.7 0.5 1.6 0.1 0.8-0.3 1.6l-1.3 2.4q0 0.2-0.2 0.3-0.2 0-0.4-0.1-0.1-0.1-0.2-0.2 0-0.2 0-0.4l0.4-0.6q-0.7 0.3-1.4 0.3-0.6 0-1.3-0.3-0.8-0.4-1.2-1.1-0.5-0.7-0.5-1.5 0-0.9 0.4-1.7 0.4-0.8 1.1-1.2 0.7-0.5 1.5-0.5 0.9-0.1 1.7 0.3 0.8 0.4 1.2 1.1zm-2.6 4.2q0.6-0.1 1.2-0.4 0.5-0.4 0.8-1 0.3-0.6 0.3-1.2 0-0.6-0.4-1.1-0.3-0.6-0.9-0.9-0.6-0.3-1.2-0.2-0.6 0-1.1 0.4-0.6 0.3-0.9 0.9-0.3 0.6-0.2 1.2 0 0.7 0.3 1.2 0.4 0.5 0.9 0.8 0.6 0.3 1.2 0.3z"/><path class="b" d="m236 53.8q0 0.2-0.1 0.3 0 0.2-0.2 0.2-0.2 0.1-0.4 0l-0.2-0.1q-0.5-0.3-0.8-0.8-0.3-0.5-0.3-1.1 0-0.6 0.3-1.1l1.6-2.7-0.7-0.3q-0.2-0.1-0.2-0.3 0-0.1 0-0.3 0.1-0.1 0.3-0.2 0.1 0 0.3 0.1l0.6 0.4 0.9-1.6q0.1-0.2 0.3-0.2 0.1-0.1 0.3 0 0.2 0.1 0.2 0.3 0.1 0.2 0 0.3l-0.9 1.6 1.1 0.6q0.2 0.1 0.2 0.3 0.1 0.1 0 0.3-0.1 0.1-0.2 0.1-0.2 0.1-0.3 0l-1.2-0.6-1.5 2.6q-0.3 0.5-0.2 1 0.2 0.5 0.6 0.8l0.3 0.1q0.2 0.1 0.2 0.3z"/><path class="b" d="m243.1 52.1q0.4 0.6 0.3 1.4-0.1 0.8-0.5 1.6-0.1 0.1-0.3 0.2-0.1 0-0.3-0.1l-3.9-2.4q-0.5 0.8-0.2 1.7 0.2 0.8 1 1.3 0.4 0.2 0.8 0.3 0.4 0.1 0.8 0.1 0.2-0.1 0.3 0 0.1 0.1 0.2 0.2 0 0.2-0.1 0.4 0 0.1-0.2 0.1-0.5 0.1-1.1 0-0.6-0.1-1.1-0.4-0.8-0.5-1.2-1.2-0.4-0.8-0.3-1.6 0-0.8 0.5-1.6 0.5-0.8 1.2-1.2 0.7-0.4 1.5-0.4 0.8 0 1.5 0.5 0.8 0.4 1.1 1.1zm-3-0.8q-0.8 0.2-1.3 0.9l3.5 2.2q0.4-0.8 0.2-1.6-0.1-0.7-0.9-1.2-0.7-0.4-1.5-0.3z"/><path class="b" d="m248.7 55.8q0.4 0.8 0.3 1.6 0 0.9-0.6 1.6l-1.3 1.9q-0.5 0.8-1.3 1.2-0.7 0.4-1.6 0.3-0.8 0-1.6-0.6-0.7-0.5-1.1-1.1-0.4-0.7-0.4-1.5 0-0.1 0-0.2 0.2-0.2 0.3-0.2 0.2 0 0.3 0.1 0.1 0.1 0.1 0.2 0.1 0.1 0.1 0.2 0 0.5 0.3 1 0.3 0.5 0.9 0.9 0.5 0.4 1.1 0.4 0.6 0 1.2-0.3 0.6-0.3 1-0.9l0.3-0.4q-0.7 0.3-1.4 0.3-0.7-0.1-1.4-0.5-0.8-0.5-1.1-1.3-0.4-0.7-0.3-1.5 0.1-0.9 0.6-1.6 0.6-0.8 1.3-1.1 0.8-0.4 1.6-0.3 0.8 0 1.6 0.6 0.7 0.5 1.1 1.2zm-3.1 3.8q0.6 0 1.1-0.2 0.6-0.3 1-0.9 0.4-0.5 0.4-1.2 0.1-0.6-0.2-1.1-0.2-0.6-0.8-1-0.5-0.4-1.1-0.4-0.7-0.1-1.2 0.2-0.6 0.3-1 0.9-0.4 0.5-0.4 1.2-0.1 0.6 0.2 1.1 0.2 0.6 0.8 1 0.5 0.3 1.2 0.4z"/><path class="b" d="m255.2 60.7q-0.1 0.1-0.2 0.1l-7.9 4.3q-0.3 0.1-0.4 0-0.1-0.1-0.2-0.2-0.1-0.2 0-0.4 0.1-0.1 0.2-0.2l2.4-1.3 1.2-5.8q0-0.1 0.1-0.2 0.1-0.1 0.4-0.1 0.1 0 0.2 0.1 0.2 0.2 0.1 0.4l-1.1 5.1 4.6-2.4q0.2-0.1 0.4 0 0.1 0.1 0.2 0.2 0.1 0.2 0 0.4z"/><path class="b" d="m139.5 38.3q-1-0.3-1.7-1.1-0.8-0.9-1-2.1-0.3-1.1 0.1-2.2 0.3-1.1 1.2-1.8 0.8-0.7 2-1 1.1-0.2 2.2 0.1 1.1 0.4 1.8 1.2 0.7 0.8 1 2 0.2 1.2-0.1 2.3-0.4 1-1.2 1.8-0.9 0.7-2 0.9-1.2 0.3-2.3-0.1zm3.7-1.4q0.7-0.6 1-1.5 0.2-0.9 0.1-1.8-0.2-0.9-0.8-1.6-0.6-0.7-1.5-1-0.8-0.3-1.8-0.1-0.9 0.2-1.6 0.8-0.7 0.6-1 1.5-0.2 0.8 0 1.8 0.2 0.9 0.7 1.6 0.6 0.7 1.5 1 0.8 0.3 1.8 0.1 0.9-0.2 1.6-0.8z"/><path class="b" d="m150.5 31.3q0.7 0.3 1.2 0.9 0.5 0.6 0.6 1.5 0.1 0.8-0.2 1.5-0.3 0.7-0.9 1.2-0.5 0.5-1.3 0.6-0.7 0.1-1.3-0.1-0.6-0.2-1.1-0.7l0.5 3.1q0 0.2-0.1 0.3-0.1 0.1-0.3 0.1-0.2 0.1-0.3 0-0.1-0.1-0.2-0.3l-0.3-2.4c0 0 0 0 0 0l-0.4-2.5q-0.1-0.8 0.2-1.6 0.3-0.7 0.9-1.2 0.6-0.4 1.4-0.6 0.9-0.1 1.6 0.2zm0.2 4.5q0.5-0.4 0.7-0.9 0.2-0.5 0.1-1.1-0.1-0.7-0.5-1.1-0.3-0.5-0.8-0.7-0.6-0.2-1.2-0.1-0.6 0.1-1 0.4-0.4 0.4-0.7 0.9-0.2 0.5-0.1 1.2 0 0.1 0.1 0.2 0 0 0 0.1 0.2 0.8 0.9 1.2 0.6 0.5 1.5 0.3 0.6-0.1 1-0.4z"/><path class="b" d="m157.6 30.6q0.7 0.3 1.1 1 0.5 0.6 0.5 1.4 0.1 0.8-0.2 1.5-0.3 0.7-0.9 1.2-0.6 0.4-1.4 0.5-0.7 0.1-1.3-0.2-0.6-0.2-1-0.7l0.2 3.1q0.1 0.2 0 0.3-0.2 0.1-0.3 0.2-0.2 0-0.3-0.1-0.2-0.1-0.2-0.3l-0.2-2.4q0 0 0-0.1l-0.2-2.4q-0.1-0.9 0.2-1.6 0.4-0.7 1-1.1 0.6-0.5 1.5-0.6 0.8 0 1.5 0.3zm0 4.5q0.5-0.3 0.7-0.9 0.2-0.5 0.2-1.1-0.1-0.6-0.4-1.1-0.3-0.5-0.8-0.7-0.6-0.3-1.2-0.2-0.6 0-1 0.4-0.5 0.3-0.7 0.8-0.3 0.6-0.2 1.2 0 0.2 0 0.2 0 0.1 0.1 0.1 0.1 0.8 0.8 1.3 0.6 0.5 1.4 0.4 0.6-0.1 1.1-0.4z"/><path class="b" d="m161.6 35.5q-0.7-0.4-1.1-1-0.4-0.7-0.4-1.5 0-0.9 0.3-1.6 0.4-0.7 1-1.1 0.7-0.4 1.5-0.4 0.8 0 1.5 0.3 0.7 0.4 1.1 1 0.4 0.7 0.5 1.5 0 0.9-0.4 1.6-0.3 0.6-1 1-0.6 0.5-1.5 0.5-0.8 0-1.5-0.3zm2.6-0.8q0.5-0.3 0.7-0.8 0.3-0.5 0.3-1.1-0.1-0.7-0.4-1.2-0.3-0.5-0.7-0.7-0.5-0.3-1.2-0.3-0.6 0.1-1 0.4-0.5 0.3-0.8 0.8-0.2 0.5-0.2 1.1 0 0.7 0.3 1.2 0.3 0.4 0.8 0.7 0.5 0.3 1.1 0.3 0.6-0.1 1.1-0.4z"/><path class="b" d="m170.4 29.9q0.3 0.1 0.3 0.3 0 0.1 0 0.1-0.1 0.2-0.2 0.2-0.1 0.1-0.2 0.1-0.1 0-0.4 0 0 0-0.2 0-0.8 0-1.3 0.4-0.5 0.4-0.5 1.1v3.2q0 0.1-0.1 0.3-0.1 0.1-0.3 0.1-0.2 0-0.3-0.2-0.1-0.1-0.1-0.3v-4.9q0-0.2 0.1-0.3 0.1-0.2 0.3-0.1 0.2 0 0.3 0.1 0.1 0.1 0.1 0.3v0.4q0.3-0.4 0.8-0.7 0.5-0.2 1-0.2 0.5 0 0.7 0.1z"/><path class="b" d="m174.2 35.1q0.1 0.1 0.1 0.3 0 0.2-0.2 0.3-0.1 0.1-0.3 0.1h-0.2q-0.6-0.1-1-0.3-0.4-0.3-0.7-0.8-0.2-0.5-0.2-1l0.1-2.9h-0.7q-0.1 0-0.2-0.1-0.1-0.1-0.1-0.2 0-0.2 0.1-0.3 0.1-0.1 0.2-0.1h0.7l0.1-1.6q0-0.2 0.1-0.3 0.1-0.1 0.3-0.1 0.2 0 0.3 0.1 0.1 0.1 0.1 0.3v1.7h1.2q0.1 0 0.2 0.1 0.1 0.1 0.1 0.3 0 0.1-0.1 0.2-0.1 0.1-0.3 0.1h-1.2l-0.1 2.8q0 0.5 0.3 0.9 0.3 0.4 0.8 0.4h0.3q0.2 0 0.3 0.1z"/><path class="b" d="m180.5 30.5q0.2 0.1 0.1 0.3l-0.3 5q0 0.2-0.2 0.3-0.1 0.1-0.3 0.1-0.2 0-0.3-0.2-0.1-0.1 0-0.3v-0.3q-0.4 0.3-0.9 0.5-0.5 0.2-1.1 0.2-0.7-0.1-1.3-0.5-0.6-0.3-0.9-0.9-0.3-0.7-0.2-1.5l0.2-2.8q0-0.1 0.1-0.3 0.2-0.1 0.3-0.1 0.2 0.1 0.3 0.2 0.1 0.1 0.1 0.3l-0.2 2.7q-0.1 1 0.4 1.5 0.5 0.5 1.3 0.6 0.6 0 1-0.1 0.4-0.2 0.7-0.6 0.3-0.3 0.3-0.7l0.2-3.2q0-0.1 0.2-0.2 0.1-0.1 0.3-0.1 0.1 0 0.2 0.1z"/><path class="b" d="m186.3 31.3q0.5 0.4 0.8 1.1 0.3 0.6 0.2 1.5l-0.4 2.7q0 0.2-0.1 0.3-0.2 0.1-0.3 0-0.2 0-0.3-0.1-0.1-0.1-0.1-0.3l0.3-2.7q0.2-1-0.3-1.5-0.5-0.6-1.3-0.7-0.5-0.1-1 0.1-0.4 0.1-0.7 0.5-0.3 0.3-0.3 0.7l-0.4 3.1q0 0.2-0.2 0.3-0.1 0.1-0.3 0.1-0.1 0-0.2-0.2-0.2-0.1-0.1-0.3l0.6-4.9q0-0.2 0.1-0.3 0.2-0.1 0.4-0.1 0.1 0 0.2 0.2 0.1 0.1 0.1 0.3v0.3q0.3-0.3 0.9-0.5 0.5-0.1 1.1 0 0.7 0 1.3 0.4z"/><path class="b" d="m188.4 37.1q-0.1-0.1-0.1-0.3l0.8-4.9q0-0.2 0.1-0.2 0.2-0.1 0.4-0.1 0.1 0 0.2 0.1 0.1 0.2 0.1 0.4l-0.8 4.9q0 0.1-0.2 0.2-0.1 0.1-0.3 0.1-0.2 0-0.2-0.1zm0.9-6.9q-0.1-0.2-0.1-0.5 0.1-0.2 0.3-0.3 0.2-0.2 0.4-0.1 0.2 0 0.4 0.2 0.1 0.2 0.1 0.4-0.1 0.3-0.3 0.4-0.2 0.1-0.4 0.1-0.2 0-0.4-0.2z"/><path class="b" d="m193.4 37.4q0.1 0.2 0.1 0.4-0.1 0.1-0.2 0.2-0.2 0.1-0.3 0.1l-0.3-0.1q-0.5-0.1-0.9-0.4-0.4-0.4-0.6-0.9-0.1-0.5 0-1l0.5-2.8-0.7-0.1q-0.1-0.1-0.2-0.2-0.1-0.1-0.1-0.3 0.1-0.1 0.2-0.2 0.1-0.1 0.3 0l0.7 0.1 0.3-1.6q0-0.2 0.1-0.3 0.1-0.1 0.3-0.1 0.2 0.1 0.3 0.2 0.1 0.1 0.1 0.3l-0.3 1.6 1.1 0.3q0.2 0 0.3 0.1 0.1 0.1 0 0.3 0 0.1-0.1 0.2-0.1 0.1-0.3 0.1l-1.2-0.3-0.5 2.8q-0.1 0.5 0.2 0.9 0.2 0.4 0.7 0.5l0.3 0.1q0.1 0 0.2 0.2z"/><path class="b" d="m200 34q-0.1 0.1-0.1 0.2l-5 6.6q-0.1 0.2-0.3 0.2-0.1-0.1-0.2-0.1-0.2-0.2-0.2-0.4 0-0.1 0.1-0.1l1.5-2.1-1.2-5.3q-0.1-0.1 0-0.2 0-0.2 0.3-0.2 0.1-0.1 0.2 0 0.2 0 0.2 0.2l1.1 4.7 2.9-3.8q0.1-0.2 0.3-0.1 0.1 0 0.2 0 0.2 0.2 0.2 0.4z"/><path class="b" d="m93 58.9q0.1 0.2 0 0.3 0 0.2-0.2 0.3-0.1 0.1-0.2 0.1-0.1 0-0.2-0.1l-3.7-1.4-0.1 0.2-1.4 1 1.8 2.4q0.2 0.2 0.1 0.4 0 0.2-0.2 0.3-0.1 0.1-0.3 0-0.2 0-0.3-0.1l-4.8-6.5q-0.1-0.2-0.1-0.4 0.1-0.1 0.2-0.3l1.7-1.2q0.7-0.5 1.4-0.6 0.8-0.1 1.5 0.1 0.6 0.3 1.1 1 0.5 0.7 0.6 1.5 0 0.8-0.5 1.5l3.3 1.3q0.2 0.1 0.3 0.2zm-4.9-1.3q0.4-0.4 0.7-0.8 0.2-0.5 0.2-1-0.1-0.5-0.4-0.9-0.3-0.4-0.8-0.6-0.4-0.2-0.9-0.2-0.5 0.1-1 0.5l-1.4 1 2.2 3 1.4-1z"/><path class="b" d="m93.9 51.6q0.7 0 1.4 0.4 0.7 0.3 1.2 1.1 0.1 0.1 0.1 0.3-0.1 0.2-0.2 0.3l-3.9 2.5q0.6 0.8 1.5 0.9 0.8 0.1 1.6-0.4 0.4-0.2 0.7-0.6 0.2-0.3 0.3-0.7 0.1-0.1 0.2-0.2 0.1-0.1 0.3-0.1 0.2 0 0.3 0.2 0 0.1 0 0.3-0.1 0.5-0.5 1-0.4 0.5-0.8 0.8-0.8 0.5-1.6 0.5-0.9 0.1-1.6-0.3-0.7-0.4-1.3-1.1-0.5-0.8-0.6-1.6 0-0.9 0.3-1.6 0.3-0.7 1.1-1.2 0.7-0.4 1.4-0.5zm-1.9 2.4q-0.2 0.8 0.2 1.6l3.5-2.3q-0.6-0.7-1.3-0.9-0.8-0.1-1.5 0.4-0.7 0.5-0.9 1.2z"/><path class="b" d="m100.2 47.8c0 0 0 0.1 0.1 0.2l0.6 5.9q0 0.3-0.2 0.5-0.3 0.1-0.5-0.1l-5-3.3c0 0-0.1 0-0.1-0.1q-0.1-0.2 0-0.4 0-0.1 0.1-0.2 0.1 0 0.2 0 0.2 0 0.3 0l4.3 3-0.6-5.2q0-0.2 0.1-0.3 0-0.1 0.1-0.1 0.1-0.1 0.2-0.1 0.3 0 0.4 0.2z"/><path class="b" d="m100.2 45.8q-0.3-0.1-0.4-0.3-0.1-0.2-0.1-0.5 0.1-0.2 0.3-0.4 0.3-0.1 0.5 0 0.2 0 0.4 0.3 0.1 0.2 0 0.5 0 0.2-0.3 0.3-0.2 0.2-0.4 0.1zm3.8 6.5q-0.2 0-0.3-0.2l-2.6-4.7q-0.1-0.2-0.1-0.3 0.1-0.2 0.2-0.3 0.2-0.1 0.4 0 0.1 0 0.2 0.2l2.7 4.7q0.1 0.1 0 0.3 0 0.2-0.2 0.3-0.2 0.1-0.3 0z"/><path class="b" d="m107.1 44.1q0.7 0 1.4 0.5 0.6 0.4 1.1 1.2 0 0.2 0 0.3-0.1 0.2-0.2 0.3l-4.2 2.1q0.5 0.8 1.4 1 0.8 0.2 1.7-0.2 0.4-0.2 0.7-0.5 0.3-0.3 0.4-0.7 0.1-0.1 0.2-0.2 0.1-0.1 0.3 0 0.2 0 0.3 0.2 0 0.1 0 0.3-0.2 0.4-0.6 0.9-0.5 0.5-0.9 0.7-0.9 0.4-1.7 0.4-0.8 0-1.5-0.5-0.7-0.5-1.1-1.3-0.5-0.8-0.5-1.6 0-0.9 0.5-1.5 0.4-0.7 1.2-1.1 0.7-0.4 1.5-0.3zm-2.2 2.1q-0.3 0.8 0 1.6l3.8-1.9q-0.5-0.7-1.3-1-0.7-0.2-1.5 0.2-0.8 0.4-1 1.2z"/><path class="b" d="m115.6 39.9q0.1 0 0.2 0.2 0 0.1 0 0.2l0.6 5.6q0 0.2 0 0.3-0.1 0.1-0.2 0.2-0.2 0-0.3 0-0.2 0-0.3-0.1l-3.1-3.6 0.6 4.7c0 0.1 0 0.2 0 0.3q-0.1 0.1-0.2 0.2-0.2 0-0.3 0-0.1 0-0.2-0.1l-3.9-4.2q-0.1-0.1-0.1-0.2-0.2-0.4 0.2-0.5 0.3-0.2 0.5 0.1l3.2 3.5-0.6-4.7q0-0.1 0-0.2 0.1-0.2 0.2-0.2 0.2-0.1 0.3-0.1 0.2 0.1 0.3 0.2l3 3.5-0.5-4.7q0-0.3 0.3-0.4 0.1-0.1 0.3-0.1z"/><path class="b" d="m123.6 202.7h-2v6.7q0 0.2-0.2 0.4-0.2 0.1-0.4 0.1-0.2 0-0.4-0.1-0.1-0.2-0.1-0.4v-6.7h-2.1q-0.3 0-0.4-0.2-0.2-0.2-0.2-0.4 0-0.2 0.2-0.4 0.2-0.1 0.4-0.1h5.2q0.3 0 0.4 0.1 0.2 0.2 0.2 0.4 0 0.2-0.2 0.4-0.1 0.2-0.4 0.2z"/><path class="b" d="m125.6 209.4q0 0.2-0.1 0.4-0.2 0.2-0.4 0.2-0.2 0-0.4-0.2-0.2-0.2-0.2-0.4v-7.3q0-0.2 0.2-0.4 0.2-0.1 0.4-0.1 0.2 0 0.4 0.1 0.1 0.2 0.2 0.4v2.5q0.7-0.5 1.6-0.5 0.6 0 1 0.2 0.5 0.2 0.9 0.6 0.4 0.4 0.6 0.9 0.2 0.5 0.2 1v2.6q0 0.2-0.1 0.4-0.2 0.2-0.4 0.2-0.2 0-0.4-0.2-0.2-0.2-0.2-0.4v-2.6q0-0.3-0.1-0.6-0.1-0.3-0.3-0.5-0.3-0.3-0.6-0.4-0.3-0.1-0.6-0.1-0.3 0-0.6 0.1-0.3 0.1-0.6 0.4-0.2 0.2-0.3 0.5-0.1 0.3-0.1 0.6v2.6z"/><path class="b" d="m134.9 208.3q0.3 0 0.4 0.2 0.2 0.1 0.2 0.3 0 0.3-0.2 0.4-0.8 0.7-1.9 0.7-1.2 0-2.1-0.8-0.9-0.9-0.8-2.1 0-1.2 0.8-2.1 0.9-0.8 2.1-0.8 1.2 0 2.1 0.8 0.4 0.4 0.6 1 0.2 0.5 0.2 1.1 0 0.2-0.1 0.4-0.2 0.1-0.4 0.2h-4.2q0.1 0.2 0.3 0.5 0.2 0.2 0.4 0.4 0.2 0.2 0.5 0.3 0.3 0.1 0.6 0.1 0.3 0 0.6-0.2 0.3-0.1 0.6-0.3 0.1-0.1 0.3-0.1zm0.3-1.9q-0.1-0.2-0.3-0.5-0.2-0.2-0.4-0.4-0.2-0.2-0.5-0.3-0.3-0.1-0.6-0.1-0.3 0-0.6 0.1-0.3 0.1-0.5 0.3-0.2 0.2-0.4 0.4-0.2 0.2-0.3 0.5z"/><path class="b" d="m141.7 201.6q0.4 0 0.8 0.1 0.4 0.2 0.7 0.5 0.3 0.3 0.5 0.7 0.1 0.4 0.1 0.8 0 0.8-0.5 1.4 0.4 0.2 0.6 0.5 0.2 0.2 0.4 0.5 0.2 0.3 0.3 0.6 0 0.3 0 0.7 0 0.5-0.2 1-0.2 0.4-0.5 0.8-0.4 0.3-0.8 0.5-0.5 0.3-1 0.3h-2.1q-0.1 0-0.2-0.1-0.1 0-0.2-0.1 0-0.1-0.1-0.2 0-0.1 0-0.2v-7.3q0-0.1 0-0.2 0.1-0.1 0.1-0.2 0.1-0.1 0.2-0.1 0.1-0.1 0.2-0.1h1.6zm-1 1.2v2.1h1q0.3 0 0.5-0.1 0.1-0.1 0.3-0.2 0.1-0.2 0.2-0.4 0.1-0.2 0.1-0.4 0-0.2-0.1-0.4-0.1-0.2-0.2-0.3-0.2-0.2-0.3-0.3-0.2 0-0.5 0h-1zm0 3.2v2.9h1.4q0.3 0 0.6-0.1 0.3-0.1 0.5-0.3 0.2-0.2 0.3-0.5 0.1-0.2 0.1-0.5 0-0.3-0.1-0.6-0.1-0.3-0.3-0.5-0.2-0.2-0.5-0.3-0.3-0.1-0.6-0.1h-1.4z"/><path class="b" d="m149.9 210q-0.2 0-0.4-0.2-0.1-0.2-0.1-0.4-0.4 0.3-0.8 0.4-0.4 0.1-0.9 0.2-0.6 0-1-0.3-0.5-0.2-0.9-0.6-0.4-0.3-0.6-0.8-0.2-0.5-0.2-1.1v-2.6q0-0.2 0.1-0.4 0.2-0.1 0.4-0.1 0.2 0 0.4 0.1 0.2 0.2 0.2 0.4v2.6q0 0.4 0.1 0.7 0.1 0.3 0.4 0.5 0.2 0.2 0.5 0.3 0.3 0.2 0.6 0.2 0.4 0 0.7-0.2 0.3-0.1 0.5-0.3 0.2-0.3 0.3-0.5 0.2-0.3 0.2-0.7v-2.6q0-0.2 0.1-0.4 0.2-0.1 0.4-0.1 0.2 0 0.4 0.1 0.2 0.2 0.2 0.4v4.8q0 0.2-0.2 0.4-0.2 0.2-0.4 0.2z"/><path class="b" d="m152 207.2q-0.5-0.2-0.7-0.4-0.4-0.4-0.4-1 0-0.4 0.2-0.7 0.2-0.3 0.5-0.6 0.4-0.2 0.8-0.3 0.4-0.1 0.9-0.1 1.3 0 2.2 1 0.1 0.2 0.1 0.4 0 0.2-0.1 0.4-0.2 0.1-0.4 0.1-0.2 0-0.3-0.1-0.2-0.1-0.3-0.2-0.5-0.5-1.3-0.5-0.7 0-1.2 0.4-0.1 0.1 0 0.3-0.1 0.1 0.1 0.2l2.5 0.8q0.5 0.2 0.6 0.4 0.4 0.4 0.4 0.9 0 0.4-0.2 0.7-0.2 0.4-0.5 0.6-0.4 0.2-0.8 0.3-0.4 0.2-0.8 0.2-1.4-0.1-2.3-1.1-0.1-0.1-0.1-0.3 0-0.3 0.1-0.4 0.2-0.2 0.4-0.2 0.2 0 0.3 0.1 0.1 0.1 0.2 0.2 0.6 0.6 1.4 0.6c0.5 0 0.9-0.2 1.2-0.5q0-0.1 0-0.2 0-0.2-0.1-0.2z"/><path class="b" d="m157.5 203q0 0.3-0.2 0.5-0.2 0.2-0.4 0.2-0.3 0-0.5-0.2-0.2-0.2-0.2-0.5 0-0.2 0.2-0.4 0.2-0.2 0.5-0.2 0.2 0 0.4 0.2 0.2 0.2 0.2 0.4zm-1.2 6.4v-4.8q0-0.2 0.2-0.4 0.2-0.1 0.4-0.1 0.2 0 0.4 0.1 0.1 0.2 0.1 0.4v4.8q0 0.2-0.1 0.4-0.2 0.2-0.4 0.2-0.2 0-0.4-0.2-0.2-0.2-0.2-0.4z"/><path class="b" d="m159.2 204.6q0.7-0.5 1.7-0.5 0.5 0 1 0.2 0.5 0.2 0.9 0.6 0.4 0.4 0.6 0.9 0.2 0.5 0.2 1v2.6q0 0.2-0.1 0.4-0.2 0.2-0.4 0.2-0.2 0-0.4-0.2-0.2-0.2-0.2-0.4v-2.6q0-0.3-0.1-0.6-0.1-0.3-0.3-0.5-0.3-0.3-0.6-0.4-0.3-0.1-0.6-0.1-0.4 0-0.6 0.1-0.3 0.1-0.6 0.4-0.2 0.2-0.3 0.5-0.2 0.3-0.1 0.6v2.6q0 0.3-0.2 0.4-0.2 0.2-0.4 0.2-0.2 0-0.4-0.2-0.1-0.2-0.1-0.4v-4.8q-0.1-0.2 0.1-0.3 0.2-0.2 0.4-0.2 0.2 0 0.4 0.2 0.2 0.1 0.2 0.3z"/><path class="b" d="m168.5 208.3q0.3 0 0.4 0.2 0.2 0.1 0.2 0.3 0 0.3-0.2 0.4-0.8 0.7-1.9 0.7-1.2 0-2.1-0.8-0.9-0.9-0.8-2.1 0-1.2 0.8-2.1 0.9-0.8 2.1-0.8 1.2 0 2.1 0.8 0.4 0.4 0.6 1 0.2 0.5 0.2 1.1 0 0.2-0.1 0.4-0.2 0.1-0.4 0.2h-4.2q0.1 0.2 0.3 0.5 0.1 0.2 0.4 0.4 0.2 0.2 0.5 0.3 0.3 0.1 0.6 0.1 0.3 0 0.6-0.2 0.3-0.1 0.6-0.3 0.1-0.1 0.3-0.1zm0.3-1.9q-0.1-0.2-0.3-0.5-0.2-0.2-0.4-0.4-0.3-0.2-0.5-0.3-0.3-0.1-0.6-0.1-0.3 0-0.6 0.1-0.3 0.1-0.5 0.3-0.2 0.2-0.4 0.4-0.2 0.2-0.3 0.5z"/><path class="b" d="m171.4 207.2q-0.5-0.2-0.7-0.4-0.4-0.4-0.4-1 0-0.4 0.2-0.7 0.3-0.3 0.6-0.6 0.3-0.2 0.8-0.3 0.4-0.1 0.8-0.1 1.3 0 2.3 1 0.1 0.2 0.1 0.4 0 0.2-0.2 0.4-0.1 0.1-0.4 0.1-0.1 0-0.3-0.1-0.1-0.1-0.2-0.2-0.5-0.5-1.3-0.5-0.7 0-1.2 0.4-0.1 0.1-0.1 0.3 0 0.1 0.2 0.2l2.4 0.8q0.5 0.2 0.7 0.4 0.4 0.4 0.4 0.9 0 0.4-0.2 0.7-0.2 0.4-0.5 0.6-0.4 0.2-0.8 0.3-0.4 0.2-0.9 0.2-1.3-0.1-2.2-1.1-0.1-0.1-0.1-0.3 0-0.3 0.1-0.4 0.2-0.2 0.4-0.2 0.2 0 0.3 0.1 0.1 0.1 0.2 0.2 0.6 0.6 1.3 0.6c0.5 0 0.9-0.2 1.2-0.5q0.1-0.1 0.1-0.2 0-0.2-0.1-0.2z"/><path class="b" d="m176.6 207.2q-0.5-0.2-0.7-0.4-0.4-0.4-0.4-1 0-0.4 0.2-0.7 0.2-0.3 0.6-0.6 0.3-0.2 0.7-0.3 0.5-0.1 0.9-0.1 1.3 0 2.2 1 0.1 0.2 0.1 0.4 0 0.2-0.1 0.4-0.2 0.1-0.4 0.1-0.2 0-0.3-0.1-0.1-0.1-0.2-0.2-0.6-0.5-1.3-0.5-0.8 0-1.2 0.4-0.1 0.1-0.1 0.3 0 0.1 0.1 0.2l2.5 0.8q0.5 0.2 0.7 0.4 0.4 0.4 0.4 0.9 0 0.4-0.2 0.7-0.2 0.4-0.6 0.6-0.3 0.2-0.8 0.3-0.4 0.2-0.8 0.2-1.3-0.1-2.3-1.1-0.1-0.1-0.1-0.3 0-0.3 0.2-0.4 0.1-0.2 0.4-0.2 0.1 0 0.3 0.1 0.1 0.1 0.2 0.2 0.5 0.6 1.3 0.6c0.5 0 0.9-0.2 1.2-0.5q0.1-0.1 0.1-0.2 0-0.2-0.2-0.2z"/><path class="b" d="m189.9 208.1q0.1 0 0.2 0 0.1 0 0.2 0.1 0 0.1 0.1 0.2 0 0.1 0 0.2 0 0.2-0.1 0.4-1.2 1-2.7 1-1.7 0-3-1.3-1.2-1.2-1.2-2.9 0-1.8 1.2-3 1.3-1.2 3-1.2 1.5 0 2.7 0.9 0.2 0.2 0.2 0.4 0 0.1-0.1 0.2 0 0.1-0.1 0.2-0.1 0.1-0.2 0.1-0.1 0.1-0.2 0.1-0.2 0-0.4-0.2-0.4-0.3-0.9-0.5-0.4-0.1-1-0.1-1.2 0-2.2 0.9-0.9 0.9-0.9 2.2 0 1.2 0.9 2.1 0.9 0.9 2.2 0.9 1.1 0 2-0.6 0.1-0.1 0.3-0.1z"/><path class="b" d="m190.7 209.4v-7.3q0-0.2 0.2-0.4 0.1-0.1 0.4-0.1 0.2 0 0.4 0.1 0.1 0.2 0.1 0.4v6.8h0.3q0.2 0 0.3 0.1 0.2 0.2 0.2 0.4 0 0.2-0.2 0.4-0.1 0.2-0.3 0.2h-0.8q-0.3 0-0.4-0.2-0.2-0.2-0.2-0.4z"/><path class="b" d="m198.8 207q0 1.2-0.9 2.1-0.9 0.8-2.1 0.9-1.2-0.1-2-0.9-0.9-0.9-0.9-2.1 0-1.2 0.9-2.1 0.8-0.8 2-0.8 1.2 0 2.1 0.8 0.4 0.5 0.7 1 0.2 0.5 0.2 1.1zm-3-1.8q-0.4 0-0.7 0.1-0.3 0.2-0.6 0.4-0.2 0.3-0.4 0.6-0.1 0.3-0.1 0.7 0 0.4 0.1 0.7 0.2 0.4 0.4 0.6 0.3 0.3 0.6 0.4 0.3 0.2 0.7 0.2 0.4 0 0.8-0.2 0.3-0.1 0.5-0.4 0.3-0.2 0.4-0.6 0.2-0.3 0.2-0.7 0-0.3-0.2-0.7-0.1-0.3-0.4-0.6-0.2-0.2-0.5-0.4-0.4-0.1-0.8-0.1z"/><path class="b" d="m203.7 208.3q0.2 0 0.4 0.1 0.1 0.2 0.1 0.4 0 0.3-0.1 0.4-0.8 0.7-2 0.7-1.2 0-2-0.8-0.9-0.9-0.9-2.1 0-1.2 0.9-2.1 0.8-0.8 2-0.8 1.2 0 2 0.7 0.2 0.1 0.2 0.4 0 0.2-0.2 0.4-0.2 0.1-0.4 0.1-0.2 0-0.4-0.1-0.2-0.2-0.5-0.3-0.3-0.1-0.7-0.1-0.3 0-0.7 0.1-0.3 0.1-0.6 0.4-0.2 0.2-0.4 0.6-0.1 0.3-0.1 0.7 0 0.4 0.1 0.7 0.2 0.3 0.4 0.6 0.3 0.2 0.6 0.4 0.4 0.1 0.7 0.1 0.4 0 0.7-0.1 0.3-0.1 0.5-0.3 0.2-0.1 0.4-0.1z"/><path class="b" d="m204.7 209.4v-7.3q0-0.2 0.1-0.4 0.2-0.1 0.4-0.1 0.2 0 0.4 0.1 0.2 0.2 0.2 0.4v4.1l3.1-2q0.1-0.1 0.3-0.1 0.1 0 0.2 0 0.1 0.1 0.2 0.1 0.1 0.1 0.1 0.2 0 0.1 0 0.2 0 0.3-0.2 0.5l-2.2 1.4 2.3 2.5q0.1 0.2 0.1 0.4 0 0.1 0 0.2 0 0.1-0.1 0.2-0.1 0.1-0.2 0.1-0.1 0.1-0.2 0.1-0.2 0-0.4-0.2l-2.4-2.7-0.6 0.4v1.9q0 0.2-0.2 0.4-0.2 0.2-0.4 0.2-0.2 0-0.4-0.2-0.1-0.2-0.1-0.4z"/><path class="b" d="m156.7 74.4v-0.5q0.8-0.1 1.3-0.2 0.5-0.1 0.7-0.4 0.3-0.2 0.4-0.6 0-0.3 0-0.9v-11.2q0-0.2 0-0.5 0-0.3-0.1-0.6-0.1-0.2-0.3-0.4-0.1-0.2-0.4-0.3-0.3 0-0.7 0-0.4 0.1-1 0.4v-0.6l5.8-2.4q0.1-0.1 0.2-0.1 0 0.1 0 0.2v16q0 0.4 0.1 0.7 0.1 0.3 0.3 0.4 0.2 0.2 0.7 0.3 0.5 0.1 1.3 0.1v0.6h-8.3z"/><path class="b" d="m179.6 74.4h-10.8v-0.4q1.3-1.4 2.3-2.6 1-1.2 1.8-2.2 0.8-1 1.4-1.9 0.5-0.9 0.9-1.7 0.3-0.9 0.5-1.7 0.2-0.8 0.2-1.7 0-0.7-0.2-1.3-0.2-0.6-0.6-1-0.4-0.5-1-0.7-0.5-0.3-1.2-0.3-1.3 0-2.1 0.7-0.9 0.7-1.4 2l-0.6-0.1q0.3-1.2 0.8-2.2 0.4-1 1.2-1.7 0.7-0.7 1.6-1.2 1-0.4 2.2-0.4 1.3 0 2.2 0.4 1 0.4 1.5 1.1 0.6 0.6 0.9 1.5 0.3 0.9 0.3 1.9 0 1.3-0.6 2.6-0.7 1.4-1.7 2.7-1 1.3-2.3 2.7-1.3 1.4-2.7 2.8h5.7q0.4 0 0.7 0 0.3-0.1 0.6-0.3 0.2-0.2 0.5-0.5 0.2-0.4 0.5-1l0.4 0.2-1 4.3z"/><path class="b" d="m218 89.8v-0.6q0.9-0.1 1.4-0.2 0.4-0.1 0.7-0.3 0.2-0.3 0.3-0.6 0-0.4 0-0.9v-11.2q0.1-0.3 0-0.6 0-0.3-0.1-0.5-0.1-0.3-0.2-0.5-0.2-0.2-0.5-0.2-0.3-0.1-0.7 0-0.4 0.1-1 0.3v-0.5l5.8-2.5q0.2-0.1 0.2 0 0 0 0 0.2v16q0 0.4 0.1 0.6 0.1 0.3 0.3 0.5 0.3 0.2 0.8 0.3 0.4 0 1.2 0.1v0.6h-8.2z"/><path class="b" d="m110.2 89.8v-0.6q0.9-0.1 1.3-0.2 0.5-0.1 0.8-0.3 0.2-0.3 0.3-0.6 0-0.4 0-0.9v-11.2q0-0.3 0-0.6 0-0.3-0.1-0.5-0.1-0.3-0.2-0.5-0.2-0.2-0.5-0.2-0.3-0.1-0.7 0-0.4 0.1-1 0.3v-0.5l5.8-2.5q0.1-0.1 0.2 0 0 0 0 0.2v16q0 0.4 0.1 0.6 0.1 0.3 0.3 0.5 0.3 0.2 0.7 0.3 0.5 0 1.3 0.1v0.6h-8.3z"/><path class="b" d="m124.2 89.8v-0.6q0.9-0.1 1.3-0.2 0.5-0.1 0.8-0.3 0.2-0.3 0.3-0.6 0-0.4 0-0.9v-11.2q0-0.3 0-0.6 0-0.3-0.1-0.5-0.1-0.3-0.2-0.5-0.2-0.2-0.5-0.2-0.3-0.1-0.7 0-0.4 0.1-1 0.3v-0.5l5.8-2.5q0.1-0.1 0.2 0 0 0 0 0.2v16q0 0.4 0.1 0.6 0.1 0.3 0.3 0.5 0.3 0.2 0.7 0.3 0.5 0 1.3 0.1v0.6h-8.3z"/><path class="b" d="m266.9 130.3h-10.8v-0.4q1.3-1.5 2.3-2.6 1.1-1.2 1.9-2.2 0.8-1 1.3-1.9 0.6-0.9 0.9-1.8 0.4-0.8 0.6-1.6 0.1-0.8 0.1-1.7 0-0.7-0.2-1.3-0.2-0.6-0.6-1-0.4-0.5-0.9-0.7-0.6-0.3-1.3-0.3-1.3 0-2.1 0.7-0.8 0.6-1.4 2l-0.6-0.2q0.3-1.1 0.8-2.1 0.5-1 1.2-1.7 0.7-0.8 1.7-1.2 0.9-0.4 2.1-0.4 1.3 0 2.3 0.4 0.9 0.4 1.5 1 0.6 0.7 0.9 1.6 0.2 0.9 0.2 1.9 0 1.3-0.6 2.6-0.6 1.3-1.7 2.7-1 1.3-2.3 2.7-1.3 1.4-2.7 2.8h5.8q0.4 0 0.7-0.1 0.3 0 0.5-0.2 0.3-0.2 0.5-0.5 0.2-0.4 0.5-1l0.5 0.2-1.1 4.3z"/><path class="b" d="m69.9 130.3v-0.6q0.8 0 1.3-0.1 0.5-0.2 0.7-0.4 0.3-0.2 0.3-0.6 0.1-0.4 0.1-0.9v-11.2q0-0.3 0-0.6 0-0.2-0.1-0.5-0.1-0.3-0.3-0.4-0.1-0.2-0.4-0.3-0.3-0.1-0.7 0-0.4 0.1-1.1 0.4v-0.6l5.9-2.4q0.1-0.1 0.2-0.1 0 0 0 0.2v16q0 0.4 0.1 0.7 0.1 0.2 0.3 0.4 0.2 0.2 0.7 0.3 0.5 0.1 1.3 0.1v0.6h-8.3z"/><path class="b" d="m93.2 125.4q-0.6 1.8-1.4 2.9-0.9 1.1-2 1.7-1.1 0.5-2.3 0.5-1.2 0-2.3-0.5-1.1-0.5-2-1.6-0.8-1.2-1.3-2.9-0.6-1.7-0.6-4.1 0.1-2.6 0.6-4.4 0.5-1.8 1.4-2.9 0.9-1.1 2-1.7 1.2-0.5 2.4-0.5 1 0 2.1 0.6 1.1 0.5 1.9 1.6 0.9 1.2 1.4 2.9 0.6 1.8 0.6 4.2 0 2.5-0.5 4.2zm-3.5-7.9q-0.2-1.6-0.5-2.6-0.3-1-0.7-1.5-0.4-0.4-0.9-0.4-0.5 0-0.9 0.4-0.5 0.4-0.8 1.3-0.4 1-0.6 2.6-0.2 1.5-0.2 3.9 0 2.3 0.2 4 0.2 1.6 0.6 2.6 0.3 1 0.8 1.5 0.4 0.4 0.9 0.4 0.5 0 0.9-0.4 0.5-0.5 0.8-1.5 0.2-1 0.4-2.6 0.1-1.6 0.1-3.7 0-2.4-0.1-4z"/><path class="b" d="m279.2 172.6q-0.3 1.3-1.2 2.2-0.9 0.9-2.3 1.4-1.4 0.6-3.5 0.6-1.2 0-1.9-0.2-0.8-0.2-1.3-0.5-0.4-0.3-0.6-0.6-0.2-0.3-0.2-0.7 0-0.6 0.4-1 0.3-0.3 0.9-0.3 0.5 0 0.8 0.2 0.4 0.1 0.8 0.4 0.3 0.3 0.7 0.6 0.3 0.3 0.7 0.5 0.3 0.3 0.7 0.4 0.4 0.2 0.8 0.2 0.7 0 1.2-0.2 0.6-0.2 1-0.7 0.4-0.4 0.6-1 0.2-0.6 0.2-1.3 0-1-0.4-2-0.4-0.9-1-1.6-0.7-0.7-1.6-1.1-0.9-0.4-2-0.4h-0.3q-0.1 0-0.3 0v-0.5q1.1-0.2 1.8-0.6 0.8-0.3 1.3-0.8 0.4-0.5 0.6-1 0.3-0.6 0.3-1.2-0.1-0.5-0.3-1-0.2-0.6-0.6-0.9-0.4-0.4-0.9-0.7-0.6-0.2-1.2-0.2-1.2 0-2 0.6-0.8 0.7-1.4 1.9l-0.5-0.1q0.3-1.2 0.9-2 0.7-0.9 1.5-1.6 0.8-0.6 1.7-0.9 0.8-0.3 1.7-0.3 1 0 1.8 0.3 0.8 0.2 1.4 0.7 0.6 0.5 0.9 1.2 0.3 0.7 0.3 1.5 0 1.1-0.6 2-0.6 1-1.8 1.5 0.5 0.3 1.1 0.6 0.6 0.3 1.1 0.9 0.5 0.5 0.8 1.3 0.4 0.7 0.4 1.9 0 1.4-0.4 2.6z"/><path class="b" d="m68.1 167.2q-0.3 1.3-1 2.5-0.6 1.2-1.5 2.2-1 1.1-2.2 1.8-1.2 0.8-2.8 1.4-1.5 0.5-3.3 0.7l-0.2-0.7q1.3-0.3 2.2-0.7 1-0.3 1.6-0.8 0.7-0.4 1.2-1 0.5-0.6 0.9-1.3 0.3-0.7 0.6-1.6 0.3-0.9 0.6-1.9-0.7 0.5-1.3 0.7-0.7 0.2-1.5 0.2-0.9 0-1.8-0.3-0.9-0.3-1.7-1-0.7-0.6-1.2-1.7-0.4-1.1-0.4-2.6 0-1.4 0.4-2.6 0.4-1.2 1.1-2 0.8-0.8 1.9-1.3 1-0.5 2.4-0.5c0.9 0 1.7 0.2 2.4 0.5q1.2 0.5 2 1.5 0.9 1 1.4 2.5 0.5 1.4 0.5 3.4 0 1.3-0.3 2.6zm-3.6-4.8q-0.1-0.7-0.2-1.4-0.1-0.7-0.3-1.3-0.2-0.7-0.5-1.1-0.3-0.5-0.7-0.7-0.4-0.3-0.9-0.3-0.5 0-0.8 0.3-0.4 0.2-0.6 0.7-0.3 0.5-0.4 1.4-0.1 0.8-0.1 1.9 0 2.7 0.6 4.1 0.7 1.4 1.9 1.4 0.6 0 1-0.2 0.4-0.2 0.7-0.6 0.1-0.1 0.1-0.4 0.1-0.3 0.2-0.7 0-0.4 0-0.8 0-0.5 0-0.8 0-0.8 0-1.5z"/><path class="b" d="m262.3 222.2v3.9h-3.3v-3.9h-6.9v-2.6l8.5-11.8h1.7v11.8h2.2v2.6h-2.2zm-3.3-10.4l-5.6 7.8h5.6z"/><path class="b" d="m82 223.5q-0.3 0.9-1 1.5-0.7 0.7-1.8 1-1.1 0.4-2.6 0.4-1.1 0-2.2-0.2-1.1-0.3-1.9-0.8-0.8-0.5-1.2-1.4-0.5-0.8-0.5-1.9 0-0.9 0.2-1.6 0.3-0.7 0.7-1.3 0.5-0.6 1.2-1 0.6-0.5 1.6-0.9-1-0.6-1.6-1.3-0.6-0.6-1-1.2-0.4-0.6-0.6-1.2-0.2-0.7-0.2-1.2 0-1.1 0.4-2 0.4-0.8 1.1-1.4 0.8-0.6 1.8-0.9 1.1-0.3 2.4-0.3 1.4 0 2.4 0.3 1 0.3 1.6 0.8 0.7 0.5 1 1.2 0.3 0.7 0.3 1.5 0 0.7-0.3 1.3-0.2 0.6-0.6 1.1-0.4 0.5-1.1 1-0.7 0.5-1.7 1 1 0.7 1.7 1.3 0.7 0.6 1.1 1.2 0.4 0.5 0.7 0.9 0.2 0.5 0.3 0.9 0.1 0.4 0.1 0.7 0.1 0.4 0.1 0.8 0 0.9-0.4 1.7zm-3.1-1.5q-0.1-0.6-0.5-1.2-0.3-0.6-1.1-1.2-0.7-0.7-1.9-1.5-0.8 0.9-1.1 1.9-0.2 0.9-0.2 1.9 0 0.7 0.1 1.4 0.2 0.6 0.6 1.2 0.3 0.5 0.8 0.8 0.6 0.3 1.3 0.3 0.5 0 0.9-0.2 0.4-0.2 0.7-0.5 0.3-0.4 0.4-0.8 0.2-0.4 0.2-1 0-0.6-0.2-1.1zm-0.1-11.4q-0.1-0.6-0.4-1-0.3-0.4-0.8-0.7-0.4-0.2-1-0.2-1 0-1.7 0.6-0.6 0.6-0.6 1.7 0 0.6 0.2 1.1 0.1 0.5 0.5 1 0.3 0.5 0.9 1.1 0.6 0.5 1.6 1.1 0.8-0.7 1.1-1.6 0.3-1 0.3-2 0-0.6-0.1-1.1z"/><path class="b" d="m225.1 249.9q-0.2 0.3-0.5 0.3h-6.7l-0.9 2.2q1.1 0.1 2.2 0.2 1.1 0.2 2.1 0.5 1 0.3 1.9 0.8 0.9 0.5 1.5 1.3 0.6 0.7 1 1.7 0.3 1.1 0.4 2.4 0 1.5-0.6 2.7-0.6 1.2-1.6 2-1 0.9-2.3 1.4-1.4 0.4-3 0.4-1.2 0-2-0.1-0.8-0.2-1.3-0.5-0.4-0.3-0.7-0.7-0.2-0.4-0.2-0.8 0-0.6 0.4-1 0.3-0.4 1-0.4 0.5 0 0.9 0.2 0.4 0.2 0.8 0.4 0.4 0.3 0.7 0.6 0.3 0.3 0.7 0.6 0.3 0.3 0.7 0.4 0.4 0.2 0.8 0.2 0.5 0 1-0.3 0.6-0.2 1-0.7 0.5-0.5 0.8-1.2 0.3-0.7 0.3-1.5 0-1.3-0.7-2.3-0.6-1.1-1.8-1.7-1.1-0.6-2.7-1-1.5-0.3-3.2-0.3-0.2 0-0.3-0.1 0 0 0.1-0.2l3-7.9h7q0.1 0 0.2-0.1 0.1 0 0.2-0.1 0.1-0.1 0.2-0.2 0-0.2 0.1-0.3l0.5 0.2-1 2.9z"/><path class="b" d="m117.6 265.5h-2.4l5-15.2h-4.9q-0.8 0-1.3 0.1-0.6 0.1-0.9 0.4-0.4 0.2-0.7 0.6-0.2 0.3-0.5 0.9l-0.6-0.1 1.3-4.7h10.5v0.8l-5.5 17.2z"/><path class="b" d="m174 276q-0.5 1.2-1.2 2.1-0.8 0.8-1.8 1.3-1.1 0.5-2.2 0.5-1.1 0-2.2-0.5-1.1-0.6-2-1.6-1-1-1.5-2.5-0.6-1.5-0.6-3.6 0-1.3 0.4-2.7 0.3-1.3 1-2.5 0.7-1.2 1.7-2.2 1-1.1 2.3-1.8 1.2-0.8 2.7-1.2 1.5-0.4 3.2-0.4l0.1 0.6q-1.5 0.2-2.6 0.8-1.2 0.5-2 1.4-0.9 0.9-1.5 2.1-0.6 1.2-1 2.7 0.6-0.4 1.2-0.5 0.7-0.2 1.5-0.2 0.9 0 1.8 0.3 0.9 0.3 1.6 1 0.7 0.7 1.1 1.7 0.5 1.1 0.5 2.7 0 1.4-0.5 2.5zm-3.8-5.3q-0.7-1.5-2-1.5-1.2 0-1.6 0.8-0.5 0.8-0.5 2.5 0 1.1 0.1 2.3 0.2 1.1 0.5 2 0.4 1 0.9 1.6 0.6 0.6 1.3 0.6 0.6 0 1-0.3 0.4-0.3 0.6-0.8 0.3-0.6 0.3-1.3 0.2-0.8 0.1-1.7 0-2.8-0.7-4.2z"/><path class="b" d="m149.1 139.5v-0.2q-0.7 0.6-1.6 0.9-0.8 0.3-1.8 0.3-2.2 0-3.8-1.6-1.6-1.6-1.6-3.8 0-2.3 1.6-3.9 1.6-1.5 3.8-1.5 2.2 0 3.8 1.5 1.6 1.6 1.6 3.9v4.4q0 0.4-0.3 0.7-0.3 0.3-0.7 0.3-0.4 0-0.7-0.3-0.3-0.3-0.3-0.7zm-3.4-7.8q-0.7 0-1.3 0.2-0.6 0.3-1.1 0.8-0.5 0.4-0.7 1.1-0.3 0.6-0.3 1.3 0 0.7 0.3 1.3 0.2 0.6 0.7 1.1 0.4 0.4 1.1 0.7 0.6 0.3 1.3 0.3 0.7 0 1.3-0.3 0.6-0.3 1.1-0.7 0.5-0.5 0.7-1.1 0.3-0.6 0.3-1.3 0-0.7-0.3-1.3-0.2-0.6-0.7-1.1-0.5-0.5-1.1-0.8-0.6-0.2-1.3-0.2z"/><path class="b" d="m155.6 130.7v9.8q0 0.9-0.4 1.8-0.4 0.8-1 1.5-0.7 0.6-1.5 1-0.9 0.3-1.8 0.3-0.5 0-0.7-0.3-0.3-0.2-0.3-0.7 0-0.4 0.3-0.7 0.2-0.3 0.7-0.3 0.5 0 1-0.2 0.5-0.2 0.9-0.6 0.3-0.3 0.5-0.8 0.3-0.5 0.3-1.1v-9.8q0-0.4 0.2-0.7 0.3-0.3 0.8-0.3 0.4 0 0.7 0.3 0.3 0.3 0.3 0.7zm0.1-2.9q0 0.5-0.3 0.8-0.4 0.4-0.8 0.4-0.5 0-0.9-0.4-0.3-0.3-0.3-0.8 0-0.5 0.3-0.8 0.4-0.4 0.9-0.4 0.4 0 0.8 0.4 0.3 0.3 0.3 0.8z"/><path class="b" d="m159.1 130.7q1.2-1 3-1 1 0 1.9 0.4 0.9 0.4 1.6 1 0.7 0.7 1.1 1.6 0.5 1 0.5 2v4.8q0 0.4-0.3 0.7-0.3 0.3-0.8 0.3-0.4 0-0.7-0.3-0.3-0.3-0.3-0.7v-4.8q0-0.6-0.2-1.2-0.3-0.5-0.7-0.9-0.4-0.4-0.9-0.7-0.6-0.2-1.2-0.2-0.6 0-1.2 0.2-0.5 0.3-0.9 0.7-0.5 0.4-0.7 1-0.2 0.5-0.2 1.1v4.8q0 0.4-0.3 0.7-0.3 0.3-0.7 0.3-0.5 0-0.8-0.3-0.2-0.3-0.3-0.7v-8.8q0-0.4 0.3-0.7 0.3-0.3 0.8-0.3 0.4 0 0.7 0.3 0.3 0.3 0.3 0.7z"/><path class="b" d="m176.9 137.5q0.5 0 0.7 0.2 0.3 0.3 0.3 0.8 0 0.4-0.3 0.7-1.5 1.3-3.5 1.3-2.3 0-3.8-1.6-1.6-1.6-1.6-3.8 0-2.3 1.6-3.9 1.5-1.5 3.8-1.5 2.2 0 3.8 1.5 0.8 0.8 1.2 1.8 0.4 1 0.4 2.1 0 0.4-0.3 0.7-0.3 0.3-0.7 0.3h-7.7q0.2 0.5 0.5 1 0.3 0.4 0.8 0.7 0.4 0.3 0.9 0.5 0.5 0.2 1.1 0.2 0.6 0 1.2-0.2 0.5-0.2 0.9-0.6 0.3-0.2 0.7-0.2zm0.5-3.4q-0.2-0.6-0.5-1-0.4-0.4-0.8-0.7-0.4-0.4-0.9-0.5-0.6-0.2-1.1-0.2-0.6 0-1.1 0.2-0.5 0.1-0.9 0.5-0.5 0.3-0.8 0.7-0.3 0.5-0.5 1z"/><path class="b" d="m189.3 137.5q0.5 0 0.8 0.2 0.2 0.3 0.2 0.8 0 0.4-0.2 0.7-1.5 1.3-3.6 1.3-2.2 0-3.8-1.6-1.6-1.6-1.6-3.8 0-2.3 1.6-3.9 1.6-1.5 3.8-1.5 2.2 0 3.8 1.5 0.8 0.8 1.2 1.8 0.4 1 0.4 2.1 0 0.4-0.3 0.7-0.3 0.3-0.7 0.3h-7.7q0.2 0.5 0.5 1 0.3 0.4 0.8 0.7 0.4 0.3 0.9 0.5 0.5 0.2 1.1 0.2 0.6 0 1.2-0.2 0.5-0.2 1-0.6 0.2-0.2 0.6-0.2zm0.5-3.4q-0.2-0.6-0.5-1-0.4-0.4-0.8-0.7-0.4-0.4-0.9-0.5-0.6-0.2-1.1-0.2-0.6 0-1.1 0.2-0.5 0.1-0.9 0.5-0.5 0.3-0.8 0.7-0.3 0.5-0.5 1z"/><path class="b" d="m168 336c-92.6 0-168-75.4-168-168 0-92.6 75.4-168 168-168 92.6 0 168 75.4 168 168 0 92.6-75.4 168-168 168zm0-333c-91 0-165 74-165 165 0 91 74 165 165 165 91 0 165-74 165-165 0-91-74-165-165-165z"/><path class="b" d="m168.7 111.9c0 0.7-0.6 1.3-1.2 1.2-0.7 0-1.2-0.5-1.2-1.2 0-0.6 0.5-1.2 1.2-1.2 0.6 0 1.2 0.6 1.2 1.2z"/><path class="b" d="m174.8 95.5c-0.7 0-1.3-0.6-1.3-1.2 0-0.7 0.6-1.2 1.2-1.2 0.8 0 1.3 0.6 1.3 1.2 0 0.7-0.5 1.2-1.2 1.2z"/><path class="b" d="m163.6 93.2c-0.6 0.1-1.2-0.5-1.2-1.1 0-0.7 0.5-1.3 1.2-1.3 0.7 0 1.2 0.6 1.2 1.2 0 0.7-0.5 1.2-1.2 1.2z"/><path class="b" d="m160.2 95.5c-0.7 0-1.2-0.6-1.2-1.2 0-0.7 0.5-1.2 1.2-1.2 0.7 0 1.2 0.6 1.2 1.2 0 0.6-0.6 1.2-1.2 1.2z"/><path class="b" d="m158.5 101.5c0 0.7-0.5 1.2-1.2 1.2-0.7 0-1.2-0.5-1.2-1.2 0-0.7 0.5-1.2 1.2-1.2 0.6 0 1.2 0.5 1.2 1.2z"/><path class="b" d="m164.7 111c0 0.6-0.6 1.2-1.2 1.2-0.7 0-1.2-0.6-1.2-1.2 0-0.6 0.4-1.2 1.2-1.2 0.6 0 1.2 0.5 1.2 1.2z"/><path class="b" d="m179 101.5c0 0.7-0.6 1.2-1.2 1.2-0.7 0-1.2-0.5-1.2-1.2 0-0.7 0.5-1.2 1.2-1.2 0.6 0 1.2 0.5 1.2 1.2z"/><path class="b" d="m172.6 111c0 0.6-0.5 1.2-1.1 1.2-0.7 0-1.3-0.6-1.3-1.2 0-0.7 0.6-1.2 1.3-1.2 0.6 0 1.1 0.5 1.1 1.1z"/><path class="b" d="m174.7 110c-0.7 0-1.3-0.6-1.3-1.2 0-0.7 0.6-1.2 1.2-1.2 0.7 0 1.2 0.5 1.2 1.1 0 0.7-0.5 1.3-1.1 1.3z"/><path class="b" d="m168.7 91.4c0 0.7-0.6 1.2-1.2 1.2-0.7 0-1.2-0.5-1.2-1.2 0-0.6 0.5-1.2 1.2-1.2 0.6 0 1.2 0.6 1.2 1.2z"/><path class="b" d="m156.7 105.4c0-0.6 0.6-1.2 1.2-1.2 0.7 0 1.2 0.6 1.2 1.2 0 0.7-0.5 1.2-1.2 1.2-0.6 0-1.2-0.5-1.2-1.2z"/><path class="b" d="m178.1 105.4c0 0.7-0.6 1.2-1.2 1.2-0.7 0-1.3-0.5-1.3-1.2 0-0.6 0.6-1.2 1.2-1.2 0.7 0 1.2 0.6 1.2 1.3z"/><path class="b" d="m160.3 110c-0.7 0-1.2-0.6-1.2-1.2 0-0.7 0.5-1.2 1.2-1.2 0.7 0 1.2 0.5 1.2 1.2 0 0.6-0.6 1.2-1.2 1.2z"/><path class="b" d="m171.3 93.2c-0.7 0-1.2-0.5-1.2-1.1 0-0.7 0.6-1.3 1.2-1.3 0.7 0 1.2 0.6 1.2 1.2 0 0.7-0.5 1.3-1.2 1.2z"/><path class="b" d="m156.7 97.6c0-0.7 0.6-1.2 1.2-1.2 0.7 0 1.2 0.6 1.2 1.2 0 0.7-0.5 1.2-1.2 1.2-0.6 0-1.2-0.5-1.2-1.2z"/><path class="b" d="m178.1 97.6c0 0.7-0.6 1.2-1.2 1.2-0.7 0-1.3-0.6-1.3-1.2 0-0.6 0.6-1.2 1.3-1.2 0.6 0 1.2 0.5 1.2 1.2z"/><path class="b" d="m178.7 94.9c-0.4 0-0.7-0.3-0.7-0.7 0-0.4 0.3-0.8 0.7-0.8 0.4 0 0.8 0.4 0.8 0.7 0 0.4-0.4 0.8-0.8 0.8z"/><path class="b" d="m171.1 88.7c0 0.4-0.4 0.8-0.8 0.8-0.4 0-0.7-0.4-0.7-0.8 0-0.4 0.4-0.7 0.7-0.7 0.4 0 0.8 0.3 0.8 0.7z"/><path class="b" d="m154.3 98.6c0-0.4 0.3-0.7 0.8-0.7 0.4 0 0.7 0.3 0.7 0.7 0 0.5-0.4 0.8-0.8 0.8-0.4 0-0.7-0.3-0.7-0.8z"/><path class="b" d="m170.3 113.4c0.4 0 0.7 0.3 0.7 0.7 0 0.4-0.4 0.8-0.8 0.8-0.4 0-0.7-0.4-0.7-0.8 0-0.4 0.3-0.7 0.8-0.7z"/><path class="b" d="m179.2 108.6c0 0.4-0.4 0.8-0.7 0.8-0.4 0-0.8-0.4-0.8-0.8 0-0.4 0.3-0.7 0.8-0.7 0.4 0 0.7 0.3 0.7 0.7z"/><path class="b" d="m156.9 109.2c-0.4 0-0.7-0.4-0.7-0.7 0-0.4 0.3-0.8 0.7-0.8 0.4 0 0.8 0.4 0.8 0.8 0 0.4-0.4 0.7-0.8 0.7z"/><path class="b" d="m180.6 103.2c0.4 0 0.7 0.4 0.7 0.8 0 0.4-0.3 0.7-0.7 0.7-0.4 0-0.7-0.3-0.7-0.7 0-0.4 0.3-0.8 0.7-0.8z"/><path class="b" d="m161.2 90.3c0 0.5-0.3 0.8-0.7 0.8-0.4 0-0.7-0.3-0.7-0.7 0-0.4 0.3-0.8 0.7-0.8 0.4 0 0.7 0.4 0.7 0.7z"/><path class="b" d="m165.4 87.8c0.4 0 0.7 0.3 0.7 0.7 0 0.4-0.3 0.7-0.7 0.7-0.5 0-0.8-0.3-0.8-0.7 0-0.4 0.4-0.7 0.8-0.7z"/><path class="b" d="m160.3 111.3c0.4 0 0.8 0.3 0.8 0.7 0 0.5-0.4 0.8-0.8 0.8-0.4 0-0.7-0.4-0.7-0.8 0-0.3 0.3-0.7 0.7-0.7z"/><path class="b" d="m179.7 98.8c0-0.4 0.4-0.7 0.8-0.7 0.4 0 0.7 0.3 0.7 0.7 0 0.5-0.3 0.8-0.8 0.8-0.4 0-0.7-0.3-0.7-0.8z"/><path class="b" d="m165 115c-0.4 0-0.7-0.3-0.7-0.7 0-0.4 0.3-0.8 0.8-0.8 0.3 0 0.7 0.3 0.7 0.7 0 0.4-0.3 0.8-0.8 0.8z"/><path class="b" d="m175 91.2c-0.4 0-0.7-0.3-0.7-0.7 0-0.4 0.3-0.8 0.7-0.8 0.4 0 0.7 0.4 0.7 0.8 0 0.4-0.3 0.7-0.7 0.7z"/><path class="b" d="m156.1 93.9c0-0.4 0.4-0.7 0.8-0.7 0.4 0 0.7 0.3 0.7 0.7 0 0.4-0.3 0.7-0.7 0.7-0.4 0-0.8-0.3-0.8-0.7z"/><path class="b" d="m174.8 112.9c-0.4 0-0.7-0.3-0.7-0.7 0-0.4 0.3-0.8 0.7-0.8 0.4 0 0.7 0.4 0.7 0.8 0 0.4-0.3 0.7-0.7 0.7z"/><path class="b" d="m154.8 103c0.4 0 0.8 0.3 0.8 0.7 0 0.4-0.3 0.7-0.7 0.7-0.5 0-0.8-0.3-0.8-0.7 0-0.4 0.3-0.7 0.7-0.7z"/><path class="b" d="m182.3 108.2c-0.3 0-0.5-0.2-0.5-0.5 0-0.3 0.2-0.6 0.5-0.6 0.3 0 0.6 0.3 0.6 0.6 0 0.3-0.3 0.5-0.6 0.5z"/><path class="b" d="m161.1 116.2c-0.3 0-0.5-0.2-0.5-0.5 0-0.3 0.2-0.6 0.6-0.5 0.2 0 0.5 0.2 0.5 0.5 0 0.3-0.3 0.5-0.6 0.5z"/><path class="b" d="m174.9 86.8c0 0.3-0.3 0.6-0.6 0.6-0.3 0-0.5-0.3-0.5-0.6 0-0.3 0.3-0.5 0.6-0.5 0.3 0 0.5 0.2 0.5 0.5z"/><path class="b" d="m157.5 89.3c0 0.3-0.3 0.6-0.6 0.6-0.2 0-0.5-0.2-0.5-0.5 0-0.3 0.2-0.6 0.5-0.6 0.3 0 0.6 0.2 0.6 0.5z"/><path class="b" d="m156.1 111.3c0.3 0 0.5 0.2 0.5 0.5 0 0.3-0.2 0.5-0.5 0.5-0.3 0-0.5-0.2-0.5-0.5 0-0.3 0.2-0.5 0.5-0.5z"/><path class="b" d="m162.8 86.1c0 0.3-0.3 0.6-0.6 0.6-0.3 0-0.5-0.3-0.5-0.6 0-0.3 0.2-0.5 0.5-0.5 0.3 0 0.6 0.2 0.6 0.5z"/><path class="b" d="m179 112.6c0 0.3-0.2 0.6-0.5 0.5-0.3 0-0.5-0.2-0.5-0.5 0-0.3 0.2-0.5 0.5-0.5 0.3 0 0.5 0.2 0.5 0.5z"/><path class="b" d="m183.1 101.6c0-0.3 0.2-0.5 0.5-0.5 0.3 0 0.5 0.2 0.5 0.5 0 0.3-0.2 0.5-0.5 0.5-0.3 0-0.5-0.2-0.5-0.5z"/><path class="b" d="m182.8 96.1c-0.3 0-0.6-0.3-0.6-0.6 0-0.2 0.3-0.5 0.6-0.5 0.3 0 0.5 0.3 0.5 0.5 0 0.3-0.2 0.6-0.5 0.6z"/><path class="b" d="m152.5 106.6c0-0.3 0.3-0.6 0.6-0.5 0.3 0 0.5 0.2 0.5 0.5 0 0.3-0.3 0.5-0.5 0.5-0.3 0-0.6-0.2-0.6-0.5z"/><path class="b" d="m179.4 90.7c-0.3 0-0.5-0.2-0.5-0.5 0-0.3 0.2-0.5 0.5-0.5 0.3 0 0.5 0.2 0.5 0.5 0 0.3-0.2 0.5-0.5 0.5z"/><path class="b" d="m153.5 95c-0.3 0-0.5-0.3-0.5-0.6 0-0.3 0.2-0.5 0.5-0.5 0.3 0 0.5 0.3 0.5 0.5 0 0.3-0.2 0.6-0.5 0.6z"/><path class="b" d="m152.4 100.4c0 0.3-0.2 0.5-0.5 0.5-0.3 0-0.5-0.2-0.5-0.5 0-0.3 0.2-0.5 0.5-0.5 0.3 0 0.5 0.2 0.5 0.5z"/><path class="b" d="m172.7 115.8c0-0.3 0.2-0.5 0.5-0.5 0.3 0 0.6 0.3 0.6 0.5 0 0.3-0.3 0.6-0.6 0.6-0.2 0-0.5-0.2-0.5-0.6z"/><path class="b" d="m169 85.2c0 0.3-0.2 0.5-0.5 0.6-0.3 0-0.5-0.3-0.5-0.6 0-0.3 0.2-0.5 0.5-0.5 0.3 0 0.5 0.2 0.5 0.5z"/><path class="b" d="m167.3 117.4c-0.3 0-0.5-0.2-0.5-0.5 0-0.3 0.2-0.5 0.5-0.5 0.3 0 0.6 0.2 0.6 0.5 0 0.3-0.3 0.5-0.6 0.5z"/><path class="b" d="m186.4 97.9c0 0.2-0.2 0.4-0.4 0.4-0.2 0-0.4-0.2-0.4-0.4 0-0.2 0.2-0.4 0.4-0.4 0.2 0 0.4 0.2 0.4 0.4z"/><path class="b" d="m178.5 86.3c0 0.2-0.1 0.3-0.3 0.4-0.2 0-0.4-0.2-0.4-0.4 0-0.3 0.1-0.4 0.4-0.4 0.2 0 0.3 0.1 0.3 0.4z"/><path class="b" d="m177.7 116.8c-0.2 0-0.4-0.1-0.4-0.4 0-0.2 0.2-0.3 0.4-0.3 0.3 0 0.4 0.2 0.4 0.4 0 0.2-0.1 0.3-0.4 0.3z"/><path class="b" d="m183.5 111.6c0 0.2-0.2 0.4-0.4 0.4-0.2 0-0.4-0.2-0.4-0.4 0-0.2 0.2-0.4 0.4-0.4 0.2 0 0.4 0.2 0.4 0.4z"/><path class="b" d="m149.5 97.2c0-0.3 0.1-0.4 0.3-0.4 0.3 0 0.4 0.1 0.4 0.3 0 0.3-0.1 0.4-0.4 0.4-0.2 0-0.3-0.1-0.3-0.3z"/><path class="b" d="m171.1 118.7c0.2 0 0.4 0.2 0.4 0.4 0 0.2-0.2 0.4-0.4 0.4-0.2 0-0.4-0.2-0.4-0.4q0-0.4 0.4-0.4z"/><path class="b" d="m157.9 85.2c0.2 0 0.3 0.2 0.3 0.4 0 0.2-0.1 0.4-0.4 0.4-0.2 0-0.3-0.1-0.3-0.4 0-0.2 0.1-0.4 0.4-0.4z"/><path class="b" d="m150.3 104.5c0 0.2-0.2 0.4-0.4 0.4-0.2 0-0.4-0.2-0.4-0.4 0-0.2 0.2-0.4 0.4-0.4 0.3 0 0.4 0.1 0.4 0.4z"/><path class="b" d="m182.8 91.1c0-0.3 0.2-0.4 0.4-0.4 0.2 0 0.4 0.2 0.4 0.4 0 0.2-0.2 0.4-0.4 0.4-0.2 0-0.4-0.2-0.4-0.4z"/><path class="b" d="m153.3 90.7c0 0.2-0.2 0.4-0.4 0.4-0.2 0-0.4-0.1-0.4-0.4 0-0.2 0.2-0.4 0.4-0.4 0.2 0 0.4 0.2 0.4 0.4z"/><path class="b" d="m171.8 83.6c-0.2 0-0.3-0.2-0.3-0.4 0-0.2 0.1-0.4 0.4-0.4 0.2 0 0.4 0.2 0.3 0.4 0 0.2-0.2 0.4-0.4 0.4z"/><path class="b" d="m152.4 110.6c0.2 0 0.4 0.2 0.4 0.4-0.1 0.2-0.2 0.4-0.5 0.4-0.2 0-0.3-0.2-0.3-0.4 0-0.3 0.2-0.4 0.4-0.4z"/><path class="b" d="m157.3 116.8q-0.4 0-0.4-0.4c0-0.2 0.2-0.4 0.4-0.4 0.2 0 0.4 0.2 0.4 0.4q0 0.4-0.4 0.4z"/><path class="b" d="m164.9 83c0 0.2-0.2 0.4-0.4 0.4-0.2 0-0.4-0.2-0.4-0.4 0-0.2 0.2-0.4 0.4-0.4 0.2 0 0.4 0.2 0.4 0.4z"/><path class="b" d="m185.7 104.5c0.2 0 0.4 0.2 0.4 0.4 0 0.2-0.2 0.4-0.4 0.4-0.2 0-0.3-0.2-0.3-0.4 0-0.2 0.1-0.4 0.3-0.4z"/><path class="b" d="m164.5 119.1c0 0.2-0.2 0.4-0.4 0.4-0.2 0-0.4-0.2-0.4-0.4 0-0.2 0.2-0.4 0.4-0.4 0.2 0 0.4 0.2 0.4 0.4z"/><path class="b" d="m139.2 216.9q1.5 0 2.5 1 0.5 0.6 0.8 1.2 0.3 0.6 0.3 1.4 0 1.5-1.1 2.5-1.1 1.1-2.5 1.1h-1.4q-0.1 0-0.2-0.1-0.1 0-0.2-0.1 0 0-0.1-0.1 0-0.1 0-0.2v-6.2q0-0.1 0-0.2 0.1-0.1 0.1-0.2 0.1 0 0.2-0.1 0.1 0 0.2 0h1.4zm0 6.2q1 0 1.8-0.8 0.4-0.3 0.6-0.8 0.2-0.5 0.2-1 0-1.1-0.8-1.9-0.8-0.8-1.8-0.8h-1v5.3z"/><path class="b" d="m148.2 221.6q0 1-0.8 1.7-0.7 0.8-1.7 0.8-1.1 0-1.8-0.8-0.8-0.7-0.8-1.7 0-1.1 0.8-1.8 0.7-0.8 1.8-0.8 1 0 1.7 0.8 0.4 0.4 0.6 0.8 0.2 0.5 0.2 1zm-2.5-1.6q-0.4 0-0.7 0.1-0.2 0.2-0.5 0.4-0.2 0.2-0.3 0.5-0.1 0.3-0.1 0.6 0 0.3 0.1 0.6 0.1 0.3 0.3 0.5 0.3 0.2 0.5 0.3 0.3 0.2 0.7 0.2 0.3 0 0.6-0.2 0.3-0.1 0.5-0.3 0.2-0.2 0.3-0.5 0.1-0.3 0.1-0.6 0-0.4-0.1-0.6-0.1-0.3-0.3-0.5-0.2-0.2-0.5-0.4-0.3-0.1-0.6-0.1z"/><path class="b" d="m149.6 223.6q0 0.2-0.2 0.3-0.1 0.2-0.3 0.2-0.2 0-0.3-0.2-0.2-0.1-0.2-0.3v-6.2q0-0.2 0.2-0.4 0.1-0.1 0.3-0.1 0.2 0 0.3 0.1 0.2 0.2 0.2 0.4v2.1q0.6-0.4 1.4-0.4 0.4 0 0.9 0.1 0.4 0.2 0.7 0.5 0.3 0.4 0.5 0.8 0.2 0.4 0.2 0.9v2.2q0 0.2-0.1 0.3-0.2 0.2-0.4 0.2-0.2 0-0.3-0.2-0.1-0.1-0.1-0.3v-2.2q0-0.3-0.1-0.5-0.1-0.3-0.3-0.5-0.2-0.2-0.5-0.3-0.2-0.1-0.5-0.1-0.3 0-0.6 0.1-0.2 0.1-0.4 0.3-0.2 0.2-0.3 0.5-0.1 0.2-0.1 0.5v2.2z"/><path class="b" d="m157.8 223.6v-0.1q-0.3 0.3-0.7 0.4-0.4 0.2-0.9 0.2-1 0-1.7-0.8-0.8-0.7-0.8-1.7 0-1.1 0.8-1.8 0.7-0.8 1.7-0.8 1.1 0 1.8 0.8 0.8 0.7 0.8 1.8v2q0 0.2-0.2 0.3-0.1 0.2-0.3 0.2-0.2 0-0.3-0.2-0.2-0.1-0.2-0.3zm-1.6-3.6q-0.3 0-0.6 0.1-0.3 0.1-0.5 0.3-0.2 0.3-0.3 0.5-0.1 0.3-0.1 0.7 0 0.3 0.1 0.6 0.1 0.3 0.3 0.5 0.2 0.2 0.5 0.3 0.3 0.1 0.6 0.1 0.4 0 0.7-0.1 0.3-0.1 0.5-0.3 0.2-0.2 0.3-0.5 0.1-0.3 0.1-0.6 0-0.4-0.1-0.7-0.1-0.2-0.3-0.5-0.2-0.2-0.5-0.3-0.3-0.1-0.7-0.1z"/><path class="b" d="m162 222q-0.2 0-0.3-0.1-0.1-0.1-0.1-0.3 0-0.2 0.1-0.4 0.1-0.1 0.3-0.1h2.1q0.2 0 0.3 0.1 0.2 0.2 0.2 0.4 0 0.2-0.2 0.3-0.1 0.1-0.3 0.1z"/><path class="b" d="m173.1 223.4q-0.5 0.3-1 0.5-0.6 0.2-1.2 0.2-1.5 0-2.5-1.1-1.1-1-1.1-2.5 0-1.5 1.1-2.5 1-1.1 2.5-1.1 1.5 0 2.6 1.1 0.5 0.5 0.7 1.1 0.3 0.6 0.3 1.4 0 0.6-0.2 1.2-0.2 0.5-0.5 1l0.6 0.6q0.1 0.1 0.1 0.3 0 0.1 0 0.2-0.1 0.1-0.1 0.2-0.1 0-0.2 0.1-0.1 0-0.2 0-0.2 0-0.3-0.1l-0.6-0.6zm-1.3-1.4q-0.2-0.1-0.2-0.3 0-0.1 0.1-0.2 0-0.1 0.1-0.1 0-0.1 0.1-0.1 0.1-0.1 0.2-0.1 0.2 0 0.4 0.2l0.6 0.6q0.4-0.7 0.4-1.5 0-1.1-0.7-1.9-0.8-0.8-1.9-0.8-0.5 0-1 0.2-0.5 0.2-0.9 0.6-0.4 0.4-0.5 0.9-0.2 0.4-0.2 1 0 1.1 0.7 1.9 0.8 0.7 1.9 0.7 0.9 0 1.5-0.4l-0.6-0.7z"/><path class="b" d="m179 223.6v-0.1q-0.3 0.3-0.7 0.4-0.4 0.2-0.8 0.2-1.1 0-1.8-0.8-0.8-0.7-0.8-1.7 0-1.1 0.8-1.8 0.7-0.8 1.8-0.8 1 0 1.7 0.8 0.8 0.7 0.8 1.8v2q0 0.2-0.2 0.3-0.1 0.2-0.3 0.2-0.2 0-0.3-0.2-0.2-0.1-0.2-0.3zm-1.5-3.6q-0.4 0-0.7 0.1-0.2 0.1-0.5 0.3-0.2 0.3-0.3 0.5-0.1 0.3-0.1 0.7 0 0.3 0.1 0.6 0.1 0.3 0.3 0.5 0.3 0.2 0.5 0.3 0.3 0.1 0.7 0.1 0.3 0 0.6-0.1 0.3-0.1 0.5-0.3 0.2-0.2 0.3-0.5 0.1-0.3 0.1-0.6 0-0.4-0.1-0.7-0.1-0.2-0.3-0.5-0.2-0.2-0.5-0.3-0.3-0.1-0.6-0.1z"/><path class="b" d="m180.9 219h0.2v-1.6q0-0.2 0.1-0.4 0.1-0.1 0.3-0.1 0.2 0 0.4 0.1 0.1 0.2 0.1 0.4v1.6h0.6q0.2 0 0.3 0.2 0.1 0.1 0.1 0.3 0 0.2-0.1 0.4-0.1 0.1-0.3 0.1h-0.6v2.3q0 0.9 0.9 0.9 0.2 0 0.3 0.1 0.2 0.1 0.2 0.3 0 0.2-0.2 0.4-0.1 0.1-0.3 0.1-1.8 0-1.8-1.8v-2.3h-0.2q-0.2 0-0.4-0.1-0.1-0.2-0.1-0.4 0-0.2 0.1-0.3 0.2-0.2 0.4-0.2z"/><path class="b" d="m187.6 223.6v-0.1q-0.4 0.3-0.8 0.4-0.4 0.2-0.8 0.2-1.1 0-1.8-0.8-0.7-0.7-0.7-1.7 0-1.1 0.7-1.8 0.7-0.8 1.8-0.8 1 0 1.8 0.8 0.7 0.7 0.7 1.8v2q0 0.2-0.1 0.3-0.2 0.2-0.4 0.2-0.2 0-0.3-0.2-0.1-0.1-0.1-0.3zm-1.6-3.6q-0.4 0-0.6 0.1-0.3 0.1-0.5 0.3-0.3 0.3-0.4 0.5-0.1 0.3-0.1 0.7 0 0.3 0.1 0.6 0.1 0.3 0.4 0.5 0.2 0.2 0.5 0.3 0.2 0.1 0.6 0.1 0.3 0 0.6-0.1 0.3-0.1 0.5-0.3 0.2-0.2 0.3-0.5 0.2-0.3 0.2-0.6 0-0.4-0.2-0.7-0.1-0.2-0.3-0.5-0.2-0.2-0.5-0.3-0.3-0.1-0.6-0.1z"/><path class="b" d="m189.8 219.5v0.1q0.4-0.3 0.8-0.4 0.4-0.2 0.8-0.2 0.2 0 0.5 0.1 0.2 0 0.4 0.1 0.2 0 0.3 0.2 0.1 0.1 0.1 0.3 0 0.1 0 0.2-0.1 0-0.1 0.1-0.1 0.1-0.2 0.1-0.1 0-0.1 0-0.1 0-0.2 0-0.3-0.1-0.7-0.1-0.3 0-0.6 0.1-0.3 0.1-0.5 0.3-0.2 0.3-0.3 0.5-0.1 0.3-0.1 0.7v2q0 0.2-0.2 0.3-0.1 0.2-0.3 0.2-0.2 0-0.4-0.2-0.1-0.1-0.1-0.3v-4.1q0-0.2 0.1-0.3 0.2-0.2 0.4-0.2 0.2 0 0.3 0.2 0.2 0.1 0.2 0.3z"/><path fill-rule="evenodd" class="a" d="m199 214v14h-68v-14z"/></svg>